<svg width="1000" height="1000" xmlns="http://www.w3.org/2000/svg"><path d="M 484 836 L 498 848 C 626 762 656 644 657 507 L 657 223 C 681 219 689 210 692 196 L 601 186 L 601 307 L 475 307 L 483 337 L 601 337 L 601 456 L 482 456 L 490 486 L 601 486 L 601 507 C 601 537 600 566 597 594 C 539 610 482 626 455 632 L 485 696 C 494 692 501 684 504 673 C 540 653 570 634 594 620 C 581 704 552 776 484 836 Z" fill="black" /><path d="M 819 196 L 728 185 L 728 839 L 740 839 C 760 839 785 826 785 817 L 785 646 L 932 646 C 945 646 955 641 958 630 C 929 602 882 564 882 564 L 841 616 L 785 616 L 785 487 L 912 487 C 926 487 935 482 938 471 C 909 443 864 406 864 406 L 824 457 L 785 457 L 785 337 L 919 337 C 933 337 942 332 945 321 C 917 293 871 256 871 256 L 830 307 L 785 307 L 785 221 C 808 218 817 209 819 196 Z" fill="black" /><path d="M 886 817 L 841 873 L 441 873 L 441 154 L 932 154 C 946 154 955 149 958 138 C 926 108 874 68 874 68 L 829 124 L 453 124 L 378 85 L 378 866 C 363 873 348 882 340 890 L 420 940 L 449 903 L 943 903 C 957 903 967 898 970 887 C 937 857 886 817 886 817 Z" fill="black" /><path d="M 263 207 L 250 213 C 274 254 299 319 300 370 C 351 421 414 305 263 207 Z" fill="black" /><path d="M 280 52 L 183 41 L 183 958 L 195 958 C 218 958 243 944 243 935 L 243 81 C 269 77 277 66 280 52 Z" fill="black" /><path d="M 111 235 L 93 234 C 100 302 78 384 55 417 C 38 435 30 458 44 475 C 61 495 95 483 111 457 C 133 419 142 337 111 235 Z" fill="black" /></svg>