<svg width="3000" height="1080" xmlns="http://www.w3.org/2000/svg" style="background:#fff"><path d="M 111 235 L 93 234 C 100 302 78 384 55 417 C 38 435 30 458 44 475 C 61 495 95 483 111 457 C 133 419 142 337 111 235 Z M 280 52 L 183 41 L 183 958 L 195 958 C 218 958 243 944 243 935 L 243 81 C 269 77 277 66 280 52 Z M 263 207 L 250 213 C 274 254 299 319 300 370 C 351 421 414 305 263 207 Z M 886 817 L 841 873 L 441 873 L 441 154 L 932 154 C 946 154 955 149 958 138 C 926 108 874 68 874 68 L 829 124 L 453 124 L 378 85 L 378 866 C 363 873 348 882 340 890 L 420 940 L 449 903 L 943 903 C 957 903 967 898 970 887 C 937 857 886 817 886 817 Z M 825 196 L 733 185 L 733 839 L 745 839 C 765 839 791 825 791 817 L 791 661 L 931 661 C 944 661 954 656 956 645 C 927 617 882 580 882 580 L 841 631 L 791 631 L 791 492 L 911 492 C 925 492 934 487 936 476 C 909 448 863 412 863 412 L 824 462 L 791 462 L 791 336 L 919 336 C 933 336 942 331 944 320 C 916 293 871 256 871 256 L 830 307 L 791 307 L 791 221 C 814 218 822 209 825 196 Z M 598 842 L 610 842 C 630 842 656 827 656 818 L 656 218 C 679 215 687 205 690 192 L 598 182 L 598 307 L 481 307 L 490 336 L 598 336 L 598 461 L 489 461 L 498 491 L 598 491 L 598 631 L 469 631 L 478 661 L 598 661 L 598 842 Z" fill="blue" /><path transform="translate(1000)" d="M 111 235 L 93 234 C 100 302 78 384 55 417 C 38 435 30 458 44 475 C 61 495 95 483 111 457 C 133 419 142 337 111 235 Z M 280 52 L 183 41 L 183 958 L 195 958 C 218 958 243 944 243 935 L 243 81 C 269 77 277 66 280 52 Z M 263 207 L 250 213 C 274 254 299 319 300 370 C 351 421 414 305 263 207 Z M 886 817 L 841 873 L 441 873 L 441 154 L 932 154 C 946 154 955 149 958 138 C 926 108 874 68 874 68 L 829 124 L 453 124 L 378 85 L 378 866 C 363 873 348 882 340 890 L 420 940 L 449 903 L 943 903 C 957 903 967 898 970 887 C 937 857 886 817 886 817 Z M 819 196 L 728 185 L 728 839 L 740 839 C 760 839 785 826 785 817 L 785 646 L 932 646 C 945 646 955 641 958 630 C 929 602 882 564 882 564 L 841 616 L 785 616 L 785 487 L 912 487 C 926 487 935 482 938 471 C 909 443 864 406 864 406 L 824 457 L 785 457 L 785 337 L 919 337 C 933 337 942 332 945 321 C 917 293 871 256 871 256 L 830 307 L 785 307 L 785 221 C 808 218 817 209 819 196 Z M 484 836 L 498 848 C 626 762 656 644 657 507 L 657 223 C 681 219 689 210 692 196 L 601 186 L 601 307 L 475 307 L 483 337 L 601 337 L 601 456 L 482 456 L 490 486 L 601 486 L 601 507 C 601 537 600 566 597 594 C 539 610 482 626 455 632 L 485 696 C 494 692 501 684 504 673 C 540 653 570 634 594 620 C 581 704 552 776 484 836 Z" fill="red" /><path transform="translate(2000)" d="M 111 235 L 93 234 C 100 302 78 384 55 417 C 38 435 30 458 44 475 C 61 495 95 483 111 457 C 133 419 142 337 111 235 Z M 280 52 L 183 41 L 183 958 L 195 958 C 218 958 243 944 243 935 L 243 81 C 269 77 277 66 280 52 Z M 263 207 L 250 213 C 274 254 299 319 300 370 C 351 421 414 305 263 207 Z M 886 817 L 841 873 L 441 873 L 441 154 L 932 154 C 946 154 955 149 958 138 C 926 108 874 68 874 68 L 829 124 L 453 124 L 378 85 L 378 866 C 363 873 348 882 340 890 L 420 940 L 449 903 L 943 903 C 957 903 967 898 970 887 C 937 857 886 817 886 817 Z M 825 196 L 733 185 L 733 839 L 745 839 C 765 839 791 825 791 817 L 791 661 L 931 661 C 944 661 954 656 956 645 C 927 617 882 580 882 580 L 841 631 L 791 631 L 791 492 L 911 492 C 925 492 934 487 936 476 C 909 448 863 412 863 412 L 824 462 L 791 462 L 791 336 L 919 336 C 933 336 942 331 944 320 C 916 293 871 256 871 256 L 830 307 L 791 307 L 791 221 C 814 218 822 209 825 196 Z M 598 842 L 610 842 C 630 842 656 827 656 818 L 656 218 C 679 215 687 205 690 192 L 598 182 L 598 307 L 481 307 L 490 336 L 598 336 L 598 461 L 489 461 L 498 491 L 598 491 L 598 631 L 469 631 L 478 661 L 598 661 L 598 842 Z" fill="blue" fill-opacity="0.5" /><path transform="translate(2000)" d="M 111 235 L 93 234 C 100 302 78 384 55 417 C 38 435 30 458 44 475 C 61 495 95 483 111 457 C 133 419 142 337 111 235 Z M 280 52 L 183 41 L 183 958 L 195 958 C 218 958 243 944 243 935 L 243 81 C 269 77 277 66 280 52 Z M 263 207 L 250 213 C 274 254 299 319 300 370 C 351 421 414 305 263 207 Z M 886 817 L 841 873 L 441 873 L 441 154 L 932 154 C 946 154 955 149 958 138 C 926 108 874 68 874 68 L 829 124 L 453 124 L 378 85 L 378 866 C 363 873 348 882 340 890 L 420 940 L 449 903 L 943 903 C 957 903 967 898 970 887 C 937 857 886 817 886 817 Z M 819 196 L 728 185 L 728 839 L 740 839 C 760 839 785 826 785 817 L 785 646 L 932 646 C 945 646 955 641 958 630 C 929 602 882 564 882 564 L 841 616 L 785 616 L 785 487 L 912 487 C 926 487 935 482 938 471 C 909 443 864 406 864 406 L 824 457 L 785 457 L 785 337 L 919 337 C 933 337 942 332 945 321 C 917 293 871 256 871 256 L 830 307 L 785 307 L 785 221 C 808 218 817 209 819 196 Z M 484 836 L 498 848 C 626 762 656 644 657 507 L 657 223 C 681 219 689 210 692 196 L 601 186 L 601 307 L 475 307 L 483 337 L 601 337 L 601 456 L 482 456 L 490 486 L 601 486 L 601 507 C 601 537 600 566 597 594 C 539 610 482 626 455 632 L 485 696 C 494 692 501 684 504 673 C 540 653 570 634 594 620 C 581 704 552 776 484 836 Z" fill="red" fill-opacity="0.5" /><text text-anchor="middle" x="500" y="1064" font-family="Arial" font-size="64">Source Han Serif TW</text><text text-anchor="middle" x="1500" y="1064" font-family="Arial" font-size="64">HKSerif (uni3971HK-regular)</text></svg>