<svg width="3000" height="1080" xmlns="http://www.w3.org/2000/svg" style="background:#fff"><path d="M 345 130 L 353 159 L 516 159 L 516 221 L 527 221 C 548 221 574 208 574 201 L 574 159 L 719 159 L 719 220 L 730 220 C 751 220 776 207 776 200 L 776 159 L 935 159 C 948 159 957 154 960 143 C 934 118 895 86 895 86 L 859 130 L 776 130 L 776 65 C 798 62 807 53 809 41 L 719 31 L 719 130 L 574 130 L 574 66 C 595 63 605 54 607 41 L 516 32 L 516 130 L 345 130 Z M 823 382 L 743 382 L 743 268 L 823 268 L 823 382 Z M 476 382 L 476 268 L 561 268 L 561 382 L 476 382 Z M 613 268 L 691 268 L 691 382 L 613 382 L 613 268 Z M 823 435 L 832 435 C 851 435 879 421 880 415 L 880 276 C 898 273 913 265 917 258 L 846 205 L 814 238 L 482 238 L 419 210 L 419 444 L 428 444 C 451 444 476 431 476 426 L 476 412 L 823 412 L 823 435 Z M 198 302 L 292 302 C 282 423 264 544 226 655 C 197 634 163 611 122 589 C 148 506 175 400 198 302 Z M 392 297 L 322 232 L 284 272 L 205 272 C 222 199 236 132 246 81 C 273 81 280 70 284 59 L 184 38 C 177 94 162 181 144 272 L 44 272 L 53 302 L 137 302 C 114 408 88 516 67 581 C 109 615 160 662 204 710 C 167 797 114 876 39 941 L 52 954 C 135 897 195 827 239 750 C 266 784 289 818 303 849 C 357 883 400 808 268 690 C 322 571 342 439 355 311 C 376 308 385 305 392 297 Z M 779 868 L 495 868 L 495 789 L 779 789 L 779 868 Z M 495 688 L 779 688 L 779 759 L 495 759 L 495 688 Z M 495 590 L 779 590 L 779 659 L 495 659 L 495 590 Z M 805 525 L 770 561 L 500 561 L 434 530 L 434 954 L 445 954 C 470 954 495 939 495 933 L 495 898 L 779 898 L 779 951 L 789 951 C 810 951 839 933 840 926 L 840 598 C 856 595 871 587 876 581 L 805 525 Z M 966 496 L 901 432 L 867 468 L 422 468 C 420 458 418 445 414 432 L 396 432 C 400 471 378 520 355 539 C 338 551 327 570 337 586 C 348 605 378 601 395 585 C 411 570 424 539 424 497 L 872 497 C 868 518 862 541 859 555 L 875 561 C 889 547 916 522 930 505 C 948 504 959 502 966 496 Z" fill="blue" /><path transform="translate(1000)" d="M 753 203 L 753 162 L 937 162 C 951 162 959 157 961 146 C 933 116 885 77 885 77 L 843 132 L 753 132 L 753 81 C 778 77 787 68 789 55 L 691 44 L 691 220 L 704 220 C 726 220 753 209 753 203 Z M 345 132 L 364 162 L 541 162 L 541 222 L 553 222 C 575 222 603 211 603 205 L 603 81 C 627 77 637 68 639 55 L 541 44 L 541 132 L 345 132 Z M 823 382 L 743 382 L 743 268 L 823 268 L 823 382 Z M 476 382 L 476 268 L 561 268 L 561 382 L 476 382 Z M 613 268 L 691 268 L 691 382 L 613 382 L 613 268 Z M 823 435 L 832 435 C 851 435 879 421 880 415 L 880 276 C 898 273 913 265 917 258 L 846 205 L 814 238 L 482 238 L 419 210 L 419 444 L 428 444 C 451 444 476 431 476 426 L 476 412 L 823 412 L 823 435 Z M 198 302 L 292 302 C 282 423 264 544 226 655 C 197 634 163 611 122 589 C 148 506 175 400 198 302 Z M 392 297 L 322 232 L 284 272 L 205 272 C 222 199 236 132 246 81 C 273 81 280 70 284 59 L 184 38 C 177 94 162 181 144 272 L 44 272 L 53 302 L 137 302 C 114 408 88 516 67 581 C 109 615 160 662 204 710 C 167 797 114 876 39 941 L 52 954 C 135 897 195 827 239 750 C 266 784 289 818 303 849 C 357 883 400 808 268 690 C 322 571 342 439 355 311 C 376 308 385 305 392 297 Z M 779 868 L 520 868 L 520 789 L 779 789 L 779 868 Z M 520 688 L 779 688 L 779 759 L 520 759 L 520 688 Z M 520 590 L 779 590 L 779 659 L 520 659 L 520 590 Z M 805 525 L 770 561 L 525 561 L 459 530 L 459 954 L 470 954 C 495 954 520 939 520 933 L 520 898 L 779 898 L 779 951 L 789 951 C 810 951 839 933 840 926 L 840 598 C 856 595 871 587 876 581 L 805 525 Z M 966 496 L 901 432 L 867 468 L 422 468 C 420 458 418 445 414 432 L 396 432 C 400 471 378 520 355 539 C 338 551 327 570 337 586 C 348 605 378 601 395 585 C 411 570 424 539 424 497 L 872 497 C 868 518 862 541 859 555 L 875 561 C 889 547 916 522 930 505 C 948 504 959 502 966 496 Z" fill="red" /><path transform="translate(2000)" d="M 345 130 L 353 159 L 516 159 L 516 221 L 527 221 C 548 221 574 208 574 201 L 574 159 L 719 159 L 719 220 L 730 220 C 751 220 776 207 776 200 L 776 159 L 935 159 C 948 159 957 154 960 143 C 934 118 895 86 895 86 L 859 130 L 776 130 L 776 65 C 798 62 807 53 809 41 L 719 31 L 719 130 L 574 130 L 574 66 C 595 63 605 54 607 41 L 516 32 L 516 130 L 345 130 Z M 823 382 L 743 382 L 743 268 L 823 268 L 823 382 Z M 476 382 L 476 268 L 561 268 L 561 382 L 476 382 Z M 613 268 L 691 268 L 691 382 L 613 382 L 613 268 Z M 823 435 L 832 435 C 851 435 879 421 880 415 L 880 276 C 898 273 913 265 917 258 L 846 205 L 814 238 L 482 238 L 419 210 L 419 444 L 428 444 C 451 444 476 431 476 426 L 476 412 L 823 412 L 823 435 Z M 198 302 L 292 302 C 282 423 264 544 226 655 C 197 634 163 611 122 589 C 148 506 175 400 198 302 Z M 392 297 L 322 232 L 284 272 L 205 272 C 222 199 236 132 246 81 C 273 81 280 70 284 59 L 184 38 C 177 94 162 181 144 272 L 44 272 L 53 302 L 137 302 C 114 408 88 516 67 581 C 109 615 160 662 204 710 C 167 797 114 876 39 941 L 52 954 C 135 897 195 827 239 750 C 266 784 289 818 303 849 C 357 883 400 808 268 690 C 322 571 342 439 355 311 C 376 308 385 305 392 297 Z M 779 868 L 495 868 L 495 789 L 779 789 L 779 868 Z M 495 688 L 779 688 L 779 759 L 495 759 L 495 688 Z M 495 590 L 779 590 L 779 659 L 495 659 L 495 590 Z M 805 525 L 770 561 L 500 561 L 434 530 L 434 954 L 445 954 C 470 954 495 939 495 933 L 495 898 L 779 898 L 779 951 L 789 951 C 810 951 839 933 840 926 L 840 598 C 856 595 871 587 876 581 L 805 525 Z M 966 496 L 901 432 L 867 468 L 422 468 C 420 458 418 445 414 432 L 396 432 C 400 471 378 520 355 539 C 338 551 327 570 337 586 C 348 605 378 601 395 585 C 411 570 424 539 424 497 L 872 497 C 868 518 862 541 859 555 L 875 561 C 889 547 916 522 930 505 C 948 504 959 502 966 496 Z" fill="blue" fill-opacity="0.5" /><path transform="translate(2000)" d="M 753 203 L 753 162 L 937 162 C 951 162 959 157 961 146 C 933 116 885 77 885 77 L 843 132 L 753 132 L 753 81 C 778 77 787 68 789 55 L 691 44 L 691 220 L 704 220 C 726 220 753 209 753 203 Z M 345 132 L 364 162 L 541 162 L 541 222 L 553 222 C 575 222 603 211 603 205 L 603 81 C 627 77 637 68 639 55 L 541 44 L 541 132 L 345 132 Z M 823 382 L 743 382 L 743 268 L 823 268 L 823 382 Z M 476 382 L 476 268 L 561 268 L 561 382 L 476 382 Z M 613 268 L 691 268 L 691 382 L 613 382 L 613 268 Z M 823 435 L 832 435 C 851 435 879 421 880 415 L 880 276 C 898 273 913 265 917 258 L 846 205 L 814 238 L 482 238 L 419 210 L 419 444 L 428 444 C 451 444 476 431 476 426 L 476 412 L 823 412 L 823 435 Z M 198 302 L 292 302 C 282 423 264 544 226 655 C 197 634 163 611 122 589 C 148 506 175 400 198 302 Z M 392 297 L 322 232 L 284 272 L 205 272 C 222 199 236 132 246 81 C 273 81 280 70 284 59 L 184 38 C 177 94 162 181 144 272 L 44 272 L 53 302 L 137 302 C 114 408 88 516 67 581 C 109 615 160 662 204 710 C 167 797 114 876 39 941 L 52 954 C 135 897 195 827 239 750 C 266 784 289 818 303 849 C 357 883 400 808 268 690 C 322 571 342 439 355 311 C 376 308 385 305 392 297 Z M 779 868 L 520 868 L 520 789 L 779 789 L 779 868 Z M 520 688 L 779 688 L 779 759 L 520 759 L 520 688 Z M 520 590 L 779 590 L 779 659 L 520 659 L 520 590 Z M 805 525 L 770 561 L 525 561 L 459 530 L 459 954 L 470 954 C 495 954 520 939 520 933 L 520 898 L 779 898 L 779 951 L 789 951 C 810 951 839 933 840 926 L 840 598 C 856 595 871 587 876 581 L 805 525 Z M 966 496 L 901 432 L 867 468 L 422 468 C 420 458 418 445 414 432 L 396 432 C 400 471 378 520 355 539 C 338 551 327 570 337 586 C 348 605 378 601 395 585 C 411 570 424 539 424 497 L 872 497 C 868 518 862 541 859 555 L 875 561 C 889 547 916 522 930 505 C 948 504 959 502 966 496 Z" fill="red" fill-opacity="0.5" /><text text-anchor="middle" x="500" y="1064" font-family="Arial" font-size="64">Source Han Serif TW</text><text text-anchor="middle" x="1500" y="1064" font-family="Arial" font-size="64">HKSerif (uni3734HK-regular)</text></svg>