<svg width="3000" height="1080" xmlns="http://www.w3.org/2000/svg" style="background:#fff"><path d="M 381 204 L 371 212 C 432 269 514 362 539 433 C 618 484 662 320 381 204 Z M 516 640 L 511 625 C 418 659 325 693 245 721 L 235 129 C 261 125 269 114 270 100 L 170 92 L 180 743 C 118 764 66 781 33 789 L 76 874 C 86 870 95 859 97 847 C 280 764 416 692 516 640 Z M 893 107 L 785 94 C 776 470 732 733 269 938 L 280 957 C 488 882 619 793 703 689 C 778 763 865 864 896 942 C 979 995 1017 825 719 668 C 827 520 846 343 856 136 C 878 133 890 122 893 107 Z" fill="blue" /><path transform="translate(1000)" d="M 371 212 L 361 220 C 422 277 504 370 529 441 C 608 492 652 328 371 212 Z M 171 751 L 237 752 L 237 134 C 262 130 273 121 275 106 L 171 94 L 171 751 Z M 877 92 L 768 80 C 762 528 741 764 279 950 L 288 969 C 534 890 668 793 742 667 L 753 646 C 824 511 833 342 839 121 C 864 118 874 107 877 92 Z M 719 656 L 703 677 C 778 751 865 852 896 930 C 979 983 1017 813 719 656 Z M 516 640 L 511 625 C 418 659 325 693 245 721 L 180 743 C 118 764 66 781 33 789 L 76 874 C 86 870 95 859 97 847 C 280 764 416 692 516 640 Z" fill="red" /><path transform="translate(2000)" d="M 381 204 L 371 212 C 432 269 514 362 539 433 C 618 484 662 320 381 204 Z M 516 640 L 511 625 C 418 659 325 693 245 721 L 235 129 C 261 125 269 114 270 100 L 170 92 L 180 743 C 118 764 66 781 33 789 L 76 874 C 86 870 95 859 97 847 C 280 764 416 692 516 640 Z M 893 107 L 785 94 C 776 470 732 733 269 938 L 280 957 C 488 882 619 793 703 689 C 778 763 865 864 896 942 C 979 995 1017 825 719 668 C 827 520 846 343 856 136 C 878 133 890 122 893 107 Z" fill="blue" fill-opacity="0.5" /><path transform="translate(2000)" d="M 371 212 L 361 220 C 422 277 504 370 529 441 C 608 492 652 328 371 212 Z M 171 751 L 237 752 L 237 134 C 262 130 273 121 275 106 L 171 94 L 171 751 Z M 877 92 L 768 80 C 762 528 741 764 279 950 L 288 969 C 534 890 668 793 742 667 L 753 646 C 824 511 833 342 839 121 C 864 118 874 107 877 92 Z M 719 656 L 703 677 C 778 751 865 852 896 930 C 979 983 1017 813 719 656 Z M 516 640 L 511 625 C 418 659 325 693 245 721 L 180 743 C 118 764 66 781 33 789 L 76 874 C 86 870 95 859 97 847 C 280 764 416 692 516 640 Z" fill="red" fill-opacity="0.5" /><text text-anchor="middle" x="500" y="1064" font-family="Arial" font-size="64">Source Han Serif TW</text><text text-anchor="middle" x="1500" y="1064" font-family="Arial" font-size="64">HKSerif (uni4EE5HK-regular-v3)</text></svg>