<svg width="3000" height="1080" xmlns="http://www.w3.org/2000/svg" style="background:#fff"><path d="M 620 185 L 625 203 C 665 197 706 188 746 179 L 746 399 L 643 399 L 651 428 L 746 428 L 746 703 L 617 703 L 625 733 L 943 733 C 957 733 966 728 969 717 C 940 688 895 649 895 649 L 854 703 L 804 703 L 804 428 L 926 428 C 940 428 950 423 952 412 C 924 383 877 344 877 344 L 836 399 L 804 399 L 804 162 C 841 151 875 140 902 129 C 923 136 939 135 948 126 L 871 67 C 818 104 710 157 620 185 Z M 318 732 L 174 732 L 174 641 L 318 641 L 318 732 Z M 174 521 L 318 521 L 318 611 L 174 611 L 174 521 Z M 413 511 L 338 456 L 310 491 L 179 491 L 116 462 L 116 957 L 126 957 C 151 957 174 944 174 937 L 174 762 L 318 762 L 318 883 C 318 895 314 901 299 901 C 284 901 223 895 223 895 L 223 911 C 253 915 269 920 280 926 C 289 932 292 943 294 954 C 366 948 376 927 376 885 L 376 529 C 393 525 407 518 413 511 Z M 169 374 L 169 254 L 220 254 L 220 374 L 169 374 Z M 169 137 L 320 137 L 320 374 L 264 374 L 264 262 C 282 259 298 251 304 244 L 238 194 L 211 224 L 169 224 L 169 137 Z M 668 443 L 598 382 L 563 420 L 516 420 C 547 344 587 232 609 164 C 630 163 648 158 656 149 L 583 83 L 548 120 L 429 120 L 438 149 L 552 149 C 531 220 493 328 465 399 L 404 338 L 373 371 L 373 144 C 398 142 411 136 418 126 L 340 67 L 308 107 L 181 107 L 117 79 L 117 374 L 103 374 C 102 364 99 353 96 343 L 78 343 C 81 376 64 421 45 436 C 30 449 21 469 31 484 C 42 501 70 496 84 481 C 97 467 106 439 106 404 L 378 404 C 373 427 368 455 365 471 L 382 477 C 397 461 420 430 432 411 C 446 410 455 409 462 406 L 461 410 C 448 415 436 421 427 427 L 486 474 L 512 450 L 571 450 C 567 546 557 641 530 727 C 500 684 474 629 454 559 L 440 565 C 458 651 483 718 515 770 C 488 834 450 893 394 943 L 404 957 C 466 915 511 865 543 810 C 613 895 711 924 845 924 L 928 924 C 928 897 940 873 964 868 L 964 855 L 853 855 C 727 855 634 833 565 767 C 609 672 623 564 632 457 C 652 455 661 452 668 443 Z" fill="blue" /><path transform="translate(1000)" d="M 620 185 L 625 203 C 665 197 706 188 746 179 L 746 399 L 643 399 L 651 428 L 746 428 L 746 703 L 617 703 L 625 733 L 943 733 C 957 733 966 728 969 717 C 940 688 895 649 895 649 L 854 703 L 804 703 L 804 428 L 926 428 C 940 428 950 423 952 412 C 924 383 877 344 877 344 L 836 399 L 804 399 L 804 162 C 841 151 875 140 902 129 C 923 136 939 135 948 126 L 871 67 C 818 104 710 157 620 185 Z M 318 732 L 174 732 L 174 641 L 318 641 L 318 732 Z M 174 521 L 318 521 L 318 611 L 174 611 L 174 521 Z M 413 511 L 338 456 L 310 491 L 179 491 L 116 462 L 116 957 L 126 957 C 151 957 174 944 174 937 L 174 762 L 318 762 L 318 883 C 318 895 314 901 299 901 C 284 901 223 895 223 895 L 223 911 C 253 915 269 920 280 926 C 289 932 292 943 294 954 C 366 948 376 927 376 885 L 376 529 C 393 525 407 518 413 511 Z M 169 374 L 169 137 L 320 137 L 320 224 L 278 224 L 220 198 L 220 374 L 169 374 Z M 265 374 L 265 254 L 320 254 L 320 374 L 265 374 Z M 668 443 L 598 382 L 563 420 L 516 420 C 547 344 587 232 609 164 C 630 163 648 158 656 149 L 583 83 L 548 120 L 429 120 L 438 149 L 552 149 C 531 220 493 328 465 399 L 404 338 L 373 371 L 373 144 C 398 142 411 136 418 126 L 340 67 L 308 107 L 181 107 L 117 79 L 117 374 L 103 374 C 102 364 99 353 96 343 L 78 343 C 81 376 64 421 45 436 C 30 449 21 469 31 484 C 42 501 70 496 84 481 C 97 467 106 439 106 404 L 378 404 C 373 427 368 455 365 471 L 382 477 C 397 461 420 430 432 411 C 446 410 455 409 462 406 L 461 410 C 448 415 436 421 427 427 L 486 474 L 512 450 L 571 450 C 567 546 557 641 530 727 C 500 684 474 629 454 559 L 440 565 C 458 651 483 718 515 770 C 488 834 450 893 394 943 L 404 957 C 466 915 511 865 543 810 C 613 895 711 924 845 924 L 928 924 C 928 897 940 873 964 868 L 964 855 L 853 855 C 727 855 634 833 565 767 C 609 672 623 564 632 457 C 652 455 661 452 668 443 Z" fill="red" /><path transform="translate(2000)" d="M 620 185 L 625 203 C 665 197 706 188 746 179 L 746 399 L 643 399 L 651 428 L 746 428 L 746 703 L 617 703 L 625 733 L 943 733 C 957 733 966 728 969 717 C 940 688 895 649 895 649 L 854 703 L 804 703 L 804 428 L 926 428 C 940 428 950 423 952 412 C 924 383 877 344 877 344 L 836 399 L 804 399 L 804 162 C 841 151 875 140 902 129 C 923 136 939 135 948 126 L 871 67 C 818 104 710 157 620 185 Z M 318 732 L 174 732 L 174 641 L 318 641 L 318 732 Z M 174 521 L 318 521 L 318 611 L 174 611 L 174 521 Z M 413 511 L 338 456 L 310 491 L 179 491 L 116 462 L 116 957 L 126 957 C 151 957 174 944 174 937 L 174 762 L 318 762 L 318 883 C 318 895 314 901 299 901 C 284 901 223 895 223 895 L 223 911 C 253 915 269 920 280 926 C 289 932 292 943 294 954 C 366 948 376 927 376 885 L 376 529 C 393 525 407 518 413 511 Z M 169 374 L 169 254 L 220 254 L 220 374 L 169 374 Z M 169 137 L 320 137 L 320 374 L 264 374 L 264 262 C 282 259 298 251 304 244 L 238 194 L 211 224 L 169 224 L 169 137 Z M 668 443 L 598 382 L 563 420 L 516 420 C 547 344 587 232 609 164 C 630 163 648 158 656 149 L 583 83 L 548 120 L 429 120 L 438 149 L 552 149 C 531 220 493 328 465 399 L 404 338 L 373 371 L 373 144 C 398 142 411 136 418 126 L 340 67 L 308 107 L 181 107 L 117 79 L 117 374 L 103 374 C 102 364 99 353 96 343 L 78 343 C 81 376 64 421 45 436 C 30 449 21 469 31 484 C 42 501 70 496 84 481 C 97 467 106 439 106 404 L 378 404 C 373 427 368 455 365 471 L 382 477 C 397 461 420 430 432 411 C 446 410 455 409 462 406 L 461 410 C 448 415 436 421 427 427 L 486 474 L 512 450 L 571 450 C 567 546 557 641 530 727 C 500 684 474 629 454 559 L 440 565 C 458 651 483 718 515 770 C 488 834 450 893 394 943 L 404 957 C 466 915 511 865 543 810 C 613 895 711 924 845 924 L 928 924 C 928 897 940 873 964 868 L 964 855 L 853 855 C 727 855 634 833 565 767 C 609 672 623 564 632 457 C 652 455 661 452 668 443 Z" fill="blue" fill-opacity="0.5" /><path transform="translate(2000)" d="M 620 185 L 625 203 C 665 197 706 188 746 179 L 746 399 L 643 399 L 651 428 L 746 428 L 746 703 L 617 703 L 625 733 L 943 733 C 957 733 966 728 969 717 C 940 688 895 649 895 649 L 854 703 L 804 703 L 804 428 L 926 428 C 940 428 950 423 952 412 C 924 383 877 344 877 344 L 836 399 L 804 399 L 804 162 C 841 151 875 140 902 129 C 923 136 939 135 948 126 L 871 67 C 818 104 710 157 620 185 Z M 318 732 L 174 732 L 174 641 L 318 641 L 318 732 Z M 174 521 L 318 521 L 318 611 L 174 611 L 174 521 Z M 413 511 L 338 456 L 310 491 L 179 491 L 116 462 L 116 957 L 126 957 C 151 957 174 944 174 937 L 174 762 L 318 762 L 318 883 C 318 895 314 901 299 901 C 284 901 223 895 223 895 L 223 911 C 253 915 269 920 280 926 C 289 932 292 943 294 954 C 366 948 376 927 376 885 L 376 529 C 393 525 407 518 413 511 Z M 169 374 L 169 137 L 320 137 L 320 224 L 278 224 L 220 198 L 220 374 L 169 374 Z M 265 374 L 265 254 L 320 254 L 320 374 L 265 374 Z M 668 443 L 598 382 L 563 420 L 516 420 C 547 344 587 232 609 164 C 630 163 648 158 656 149 L 583 83 L 548 120 L 429 120 L 438 149 L 552 149 C 531 220 493 328 465 399 L 404 338 L 373 371 L 373 144 C 398 142 411 136 418 126 L 340 67 L 308 107 L 181 107 L 117 79 L 117 374 L 103 374 C 102 364 99 353 96 343 L 78 343 C 81 376 64 421 45 436 C 30 449 21 469 31 484 C 42 501 70 496 84 481 C 97 467 106 439 106 404 L 378 404 C 373 427 368 455 365 471 L 382 477 C 397 461 420 430 432 411 C 446 410 455 409 462 406 L 461 410 C 448 415 436 421 427 427 L 486 474 L 512 450 L 571 450 C 567 546 557 641 530 727 C 500 684 474 629 454 559 L 440 565 C 458 651 483 718 515 770 C 488 834 450 893 394 943 L 404 957 C 466 915 511 865 543 810 C 613 895 711 924 845 924 L 928 924 C 928 897 940 873 964 868 L 964 855 L 853 855 C 727 855 634 833 565 767 C 609 672 623 564 632 457 C 652 455 661 452 668 443 Z" fill="red" fill-opacity="0.5" /><text text-anchor="middle" x="500" y="1064" font-family="Arial" font-size="64">Source Han Serif TW</text><text text-anchor="middle" x="1500" y="1064" font-family="Arial" font-size="64">HKSerif (uni4BD5HK-regular)</text></svg>