<svg width="3000" height="1080" xmlns="http://www.w3.org/2000/svg" style="background:#fff"><path d="M 351 577 L 173 577 L 173 211 C 197 208 206 197 208 183 L 109 172 L 109 607 L 346 607 C 315 767 239 869 54 940 L 64 959 C 458 835 428 598 431 85 C 454 81 462 71 465 57 L 364 47 C 364 271 371 444 351 577 Z M 917 180 L 818 168 L 818 576 L 639 576 L 639 83 C 662 80 670 69 673 56 L 575 45 L 575 959 L 588 959 C 612 959 639 944 639 935 L 639 606 L 881 606 C 895 606 903 601 906 590 C 898 582 890 574 881 566 L 881 208 C 906 204 914 194 917 180 Z" fill="blue" /><path transform="translate(1000)" d="M 355 54 L 355 510 C 355 536 354 560 352 584 L 182 584 L 182 195 C 207 192 214 182 217 170 L 117 159 L 117 579 C 106 586 95 594 89 601 L 163 650 L 189 613 L 349 613 C 328 760 257 865 96 943 L 106 957 C 346 868 418 720 419 510 L 419 92 C 444 89 452 79 454 65 L 355 54 Z M 930 169 L 828 158 L 828 584 L 644 584 L 644 91 C 670 88 678 77 681 63 L 579 52 L 579 957 L 592 957 C 617 957 644 940 644 930 L 644 613 L 828 613 L 828 689 L 840 689 C 866 689 893 673 893 665 L 893 196 C 919 192 928 182 930 169 Z" fill="red" /><path transform="translate(2000)" d="M 351 577 L 173 577 L 173 211 C 197 208 206 197 208 183 L 109 172 L 109 607 L 346 607 C 315 767 239 869 54 940 L 64 959 C 458 835 428 598 431 85 C 454 81 462 71 465 57 L 364 47 C 364 271 371 444 351 577 Z M 917 180 L 818 168 L 818 576 L 639 576 L 639 83 C 662 80 670 69 673 56 L 575 45 L 575 959 L 588 959 C 612 959 639 944 639 935 L 639 606 L 881 606 C 895 606 903 601 906 590 C 898 582 890 574 881 566 L 881 208 C 906 204 914 194 917 180 Z" fill="blue" fill-opacity="0.5" /><path transform="translate(2000)" d="M 355 54 L 355 510 C 355 536 354 560 352 584 L 182 584 L 182 195 C 207 192 214 182 217 170 L 117 159 L 117 579 C 106 586 95 594 89 601 L 163 650 L 189 613 L 349 613 C 328 760 257 865 96 943 L 106 957 C 346 868 418 720 419 510 L 419 92 C 444 89 452 79 454 65 L 355 54 Z M 930 169 L 828 158 L 828 584 L 644 584 L 644 91 C 670 88 678 77 681 63 L 579 52 L 579 957 L 592 957 C 617 957 644 940 644 930 L 644 613 L 828 613 L 828 689 L 840 689 C 866 689 893 673 893 665 L 893 196 C 919 192 928 182 930 169 Z" fill="red" fill-opacity="0.5" /><text text-anchor="middle" x="500" y="1064" font-family="Arial" font-size="64">Source Han Serif TW</text><text text-anchor="middle" x="1500" y="1064" font-family="Arial" font-size="64">HKSerif (uni4E31HK-regular)</text></svg>