<svg width="3000" height="1080" xmlns="http://www.w3.org/2000/svg" style="background:#fff"><path d="M 268 315 L 232 301 C 266 236 297 166 324 94 C 346 94 358 87 362 75 L 258 42 C 208 234 120 428 34 550 L 48 560 C 92 516 134 462 173 401 L 173 957 L 185 957 C 210 957 237 940 238 935 L 238 333 C 256 331 265 324 268 315 Z M 545 152 L 451 115 C 422 213 354 340 266 418 L 276 430 C 385 365 466 255 509 166 C 533 169 541 163 545 152 Z M 766 673 L 472 673 C 477 633 478 593 478 555 L 478 537 L 766 537 L 766 673 Z M 478 375 L 766 375 L 766 507 L 478 507 L 478 375 Z M 788 309 L 758 345 L 490 345 L 416 313 L 416 556 C 416 696 401 836 293 946 L 305 958 C 408 888 450 795 467 702 L 766 702 L 766 853 C 766 868 761 874 742 874 C 721 874 621 866 621 866 L 621 882 C 665 888 690 897 705 908 C 717 919 723 937 726 958 C 820 949 830 915 830 862 L 830 382 C 845 379 858 372 863 365 L 788 309 Z M 795 94 L 713 38 L 685 82 L 503 82 L 512 111 L 707 111 C 741 228 819 331 921 402 C 929 379 951 362 974 358 L 976 346 C 865 293 772 203 733 115 C 763 112 786 107 795 94 Z" fill="blue" /><path transform="translate(1000)" d="M 268 315 L 232 301 C 266 236 297 166 324 94 C 346 94 358 87 362 75 L 258 42 C 208 234 120 428 34 550 L 48 560 C 92 516 134 462 173 401 L 173 957 L 185 957 C 210 957 237 940 238 935 L 238 333 C 256 331 265 324 268 315 Z M 545 152 L 451 115 C 422 213 354 340 266 418 L 276 430 C 385 365 466 255 509 166 C 533 169 541 163 545 152 Z M 764 677 L 463 677 L 463 547 L 764 547 L 764 677 Z M 463 385 L 764 385 L 764 517 L 463 517 L 463 385 Z M 786 320 L 756 356 L 468 356 L 400 324 L 400 337 L 400 958 L 411 958 C 438 958 463 943 463 935 L 463 707 L 764 707 L 764 855 C 764 870 759 876 740 876 C 719 876 618 869 618 869 L 618 883 C 663 889 688 898 703 909 C 715 919 721 936 724 956 C 817 947 828 915 828 862 L 828 392 C 843 389 855 382 861 376 L 786 320 Z M 795 94 L 713 38 L 685 82 L 503 82 L 512 111 L 707 111 C 741 228 819 331 921 402 C 929 379 951 362 974 358 L 976 346 C 865 293 772 203 733 115 C 763 112 786 107 795 94 Z" fill="red" /><path transform="translate(2000)" d="M 268 315 L 232 301 C 266 236 297 166 324 94 C 346 94 358 87 362 75 L 258 42 C 208 234 120 428 34 550 L 48 560 C 92 516 134 462 173 401 L 173 957 L 185 957 C 210 957 237 940 238 935 L 238 333 C 256 331 265 324 268 315 Z M 545 152 L 451 115 C 422 213 354 340 266 418 L 276 430 C 385 365 466 255 509 166 C 533 169 541 163 545 152 Z M 766 673 L 472 673 C 477 633 478 593 478 555 L 478 537 L 766 537 L 766 673 Z M 478 375 L 766 375 L 766 507 L 478 507 L 478 375 Z M 788 309 L 758 345 L 490 345 L 416 313 L 416 556 C 416 696 401 836 293 946 L 305 958 C 408 888 450 795 467 702 L 766 702 L 766 853 C 766 868 761 874 742 874 C 721 874 621 866 621 866 L 621 882 C 665 888 690 897 705 908 C 717 919 723 937 726 958 C 820 949 830 915 830 862 L 830 382 C 845 379 858 372 863 365 L 788 309 Z M 795 94 L 713 38 L 685 82 L 503 82 L 512 111 L 707 111 C 741 228 819 331 921 402 C 929 379 951 362 974 358 L 976 346 C 865 293 772 203 733 115 C 763 112 786 107 795 94 Z" fill="blue" fill-opacity="0.5" /><path transform="translate(2000)" d="M 268 315 L 232 301 C 266 236 297 166 324 94 C 346 94 358 87 362 75 L 258 42 C 208 234 120 428 34 550 L 48 560 C 92 516 134 462 173 401 L 173 957 L 185 957 C 210 957 237 940 238 935 L 238 333 C 256 331 265 324 268 315 Z M 545 152 L 451 115 C 422 213 354 340 266 418 L 276 430 C 385 365 466 255 509 166 C 533 169 541 163 545 152 Z M 764 677 L 463 677 L 463 547 L 764 547 L 764 677 Z M 463 385 L 764 385 L 764 517 L 463 517 L 463 385 Z M 786 320 L 756 356 L 468 356 L 400 324 L 400 337 L 400 958 L 411 958 C 438 958 463 943 463 935 L 463 707 L 764 707 L 764 855 C 764 870 759 876 740 876 C 719 876 618 869 618 869 L 618 883 C 663 889 688 898 703 909 C 715 919 721 936 724 956 C 817 947 828 915 828 862 L 828 392 C 843 389 855 382 861 376 L 786 320 Z M 795 94 L 713 38 L 685 82 L 503 82 L 512 111 L 707 111 C 741 228 819 331 921 402 C 929 379 951 362 974 358 L 976 346 C 865 293 772 203 733 115 C 763 112 786 107 795 94 Z" fill="red" fill-opacity="0.5" /><text text-anchor="middle" x="500" y="1064" font-family="Arial" font-size="64">Source Han Serif KR</text><text text-anchor="middle" x="1500" y="1064" font-family="Arial" font-size="64">HKSerif (uni4F7EKX-regular)</text></svg>