<svg width="3000" height="1080" xmlns="http://www.w3.org/2000/svg" style="background:#fff"><path d="M 563 121 L 791 121 L 791 308 L 563 308 L 563 121 Z M 563 373 L 563 337 L 791 337 L 791 379 L 801 379 C 822 379 854 364 855 358 L 855 133 C 874 129 890 121 896 113 L 817 53 L 782 92 L 576 92 L 501 60 L 501 394 L 511 394 C 542 394 563 378 563 373 Z M 358 76 L 255 42 C 205 231 117 421 32 540 L 47 550 C 90 507 131 456 169 398 L 169 957 L 181 957 C 206 957 232 941 234 935 L 234 340 C 251 337 261 330 264 321 L 224 306 C 260 240 292 169 319 94 C 342 95 354 87 358 76 Z M 643 673 L 945 673 C 958 673 967 669 969 658 C 946 629 904 587 904 587 L 869 644 L 848 644 L 848 479 C 864 477 871 475 878 467 L 807 410 L 776 445 L 410 445 L 410 175 C 434 171 443 163 445 150 L 349 139 L 349 551 L 361 551 C 383 551 410 537 410 529 L 410 474 L 785 474 L 785 644 L 621 644 C 626 611 627 577 629 542 C 651 540 659 530 661 517 L 563 508 C 562 555 561 601 555 644 L 277 644 L 285 673 L 550 673 C 526 777 461 867 266 938 L 278 955 C 521 884 592 785 616 673 L 622 673 C 674 819 769 912 915 960 C 922 927 943 907 969 901 L 970 890 C 824 863 705 785 643 673 Z" fill="blue" /><path transform="translate(1000)" d="M 563 510 L 630 510 L 630 470 L 563 470 L 563 510 Z M 563 121 L 791 121 L 791 308 L 563 308 L 563 121 Z M 563 373 L 563 337 L 791 337 L 791 379 L 801 379 C 822 379 854 364 855 358 L 855 133 C 874 129 890 121 896 113 L 817 53 L 782 92 L 576 92 L 501 60 L 501 394 L 511 394 C 542 394 563 378 563 373 Z M 358 76 L 255 42 C 205 231 117 421 32 540 L 47 550 C 90 507 131 456 169 398 L 169 957 L 181 957 C 206 957 232 941 234 935 L 234 340 C 251 337 261 330 264 321 L 224 306 C 260 240 292 169 319 94 C 342 95 354 87 358 76 Z M 643 673 L 945 673 C 958 673 967 669 969 658 C 946 629 904 587 904 587 L 869 644 L 848 644 L 848 479 C 864 477 871 475 878 467 L 807 410 L 776 445 L 410 445 L 410 175 C 434 171 443 163 445 150 L 349 139 L 349 551 L 361 551 C 383 551 410 537 410 529 L 410 474 L 785 474 L 785 644 L 621 644 C 626 611 630 555 630 508 L 563 508 C 562 555 561 601 555 644 L 277 644 L 285 673 L 550 673 C 526 777 461 867 266 938 L 278 955 C 521 884 592 785 616 673 L 622 673 C 674 819 769 912 915 960 C 922 927 943 907 969 901 L 970 890 C 824 863 705 785 643 673 Z" fill="red" /><path transform="translate(2000)" d="M 563 121 L 791 121 L 791 308 L 563 308 L 563 121 Z M 563 373 L 563 337 L 791 337 L 791 379 L 801 379 C 822 379 854 364 855 358 L 855 133 C 874 129 890 121 896 113 L 817 53 L 782 92 L 576 92 L 501 60 L 501 394 L 511 394 C 542 394 563 378 563 373 Z M 358 76 L 255 42 C 205 231 117 421 32 540 L 47 550 C 90 507 131 456 169 398 L 169 957 L 181 957 C 206 957 232 941 234 935 L 234 340 C 251 337 261 330 264 321 L 224 306 C 260 240 292 169 319 94 C 342 95 354 87 358 76 Z M 643 673 L 945 673 C 958 673 967 669 969 658 C 946 629 904 587 904 587 L 869 644 L 848 644 L 848 479 C 864 477 871 475 878 467 L 807 410 L 776 445 L 410 445 L 410 175 C 434 171 443 163 445 150 L 349 139 L 349 551 L 361 551 C 383 551 410 537 410 529 L 410 474 L 785 474 L 785 644 L 621 644 C 626 611 627 577 629 542 C 651 540 659 530 661 517 L 563 508 C 562 555 561 601 555 644 L 277 644 L 285 673 L 550 673 C 526 777 461 867 266 938 L 278 955 C 521 884 592 785 616 673 L 622 673 C 674 819 769 912 915 960 C 922 927 943 907 969 901 L 970 890 C 824 863 705 785 643 673 Z" fill="blue" fill-opacity="0.5" /><path transform="translate(2000)" d="M 563 510 L 630 510 L 630 470 L 563 470 L 563 510 Z M 563 121 L 791 121 L 791 308 L 563 308 L 563 121 Z M 563 373 L 563 337 L 791 337 L 791 379 L 801 379 C 822 379 854 364 855 358 L 855 133 C 874 129 890 121 896 113 L 817 53 L 782 92 L 576 92 L 501 60 L 501 394 L 511 394 C 542 394 563 378 563 373 Z M 358 76 L 255 42 C 205 231 117 421 32 540 L 47 550 C 90 507 131 456 169 398 L 169 957 L 181 957 C 206 957 232 941 234 935 L 234 340 C 251 337 261 330 264 321 L 224 306 C 260 240 292 169 319 94 C 342 95 354 87 358 76 Z M 643 673 L 945 673 C 958 673 967 669 969 658 C 946 629 904 587 904 587 L 869 644 L 848 644 L 848 479 C 864 477 871 475 878 467 L 807 410 L 776 445 L 410 445 L 410 175 C 434 171 443 163 445 150 L 349 139 L 349 551 L 361 551 C 383 551 410 537 410 529 L 410 474 L 785 474 L 785 644 L 621 644 C 626 611 630 555 630 508 L 563 508 C 562 555 561 601 555 644 L 277 644 L 285 673 L 550 673 C 526 777 461 867 266 938 L 278 955 C 521 884 592 785 616 673 L 622 673 C 674 819 769 912 915 960 C 922 927 943 907 969 901 L 970 890 C 824 863 705 785 643 673 Z" fill="red" fill-opacity="0.5" /><text text-anchor="middle" x="500" y="1064" font-family="Arial" font-size="64">Source Han Serif KR</text><text text-anchor="middle" x="1500" y="1064" font-family="Arial" font-size="64">HKSerif (uni4FC1KX-regular)</text></svg>