<svg width="3000" height="1080" xmlns="http://www.w3.org/2000/svg" style="background:#fff"><path d="M 282 279 L 290 308 L 485 308 C 499 308 508 303 511 292 C 482 261 433 219 433 219 L 390 279 L 282 279 Z M 262 323 L 221 307 C 257 241 288 169 315 94 C 337 95 349 87 353 75 L 248 42 C 198 234 112 428 28 550 L 43 560 C 87 515 129 460 168 399 L 168 957 L 180 957 C 205 957 231 940 232 935 L 232 341 C 250 339 259 333 262 323 Z M 526 555 L 520 542 C 413 594 306 645 261 662 L 315 741 C 324 736 330 725 331 712 C 417 647 482 591 526 555 Z M 710 328 L 711 303 L 853 303 C 834 363 801 440 774 492 L 786 501 C 839 451 898 374 930 316 C 950 314 961 312 968 305 L 892 231 L 849 274 L 591 274 C 615 217 636 155 653 90 C 676 90 686 80 690 68 L 585 42 C 558 217 498 385 427 497 L 442 505 C 495 452 540 383 578 303 L 646 303 C 641 538 626 767 353 942 L 367 959 C 610 829 678 658 700 468 C 720 683 769 858 906 959 C 915 922 935 908 968 903 L 969 891 C 779 778 727 592 710 328 Z" fill="blue" /><path transform="translate(1000)" d="M 282 279 L 290 308 L 485 308 C 499 308 508 303 511 292 C 482 261 433 219 433 219 L 390 279 L 282 279 Z M 262 323 L 221 307 C 257 241 288 169 315 94 C 337 95 349 87 353 75 L 248 42 C 198 234 112 428 28 550 L 43 560 C 87 515 129 460 168 399 L 168 957 L 180 957 C 205 957 231 940 232 935 L 232 341 C 250 339 259 333 262 323 Z M 526 555 L 520 542 C 413 594 306 645 261 662 L 315 741 C 324 736 330 725 331 712 C 417 647 482 591 526 555 Z M 578 303 L 853 303 C 834 363 801 440 774 492 L 786 501 C 839 451 898 374 930 316 C 950 314 961 312 968 305 L 892 231 L 849 274 L 591 274 C 615 217 636 155 653 90 C 676 90 686 80 690 68 L 585 42 C 558 217 498 385 427 497 L 442 505 C 495 452 540 383 578 303 Z M 747 394 L 645 368 C 637 568 592 805 370 939 L 383 954 C 605 845 673 661 700 493 C 717 694 762 858 907 948 C 914 911 933 898 965 893 L 968 881 C 781 790 730 635 714 414 C 735 413 743 404 747 394 Z" fill="red" /><path transform="translate(2000)" d="M 282 279 L 290 308 L 485 308 C 499 308 508 303 511 292 C 482 261 433 219 433 219 L 390 279 L 282 279 Z M 262 323 L 221 307 C 257 241 288 169 315 94 C 337 95 349 87 353 75 L 248 42 C 198 234 112 428 28 550 L 43 560 C 87 515 129 460 168 399 L 168 957 L 180 957 C 205 957 231 940 232 935 L 232 341 C 250 339 259 333 262 323 Z M 526 555 L 520 542 C 413 594 306 645 261 662 L 315 741 C 324 736 330 725 331 712 C 417 647 482 591 526 555 Z M 710 328 L 711 303 L 853 303 C 834 363 801 440 774 492 L 786 501 C 839 451 898 374 930 316 C 950 314 961 312 968 305 L 892 231 L 849 274 L 591 274 C 615 217 636 155 653 90 C 676 90 686 80 690 68 L 585 42 C 558 217 498 385 427 497 L 442 505 C 495 452 540 383 578 303 L 646 303 C 641 538 626 767 353 942 L 367 959 C 610 829 678 658 700 468 C 720 683 769 858 906 959 C 915 922 935 908 968 903 L 969 891 C 779 778 727 592 710 328 Z" fill="blue" fill-opacity="0.5" /><path transform="translate(2000)" d="M 282 279 L 290 308 L 485 308 C 499 308 508 303 511 292 C 482 261 433 219 433 219 L 390 279 L 282 279 Z M 262 323 L 221 307 C 257 241 288 169 315 94 C 337 95 349 87 353 75 L 248 42 C 198 234 112 428 28 550 L 43 560 C 87 515 129 460 168 399 L 168 957 L 180 957 C 205 957 231 940 232 935 L 232 341 C 250 339 259 333 262 323 Z M 526 555 L 520 542 C 413 594 306 645 261 662 L 315 741 C 324 736 330 725 331 712 C 417 647 482 591 526 555 Z M 578 303 L 853 303 C 834 363 801 440 774 492 L 786 501 C 839 451 898 374 930 316 C 950 314 961 312 968 305 L 892 231 L 849 274 L 591 274 C 615 217 636 155 653 90 C 676 90 686 80 690 68 L 585 42 C 558 217 498 385 427 497 L 442 505 C 495 452 540 383 578 303 Z M 747 394 L 645 368 C 637 568 592 805 370 939 L 383 954 C 605 845 673 661 700 493 C 717 694 762 858 907 948 C 914 911 933 898 965 893 L 968 881 C 781 790 730 635 714 414 C 735 413 743 404 747 394 Z" fill="red" fill-opacity="0.5" /><text text-anchor="middle" x="500" y="1064" font-family="Arial" font-size="64">Source Han Serif KR</text><text text-anchor="middle" x="1500" y="1064" font-family="Arial" font-size="64">HKSerif (uni4F7DKX-regular)</text></svg>