<svg width="1000" height="1000" xmlns="http://www.w3.org/2000/svg"><path d="M 355 54 L 355 510 C 355 536 354 560 352 584 L 182 584 L 182 195 C 207 192 214 182 217 170 L 117 159 L 117 579 C 106 586 95 594 89 601 L 163 650 L 189 613 L 349 613 C 328 760 257 865 96 943 L 106 957 C 346 868 418 720 419 510 L 419 92 C 444 89 452 79 454 65 L 355 54 Z" fill="black" /><path d="M 930 169 L 828 158 L 828 584 L 644 584 L 644 91 C 670 88 678 77 681 63 L 579 52 L 579 957 L 592 957 C 617 957 644 940 644 930 L 644 613 L 828 613 L 828 689 L 840 689 C 866 689 893 673 893 665 L 893 196 C 919 192 928 182 930 169 Z" fill="black" /></svg>