<svg width="3000" height="1080" xmlns="http://www.w3.org/2000/svg" style="background:#fff"><path d="M 340 74 L 235 42 C 191 224 112 409 34 527 L 48 536 C 87 496 124 450 158 396 L 158 955 L 170 955 C 195 955 222 939 223 933 L 223 341 C 240 338 250 332 254 323 L 210 306 C 245 240 276 168 301 94 C 324 95 336 86 340 74 Z M 510 170 L 795 170 C 758 219 709 264 651 303 C 649 272 597 220 454 208 C 474 197 493 184 510 170 Z M 878 595 L 832 652 L 654 652 L 654 530 L 870 530 C 884 530 893 525 896 514 C 862 482 811 444 811 444 L 765 500 L 456 500 C 468 487 479 474 488 463 C 513 465 521 461 525 451 L 470 436 C 646 381 785 295 877 179 C 902 178 914 176 923 167 L 852 101 L 804 141 L 544 141 C 558 126 572 113 583 98 C 605 108 613 107 620 99 L 536 41 C 489 131 393 215 290 262 L 297 279 C 345 265 390 246 431 223 C 493 245 577 291 614 327 C 513 388 389 435 257 467 L 264 483 C 313 475 360 466 405 455 C 375 514 331 580 288 620 L 300 631 C 345 606 390 568 429 530 L 590 530 L 590 652 L 260 652 L 268 682 L 590 682 L 590 870 L 401 870 L 401 748 C 425 744 436 735 438 721 L 337 709 L 337 866 C 326 873 315 881 309 887 L 382 927 L 407 899 L 823 899 L 823 955 L 835 955 C 860 955 888 943 888 935 L 888 752 C 913 748 923 739 924 724 L 823 714 L 823 870 L 654 870 L 654 682 L 938 682 C 952 682 962 677 965 666 C 931 635 878 595 878 595 Z M 546 323 L 545 307 C 451 320 348 328 290 327 L 321 400 C 330 398 339 392 344 380 C 429 362 496 341 546 323 Z" fill="blue" /><path transform="translate(1000)" d="M 356 76 L 252 43 C 202 231 116 422 33 543 L 47 553 C 89 511 129 460 166 403 L 166 957 L 178 957 C 203 957 229 940 230 935 L 230 340 C 247 338 257 332 260 322 L 223 308 C 259 241 291 169 318 94 C 340 95 352 87 356 76 Z M 878 574 L 831 632 L 652 632 L 652 512 L 864 512 C 877 512 887 507 890 497 C 856 465 804 425 804 425 L 758 483 L 523 483 C 541 466 557 448 570 431 C 594 434 602 430 606 421 L 549 403 C 683 345 788 270 871 176 C 894 175 910 173 918 165 L 841 98 L 801 137 L 592 137 C 610 121 626 105 639 90 C 662 92 670 89 675 78 L 588 39 C 533 124 416 227 301 287 L 310 302 C 344 290 379 275 412 258 C 442 284 475 324 488 353 C 539 385 576 293 432 247 C 458 233 484 217 508 201 C 545 221 592 257 611 284 C 668 307 690 203 525 190 C 535 182 546 175 556 167 L 785 167 C 668 306 499 401 279 468 L 288 485 C 358 469 422 451 481 429 C 445 490 390 552 335 590 L 346 602 C 398 581 448 548 491 512 L 588 512 L 588 632 L 291 632 L 298 662 L 588 662 L 588 869 L 428 869 L 428 743 C 452 739 463 729 464 715 L 364 704 L 364 865 C 353 872 342 880 336 887 L 409 928 L 435 899 L 808 899 L 808 955 L 820 955 C 844 955 872 943 872 937 L 872 751 C 897 747 907 738 909 723 L 808 713 L 808 869 L 652 869 L 652 662 L 938 662 C 952 662 961 657 964 646 C 931 615 878 574 878 574 Z" fill="red" /><path transform="translate(2000)" d="M 340 74 L 235 42 C 191 224 112 409 34 527 L 48 536 C 87 496 124 450 158 396 L 158 955 L 170 955 C 195 955 222 939 223 933 L 223 341 C 240 338 250 332 254 323 L 210 306 C 245 240 276 168 301 94 C 324 95 336 86 340 74 Z M 510 170 L 795 170 C 758 219 709 264 651 303 C 649 272 597 220 454 208 C 474 197 493 184 510 170 Z M 878 595 L 832 652 L 654 652 L 654 530 L 870 530 C 884 530 893 525 896 514 C 862 482 811 444 811 444 L 765 500 L 456 500 C 468 487 479 474 488 463 C 513 465 521 461 525 451 L 470 436 C 646 381 785 295 877 179 C 902 178 914 176 923 167 L 852 101 L 804 141 L 544 141 C 558 126 572 113 583 98 C 605 108 613 107 620 99 L 536 41 C 489 131 393 215 290 262 L 297 279 C 345 265 390 246 431 223 C 493 245 577 291 614 327 C 513 388 389 435 257 467 L 264 483 C 313 475 360 466 405 455 C 375 514 331 580 288 620 L 300 631 C 345 606 390 568 429 530 L 590 530 L 590 652 L 260 652 L 268 682 L 590 682 L 590 870 L 401 870 L 401 748 C 425 744 436 735 438 721 L 337 709 L 337 866 C 326 873 315 881 309 887 L 382 927 L 407 899 L 823 899 L 823 955 L 835 955 C 860 955 888 943 888 935 L 888 752 C 913 748 923 739 924 724 L 823 714 L 823 870 L 654 870 L 654 682 L 938 682 C 952 682 962 677 965 666 C 931 635 878 595 878 595 Z M 546 323 L 545 307 C 451 320 348 328 290 327 L 321 400 C 330 398 339 392 344 380 C 429 362 496 341 546 323 Z" fill="blue" fill-opacity="0.5" /><path transform="translate(2000)" d="M 356 76 L 252 43 C 202 231 116 422 33 543 L 47 553 C 89 511 129 460 166 403 L 166 957 L 178 957 C 203 957 229 940 230 935 L 230 340 C 247 338 257 332 260 322 L 223 308 C 259 241 291 169 318 94 C 340 95 352 87 356 76 Z M 878 574 L 831 632 L 652 632 L 652 512 L 864 512 C 877 512 887 507 890 497 C 856 465 804 425 804 425 L 758 483 L 523 483 C 541 466 557 448 570 431 C 594 434 602 430 606 421 L 549 403 C 683 345 788 270 871 176 C 894 175 910 173 918 165 L 841 98 L 801 137 L 592 137 C 610 121 626 105 639 90 C 662 92 670 89 675 78 L 588 39 C 533 124 416 227 301 287 L 310 302 C 344 290 379 275 412 258 C 442 284 475 324 488 353 C 539 385 576 293 432 247 C 458 233 484 217 508 201 C 545 221 592 257 611 284 C 668 307 690 203 525 190 C 535 182 546 175 556 167 L 785 167 C 668 306 499 401 279 468 L 288 485 C 358 469 422 451 481 429 C 445 490 390 552 335 590 L 346 602 C 398 581 448 548 491 512 L 588 512 L 588 632 L 291 632 L 298 662 L 588 662 L 588 869 L 428 869 L 428 743 C 452 739 463 729 464 715 L 364 704 L 364 865 C 353 872 342 880 336 887 L 409 928 L 435 899 L 808 899 L 808 955 L 820 955 C 844 955 872 943 872 937 L 872 751 C 897 747 907 738 909 723 L 808 713 L 808 869 L 652 869 L 652 662 L 938 662 C 952 662 961 657 964 646 C 931 615 878 574 878 574 Z" fill="red" fill-opacity="0.5" /><text text-anchor="middle" x="500" y="1064" font-family="Arial" font-size="64">Source Han Serif TW</text><text text-anchor="middle" x="1500" y="1064" font-family="Arial" font-size="64">HKSerif (uni509CHK-regular)</text></svg>