<svg width="3000" height="1080" xmlns="http://www.w3.org/2000/svg" style="background:#fff"><path d="M 510 615 L 510 400 L 578 400 L 578 615 L 510 615 Z M 625 400 L 695 400 L 695 615 L 625 615 L 625 400 Z M 689 702 L 676 708 C 691 733 707 765 720 797 L 628 809 L 628 645 L 695 645 L 695 667 L 702 667 C 719 667 744 654 745 648 L 745 408 C 763 404 777 397 783 390 L 717 338 L 686 370 L 628 370 L 628 255 C 663 248 696 241 721 234 C 743 242 759 242 768 234 L 699 172 C 644 202 537 242 450 264 L 455 281 C 493 278 535 273 574 266 L 574 370 L 515 370 L 461 345 L 461 697 L 469 697 C 489 697 510 686 510 681 L 510 645 L 574 645 L 574 815 C 495 824 429 832 391 834 L 424 914 C 434 912 443 904 448 892 C 566 862 658 838 727 817 C 740 851 749 885 750 915 C 809 971 868 833 689 702 Z M 218 646 L 218 338 L 336 338 C 342 338 347 337 351 335 L 351 420 C 351 482 349 544 342 603 C 300 618 258 633 218 646 Z M 958 883 L 976 715 L 963 712 C 955 747 945 785 932 825 C 927 839 924 840 917 828 C 864 730 858 379 871 153 C 894 150 908 143 915 136 L 834 65 L 794 108 L 421 108 L 351 75 L 351 311 C 322 283 284 251 284 251 L 243 309 L 218 309 L 218 91 C 243 87 252 77 255 63 L 154 52 L 154 309 L 43 309 L 51 338 L 154 338 L 154 667 C 98 686 51 699 25 706 L 63 792 C 73 789 81 778 84 767 C 192 709 279 659 340 623 C 324 743 287 854 205 948 L 220 960 C 393 816 409 602 409 419 L 409 137 L 805 137 C 801 430 800 767 875 897 C 898 941 933 974 964 956 C 978 948 975 926 958 883 Z" fill="blue" /><path transform="translate(1000)" d="M 629 265 L 754 265 C 766 265 775 260 778 249 C 752 222 709 186 709 186 L 671 236 L 440 236 L 448 265 L 574 265 L 574 820 L 629 820 L 629 265 Z M 510 615 L 510 400 L 578 400 L 578 615 L 510 615 Z M 625 400 L 695 400 L 695 615 L 625 615 L 625 400 Z M 689 702 L 676 708 C 691 733 707 765 720 797 L 628 809 L 628 645 L 695 645 L 695 667 L 702 667 C 719 667 744 654 745 648 L 745 408 C 763 404 777 397 783 390 L 717 338 L 686 370 L 628 370 L 574 370 L 515 370 L 461 345 L 461 697 L 469 697 C 489 697 510 686 510 681 L 510 645 L 574 645 L 574 815 C 495 824 429 832 391 834 L 424 914 C 434 912 443 904 448 892 C 566 862 658 838 727 817 C 740 851 749 885 750 915 C 809 971 868 833 689 702 Z M 218 646 L 218 338 L 336 338 C 342 338 347 337 351 335 L 351 420 C 351 482 349 544 342 603 C 300 618 258 633 218 646 Z M 958 883 L 976 715 L 963 712 C 955 747 945 785 932 825 C 927 839 924 840 917 828 C 864 730 858 379 871 153 C 894 150 908 143 915 136 L 834 65 L 794 108 L 421 108 L 351 75 L 351 311 C 322 283 284 251 284 251 L 243 309 L 218 309 L 218 91 C 243 87 252 77 255 63 L 154 52 L 154 309 L 43 309 L 51 338 L 154 338 L 154 667 C 98 686 51 699 25 706 L 63 792 C 73 789 81 778 84 767 C 192 709 279 659 340 623 C 324 743 287 854 205 948 L 220 960 C 393 816 409 602 409 419 L 409 137 L 805 137 C 801 430 800 767 875 897 C 898 941 933 974 964 956 C 978 948 975 926 958 883 Z" fill="red" /><path transform="translate(2000)" d="M 510 615 L 510 400 L 578 400 L 578 615 L 510 615 Z M 625 400 L 695 400 L 695 615 L 625 615 L 625 400 Z M 689 702 L 676 708 C 691 733 707 765 720 797 L 628 809 L 628 645 L 695 645 L 695 667 L 702 667 C 719 667 744 654 745 648 L 745 408 C 763 404 777 397 783 390 L 717 338 L 686 370 L 628 370 L 628 255 C 663 248 696 241 721 234 C 743 242 759 242 768 234 L 699 172 C 644 202 537 242 450 264 L 455 281 C 493 278 535 273 574 266 L 574 370 L 515 370 L 461 345 L 461 697 L 469 697 C 489 697 510 686 510 681 L 510 645 L 574 645 L 574 815 C 495 824 429 832 391 834 L 424 914 C 434 912 443 904 448 892 C 566 862 658 838 727 817 C 740 851 749 885 750 915 C 809 971 868 833 689 702 Z M 218 646 L 218 338 L 336 338 C 342 338 347 337 351 335 L 351 420 C 351 482 349 544 342 603 C 300 618 258 633 218 646 Z M 958 883 L 976 715 L 963 712 C 955 747 945 785 932 825 C 927 839 924 840 917 828 C 864 730 858 379 871 153 C 894 150 908 143 915 136 L 834 65 L 794 108 L 421 108 L 351 75 L 351 311 C 322 283 284 251 284 251 L 243 309 L 218 309 L 218 91 C 243 87 252 77 255 63 L 154 52 L 154 309 L 43 309 L 51 338 L 154 338 L 154 667 C 98 686 51 699 25 706 L 63 792 C 73 789 81 778 84 767 C 192 709 279 659 340 623 C 324 743 287 854 205 948 L 220 960 C 393 816 409 602 409 419 L 409 137 L 805 137 C 801 430 800 767 875 897 C 898 941 933 974 964 956 C 978 948 975 926 958 883 Z" fill="blue" fill-opacity="0.5" /><path transform="translate(2000)" d="M 629 265 L 754 265 C 766 265 775 260 778 249 C 752 222 709 186 709 186 L 671 236 L 440 236 L 448 265 L 574 265 L 574 820 L 629 820 L 629 265 Z M 510 615 L 510 400 L 578 400 L 578 615 L 510 615 Z M 625 400 L 695 400 L 695 615 L 625 615 L 625 400 Z M 689 702 L 676 708 C 691 733 707 765 720 797 L 628 809 L 628 645 L 695 645 L 695 667 L 702 667 C 719 667 744 654 745 648 L 745 408 C 763 404 777 397 783 390 L 717 338 L 686 370 L 628 370 L 574 370 L 515 370 L 461 345 L 461 697 L 469 697 C 489 697 510 686 510 681 L 510 645 L 574 645 L 574 815 C 495 824 429 832 391 834 L 424 914 C 434 912 443 904 448 892 C 566 862 658 838 727 817 C 740 851 749 885 750 915 C 809 971 868 833 689 702 Z M 218 646 L 218 338 L 336 338 C 342 338 347 337 351 335 L 351 420 C 351 482 349 544 342 603 C 300 618 258 633 218 646 Z M 958 883 L 976 715 L 963 712 C 955 747 945 785 932 825 C 927 839 924 840 917 828 C 864 730 858 379 871 153 C 894 150 908 143 915 136 L 834 65 L 794 108 L 421 108 L 351 75 L 351 311 C 322 283 284 251 284 251 L 243 309 L 218 309 L 218 91 C 243 87 252 77 255 63 L 154 52 L 154 309 L 43 309 L 51 338 L 154 338 L 154 667 C 98 686 51 699 25 706 L 63 792 C 73 789 81 778 84 767 C 192 709 279 659 340 623 C 324 743 287 854 205 948 L 220 960 C 393 816 409 602 409 419 L 409 137 L 805 137 C 801 430 800 767 875 897 C 898 941 933 974 964 956 C 978 948 975 926 958 883 Z" fill="red" fill-opacity="0.5" /><text text-anchor="middle" x="500" y="1064" font-family="Arial" font-size="64">Source Han Serif KR</text><text text-anchor="middle" x="1500" y="1064" font-family="Arial" font-size="64">HKSerif (uni5838KX-regular)</text></svg>