<svg width="3000" height="1080" xmlns="http://www.w3.org/2000/svg" style="background:#fff"><path d="M 883 855 L 879 854 L 867 854 C 853 859 839 862 830 864 C 818 866 807 867 787 868 C 756 871 663 873 547 873 L 288 873 C 185 873 166 856 166 812 L 166 160 L 166 137 L 882 137 C 896 137 905 132 908 121 C 876 90 823 49 823 49 L 778 107 L 58 107 L 66 137 L 106 137 L 106 820 C 106 909 154 927 294 927 L 541 927 C 867 928 927 921 927 884 C 927 869 918 861 883 855 Z M 787 734 L 640 734 L 640 562 L 787 562 L 787 734 Z M 787 805 L 796 805 C 816 805 845 791 846 785 L 846 570 C 863 567 878 559 883 553 L 811 497 L 778 532 L 645 532 L 581 504 L 581 813 L 590 813 C 614 813 640 800 640 794 L 640 764 L 787 764 L 787 805 Z M 447 734 L 302 734 L 302 562 L 447 562 L 447 734 Z M 447 809 L 456 809 C 476 809 505 796 506 790 L 506 568 C 521 566 535 558 540 552 L 471 500 L 439 532 L 307 532 L 244 504 L 244 827 L 253 827 C 277 827 302 813 302 807 L 302 764 L 447 764 L 447 809 Z M 687 401 L 420 401 L 420 253 L 687 253 L 687 401 Z M 687 431 L 687 470 L 697 470 C 718 470 749 456 750 449 L 750 263 C 768 260 783 252 789 245 L 713 187 L 678 224 L 425 224 L 357 194 L 357 482 L 366 482 C 392 482 420 468 420 462 L 420 431 L 687 431 Z" fill="blue" /><path transform="translate(1000)" d="M 181 112 L 56 112 L 65 142 L 103 142 L 103 874 C 88 880 72 890 64 898 L 147 949 L 176 911 L 921 911 C 935 911 945 906 948 895 C 913 863 857 821 857 821 L 809 881 L 168 881 L 168 142 L 901 142 C 915 142 925 137 928 126 C 893 94 837 52 837 52 L 789 112 L 181 112 Z M 786 730 L 646 730 L 646 563 L 786 563 L 786 730 Z M 786 804 L 795 804 C 815 804 845 790 846 784 L 846 572 C 863 569 878 561 882 554 L 810 499 L 777 534 L 651 534 L 587 506 L 587 811 L 596 811 C 620 811 646 798 646 792 L 646 759 L 786 759 L 786 804 Z M 442 730 L 303 730 L 303 563 L 442 563 L 442 730 Z M 442 808 L 451 808 C 471 808 500 794 501 788 L 501 569 C 516 567 530 560 535 553 L 466 501 L 434 534 L 307 534 L 244 506 L 244 824 L 253 824 C 277 824 303 811 303 805 L 303 759 L 442 759 L 442 808 Z M 664 396 L 422 396 L 422 256 L 664 256 L 664 396 Z M 664 425 L 664 467 L 674 467 C 695 467 726 453 727 447 L 727 266 C 745 262 760 254 766 247 L 689 190 L 655 226 L 426 226 L 359 197 L 359 477 L 368 477 C 394 477 422 462 422 457 L 422 425 L 664 425 Z" fill="red" /><path transform="translate(2000)" d="M 883 855 L 879 854 L 867 854 C 853 859 839 862 830 864 C 818 866 807 867 787 868 C 756 871 663 873 547 873 L 288 873 C 185 873 166 856 166 812 L 166 160 L 166 137 L 882 137 C 896 137 905 132 908 121 C 876 90 823 49 823 49 L 778 107 L 58 107 L 66 137 L 106 137 L 106 820 C 106 909 154 927 294 927 L 541 927 C 867 928 927 921 927 884 C 927 869 918 861 883 855 Z M 787 734 L 640 734 L 640 562 L 787 562 L 787 734 Z M 787 805 L 796 805 C 816 805 845 791 846 785 L 846 570 C 863 567 878 559 883 553 L 811 497 L 778 532 L 645 532 L 581 504 L 581 813 L 590 813 C 614 813 640 800 640 794 L 640 764 L 787 764 L 787 805 Z M 447 734 L 302 734 L 302 562 L 447 562 L 447 734 Z M 447 809 L 456 809 C 476 809 505 796 506 790 L 506 568 C 521 566 535 558 540 552 L 471 500 L 439 532 L 307 532 L 244 504 L 244 827 L 253 827 C 277 827 302 813 302 807 L 302 764 L 447 764 L 447 809 Z M 687 401 L 420 401 L 420 253 L 687 253 L 687 401 Z M 687 431 L 687 470 L 697 470 C 718 470 749 456 750 449 L 750 263 C 768 260 783 252 789 245 L 713 187 L 678 224 L 425 224 L 357 194 L 357 482 L 366 482 C 392 482 420 468 420 462 L 420 431 L 687 431 Z" fill="blue" fill-opacity="0.5" /><path transform="translate(2000)" d="M 181 112 L 56 112 L 65 142 L 103 142 L 103 874 C 88 880 72 890 64 898 L 147 949 L 176 911 L 921 911 C 935 911 945 906 948 895 C 913 863 857 821 857 821 L 809 881 L 168 881 L 168 142 L 901 142 C 915 142 925 137 928 126 C 893 94 837 52 837 52 L 789 112 L 181 112 Z M 786 730 L 646 730 L 646 563 L 786 563 L 786 730 Z M 786 804 L 795 804 C 815 804 845 790 846 784 L 846 572 C 863 569 878 561 882 554 L 810 499 L 777 534 L 651 534 L 587 506 L 587 811 L 596 811 C 620 811 646 798 646 792 L 646 759 L 786 759 L 786 804 Z M 442 730 L 303 730 L 303 563 L 442 563 L 442 730 Z M 442 808 L 451 808 C 471 808 500 794 501 788 L 501 569 C 516 567 530 560 535 553 L 466 501 L 434 534 L 307 534 L 244 506 L 244 824 L 253 824 C 277 824 303 811 303 805 L 303 759 L 442 759 L 442 808 Z M 664 396 L 422 396 L 422 256 L 664 256 L 664 396 Z M 664 425 L 664 467 L 674 467 C 695 467 726 453 727 447 L 727 266 C 745 262 760 254 766 247 L 689 190 L 655 226 L 426 226 L 359 197 L 359 477 L 368 477 C 394 477 422 462 422 457 L 422 425 L 664 425 Z" fill="red" fill-opacity="0.5" /><text text-anchor="middle" x="500" y="1064" font-family="Arial" font-size="64">Source Han Serif TW</text><text text-anchor="middle" x="1500" y="1064" font-family="Arial" font-size="64">HKSerif (uni5340HK-regular)</text></svg>