<svg width="3000" height="1080" xmlns="http://www.w3.org/2000/svg" style="background:#fff"><path d="M 741 210 L 741 169 L 936 169 C 949 169 959 164 961 153 C 936 127 897 96 897 96 L 863 139 L 741 139 L 741 72 C 762 69 772 60 774 47 L 682 37 L 682 229 L 694 229 C 714 229 741 217 741 210 Z M 573 291 L 671 291 L 671 413 L 573 413 L 573 291 Z M 727 291 L 822 291 L 822 413 L 727 413 L 727 291 Z M 411 413 L 411 291 L 517 291 L 517 413 L 411 413 Z M 847 227 L 813 262 L 417 262 L 349 232 L 349 476 L 358 476 C 383 476 411 463 411 457 L 411 443 L 822 443 L 822 470 L 831 470 C 852 470 883 457 884 450 L 884 300 C 901 297 916 289 921 283 L 847 227 Z M 510 139 L 323 139 L 332 169 L 510 169 L 510 232 L 522 232 C 542 232 568 220 568 213 L 568 72 C 590 69 599 61 601 48 L 510 38 L 510 139 Z M 253 322 L 214 307 C 247 240 275 168 300 94 C 323 94 335 85 339 73 L 234 42 C 190 230 113 425 38 550 L 51 558 C 90 515 126 463 161 406 L 161 957 L 172 957 C 195 957 222 941 223 937 L 223 339 C 241 337 250 331 253 322 Z M 791 598 L 753 636 L 513 636 C 523 622 533 609 540 596 C 566 596 577 590 581 579 L 484 549 C 452 631 370 744 285 810 L 297 822 C 349 796 395 761 437 722 C 478 756 525 807 541 846 C 603 877 632 760 453 705 C 466 693 478 679 490 665 L 746 665 C 662 827 528 896 317 946 L 323 964 C 587 926 725 850 825 674 C 847 673 859 669 866 662 L 791 598 Z M 974 545 L 901 474 L 861 514 L 342 514 C 340 501 338 487 334 473 L 316 473 C 318 513 293 562 270 581 C 251 594 239 616 250 635 C 262 656 296 653 313 636 C 330 620 343 587 344 544 L 865 544 C 858 572 848 606 842 626 L 856 633 C 879 613 917 577 937 555 C 957 554 967 552 974 545 Z" fill="blue" /><path transform="translate(1000)" d="M 735 216 L 735 172 L 937 172 C 951 172 959 167 961 156 C 933 127 885 88 885 88 L 843 143 L 735 143 L 735 79 C 760 75 769 66 771 52 L 673 42 L 673 233 L 686 233 C 708 233 735 222 735 216 Z M 314 143 L 323 172 L 516 172 L 516 235 L 529 235 C 551 235 578 224 578 218 L 578 79 C 603 75 612 66 614 52 L 516 42 L 516 143 L 314 143 Z M 573 291 L 671 291 L 671 413 L 573 413 L 573 291 Z M 727 291 L 833 291 L 833 413 L 727 413 L 727 291 Z M 411 413 L 411 291 L 517 291 L 517 413 L 411 413 Z M 858 227 L 824 262 L 417 262 L 349 232 L 349 476 L 358 476 C 383 476 411 463 411 457 L 411 443 L 833 443 L 833 470 L 842 470 C 863 470 894 457 895 450 L 895 300 C 912 297 927 289 932 283 L 858 227 Z M 830 619 L 844 626 C 871 607 914 575 939 554 C 956 553 968 551 975 544 L 899 470 L 858 512 L 380 512 C 379 502 378 491 375 475 L 366 475 L 357 475 C 356 509 328 551 302 565 C 282 578 269 598 279 618 C 289 640 322 639 342 625 C 362 610 378 582 380 542 L 541 542 C 491 616 396 705 298 758 L 308 771 C 359 753 407 729 450 701 C 488 725 530 765 545 798 C 608 831 642 715 471 688 C 488 676 505 664 521 652 L 735 652 C 638 804 493 884 280 941 L 289 959 C 549 912 705 825 814 662 C 838 660 852 657 859 649 L 784 585 L 746 623 L 556 623 C 576 605 594 588 610 571 C 637 571 649 566 653 555 L 615 542 L 859 542 C 850 569 838 600 830 619 Z M 253 322 L 214 307 C 247 240 275 168 300 94 C 323 94 335 85 339 73 L 234 42 C 190 230 113 425 38 550 L 51 558 C 90 515 126 463 161 406 L 161 957 L 172 957 C 195 957 222 941 223 937 L 223 339 C 241 337 250 331 253 322 Z" fill="red" /><path transform="translate(2000)" d="M 741 210 L 741 169 L 936 169 C 949 169 959 164 961 153 C 936 127 897 96 897 96 L 863 139 L 741 139 L 741 72 C 762 69 772 60 774 47 L 682 37 L 682 229 L 694 229 C 714 229 741 217 741 210 Z M 573 291 L 671 291 L 671 413 L 573 413 L 573 291 Z M 727 291 L 822 291 L 822 413 L 727 413 L 727 291 Z M 411 413 L 411 291 L 517 291 L 517 413 L 411 413 Z M 847 227 L 813 262 L 417 262 L 349 232 L 349 476 L 358 476 C 383 476 411 463 411 457 L 411 443 L 822 443 L 822 470 L 831 470 C 852 470 883 457 884 450 L 884 300 C 901 297 916 289 921 283 L 847 227 Z M 510 139 L 323 139 L 332 169 L 510 169 L 510 232 L 522 232 C 542 232 568 220 568 213 L 568 72 C 590 69 599 61 601 48 L 510 38 L 510 139 Z M 253 322 L 214 307 C 247 240 275 168 300 94 C 323 94 335 85 339 73 L 234 42 C 190 230 113 425 38 550 L 51 558 C 90 515 126 463 161 406 L 161 957 L 172 957 C 195 957 222 941 223 937 L 223 339 C 241 337 250 331 253 322 Z M 791 598 L 753 636 L 513 636 C 523 622 533 609 540 596 C 566 596 577 590 581 579 L 484 549 C 452 631 370 744 285 810 L 297 822 C 349 796 395 761 437 722 C 478 756 525 807 541 846 C 603 877 632 760 453 705 C 466 693 478 679 490 665 L 746 665 C 662 827 528 896 317 946 L 323 964 C 587 926 725 850 825 674 C 847 673 859 669 866 662 L 791 598 Z M 974 545 L 901 474 L 861 514 L 342 514 C 340 501 338 487 334 473 L 316 473 C 318 513 293 562 270 581 C 251 594 239 616 250 635 C 262 656 296 653 313 636 C 330 620 343 587 344 544 L 865 544 C 858 572 848 606 842 626 L 856 633 C 879 613 917 577 937 555 C 957 554 967 552 974 545 Z" fill="blue" fill-opacity="0.5" /><path transform="translate(2000)" d="M 735 216 L 735 172 L 937 172 C 951 172 959 167 961 156 C 933 127 885 88 885 88 L 843 143 L 735 143 L 735 79 C 760 75 769 66 771 52 L 673 42 L 673 233 L 686 233 C 708 233 735 222 735 216 Z M 314 143 L 323 172 L 516 172 L 516 235 L 529 235 C 551 235 578 224 578 218 L 578 79 C 603 75 612 66 614 52 L 516 42 L 516 143 L 314 143 Z M 573 291 L 671 291 L 671 413 L 573 413 L 573 291 Z M 727 291 L 833 291 L 833 413 L 727 413 L 727 291 Z M 411 413 L 411 291 L 517 291 L 517 413 L 411 413 Z M 858 227 L 824 262 L 417 262 L 349 232 L 349 476 L 358 476 C 383 476 411 463 411 457 L 411 443 L 833 443 L 833 470 L 842 470 C 863 470 894 457 895 450 L 895 300 C 912 297 927 289 932 283 L 858 227 Z M 830 619 L 844 626 C 871 607 914 575 939 554 C 956 553 968 551 975 544 L 899 470 L 858 512 L 380 512 C 379 502 378 491 375 475 L 366 475 L 357 475 C 356 509 328 551 302 565 C 282 578 269 598 279 618 C 289 640 322 639 342 625 C 362 610 378 582 380 542 L 541 542 C 491 616 396 705 298 758 L 308 771 C 359 753 407 729 450 701 C 488 725 530 765 545 798 C 608 831 642 715 471 688 C 488 676 505 664 521 652 L 735 652 C 638 804 493 884 280 941 L 289 959 C 549 912 705 825 814 662 C 838 660 852 657 859 649 L 784 585 L 746 623 L 556 623 C 576 605 594 588 610 571 C 637 571 649 566 653 555 L 615 542 L 859 542 C 850 569 838 600 830 619 Z M 253 322 L 214 307 C 247 240 275 168 300 94 C 323 94 335 85 339 73 L 234 42 C 190 230 113 425 38 550 L 51 558 C 90 515 126 463 161 406 L 161 957 L 172 957 C 195 957 222 941 223 937 L 223 339 C 241 337 250 331 253 322 Z" fill="red" fill-opacity="0.5" /><text text-anchor="middle" x="500" y="1064" font-family="Arial" font-size="64">Source Han Serif TW</text><text text-anchor="middle" x="1500" y="1064" font-family="Arial" font-size="64">HKSerif (uni511AHK-regular)</text></svg>