<svg width="3000" height="1080" xmlns="http://www.w3.org/2000/svg" style="background:#fff"><path d="M 466 594 L 644 594 C 629 633 606 670 563 703 C 518 694 465 687 402 680 C 423 654 445 623 466 594 Z M 712 594 L 898 594 C 911 594 920 589 922 578 C 894 550 846 514 846 514 L 806 565 L 719 565 C 721 557 723 550 724 542 C 746 540 757 530 759 516 L 661 506 C 659 527 656 546 652 565 L 485 565 C 501 542 516 521 527 503 C 553 507 563 500 568 490 L 480 453 C 467 479 441 522 413 565 L 209 565 L 217 594 L 395 594 C 368 632 341 669 321 693 C 389 706 453 722 510 739 C 448 773 359 806 232 836 L 238 855 C 394 827 498 794 568 757 C 645 781 708 809 755 837 C 825 868 901 783 629 717 C 676 680 698 638 712 594 Z M 730 414 L 359 414 L 359 337 L 730 337 L 730 414 Z M 359 232 L 730 232 L 730 307 L 359 307 L 359 232 Z M 730 472 L 739 472 C 760 472 790 458 791 451 L 791 239 C 807 236 822 229 827 223 L 755 168 L 722 202 L 365 202 L 299 172 L 299 479 L 308 479 C 333 479 359 466 359 460 L 359 444 L 730 444 L 730 472 Z M 858 48 L 811 109 L 49 109 L 58 138 L 110 138 L 110 818 C 111 911 161 929 305 929 L 548 929 C 877 930 937 924 937 883 C 937 868 927 860 892 852 L 887 851 L 874 851 C 860 856 846 860 835 861 C 824 863 811 865 791 866 C 761 869 669 871 556 871 L 297 871 C 194 871 176 854 175 810 L 175 161 L 175 138 L 920 138 C 935 138 945 133 947 122 C 914 91 858 48 858 48 Z" fill="blue" /><path transform="translate(1000)" d="M 484 564 L 651 564 C 633 610 607 647 572 679 C 529 669 478 660 418 653 C 441 624 464 592 484 564 Z M 723 564 L 868 564 C 881 564 890 559 893 548 C 863 519 815 481 815 481 L 772 535 L 505 535 C 515 521 524 508 530 499 C 553 501 565 493 571 479 L 483 456 C 473 475 455 504 434 535 L 235 535 L 243 564 L 415 564 C 387 605 379 616 341 664 C 420 676 493 694 532 711 C 462 759 368 790 245 814 L 250 833 C 402 815 509 784 587 733 C 655 762 708 793 746 823 C 810 866 887 768 635 695 C 673 660 701 616 723 564 Z M 696 418 L 387 418 L 387 345 L 696 345 L 696 418 Z M 387 244 L 696 244 L 696 316 L 387 316 L 387 244 Z M 696 481 L 706 481 C 726 481 757 465 758 458 L 758 251 C 774 248 788 241 792 235 L 720 179 L 688 215 L 393 215 L 327 184 L 327 489 L 336 489 C 362 489 387 476 387 470 L 387 446 L 696 446 L 696 481 Z M 181 112 L 56 112 L 65 142 L 111 142 L 111 874 C 96 880 80 890 72 898 L 155 949 L 184 911 L 921 911 C 935 911 945 906 948 895 C 913 863 857 821 857 821 L 809 881 L 176 881 L 176 142 L 901 142 C 915 142 925 137 928 126 C 893 94 837 52 837 52 L 789 112 L 181 112 Z" fill="red" /><path transform="translate(2000)" d="M 466 594 L 644 594 C 629 633 606 670 563 703 C 518 694 465 687 402 680 C 423 654 445 623 466 594 Z M 712 594 L 898 594 C 911 594 920 589 922 578 C 894 550 846 514 846 514 L 806 565 L 719 565 C 721 557 723 550 724 542 C 746 540 757 530 759 516 L 661 506 C 659 527 656 546 652 565 L 485 565 C 501 542 516 521 527 503 C 553 507 563 500 568 490 L 480 453 C 467 479 441 522 413 565 L 209 565 L 217 594 L 395 594 C 368 632 341 669 321 693 C 389 706 453 722 510 739 C 448 773 359 806 232 836 L 238 855 C 394 827 498 794 568 757 C 645 781 708 809 755 837 C 825 868 901 783 629 717 C 676 680 698 638 712 594 Z M 730 414 L 359 414 L 359 337 L 730 337 L 730 414 Z M 359 232 L 730 232 L 730 307 L 359 307 L 359 232 Z M 730 472 L 739 472 C 760 472 790 458 791 451 L 791 239 C 807 236 822 229 827 223 L 755 168 L 722 202 L 365 202 L 299 172 L 299 479 L 308 479 C 333 479 359 466 359 460 L 359 444 L 730 444 L 730 472 Z M 858 48 L 811 109 L 49 109 L 58 138 L 110 138 L 110 818 C 111 911 161 929 305 929 L 548 929 C 877 930 937 924 937 883 C 937 868 927 860 892 852 L 887 851 L 874 851 C 860 856 846 860 835 861 C 824 863 811 865 791 866 C 761 869 669 871 556 871 L 297 871 C 194 871 176 854 175 810 L 175 161 L 175 138 L 920 138 C 935 138 945 133 947 122 C 914 91 858 48 858 48 Z" fill="blue" fill-opacity="0.5" /><path transform="translate(2000)" d="M 484 564 L 651 564 C 633 610 607 647 572 679 C 529 669 478 660 418 653 C 441 624 464 592 484 564 Z M 723 564 L 868 564 C 881 564 890 559 893 548 C 863 519 815 481 815 481 L 772 535 L 505 535 C 515 521 524 508 530 499 C 553 501 565 493 571 479 L 483 456 C 473 475 455 504 434 535 L 235 535 L 243 564 L 415 564 C 387 605 379 616 341 664 C 420 676 493 694 532 711 C 462 759 368 790 245 814 L 250 833 C 402 815 509 784 587 733 C 655 762 708 793 746 823 C 810 866 887 768 635 695 C 673 660 701 616 723 564 Z M 696 418 L 387 418 L 387 345 L 696 345 L 696 418 Z M 387 244 L 696 244 L 696 316 L 387 316 L 387 244 Z M 696 481 L 706 481 C 726 481 757 465 758 458 L 758 251 C 774 248 788 241 792 235 L 720 179 L 688 215 L 393 215 L 327 184 L 327 489 L 336 489 C 362 489 387 476 387 470 L 387 446 L 696 446 L 696 481 Z M 181 112 L 56 112 L 65 142 L 111 142 L 111 874 C 96 880 80 890 72 898 L 155 949 L 184 911 L 921 911 C 935 911 945 906 948 895 C 913 863 857 821 857 821 L 809 881 L 176 881 L 176 142 L 901 142 C 915 142 925 137 928 126 C 893 94 837 52 837 52 L 789 112 L 181 112 Z" fill="red" fill-opacity="0.5" /><text text-anchor="middle" x="500" y="1064" font-family="Arial" font-size="64">Source Han Serif TW</text><text text-anchor="middle" x="1500" y="1064" font-family="Arial" font-size="64">HKSerif (uni533DHK-regular)</text></svg>