<svg width="3000" height="1080" xmlns="http://www.w3.org/2000/svg" style="background:#fff"><path d="M 637 427 L 590 489 L 423 489 L 423 222 C 449 218 457 207 459 193 L 358 182 L 358 489 L 82 489 L 90 518 L 358 518 L 358 958 L 371 958 C 395 958 423 942 423 932 L 423 518 L 698 518 C 711 518 720 513 723 503 C 691 471 637 427 637 427 Z M 943 880 L 958 716 L 946 715 C 937 751 927 790 915 828 C 909 841 905 842 895 832 C 807 738 793 389 803 154 C 826 151 840 144 847 137 L 765 66 L 725 109 L 77 109 L 86 138 L 735 138 C 734 444 744 781 857 904 C 886 943 926 970 953 950 C 966 940 961 918 943 880 Z" fill="blue" /><path transform="translate(1000)" d="M 943 881 L 958 716 L 945 714 C 937 751 927 790 915 827 C 910 841 906 843 896 832 C 809 737 796 388 807 155 C 830 152 844 145 850 138 L 768 67 L 728 110 L 101 110 L 110 139 L 363 139 L 363 474 L 82 474 L 90 503 L 363 503 L 363 957 L 374 957 C 407 957 428 941 429 936 L 429 503 L 703 503 C 718 503 727 498 730 487 C 698 456 644 412 644 412 L 597 474 L 429 474 L 429 139 L 739 139 C 738 442 747 781 857 903 C 886 944 925 971 953 951 C 966 942 961 919 943 881 Z" fill="red" /><path transform="translate(2000)" d="M 637 427 L 590 489 L 423 489 L 423 222 C 449 218 457 207 459 193 L 358 182 L 358 489 L 82 489 L 90 518 L 358 518 L 358 958 L 371 958 C 395 958 423 942 423 932 L 423 518 L 698 518 C 711 518 720 513 723 503 C 691 471 637 427 637 427 Z M 943 880 L 958 716 L 946 715 C 937 751 927 790 915 828 C 909 841 905 842 895 832 C 807 738 793 389 803 154 C 826 151 840 144 847 137 L 765 66 L 725 109 L 77 109 L 86 138 L 735 138 C 734 444 744 781 857 904 C 886 943 926 970 953 950 C 966 940 961 918 943 880 Z" fill="blue" fill-opacity="0.5" /><path transform="translate(2000)" d="M 943 881 L 958 716 L 945 714 C 937 751 927 790 915 827 C 910 841 906 843 896 832 C 809 737 796 388 807 155 C 830 152 844 145 850 138 L 768 67 L 728 110 L 101 110 L 110 139 L 363 139 L 363 474 L 82 474 L 90 503 L 363 503 L 363 957 L 374 957 C 407 957 428 941 429 936 L 429 503 L 703 503 C 718 503 727 498 730 487 C 698 456 644 412 644 412 L 597 474 L 429 474 L 429 139 L 739 139 C 738 442 747 781 857 903 C 886 944 925 971 953 951 C 966 942 961 919 943 881 Z" fill="red" fill-opacity="0.5" /><text text-anchor="middle" x="500" y="1064" font-family="Arial" font-size="64">Source Han Serif KR</text><text text-anchor="middle" x="1500" y="1064" font-family="Arial" font-size="64">HKSerif (uni5342KX-regular)</text></svg>