<svg width="3000" height="1080" xmlns="http://www.w3.org/2000/svg" style="background:#fff"><path d="M 49 169 L 335 169 L 335 245 L 345 245 C 371 245 398 235 398 228 L 398 169 L 597 169 L 597 242 L 608 242 C 640 241 661 230 661 224 L 661 169 L 931 169 C 945 169 954 164 956 153 C 925 123 872 82 872 82 L 826 140 L 661 140 L 661 78 C 686 75 695 65 697 51 L 597 41 L 597 140 L 398 140 L 398 78 C 423 75 432 65 434 51 L 335 41 L 335 140 L 44 140 L 49 169 Z M 765 413 L 628 413 L 628 288 L 765 288 L 765 413 Z M 241 413 L 241 288 L 373 288 L 373 413 L 241 413 Z M 433 288 L 568 288 L 568 413 L 433 413 L 433 288 Z M 765 479 L 775 479 C 795 479 827 464 828 458 L 828 300 C 847 296 864 288 871 280 L 791 221 L 755 258 L 246 258 L 179 228 L 179 491 L 188 491 C 213 491 241 476 241 471 L 241 442 L 765 442 L 765 479 Z M 961 545 L 888 475 L 848 515 L 160 515 C 158 500 155 485 150 468 L 133 468 C 136 522 105 576 71 595 C 51 607 39 627 47 648 C 58 669 94 668 116 652 C 139 634 161 598 162 545 L 415 545 C 353 625 231 721 100 778 L 109 793 C 178 773 243 743 300 710 C 349 736 405 777 428 814 C 491 840 511 728 327 695 C 348 682 368 668 387 655 L 654 655 C 529 811 346 887 84 939 L 91 957 C 402 916 596 834 735 665 C 759 664 773 661 781 653 L 707 589 L 669 626 L 425 626 C 445 610 464 594 480 578 C 508 577 521 573 524 562 L 457 545 L 848 545 C 834 578 815 618 802 643 L 816 650 C 849 626 897 585 923 555 C 943 554 953 553 961 545 Z" fill="blue" /><path transform="translate(1000)" d="M 79 169 L 365 169 L 365 237 L 375 237 C 401 237 428 227 428 220 L 428 78 C 453 75 462 65 464 51 L 365 41 L 365 140 L 74 140 L 79 169 Z M 572 41 L 572 234 L 583 234 C 615 233 636 222 636 216 L 636 169 L 919 169 C 933 169 942 164 944 153 C 913 123 860 82 860 82 L 814 140 L 636 140 L 636 78 C 661 75 670 65 672 51 L 572 41 Z M 765 413 L 628 413 L 628 288 L 765 288 L 765 413 Z M 241 413 L 241 288 L 373 288 L 373 413 L 241 413 Z M 433 288 L 568 288 L 568 413 L 433 413 L 433 288 Z M 765 479 L 775 479 C 795 479 827 464 828 458 L 828 300 C 847 296 864 288 871 280 L 791 221 L 755 258 L 246 258 L 179 228 L 179 491 L 188 491 C 213 491 241 476 241 471 L 241 442 L 765 442 L 765 479 Z M 961 545 L 888 475 L 848 515 L 160 515 C 158 500 155 485 150 468 L 133 468 C 136 522 105 576 71 595 C 51 607 39 627 47 648 C 58 669 94 668 116 652 C 139 634 161 598 162 545 L 415 545 C 353 625 231 721 100 778 L 109 793 C 178 773 243 743 300 710 C 349 736 405 777 428 814 C 491 840 511 728 327 695 C 348 682 368 668 387 655 L 654 655 C 529 811 346 887 84 939 L 91 957 C 402 916 596 834 735 665 C 759 664 773 661 781 653 L 707 589 L 669 626 L 425 626 C 445 610 464 594 480 578 C 508 577 521 573 524 562 L 457 545 L 848 545 C 834 578 815 618 802 643 L 816 650 C 849 626 897 585 923 555 C 943 554 953 553 961 545 Z" fill="red" /><path transform="translate(2000)" d="M 49 169 L 335 169 L 335 245 L 345 245 C 371 245 398 235 398 228 L 398 169 L 597 169 L 597 242 L 608 242 C 640 241 661 230 661 224 L 661 169 L 931 169 C 945 169 954 164 956 153 C 925 123 872 82 872 82 L 826 140 L 661 140 L 661 78 C 686 75 695 65 697 51 L 597 41 L 597 140 L 398 140 L 398 78 C 423 75 432 65 434 51 L 335 41 L 335 140 L 44 140 L 49 169 Z M 765 413 L 628 413 L 628 288 L 765 288 L 765 413 Z M 241 413 L 241 288 L 373 288 L 373 413 L 241 413 Z M 433 288 L 568 288 L 568 413 L 433 413 L 433 288 Z M 765 479 L 775 479 C 795 479 827 464 828 458 L 828 300 C 847 296 864 288 871 280 L 791 221 L 755 258 L 246 258 L 179 228 L 179 491 L 188 491 C 213 491 241 476 241 471 L 241 442 L 765 442 L 765 479 Z M 961 545 L 888 475 L 848 515 L 160 515 C 158 500 155 485 150 468 L 133 468 C 136 522 105 576 71 595 C 51 607 39 627 47 648 C 58 669 94 668 116 652 C 139 634 161 598 162 545 L 415 545 C 353 625 231 721 100 778 L 109 793 C 178 773 243 743 300 710 C 349 736 405 777 428 814 C 491 840 511 728 327 695 C 348 682 368 668 387 655 L 654 655 C 529 811 346 887 84 939 L 91 957 C 402 916 596 834 735 665 C 759 664 773 661 781 653 L 707 589 L 669 626 L 425 626 C 445 610 464 594 480 578 C 508 577 521 573 524 562 L 457 545 L 848 545 C 834 578 815 618 802 643 L 816 650 C 849 626 897 585 923 555 C 943 554 953 553 961 545 Z" fill="blue" fill-opacity="0.5" /><path transform="translate(2000)" d="M 79 169 L 365 169 L 365 237 L 375 237 C 401 237 428 227 428 220 L 428 78 C 453 75 462 65 464 51 L 365 41 L 365 140 L 74 140 L 79 169 Z M 572 41 L 572 234 L 583 234 C 615 233 636 222 636 216 L 636 169 L 919 169 C 933 169 942 164 944 153 C 913 123 860 82 860 82 L 814 140 L 636 140 L 636 78 C 661 75 670 65 672 51 L 572 41 Z M 765 413 L 628 413 L 628 288 L 765 288 L 765 413 Z M 241 413 L 241 288 L 373 288 L 373 413 L 241 413 Z M 433 288 L 568 288 L 568 413 L 433 413 L 433 288 Z M 765 479 L 775 479 C 795 479 827 464 828 458 L 828 300 C 847 296 864 288 871 280 L 791 221 L 755 258 L 246 258 L 179 228 L 179 491 L 188 491 C 213 491 241 476 241 471 L 241 442 L 765 442 L 765 479 Z M 961 545 L 888 475 L 848 515 L 160 515 C 158 500 155 485 150 468 L 133 468 C 136 522 105 576 71 595 C 51 607 39 627 47 648 C 58 669 94 668 116 652 C 139 634 161 598 162 545 L 415 545 C 353 625 231 721 100 778 L 109 793 C 178 773 243 743 300 710 C 349 736 405 777 428 814 C 491 840 511 728 327 695 C 348 682 368 668 387 655 L 654 655 C 529 811 346 887 84 939 L 91 957 C 402 916 596 834 735 665 C 759 664 773 661 781 653 L 707 589 L 669 626 L 425 626 C 445 610 464 594 480 578 C 508 577 521 573 524 562 L 457 545 L 848 545 C 834 578 815 618 802 643 L 816 650 C 849 626 897 585 923 555 C 943 554 953 553 961 545 Z" fill="red" fill-opacity="0.5" /><text text-anchor="middle" x="500" y="1064" font-family="Arial" font-size="64">Source Han Serif KR</text><text text-anchor="middle" x="1500" y="1064" font-family="Arial" font-size="64">HKSerif (uni5922KX-regular)</text></svg>