<svg width="3000" height="1080" xmlns="http://www.w3.org/2000/svg" style="background:#fff"><path d="M 339 159 L 347 189 L 561 189 L 561 299 L 286 299 L 294 329 L 463 329 C 434 419 376 503 258 548 L 271 563 C 424 518 503 435 544 329 L 664 329 L 664 450 C 664 492 675 506 736 506 L 810 506 C 927 506 950 496 950 470 C 950 457 943 451 923 445 L 919 444 L 911 444 C 905 446 897 448 891 448 C 888 448 881 449 875 449 C 865 450 842 450 816 450 L 752 450 C 727 450 725 446 725 435 L 725 329 L 917 329 C 931 329 940 324 942 313 C 912 282 859 242 859 242 L 814 299 L 625 299 L 625 189 L 860 189 C 874 189 883 184 886 173 C 854 144 804 105 804 105 L 760 159 L 625 159 L 625 81 C 650 78 660 68 662 54 L 561 43 L 561 159 L 339 159 Z M 80 84 L 70 91 C 109 131 153 198 163 251 C 231 303 289 158 80 84 Z M 294 222 L 276 218 C 127 606 127 606 112 640 C 102 661 99 662 88 662 L 46 662 L 46 684 C 67 686 79 688 93 698 C 113 712 119 788 105 886 C 108 916 118 934 136 934 C 168 934 186 909 188 868 C 192 789 165 743 164 701 C 164 676 170 645 177 614 C 189 568 260 343 294 222 Z M 491 607 L 733 607 C 704 678 663 736 606 784 C 543 751 489 710 445 658 C 461 641 477 625 491 607 Z M 849 605 L 778 538 L 734 578 L 513 578 C 527 557 540 538 552 517 C 577 519 585 515 589 505 L 489 478 C 471 524 445 572 414 617 C 403 600 393 583 384 564 L 368 575 C 377 597 387 619 398 638 C 357 695 307 744 255 781 L 266 793 C 323 765 376 725 424 680 C 460 735 506 782 559 820 C 474 878 363 917 225 943 L 231 960 C 387 941 509 905 602 848 C 687 898 785 933 899 957 C 908 924 930 903 959 898 L 960 888 C 850 873 748 847 659 809 C 722 758 770 695 807 617 C 830 616 841 614 849 605 Z" fill="blue" /><path transform="translate(1000)" d="M 727 337 L 666 337 L 666 462 C 666 504 677 518 738 518 L 812 518 C 929 518 952 508 952 482 C 952 469 945 463 925 457 L 921 456 L 913 456 C 907 458 899 460 893 460 C 890 460 883 461 877 461 C 867 462 844 462 818 462 L 754 462 C 729 462 727 458 727 447 L 727 337 Z M 340 162 L 348 191 L 580 191 L 580 308 L 315 308 L 323 337 L 469 337 C 446 433 386 508 283 563 L 290 578 C 421 533 508 458 545 337 L 926 337 C 940 337 949 332 952 321 C 919 291 867 251 867 251 L 819 308 L 644 308 L 644 191 L 896 191 C 910 191 920 186 922 175 C 890 146 840 106 840 106 L 794 162 L 644 162 L 644 86 C 669 83 679 73 681 59 L 580 48 L 580 162 L 340 162 Z M 90 95 L 80 103 C 124 142 175 208 188 261 C 259 310 311 164 90 95 Z M 326 238 L 307 232 C 134 588 134 588 117 622 C 107 642 103 642 92 642 L 47 642 L 47 664 C 67 666 82 668 95 677 C 117 691 123 763 110 864 C 112 895 123 913 140 913 C 172 913 191 888 193 846 C 196 769 169 723 169 681 C 169 658 176 628 185 600 C 199 557 284 347 326 238 Z M 519 622 L 746 622 C 711 682 669 731 619 772 C 570 737 530 694 501 641 C 507 635 513 628 519 622 Z M 866 619 L 794 557 L 757 592 L 544 592 C 562 570 577 549 589 528 C 613 532 621 526 625 516 L 534 480 C 491 580 396 705 287 781 L 297 794 C 368 759 433 710 486 657 C 510 714 542 761 581 801 C 488 865 371 906 224 939 L 232 959 C 395 934 521 897 620 836 C 696 896 795 934 916 959 C 924 926 944 905 973 899 L 974 888 C 856 874 752 847 669 802 C 729 757 779 701 822 631 C 845 630 858 626 866 619 Z" fill="red" /><path transform="translate(2000)" d="M 339 159 L 347 189 L 561 189 L 561 299 L 286 299 L 294 329 L 463 329 C 434 419 376 503 258 548 L 271 563 C 424 518 503 435 544 329 L 664 329 L 664 450 C 664 492 675 506 736 506 L 810 506 C 927 506 950 496 950 470 C 950 457 943 451 923 445 L 919 444 L 911 444 C 905 446 897 448 891 448 C 888 448 881 449 875 449 C 865 450 842 450 816 450 L 752 450 C 727 450 725 446 725 435 L 725 329 L 917 329 C 931 329 940 324 942 313 C 912 282 859 242 859 242 L 814 299 L 625 299 L 625 189 L 860 189 C 874 189 883 184 886 173 C 854 144 804 105 804 105 L 760 159 L 625 159 L 625 81 C 650 78 660 68 662 54 L 561 43 L 561 159 L 339 159 Z M 80 84 L 70 91 C 109 131 153 198 163 251 C 231 303 289 158 80 84 Z M 294 222 L 276 218 C 127 606 127 606 112 640 C 102 661 99 662 88 662 L 46 662 L 46 684 C 67 686 79 688 93 698 C 113 712 119 788 105 886 C 108 916 118 934 136 934 C 168 934 186 909 188 868 C 192 789 165 743 164 701 C 164 676 170 645 177 614 C 189 568 260 343 294 222 Z M 491 607 L 733 607 C 704 678 663 736 606 784 C 543 751 489 710 445 658 C 461 641 477 625 491 607 Z M 849 605 L 778 538 L 734 578 L 513 578 C 527 557 540 538 552 517 C 577 519 585 515 589 505 L 489 478 C 471 524 445 572 414 617 C 403 600 393 583 384 564 L 368 575 C 377 597 387 619 398 638 C 357 695 307 744 255 781 L 266 793 C 323 765 376 725 424 680 C 460 735 506 782 559 820 C 474 878 363 917 225 943 L 231 960 C 387 941 509 905 602 848 C 687 898 785 933 899 957 C 908 924 930 903 959 898 L 960 888 C 850 873 748 847 659 809 C 722 758 770 695 807 617 C 830 616 841 614 849 605 Z" fill="blue" fill-opacity="0.5" /><path transform="translate(2000)" d="M 727 337 L 666 337 L 666 462 C 666 504 677 518 738 518 L 812 518 C 929 518 952 508 952 482 C 952 469 945 463 925 457 L 921 456 L 913 456 C 907 458 899 460 893 460 C 890 460 883 461 877 461 C 867 462 844 462 818 462 L 754 462 C 729 462 727 458 727 447 L 727 337 Z M 340 162 L 348 191 L 580 191 L 580 308 L 315 308 L 323 337 L 469 337 C 446 433 386 508 283 563 L 290 578 C 421 533 508 458 545 337 L 926 337 C 940 337 949 332 952 321 C 919 291 867 251 867 251 L 819 308 L 644 308 L 644 191 L 896 191 C 910 191 920 186 922 175 C 890 146 840 106 840 106 L 794 162 L 644 162 L 644 86 C 669 83 679 73 681 59 L 580 48 L 580 162 L 340 162 Z M 90 95 L 80 103 C 124 142 175 208 188 261 C 259 310 311 164 90 95 Z M 326 238 L 307 232 C 134 588 134 588 117 622 C 107 642 103 642 92 642 L 47 642 L 47 664 C 67 666 82 668 95 677 C 117 691 123 763 110 864 C 112 895 123 913 140 913 C 172 913 191 888 193 846 C 196 769 169 723 169 681 C 169 658 176 628 185 600 C 199 557 284 347 326 238 Z M 519 622 L 746 622 C 711 682 669 731 619 772 C 570 737 530 694 501 641 C 507 635 513 628 519 622 Z M 866 619 L 794 557 L 757 592 L 544 592 C 562 570 577 549 589 528 C 613 532 621 526 625 516 L 534 480 C 491 580 396 705 287 781 L 297 794 C 368 759 433 710 486 657 C 510 714 542 761 581 801 C 488 865 371 906 224 939 L 232 959 C 395 934 521 897 620 836 C 696 896 795 934 916 959 C 924 926 944 905 973 899 L 974 888 C 856 874 752 847 669 802 C 729 757 779 701 822 631 C 845 630 858 626 866 619 Z" fill="red" fill-opacity="0.5" /><text text-anchor="middle" x="500" y="1064" font-family="Arial" font-size="64">Source Han Serif TW</text><text text-anchor="middle" x="1500" y="1064" font-family="Arial" font-size="64">HKSerif (uni51CCHK-regular)</text></svg>