<svg width="3000" height="1080" xmlns="http://www.w3.org/2000/svg" style="background:#fff"><path d="M 865 809 L 812 873 L 173 873 L 173 146 L 897 146 C 912 146 921 141 924 130 C 890 98 834 56 834 56 L 786 116 L 186 116 L 108 74 L 108 865 C 93 872 77 882 68 890 L 152 941 L 181 903 L 933 903 C 947 903 956 898 959 887 C 923 854 865 809 865 809 Z M 580 404 L 580 310 L 856 310 C 870 310 879 305 882 294 C 852 264 800 225 800 225 L 756 281 L 580 281 L 580 207 C 604 203 612 194 615 180 L 519 170 L 519 281 L 215 281 L 223 310 L 519 310 L 519 404 C 519 578 471 737 225 835 L 234 851 C 453 782 539 667 567 536 C 645 612 735 725 759 812 C 829 861 868 720 658 569 C 686 543 710 511 730 472 C 767 511 806 563 819 602 C 874 640 914 533 741 450 C 750 431 758 410 765 389 C 786 389 795 379 799 367 L 710 347 C 701 428 675 503 640 556 C 620 542 597 528 571 513 C 577 478 580 441 580 404 Z M 424 366 L 337 344 C 313 462 267 572 212 644 L 227 654 C 275 613 316 554 349 486 C 375 517 399 557 405 591 C 455 630 500 527 361 460 C 371 437 380 413 388 388 C 409 387 421 378 424 366 Z" fill="blue" /><path transform="translate(1000)" d="M 865 809 L 812 873 L 173 873 L 173 146 L 897 146 C 912 146 921 141 924 130 C 890 98 834 56 834 56 L 786 116 L 186 116 L 108 74 L 108 865 C 93 872 77 882 68 890 L 152 941 L 181 903 L 933 903 C 947 903 956 898 959 887 C 923 854 865 809 865 809 Z M 782 368 L 693 346 C 682 430 654 508 617 559 L 632 569 C 664 544 691 510 713 469 C 749 502 787 546 801 582 C 857 614 893 510 724 447 C 733 429 740 409 747 389 C 768 389 778 380 782 368 Z M 808 225 L 764 281 L 558 281 L 558 208 C 582 204 590 196 593 182 L 497 172 L 497 281 L 223 281 L 231 311 L 497 311 L 497 398 C 497 567 451 721 209 817 L 218 833 C 462 756 537 622 554 475 C 579 657 646 766 830 822 C 836 788 858 776 889 771 L 890 759 C 635 700 576 575 559 311 L 864 311 C 879 311 887 306 890 295 C 860 265 808 225 808 225 Z M 431 368 L 345 344 C 324 443 283 534 233 591 L 248 603 C 292 570 330 523 360 467 C 385 494 407 528 413 557 C 464 593 507 497 371 445 C 380 427 387 408 394 388 C 416 389 427 380 431 368 Z" fill="red" /><path transform="translate(2000)" d="M 865 809 L 812 873 L 173 873 L 173 146 L 897 146 C 912 146 921 141 924 130 C 890 98 834 56 834 56 L 786 116 L 186 116 L 108 74 L 108 865 C 93 872 77 882 68 890 L 152 941 L 181 903 L 933 903 C 947 903 956 898 959 887 C 923 854 865 809 865 809 Z M 580 404 L 580 310 L 856 310 C 870 310 879 305 882 294 C 852 264 800 225 800 225 L 756 281 L 580 281 L 580 207 C 604 203 612 194 615 180 L 519 170 L 519 281 L 215 281 L 223 310 L 519 310 L 519 404 C 519 578 471 737 225 835 L 234 851 C 453 782 539 667 567 536 C 645 612 735 725 759 812 C 829 861 868 720 658 569 C 686 543 710 511 730 472 C 767 511 806 563 819 602 C 874 640 914 533 741 450 C 750 431 758 410 765 389 C 786 389 795 379 799 367 L 710 347 C 701 428 675 503 640 556 C 620 542 597 528 571 513 C 577 478 580 441 580 404 Z M 424 366 L 337 344 C 313 462 267 572 212 644 L 227 654 C 275 613 316 554 349 486 C 375 517 399 557 405 591 C 455 630 500 527 361 460 C 371 437 380 413 388 388 C 409 387 421 378 424 366 Z" fill="blue" fill-opacity="0.5" /><path transform="translate(2000)" d="M 865 809 L 812 873 L 173 873 L 173 146 L 897 146 C 912 146 921 141 924 130 C 890 98 834 56 834 56 L 786 116 L 186 116 L 108 74 L 108 865 C 93 872 77 882 68 890 L 152 941 L 181 903 L 933 903 C 947 903 956 898 959 887 C 923 854 865 809 865 809 Z M 782 368 L 693 346 C 682 430 654 508 617 559 L 632 569 C 664 544 691 510 713 469 C 749 502 787 546 801 582 C 857 614 893 510 724 447 C 733 429 740 409 747 389 C 768 389 778 380 782 368 Z M 808 225 L 764 281 L 558 281 L 558 208 C 582 204 590 196 593 182 L 497 172 L 497 281 L 223 281 L 231 311 L 497 311 L 497 398 C 497 567 451 721 209 817 L 218 833 C 462 756 537 622 554 475 C 579 657 646 766 830 822 C 836 788 858 776 889 771 L 890 759 C 635 700 576 575 559 311 L 864 311 C 879 311 887 306 890 295 C 860 265 808 225 808 225 Z M 431 368 L 345 344 C 324 443 283 534 233 591 L 248 603 C 292 570 330 523 360 467 C 385 494 407 528 413 557 C 464 593 507 497 371 445 C 380 427 387 408 394 388 C 416 389 427 380 431 368 Z" fill="red" fill-opacity="0.5" /><text text-anchor="middle" x="500" y="1064" font-family="Arial" font-size="64">Source Han Serif TW</text><text text-anchor="middle" x="1500" y="1064" font-family="Arial" font-size="64">HKSerif (uni5327HK-regular)</text></svg>