<svg width="3000" height="1080" xmlns="http://www.w3.org/2000/svg" style="background:#fff"><path d="M 339 702 L 339 585 L 467 585 L 467 702 L 339 702 Z M 524 585 L 646 585 L 646 702 L 524 702 L 524 585 Z M 619 762 L 609 771 C 628 787 649 810 668 834 L 525 843 L 525 732 L 646 732 L 646 770 L 655 770 C 674 770 703 756 704 750 L 704 591 C 719 589 732 582 737 575 L 669 524 L 638 556 L 525 556 L 525 461 L 709 461 C 723 461 732 456 735 445 C 707 417 663 380 663 380 L 623 432 L 258 432 L 266 461 L 465 461 L 465 556 L 344 556 L 281 527 L 281 783 L 290 783 C 313 783 339 771 339 765 L 339 732 L 466 732 L 466 846 C 356 852 264 857 209 858 L 254 936 C 263 934 272 928 277 915 C 458 890 588 870 680 853 C 698 879 713 905 718 930 C 780 977 828 841 619 762 Z M 944 889 L 956 752 L 944 750 C 936 783 926 815 915 846 C 910 858 907 860 898 851 C 832 785 815 540 820 372 C 841 370 855 363 861 356 L 789 294 L 795 294 C 819 294 846 281 846 273 L 846 111 C 873 107 882 98 885 83 L 783 73 L 783 225 L 529 225 L 529 80 C 554 76 563 66 565 52 L 465 42 L 465 225 L 221 225 L 221 118 C 247 114 257 104 259 90 L 159 79 L 159 218 C 146 224 132 233 123 240 L 203 286 L 230 254 L 783 254 L 783 290 L 744 331 L 235 331 L 161 298 L 161 483 C 161 635 147 807 40 949 L 54 961 C 209 823 223 621 223 482 L 223 361 L 754 361 C 756 587 773 826 865 919 C 894 951 934 971 955 949 C 966 937 961 919 944 889 Z" fill="blue" /><path transform="translate(1000)" d="M 339 702 L 339 585 L 465 585 L 465 702 L 339 702 Z M 525 585 L 651 585 L 651 702 L 525 702 L 525 585 Z M 619 762 L 609 771 C 628 787 649 810 668 834 L 525 843 L 525 732 L 651 732 L 651 770 L 660 770 C 679 770 708 756 709 750 L 709 591 C 724 589 737 582 742 575 L 674 524 L 643 556 L 525 556 L 525 461 L 709 461 C 723 461 732 456 735 445 C 707 417 663 380 663 380 L 623 432 L 258 432 L 266 461 L 465 461 L 465 556 L 344 556 L 281 527 L 281 783 L 290 783 C 313 783 339 771 339 765 L 339 732 L 465 732 L 465 846 C 356 852 264 857 209 858 L 254 936 C 263 934 272 928 277 915 C 458 890 588 870 680 853 C 698 879 713 905 718 930 C 780 977 828 841 619 762 Z M 944 889 L 956 752 L 944 750 C 936 783 926 815 915 846 C 910 858 907 860 898 851 C 832 785 815 540 820 372 C 841 370 855 363 861 356 L 789 294 L 795 294 C 819 294 846 281 846 273 L 846 111 C 873 107 882 98 885 83 L 783 73 L 783 225 L 529 225 L 529 80 C 554 76 563 66 565 52 L 465 42 L 465 225 L 221 225 L 221 118 C 247 114 257 104 259 90 L 159 79 L 159 218 C 146 224 132 233 123 240 L 203 286 L 230 254 L 783 254 L 783 290 L 744 331 L 235 331 L 161 298 L 161 483 C 161 635 147 807 40 949 L 54 961 C 209 823 223 621 223 482 L 223 361 L 754 361 C 756 587 773 826 865 919 C 894 951 934 971 955 949 C 966 937 961 919 944 889 Z" fill="red" /><path transform="translate(2000)" d="M 339 702 L 339 585 L 467 585 L 467 702 L 339 702 Z M 524 585 L 646 585 L 646 702 L 524 702 L 524 585 Z M 619 762 L 609 771 C 628 787 649 810 668 834 L 525 843 L 525 732 L 646 732 L 646 770 L 655 770 C 674 770 703 756 704 750 L 704 591 C 719 589 732 582 737 575 L 669 524 L 638 556 L 525 556 L 525 461 L 709 461 C 723 461 732 456 735 445 C 707 417 663 380 663 380 L 623 432 L 258 432 L 266 461 L 465 461 L 465 556 L 344 556 L 281 527 L 281 783 L 290 783 C 313 783 339 771 339 765 L 339 732 L 466 732 L 466 846 C 356 852 264 857 209 858 L 254 936 C 263 934 272 928 277 915 C 458 890 588 870 680 853 C 698 879 713 905 718 930 C 780 977 828 841 619 762 Z M 944 889 L 956 752 L 944 750 C 936 783 926 815 915 846 C 910 858 907 860 898 851 C 832 785 815 540 820 372 C 841 370 855 363 861 356 L 789 294 L 795 294 C 819 294 846 281 846 273 L 846 111 C 873 107 882 98 885 83 L 783 73 L 783 225 L 529 225 L 529 80 C 554 76 563 66 565 52 L 465 42 L 465 225 L 221 225 L 221 118 C 247 114 257 104 259 90 L 159 79 L 159 218 C 146 224 132 233 123 240 L 203 286 L 230 254 L 783 254 L 783 290 L 744 331 L 235 331 L 161 298 L 161 483 C 161 635 147 807 40 949 L 54 961 C 209 823 223 621 223 482 L 223 361 L 754 361 C 756 587 773 826 865 919 C 894 951 934 971 955 949 C 966 937 961 919 944 889 Z" fill="blue" fill-opacity="0.5" /><path transform="translate(2000)" d="M 339 702 L 339 585 L 465 585 L 465 702 L 339 702 Z M 525 585 L 651 585 L 651 702 L 525 702 L 525 585 Z M 619 762 L 609 771 C 628 787 649 810 668 834 L 525 843 L 525 732 L 651 732 L 651 770 L 660 770 C 679 770 708 756 709 750 L 709 591 C 724 589 737 582 742 575 L 674 524 L 643 556 L 525 556 L 525 461 L 709 461 C 723 461 732 456 735 445 C 707 417 663 380 663 380 L 623 432 L 258 432 L 266 461 L 465 461 L 465 556 L 344 556 L 281 527 L 281 783 L 290 783 C 313 783 339 771 339 765 L 339 732 L 465 732 L 465 846 C 356 852 264 857 209 858 L 254 936 C 263 934 272 928 277 915 C 458 890 588 870 680 853 C 698 879 713 905 718 930 C 780 977 828 841 619 762 Z M 944 889 L 956 752 L 944 750 C 936 783 926 815 915 846 C 910 858 907 860 898 851 C 832 785 815 540 820 372 C 841 370 855 363 861 356 L 789 294 L 795 294 C 819 294 846 281 846 273 L 846 111 C 873 107 882 98 885 83 L 783 73 L 783 225 L 529 225 L 529 80 C 554 76 563 66 565 52 L 465 42 L 465 225 L 221 225 L 221 118 C 247 114 257 104 259 90 L 159 79 L 159 218 C 146 224 132 233 123 240 L 203 286 L 230 254 L 783 254 L 783 290 L 744 331 L 235 331 L 161 298 L 161 483 C 161 635 147 807 40 949 L 54 961 C 209 823 223 621 223 482 L 223 361 L 754 361 C 756 587 773 826 865 919 C 894 951 934 971 955 949 C 966 937 961 919 944 889 Z" fill="red" fill-opacity="0.5" /><text text-anchor="middle" x="500" y="1064" font-family="Arial" font-size="64">Source Han Serif TW</text><text text-anchor="middle" x="1500" y="1064" font-family="Arial" font-size="64">HKSerif (uni5D50HK-regular)</text></svg>