<svg width="3000" height="1080" xmlns="http://www.w3.org/2000/svg" style="background:#fff"><path d="M 329 73 L 225 42 C 185 231 111 424 37 549 L 52 558 C 89 515 123 465 155 409 L 155 958 L 166 958 C 189 958 216 943 217 938 L 217 345 C 235 343 244 336 247 327 L 205 312 C 238 243 266 169 290 94 C 313 94 325 85 329 73 Z M 363 792 L 363 230 C 385 226 393 217 396 204 L 303 194 L 303 815 L 315 815 C 337 815 363 800 363 792 Z M 725 479 L 629 469 C 627 671 626 829 332 939 L 342 956 C 537 896 621 817 660 725 C 736 786 832 875 870 939 C 944 976 972 851 727 730 C 785 691 859 637 900 603 C 921 608 931 606 935 597 L 856 545 C 819 591 756 669 709 722 C 696 716 682 710 668 704 C 688 643 691 575 694 504 C 715 501 723 491 725 479 Z M 514 544 L 498 543 C 488 623 455 683 415 712 C 368 780 544 807 514 544 Z M 564 190 L 792 190 C 764 248 724 302 675 350 C 622 313 580 269 546 219 C 552 209 558 200 564 190 Z M 907 184 L 838 120 L 795 160 L 582 160 C 598 132 611 105 623 79 C 648 81 656 77 659 66 L 559 41 C 529 150 462 287 392 365 L 406 375 C 453 339 495 291 533 238 C 562 292 598 339 640 381 C 571 441 485 490 386 526 L 394 542 C 506 511 599 467 676 411 C 738 461 815 500 916 529 C 922 499 942 482 966 477 L 968 465 C 868 446 786 417 718 378 C 780 325 828 264 865 197 C 888 196 899 193 907 184 Z" fill="blue" /><path transform="translate(1000)" d="M 776 160 L 776 189 L 910 189 C 924 189 933 184 936 173 C 903 142 852 102 852 102 L 805 160 L 776 160 Z M 328 73 L 225 42 C 185 230 111 423 38 548 L 52 557 C 89 514 124 463 156 407 L 156 957 L 167 957 C 191 957 217 941 218 936 L 218 357 C 235 355 245 348 249 340 L 201 321 C 235 250 265 172 290 93 C 312 93 324 85 328 73 Z M 358 822 L 358 222 C 379 218 387 209 390 196 L 297 186 L 297 844 L 309 844 C 332 844 358 830 358 822 Z M 706 479 L 613 470 C 611 670 611 829 339 939 L 351 956 C 593 875 650 760 667 625 C 690 789 745 897 905 953 C 911 919 931 907 963 902 L 964 890 C 746 832 691 715 675 504 C 696 501 705 491 706 479 Z M 709 722 L 727 730 C 785 691 859 637 900 603 C 921 608 931 606 935 597 L 856 545 C 819 591 756 669 709 722 Z M 512 544 L 496 543 C 486 623 453 683 413 712 C 366 780 542 807 512 544 Z M 573 189 L 768 189 C 740 236 703 281 658 321 C 615 290 580 255 550 214 C 558 206 565 197 573 189 Z M 845 189 L 800 160 L 597 160 C 617 134 635 108 650 83 C 675 85 683 81 687 71 L 589 41 C 549 141 469 257 386 323 L 398 335 C 447 308 493 271 534 230 C 561 274 591 313 626 348 C 553 406 463 454 363 489 L 372 505 C 485 476 582 434 662 379 C 726 431 808 471 918 499 C 923 468 942 452 967 444 L 969 433 C 860 417 773 388 703 349 C 760 304 807 252 845 189 Z" fill="red" /><path transform="translate(2000)" d="M 329 73 L 225 42 C 185 231 111 424 37 549 L 52 558 C 89 515 123 465 155 409 L 155 958 L 166 958 C 189 958 216 943 217 938 L 217 345 C 235 343 244 336 247 327 L 205 312 C 238 243 266 169 290 94 C 313 94 325 85 329 73 Z M 363 792 L 363 230 C 385 226 393 217 396 204 L 303 194 L 303 815 L 315 815 C 337 815 363 800 363 792 Z M 725 479 L 629 469 C 627 671 626 829 332 939 L 342 956 C 537 896 621 817 660 725 C 736 786 832 875 870 939 C 944 976 972 851 727 730 C 785 691 859 637 900 603 C 921 608 931 606 935 597 L 856 545 C 819 591 756 669 709 722 C 696 716 682 710 668 704 C 688 643 691 575 694 504 C 715 501 723 491 725 479 Z M 514 544 L 498 543 C 488 623 455 683 415 712 C 368 780 544 807 514 544 Z M 564 190 L 792 190 C 764 248 724 302 675 350 C 622 313 580 269 546 219 C 552 209 558 200 564 190 Z M 907 184 L 838 120 L 795 160 L 582 160 C 598 132 611 105 623 79 C 648 81 656 77 659 66 L 559 41 C 529 150 462 287 392 365 L 406 375 C 453 339 495 291 533 238 C 562 292 598 339 640 381 C 571 441 485 490 386 526 L 394 542 C 506 511 599 467 676 411 C 738 461 815 500 916 529 C 922 499 942 482 966 477 L 968 465 C 868 446 786 417 718 378 C 780 325 828 264 865 197 C 888 196 899 193 907 184 Z" fill="blue" fill-opacity="0.5" /><path transform="translate(2000)" d="M 776 160 L 776 189 L 910 189 C 924 189 933 184 936 173 C 903 142 852 102 852 102 L 805 160 L 776 160 Z M 328 73 L 225 42 C 185 230 111 423 38 548 L 52 557 C 89 514 124 463 156 407 L 156 957 L 167 957 C 191 957 217 941 218 936 L 218 357 C 235 355 245 348 249 340 L 201 321 C 235 250 265 172 290 93 C 312 93 324 85 328 73 Z M 358 822 L 358 222 C 379 218 387 209 390 196 L 297 186 L 297 844 L 309 844 C 332 844 358 830 358 822 Z M 706 479 L 613 470 C 611 670 611 829 339 939 L 351 956 C 593 875 650 760 667 625 C 690 789 745 897 905 953 C 911 919 931 907 963 902 L 964 890 C 746 832 691 715 675 504 C 696 501 705 491 706 479 Z M 709 722 L 727 730 C 785 691 859 637 900 603 C 921 608 931 606 935 597 L 856 545 C 819 591 756 669 709 722 Z M 512 544 L 496 543 C 486 623 453 683 413 712 C 366 780 542 807 512 544 Z M 573 189 L 768 189 C 740 236 703 281 658 321 C 615 290 580 255 550 214 C 558 206 565 197 573 189 Z M 845 189 L 800 160 L 597 160 C 617 134 635 108 650 83 C 675 85 683 81 687 71 L 589 41 C 549 141 469 257 386 323 L 398 335 C 447 308 493 271 534 230 C 561 274 591 313 626 348 C 553 406 463 454 363 489 L 372 505 C 485 476 582 434 662 379 C 726 431 808 471 918 499 C 923 468 942 452 967 444 L 969 433 C 860 417 773 388 703 349 C 760 304 807 252 845 189 Z" fill="red" fill-opacity="0.5" /><text text-anchor="middle" x="500" y="1064" font-family="Arial" font-size="64">Source Han Serif TW</text><text text-anchor="middle" x="1500" y="1064" font-family="Arial" font-size="64">HKSerif (uni5010HK-regular)</text></svg>