<svg width="3000" height="1080" xmlns="http://www.w3.org/2000/svg" style="background:#fff"><path d="M 898 838 L 893 837 L 880 837 C 868 842 852 846 843 847 C 830 849 819 851 799 852 C 767 855 672 857 553 857 L 287 857 C 180 857 161 840 160 796 L 160 161 L 160 142 L 910 142 C 925 142 935 137 938 126 C 904 93 848 52 848 52 L 800 112 L 42 112 L 50 142 L 100 142 L 100 805 C 101 896 150 913 293 913 L 546 914 C 882 915 941 908 941 867 C 941 854 932 845 898 838 Z M 434 604 L 721 604 L 721 739 L 434 739 L 434 604 Z M 489 475 L 875 475 C 889 475 898 470 901 459 C 869 429 819 389 819 389 L 773 445 L 509 445 C 523 422 536 400 546 378 C 571 379 580 375 584 365 L 486 339 C 473 374 457 410 438 445 L 206 445 L 213 475 L 420 475 C 360 576 277 672 188 734 L 200 747 C 262 713 319 667 372 616 L 372 827 L 382 827 C 413 827 434 810 434 805 L 434 769 L 721 769 L 721 818 L 731 818 C 751 818 783 804 784 798 L 784 614 C 802 611 817 603 822 596 L 746 539 L 712 575 L 447 575 L 420 564 C 446 535 469 505 489 475 Z M 184 263 L 192 292 L 312 292 L 322 393 C 348 394 369 388 378 376 L 369 292 L 522 292 C 535 292 544 287 547 276 C 521 250 480 217 480 217 L 444 263 L 366 263 L 359 201 C 379 198 387 188 390 177 L 299 158 L 310 263 L 184 263 Z M 844 215 L 806 263 L 749 263 L 757 202 C 782 202 792 193 795 180 L 705 157 L 690 263 L 559 263 L 567 292 L 687 292 L 675 383 C 699 389 723 386 734 376 L 745 292 L 889 292 C 902 292 910 287 913 276 C 887 249 844 215 844 215 Z" fill="blue" /><path transform="translate(1000)" d="M 181 112 L 56 112 L 65 142 L 111 142 L 111 874 C 96 880 80 890 72 898 L 155 949 L 184 911 L 915 911 C 929 911 939 906 942 895 C 907 863 851 821 851 821 L 803 881 L 176 881 L 176 142 L 901 142 C 915 142 925 137 928 126 C 893 94 837 52 837 52 L 789 112 L 181 112 Z M 436 613 L 715 613 L 715 746 L 436 746 L 436 613 Z M 498 496 L 888 496 C 902 496 910 491 913 480 C 882 450 831 410 831 410 L 786 466 L 518 466 C 536 439 550 413 563 387 C 590 389 598 385 602 374 L 504 349 C 489 388 471 428 449 466 L 226 466 L 234 496 L 431 496 C 369 594 287 686 199 747 L 210 760 C 268 728 323 686 374 639 L 374 837 L 384 837 C 415 837 436 820 436 814 L 436 776 L 715 776 L 715 826 L 725 826 C 746 826 778 811 779 805 L 779 622 C 796 619 811 611 817 604 L 741 547 L 706 583 L 449 583 L 434 576 C 457 551 478 523 498 496 Z M 472 182 L 377 173 L 377 273 L 223 273 L 229 303 L 377 303 L 377 404 L 387 404 C 416 404 438 394 438 388 L 438 303 L 648 303 L 648 402 L 658 402 C 692 401 709 389 709 384 L 709 303 L 868 303 C 882 303 892 298 895 287 C 863 257 817 220 817 220 L 775 273 L 709 273 L 709 209 C 733 206 742 196 744 182 L 648 173 L 648 273 L 438 273 L 438 209 C 462 206 471 196 472 182 Z" fill="red" /><path transform="translate(2000)" d="M 898 838 L 893 837 L 880 837 C 868 842 852 846 843 847 C 830 849 819 851 799 852 C 767 855 672 857 553 857 L 287 857 C 180 857 161 840 160 796 L 160 161 L 160 142 L 910 142 C 925 142 935 137 938 126 C 904 93 848 52 848 52 L 800 112 L 42 112 L 50 142 L 100 142 L 100 805 C 101 896 150 913 293 913 L 546 914 C 882 915 941 908 941 867 C 941 854 932 845 898 838 Z M 434 604 L 721 604 L 721 739 L 434 739 L 434 604 Z M 489 475 L 875 475 C 889 475 898 470 901 459 C 869 429 819 389 819 389 L 773 445 L 509 445 C 523 422 536 400 546 378 C 571 379 580 375 584 365 L 486 339 C 473 374 457 410 438 445 L 206 445 L 213 475 L 420 475 C 360 576 277 672 188 734 L 200 747 C 262 713 319 667 372 616 L 372 827 L 382 827 C 413 827 434 810 434 805 L 434 769 L 721 769 L 721 818 L 731 818 C 751 818 783 804 784 798 L 784 614 C 802 611 817 603 822 596 L 746 539 L 712 575 L 447 575 L 420 564 C 446 535 469 505 489 475 Z M 184 263 L 192 292 L 312 292 L 322 393 C 348 394 369 388 378 376 L 369 292 L 522 292 C 535 292 544 287 547 276 C 521 250 480 217 480 217 L 444 263 L 366 263 L 359 201 C 379 198 387 188 390 177 L 299 158 L 310 263 L 184 263 Z M 844 215 L 806 263 L 749 263 L 757 202 C 782 202 792 193 795 180 L 705 157 L 690 263 L 559 263 L 567 292 L 687 292 L 675 383 C 699 389 723 386 734 376 L 745 292 L 889 292 C 902 292 910 287 913 276 C 887 249 844 215 844 215 Z" fill="blue" fill-opacity="0.5" /><path transform="translate(2000)" d="M 181 112 L 56 112 L 65 142 L 111 142 L 111 874 C 96 880 80 890 72 898 L 155 949 L 184 911 L 915 911 C 929 911 939 906 942 895 C 907 863 851 821 851 821 L 803 881 L 176 881 L 176 142 L 901 142 C 915 142 925 137 928 126 C 893 94 837 52 837 52 L 789 112 L 181 112 Z M 436 613 L 715 613 L 715 746 L 436 746 L 436 613 Z M 498 496 L 888 496 C 902 496 910 491 913 480 C 882 450 831 410 831 410 L 786 466 L 518 466 C 536 439 550 413 563 387 C 590 389 598 385 602 374 L 504 349 C 489 388 471 428 449 466 L 226 466 L 234 496 L 431 496 C 369 594 287 686 199 747 L 210 760 C 268 728 323 686 374 639 L 374 837 L 384 837 C 415 837 436 820 436 814 L 436 776 L 715 776 L 715 826 L 725 826 C 746 826 778 811 779 805 L 779 622 C 796 619 811 611 817 604 L 741 547 L 706 583 L 449 583 L 434 576 C 457 551 478 523 498 496 Z M 472 182 L 377 173 L 377 273 L 223 273 L 229 303 L 377 303 L 377 404 L 387 404 C 416 404 438 394 438 388 L 438 303 L 648 303 L 648 402 L 658 402 C 692 401 709 389 709 384 L 709 303 L 868 303 C 882 303 892 298 895 287 C 863 257 817 220 817 220 L 775 273 L 709 273 L 709 209 C 733 206 742 196 744 182 L 648 173 L 648 273 L 438 273 L 438 209 C 462 206 471 196 472 182 Z" fill="red" fill-opacity="0.5" /><text text-anchor="middle" x="500" y="1064" font-family="Arial" font-size="64">Source Han Serif TW</text><text text-anchor="middle" x="1500" y="1064" font-family="Arial" font-size="64">HKSerif (uni533FHK-regular)</text></svg>