<svg width="3000" height="1080" xmlns="http://www.w3.org/2000/svg" style="background:#fff"><path d="M 72 161 L 575 161 C 589 161 599 156 602 145 C 570 114 519 74 519 74 L 474 132 L 64 132 L 72 161 Z M 446 702 L 190 702 L 190 522 L 446 522 L 446 702 Z M 190 322 L 446 322 L 446 493 L 190 493 L 190 322 Z M 446 793 L 457 793 C 487 793 512 778 512 773 L 512 328 C 534 324 544 318 551 311 L 477 252 L 442 293 L 202 293 L 126 260 L 126 815 L 136 815 C 169 815 190 801 190 795 L 190 731 L 446 731 L 446 793 Z M 554 833 L 508 893 L 39 893 L 47 923 L 612 923 C 626 923 635 918 638 907 C 606 875 554 833 554 833 Z M 698 732 L 698 167 C 723 164 732 154 735 140 L 635 129 L 635 756 L 647 756 C 671 756 698 741 698 732 Z M 943 73 L 841 62 L 841 853 C 841 869 836 876 815 876 C 794 876 682 867 682 867 L 682 883 C 731 889 757 898 774 909 C 789 920 795 937 799 958 C 894 948 906 914 906 859 L 906 100 C 930 97 940 87 943 73 Z" fill="blue" /><path transform="translate(1000)" d="M 57 849 L 85 932 C 96 930 106 922 111 910 C 317 874 472 838 593 807 L 591 789 C 375 818 155 843 57 849 Z M 447 667 L 191 667 L 191 495 L 447 495 L 447 667 Z M 191 300 L 447 300 L 447 466 L 191 466 L 191 300 Z M 447 745 L 458 745 C 485 745 510 730 510 725 L 510 305 C 531 302 542 296 549 288 L 477 232 L 444 271 L 203 271 L 130 240 L 130 756 L 140 756 C 171 756 191 742 191 736 L 191 696 L 447 696 L 447 745 Z M 518 72 L 475 130 L 64 130 L 72 160 L 575 160 C 587 160 597 155 600 144 C 569 113 518 72 518 72 Z M 714 723 L 714 209 C 739 206 748 196 751 182 L 653 171 L 653 745 L 665 745 C 687 745 714 732 714 723 Z M 935 58 L 835 46 L 835 857 C 835 873 829 879 810 879 C 789 879 685 871 685 871 L 685 886 C 731 893 755 901 771 912 C 786 922 792 940 795 961 C 888 951 899 917 899 863 L 899 85 C 923 82 933 72 935 58 Z" fill="red" /><path transform="translate(2000)" d="M 72 161 L 575 161 C 589 161 599 156 602 145 C 570 114 519 74 519 74 L 474 132 L 64 132 L 72 161 Z M 446 702 L 190 702 L 190 522 L 446 522 L 446 702 Z M 190 322 L 446 322 L 446 493 L 190 493 L 190 322 Z M 446 793 L 457 793 C 487 793 512 778 512 773 L 512 328 C 534 324 544 318 551 311 L 477 252 L 442 293 L 202 293 L 126 260 L 126 815 L 136 815 C 169 815 190 801 190 795 L 190 731 L 446 731 L 446 793 Z M 554 833 L 508 893 L 39 893 L 47 923 L 612 923 C 626 923 635 918 638 907 C 606 875 554 833 554 833 Z M 698 732 L 698 167 C 723 164 732 154 735 140 L 635 129 L 635 756 L 647 756 C 671 756 698 741 698 732 Z M 943 73 L 841 62 L 841 853 C 841 869 836 876 815 876 C 794 876 682 867 682 867 L 682 883 C 731 889 757 898 774 909 C 789 920 795 937 799 958 C 894 948 906 914 906 859 L 906 100 C 930 97 940 87 943 73 Z" fill="blue" fill-opacity="0.5" /><path transform="translate(2000)" d="M 57 849 L 85 932 C 96 930 106 922 111 910 C 317 874 472 838 593 807 L 591 789 C 375 818 155 843 57 849 Z M 447 667 L 191 667 L 191 495 L 447 495 L 447 667 Z M 191 300 L 447 300 L 447 466 L 191 466 L 191 300 Z M 447 745 L 458 745 C 485 745 510 730 510 725 L 510 305 C 531 302 542 296 549 288 L 477 232 L 444 271 L 203 271 L 130 240 L 130 756 L 140 756 C 171 756 191 742 191 736 L 191 696 L 447 696 L 447 745 Z M 518 72 L 475 130 L 64 130 L 72 160 L 575 160 C 587 160 597 155 600 144 C 569 113 518 72 518 72 Z M 714 723 L 714 209 C 739 206 748 196 751 182 L 653 171 L 653 745 L 665 745 C 687 745 714 732 714 723 Z M 935 58 L 835 46 L 835 857 C 835 873 829 879 810 879 C 789 879 685 871 685 871 L 685 886 C 731 893 755 901 771 912 C 786 922 792 940 795 961 C 888 951 899 917 899 863 L 899 85 C 923 82 933 72 935 58 Z" fill="red" fill-opacity="0.5" /><text text-anchor="middle" x="500" y="1064" font-family="Arial" font-size="64">Source Han Serif KR</text><text text-anchor="middle" x="1500" y="1064" font-family="Arial" font-size="64">HKSerif (uni522FKX-regular)</text></svg>