<svg width="3000" height="1080" xmlns="http://www.w3.org/2000/svg" style="background:#fff"><path d="M 513 475 L 469 528 L 68 528 L 76 557 L 214 557 C 206 582 191 619 177 649 C 160 653 141 660 129 667 L 199 725 L 231 693 L 454 693 C 442 786 420 856 396 873 C 386 879 376 881 360 881 C 338 881 259 875 214 871 L 214 888 C 254 894 295 904 311 914 C 326 924 331 941 331 959 C 372 959 408 950 434 931 C 475 903 505 816 519 701 C 539 699 551 694 558 687 L 484 627 L 447 664 L 236 664 C 251 631 269 588 281 557 L 569 557 C 582 557 593 552 595 541 C 563 512 513 475 513 475 Z M 425 348 L 386 397 L 174 397 L 182 427 L 471 427 C 485 427 494 422 497 411 C 469 383 425 348 425 348 Z M 364 232 L 354 243 C 428 287 529 372 561 439 C 634 476 652 319 364 232 Z M 551 133 L 505 190 L 304 190 C 319 160 332 126 344 90 C 366 92 377 83 381 71 L 281 40 C 269 93 253 144 234 190 L 48 190 L 56 219 L 221 219 C 173 322 107 404 33 462 L 44 474 C 145 420 229 337 291 219 L 611 219 C 624 219 634 214 636 203 C 604 173 551 133 551 133 Z M 722 730 L 722 173 C 747 170 756 160 759 146 L 662 135 L 662 752 L 674 752 C 696 752 722 739 722 730 Z M 947 71 L 848 60 L 848 856 C 848 872 843 878 824 878 C 804 878 704 870 704 870 L 704 886 C 749 892 772 900 788 911 C 802 921 807 938 809 958 C 900 948 911 916 911 862 L 911 98 C 935 95 945 85 947 71 Z" fill="blue" /><path transform="translate(1000)" d="M 418 212 L 608 212 C 622 212 632 207 634 196 C 602 166 549 124 549 124 L 503 182 L 307 182 C 320 154 331 124 340 91 C 362 92 374 83 377 71 L 274 41 C 265 92 251 139 234 182 L 43 182 L 50 212 L 222 212 C 175 314 107 390 26 442 L 38 456 C 147 409 234 331 293 212 L 392 212 C 431 312 504 389 597 439 C 606 410 624 391 647 387 L 649 376 C 555 346 467 288 418 212 Z M 513 475 L 469 528 L 68 528 L 76 557 L 214 557 C 206 582 191 619 177 649 C 160 653 141 660 129 667 L 199 725 L 231 693 L 454 693 C 442 786 420 856 396 873 C 386 879 376 881 360 881 C 338 881 259 875 214 871 L 214 888 C 254 894 295 904 311 914 C 326 924 331 941 331 959 C 372 959 408 950 434 931 C 475 903 505 816 519 701 C 539 699 551 694 558 687 L 484 627 L 447 664 L 236 664 C 251 631 269 588 281 557 L 569 557 C 582 557 593 552 595 541 C 563 512 513 475 513 475 Z M 425 353 L 386 402 L 174 402 L 182 432 L 471 432 C 485 432 494 427 497 416 C 469 388 425 353 425 353 Z M 722 730 L 722 173 C 747 170 756 160 759 146 L 662 135 L 662 752 L 674 752 C 696 752 722 739 722 730 Z M 947 71 L 848 60 L 848 856 C 848 872 843 878 824 878 C 804 878 704 870 704 870 L 704 886 C 749 892 772 900 788 911 C 802 921 807 938 809 958 C 900 948 911 916 911 862 L 911 98 C 935 95 945 85 947 71 Z" fill="red" /><path transform="translate(2000)" d="M 513 475 L 469 528 L 68 528 L 76 557 L 214 557 C 206 582 191 619 177 649 C 160 653 141 660 129 667 L 199 725 L 231 693 L 454 693 C 442 786 420 856 396 873 C 386 879 376 881 360 881 C 338 881 259 875 214 871 L 214 888 C 254 894 295 904 311 914 C 326 924 331 941 331 959 C 372 959 408 950 434 931 C 475 903 505 816 519 701 C 539 699 551 694 558 687 L 484 627 L 447 664 L 236 664 C 251 631 269 588 281 557 L 569 557 C 582 557 593 552 595 541 C 563 512 513 475 513 475 Z M 425 348 L 386 397 L 174 397 L 182 427 L 471 427 C 485 427 494 422 497 411 C 469 383 425 348 425 348 Z M 364 232 L 354 243 C 428 287 529 372 561 439 C 634 476 652 319 364 232 Z M 551 133 L 505 190 L 304 190 C 319 160 332 126 344 90 C 366 92 377 83 381 71 L 281 40 C 269 93 253 144 234 190 L 48 190 L 56 219 L 221 219 C 173 322 107 404 33 462 L 44 474 C 145 420 229 337 291 219 L 611 219 C 624 219 634 214 636 203 C 604 173 551 133 551 133 Z M 722 730 L 722 173 C 747 170 756 160 759 146 L 662 135 L 662 752 L 674 752 C 696 752 722 739 722 730 Z M 947 71 L 848 60 L 848 856 C 848 872 843 878 824 878 C 804 878 704 870 704 870 L 704 886 C 749 892 772 900 788 911 C 802 921 807 938 809 958 C 900 948 911 916 911 862 L 911 98 C 935 95 945 85 947 71 Z" fill="blue" fill-opacity="0.5" /><path transform="translate(2000)" d="M 418 212 L 608 212 C 622 212 632 207 634 196 C 602 166 549 124 549 124 L 503 182 L 307 182 C 320 154 331 124 340 91 C 362 92 374 83 377 71 L 274 41 C 265 92 251 139 234 182 L 43 182 L 50 212 L 222 212 C 175 314 107 390 26 442 L 38 456 C 147 409 234 331 293 212 L 392 212 C 431 312 504 389 597 439 C 606 410 624 391 647 387 L 649 376 C 555 346 467 288 418 212 Z M 513 475 L 469 528 L 68 528 L 76 557 L 214 557 C 206 582 191 619 177 649 C 160 653 141 660 129 667 L 199 725 L 231 693 L 454 693 C 442 786 420 856 396 873 C 386 879 376 881 360 881 C 338 881 259 875 214 871 L 214 888 C 254 894 295 904 311 914 C 326 924 331 941 331 959 C 372 959 408 950 434 931 C 475 903 505 816 519 701 C 539 699 551 694 558 687 L 484 627 L 447 664 L 236 664 C 251 631 269 588 281 557 L 569 557 C 582 557 593 552 595 541 C 563 512 513 475 513 475 Z M 425 353 L 386 402 L 174 402 L 182 432 L 471 432 C 485 432 494 427 497 416 C 469 388 425 353 425 353 Z M 722 730 L 722 173 C 747 170 756 160 759 146 L 662 135 L 662 752 L 674 752 C 696 752 722 739 722 730 Z M 947 71 L 848 60 L 848 856 C 848 872 843 878 824 878 C 804 878 704 870 704 870 L 704 886 C 749 892 772 900 788 911 C 802 921 807 938 809 958 C 900 948 911 916 911 862 L 911 98 C 935 95 945 85 947 71 Z" fill="red" fill-opacity="0.5" /><text text-anchor="middle" x="500" y="1064" font-family="Arial" font-size="64">Source Han Serif TW</text><text text-anchor="middle" x="1500" y="1064" font-family="Arial" font-size="64">HKSerif (uni5233HK-regular)</text></svg>