<svg width="3000" height="1080" xmlns="http://www.w3.org/2000/svg" style="background:#fff"><path d="M 867 816 L 818 878 L 173 878 L 173 149 L 894 149 C 908 149 917 144 920 133 C 889 103 839 64 839 64 L 794 120 L 185 120 L 108 86 L 108 874 C 97 880 86 889 80 896 L 155 947 L 181 908 L 930 908 C 944 908 953 903 955 892 C 922 860 867 816 867 816 Z M 788 259 L 689 210 C 654 292 611 370 562 442 C 497 391 414 336 311 276 L 298 288 C 366 344 450 418 526 494 C 442 608 346 704 254 769 L 266 783 C 374 724 476 641 567 536 C 635 606 695 676 727 734 C 802 777 829 669 612 483 C 661 420 706 350 745 272 C 769 276 783 269 788 259 Z" fill="blue" /><path transform="translate(1000)" d="M 855 816 L 806 878 L 197 878 L 197 149 L 910 149 C 924 149 933 144 936 133 C 905 103 855 64 855 64 L 810 120 L 59 120 L 68 149 L 132 149 L 132 874 C 121 880 110 889 104 896 L 179 947 L 205 908 L 918 908 C 932 908 941 903 943 892 C 910 860 855 816 855 816 Z M 788 259 L 689 210 C 654 292 611 370 562 442 C 497 391 414 336 311 276 L 298 288 C 366 344 450 418 526 494 C 442 608 346 704 254 769 L 266 783 C 374 724 476 641 567 536 C 635 606 695 676 727 734 C 802 777 829 669 612 483 C 661 420 706 350 745 272 C 769 276 783 269 788 259 Z" fill="red" /><path transform="translate(2000)" d="M 867 816 L 818 878 L 173 878 L 173 149 L 894 149 C 908 149 917 144 920 133 C 889 103 839 64 839 64 L 794 120 L 185 120 L 108 86 L 108 874 C 97 880 86 889 80 896 L 155 947 L 181 908 L 930 908 C 944 908 953 903 955 892 C 922 860 867 816 867 816 Z M 788 259 L 689 210 C 654 292 611 370 562 442 C 497 391 414 336 311 276 L 298 288 C 366 344 450 418 526 494 C 442 608 346 704 254 769 L 266 783 C 374 724 476 641 567 536 C 635 606 695 676 727 734 C 802 777 829 669 612 483 C 661 420 706 350 745 272 C 769 276 783 269 788 259 Z" fill="blue" fill-opacity="0.5" /><path transform="translate(2000)" d="M 855 816 L 806 878 L 197 878 L 197 149 L 910 149 C 924 149 933 144 936 133 C 905 103 855 64 855 64 L 810 120 L 59 120 L 68 149 L 132 149 L 132 874 C 121 880 110 889 104 896 L 179 947 L 205 908 L 918 908 C 932 908 941 903 943 892 C 910 860 855 816 855 816 Z M 788 259 L 689 210 C 654 292 611 370 562 442 C 497 391 414 336 311 276 L 298 288 C 366 344 450 418 526 494 C 442 608 346 704 254 769 L 266 783 C 374 724 476 641 567 536 C 635 606 695 676 727 734 C 802 777 829 669 612 483 C 661 420 706 350 745 272 C 769 276 783 269 788 259 Z" fill="red" fill-opacity="0.5" /><text text-anchor="middle" x="500" y="1064" font-family="Arial" font-size="64">Source Han Serif TW</text><text text-anchor="middle" x="1500" y="1064" font-family="Arial" font-size="64">HKSerif (uni533AHK-regular)</text></svg>