<svg width="3000" height="1080" xmlns="http://www.w3.org/2000/svg" style="background:#fff"><path d="M 574 159 L 352 159 L 360 189 L 574 189 L 574 300 L 299 300 L 307 330 L 473 330 C 445 420 389 503 275 548 L 287 562 C 436 518 514 435 554 330 L 675 330 L 675 450 C 675 492 685 506 746 506 L 820 506 C 937 506 961 496 961 470 C 961 457 953 451 933 445 L 929 444 L 921 444 C 915 446 907 448 902 448 C 898 448 891 449 885 449 C 875 450 852 450 826 450 L 762 450 C 738 450 736 446 736 435 L 736 330 L 927 330 C 941 330 950 325 952 314 C 922 283 869 243 869 243 L 824 300 L 638 300 L 638 189 L 872 189 C 886 189 896 184 899 173 C 867 144 817 105 817 105 L 773 159 L 638 159 L 638 81 C 663 78 673 68 675 54 L 574 43 L 574 159 Z M 263 324 L 225 309 C 261 243 291 170 317 95 C 340 95 351 87 356 74 L 250 42 C 202 235 118 429 36 551 L 50 561 C 92 519 130 468 167 412 L 167 956 L 179 956 C 204 956 231 940 232 934 L 232 342 C 250 339 259 333 263 324 Z M 519 607 L 740 607 C 713 675 674 731 622 779 C 563 747 512 708 470 660 C 487 642 504 625 519 607 Z M 854 605 L 783 538 L 739 578 L 541 578 C 559 554 576 530 589 506 C 613 508 621 504 625 493 L 526 468 C 506 519 476 571 441 621 C 428 603 418 584 408 564 L 392 575 C 402 599 412 622 424 642 C 384 692 339 737 291 770 L 302 782 C 355 756 404 720 447 681 C 483 734 527 779 578 815 C 497 874 392 914 259 941 L 265 958 C 415 938 531 900 619 844 C 701 892 795 927 904 951 C 912 918 934 898 963 892 L 964 882 C 859 867 760 842 674 804 C 734 754 779 692 813 617 C 836 615 847 613 854 605 Z" fill="blue" /><path transform="translate(1000)" d="M 519 606 L 734 606 C 705 663 666 713 617 758 C 568 723 527 681 497 632 C 504 623 512 615 519 606 Z M 852 603 L 781 537 L 736 578 L 541 578 C 560 554 576 529 589 505 C 614 507 622 504 625 493 L 526 467 C 483 579 391 700 292 769 L 302 781 C 368 749 429 702 481 649 C 507 702 541 748 581 788 C 495 854 385 906 255 941 L 262 957 C 407 930 525 884 619 820 C 696 883 794 925 908 954 C 916 922 937 902 964 897 L 965 886 C 853 868 749 836 663 787 C 723 738 771 681 808 615 C 833 614 844 611 852 603 Z M 574 159 L 352 159 L 360 189 L 574 189 L 574 300 L 299 300 L 307 330 L 473 330 C 445 420 389 503 275 548 L 287 562 C 436 518 514 435 554 330 L 675 330 L 675 450 C 675 492 685 506 746 506 L 820 506 C 937 506 961 496 961 470 C 961 457 953 451 933 445 L 929 444 L 921 444 C 915 446 907 448 902 448 C 898 448 891 449 885 449 C 875 450 852 450 826 450 L 762 450 C 738 450 736 446 736 435 L 736 330 L 927 330 C 941 330 950 325 952 314 C 922 283 869 243 869 243 L 824 300 L 638 300 L 638 189 L 872 189 C 886 189 896 184 899 173 C 867 144 817 105 817 105 L 773 159 L 638 159 L 638 81 C 663 78 673 68 675 54 L 574 43 L 574 159 Z M 263 324 L 225 309 C 261 243 291 170 317 95 C 340 95 351 87 356 74 L 250 42 C 202 235 118 429 36 551 L 50 561 C 92 519 130 468 167 412 L 167 956 L 179 956 C 204 956 231 940 232 934 L 232 342 C 250 339 259 333 263 324 Z" fill="red" /><path transform="translate(2000)" d="M 574 159 L 352 159 L 360 189 L 574 189 L 574 300 L 299 300 L 307 330 L 473 330 C 445 420 389 503 275 548 L 287 562 C 436 518 514 435 554 330 L 675 330 L 675 450 C 675 492 685 506 746 506 L 820 506 C 937 506 961 496 961 470 C 961 457 953 451 933 445 L 929 444 L 921 444 C 915 446 907 448 902 448 C 898 448 891 449 885 449 C 875 450 852 450 826 450 L 762 450 C 738 450 736 446 736 435 L 736 330 L 927 330 C 941 330 950 325 952 314 C 922 283 869 243 869 243 L 824 300 L 638 300 L 638 189 L 872 189 C 886 189 896 184 899 173 C 867 144 817 105 817 105 L 773 159 L 638 159 L 638 81 C 663 78 673 68 675 54 L 574 43 L 574 159 Z M 263 324 L 225 309 C 261 243 291 170 317 95 C 340 95 351 87 356 74 L 250 42 C 202 235 118 429 36 551 L 50 561 C 92 519 130 468 167 412 L 167 956 L 179 956 C 204 956 231 940 232 934 L 232 342 C 250 339 259 333 263 324 Z M 519 607 L 740 607 C 713 675 674 731 622 779 C 563 747 512 708 470 660 C 487 642 504 625 519 607 Z M 854 605 L 783 538 L 739 578 L 541 578 C 559 554 576 530 589 506 C 613 508 621 504 625 493 L 526 468 C 506 519 476 571 441 621 C 428 603 418 584 408 564 L 392 575 C 402 599 412 622 424 642 C 384 692 339 737 291 770 L 302 782 C 355 756 404 720 447 681 C 483 734 527 779 578 815 C 497 874 392 914 259 941 L 265 958 C 415 938 531 900 619 844 C 701 892 795 927 904 951 C 912 918 934 898 963 892 L 964 882 C 859 867 760 842 674 804 C 734 754 779 692 813 617 C 836 615 847 613 854 605 Z" fill="blue" fill-opacity="0.5" /><path transform="translate(2000)" d="M 519 606 L 734 606 C 705 663 666 713 617 758 C 568 723 527 681 497 632 C 504 623 512 615 519 606 Z M 852 603 L 781 537 L 736 578 L 541 578 C 560 554 576 529 589 505 C 614 507 622 504 625 493 L 526 467 C 483 579 391 700 292 769 L 302 781 C 368 749 429 702 481 649 C 507 702 541 748 581 788 C 495 854 385 906 255 941 L 262 957 C 407 930 525 884 619 820 C 696 883 794 925 908 954 C 916 922 937 902 964 897 L 965 886 C 853 868 749 836 663 787 C 723 738 771 681 808 615 C 833 614 844 611 852 603 Z M 574 159 L 352 159 L 360 189 L 574 189 L 574 300 L 299 300 L 307 330 L 473 330 C 445 420 389 503 275 548 L 287 562 C 436 518 514 435 554 330 L 675 330 L 675 450 C 675 492 685 506 746 506 L 820 506 C 937 506 961 496 961 470 C 961 457 953 451 933 445 L 929 444 L 921 444 C 915 446 907 448 902 448 C 898 448 891 449 885 449 C 875 450 852 450 826 450 L 762 450 C 738 450 736 446 736 435 L 736 330 L 927 330 C 941 330 950 325 952 314 C 922 283 869 243 869 243 L 824 300 L 638 300 L 638 189 L 872 189 C 886 189 896 184 899 173 C 867 144 817 105 817 105 L 773 159 L 638 159 L 638 81 C 663 78 673 68 675 54 L 574 43 L 574 159 Z M 263 324 L 225 309 C 261 243 291 170 317 95 C 340 95 351 87 356 74 L 250 42 C 202 235 118 429 36 551 L 50 561 C 92 519 130 468 167 412 L 167 956 L 179 956 C 204 956 231 940 232 934 L 232 342 C 250 339 259 333 263 324 Z" fill="red" fill-opacity="0.5" /><text text-anchor="middle" x="500" y="1064" font-family="Arial" font-size="64">Source Han Serif TW</text><text text-anchor="middle" x="1500" y="1064" font-family="Arial" font-size="64">HKSerif (uni5030HK-regular)</text></svg>