<svg width="1000" height="1000" xmlns="http://www.w3.org/2000/svg"><path d="M 253 322 L 214 307 C 247 240 275 168 300 94 C 323 94 335 85 339 73 L 234 42 C 190 230 113 425 38 550 L 51 558 C 90 515 126 463 161 406 L 161 957 L 172 957 C 195 957 222 941 223 937 L 223 339 C 241 337 250 331 253 322 Z" fill="black" /><path d="M 830 619 L 844 626 C 871 607 914 575 939 554 C 956 553 968 551 975 544 L 899 470 L 858 512 L 380 512 C 379 502 378 491 375 475 L 366 475 L 357 475 C 356 509 328 551 302 565 C 282 578 269 598 279 618 C 289 640 322 639 342 625 C 362 610 378 582 380 542 L 541 542 C 491 616 396 705 298 758 L 308 771 C 359 753 407 729 450 701 C 488 725 530 765 545 798 C 608 831 642 715 471 688 C 488 676 505 664 521 652 L 735 652 C 638 804 493 884 280 941 L 289 959 C 549 912 705 825 814 662 C 838 660 852 657 859 649 L 784 585 L 746 623 L 556 623 C 576 605 594 588 610 571 C 637 571 649 566 653 555 L 615 542 L 859 542 C 850 569 838 600 830 619 Z" fill="black" /><path d="M 858 227 L 824 262 L 417 262 L 349 232 L 349 476 L 358 476 C 383 476 411 463 411 457 L 411 443 L 833 443 L 833 470 L 842 470 C 863 470 894 457 895 450 L 895 300 C 912 297 927 289 932 283 L 858 227 Z" fill="black" /><path d="M 411 413 L 411 291 L 517 291 L 517 413 L 411 413 Z" fill="white" /><path d="M 727 291 L 833 291 L 833 413 L 727 413 L 727 291 Z" fill="white" /><path d="M 573 291 L 671 291 L 671 413 L 573 413 L 573 291 Z" fill="white" /><path d="M 314 143 L 323 172 L 516 172 L 516 235 L 529 235 C 551 235 578 224 578 218 L 578 79 C 603 75 612 66 614 52 L 516 42 L 516 143 L 314 143 Z" fill="black" /><path d="M 735 216 L 735 172 L 937 172 C 951 172 959 167 961 156 C 933 127 885 88 885 88 L 843 143 L 735 143 L 735 79 C 760 75 769 66 771 52 L 673 42 L 673 233 L 686 233 C 708 233 735 222 735 216 Z" fill="black" /></svg>