<svg width="3000" height="1080" xmlns="http://www.w3.org/2000/svg" style="background:#fff"><path d="M 328 73 L 225 43 C 185 231 111 424 37 548 L 52 557 C 89 515 123 464 155 409 L 155 957 L 166 957 C 189 957 216 943 217 938 L 217 345 C 235 343 244 336 247 327 L 205 311 C 238 243 266 169 290 94 C 313 94 325 85 328 73 Z M 357 792 L 357 230 C 380 226 387 217 390 204 L 297 194 L 297 815 L 309 815 C 331 815 357 800 357 792 Z M 686 703 L 675 712 C 749 774 856 875 895 947 C 972 990 1002 836 686 703 Z M 878 580 L 834 631 L 662 631 C 668 593 670 551 673 506 C 695 503 705 492 707 478 L 608 469 C 607 530 605 583 598 631 L 389 631 L 397 661 L 593 661 C 568 780 505 866 329 939 L 340 957 C 563 886 632 791 657 661 L 935 661 C 949 661 958 656 961 645 C 928 617 878 580 878 580 Z M 727 483 L 715 491 C 742 518 776 564 785 599 C 837 638 890 537 727 483 Z M 522 216 L 534 198 L 769 198 C 745 252 710 301 666 345 C 608 309 561 267 522 216 Z M 852 198 L 934 198 C 948 198 957 193 960 182 C 927 151 876 111 876 111 L 829 169 L 550 169 C 567 138 581 108 593 79 C 618 80 626 75 630 64 L 528 42 C 500 149 441 286 378 365 L 392 373 C 435 337 475 289 509 236 C 544 291 583 337 632 377 C 564 436 477 484 375 522 L 382 537 C 494 506 591 463 671 406 C 735 450 815 484 916 509 C 922 478 941 461 965 454 L 968 443 C 868 429 785 404 715 371 C 773 322 818 265 852 198 Z" fill="blue" /><path transform="translate(1000)" d="M 735 494 L 724 502 C 749 523 781 561 792 589 C 847 624 891 523 735 494 Z M 570 189 L 775 189 C 747 239 711 285 666 327 C 618 296 579 258 547 216 C 555 207 563 198 570 189 Z M 776 160 L 776 189 L 910 189 C 924 189 933 184 936 173 C 903 142 852 102 852 102 L 805 160 L 776 160 Z M 388 333 L 400 343 C 447 314 492 276 532 233 C 561 279 594 320 633 355 C 560 415 471 463 369 497 L 377 512 C 493 484 590 441 670 385 C 733 432 812 468 915 494 C 921 463 940 447 964 440 L 967 429 C 864 414 780 389 712 353 C 768 307 813 254 851 189 L 851 160 L 592 160 C 611 134 627 107 641 82 C 665 84 673 81 677 71 L 579 41 C 542 143 467 263 388 333 Z M 328 73 L 225 42 C 185 230 111 423 38 548 L 52 557 C 89 515 123 464 155 408 L 155 957 L 166 957 C 190 957 216 942 217 937 L 217 344 C 235 342 244 336 247 327 L 205 311 C 238 242 266 168 290 93 C 312 93 324 85 328 73 Z M 363 794 L 363 224 C 384 220 392 211 395 198 L 302 188 L 302 817 L 314 817 C 337 817 363 803 363 794 Z M 686 653 L 935 653 C 949 653 957 648 960 637 C 928 608 877 572 877 572 L 834 623 L 667 623 C 671 586 674 547 676 504 C 698 503 707 492 709 478 L 612 469 C 611 526 609 577 603 623 L 386 623 L 394 653 L 598 653 C 575 777 513 864 333 938 L 343 957 C 571 885 638 789 662 653 L 664 653 C 709 801 786 902 914 957 C 921 926 940 907 965 902 L 966 891 C 838 857 739 769 686 653 Z" fill="red" /><path transform="translate(2000)" d="M 328 73 L 225 43 C 185 231 111 424 37 548 L 52 557 C 89 515 123 464 155 409 L 155 957 L 166 957 C 189 957 216 943 217 938 L 217 345 C 235 343 244 336 247 327 L 205 311 C 238 243 266 169 290 94 C 313 94 325 85 328 73 Z M 357 792 L 357 230 C 380 226 387 217 390 204 L 297 194 L 297 815 L 309 815 C 331 815 357 800 357 792 Z M 686 703 L 675 712 C 749 774 856 875 895 947 C 972 990 1002 836 686 703 Z M 878 580 L 834 631 L 662 631 C 668 593 670 551 673 506 C 695 503 705 492 707 478 L 608 469 C 607 530 605 583 598 631 L 389 631 L 397 661 L 593 661 C 568 780 505 866 329 939 L 340 957 C 563 886 632 791 657 661 L 935 661 C 949 661 958 656 961 645 C 928 617 878 580 878 580 Z M 727 483 L 715 491 C 742 518 776 564 785 599 C 837 638 890 537 727 483 Z M 522 216 L 534 198 L 769 198 C 745 252 710 301 666 345 C 608 309 561 267 522 216 Z M 852 198 L 934 198 C 948 198 957 193 960 182 C 927 151 876 111 876 111 L 829 169 L 550 169 C 567 138 581 108 593 79 C 618 80 626 75 630 64 L 528 42 C 500 149 441 286 378 365 L 392 373 C 435 337 475 289 509 236 C 544 291 583 337 632 377 C 564 436 477 484 375 522 L 382 537 C 494 506 591 463 671 406 C 735 450 815 484 916 509 C 922 478 941 461 965 454 L 968 443 C 868 429 785 404 715 371 C 773 322 818 265 852 198 Z" fill="blue" fill-opacity="0.5" /><path transform="translate(2000)" d="M 735 494 L 724 502 C 749 523 781 561 792 589 C 847 624 891 523 735 494 Z M 570 189 L 775 189 C 747 239 711 285 666 327 C 618 296 579 258 547 216 C 555 207 563 198 570 189 Z M 776 160 L 776 189 L 910 189 C 924 189 933 184 936 173 C 903 142 852 102 852 102 L 805 160 L 776 160 Z M 388 333 L 400 343 C 447 314 492 276 532 233 C 561 279 594 320 633 355 C 560 415 471 463 369 497 L 377 512 C 493 484 590 441 670 385 C 733 432 812 468 915 494 C 921 463 940 447 964 440 L 967 429 C 864 414 780 389 712 353 C 768 307 813 254 851 189 L 851 160 L 592 160 C 611 134 627 107 641 82 C 665 84 673 81 677 71 L 579 41 C 542 143 467 263 388 333 Z M 328 73 L 225 42 C 185 230 111 423 38 548 L 52 557 C 89 515 123 464 155 408 L 155 957 L 166 957 C 190 957 216 942 217 937 L 217 344 C 235 342 244 336 247 327 L 205 311 C 238 242 266 168 290 93 C 312 93 324 85 328 73 Z M 363 794 L 363 224 C 384 220 392 211 395 198 L 302 188 L 302 817 L 314 817 C 337 817 363 803 363 794 Z M 686 653 L 935 653 C 949 653 957 648 960 637 C 928 608 877 572 877 572 L 834 623 L 667 623 C 671 586 674 547 676 504 C 698 503 707 492 709 478 L 612 469 C 611 526 609 577 603 623 L 386 623 L 394 653 L 598 653 C 575 777 513 864 333 938 L 343 957 C 571 885 638 789 662 653 L 664 653 C 709 801 786 902 914 957 C 921 926 940 907 965 902 L 966 891 C 838 857 739 769 686 653 Z" fill="red" fill-opacity="0.5" /><text text-anchor="middle" x="500" y="1064" font-family="Arial" font-size="64">Source Han Serif TW</text><text text-anchor="middle" x="1500" y="1064" font-family="Arial" font-size="64">HKSerif (uni500FHK-regular)</text></svg>