<svg width="3000" height="1080" xmlns="http://www.w3.org/2000/svg" style="background:#fff"><path d="M 857 795 L 806 859 L 211 859 L 211 178 L 880 178 C 894 178 904 173 906 162 C 870 130 812 87 812 87 L 761 149 L 59 149 L 68 178 L 145 178 L 145 851 C 130 858 114 868 105 875 L 189 928 L 219 889 L 926 889 C 940 889 950 884 952 873 C 916 839 857 795 857 795 Z" fill="blue" /><path transform="translate(1000)" d="M 849 795 L 801 859 L 211 859 L 211 178 L 912 178 C 926 178 936 173 938 162 C 902 130 844 87 844 87 L 793 149 L 59 149 L 68 178 L 145 178 L 145 851 C 130 858 114 868 105 875 L 189 928 L 219 889 L 918 889 C 932 889 942 884 944 873 C 908 839 849 795 849 795 Z" fill="red" /><path transform="translate(2000)" d="M 857 795 L 806 859 L 211 859 L 211 178 L 880 178 C 894 178 904 173 906 162 C 870 130 812 87 812 87 L 761 149 L 59 149 L 68 178 L 145 178 L 145 851 C 130 858 114 868 105 875 L 189 928 L 219 889 L 926 889 C 940 889 950 884 952 873 C 916 839 857 795 857 795 Z" fill="blue" fill-opacity="0.5" /><path transform="translate(2000)" d="M 849 795 L 801 859 L 211 859 L 211 178 L 912 178 C 926 178 936 173 938 162 C 902 130 844 87 844 87 L 793 149 L 59 149 L 68 178 L 145 178 L 145 851 C 130 858 114 868 105 875 L 189 928 L 219 889 L 918 889 C 932 889 942 884 944 873 C 908 839 849 795 849 795 Z" fill="red" fill-opacity="0.5" /><text text-anchor="middle" x="500" y="1064" font-family="Arial" font-size="64">Source Han Serif TW</text><text text-anchor="middle" x="1500" y="1064" font-family="Arial" font-size="64">HKSerif (uni5338HK-regular)</text></svg>