<svg width="3000" height="1080" xmlns="http://www.w3.org/2000/svg" style="background:#fff"><path d="M 263 324 L 225 309 C 261 243 291 170 317 95 C 340 95 351 87 356 74 L 250 43 C 202 235 118 430 36 552 L 50 562 C 92 520 130 468 167 412 L 167 957 L 179 957 C 204 957 231 941 232 935 L 232 341 C 250 338 259 333 263 324 Z M 769 739 L 453 739 L 453 641 L 769 641 L 769 739 Z M 453 510 L 769 510 L 769 611 L 453 611 L 453 510 Z M 464 361 L 464 243 L 612 243 L 612 361 L 464 361 Z M 464 123 L 751 123 L 751 361 L 667 361 L 667 251 C 684 248 699 240 705 233 L 633 179 L 603 213 L 464 213 L 464 123 Z M 962 390 L 893 323 L 855 361 L 811 361 L 811 131 C 837 128 849 123 856 112 L 773 51 L 739 94 L 476 94 L 404 63 L 404 361 L 358 361 C 356 347 354 334 350 318 L 334 317 C 329 385 304 430 272 449 C 217 522 366 560 360 391 L 859 391 C 852 420 843 455 837 475 L 791 441 L 759 480 L 458 480 L 390 449 L 390 961 L 401 961 C 427 961 453 945 453 938 L 453 768 L 769 768 L 769 854 C 769 869 764 874 746 874 C 724 874 623 867 623 867 L 624 882 C 668 888 694 896 709 907 C 722 917 727 935 729 955 C 821 945 832 913 832 862 L 832 521 C 851 517 867 509 873 502 L 838 475 L 852 481 C 873 460 906 422 925 401 C 944 400 956 398 962 390 Z" fill="blue" /><path transform="translate(1000)" d="M 263 324 L 225 309 C 261 243 291 170 317 95 C 340 95 351 87 356 74 L 250 43 C 202 235 118 430 36 552 L 50 562 C 92 520 130 468 167 412 L 167 957 L 179 957 C 204 957 231 941 232 935 L 232 341 C 250 338 259 333 263 324 Z M 749 739 L 473 739 L 473 641 L 749 641 L 749 739 Z M 473 510 L 749 510 L 749 611 L 473 611 L 473 510 Z M 484 361 L 484 123 L 731 123 L 731 213 L 636 213 L 570 183 L 570 361 L 484 361 Z M 624 361 L 624 243 L 731 243 L 731 361 L 624 361 Z M 962 390 L 893 323 L 855 361 L 791 361 L 791 131 C 817 128 829 123 836 112 L 753 51 L 719 94 L 496 94 L 424 63 L 424 361 L 366 361 C 364 347 362 334 358 318 L 342 317 C 337 385 312 430 280 449 C 225 522 374 560 368 391 L 859 391 C 852 420 843 455 837 475 L 838 475 L 852 481 C 873 460 906 422 925 401 C 944 400 956 398 962 390 Z M 853 502 L 771 441 L 739 480 L 478 480 L 410 449 L 410 961 L 421 961 C 447 961 473 945 473 938 L 473 768 L 749 768 L 749 854 C 749 869 744 874 726 874 C 704 874 603 867 603 867 L 604 882 C 648 888 674 896 689 907 C 702 917 707 935 709 955 C 801 945 812 913 812 862 L 812 521 C 831 517 847 509 853 502 Z" fill="red" /><path transform="translate(2000)" d="M 263 324 L 225 309 C 261 243 291 170 317 95 C 340 95 351 87 356 74 L 250 43 C 202 235 118 430 36 552 L 50 562 C 92 520 130 468 167 412 L 167 957 L 179 957 C 204 957 231 941 232 935 L 232 341 C 250 338 259 333 263 324 Z M 769 739 L 453 739 L 453 641 L 769 641 L 769 739 Z M 453 510 L 769 510 L 769 611 L 453 611 L 453 510 Z M 464 361 L 464 243 L 612 243 L 612 361 L 464 361 Z M 464 123 L 751 123 L 751 361 L 667 361 L 667 251 C 684 248 699 240 705 233 L 633 179 L 603 213 L 464 213 L 464 123 Z M 962 390 L 893 323 L 855 361 L 811 361 L 811 131 C 837 128 849 123 856 112 L 773 51 L 739 94 L 476 94 L 404 63 L 404 361 L 358 361 C 356 347 354 334 350 318 L 334 317 C 329 385 304 430 272 449 C 217 522 366 560 360 391 L 859 391 C 852 420 843 455 837 475 L 791 441 L 759 480 L 458 480 L 390 449 L 390 961 L 401 961 C 427 961 453 945 453 938 L 453 768 L 769 768 L 769 854 C 769 869 764 874 746 874 C 724 874 623 867 623 867 L 624 882 C 668 888 694 896 709 907 C 722 917 727 935 729 955 C 821 945 832 913 832 862 L 832 521 C 851 517 867 509 873 502 L 838 475 L 852 481 C 873 460 906 422 925 401 C 944 400 956 398 962 390 Z" fill="blue" fill-opacity="0.5" /><path transform="translate(2000)" d="M 263 324 L 225 309 C 261 243 291 170 317 95 C 340 95 351 87 356 74 L 250 43 C 202 235 118 430 36 552 L 50 562 C 92 520 130 468 167 412 L 167 957 L 179 957 C 204 957 231 941 232 935 L 232 341 C 250 338 259 333 263 324 Z M 749 739 L 473 739 L 473 641 L 749 641 L 749 739 Z M 473 510 L 749 510 L 749 611 L 473 611 L 473 510 Z M 484 361 L 484 123 L 731 123 L 731 213 L 636 213 L 570 183 L 570 361 L 484 361 Z M 624 361 L 624 243 L 731 243 L 731 361 L 624 361 Z M 962 390 L 893 323 L 855 361 L 791 361 L 791 131 C 817 128 829 123 836 112 L 753 51 L 719 94 L 496 94 L 424 63 L 424 361 L 366 361 C 364 347 362 334 358 318 L 342 317 C 337 385 312 430 280 449 C 225 522 374 560 368 391 L 859 391 C 852 420 843 455 837 475 L 838 475 L 852 481 C 873 460 906 422 925 401 C 944 400 956 398 962 390 Z M 853 502 L 771 441 L 739 480 L 478 480 L 410 449 L 410 961 L 421 961 C 447 961 473 945 473 938 L 473 768 L 749 768 L 749 854 C 749 869 744 874 726 874 C 704 874 603 867 603 867 L 604 882 C 648 888 674 896 689 907 C 702 917 707 935 709 955 C 801 945 812 913 812 862 L 812 521 C 831 517 847 509 853 502 Z" fill="red" fill-opacity="0.5" /><text text-anchor="middle" x="500" y="1064" font-family="Arial" font-size="64">Source Han Serif KR</text><text text-anchor="middle" x="1500" y="1064" font-family="Arial" font-size="64">HKSerif (uni50A6KX-regular)</text></svg>