<svg width="3000" height="1080" xmlns="http://www.w3.org/2000/svg" style="background:#fff"><path d="M 914 399 L 916 385 C 789 343 656 275 585 194 C 608 191 619 187 622 176 L 512 154 C 470 255 318 396 191 465 L 199 479 C 341 419 493 307 568 204 C 627 306 741 395 862 451 C 867 426 887 405 914 399 Z M 900 850 L 896 849 L 890 849 C 869 854 849 855 839 856 L 773 856 L 291 856 C 196 856 191 856 191 827 L 191 146 L 914 146 C 928 146 939 141 942 130 C 906 98 852 57 852 57 L 803 116 L 46 116 L 54 146 L 126 146 L 126 828 C 126 907 147 918 299 918 L 762 918 C 927 918 952 909 952 878 C 952 866 945 860 900 850 Z M 708 714 L 392 714 L 392 553 L 708 553 L 708 714 Z M 708 792 L 718 792 C 739 792 772 778 773 771 L 773 563 C 790 559 806 551 812 544 L 734 485 L 700 523 L 397 523 L 329 493 L 329 803 L 339 803 C 365 803 392 789 392 783 L 392 743 L 708 743 L 708 792 Z M 647 352 L 607 401 L 383 401 L 391 430 L 701 430 C 713 430 723 425 726 415 C 695 387 647 352 647 352 Z" fill="blue" /><path transform="translate(1000)" d="M 189 119 L 59 119 L 68 148 L 111 148 L 111 863 C 96 870 80 879 71 887 L 155 938 L 184 900 L 921 900 C 936 900 945 895 948 884 C 913 852 853 807 853 807 L 801 871 L 176 871 L 176 148 L 915 148 C 929 148 939 143 942 132 C 907 100 853 58 853 58 L 804 119 L 189 119 Z M 716 746 L 397 746 L 397 572 L 716 572 L 716 746 Z M 397 775 L 716 775 L 716 821 L 726 821 C 747 821 779 807 780 801 L 780 583 C 798 579 813 571 819 564 L 742 504 L 707 543 L 402 543 L 333 512 L 333 834 L 343 834 C 369 834 397 819 397 813 L 397 775 Z M 381 454 L 727 454 C 740 454 749 449 752 438 C 721 410 675 376 675 376 L 632 424 L 373 424 L 381 454 Z M 920 410 L 921 397 C 794 355 664 287 593 205 C 616 203 626 199 629 188 L 520 165 C 479 266 328 406 203 477 L 210 491 C 351 430 503 319 577 216 C 635 318 749 406 866 462 C 871 438 892 416 920 410 Z" fill="red" /><path transform="translate(2000)" d="M 914 399 L 916 385 C 789 343 656 275 585 194 C 608 191 619 187 622 176 L 512 154 C 470 255 318 396 191 465 L 199 479 C 341 419 493 307 568 204 C 627 306 741 395 862 451 C 867 426 887 405 914 399 Z M 900 850 L 896 849 L 890 849 C 869 854 849 855 839 856 L 773 856 L 291 856 C 196 856 191 856 191 827 L 191 146 L 914 146 C 928 146 939 141 942 130 C 906 98 852 57 852 57 L 803 116 L 46 116 L 54 146 L 126 146 L 126 828 C 126 907 147 918 299 918 L 762 918 C 927 918 952 909 952 878 C 952 866 945 860 900 850 Z M 708 714 L 392 714 L 392 553 L 708 553 L 708 714 Z M 708 792 L 718 792 C 739 792 772 778 773 771 L 773 563 C 790 559 806 551 812 544 L 734 485 L 700 523 L 397 523 L 329 493 L 329 803 L 339 803 C 365 803 392 789 392 783 L 392 743 L 708 743 L 708 792 Z M 647 352 L 607 401 L 383 401 L 391 430 L 701 430 C 713 430 723 425 726 415 C 695 387 647 352 647 352 Z" fill="blue" fill-opacity="0.5" /><path transform="translate(2000)" d="M 189 119 L 59 119 L 68 148 L 111 148 L 111 863 C 96 870 80 879 71 887 L 155 938 L 184 900 L 921 900 C 936 900 945 895 948 884 C 913 852 853 807 853 807 L 801 871 L 176 871 L 176 148 L 915 148 C 929 148 939 143 942 132 C 907 100 853 58 853 58 L 804 119 L 189 119 Z M 716 746 L 397 746 L 397 572 L 716 572 L 716 746 Z M 397 775 L 716 775 L 716 821 L 726 821 C 747 821 779 807 780 801 L 780 583 C 798 579 813 571 819 564 L 742 504 L 707 543 L 402 543 L 333 512 L 333 834 L 343 834 C 369 834 397 819 397 813 L 397 775 Z M 381 454 L 727 454 C 740 454 749 449 752 438 C 721 410 675 376 675 376 L 632 424 L 373 424 L 381 454 Z M 920 410 L 921 397 C 794 355 664 287 593 205 C 616 203 626 199 629 188 L 520 165 C 479 266 328 406 203 477 L 210 491 C 351 430 503 319 577 216 C 635 318 749 406 866 462 C 871 438 892 416 920 410 Z" fill="red" fill-opacity="0.5" /><text text-anchor="middle" x="500" y="1064" font-family="Arial" font-size="64">Source Han Serif TW</text><text text-anchor="middle" x="1500" y="1064" font-family="Arial" font-size="64">HKSerif (uni533CHK-regular)</text></svg>