<svg width="3000" height="1080" xmlns="http://www.w3.org/2000/svg" style="background:#fff"><path d="M 520 465 L 476 518 L 352 518 L 352 426 C 377 423 386 413 388 399 L 290 388 L 290 518 L 60 518 L 68 547 L 249 547 C 205 674 130 799 29 890 L 41 905 C 149 831 233 735 290 622 L 290 957 L 302 957 C 325 957 352 943 352 935 L 352 646 C 415 694 492 764 522 816 C 597 853 626 717 352 621 L 352 547 L 574 547 C 588 547 598 542 601 531 C 569 502 520 465 520 465 Z M 590 349 L 587 347 L 577 347 C 573 349 566 350 562 351 C 558 351 553 352 549 352 L 521 352 L 492 352 C 478 352 477 348 477 338 L 477 140 C 494 138 507 133 514 126 L 443 64 L 407 101 L 243 101 L 168 68 L 168 199 C 168 291 152 388 45 468 L 55 481 C 214 405 231 286 231 198 L 231 130 L 416 130 L 416 355 C 416 394 423 409 473 409 L 515 409 C 596 409 618 398 618 374 C 618 360 609 355 590 349 Z M 724 730 L 724 197 C 749 194 758 184 760 170 L 663 159 L 663 752 L 675 752 C 697 752 724 738 724 730 Z M 941 58 L 842 46 L 842 860 C 842 875 837 881 818 881 C 798 881 698 873 698 873 L 698 889 C 743 895 767 903 783 914 C 795 924 800 942 803 962 C 894 952 905 920 905 866 L 905 85 C 929 82 939 72 941 58 Z" fill="blue" /><path transform="translate(1000)" d="M 469 152 L 408 143 L 408 355 C 408 394 416 409 467 409 L 495 409 C 574 409 599 397 599 372 C 599 361 595 353 577 346 L 574 250 L 561 250 C 553 291 543 333 538 344 C 535 351 532 352 526 353 L 498 353 L 485 353 C 472 353 469 351 469 341 L 469 152 Z M 520 465 L 476 518 L 352 518 L 352 426 C 377 423 386 413 388 399 L 290 388 L 290 518 L 60 518 L 68 547 L 249 547 C 205 674 130 799 29 890 L 41 905 C 149 831 233 735 290 622 L 290 957 L 302 957 C 325 957 352 943 352 935 L 352 646 C 415 694 492 764 522 816 C 597 853 626 717 352 621 L 352 547 L 574 547 C 588 547 598 542 601 531 C 569 502 520 465 520 465 Z M 408 355 L 469 338 L 469 140 C 486 138 499 133 506 126 L 435 64 L 399 101 L 243 101 L 168 68 L 168 199 C 168 291 152 388 45 468 L 55 481 C 214 405 231 286 231 198 L 231 130 L 408 130 L 408 355 Z M 724 730 L 724 197 C 749 194 758 184 760 170 L 663 159 L 663 752 L 675 752 C 697 752 724 738 724 730 Z M 941 58 L 842 46 L 842 860 C 842 875 837 881 818 881 C 798 881 698 873 698 873 L 698 889 C 743 895 767 903 783 914 C 795 924 800 942 803 962 C 894 952 905 920 905 866 L 905 85 C 929 82 939 72 941 58 Z" fill="red" /><path transform="translate(2000)" d="M 520 465 L 476 518 L 352 518 L 352 426 C 377 423 386 413 388 399 L 290 388 L 290 518 L 60 518 L 68 547 L 249 547 C 205 674 130 799 29 890 L 41 905 C 149 831 233 735 290 622 L 290 957 L 302 957 C 325 957 352 943 352 935 L 352 646 C 415 694 492 764 522 816 C 597 853 626 717 352 621 L 352 547 L 574 547 C 588 547 598 542 601 531 C 569 502 520 465 520 465 Z M 590 349 L 587 347 L 577 347 C 573 349 566 350 562 351 C 558 351 553 352 549 352 L 521 352 L 492 352 C 478 352 477 348 477 338 L 477 140 C 494 138 507 133 514 126 L 443 64 L 407 101 L 243 101 L 168 68 L 168 199 C 168 291 152 388 45 468 L 55 481 C 214 405 231 286 231 198 L 231 130 L 416 130 L 416 355 C 416 394 423 409 473 409 L 515 409 C 596 409 618 398 618 374 C 618 360 609 355 590 349 Z M 724 730 L 724 197 C 749 194 758 184 760 170 L 663 159 L 663 752 L 675 752 C 697 752 724 738 724 730 Z M 941 58 L 842 46 L 842 860 C 842 875 837 881 818 881 C 798 881 698 873 698 873 L 698 889 C 743 895 767 903 783 914 C 795 924 800 942 803 962 C 894 952 905 920 905 866 L 905 85 C 929 82 939 72 941 58 Z" fill="blue" fill-opacity="0.5" /><path transform="translate(2000)" d="M 469 152 L 408 143 L 408 355 C 408 394 416 409 467 409 L 495 409 C 574 409 599 397 599 372 C 599 361 595 353 577 346 L 574 250 L 561 250 C 553 291 543 333 538 344 C 535 351 532 352 526 353 L 498 353 L 485 353 C 472 353 469 351 469 341 L 469 152 Z M 520 465 L 476 518 L 352 518 L 352 426 C 377 423 386 413 388 399 L 290 388 L 290 518 L 60 518 L 68 547 L 249 547 C 205 674 130 799 29 890 L 41 905 C 149 831 233 735 290 622 L 290 957 L 302 957 C 325 957 352 943 352 935 L 352 646 C 415 694 492 764 522 816 C 597 853 626 717 352 621 L 352 547 L 574 547 C 588 547 598 542 601 531 C 569 502 520 465 520 465 Z M 408 355 L 469 338 L 469 140 C 486 138 499 133 506 126 L 435 64 L 399 101 L 243 101 L 168 68 L 168 199 C 168 291 152 388 45 468 L 55 481 C 214 405 231 286 231 198 L 231 130 L 408 130 L 408 355 Z M 724 730 L 724 197 C 749 194 758 184 760 170 L 663 159 L 663 752 L 675 752 C 697 752 724 738 724 730 Z M 941 58 L 842 46 L 842 860 C 842 875 837 881 818 881 C 798 881 698 873 698 873 L 698 889 C 743 895 767 903 783 914 C 795 924 800 942 803 962 C 894 952 905 920 905 866 L 905 85 C 929 82 939 72 941 58 Z" fill="red" fill-opacity="0.5" /><text text-anchor="middle" x="500" y="1064" font-family="Arial" font-size="64">Source Han Serif KR</text><text text-anchor="middle" x="1500" y="1064" font-family="Arial" font-size="64">HKSerif (uni5241KX-regular)</text></svg>