<svg width="3000" height="1080" xmlns="http://www.w3.org/2000/svg" style="background:#fff"><path d="M 326 73 L 223 42 C 184 231 109 422 32 545 L 47 555 C 85 513 120 464 153 408 L 153 957 L 165 957 C 188 957 214 942 215 936 L 215 344 C 232 341 242 336 245 327 L 205 311 C 237 243 266 168 290 92 C 311 93 322 85 326 73 Z M 505 613 L 505 404 L 577 404 L 577 613 L 505 613 Z M 628 404 L 704 404 L 704 613 L 628 613 L 628 404 Z M 690 697 L 677 703 C 693 725 710 753 726 783 L 630 796 L 630 643 L 704 643 L 704 667 L 710 667 C 728 667 754 654 755 648 L 755 412 C 773 408 788 401 793 394 L 725 340 L 694 374 L 631 374 L 631 249 C 670 242 706 234 735 227 C 757 236 773 237 783 228 L 712 165 C 650 194 529 237 432 257 L 437 274 C 481 271 528 265 574 258 L 574 374 L 510 374 L 454 347 L 454 700 L 461 700 C 483 700 505 687 505 682 L 505 643 L 574 643 L 574 803 C 491 813 421 821 381 823 L 413 903 C 423 901 432 894 437 882 C 565 849 663 821 735 801 C 752 835 766 872 770 903 C 828 953 880 821 690 697 Z M 952 882 L 972 709 L 959 706 C 952 738 942 776 928 820 C 923 834 919 834 914 822 C 877 719 872 385 884 152 C 908 149 923 141 929 135 L 850 66 L 812 107 L 400 107 L 328 75 L 328 409 C 328 593 325 791 247 948 L 264 959 C 384 802 388 580 388 408 L 388 136 L 823 136 C 819 423 817 744 871 883 C 889 932 923 970 956 955 C 971 947 967 925 952 882 Z" fill="blue" /><path transform="translate(1000)" d="M 244 323 L 210 310 C 243 242 273 168 296 93 C 319 93 330 84 334 73 L 231 43 C 188 231 111 425 34 550 L 49 559 C 84 520 116 475 147 426 L 147 956 L 160 956 C 185 956 212 940 213 934 L 213 341 C 231 338 240 332 244 323 Z M 494 617 L 494 413 L 565 413 L 565 617 L 494 617 Z M 621 413 L 692 413 L 692 617 L 621 617 L 621 413 Z M 696 706 L 682 712 C 698 737 714 767 730 800 L 621 810 L 621 647 L 692 647 L 692 676 L 700 676 C 718 676 744 664 744 658 L 744 422 C 762 419 778 411 784 404 L 714 351 L 683 384 L 621 384 L 621 265 L 761 265 C 774 265 784 260 786 249 C 760 222 715 186 715 186 L 678 236 L 416 236 L 424 265 L 565 265 L 565 384 L 498 384 L 443 358 L 443 710 L 451 710 C 472 710 494 697 494 691 L 494 647 L 565 647 L 565 814 C 483 821 413 826 373 828 L 412 909 C 422 907 430 900 436 887 C 567 861 665 838 738 820 C 753 854 763 887 766 916 C 818 966 869 839 696 706 Z M 945 876 L 963 708 L 950 706 C 942 741 932 779 920 818 C 915 832 911 833 905 821 C 858 723 853 376 866 153 C 890 150 903 143 910 136 L 830 65 L 789 108 L 405 108 L 334 76 L 334 420 C 334 605 327 798 237 948 L 253 959 C 386 809 393 593 393 419 L 393 137 L 800 137 C 796 427 793 760 862 891 C 885 934 919 967 950 950 C 965 942 962 919 945 876 Z" fill="red" /><path transform="translate(2000)" d="M 326 73 L 223 42 C 184 231 109 422 32 545 L 47 555 C 85 513 120 464 153 408 L 153 957 L 165 957 C 188 957 214 942 215 936 L 215 344 C 232 341 242 336 245 327 L 205 311 C 237 243 266 168 290 92 C 311 93 322 85 326 73 Z M 505 613 L 505 404 L 577 404 L 577 613 L 505 613 Z M 628 404 L 704 404 L 704 613 L 628 613 L 628 404 Z M 690 697 L 677 703 C 693 725 710 753 726 783 L 630 796 L 630 643 L 704 643 L 704 667 L 710 667 C 728 667 754 654 755 648 L 755 412 C 773 408 788 401 793 394 L 725 340 L 694 374 L 631 374 L 631 249 C 670 242 706 234 735 227 C 757 236 773 237 783 228 L 712 165 C 650 194 529 237 432 257 L 437 274 C 481 271 528 265 574 258 L 574 374 L 510 374 L 454 347 L 454 700 L 461 700 C 483 700 505 687 505 682 L 505 643 L 574 643 L 574 803 C 491 813 421 821 381 823 L 413 903 C 423 901 432 894 437 882 C 565 849 663 821 735 801 C 752 835 766 872 770 903 C 828 953 880 821 690 697 Z M 952 882 L 972 709 L 959 706 C 952 738 942 776 928 820 C 923 834 919 834 914 822 C 877 719 872 385 884 152 C 908 149 923 141 929 135 L 850 66 L 812 107 L 400 107 L 328 75 L 328 409 C 328 593 325 791 247 948 L 264 959 C 384 802 388 580 388 408 L 388 136 L 823 136 C 819 423 817 744 871 883 C 889 932 923 970 956 955 C 971 947 967 925 952 882 Z" fill="blue" fill-opacity="0.5" /><path transform="translate(2000)" d="M 244 323 L 210 310 C 243 242 273 168 296 93 C 319 93 330 84 334 73 L 231 43 C 188 231 111 425 34 550 L 49 559 C 84 520 116 475 147 426 L 147 956 L 160 956 C 185 956 212 940 213 934 L 213 341 C 231 338 240 332 244 323 Z M 494 617 L 494 413 L 565 413 L 565 617 L 494 617 Z M 621 413 L 692 413 L 692 617 L 621 617 L 621 413 Z M 696 706 L 682 712 C 698 737 714 767 730 800 L 621 810 L 621 647 L 692 647 L 692 676 L 700 676 C 718 676 744 664 744 658 L 744 422 C 762 419 778 411 784 404 L 714 351 L 683 384 L 621 384 L 621 265 L 761 265 C 774 265 784 260 786 249 C 760 222 715 186 715 186 L 678 236 L 416 236 L 424 265 L 565 265 L 565 384 L 498 384 L 443 358 L 443 710 L 451 710 C 472 710 494 697 494 691 L 494 647 L 565 647 L 565 814 C 483 821 413 826 373 828 L 412 909 C 422 907 430 900 436 887 C 567 861 665 838 738 820 C 753 854 763 887 766 916 C 818 966 869 839 696 706 Z M 945 876 L 963 708 L 950 706 C 942 741 932 779 920 818 C 915 832 911 833 905 821 C 858 723 853 376 866 153 C 890 150 903 143 910 136 L 830 65 L 789 108 L 405 108 L 334 76 L 334 420 C 334 605 327 798 237 948 L 253 959 C 386 809 393 593 393 419 L 393 137 L 800 137 C 796 427 793 760 862 891 C 885 934 919 967 950 950 C 965 942 962 919 945 876 Z" fill="red" fill-opacity="0.5" /><text text-anchor="middle" x="500" y="1064" font-family="Arial" font-size="64">Source Han Serif KR</text><text text-anchor="middle" x="1500" y="1064" font-family="Arial" font-size="64">HKSerif (uni5051KX-regular)</text></svg>