<svg width="3000" height="1080" xmlns="http://www.w3.org/2000/svg" style="background:#fff"><path d="M 796 627 L 696 627 L 696 535 L 796 535 L 796 627 Z M 643 627 L 541 627 L 541 535 L 643 535 L 643 627 Z M 489 627 L 390 627 L 390 535 L 489 535 L 489 627 Z M 731 770 L 731 785 C 753 789 764 795 772 803 C 780 812 782 827 783 841 C 846 834 854 809 854 762 L 854 547 C 875 544 891 534 897 527 L 818 468 L 786 505 L 396 505 L 333 476 L 333 834 L 342 834 C 366 834 390 821 390 815 L 390 657 L 489 657 L 489 807 L 497 807 C 523 807 541 795 541 791 L 541 657 L 643 657 L 643 789 L 651 789 C 678 789 696 775 696 771 L 696 657 L 796 657 L 796 757 C 796 768 794 773 783 773 C 770 773 731 770 731 770 Z M 333 334 L 767 334 L 767 409 L 332 409 C 333 388 333 370 333 352 L 333 334 Z M 831 225 L 768 159 C 669 184 491 214 342 230 L 274 207 L 274 351 C 274 491 268 664 189 813 L 204 825 C 300 711 324 559 331 439 L 767 439 L 767 469 L 776 469 C 795 469 825 455 825 449 L 825 343 C 843 340 858 332 864 325 L 790 270 L 757 304 L 333 304 L 333 251 C 488 248 663 234 783 220 C 805 231 823 232 831 225 Z M 865 53 L 817 112 L 48 112 L 57 142 L 111 142 L 111 845 C 111 919 132 927 286 927 L 752 927 C 921 927 943 920 943 894 C 943 882 935 878 891 869 L 888 868 L 881 868 C 858 874 837 875 827 875 C 813 876 787 876 762 876 L 276 876 C 180 876 176 875 176 844 L 176 142 L 927 142 C 941 142 951 137 953 126 C 919 94 865 53 865 53 Z" fill="blue" /><path transform="translate(1000)" d="M 181 112 L 56 112 L 65 142 L 111 142 L 111 874 C 96 880 80 890 72 898 L 155 949 L 184 911 L 921 911 C 935 911 945 906 948 895 C 913 863 857 821 857 821 L 809 881 L 176 881 L 176 142 L 901 142 C 915 142 925 137 928 126 C 893 94 837 52 837 52 L 789 112 L 181 112 Z M 770 622 L 680 622 L 680 518 L 770 518 L 770 622 Z M 628 622 L 551 622 L 551 518 L 628 518 L 628 622 Z M 499 622 L 406 622 L 406 518 L 499 518 L 499 622 Z M 704 770 L 704 786 C 726 789 737 795 745 804 C 753 811 755 826 756 841 C 819 834 827 808 827 762 L 827 530 C 848 527 864 518 870 511 L 791 451 L 760 488 L 411 488 L 351 460 L 351 837 L 360 837 C 382 837 406 823 406 817 L 406 652 L 499 652 L 499 794 L 507 794 C 533 794 551 782 551 778 L 551 652 L 628 652 L 628 786 L 636 786 C 662 786 680 774 680 769 L 680 652 L 770 652 L 770 757 C 770 769 767 773 756 773 C 743 773 704 770 704 770 Z M 343 293 L 742 293 L 742 385 L 343 385 L 343 376 L 343 293 Z M 355 264 L 282 231 L 282 376 C 282 517 276 686 201 829 L 215 840 C 322 713 340 538 343 414 L 742 414 L 742 442 L 751 442 C 771 442 801 429 802 422 L 802 302 C 819 299 834 291 840 284 L 766 228 L 733 264 L 355 264 Z M 494 159 L 485 167 C 506 185 530 220 535 248 C 591 289 646 180 494 159 Z" fill="red" /><path transform="translate(2000)" d="M 796 627 L 696 627 L 696 535 L 796 535 L 796 627 Z M 643 627 L 541 627 L 541 535 L 643 535 L 643 627 Z M 489 627 L 390 627 L 390 535 L 489 535 L 489 627 Z M 731 770 L 731 785 C 753 789 764 795 772 803 C 780 812 782 827 783 841 C 846 834 854 809 854 762 L 854 547 C 875 544 891 534 897 527 L 818 468 L 786 505 L 396 505 L 333 476 L 333 834 L 342 834 C 366 834 390 821 390 815 L 390 657 L 489 657 L 489 807 L 497 807 C 523 807 541 795 541 791 L 541 657 L 643 657 L 643 789 L 651 789 C 678 789 696 775 696 771 L 696 657 L 796 657 L 796 757 C 796 768 794 773 783 773 C 770 773 731 770 731 770 Z M 333 334 L 767 334 L 767 409 L 332 409 C 333 388 333 370 333 352 L 333 334 Z M 831 225 L 768 159 C 669 184 491 214 342 230 L 274 207 L 274 351 C 274 491 268 664 189 813 L 204 825 C 300 711 324 559 331 439 L 767 439 L 767 469 L 776 469 C 795 469 825 455 825 449 L 825 343 C 843 340 858 332 864 325 L 790 270 L 757 304 L 333 304 L 333 251 C 488 248 663 234 783 220 C 805 231 823 232 831 225 Z M 865 53 L 817 112 L 48 112 L 57 142 L 111 142 L 111 845 C 111 919 132 927 286 927 L 752 927 C 921 927 943 920 943 894 C 943 882 935 878 891 869 L 888 868 L 881 868 C 858 874 837 875 827 875 C 813 876 787 876 762 876 L 276 876 C 180 876 176 875 176 844 L 176 142 L 927 142 C 941 142 951 137 953 126 C 919 94 865 53 865 53 Z" fill="blue" fill-opacity="0.5" /><path transform="translate(2000)" d="M 181 112 L 56 112 L 65 142 L 111 142 L 111 874 C 96 880 80 890 72 898 L 155 949 L 184 911 L 921 911 C 935 911 945 906 948 895 C 913 863 857 821 857 821 L 809 881 L 176 881 L 176 142 L 901 142 C 915 142 925 137 928 126 C 893 94 837 52 837 52 L 789 112 L 181 112 Z M 770 622 L 680 622 L 680 518 L 770 518 L 770 622 Z M 628 622 L 551 622 L 551 518 L 628 518 L 628 622 Z M 499 622 L 406 622 L 406 518 L 499 518 L 499 622 Z M 704 770 L 704 786 C 726 789 737 795 745 804 C 753 811 755 826 756 841 C 819 834 827 808 827 762 L 827 530 C 848 527 864 518 870 511 L 791 451 L 760 488 L 411 488 L 351 460 L 351 837 L 360 837 C 382 837 406 823 406 817 L 406 652 L 499 652 L 499 794 L 507 794 C 533 794 551 782 551 778 L 551 652 L 628 652 L 628 786 L 636 786 C 662 786 680 774 680 769 L 680 652 L 770 652 L 770 757 C 770 769 767 773 756 773 C 743 773 704 770 704 770 Z M 343 293 L 742 293 L 742 385 L 343 385 L 343 376 L 343 293 Z M 355 264 L 282 231 L 282 376 C 282 517 276 686 201 829 L 215 840 C 322 713 340 538 343 414 L 742 414 L 742 442 L 751 442 C 771 442 801 429 802 422 L 802 302 C 819 299 834 291 840 284 L 766 228 L 733 264 L 355 264 Z M 494 159 L 485 167 C 506 185 530 220 535 248 C 591 289 646 180 494 159 Z" fill="red" fill-opacity="0.5" /><text text-anchor="middle" x="500" y="1064" font-family="Arial" font-size="64">Source Han Serif TW</text><text text-anchor="middle" x="1500" y="1064" font-family="Arial" font-size="64">HKSerif (uni533EHK-regular)</text></svg>