<svg width="3000" height="1080" xmlns="http://www.w3.org/2000/svg" style="background:#fff"><path d="M 867 816 L 818 878 L 173 878 L 173 150 L 894 150 C 908 150 917 145 920 134 C 889 104 839 65 839 65 L 795 121 L 185 121 L 108 88 L 108 874 C 97 880 86 889 80 896 L 155 946 L 181 908 L 930 908 C 944 908 953 903 956 892 C 922 860 867 816 867 816 Z M 574 515 L 889 515 C 903 515 912 510 915 499 C 882 468 829 427 829 427 L 783 485 L 579 485 C 587 437 590 384 591 327 L 819 327 C 833 327 843 322 846 311 C 811 279 761 241 761 241 L 715 298 L 408 298 C 423 274 436 249 447 222 C 469 223 480 215 484 203 L 389 171 C 358 287 302 393 239 458 L 253 468 C 304 434 352 386 391 327 L 522 327 C 521 384 519 437 512 485 L 224 485 L 232 515 L 507 515 C 483 634 416 728 223 802 L 235 819 C 423 761 510 685 552 586 C 638 639 741 722 780 790 C 864 828 879 659 560 564 C 566 548 570 532 574 515 Z" fill="blue" /><path transform="translate(1000)" d="M 806 120 L 59 121 L 68 150 L 120 150 L 120 874 C 109 880 98 889 92 896 L 167 946 L 193 908 L 918 908 C 932 908 941 903 944 892 C 910 860 855 816 855 816 L 806 878 L 185 878 L 185 150 L 918 150 C 932 150 941 145 944 134 C 910 102 855 58 855 58 L 806 120 Z M 574 515 L 889 515 C 903 515 912 510 915 499 C 882 468 829 427 829 427 L 783 485 L 579 485 C 587 437 590 384 591 327 L 819 327 C 833 327 843 322 846 311 C 811 279 761 241 761 241 L 715 298 L 408 298 C 423 274 436 249 447 222 C 469 223 480 215 484 203 L 389 171 C 358 287 302 393 239 458 L 253 468 C 304 434 352 386 391 327 L 522 327 C 521 384 519 437 512 485 L 224 485 L 232 515 L 507 515 C 483 634 416 728 223 802 L 235 819 C 423 761 510 685 552 586 C 638 639 741 722 780 790 C 864 828 879 659 560 564 C 566 548 570 532 574 515 Z" fill="red" /><path transform="translate(2000)" d="M 867 816 L 818 878 L 173 878 L 173 150 L 894 150 C 908 150 917 145 920 134 C 889 104 839 65 839 65 L 795 121 L 185 121 L 108 88 L 108 874 C 97 880 86 889 80 896 L 155 946 L 181 908 L 930 908 C 944 908 953 903 956 892 C 922 860 867 816 867 816 Z M 574 515 L 889 515 C 903 515 912 510 915 499 C 882 468 829 427 829 427 L 783 485 L 579 485 C 587 437 590 384 591 327 L 819 327 C 833 327 843 322 846 311 C 811 279 761 241 761 241 L 715 298 L 408 298 C 423 274 436 249 447 222 C 469 223 480 215 484 203 L 389 171 C 358 287 302 393 239 458 L 253 468 C 304 434 352 386 391 327 L 522 327 C 521 384 519 437 512 485 L 224 485 L 232 515 L 507 515 C 483 634 416 728 223 802 L 235 819 C 423 761 510 685 552 586 C 638 639 741 722 780 790 C 864 828 879 659 560 564 C 566 548 570 532 574 515 Z" fill="blue" fill-opacity="0.5" /><path transform="translate(2000)" d="M 806 120 L 59 121 L 68 150 L 120 150 L 120 874 C 109 880 98 889 92 896 L 167 946 L 193 908 L 918 908 C 932 908 941 903 944 892 C 910 860 855 816 855 816 L 806 878 L 185 878 L 185 150 L 918 150 C 932 150 941 145 944 134 C 910 102 855 58 855 58 L 806 120 Z M 574 515 L 889 515 C 903 515 912 510 915 499 C 882 468 829 427 829 427 L 783 485 L 579 485 C 587 437 590 384 591 327 L 819 327 C 833 327 843 322 846 311 C 811 279 761 241 761 241 L 715 298 L 408 298 C 423 274 436 249 447 222 C 469 223 480 215 484 203 L 389 171 C 358 287 302 393 239 458 L 253 468 C 304 434 352 386 391 327 L 522 327 C 521 384 519 437 512 485 L 224 485 L 232 515 L 507 515 C 483 634 416 728 223 802 L 235 819 C 423 761 510 685 552 586 C 638 639 741 722 780 790 C 864 828 879 659 560 564 C 566 548 570 532 574 515 Z" fill="red" fill-opacity="0.5" /><text text-anchor="middle" x="500" y="1064" font-family="Arial" font-size="64">Source Han Serif TW</text><text text-anchor="middle" x="1500" y="1064" font-family="Arial" font-size="64">HKSerif (uni533BHK-regular)</text></svg>