<svg width="3000" height="1080" xmlns="http://www.w3.org/2000/svg" style="background:#fff"><path d="M 234 315 L 193 300 C 221 234 245 164 264 92 C 285 92 296 82 301 70 L 200 43 C 169 228 104 415 35 537 L 51 547 C 84 508 113 462 141 411 L 141 956 L 153 956 C 175 956 203 940 203 935 L 203 334 C 220 331 230 324 234 315 Z M 800 868 L 399 868 L 399 752 L 800 752 L 800 868 Z M 399 612 L 800 612 L 800 722 L 399 722 L 399 612 Z M 829 543 L 797 582 L 411 582 L 337 551 L 337 957 L 347 957 C 379 957 399 943 399 937 L 399 898 L 800 898 L 800 951 L 810 951 C 839 951 864 937 864 932 L 864 616 C 884 613 895 608 902 600 L 829 543 Z M 741 284 L 677 284 C 689 243 701 189 710 151 L 760 151 C 758 192 754 238 741 284 Z M 404 284 L 344 284 C 355 244 368 189 376 152 L 420 152 C 418 192 415 238 404 284 Z M 941 476 L 938 405 L 927 405 C 920 436 913 467 908 476 C 905 481 902 482 897 482 L 874 482 L 848 482 C 836 482 834 480 834 470 L 834 327 L 834 314 L 932 314 C 945 314 954 309 956 298 C 933 274 898 247 898 247 L 868 284 L 797 284 C 811 239 817 193 821 151 L 910 151 C 923 151 932 146 935 135 C 910 110 870 78 870 78 L 836 122 L 611 122 L 619 151 L 655 151 C 649 186 636 239 626 277 C 614 281 604 286 595 291 C 572 269 542 246 542 246 L 512 284 L 459 284 C 471 239 476 194 480 152 L 567 152 C 581 152 589 147 592 136 C 570 113 532 83 532 83 L 501 123 L 274 123 L 282 152 L 321 152 C 315 186 303 238 294 276 C 281 280 268 286 259 292 L 317 340 L 344 313 L 397 313 C 374 396 327 483 229 560 L 244 575 C 366 498 424 405 452 313 L 465 313 L 465 448 C 465 462 463 467 447 477 L 475 532 C 480 529 486 525 491 518 C 545 477 602 428 626 409 L 619 395 C 584 414 548 431 517 446 L 517 313 L 577 313 C 589 313 597 309 600 300 L 651 340 L 677 314 L 734 314 C 706 395 654 479 545 553 L 560 569 C 686 499 750 413 784 327 L 784 481 C 784 513 792 527 834 527 L 872 527 C 943 527 963 518 963 498 C 963 487 958 482 941 476 Z" fill="blue" /><path transform="translate(1000)" d="M 669 722 L 669 752 L 756 752 C 769 752 777 747 780 736 C 762 716 733 692 733 692 L 708 722 L 669 722 Z M 300 72 L 200 42 C 164 223 97 413 28 538 L 43 547 C 78 505 109 456 139 401 L 139 957 L 151 957 C 174 957 200 941 201 936 L 201 335 C 219 332 228 325 232 316 L 188 299 C 217 234 243 164 264 92 C 285 92 297 84 300 72 Z M 798 752 L 688 752 L 688 722 L 798 722 L 798 752 Z M 798 868 L 426 868 L 426 752 L 798 752 L 798 868 Z M 426 612 L 798 612 L 798 722 L 426 722 L 426 612 Z M 828 544 L 795 583 L 437 583 L 363 552 L 363 957 L 373 957 C 405 957 426 943 426 937 L 426 898 L 798 898 L 798 951 L 809 951 C 838 951 862 937 862 932 L 862 617 C 883 613 894 608 899 600 L 828 544 Z M 942 466 L 939 372 L 926 372 C 918 411 910 453 905 464 C 901 471 899 472 894 473 L 870 473 L 845 473 C 832 473 830 471 830 461 L 830 327 L 830 321 L 931 321 C 945 321 954 316 956 305 C 929 278 887 247 887 247 L 850 292 L 778 292 C 792 243 797 192 801 145 L 921 145 C 934 145 943 140 946 129 C 919 102 876 68 876 68 L 839 116 L 618 116 L 626 145 L 743 145 C 742 191 738 242 725 292 L 660 292 C 667 269 673 242 677 221 C 700 224 711 217 716 206 L 632 170 C 627 199 615 252 606 288 C 603 289 599 291 595 293 C 568 269 536 245 536 245 L 498 292 L 458 292 C 472 242 478 192 482 146 L 580 146 C 594 146 604 141 606 130 C 580 104 538 70 538 70 L 503 116 L 291 116 L 299 146 L 426 146 C 424 191 420 241 407 292 L 339 292 C 346 267 353 239 358 217 C 379 221 391 214 396 203 L 311 166 C 306 196 294 251 284 288 C 276 292 267 297 260 302 L 314 342 L 337 321 L 399 321 C 376 400 330 481 242 553 L 257 567 C 366 496 421 408 451 321 L 475 321 L 475 437 C 475 452 471 457 447 470 L 475 531 C 481 528 490 521 495 511 C 557 470 618 423 646 403 L 640 389 C 600 408 560 426 526 441 L 526 321 L 582 321 C 590 321 596 319 601 316 L 637 342 L 658 321 L 718 321 C 694 399 649 478 558 548 L 572 563 C 685 494 741 408 770 321 L 777 321 L 777 476 C 777 510 784 525 830 525 L 869 525 C 941 525 962 512 962 490 C 962 479 959 472 942 466 Z" fill="red" /><path transform="translate(2000)" d="M 234 315 L 193 300 C 221 234 245 164 264 92 C 285 92 296 82 301 70 L 200 43 C 169 228 104 415 35 537 L 51 547 C 84 508 113 462 141 411 L 141 956 L 153 956 C 175 956 203 940 203 935 L 203 334 C 220 331 230 324 234 315 Z M 800 868 L 399 868 L 399 752 L 800 752 L 800 868 Z M 399 612 L 800 612 L 800 722 L 399 722 L 399 612 Z M 829 543 L 797 582 L 411 582 L 337 551 L 337 957 L 347 957 C 379 957 399 943 399 937 L 399 898 L 800 898 L 800 951 L 810 951 C 839 951 864 937 864 932 L 864 616 C 884 613 895 608 902 600 L 829 543 Z M 741 284 L 677 284 C 689 243 701 189 710 151 L 760 151 C 758 192 754 238 741 284 Z M 404 284 L 344 284 C 355 244 368 189 376 152 L 420 152 C 418 192 415 238 404 284 Z M 941 476 L 938 405 L 927 405 C 920 436 913 467 908 476 C 905 481 902 482 897 482 L 874 482 L 848 482 C 836 482 834 480 834 470 L 834 327 L 834 314 L 932 314 C 945 314 954 309 956 298 C 933 274 898 247 898 247 L 868 284 L 797 284 C 811 239 817 193 821 151 L 910 151 C 923 151 932 146 935 135 C 910 110 870 78 870 78 L 836 122 L 611 122 L 619 151 L 655 151 C 649 186 636 239 626 277 C 614 281 604 286 595 291 C 572 269 542 246 542 246 L 512 284 L 459 284 C 471 239 476 194 480 152 L 567 152 C 581 152 589 147 592 136 C 570 113 532 83 532 83 L 501 123 L 274 123 L 282 152 L 321 152 C 315 186 303 238 294 276 C 281 280 268 286 259 292 L 317 340 L 344 313 L 397 313 C 374 396 327 483 229 560 L 244 575 C 366 498 424 405 452 313 L 465 313 L 465 448 C 465 462 463 467 447 477 L 475 532 C 480 529 486 525 491 518 C 545 477 602 428 626 409 L 619 395 C 584 414 548 431 517 446 L 517 313 L 577 313 C 589 313 597 309 600 300 L 651 340 L 677 314 L 734 314 C 706 395 654 479 545 553 L 560 569 C 686 499 750 413 784 327 L 784 481 C 784 513 792 527 834 527 L 872 527 C 943 527 963 518 963 498 C 963 487 958 482 941 476 Z" fill="blue" fill-opacity="0.5" /><path transform="translate(2000)" d="M 669 722 L 669 752 L 756 752 C 769 752 777 747 780 736 C 762 716 733 692 733 692 L 708 722 L 669 722 Z M 300 72 L 200 42 C 164 223 97 413 28 538 L 43 547 C 78 505 109 456 139 401 L 139 957 L 151 957 C 174 957 200 941 201 936 L 201 335 C 219 332 228 325 232 316 L 188 299 C 217 234 243 164 264 92 C 285 92 297 84 300 72 Z M 798 752 L 688 752 L 688 722 L 798 722 L 798 752 Z M 798 868 L 426 868 L 426 752 L 798 752 L 798 868 Z M 426 612 L 798 612 L 798 722 L 426 722 L 426 612 Z M 828 544 L 795 583 L 437 583 L 363 552 L 363 957 L 373 957 C 405 957 426 943 426 937 L 426 898 L 798 898 L 798 951 L 809 951 C 838 951 862 937 862 932 L 862 617 C 883 613 894 608 899 600 L 828 544 Z M 942 466 L 939 372 L 926 372 C 918 411 910 453 905 464 C 901 471 899 472 894 473 L 870 473 L 845 473 C 832 473 830 471 830 461 L 830 327 L 830 321 L 931 321 C 945 321 954 316 956 305 C 929 278 887 247 887 247 L 850 292 L 778 292 C 792 243 797 192 801 145 L 921 145 C 934 145 943 140 946 129 C 919 102 876 68 876 68 L 839 116 L 618 116 L 626 145 L 743 145 C 742 191 738 242 725 292 L 660 292 C 667 269 673 242 677 221 C 700 224 711 217 716 206 L 632 170 C 627 199 615 252 606 288 C 603 289 599 291 595 293 C 568 269 536 245 536 245 L 498 292 L 458 292 C 472 242 478 192 482 146 L 580 146 C 594 146 604 141 606 130 C 580 104 538 70 538 70 L 503 116 L 291 116 L 299 146 L 426 146 C 424 191 420 241 407 292 L 339 292 C 346 267 353 239 358 217 C 379 221 391 214 396 203 L 311 166 C 306 196 294 251 284 288 C 276 292 267 297 260 302 L 314 342 L 337 321 L 399 321 C 376 400 330 481 242 553 L 257 567 C 366 496 421 408 451 321 L 475 321 L 475 437 C 475 452 471 457 447 470 L 475 531 C 481 528 490 521 495 511 C 557 470 618 423 646 403 L 640 389 C 600 408 560 426 526 441 L 526 321 L 582 321 C 590 321 596 319 601 316 L 637 342 L 658 321 L 718 321 C 694 399 649 478 558 548 L 572 563 C 685 494 741 408 770 321 L 777 321 L 777 476 C 777 510 784 525 830 525 L 869 525 C 941 525 962 512 962 490 C 962 479 959 472 942 466 Z" fill="red" fill-opacity="0.5" /><text text-anchor="middle" x="500" y="1064" font-family="Arial" font-size="64">Source Han Serif TW</text><text text-anchor="middle" x="1500" y="1064" font-family="Arial" font-size="64">HKSerif (uni50EDHK-regular)</text></svg>