<svg width="3000" height="1080" xmlns="http://www.w3.org/2000/svg" style="background:#fff"><path d="M 57 849 L 85 932 C 96 930 106 922 111 910 C 317 874 472 838 593 807 L 591 789 C 375 818 155 843 57 849 Z M 465 667 L 173 667 L 173 495 L 465 495 L 465 667 Z M 173 300 L 465 300 L 465 466 L 173 466 L 173 300 Z M 465 745 L 476 745 C 503 745 528 730 528 725 L 528 305 C 549 302 560 296 567 288 L 495 232 L 462 271 L 185 271 L 112 240 L 112 756 L 122 756 C 153 756 173 742 173 736 L 173 696 L 465 696 L 465 745 Z M 522 72 L 479 130 L 58 130 L 66 160 L 579 160 C 591 160 601 155 604 144 C 573 113 522 72 522 72 Z M 714 723 L 714 209 C 739 206 748 196 751 182 L 653 171 L 653 745 L 665 745 C 687 745 714 732 714 723 Z M 935 58 L 835 46 L 835 857 C 835 873 829 879 810 879 C 789 879 685 871 685 871 L 685 886 C 731 893 755 901 771 912 C 786 922 792 940 795 961 C 888 951 899 917 899 863 L 899 85 C 923 82 933 72 935 58 Z" fill="blue" /><path transform="translate(1000)" d="M 57 849 L 85 932 C 96 930 106 922 111 910 C 317 874 472 838 593 807 L 591 789 C 375 818 155 843 57 849 Z M 447 667 L 191 667 L 191 495 L 447 495 L 447 667 Z M 191 300 L 447 300 L 447 466 L 191 466 L 191 300 Z M 447 745 L 458 745 C 485 745 510 730 510 725 L 510 305 C 531 302 542 296 549 288 L 477 232 L 444 271 L 203 271 L 130 240 L 130 756 L 140 756 C 171 756 191 742 191 736 L 191 696 L 447 696 L 447 745 Z M 518 72 L 475 130 L 64 130 L 72 160 L 575 160 C 587 160 597 155 600 144 C 569 113 518 72 518 72 Z M 714 723 L 714 209 C 739 206 748 196 751 182 L 653 171 L 653 745 L 665 745 C 687 745 714 732 714 723 Z M 935 58 L 835 46 L 835 857 C 835 873 829 879 810 879 C 789 879 685 871 685 871 L 685 886 C 731 893 755 901 771 912 C 786 922 792 940 795 961 C 888 951 899 917 899 863 L 899 85 C 923 82 933 72 935 58 Z" fill="red" /><path transform="translate(2000)" d="M 57 849 L 85 932 C 96 930 106 922 111 910 C 317 874 472 838 593 807 L 591 789 C 375 818 155 843 57 849 Z M 465 667 L 173 667 L 173 495 L 465 495 L 465 667 Z M 173 300 L 465 300 L 465 466 L 173 466 L 173 300 Z M 465 745 L 476 745 C 503 745 528 730 528 725 L 528 305 C 549 302 560 296 567 288 L 495 232 L 462 271 L 185 271 L 112 240 L 112 756 L 122 756 C 153 756 173 742 173 736 L 173 696 L 465 696 L 465 745 Z M 522 72 L 479 130 L 58 130 L 66 160 L 579 160 C 591 160 601 155 604 144 C 573 113 522 72 522 72 Z M 714 723 L 714 209 C 739 206 748 196 751 182 L 653 171 L 653 745 L 665 745 C 687 745 714 732 714 723 Z M 935 58 L 835 46 L 835 857 C 835 873 829 879 810 879 C 789 879 685 871 685 871 L 685 886 C 731 893 755 901 771 912 C 786 922 792 940 795 961 C 888 951 899 917 899 863 L 899 85 C 923 82 933 72 935 58 Z" fill="blue" fill-opacity="0.5" /><path transform="translate(2000)" d="M 57 849 L 85 932 C 96 930 106 922 111 910 C 317 874 472 838 593 807 L 591 789 C 375 818 155 843 57 849 Z M 447 667 L 191 667 L 191 495 L 447 495 L 447 667 Z M 191 300 L 447 300 L 447 466 L 191 466 L 191 300 Z M 447 745 L 458 745 C 485 745 510 730 510 725 L 510 305 C 531 302 542 296 549 288 L 477 232 L 444 271 L 203 271 L 130 240 L 130 756 L 140 756 C 171 756 191 742 191 736 L 191 696 L 447 696 L 447 745 Z M 518 72 L 475 130 L 64 130 L 72 160 L 575 160 C 587 160 597 155 600 144 C 569 113 518 72 518 72 Z M 714 723 L 714 209 C 739 206 748 196 751 182 L 653 171 L 653 745 L 665 745 C 687 745 714 732 714 723 Z M 935 58 L 835 46 L 835 857 C 835 873 829 879 810 879 C 789 879 685 871 685 871 L 685 886 C 731 893 755 901 771 912 C 786 922 792 940 795 961 C 888 951 899 917 899 863 L 899 85 C 923 82 933 72 935 58 Z" fill="red" fill-opacity="0.5" /><text text-anchor="middle" x="500" y="1064" font-family="Arial" font-size="64">Source Han Serif TW</text><text text-anchor="middle" x="1500" y="1064" font-family="Arial" font-size="64">HKSerif (uni522FHK-regular)</text></svg>