<svg width="3000" height="1080" xmlns="http://www.w3.org/2000/svg" style="background:#fff"><path d="M 682 633 L 682 148 L 918 148 C 932 148 941 143 944 132 C 910 100 854 58 854 58 L 806 119 L 51 119 L 60 148 L 147 148 L 147 813 C 148 901 194 919 329 919 L 561 919 C 872 920 928 912 928 873 C 928 858 919 850 886 842 L 880 841 L 869 841 C 856 846 842 850 832 851 C 821 852 808 854 791 855 C 761 857 675 859 568 859 L 324 859 C 228 859 210 844 210 802 L 210 148 L 386 148 C 385 445 394 629 219 753 L 234 770 C 451 650 447 464 449 148 L 621 148 L 621 648 C 621 692 633 709 694 709 L 757 709 C 864 710 891 700 891 675 C 891 662 883 656 863 649 L 849 649 C 842 651 835 652 830 652 C 825 653 820 653 814 653 C 806 654 785 654 762 654 L 710 654 C 686 654 682 649 682 633 Z" fill="blue" /><path transform="translate(1000)" d="M 850 807 L 802 870 L 197 870 L 197 168 L 393 168 C 392 441 398 611 214 726 L 228 743 C 457 632 455 458 458 168 L 612 168 L 612 604 C 612 652 626 669 695 669 L 750 669 C 879 669 908 656 908 629 C 908 616 903 608 882 600 L 879 453 L 866 453 C 855 513 843 579 837 595 C 832 605 829 607 820 608 C 809 609 784 609 751 609 L 708 609 C 679 609 675 604 675 588 L 675 184 L 675 168 L 911 168 C 925 168 934 163 937 152 C 906 122 855 82 855 82 L 812 139 L 59 139 L 68 168 L 132 168 L 132 866 C 121 872 110 880 104 887 L 179 938 L 205 899 L 912 899 C 926 899 935 894 938 883 C 905 851 850 807 850 807 Z" fill="red" /><path transform="translate(2000)" d="M 682 633 L 682 148 L 918 148 C 932 148 941 143 944 132 C 910 100 854 58 854 58 L 806 119 L 51 119 L 60 148 L 147 148 L 147 813 C 148 901 194 919 329 919 L 561 919 C 872 920 928 912 928 873 C 928 858 919 850 886 842 L 880 841 L 869 841 C 856 846 842 850 832 851 C 821 852 808 854 791 855 C 761 857 675 859 568 859 L 324 859 C 228 859 210 844 210 802 L 210 148 L 386 148 C 385 445 394 629 219 753 L 234 770 C 451 650 447 464 449 148 L 621 148 L 621 648 C 621 692 633 709 694 709 L 757 709 C 864 710 891 700 891 675 C 891 662 883 656 863 649 L 849 649 C 842 651 835 652 830 652 C 825 653 820 653 814 653 C 806 654 785 654 762 654 L 710 654 C 686 654 682 649 682 633 Z" fill="blue" fill-opacity="0.5" /><path transform="translate(2000)" d="M 850 807 L 802 870 L 197 870 L 197 168 L 393 168 C 392 441 398 611 214 726 L 228 743 C 457 632 455 458 458 168 L 612 168 L 612 604 C 612 652 626 669 695 669 L 750 669 C 879 669 908 656 908 629 C 908 616 903 608 882 600 L 879 453 L 866 453 C 855 513 843 579 837 595 C 832 605 829 607 820 608 C 809 609 784 609 751 609 L 708 609 C 679 609 675 604 675 588 L 675 184 L 675 168 L 911 168 C 925 168 934 163 937 152 C 906 122 855 82 855 82 L 812 139 L 59 139 L 68 168 L 132 168 L 132 866 C 121 872 110 880 104 887 L 179 938 L 205 899 L 912 899 C 926 899 935 894 938 883 C 905 851 850 807 850 807 Z" fill="red" fill-opacity="0.5" /><text text-anchor="middle" x="500" y="1064" font-family="Arial" font-size="64">Source Han Serif TW</text><text text-anchor="middle" x="1500" y="1064" font-family="Arial" font-size="64">HKSerif (uni5339HK-regular)</text></svg>