<svg width="3000" height="1080" xmlns="http://www.w3.org/2000/svg" style="background:#fff"><path d="M 209 266 L 209 238 L 790 238 L 790 276 L 802 276 C 827 276 856 262 856 256 L 856 113 C 880 109 890 100 892 86 L 790 76 L 790 208 L 529 208 L 529 79 C 553 75 563 65 565 51 L 464 41 L 464 208 L 209 208 L 209 113 C 234 109 243 100 246 86 L 144 76 L 144 286 L 156 286 C 181 286 209 272 209 266 Z M 350 694 L 350 577 L 463 577 L 463 694 L 350 694 Z M 517 577 L 635 577 L 635 694 L 517 694 L 517 577 Z M 617 765 L 605 773 C 623 790 643 812 661 835 L 519 843 L 519 724 L 635 724 L 635 761 L 644 761 C 664 761 694 748 695 742 L 695 583 C 709 581 722 574 727 567 L 659 515 L 627 548 L 520 548 L 520 460 C 574 455 625 450 668 444 C 688 454 706 456 714 448 L 654 385 C 564 410 398 440 267 454 L 271 474 C 332 473 397 470 460 465 L 460 548 L 355 548 L 292 519 L 292 775 L 300 775 C 324 775 350 762 350 756 L 350 724 L 461 724 L 461 846 C 355 851 266 856 214 857 L 258 935 C 267 933 276 927 281 915 C 455 890 582 871 674 854 C 692 880 705 908 709 934 C 774 982 824 843 617 765 Z M 954 888 L 967 751 L 955 750 C 948 782 937 815 927 845 C 922 857 918 859 909 850 C 844 784 827 540 832 371 C 853 369 867 362 872 355 L 794 289 L 756 331 L 230 331 L 156 298 L 156 482 C 156 635 142 807 34 948 L 47 960 C 205 823 218 621 218 481 L 218 360 L 766 360 C 768 587 785 826 877 918 C 906 950 946 970 967 948 C 978 936 973 918 954 888 Z" fill="blue" /><path transform="translate(1000)" d="M 520 461 L 709 461 C 721 461 730 456 733 445 C 707 418 664 382 664 382 L 626 432 L 257 432 L 265 461 L 461 461 L 461 820 L 520 820 L 520 461 Z M 209 266 L 209 238 L 790 238 L 790 276 L 802 276 C 827 276 856 262 856 256 L 856 113 C 880 109 890 100 892 86 L 790 76 L 790 208 L 529 208 L 529 79 C 553 75 563 65 565 51 L 464 41 L 464 208 L 209 208 L 209 113 C 234 109 243 100 246 86 L 144 76 L 144 286 L 156 286 C 181 286 209 272 209 266 Z M 350 694 L 350 577 L 463 577 L 463 694 L 350 694 Z M 517 577 L 635 577 L 635 694 L 517 694 L 517 577 Z M 617 765 L 605 773 C 623 790 643 812 661 835 L 520 843 L 520 724 L 635 724 L 635 761 L 644 761 C 664 761 694 748 695 742 L 695 583 C 709 581 722 574 727 567 L 659 515 L 627 548 L 520 548 L 461 548 L 355 548 L 292 519 L 292 775 L 300 775 C 324 775 350 762 350 756 L 350 724 L 461 724 L 461 846 C 355 851 266 856 214 857 L 258 935 C 267 933 276 927 281 915 C 455 890 582 871 674 854 C 692 880 705 908 709 934 C 774 982 824 843 617 765 Z M 954 888 L 967 751 L 955 750 C 948 782 937 815 927 845 C 922 857 918 859 909 850 C 844 784 827 540 832 371 C 853 369 867 362 872 355 L 794 289 L 756 331 L 230 331 L 156 298 L 156 482 C 156 635 142 807 34 948 L 47 960 C 205 823 218 621 218 481 L 218 360 L 766 360 C 768 587 785 826 877 918 C 906 950 946 970 967 948 C 978 936 973 918 954 888 Z" fill="red" /><path transform="translate(2000)" d="M 209 266 L 209 238 L 790 238 L 790 276 L 802 276 C 827 276 856 262 856 256 L 856 113 C 880 109 890 100 892 86 L 790 76 L 790 208 L 529 208 L 529 79 C 553 75 563 65 565 51 L 464 41 L 464 208 L 209 208 L 209 113 C 234 109 243 100 246 86 L 144 76 L 144 286 L 156 286 C 181 286 209 272 209 266 Z M 350 694 L 350 577 L 463 577 L 463 694 L 350 694 Z M 517 577 L 635 577 L 635 694 L 517 694 L 517 577 Z M 617 765 L 605 773 C 623 790 643 812 661 835 L 519 843 L 519 724 L 635 724 L 635 761 L 644 761 C 664 761 694 748 695 742 L 695 583 C 709 581 722 574 727 567 L 659 515 L 627 548 L 520 548 L 520 460 C 574 455 625 450 668 444 C 688 454 706 456 714 448 L 654 385 C 564 410 398 440 267 454 L 271 474 C 332 473 397 470 460 465 L 460 548 L 355 548 L 292 519 L 292 775 L 300 775 C 324 775 350 762 350 756 L 350 724 L 461 724 L 461 846 C 355 851 266 856 214 857 L 258 935 C 267 933 276 927 281 915 C 455 890 582 871 674 854 C 692 880 705 908 709 934 C 774 982 824 843 617 765 Z M 954 888 L 967 751 L 955 750 C 948 782 937 815 927 845 C 922 857 918 859 909 850 C 844 784 827 540 832 371 C 853 369 867 362 872 355 L 794 289 L 756 331 L 230 331 L 156 298 L 156 482 C 156 635 142 807 34 948 L 47 960 C 205 823 218 621 218 481 L 218 360 L 766 360 C 768 587 785 826 877 918 C 906 950 946 970 967 948 C 978 936 973 918 954 888 Z" fill="blue" fill-opacity="0.5" /><path transform="translate(2000)" d="M 520 461 L 709 461 C 721 461 730 456 733 445 C 707 418 664 382 664 382 L 626 432 L 257 432 L 265 461 L 461 461 L 461 820 L 520 820 L 520 461 Z M 209 266 L 209 238 L 790 238 L 790 276 L 802 276 C 827 276 856 262 856 256 L 856 113 C 880 109 890 100 892 86 L 790 76 L 790 208 L 529 208 L 529 79 C 553 75 563 65 565 51 L 464 41 L 464 208 L 209 208 L 209 113 C 234 109 243 100 246 86 L 144 76 L 144 286 L 156 286 C 181 286 209 272 209 266 Z M 350 694 L 350 577 L 463 577 L 463 694 L 350 694 Z M 517 577 L 635 577 L 635 694 L 517 694 L 517 577 Z M 617 765 L 605 773 C 623 790 643 812 661 835 L 520 843 L 520 724 L 635 724 L 635 761 L 644 761 C 664 761 694 748 695 742 L 695 583 C 709 581 722 574 727 567 L 659 515 L 627 548 L 520 548 L 461 548 L 355 548 L 292 519 L 292 775 L 300 775 C 324 775 350 762 350 756 L 350 724 L 461 724 L 461 846 C 355 851 266 856 214 857 L 258 935 C 267 933 276 927 281 915 C 455 890 582 871 674 854 C 692 880 705 908 709 934 C 774 982 824 843 617 765 Z M 954 888 L 967 751 L 955 750 C 948 782 937 815 927 845 C 922 857 918 859 909 850 C 844 784 827 540 832 371 C 853 369 867 362 872 355 L 794 289 L 756 331 L 230 331 L 156 298 L 156 482 C 156 635 142 807 34 948 L 47 960 C 205 823 218 621 218 481 L 218 360 L 766 360 C 768 587 785 826 877 918 C 906 950 946 970 967 948 C 978 936 973 918 954 888 Z" fill="red" fill-opacity="0.5" /><text text-anchor="middle" x="500" y="1064" font-family="Arial" font-size="64">Source Han Serif KR</text><text text-anchor="middle" x="1500" y="1064" font-family="Arial" font-size="64">HKSerif (uni5D50KX-regular)</text></svg>