<svg width="3000" height="1080" xmlns="http://www.w3.org/2000/svg" style="background:#fff"><path d="M 322 172 L 330 201 L 917 201 C 932 201 941 196 944 185 C 910 154 857 113 857 113 L 810 172 L 322 172 Z M 459 211 L 447 217 C 476 252 510 308 517 352 C 575 399 633 280 459 211 Z M 557 27 L 546 34 C 579 62 613 115 619 157 C 680 205 738 73 557 27 Z M 252 321 L 213 307 C 247 240 275 168 300 94 C 323 95 334 86 338 74 L 234 43 C 189 232 111 425 30 548 L 44 557 C 84 515 121 466 156 410 L 156 956 L 169 956 C 192 956 220 940 221 934 L 221 339 C 238 337 248 330 252 321 Z M 409 514 L 409 404 L 943 404 C 956 404 965 399 968 388 C 936 357 882 316 882 316 L 835 374 L 707 374 C 739 341 773 299 798 258 C 819 259 830 251 835 241 L 742 207 C 723 267 699 332 679 374 L 422 374 L 346 341 L 346 515 C 346 655 335 815 242 948 L 255 959 C 397 831 409 642 409 514 Z M 432 777 L 440 794 C 593 756 736 693 852 600 C 873 605 883 603 890 593 L 805 540 C 703 648 570 724 432 777 Z M 814 466 L 730 416 C 654 502 550 570 447 617 L 457 635 C 574 601 691 544 778 473 C 797 478 806 476 814 466 Z M 970 734 L 882 677 C 744 817 575 887 382 936 L 388 953 C 595 923 773 866 929 740 C 952 746 962 744 970 734 Z" fill="blue" /><path transform="translate(1000)" d="M 540 37 L 530 45 C 560 68 592 113 599 148 C 663 194 719 66 540 37 Z M 809 154 L 328 154 L 336 183 L 726 183 C 702 207 672 231 638 254 C 590 238 528 222 449 209 L 443 225 C 495 243 545 264 590 286 C 531 321 466 352 402 373 L 411 388 C 489 371 570 343 639 310 C 690 337 730 363 754 383 C 801 399 829 339 700 279 C 732 261 759 242 781 223 C 802 229 811 226 817 216 L 758 183 L 917 183 C 931 183 941 178 944 168 C 910 137 857 94 857 94 L 809 154 Z M 255 321 L 216 306 C 249 239 278 167 302 94 C 325 94 336 86 340 74 L 234 42 C 191 231 113 425 37 550 L 51 560 C 90 517 127 465 161 408 L 161 957 L 172 957 C 197 957 223 941 225 935 L 225 340 C 242 337 252 331 255 321 Z M 392 510 L 392 432 L 723 432 C 640 508 534 568 428 607 L 439 626 C 557 597 681 549 774 485 C 794 489 803 488 810 479 L 736 432 L 936 432 C 951 432 959 427 962 417 C 929 386 876 344 876 344 L 829 403 L 405 403 L 329 370 L 329 511 C 329 647 322 810 241 947 L 254 958 C 383 826 392 633 392 510 Z M 417 767 L 425 785 C 581 752 729 698 851 611 C 871 617 881 616 888 606 L 805 552 C 697 653 558 721 417 767 Z M 970 748 L 882 690 C 740 826 568 893 375 938 L 380 957 C 589 928 769 874 929 753 C 952 759 961 758 970 748 Z" fill="red" /><path transform="translate(2000)" d="M 322 172 L 330 201 L 917 201 C 932 201 941 196 944 185 C 910 154 857 113 857 113 L 810 172 L 322 172 Z M 459 211 L 447 217 C 476 252 510 308 517 352 C 575 399 633 280 459 211 Z M 557 27 L 546 34 C 579 62 613 115 619 157 C 680 205 738 73 557 27 Z M 252 321 L 213 307 C 247 240 275 168 300 94 C 323 95 334 86 338 74 L 234 43 C 189 232 111 425 30 548 L 44 557 C 84 515 121 466 156 410 L 156 956 L 169 956 C 192 956 220 940 221 934 L 221 339 C 238 337 248 330 252 321 Z M 409 514 L 409 404 L 943 404 C 956 404 965 399 968 388 C 936 357 882 316 882 316 L 835 374 L 707 374 C 739 341 773 299 798 258 C 819 259 830 251 835 241 L 742 207 C 723 267 699 332 679 374 L 422 374 L 346 341 L 346 515 C 346 655 335 815 242 948 L 255 959 C 397 831 409 642 409 514 Z M 432 777 L 440 794 C 593 756 736 693 852 600 C 873 605 883 603 890 593 L 805 540 C 703 648 570 724 432 777 Z M 814 466 L 730 416 C 654 502 550 570 447 617 L 457 635 C 574 601 691 544 778 473 C 797 478 806 476 814 466 Z M 970 734 L 882 677 C 744 817 575 887 382 936 L 388 953 C 595 923 773 866 929 740 C 952 746 962 744 970 734 Z" fill="blue" fill-opacity="0.5" /><path transform="translate(2000)" d="M 540 37 L 530 45 C 560 68 592 113 599 148 C 663 194 719 66 540 37 Z M 809 154 L 328 154 L 336 183 L 726 183 C 702 207 672 231 638 254 C 590 238 528 222 449 209 L 443 225 C 495 243 545 264 590 286 C 531 321 466 352 402 373 L 411 388 C 489 371 570 343 639 310 C 690 337 730 363 754 383 C 801 399 829 339 700 279 C 732 261 759 242 781 223 C 802 229 811 226 817 216 L 758 183 L 917 183 C 931 183 941 178 944 168 C 910 137 857 94 857 94 L 809 154 Z M 255 321 L 216 306 C 249 239 278 167 302 94 C 325 94 336 86 340 74 L 234 42 C 191 231 113 425 37 550 L 51 560 C 90 517 127 465 161 408 L 161 957 L 172 957 C 197 957 223 941 225 935 L 225 340 C 242 337 252 331 255 321 Z M 392 510 L 392 432 L 723 432 C 640 508 534 568 428 607 L 439 626 C 557 597 681 549 774 485 C 794 489 803 488 810 479 L 736 432 L 936 432 C 951 432 959 427 962 417 C 929 386 876 344 876 344 L 829 403 L 405 403 L 329 370 L 329 511 C 329 647 322 810 241 947 L 254 958 C 383 826 392 633 392 510 Z M 417 767 L 425 785 C 581 752 729 698 851 611 C 871 617 881 616 888 606 L 805 552 C 697 653 558 721 417 767 Z M 970 748 L 882 690 C 740 826 568 893 375 938 L 380 957 C 589 928 769 874 929 753 C 952 759 961 758 970 748 Z" fill="red" fill-opacity="0.5" /><text text-anchor="middle" x="500" y="1064" font-family="Arial" font-size="64">Source Han Serif TW</text><text text-anchor="middle" x="1500" y="1064" font-family="Arial" font-size="64">HKSerif (uni5050HK-regular)</text></svg>