<svg width="3000" height="1080" xmlns="http://www.w3.org/2000/svg" style="background:#fff"><path d="M 943 881 L 958 716 L 945 714 C 937 751 927 790 915 827 C 910 841 906 843 896 832 C 809 737 796 388 807 155 C 830 152 844 145 850 138 L 768 67 L 728 110 L 77 110 L 86 139 L 363 139 L 363 474 L 82 474 L 90 503 L 363 503 L 363 957 L 374 957 C 407 957 428 941 429 936 L 429 503 L 703 503 C 718 503 727 498 730 487 C 698 456 644 412 644 412 L 597 474 L 429 474 L 429 139 L 739 139 C 738 442 747 781 857 903 C 886 944 925 971 953 951 C 966 942 961 919 943 881 Z" fill="blue" /><path transform="translate(1000)" d="M 943 881 L 958 716 L 945 714 C 937 751 927 790 915 827 C 910 841 906 843 896 832 C 809 737 796 388 807 155 C 830 152 844 145 850 138 L 768 67 L 728 110 L 101 110 L 110 139 L 363 139 L 363 474 L 82 474 L 90 503 L 363 503 L 363 957 L 374 957 C 407 957 428 941 429 936 L 429 503 L 703 503 C 718 503 727 498 730 487 C 698 456 644 412 644 412 L 597 474 L 429 474 L 429 139 L 739 139 C 738 442 747 781 857 903 C 886 944 925 971 953 951 C 966 942 961 919 943 881 Z" fill="red" /><path transform="translate(2000)" d="M 943 881 L 958 716 L 945 714 C 937 751 927 790 915 827 C 910 841 906 843 896 832 C 809 737 796 388 807 155 C 830 152 844 145 850 138 L 768 67 L 728 110 L 77 110 L 86 139 L 363 139 L 363 474 L 82 474 L 90 503 L 363 503 L 363 957 L 374 957 C 407 957 428 941 429 936 L 429 503 L 703 503 C 718 503 727 498 730 487 C 698 456 644 412 644 412 L 597 474 L 429 474 L 429 139 L 739 139 C 738 442 747 781 857 903 C 886 944 925 971 953 951 C 966 942 961 919 943 881 Z" fill="blue" fill-opacity="0.5" /><path transform="translate(2000)" d="M 943 881 L 958 716 L 945 714 C 937 751 927 790 915 827 C 910 841 906 843 896 832 C 809 737 796 388 807 155 C 830 152 844 145 850 138 L 768 67 L 728 110 L 101 110 L 110 139 L 363 139 L 363 474 L 82 474 L 90 503 L 363 503 L 363 957 L 374 957 C 407 957 428 941 429 936 L 429 503 L 703 503 C 718 503 727 498 730 487 C 698 456 644 412 644 412 L 597 474 L 429 474 L 429 139 L 739 139 C 738 442 747 781 857 903 C 886 944 925 971 953 951 C 966 942 961 919 943 881 Z" fill="red" fill-opacity="0.5" /><text text-anchor="middle" x="500" y="1064" font-family="Arial" font-size="64">Source Han Serif TW</text><text text-anchor="middle" x="1500" y="1064" font-family="Arial" font-size="64">HKSerif (uni5342HK-regular)</text></svg>