<svg width="3000" height="1080" xmlns="http://www.w3.org/2000/svg" style="background:#fff"><path d="M 244 323 L 210 310 C 243 242 273 168 296 93 C 319 93 330 84 334 73 L 231 43 C 188 231 111 425 34 550 L 49 559 C 84 520 116 475 147 426 L 147 956 L 160 956 C 185 956 212 940 213 934 L 213 341 C 231 338 240 332 244 323 Z M 494 617 L 494 413 L 569 413 L 569 617 L 494 617 Z M 617 413 L 688 413 L 688 617 L 617 617 L 617 413 Z M 696 706 L 682 712 C 698 737 714 767 730 800 L 621 810 L 621 647 L 688 647 L 688 676 L 696 676 C 714 676 740 664 740 658 L 740 422 C 758 419 774 411 780 404 L 710 351 L 679 384 L 622 384 L 622 265 L 761 265 C 774 265 784 260 786 249 C 760 222 715 186 715 186 L 678 236 L 416 236 L 424 265 L 566 265 L 566 384 L 498 384 L 443 358 L 443 710 L 451 710 C 472 710 494 697 494 691 L 494 647 L 565 647 L 565 814 C 483 821 413 826 373 828 L 412 909 C 422 907 430 900 436 887 C 567 861 665 838 738 820 C 753 854 763 887 766 916 C 818 966 869 839 696 706 Z M 945 876 L 963 708 L 950 706 C 942 741 932 779 920 818 C 915 832 911 833 905 821 C 858 723 853 376 866 153 C 890 150 903 143 910 136 L 830 65 L 789 108 L 405 108 L 334 76 L 334 420 C 334 605 327 798 237 948 L 253 959 C 386 809 393 593 393 419 L 393 137 L 800 137 C 796 427 793 760 862 891 C 885 934 919 967 950 950 C 965 942 962 919 945 876 Z" fill="blue" /><path transform="translate(1000)" d="M 244 323 L 210 310 C 243 242 273 168 296 93 C 319 93 330 84 334 73 L 231 43 C 188 231 111 425 34 550 L 49 559 C 84 520 116 475 147 426 L 147 956 L 160 956 C 185 956 212 940 213 934 L 213 341 C 231 338 240 332 244 323 Z M 494 617 L 494 413 L 565 413 L 565 617 L 494 617 Z M 621 413 L 692 413 L 692 617 L 621 617 L 621 413 Z M 696 706 L 682 712 C 698 737 714 767 730 800 L 621 810 L 621 647 L 692 647 L 692 676 L 700 676 C 718 676 744 664 744 658 L 744 422 C 762 419 778 411 784 404 L 714 351 L 683 384 L 621 384 L 621 265 L 761 265 C 774 265 784 260 786 249 C 760 222 715 186 715 186 L 678 236 L 416 236 L 424 265 L 565 265 L 565 384 L 498 384 L 443 358 L 443 710 L 451 710 C 472 710 494 697 494 691 L 494 647 L 565 647 L 565 814 C 483 821 413 826 373 828 L 412 909 C 422 907 430 900 436 887 C 567 861 665 838 738 820 C 753 854 763 887 766 916 C 818 966 869 839 696 706 Z M 945 876 L 963 708 L 950 706 C 942 741 932 779 920 818 C 915 832 911 833 905 821 C 858 723 853 376 866 153 C 890 150 903 143 910 136 L 830 65 L 789 108 L 405 108 L 334 76 L 334 420 C 334 605 327 798 237 948 L 253 959 C 386 809 393 593 393 419 L 393 137 L 800 137 C 796 427 793 760 862 891 C 885 934 919 967 950 950 C 965 942 962 919 945 876 Z" fill="red" /><path transform="translate(2000)" d="M 244 323 L 210 310 C 243 242 273 168 296 93 C 319 93 330 84 334 73 L 231 43 C 188 231 111 425 34 550 L 49 559 C 84 520 116 475 147 426 L 147 956 L 160 956 C 185 956 212 940 213 934 L 213 341 C 231 338 240 332 244 323 Z M 494 617 L 494 413 L 569 413 L 569 617 L 494 617 Z M 617 413 L 688 413 L 688 617 L 617 617 L 617 413 Z M 696 706 L 682 712 C 698 737 714 767 730 800 L 621 810 L 621 647 L 688 647 L 688 676 L 696 676 C 714 676 740 664 740 658 L 740 422 C 758 419 774 411 780 404 L 710 351 L 679 384 L 622 384 L 622 265 L 761 265 C 774 265 784 260 786 249 C 760 222 715 186 715 186 L 678 236 L 416 236 L 424 265 L 566 265 L 566 384 L 498 384 L 443 358 L 443 710 L 451 710 C 472 710 494 697 494 691 L 494 647 L 565 647 L 565 814 C 483 821 413 826 373 828 L 412 909 C 422 907 430 900 436 887 C 567 861 665 838 738 820 C 753 854 763 887 766 916 C 818 966 869 839 696 706 Z M 945 876 L 963 708 L 950 706 C 942 741 932 779 920 818 C 915 832 911 833 905 821 C 858 723 853 376 866 153 C 890 150 903 143 910 136 L 830 65 L 789 108 L 405 108 L 334 76 L 334 420 C 334 605 327 798 237 948 L 253 959 C 386 809 393 593 393 419 L 393 137 L 800 137 C 796 427 793 760 862 891 C 885 934 919 967 950 950 C 965 942 962 919 945 876 Z" fill="blue" fill-opacity="0.5" /><path transform="translate(2000)" d="M 244 323 L 210 310 C 243 242 273 168 296 93 C 319 93 330 84 334 73 L 231 43 C 188 231 111 425 34 550 L 49 559 C 84 520 116 475 147 426 L 147 956 L 160 956 C 185 956 212 940 213 934 L 213 341 C 231 338 240 332 244 323 Z M 494 617 L 494 413 L 565 413 L 565 617 L 494 617 Z M 621 413 L 692 413 L 692 617 L 621 617 L 621 413 Z M 696 706 L 682 712 C 698 737 714 767 730 800 L 621 810 L 621 647 L 692 647 L 692 676 L 700 676 C 718 676 744 664 744 658 L 744 422 C 762 419 778 411 784 404 L 714 351 L 683 384 L 621 384 L 621 265 L 761 265 C 774 265 784 260 786 249 C 760 222 715 186 715 186 L 678 236 L 416 236 L 424 265 L 565 265 L 565 384 L 498 384 L 443 358 L 443 710 L 451 710 C 472 710 494 697 494 691 L 494 647 L 565 647 L 565 814 C 483 821 413 826 373 828 L 412 909 C 422 907 430 900 436 887 C 567 861 665 838 738 820 C 753 854 763 887 766 916 C 818 966 869 839 696 706 Z M 945 876 L 963 708 L 950 706 C 942 741 932 779 920 818 C 915 832 911 833 905 821 C 858 723 853 376 866 153 C 890 150 903 143 910 136 L 830 65 L 789 108 L 405 108 L 334 76 L 334 420 C 334 605 327 798 237 948 L 253 959 C 386 809 393 593 393 419 L 393 137 L 800 137 C 796 427 793 760 862 891 C 885 934 919 967 950 950 C 965 942 962 919 945 876 Z" fill="red" fill-opacity="0.5" /><text text-anchor="middle" x="500" y="1064" font-family="Arial" font-size="64">Source Han Serif TW</text><text text-anchor="middle" x="1500" y="1064" font-family="Arial" font-size="64">HKSerif (uni5051HK-regular)</text></svg>