<svg width="3000" height="1080" xmlns="http://www.w3.org/2000/svg" style="background:#fff"><path d="M 407 184 L 854 184 C 846 211 836 245 830 266 C 791 245 734 227 652 218 L 644 231 C 716 257 816 313 858 357 C 901 367 913 317 843 274 C 870 253 913 218 936 197 C 955 196 966 195 974 187 L 895 111 L 851 155 L 659 155 C 696 137 690 57 547 39 L 537 46 C 567 71 606 117 620 152 C 622 153 624 154 626 155 L 405 155 C 404 141 401 127 397 110 L 382 109 C 375 170 347 214 313 235 C 256 311 412 349 407 184 Z M 308 354 L 318 368 C 392 341 485 296 538 266 C 563 269 577 264 583 254 L 512 202 C 474 238 368 320 308 354 Z M 343 73 L 239 43 C 195 232 117 425 36 547 L 50 556 C 89 516 126 467 160 413 L 160 955 L 173 955 C 196 955 224 939 225 934 L 225 339 C 242 337 252 330 256 321 L 219 307 C 252 241 281 169 306 94 C 328 94 340 86 343 73 Z M 757 499 L 757 590 L 519 590 C 532 561 543 530 551 499 L 757 499 Z M 578 379 L 757 379 L 757 470 L 559 470 C 567 441 573 410 578 379 Z M 496 725 L 799 725 L 799 880 L 496 880 L 496 725 Z M 898 419 L 858 470 L 818 470 L 818 387 C 834 384 848 376 854 370 L 781 315 L 748 350 L 370 350 L 379 379 L 506 379 C 503 410 498 441 492 470 L 289 470 L 297 499 L 485 499 C 477 530 468 561 458 590 L 351 590 L 360 619 L 446 619 C 406 709 349 789 266 857 L 276 871 C 340 831 393 784 435 732 L 435 958 L 445 958 C 476 958 496 942 496 937 L 496 909 L 799 909 L 799 951 L 809 951 C 829 951 859 938 860 932 L 860 734 C 877 731 893 723 898 716 L 824 659 L 790 695 L 510 695 L 473 679 C 485 660 497 640 507 619 L 757 619 L 757 658 L 766 658 C 786 658 817 644 818 638 L 818 499 L 945 499 C 958 499 968 494 971 483 C 943 455 898 419 898 419 Z" fill="blue" /><path transform="translate(1000)" d="M 614 156 L 647 156 C 684 138 678 58 535 40 L 525 47 C 555 72 594 118 608 153 C 610 154 612 155 614 156 Z M 758 303 L 753 357 C 898 357 923 346 923 320 C 923 308 916 302 894 297 L 890 296 L 881 296 C 875 298 866 300 860 301 C 855 301 848 302 840 302 C 828 303 795 303 758 303 Z M 391 185 L 496 185 C 490 261 465 329 310 383 L 323 399 C 513 349 548 273 559 185 L 655 185 L 655 304 C 655 343 664 357 723 357 L 753 357 L 758 303 L 737 303 C 715 303 713 301 713 290 L 713 193 L 713 185 L 856 185 C 844 212 829 244 817 264 L 831 271 C 861 252 906 219 931 196 C 949 195 961 193 968 186 L 901 115 L 861 156 L 390 156 C 389 143 387 129 383 116 L 365 116 C 365 157 338 204 310 221 C 291 233 280 253 288 273 C 299 294 333 292 353 277 C 372 261 389 228 391 185 Z M 318 74 L 217 42 C 176 226 100 413 25 534 L 39 544 C 78 500 115 449 149 390 L 149 957 L 160 957 C 183 957 210 941 211 936 L 211 341 C 228 339 238 332 241 323 L 194 305 C 227 239 256 167 280 94 C 302 95 314 85 318 74 Z M 757 539 L 757 613 L 512 613 C 525 590 536 565 545 539 L 757 539 Z M 576 434 L 757 434 L 757 509 L 556 509 C 564 485 570 460 576 434 Z M 499 748 L 799 748 L 799 880 L 499 880 L 499 748 Z M 894 461 L 857 509 L 818 509 L 818 442 C 834 439 849 432 854 425 L 781 369 L 748 405 L 346 405 L 355 434 L 506 434 C 501 460 496 484 489 509 L 265 509 L 273 539 L 480 539 C 471 564 462 590 450 613 L 328 613 L 337 642 L 435 642 C 393 718 332 783 249 839 L 258 852 C 331 816 391 771 438 718 L 438 958 L 448 958 C 479 958 499 942 499 937 L 499 909 L 799 909 L 799 952 L 809 952 C 829 952 859 939 860 933 L 860 758 C 878 754 893 746 899 739 L 824 683 L 790 719 L 511 719 L 457 695 C 471 679 483 661 495 642 L 757 642 L 757 664 L 766 664 C 786 664 817 650 818 644 L 818 539 L 939 539 C 952 539 962 534 965 523 C 938 496 894 461 894 461 Z" fill="red" /><path transform="translate(2000)" d="M 407 184 L 854 184 C 846 211 836 245 830 266 C 791 245 734 227 652 218 L 644 231 C 716 257 816 313 858 357 C 901 367 913 317 843 274 C 870 253 913 218 936 197 C 955 196 966 195 974 187 L 895 111 L 851 155 L 659 155 C 696 137 690 57 547 39 L 537 46 C 567 71 606 117 620 152 C 622 153 624 154 626 155 L 405 155 C 404 141 401 127 397 110 L 382 109 C 375 170 347 214 313 235 C 256 311 412 349 407 184 Z M 308 354 L 318 368 C 392 341 485 296 538 266 C 563 269 577 264 583 254 L 512 202 C 474 238 368 320 308 354 Z M 343 73 L 239 43 C 195 232 117 425 36 547 L 50 556 C 89 516 126 467 160 413 L 160 955 L 173 955 C 196 955 224 939 225 934 L 225 339 C 242 337 252 330 256 321 L 219 307 C 252 241 281 169 306 94 C 328 94 340 86 343 73 Z M 757 499 L 757 590 L 519 590 C 532 561 543 530 551 499 L 757 499 Z M 578 379 L 757 379 L 757 470 L 559 470 C 567 441 573 410 578 379 Z M 496 725 L 799 725 L 799 880 L 496 880 L 496 725 Z M 898 419 L 858 470 L 818 470 L 818 387 C 834 384 848 376 854 370 L 781 315 L 748 350 L 370 350 L 379 379 L 506 379 C 503 410 498 441 492 470 L 289 470 L 297 499 L 485 499 C 477 530 468 561 458 590 L 351 590 L 360 619 L 446 619 C 406 709 349 789 266 857 L 276 871 C 340 831 393 784 435 732 L 435 958 L 445 958 C 476 958 496 942 496 937 L 496 909 L 799 909 L 799 951 L 809 951 C 829 951 859 938 860 932 L 860 734 C 877 731 893 723 898 716 L 824 659 L 790 695 L 510 695 L 473 679 C 485 660 497 640 507 619 L 757 619 L 757 658 L 766 658 C 786 658 817 644 818 638 L 818 499 L 945 499 C 958 499 968 494 971 483 C 943 455 898 419 898 419 Z" fill="blue" fill-opacity="0.5" /><path transform="translate(2000)" d="M 614 156 L 647 156 C 684 138 678 58 535 40 L 525 47 C 555 72 594 118 608 153 C 610 154 612 155 614 156 Z M 758 303 L 753 357 C 898 357 923 346 923 320 C 923 308 916 302 894 297 L 890 296 L 881 296 C 875 298 866 300 860 301 C 855 301 848 302 840 302 C 828 303 795 303 758 303 Z M 391 185 L 496 185 C 490 261 465 329 310 383 L 323 399 C 513 349 548 273 559 185 L 655 185 L 655 304 C 655 343 664 357 723 357 L 753 357 L 758 303 L 737 303 C 715 303 713 301 713 290 L 713 193 L 713 185 L 856 185 C 844 212 829 244 817 264 L 831 271 C 861 252 906 219 931 196 C 949 195 961 193 968 186 L 901 115 L 861 156 L 390 156 C 389 143 387 129 383 116 L 365 116 C 365 157 338 204 310 221 C 291 233 280 253 288 273 C 299 294 333 292 353 277 C 372 261 389 228 391 185 Z M 318 74 L 217 42 C 176 226 100 413 25 534 L 39 544 C 78 500 115 449 149 390 L 149 957 L 160 957 C 183 957 210 941 211 936 L 211 341 C 228 339 238 332 241 323 L 194 305 C 227 239 256 167 280 94 C 302 95 314 85 318 74 Z M 757 539 L 757 613 L 512 613 C 525 590 536 565 545 539 L 757 539 Z M 576 434 L 757 434 L 757 509 L 556 509 C 564 485 570 460 576 434 Z M 499 748 L 799 748 L 799 880 L 499 880 L 499 748 Z M 894 461 L 857 509 L 818 509 L 818 442 C 834 439 849 432 854 425 L 781 369 L 748 405 L 346 405 L 355 434 L 506 434 C 501 460 496 484 489 509 L 265 509 L 273 539 L 480 539 C 471 564 462 590 450 613 L 328 613 L 337 642 L 435 642 C 393 718 332 783 249 839 L 258 852 C 331 816 391 771 438 718 L 438 958 L 448 958 C 479 958 499 942 499 937 L 499 909 L 799 909 L 799 952 L 809 952 C 829 952 859 939 860 933 L 860 758 C 878 754 893 746 899 739 L 824 683 L 790 719 L 511 719 L 457 695 C 471 679 483 661 495 642 L 757 642 L 757 664 L 766 664 C 786 664 817 650 818 644 L 818 539 L 939 539 C 952 539 962 534 965 523 C 938 496 894 461 894 461 Z" fill="red" fill-opacity="0.5" /><text text-anchor="middle" x="500" y="1064" font-family="Arial" font-size="64">Source Han Serif TW</text><text text-anchor="middle" x="1500" y="1064" font-family="Arial" font-size="64">HKSerif (uni50D2HK-regular)</text></svg>