<svg width="3000" height="1080" xmlns="http://www.w3.org/2000/svg" style="background:#fff"><path d="M 123 53 L 114 63 C 159 91 214 146 232 191 C 306 233 345 86 123 53 Z M 51 279 L 41 288 C 84 314 132 361 148 404 C 220 443 259 300 51 279 Z M 325 252 L 308 248 C 143 622 143 622 125 656 C 115 677 111 677 99 677 L 56 677 L 56 699 C 77 701 91 703 104 713 C 126 728 132 807 118 908 C 120 940 132 958 151 958 C 184 958 204 932 206 889 C 209 807 181 761 180 716 C 180 692 186 662 195 632 C 208 587 286 368 325 252 Z M 505 617 L 505 413 L 582 413 L 582 617 L 505 617 Z M 629 413 L 705 413 L 705 617 L 629 617 L 629 413 Z M 710 706 L 697 711 C 712 737 728 769 740 803 C 704 807 668 811 633 815 L 633 647 L 705 647 L 705 676 L 713 676 C 730 676 755 663 756 657 L 756 421 C 774 418 790 410 796 403 L 727 350 L 696 383 L 633 383 L 633 265 L 766 265 C 779 265 788 260 791 249 C 764 222 720 186 720 186 L 682 236 L 434 236 L 442 265 L 578 265 L 578 383 L 510 383 L 455 357 L 455 709 L 463 709 C 484 709 505 696 505 692 L 505 647 L 578 647 L 578 821 C 494 829 424 835 384 837 L 423 918 C 433 915 441 909 447 896 C 576 866 674 844 748 824 C 758 854 765 882 766 908 C 816 957 868 835 710 706 Z M 955 882 L 973 714 L 960 712 C 952 746 942 784 929 823 C 925 837 921 838 914 826 C 863 729 857 383 869 160 C 893 157 907 149 913 142 L 834 72 L 794 115 L 418 115 L 347 83 L 347 379 C 347 577 333 784 222 951 L 237 961 C 393 794 406 560 406 379 L 406 144 L 804 144 C 801 433 799 766 872 896 C 894 939 930 971 961 954 C 975 945 972 922 955 882 Z" fill="blue" /><path transform="translate(1000)" d="M 608 265 L 742 265 C 754 265 763 260 766 249 C 740 222 697 186 697 186 L 659 236 L 408 236 L 416 265 L 551 265 L 551 820 L 608 820 L 608 265 Z M 95 52 L 85 61 C 127 91 177 142 193 185 C 264 226 305 87 95 52 Z M 47 288 L 38 297 C 77 323 121 369 132 411 C 203 452 246 313 47 288 Z M 304 237 L 286 232 C 132 620 132 620 117 654 C 108 674 104 674 93 674 L 50 674 L 50 696 C 71 698 85 701 98 711 C 120 725 125 804 112 905 C 113 936 124 954 141 954 C 173 954 192 929 194 887 C 197 806 170 758 170 715 C 170 689 176 660 183 629 C 196 583 267 357 304 237 Z M 482 610 L 482 405 L 556 405 L 556 610 L 482 610 Z M 603 405 L 679 405 L 679 610 L 603 610 L 603 405 Z M 667 706 L 655 712 C 670 735 687 765 700 797 L 608 806 L 608 639 L 679 639 L 679 681 L 687 681 C 704 681 730 668 731 662 L 731 414 C 749 410 764 402 771 395 L 701 341 L 670 375 L 608 375 L 551 375 L 487 375 L 430 348 L 430 701 L 438 701 C 459 701 482 688 482 683 L 482 639 L 551 639 L 551 812 C 468 820 398 826 358 828 L 397 908 C 407 905 416 899 421 886 C 546 857 640 835 708 816 C 721 848 730 880 732 908 C 791 961 849 829 667 706 Z M 951 877 L 967 710 L 955 708 C 948 742 938 780 925 820 C 920 834 915 834 909 823 C 850 725 842 378 853 152 C 875 149 890 141 897 134 L 816 64 L 777 107 L 386 107 L 317 76 L 317 419 C 317 605 307 796 212 945 L 227 955 C 367 807 376 593 376 418 L 376 136 L 787 136 C 784 428 788 761 868 892 C 891 935 927 967 957 949 C 971 941 968 917 951 877 Z" fill="red" /><path transform="translate(2000)" d="M 123 53 L 114 63 C 159 91 214 146 232 191 C 306 233 345 86 123 53 Z M 51 279 L 41 288 C 84 314 132 361 148 404 C 220 443 259 300 51 279 Z M 325 252 L 308 248 C 143 622 143 622 125 656 C 115 677 111 677 99 677 L 56 677 L 56 699 C 77 701 91 703 104 713 C 126 728 132 807 118 908 C 120 940 132 958 151 958 C 184 958 204 932 206 889 C 209 807 181 761 180 716 C 180 692 186 662 195 632 C 208 587 286 368 325 252 Z M 505 617 L 505 413 L 582 413 L 582 617 L 505 617 Z M 629 413 L 705 413 L 705 617 L 629 617 L 629 413 Z M 710 706 L 697 711 C 712 737 728 769 740 803 C 704 807 668 811 633 815 L 633 647 L 705 647 L 705 676 L 713 676 C 730 676 755 663 756 657 L 756 421 C 774 418 790 410 796 403 L 727 350 L 696 383 L 633 383 L 633 265 L 766 265 C 779 265 788 260 791 249 C 764 222 720 186 720 186 L 682 236 L 434 236 L 442 265 L 578 265 L 578 383 L 510 383 L 455 357 L 455 709 L 463 709 C 484 709 505 696 505 692 L 505 647 L 578 647 L 578 821 C 494 829 424 835 384 837 L 423 918 C 433 915 441 909 447 896 C 576 866 674 844 748 824 C 758 854 765 882 766 908 C 816 957 868 835 710 706 Z M 955 882 L 973 714 L 960 712 C 952 746 942 784 929 823 C 925 837 921 838 914 826 C 863 729 857 383 869 160 C 893 157 907 149 913 142 L 834 72 L 794 115 L 418 115 L 347 83 L 347 379 C 347 577 333 784 222 951 L 237 961 C 393 794 406 560 406 379 L 406 144 L 804 144 C 801 433 799 766 872 896 C 894 939 930 971 961 954 C 975 945 972 922 955 882 Z" fill="blue" fill-opacity="0.5" /><path transform="translate(2000)" d="M 608 265 L 742 265 C 754 265 763 260 766 249 C 740 222 697 186 697 186 L 659 236 L 408 236 L 416 265 L 551 265 L 551 820 L 608 820 L 608 265 Z M 95 52 L 85 61 C 127 91 177 142 193 185 C 264 226 305 87 95 52 Z M 47 288 L 38 297 C 77 323 121 369 132 411 C 203 452 246 313 47 288 Z M 304 237 L 286 232 C 132 620 132 620 117 654 C 108 674 104 674 93 674 L 50 674 L 50 696 C 71 698 85 701 98 711 C 120 725 125 804 112 905 C 113 936 124 954 141 954 C 173 954 192 929 194 887 C 197 806 170 758 170 715 C 170 689 176 660 183 629 C 196 583 267 357 304 237 Z M 482 610 L 482 405 L 556 405 L 556 610 L 482 610 Z M 603 405 L 679 405 L 679 610 L 603 610 L 603 405 Z M 667 706 L 655 712 C 670 735 687 765 700 797 L 608 806 L 608 639 L 679 639 L 679 681 L 687 681 C 704 681 730 668 731 662 L 731 414 C 749 410 764 402 771 395 L 701 341 L 670 375 L 608 375 L 551 375 L 487 375 L 430 348 L 430 701 L 438 701 C 459 701 482 688 482 683 L 482 639 L 551 639 L 551 812 C 468 820 398 826 358 828 L 397 908 C 407 905 416 899 421 886 C 546 857 640 835 708 816 C 721 848 730 880 732 908 C 791 961 849 829 667 706 Z M 951 877 L 967 710 L 955 708 C 948 742 938 780 925 820 C 920 834 915 834 909 823 C 850 725 842 378 853 152 C 875 149 890 141 897 134 L 816 64 L 777 107 L 386 107 L 317 76 L 317 419 C 317 605 307 796 212 945 L 227 955 C 367 807 376 593 376 418 L 376 136 L 787 136 C 784 428 788 761 868 892 C 891 935 927 967 957 949 C 971 941 968 917 951 877 Z" fill="red" fill-opacity="0.5" /><text text-anchor="middle" x="500" y="1064" font-family="Arial" font-size="64">Source Han Serif TW</text><text text-anchor="middle" x="1500" y="1064" font-family="Arial" font-size="64">HKSerif (uni6E22HK-regular)</text></svg>