<svg width="3000" height="1080" xmlns="http://www.w3.org/2000/svg" style="background:#fff"><path d="M 235 391 L 235 308 L 350 308 C 364 308 373 303 376 292 C 347 263 300 222 300 222 L 258 278 L 235 278 L 235 78 C 260 74 268 64 271 50 L 174 38 L 174 278 L 44 278 L 52 308 L 159 308 C 138 452 97 597 31 711 L 46 725 C 101 656 143 577 174 492 L 174 956 L 187 956 C 208 956 235 940 235 931 L 235 415 C 263 454 294 507 303 548 C 360 592 412 479 235 391 Z M 530 617 L 530 413 L 600 413 L 600 617 L 530 617 Z M 647 413 L 711 413 L 711 617 L 647 617 L 647 413 Z M 718 706 L 704 711 C 718 736 733 766 745 798 L 651 808 L 651 647 L 711 647 L 711 676 L 719 676 C 736 676 761 663 762 657 L 762 421 C 780 418 795 410 800 403 L 732 350 L 702 383 L 651 383 L 651 265 L 780 265 C 793 265 802 260 805 249 C 778 222 736 186 736 186 L 697 236 L 458 236 L 466 265 L 596 265 L 596 383 L 535 383 L 480 357 L 480 709 L 488 709 C 509 709 530 696 530 692 L 530 647 L 596 647 L 596 814 C 525 821 465 826 429 828 L 469 908 C 480 905 488 899 494 887 C 604 860 689 837 752 819 C 763 850 770 881 771 908 C 822 957 873 835 718 706 Z M 955 882 L 973 714 L 960 712 C 952 746 942 784 930 824 C 925 838 921 838 915 826 C 867 729 862 383 875 160 C 898 157 911 149 918 143 L 839 72 L 799 115 L 450 115 L 380 83 L 380 430 C 380 617 371 807 275 957 L 292 967 C 430 819 438 604 438 429 L 438 144 L 810 144 C 806 434 804 765 874 895 C 896 939 930 971 961 954 C 975 946 972 923 955 882 Z" fill="blue" /><path transform="translate(1000)" d="M 644 265 L 765 265 C 777 265 786 260 789 249 C 763 222 720 186 720 186 L 682 236 L 459 236 L 467 265 L 589 265 L 589 820 L 644 820 L 644 265 Z M 237 402 L 237 306 L 350 306 C 364 306 374 301 376 290 C 348 261 300 221 300 221 L 260 276 L 237 276 L 237 83 C 263 79 271 70 273 55 L 175 44 L 175 276 L 47 276 L 54 306 L 160 306 C 138 451 98 596 31 711 L 46 724 C 101 655 144 578 175 495 L 175 957 L 189 957 C 212 957 237 943 237 934 L 237 425 C 265 465 295 519 302 562 C 360 608 413 492 237 402 Z M 532 615 L 532 400 L 593 400 L 593 615 L 532 615 Z M 640 400 L 702 400 L 702 615 L 640 615 L 640 400 Z M 696 702 L 683 708 C 698 733 714 766 728 799 L 643 810 L 643 645 L 702 645 L 702 667 L 708 667 C 726 667 752 654 753 648 L 753 408 C 770 404 786 397 791 390 L 724 338 L 694 370 L 643 370 L 589 370 L 537 370 L 482 344 L 482 697 L 490 697 C 511 697 532 685 532 680 L 532 645 L 589 645 L 589 816 C 516 825 454 832 418 834 L 459 913 C 468 910 477 904 482 891 C 592 862 674 839 735 820 C 747 852 756 886 757 915 C 816 971 875 833 696 702 Z M 956 883 L 974 715 L 962 712 C 954 747 945 784 932 825 C 927 838 924 839 917 827 C 864 730 859 379 871 152 C 894 149 908 142 915 135 L 834 64 L 794 107 L 450 107 L 379 75 L 379 420 C 379 607 371 798 277 948 L 293 959 C 430 810 438 594 438 419 L 438 136 L 804 136 C 801 430 800 766 874 897 C 897 941 932 974 962 956 C 977 948 973 925 956 883 Z" fill="red" /><path transform="translate(2000)" d="M 235 391 L 235 308 L 350 308 C 364 308 373 303 376 292 C 347 263 300 222 300 222 L 258 278 L 235 278 L 235 78 C 260 74 268 64 271 50 L 174 38 L 174 278 L 44 278 L 52 308 L 159 308 C 138 452 97 597 31 711 L 46 725 C 101 656 143 577 174 492 L 174 956 L 187 956 C 208 956 235 940 235 931 L 235 415 C 263 454 294 507 303 548 C 360 592 412 479 235 391 Z M 530 617 L 530 413 L 600 413 L 600 617 L 530 617 Z M 647 413 L 711 413 L 711 617 L 647 617 L 647 413 Z M 718 706 L 704 711 C 718 736 733 766 745 798 L 651 808 L 651 647 L 711 647 L 711 676 L 719 676 C 736 676 761 663 762 657 L 762 421 C 780 418 795 410 800 403 L 732 350 L 702 383 L 651 383 L 651 265 L 780 265 C 793 265 802 260 805 249 C 778 222 736 186 736 186 L 697 236 L 458 236 L 466 265 L 596 265 L 596 383 L 535 383 L 480 357 L 480 709 L 488 709 C 509 709 530 696 530 692 L 530 647 L 596 647 L 596 814 C 525 821 465 826 429 828 L 469 908 C 480 905 488 899 494 887 C 604 860 689 837 752 819 C 763 850 770 881 771 908 C 822 957 873 835 718 706 Z M 955 882 L 973 714 L 960 712 C 952 746 942 784 930 824 C 925 838 921 838 915 826 C 867 729 862 383 875 160 C 898 157 911 149 918 143 L 839 72 L 799 115 L 450 115 L 380 83 L 380 430 C 380 617 371 807 275 957 L 292 967 C 430 819 438 604 438 429 L 438 144 L 810 144 C 806 434 804 765 874 895 C 896 939 930 971 961 954 C 975 946 972 923 955 882 Z" fill="blue" fill-opacity="0.5" /><path transform="translate(2000)" d="M 644 265 L 765 265 C 777 265 786 260 789 249 C 763 222 720 186 720 186 L 682 236 L 459 236 L 467 265 L 589 265 L 589 820 L 644 820 L 644 265 Z M 237 402 L 237 306 L 350 306 C 364 306 374 301 376 290 C 348 261 300 221 300 221 L 260 276 L 237 276 L 237 83 C 263 79 271 70 273 55 L 175 44 L 175 276 L 47 276 L 54 306 L 160 306 C 138 451 98 596 31 711 L 46 724 C 101 655 144 578 175 495 L 175 957 L 189 957 C 212 957 237 943 237 934 L 237 425 C 265 465 295 519 302 562 C 360 608 413 492 237 402 Z M 532 615 L 532 400 L 593 400 L 593 615 L 532 615 Z M 640 400 L 702 400 L 702 615 L 640 615 L 640 400 Z M 696 702 L 683 708 C 698 733 714 766 728 799 L 643 810 L 643 645 L 702 645 L 702 667 L 708 667 C 726 667 752 654 753 648 L 753 408 C 770 404 786 397 791 390 L 724 338 L 694 370 L 643 370 L 589 370 L 537 370 L 482 344 L 482 697 L 490 697 C 511 697 532 685 532 680 L 532 645 L 589 645 L 589 816 C 516 825 454 832 418 834 L 459 913 C 468 910 477 904 482 891 C 592 862 674 839 735 820 C 747 852 756 886 757 915 C 816 971 875 833 696 702 Z M 956 883 L 974 715 L 962 712 C 954 747 945 784 932 825 C 927 838 924 839 917 827 C 864 730 859 379 871 152 C 894 149 908 142 915 135 L 834 64 L 794 107 L 450 107 L 379 75 L 379 420 C 379 607 371 798 277 948 L 293 959 C 430 810 438 594 438 419 L 438 136 L 804 136 C 801 430 800 766 874 897 C 897 941 932 974 962 956 C 977 948 973 925 956 883 Z" fill="red" fill-opacity="0.5" /><text text-anchor="middle" x="500" y="1064" font-family="Arial" font-size="64">Source Han Serif TW</text><text text-anchor="middle" x="1500" y="1064" font-family="Arial" font-size="64">HKSerif (uni6953HK-regular)</text></svg>