<svg width="3000" height="1080" xmlns="http://www.w3.org/2000/svg" style="background:#fff"><path d="M 294 553 L 156 553 C 159 500 159 448 159 400 L 159 350 L 294 350 L 294 553 Z M 159 129 L 294 129 L 294 321 L 159 321 L 159 129 Z M 391 119 L 315 62 L 285 99 L 171 99 L 102 68 L 102 401 C 102 588 98 789 22 950 L 39 959 C 118 852 145 714 154 583 L 294 583 L 294 861 C 294 876 289 882 271 882 C 252 882 163 875 163 875 L 163 891 C 203 896 225 904 240 913 C 252 921 256 936 259 954 C 342 945 351 916 351 867 L 351 138 C 369 134 385 127 391 119 Z M 699 284 L 699 416 C 699 454 708 467 764 467 L 826 467 C 928 467 952 460 952 436 C 952 424 944 418 924 414 L 921 413 L 912 413 C 907 415 899 416 895 416 C 891 417 885 417 880 417 C 873 418 853 418 832 418 L 778 418 C 758 418 756 414 756 404 L 756 290 L 756 276 C 791 271 822 265 850 260 C 865 282 877 302 883 320 C 952 363 992 228 758 130 L 746 138 C 774 165 808 203 836 240 C 692 249 553 256 464 258 C 541 210 624 140 672 87 C 694 90 707 80 711 71 L 615 32 C 579 91 488 204 416 248 C 409 252 393 255 393 255 L 421 335 C 428 333 436 328 442 319 C 472 315 499 312 527 308 C 508 397 459 452 351 497 L 356 512 C 493 477 570 418 595 299 C 632 294 666 289 699 284 Z M 566 569 L 772 569 C 740 642 703 703 657 754 C 607 717 565 673 530 622 C 543 606 555 588 566 569 Z M 892 565 L 815 501 L 778 539 L 583 539 C 593 521 602 503 611 486 C 632 489 645 481 650 470 L 561 435 C 544 483 524 529 500 573 C 488 549 477 523 468 497 L 450 507 C 460 541 472 572 485 602 C 448 666 407 722 366 764 L 380 775 C 425 743 470 700 509 650 C 540 703 576 751 620 791 C 550 855 463 903 354 942 L 363 959 C 488 927 583 884 659 825 C 728 879 811 921 907 950 C 916 922 938 904 964 901 L 966 890 C 869 868 780 834 704 787 C 763 731 809 662 849 578 C 871 577 884 573 892 565 Z" fill="blue" /><path transform="translate(1000)" d="M 707 270 L 707 447 C 707 486 718 500 778 500 L 821 500 C 933 500 956 492 956 464 C 956 450 948 444 929 439 L 926 438 L 917 438 C 912 440 904 442 898 442 C 895 443 889 443 883 443 C 873 444 852 444 826 444 L 793 444 C 770 444 767 440 767 435 L 767 291 L 767 270 L 707 270 Z M 751 130 L 739 139 C 767 165 801 203 829 240 C 691 247 558 252 471 253 C 543 207 620 142 666 91 C 688 95 700 86 705 76 L 610 35 C 576 92 489 204 420 247 C 413 251 396 254 396 254 L 442 337 C 448 334 453 327 458 318 C 612 299 749 277 844 261 C 859 283 872 304 880 323 C 949 367 991 227 751 130 Z M 623 284 L 542 297 C 525 394 475 489 378 535 L 384 551 C 510 516 591 420 623 284 Z M 287 554 L 161 554 C 162 513 162 472 162 435 L 162 351 L 287 351 L 287 554 Z M 162 129 L 287 129 L 287 322 L 162 322 L 162 129 Z M 348 848 L 348 139 C 366 135 382 128 388 120 L 309 60 L 277 99 L 175 99 L 102 68 L 102 436 C 102 612 103 803 39 950 L 56 959 C 132 854 153 715 160 584 L 287 584 L 287 840 C 287 855 283 860 266 860 C 249 860 168 853 168 853 L 168 870 C 205 875 226 883 238 894 C 249 903 254 921 256 941 C 339 932 348 901 348 848 Z M 589 604 L 775 604 C 751 659 718 709 676 753 C 634 717 599 676 570 629 C 577 621 583 612 589 604 Z M 892 599 L 821 534 L 777 575 L 609 575 C 622 556 633 536 643 517 C 669 518 677 514 680 504 L 579 481 C 543 584 469 703 389 770 L 401 781 C 457 748 510 700 555 648 C 580 698 609 744 644 784 C 569 852 470 905 350 941 L 358 957 C 491 928 596 882 679 820 C 740 876 818 921 923 953 C 929 920 949 903 975 895 L 977 884 C 872 863 788 830 721 786 C 776 736 819 678 852 612 C 874 611 884 608 892 599 Z" fill="red" /><path transform="translate(2000)" d="M 294 553 L 156 553 C 159 500 159 448 159 400 L 159 350 L 294 350 L 294 553 Z M 159 129 L 294 129 L 294 321 L 159 321 L 159 129 Z M 391 119 L 315 62 L 285 99 L 171 99 L 102 68 L 102 401 C 102 588 98 789 22 950 L 39 959 C 118 852 145 714 154 583 L 294 583 L 294 861 C 294 876 289 882 271 882 C 252 882 163 875 163 875 L 163 891 C 203 896 225 904 240 913 C 252 921 256 936 259 954 C 342 945 351 916 351 867 L 351 138 C 369 134 385 127 391 119 Z M 699 284 L 699 416 C 699 454 708 467 764 467 L 826 467 C 928 467 952 460 952 436 C 952 424 944 418 924 414 L 921 413 L 912 413 C 907 415 899 416 895 416 C 891 417 885 417 880 417 C 873 418 853 418 832 418 L 778 418 C 758 418 756 414 756 404 L 756 290 L 756 276 C 791 271 822 265 850 260 C 865 282 877 302 883 320 C 952 363 992 228 758 130 L 746 138 C 774 165 808 203 836 240 C 692 249 553 256 464 258 C 541 210 624 140 672 87 C 694 90 707 80 711 71 L 615 32 C 579 91 488 204 416 248 C 409 252 393 255 393 255 L 421 335 C 428 333 436 328 442 319 C 472 315 499 312 527 308 C 508 397 459 452 351 497 L 356 512 C 493 477 570 418 595 299 C 632 294 666 289 699 284 Z M 566 569 L 772 569 C 740 642 703 703 657 754 C 607 717 565 673 530 622 C 543 606 555 588 566 569 Z M 892 565 L 815 501 L 778 539 L 583 539 C 593 521 602 503 611 486 C 632 489 645 481 650 470 L 561 435 C 544 483 524 529 500 573 C 488 549 477 523 468 497 L 450 507 C 460 541 472 572 485 602 C 448 666 407 722 366 764 L 380 775 C 425 743 470 700 509 650 C 540 703 576 751 620 791 C 550 855 463 903 354 942 L 363 959 C 488 927 583 884 659 825 C 728 879 811 921 907 950 C 916 922 938 904 964 901 L 966 890 C 869 868 780 834 704 787 C 763 731 809 662 849 578 C 871 577 884 573 892 565 Z" fill="blue" fill-opacity="0.5" /><path transform="translate(2000)" d="M 707 270 L 707 447 C 707 486 718 500 778 500 L 821 500 C 933 500 956 492 956 464 C 956 450 948 444 929 439 L 926 438 L 917 438 C 912 440 904 442 898 442 C 895 443 889 443 883 443 C 873 444 852 444 826 444 L 793 444 C 770 444 767 440 767 435 L 767 291 L 767 270 L 707 270 Z M 751 130 L 739 139 C 767 165 801 203 829 240 C 691 247 558 252 471 253 C 543 207 620 142 666 91 C 688 95 700 86 705 76 L 610 35 C 576 92 489 204 420 247 C 413 251 396 254 396 254 L 442 337 C 448 334 453 327 458 318 C 612 299 749 277 844 261 C 859 283 872 304 880 323 C 949 367 991 227 751 130 Z M 623 284 L 542 297 C 525 394 475 489 378 535 L 384 551 C 510 516 591 420 623 284 Z M 287 554 L 161 554 C 162 513 162 472 162 435 L 162 351 L 287 351 L 287 554 Z M 162 129 L 287 129 L 287 322 L 162 322 L 162 129 Z M 348 848 L 348 139 C 366 135 382 128 388 120 L 309 60 L 277 99 L 175 99 L 102 68 L 102 436 C 102 612 103 803 39 950 L 56 959 C 132 854 153 715 160 584 L 287 584 L 287 840 C 287 855 283 860 266 860 C 249 860 168 853 168 853 L 168 870 C 205 875 226 883 238 894 C 249 903 254 921 256 941 C 339 932 348 901 348 848 Z M 589 604 L 775 604 C 751 659 718 709 676 753 C 634 717 599 676 570 629 C 577 621 583 612 589 604 Z M 892 599 L 821 534 L 777 575 L 609 575 C 622 556 633 536 643 517 C 669 518 677 514 680 504 L 579 481 C 543 584 469 703 389 770 L 401 781 C 457 748 510 700 555 648 C 580 698 609 744 644 784 C 569 852 470 905 350 941 L 358 957 C 491 928 596 882 679 820 C 740 876 818 921 923 953 C 929 920 949 903 975 895 L 977 884 C 872 863 788 830 721 786 C 776 736 819 678 852 612 C 874 611 884 608 892 599 Z" fill="red" fill-opacity="0.5" /><text text-anchor="middle" x="500" y="1064" font-family="Arial" font-size="64">Source Han Serif TW</text><text text-anchor="middle" x="1500" y="1064" font-family="Arial" font-size="64">HKSerif (uni6718HK-regular)</text></svg>