<svg width="3000" height="1080" xmlns="http://www.w3.org/2000/svg" style="background:#fff"><path d="M 732 210 L 732 163 L 932 163 C 946 163 954 158 957 147 C 933 122 893 90 893 90 L 859 134 L 732 134 L 732 72 C 754 69 763 60 765 47 L 673 37 L 673 229 L 685 229 C 706 229 732 217 732 210 Z M 835 384 L 736 384 L 736 276 L 835 276 L 835 384 Z M 425 384 L 425 276 L 530 276 L 530 384 L 425 384 Z M 583 276 L 683 276 L 683 384 L 583 384 L 583 276 Z M 835 434 L 845 434 C 864 434 894 420 895 414 L 895 285 C 912 282 927 274 931 267 L 860 213 L 826 247 L 430 247 L 366 218 L 366 443 L 375 443 C 398 443 425 430 425 425 L 425 414 L 835 413 L 835 434 Z M 307 134 L 315 163 L 510 163 L 510 231 L 522 231 C 542 231 568 219 568 212 L 568 72 C 590 69 599 61 601 48 L 510 38 L 510 134 L 307 134 Z M 101 235 L 82 234 C 88 302 66 383 42 416 C 25 434 17 456 32 473 C 48 493 82 480 97 455 C 120 418 130 336 101 235 Z M 257 53 L 158 41 L 158 958 L 171 958 C 194 958 220 944 220 935 L 220 81 C 246 77 254 67 257 53 Z M 241 218 L 228 225 C 252 266 277 331 278 381 C 329 430 388 316 241 218 Z M 773 868 L 465 868 L 465 788 L 773 788 L 773 868 Z M 465 687 L 773 687 L 773 759 L 465 759 L 465 687 Z M 465 590 L 773 590 L 773 659 L 465 659 L 465 590 Z M 799 524 L 764 561 L 470 561 L 401 529 L 401 954 L 412 954 C 438 954 465 939 465 932 L 465 897 L 773 897 L 773 951 L 783 951 C 805 951 836 933 837 925 L 837 598 C 853 595 867 588 873 581 L 799 524 Z M 967 497 L 899 430 L 863 468 L 370 468 C 368 457 366 443 362 429 L 344 429 C 347 472 322 521 298 542 C 279 554 268 573 278 592 C 289 613 321 609 338 593 C 357 577 371 542 372 497 L 868 497 C 864 519 858 544 854 559 L 869 565 C 887 551 914 524 930 506 C 948 505 960 504 967 497 Z" fill="blue" /><path transform="translate(1000)" d="M 101 235 L 82 234 C 88 302 66 383 42 416 C 25 434 17 456 32 473 C 48 493 82 480 97 455 C 120 418 130 336 101 235 Z M 257 53 L 158 41 L 158 958 L 171 958 C 194 958 220 944 220 935 L 220 81 C 246 77 254 67 257 53 Z M 241 218 L 228 225 C 252 266 277 331 278 381 C 329 430 388 316 241 218 Z M 740 211 L 740 166 L 937 166 C 951 166 959 161 961 150 C 933 120 885 81 885 81 L 843 136 L 740 136 L 740 81 C 765 77 774 68 776 55 L 678 44 L 678 228 L 691 228 C 713 228 740 217 740 211 Z M 310 136 L 329 166 L 512 166 L 512 230 L 524 230 C 546 230 574 219 574 213 L 574 81 C 598 77 608 68 610 55 L 512 44 L 512 136 L 310 136 Z M 773 882 L 495 882 L 495 801 L 773 801 L 773 882 Z M 495 771 L 495 694 L 773 694 L 773 771 L 495 771 Z M 495 588 L 773 588 L 773 666 L 495 666 L 495 588 Z M 427 275 L 523 275 L 523 367 L 427 367 L 427 275 Z M 578 275 L 678 275 L 678 367 L 578 367 L 578 275 Z M 733 275 L 834 275 L 834 367 L 733 367 L 733 275 Z M 368 217 L 368 434 L 377 434 C 400 434 427 421 427 416 L 427 397 L 834 397 L 834 426 L 844 426 C 864 426 894 413 895 407 L 895 284 C 912 281 927 273 933 266 L 859 211 L 825 247 L 432 247 L 368 217 Z M 874 577 L 802 521 L 770 560 L 507 560 L 433 528 L 433 957 L 443 957 C 474 957 495 943 495 937 L 495 912 L 773 912 L 773 948 L 783 948 C 812 948 836 933 836 929 L 836 593 C 857 590 868 585 874 577 Z M 967 497 L 899 430 L 863 468 L 370 468 C 368 457 366 443 362 429 L 344 429 C 347 472 322 521 298 542 C 279 554 268 573 278 592 C 289 613 321 609 338 593 C 357 577 371 542 372 497 L 868 497 C 864 519 858 544 854 559 L 869 565 C 887 551 914 524 930 506 C 948 505 960 504 967 497 Z" fill="red" /><path transform="translate(2000)" d="M 732 210 L 732 163 L 932 163 C 946 163 954 158 957 147 C 933 122 893 90 893 90 L 859 134 L 732 134 L 732 72 C 754 69 763 60 765 47 L 673 37 L 673 229 L 685 229 C 706 229 732 217 732 210 Z M 835 384 L 736 384 L 736 276 L 835 276 L 835 384 Z M 425 384 L 425 276 L 530 276 L 530 384 L 425 384 Z M 583 276 L 683 276 L 683 384 L 583 384 L 583 276 Z M 835 434 L 845 434 C 864 434 894 420 895 414 L 895 285 C 912 282 927 274 931 267 L 860 213 L 826 247 L 430 247 L 366 218 L 366 443 L 375 443 C 398 443 425 430 425 425 L 425 414 L 835 413 L 835 434 Z M 307 134 L 315 163 L 510 163 L 510 231 L 522 231 C 542 231 568 219 568 212 L 568 72 C 590 69 599 61 601 48 L 510 38 L 510 134 L 307 134 Z M 101 235 L 82 234 C 88 302 66 383 42 416 C 25 434 17 456 32 473 C 48 493 82 480 97 455 C 120 418 130 336 101 235 Z M 257 53 L 158 41 L 158 958 L 171 958 C 194 958 220 944 220 935 L 220 81 C 246 77 254 67 257 53 Z M 241 218 L 228 225 C 252 266 277 331 278 381 C 329 430 388 316 241 218 Z M 773 868 L 465 868 L 465 788 L 773 788 L 773 868 Z M 465 687 L 773 687 L 773 759 L 465 759 L 465 687 Z M 465 590 L 773 590 L 773 659 L 465 659 L 465 590 Z M 799 524 L 764 561 L 470 561 L 401 529 L 401 954 L 412 954 C 438 954 465 939 465 932 L 465 897 L 773 897 L 773 951 L 783 951 C 805 951 836 933 837 925 L 837 598 C 853 595 867 588 873 581 L 799 524 Z M 967 497 L 899 430 L 863 468 L 370 468 C 368 457 366 443 362 429 L 344 429 C 347 472 322 521 298 542 C 279 554 268 573 278 592 C 289 613 321 609 338 593 C 357 577 371 542 372 497 L 868 497 C 864 519 858 544 854 559 L 869 565 C 887 551 914 524 930 506 C 948 505 960 504 967 497 Z" fill="blue" fill-opacity="0.5" /><path transform="translate(2000)" d="M 101 235 L 82 234 C 88 302 66 383 42 416 C 25 434 17 456 32 473 C 48 493 82 480 97 455 C 120 418 130 336 101 235 Z M 257 53 L 158 41 L 158 958 L 171 958 C 194 958 220 944 220 935 L 220 81 C 246 77 254 67 257 53 Z M 241 218 L 228 225 C 252 266 277 331 278 381 C 329 430 388 316 241 218 Z M 740 211 L 740 166 L 937 166 C 951 166 959 161 961 150 C 933 120 885 81 885 81 L 843 136 L 740 136 L 740 81 C 765 77 774 68 776 55 L 678 44 L 678 228 L 691 228 C 713 228 740 217 740 211 Z M 310 136 L 329 166 L 512 166 L 512 230 L 524 230 C 546 230 574 219 574 213 L 574 81 C 598 77 608 68 610 55 L 512 44 L 512 136 L 310 136 Z M 773 882 L 495 882 L 495 801 L 773 801 L 773 882 Z M 495 771 L 495 694 L 773 694 L 773 771 L 495 771 Z M 495 588 L 773 588 L 773 666 L 495 666 L 495 588 Z M 427 275 L 523 275 L 523 367 L 427 367 L 427 275 Z M 578 275 L 678 275 L 678 367 L 578 367 L 578 275 Z M 733 275 L 834 275 L 834 367 L 733 367 L 733 275 Z M 368 217 L 368 434 L 377 434 C 400 434 427 421 427 416 L 427 397 L 834 397 L 834 426 L 844 426 C 864 426 894 413 895 407 L 895 284 C 912 281 927 273 933 266 L 859 211 L 825 247 L 432 247 L 368 217 Z M 874 577 L 802 521 L 770 560 L 507 560 L 433 528 L 433 957 L 443 957 C 474 957 495 943 495 937 L 495 912 L 773 912 L 773 948 L 783 948 C 812 948 836 933 836 929 L 836 593 C 857 590 868 585 874 577 Z M 967 497 L 899 430 L 863 468 L 370 468 C 368 457 366 443 362 429 L 344 429 C 347 472 322 521 298 542 C 279 554 268 573 278 592 C 289 613 321 609 338 593 C 357 577 371 542 372 497 L 868 497 C 864 519 858 544 854 559 L 869 565 C 887 551 914 524 930 506 C 948 505 960 504 967 497 Z" fill="red" fill-opacity="0.5" /><text text-anchor="middle" x="500" y="1064" font-family="Arial" font-size="64">Source Han Serif TW</text><text text-anchor="middle" x="1500" y="1064" font-family="Arial" font-size="64">HKSerif (uni61F5HK-regular)</text></svg>