<svg width="3000" height="1080" xmlns="http://www.w3.org/2000/svg" style="background:#fff"><path d="M 247 288 L 159 288 C 172 242 186 179 195 136 L 268 136 C 266 182 261 234 247 288 Z M 297 318 L 324 318 L 324 457 C 324 471 320 477 297 490 L 330 553 C 338 550 348 541 352 528 C 414 482 474 431 502 408 L 494 395 C 454 417 415 437 381 455 L 381 318 L 464 318 C 478 318 487 313 490 302 C 461 274 419 242 419 242 L 381 288 L 306 288 C 322 236 329 183 333 136 L 456 136 C 469 136 477 131 480 120 C 455 94 412 60 412 60 L 375 107 L 74 107 L 82 136 L 140 136 C 133 176 119 237 107 280 C 94 285 81 292 72 298 L 133 344 L 159 318 L 238 318 C 211 406 157 496 51 578 L 66 594 C 198 512 263 414 297 318 Z M 743 871 L 259 871 L 259 746 L 743 746 L 743 871 Z M 259 600 L 743 600 L 743 717 L 259 717 L 259 600 Z M 769 532 L 733 570 L 264 570 L 194 538 L 194 958 L 205 958 C 232 958 259 943 259 936 L 259 901 L 743 901 L 743 952 L 753 952 C 774 952 807 936 808 929 L 808 609 C 825 606 840 598 846 591 L 769 532 Z M 670 288 L 588 288 C 601 241 616 177 625 135 L 696 135 C 694 182 688 235 670 288 Z M 936 469 L 933 389 L 921 389 C 913 424 904 458 899 468 C 895 474 893 475 886 476 L 842 476 L 797 476 C 779 476 777 474 777 463 L 777 326 L 777 318 L 920 318 C 934 318 943 313 946 302 C 917 274 876 242 876 242 L 838 288 L 731 288 C 750 236 758 183 763 135 L 885 135 C 897 135 906 130 909 119 C 883 92 838 56 838 56 L 800 106 L 502 106 L 510 135 L 569 135 C 561 175 546 237 534 281 C 522 285 508 292 501 298 L 561 344 L 588 318 L 659 318 C 628 393 570 471 461 541 L 475 556 C 610 487 681 402 719 318 L 720 318 L 720 474 C 720 511 729 525 783 525 L 841 525 C 936 525 959 516 959 493 C 959 482 955 475 936 469 Z" fill="blue" /><path transform="translate(1000)" d="M 611 723 L 611 753 L 698 753 C 711 753 719 748 722 737 C 704 717 675 693 675 693 L 650 723 L 611 723 Z M 740 753 L 630 753 L 630 723 L 740 723 L 740 753 Z M 295 318 L 324 318 L 324 450 C 324 464 320 469 297 482 L 330 545 C 337 541 347 532 352 519 C 413 473 473 423 502 400 L 494 387 C 454 408 414 430 380 448 L 380 318 L 464 318 C 478 318 487 313 490 302 C 461 274 419 242 419 242 L 381 288 L 303 288 C 318 236 325 183 329 136 L 465 136 C 478 136 488 131 490 120 C 464 94 422 60 422 60 L 384 107 L 87 107 L 95 136 L 266 136 C 264 182 259 234 245 288 L 157 288 C 163 266 169 241 174 221 C 195 226 207 219 214 207 L 129 171 C 125 199 114 249 105 284 C 95 288 86 294 80 299 L 133 338 L 157 318 L 237 318 C 210 405 158 497 53 579 L 68 595 C 197 512 261 414 295 318 Z M 740 866 L 267 866 L 267 753 L 740 753 L 740 866 Z M 267 611 L 740 611 L 740 723 L 267 723 L 267 611 Z M 766 542 L 730 581 L 273 581 L 203 549 L 203 956 L 214 956 C 239 956 267 941 267 934 L 267 896 L 740 896 L 740 949 L 750 949 C 771 949 804 934 805 928 L 805 620 C 822 617 837 609 843 602 L 766 542 Z M 926 477 L 923 395 L 910 395 C 903 430 894 466 889 476 C 885 482 883 483 876 484 L 833 484 L 787 484 C 768 484 765 482 765 471 L 765 320 L 765 318 L 912 318 C 926 318 935 313 937 302 C 909 274 868 242 868 242 L 830 288 L 721 288 C 740 236 748 184 753 135 L 900 135 C 913 135 923 130 926 119 C 898 92 854 56 854 56 L 815 106 L 515 106 L 523 135 L 688 135 C 685 182 680 235 662 288 L 568 288 C 574 266 580 241 584 221 C 607 226 618 219 624 207 L 540 171 C 535 199 524 249 516 284 C 507 288 497 294 490 299 L 544 338 L 566 318 L 652 318 C 619 397 556 480 437 553 L 451 569 C 597 495 671 407 710 318 L 711 318 L 711 483 C 711 519 720 533 773 533 L 831 533 C 926 533 949 523 949 500 C 949 490 944 483 926 477 Z" fill="red" /><path transform="translate(2000)" d="M 247 288 L 159 288 C 172 242 186 179 195 136 L 268 136 C 266 182 261 234 247 288 Z M 297 318 L 324 318 L 324 457 C 324 471 320 477 297 490 L 330 553 C 338 550 348 541 352 528 C 414 482 474 431 502 408 L 494 395 C 454 417 415 437 381 455 L 381 318 L 464 318 C 478 318 487 313 490 302 C 461 274 419 242 419 242 L 381 288 L 306 288 C 322 236 329 183 333 136 L 456 136 C 469 136 477 131 480 120 C 455 94 412 60 412 60 L 375 107 L 74 107 L 82 136 L 140 136 C 133 176 119 237 107 280 C 94 285 81 292 72 298 L 133 344 L 159 318 L 238 318 C 211 406 157 496 51 578 L 66 594 C 198 512 263 414 297 318 Z M 743 871 L 259 871 L 259 746 L 743 746 L 743 871 Z M 259 600 L 743 600 L 743 717 L 259 717 L 259 600 Z M 769 532 L 733 570 L 264 570 L 194 538 L 194 958 L 205 958 C 232 958 259 943 259 936 L 259 901 L 743 901 L 743 952 L 753 952 C 774 952 807 936 808 929 L 808 609 C 825 606 840 598 846 591 L 769 532 Z M 670 288 L 588 288 C 601 241 616 177 625 135 L 696 135 C 694 182 688 235 670 288 Z M 936 469 L 933 389 L 921 389 C 913 424 904 458 899 468 C 895 474 893 475 886 476 L 842 476 L 797 476 C 779 476 777 474 777 463 L 777 326 L 777 318 L 920 318 C 934 318 943 313 946 302 C 917 274 876 242 876 242 L 838 288 L 731 288 C 750 236 758 183 763 135 L 885 135 C 897 135 906 130 909 119 C 883 92 838 56 838 56 L 800 106 L 502 106 L 510 135 L 569 135 C 561 175 546 237 534 281 C 522 285 508 292 501 298 L 561 344 L 588 318 L 659 318 C 628 393 570 471 461 541 L 475 556 C 610 487 681 402 719 318 L 720 318 L 720 474 C 720 511 729 525 783 525 L 841 525 C 936 525 959 516 959 493 C 959 482 955 475 936 469 Z" fill="blue" fill-opacity="0.5" /><path transform="translate(2000)" d="M 611 723 L 611 753 L 698 753 C 711 753 719 748 722 737 C 704 717 675 693 675 693 L 650 723 L 611 723 Z M 740 753 L 630 753 L 630 723 L 740 723 L 740 753 Z M 295 318 L 324 318 L 324 450 C 324 464 320 469 297 482 L 330 545 C 337 541 347 532 352 519 C 413 473 473 423 502 400 L 494 387 C 454 408 414 430 380 448 L 380 318 L 464 318 C 478 318 487 313 490 302 C 461 274 419 242 419 242 L 381 288 L 303 288 C 318 236 325 183 329 136 L 465 136 C 478 136 488 131 490 120 C 464 94 422 60 422 60 L 384 107 L 87 107 L 95 136 L 266 136 C 264 182 259 234 245 288 L 157 288 C 163 266 169 241 174 221 C 195 226 207 219 214 207 L 129 171 C 125 199 114 249 105 284 C 95 288 86 294 80 299 L 133 338 L 157 318 L 237 318 C 210 405 158 497 53 579 L 68 595 C 197 512 261 414 295 318 Z M 740 866 L 267 866 L 267 753 L 740 753 L 740 866 Z M 267 611 L 740 611 L 740 723 L 267 723 L 267 611 Z M 766 542 L 730 581 L 273 581 L 203 549 L 203 956 L 214 956 C 239 956 267 941 267 934 L 267 896 L 740 896 L 740 949 L 750 949 C 771 949 804 934 805 928 L 805 620 C 822 617 837 609 843 602 L 766 542 Z M 926 477 L 923 395 L 910 395 C 903 430 894 466 889 476 C 885 482 883 483 876 484 L 833 484 L 787 484 C 768 484 765 482 765 471 L 765 320 L 765 318 L 912 318 C 926 318 935 313 937 302 C 909 274 868 242 868 242 L 830 288 L 721 288 C 740 236 748 184 753 135 L 900 135 C 913 135 923 130 926 119 C 898 92 854 56 854 56 L 815 106 L 515 106 L 523 135 L 688 135 C 685 182 680 235 662 288 L 568 288 C 574 266 580 241 584 221 C 607 226 618 219 624 207 L 540 171 C 535 199 524 249 516 284 C 507 288 497 294 490 299 L 544 338 L 566 318 L 652 318 C 619 397 556 480 437 553 L 451 569 C 597 495 671 407 710 318 L 711 318 L 711 483 C 711 519 720 533 773 533 L 831 533 C 926 533 949 523 949 500 C 949 490 944 483 926 477 Z" fill="red" fill-opacity="0.5" /><text text-anchor="middle" x="500" y="1064" font-family="Arial" font-size="64">Source Han Serif TW</text><text text-anchor="middle" x="1500" y="1064" font-family="Arial" font-size="64">HKSerif (uni6701HK-regular)</text></svg>