<svg width="3000" height="1080" xmlns="http://www.w3.org/2000/svg" style="background:#fff"><path d="M 365 279 L 347 279 C 351 339 330 412 307 440 C 302 444 298 449 295 453 C 269 468 241 483 215 497 L 215 312 L 308 312 C 322 312 331 307 334 296 C 308 267 263 229 263 229 L 224 282 L 215 282 L 215 80 C 239 77 249 67 252 53 L 154 42 L 154 282 L 34 282 L 42 312 L 154 312 L 154 529 C 102 556 59 577 34 588 L 80 662 C 89 657 96 646 96 634 C 116 618 135 603 154 590 L 154 859 C 154 873 149 878 133 878 C 116 878 37 872 37 872 L 37 888 C 73 893 95 900 107 911 C 117 922 122 939 124 958 C 205 950 215 918 215 865 L 215 541 C 242 519 267 500 287 483 C 287 488 289 493 292 497 C 307 515 341 506 356 484 C 380 450 392 374 365 279 Z M 503 53 L 408 42 L 408 960 L 420 960 C 442 960 467 945 467 936 L 467 81 C 493 77 501 67 503 53 Z M 497 234 L 483 239 C 501 281 520 346 521 394 C 569 446 633 340 497 234 Z M 894 844 L 853 905 L 823 905 L 895 345 C 913 343 923 339 931 332 L 862 271 L 828 310 L 682 310 C 692 255 700 198 706 140 L 920 140 C 934 140 944 135 946 124 C 915 95 864 55 864 55 L 820 111 L 533 111 L 540 140 L 637 140 C 620 347 585 564 517 734 L 535 744 C 562 696 586 645 606 592 C 641 623 678 669 690 706 C 754 747 802 622 612 576 C 628 533 642 487 654 441 C 685 464 718 500 731 529 C 793 561 830 447 659 421 C 666 394 672 367 677 339 L 833 339 L 757 905 L 516 905 L 524 935 L 943 935 C 957 935 966 930 969 919 C 942 888 894 844 894 844 Z" fill="blue" /><path transform="translate(1000)" d="M 262 212 L 225 263 L 219 263 L 219 80 C 243 76 253 66 256 52 L 158 41 L 158 263 L 42 263 L 50 293 L 158 293 L 158 506 C 104 529 59 547 35 555 L 73 635 C 82 630 89 619 91 609 C 115 593 137 578 158 564 L 158 855 C 158 868 153 873 138 873 C 122 873 45 867 45 867 L 45 883 C 80 889 101 896 112 907 C 122 918 127 936 129 956 C 210 947 219 915 219 862 L 219 521 C 259 495 291 471 318 452 L 312 439 C 280 452 249 467 219 480 L 219 293 L 304 293 C 318 293 327 288 329 277 C 304 249 262 212 262 212 Z M 353 280 L 335 280 C 335 300 332 323 325 345 L 320 361 C 310 388 298 409 285 422 C 268 439 258 460 270 479 C 283 498 317 489 334 470 C 359 439 375 370 353 280 Z M 495 56 L 400 45 L 400 959 L 413 959 C 434 959 460 945 460 936 L 460 84 C 485 80 492 70 495 56 Z M 489 229 L 477 233 C 493 276 513 340 513 389 C 561 441 625 334 489 229 Z M 902 843 L 860 904 L 817 904 L 889 345 C 909 343 919 339 926 332 L 857 271 L 822 310 L 665 310 C 676 247 686 187 693 140 L 930 140 C 943 140 953 135 955 124 C 925 95 874 55 874 55 L 830 111 L 521 111 L 529 140 L 630 140 C 612 295 552 608 512 734 C 542 742 568 740 582 730 C 604 634 634 479 660 339 L 829 339 L 752 904 L 497 904 L 505 934 L 950 934 C 964 934 973 929 976 918 C 949 887 902 843 902 843 Z M 623 578 L 614 586 C 648 612 689 660 700 698 C 764 737 811 613 623 578 Z M 656 420 L 646 429 C 681 452 724 495 739 529 C 802 562 841 442 656 420 Z" fill="red" /><path transform="translate(2000)" d="M 365 279 L 347 279 C 351 339 330 412 307 440 C 302 444 298 449 295 453 C 269 468 241 483 215 497 L 215 312 L 308 312 C 322 312 331 307 334 296 C 308 267 263 229 263 229 L 224 282 L 215 282 L 215 80 C 239 77 249 67 252 53 L 154 42 L 154 282 L 34 282 L 42 312 L 154 312 L 154 529 C 102 556 59 577 34 588 L 80 662 C 89 657 96 646 96 634 C 116 618 135 603 154 590 L 154 859 C 154 873 149 878 133 878 C 116 878 37 872 37 872 L 37 888 C 73 893 95 900 107 911 C 117 922 122 939 124 958 C 205 950 215 918 215 865 L 215 541 C 242 519 267 500 287 483 C 287 488 289 493 292 497 C 307 515 341 506 356 484 C 380 450 392 374 365 279 Z M 503 53 L 408 42 L 408 960 L 420 960 C 442 960 467 945 467 936 L 467 81 C 493 77 501 67 503 53 Z M 497 234 L 483 239 C 501 281 520 346 521 394 C 569 446 633 340 497 234 Z M 894 844 L 853 905 L 823 905 L 895 345 C 913 343 923 339 931 332 L 862 271 L 828 310 L 682 310 C 692 255 700 198 706 140 L 920 140 C 934 140 944 135 946 124 C 915 95 864 55 864 55 L 820 111 L 533 111 L 540 140 L 637 140 C 620 347 585 564 517 734 L 535 744 C 562 696 586 645 606 592 C 641 623 678 669 690 706 C 754 747 802 622 612 576 C 628 533 642 487 654 441 C 685 464 718 500 731 529 C 793 561 830 447 659 421 C 666 394 672 367 677 339 L 833 339 L 757 905 L 516 905 L 524 935 L 943 935 C 957 935 966 930 969 919 C 942 888 894 844 894 844 Z" fill="blue" fill-opacity="0.5" /><path transform="translate(2000)" d="M 262 212 L 225 263 L 219 263 L 219 80 C 243 76 253 66 256 52 L 158 41 L 158 263 L 42 263 L 50 293 L 158 293 L 158 506 C 104 529 59 547 35 555 L 73 635 C 82 630 89 619 91 609 C 115 593 137 578 158 564 L 158 855 C 158 868 153 873 138 873 C 122 873 45 867 45 867 L 45 883 C 80 889 101 896 112 907 C 122 918 127 936 129 956 C 210 947 219 915 219 862 L 219 521 C 259 495 291 471 318 452 L 312 439 C 280 452 249 467 219 480 L 219 293 L 304 293 C 318 293 327 288 329 277 C 304 249 262 212 262 212 Z M 353 280 L 335 280 C 335 300 332 323 325 345 L 320 361 C 310 388 298 409 285 422 C 268 439 258 460 270 479 C 283 498 317 489 334 470 C 359 439 375 370 353 280 Z M 495 56 L 400 45 L 400 959 L 413 959 C 434 959 460 945 460 936 L 460 84 C 485 80 492 70 495 56 Z M 489 229 L 477 233 C 493 276 513 340 513 389 C 561 441 625 334 489 229 Z M 902 843 L 860 904 L 817 904 L 889 345 C 909 343 919 339 926 332 L 857 271 L 822 310 L 665 310 C 676 247 686 187 693 140 L 930 140 C 943 140 953 135 955 124 C 925 95 874 55 874 55 L 830 111 L 521 111 L 529 140 L 630 140 C 612 295 552 608 512 734 C 542 742 568 740 582 730 C 604 634 634 479 660 339 L 829 339 L 752 904 L 497 904 L 505 934 L 950 934 C 964 934 973 929 976 918 C 949 887 902 843 902 843 Z M 623 578 L 614 586 C 648 612 689 660 700 698 C 764 737 811 613 623 578 Z M 656 420 L 646 429 C 681 452 724 495 739 529 C 802 562 841 442 656 420 Z" fill="red" fill-opacity="0.5" /><text text-anchor="middle" x="500" y="1064" font-family="Arial" font-size="64">Source Han Serif TW</text><text text-anchor="middle" x="1500" y="1064" font-family="Arial" font-size="64">HKSerif (uni63EFHK-regular)</text></svg>