<svg width="3000" height="1080" xmlns="http://www.w3.org/2000/svg" style="background:#fff"><path d="M 113 49 L 103 59 C 148 87 200 138 216 184 C 289 224 329 80 113 49 Z M 47 279 L 38 288 C 79 314 125 362 140 402 C 211 443 252 301 47 279 Z M 322 228 L 303 223 C 137 621 137 621 120 656 C 110 676 107 677 95 677 L 51 677 L 51 699 C 73 701 86 703 100 713 C 121 728 128 807 114 908 C 116 940 127 958 146 958 C 179 958 198 932 200 889 C 204 808 176 761 175 717 C 175 692 181 660 189 629 C 203 582 281 352 322 228 Z M 652 759 L 643 770 C 720 818 837 902 887 955 C 963 980 971 843 652 759 Z M 686 590 L 586 575 C 584 609 580 640 571 672 L 431 672 L 431 323 L 602 323 C 583 415 536 529 462 597 L 471 611 C 537 570 585 510 620 449 C 663 484 714 541 732 583 C 792 620 828 501 628 434 C 641 409 652 384 661 362 C 686 363 692 358 697 347 L 627 323 L 800 323 L 800 672 L 639 672 C 644 653 647 634 650 616 C 673 614 684 602 686 590 Z M 504 172 L 681 172 C 664 209 638 259 613 294 L 443 294 L 416 282 C 448 250 477 213 504 172 Z M 897 611 L 860 670 L 860 335 C 880 331 897 323 902 315 L 827 256 L 790 294 L 643 294 C 687 261 730 212 760 180 C 778 178 790 176 798 169 L 723 101 L 682 142 L 522 142 C 532 125 541 108 549 91 C 570 93 582 85 587 74 L 494 37 C 450 167 376 284 302 355 L 316 367 C 334 355 353 341 371 326 L 371 672 L 270 672 L 278 701 L 562 701 C 530 790 454 870 268 943 L 278 962 C 520 889 600 797 631 701 L 941 701 C 955 701 964 696 967 685 C 942 655 897 611 897 611 Z" fill="blue" /><path transform="translate(1000)" d="M 110 56 L 101 65 C 143 94 197 147 213 191 C 286 231 326 89 110 56 Z M 42 289 L 32 298 C 73 325 123 375 136 418 C 207 459 248 318 42 289 Z M 309 220 L 290 216 C 136 617 136 617 120 653 C 112 673 108 674 96 674 L 53 674 L 53 696 C 74 698 89 700 102 710 C 123 725 129 806 115 907 C 117 938 128 957 145 957 C 179 957 198 931 200 888 C 204 806 176 758 175 714 C 175 688 181 658 188 626 C 201 577 271 345 309 220 Z M 542 662 L 405 662 L 405 313 L 578 313 C 559 405 512 519 438 587 L 447 601 C 513 560 561 500 596 439 C 639 474 690 531 708 573 C 768 610 804 491 604 424 C 617 399 628 374 637 352 C 662 353 668 348 673 337 L 603 313 L 799 313 L 799 662 L 612 662 C 617 639 621 616 624 592 C 645 590 656 579 658 566 L 556 556 C 554 593 550 629 542 662 Z M 500 164 L 657 164 C 639 201 614 248 589 283 L 417 283 L 400 275 C 436 244 470 206 500 164 Z M 633 691 L 948 691 C 961 691 970 686 973 675 C 949 645 904 600 904 600 L 866 662 L 860 662 L 860 325 C 880 321 896 313 903 305 L 826 245 L 789 283 L 620 283 C 662 249 705 203 734 171 C 754 170 766 168 773 161 L 699 93 L 658 134 L 520 134 C 529 120 538 105 546 90 C 567 92 580 85 585 75 L 492 33 C 444 162 362 272 281 336 L 294 349 C 311 340 328 329 345 318 L 345 662 L 234 662 L 242 691 L 533 691 C 500 788 420 868 212 940 L 221 960 C 486 890 571 799 604 691 L 610 691 C 664 833 763 915 918 956 C 924 922 945 903 971 896 L 971 884 C 818 864 697 798 633 691 Z" fill="red" /><path transform="translate(2000)" d="M 113 49 L 103 59 C 148 87 200 138 216 184 C 289 224 329 80 113 49 Z M 47 279 L 38 288 C 79 314 125 362 140 402 C 211 443 252 301 47 279 Z M 322 228 L 303 223 C 137 621 137 621 120 656 C 110 676 107 677 95 677 L 51 677 L 51 699 C 73 701 86 703 100 713 C 121 728 128 807 114 908 C 116 940 127 958 146 958 C 179 958 198 932 200 889 C 204 808 176 761 175 717 C 175 692 181 660 189 629 C 203 582 281 352 322 228 Z M 652 759 L 643 770 C 720 818 837 902 887 955 C 963 980 971 843 652 759 Z M 686 590 L 586 575 C 584 609 580 640 571 672 L 431 672 L 431 323 L 602 323 C 583 415 536 529 462 597 L 471 611 C 537 570 585 510 620 449 C 663 484 714 541 732 583 C 792 620 828 501 628 434 C 641 409 652 384 661 362 C 686 363 692 358 697 347 L 627 323 L 800 323 L 800 672 L 639 672 C 644 653 647 634 650 616 C 673 614 684 602 686 590 Z M 504 172 L 681 172 C 664 209 638 259 613 294 L 443 294 L 416 282 C 448 250 477 213 504 172 Z M 897 611 L 860 670 L 860 335 C 880 331 897 323 902 315 L 827 256 L 790 294 L 643 294 C 687 261 730 212 760 180 C 778 178 790 176 798 169 L 723 101 L 682 142 L 522 142 C 532 125 541 108 549 91 C 570 93 582 85 587 74 L 494 37 C 450 167 376 284 302 355 L 316 367 C 334 355 353 341 371 326 L 371 672 L 270 672 L 278 701 L 562 701 C 530 790 454 870 268 943 L 278 962 C 520 889 600 797 631 701 L 941 701 C 955 701 964 696 967 685 C 942 655 897 611 897 611 Z" fill="blue" fill-opacity="0.5" /><path transform="translate(2000)" d="M 110 56 L 101 65 C 143 94 197 147 213 191 C 286 231 326 89 110 56 Z M 42 289 L 32 298 C 73 325 123 375 136 418 C 207 459 248 318 42 289 Z M 309 220 L 290 216 C 136 617 136 617 120 653 C 112 673 108 674 96 674 L 53 674 L 53 696 C 74 698 89 700 102 710 C 123 725 129 806 115 907 C 117 938 128 957 145 957 C 179 957 198 931 200 888 C 204 806 176 758 175 714 C 175 688 181 658 188 626 C 201 577 271 345 309 220 Z M 542 662 L 405 662 L 405 313 L 578 313 C 559 405 512 519 438 587 L 447 601 C 513 560 561 500 596 439 C 639 474 690 531 708 573 C 768 610 804 491 604 424 C 617 399 628 374 637 352 C 662 353 668 348 673 337 L 603 313 L 799 313 L 799 662 L 612 662 C 617 639 621 616 624 592 C 645 590 656 579 658 566 L 556 556 C 554 593 550 629 542 662 Z M 500 164 L 657 164 C 639 201 614 248 589 283 L 417 283 L 400 275 C 436 244 470 206 500 164 Z M 633 691 L 948 691 C 961 691 970 686 973 675 C 949 645 904 600 904 600 L 866 662 L 860 662 L 860 325 C 880 321 896 313 903 305 L 826 245 L 789 283 L 620 283 C 662 249 705 203 734 171 C 754 170 766 168 773 161 L 699 93 L 658 134 L 520 134 C 529 120 538 105 546 90 C 567 92 580 85 585 75 L 492 33 C 444 162 362 272 281 336 L 294 349 C 311 340 328 329 345 318 L 345 662 L 234 662 L 242 691 L 533 691 C 500 788 420 868 212 940 L 221 960 C 486 890 571 799 604 691 L 610 691 C 664 833 763 915 918 956 C 924 922 945 903 971 896 L 971 884 C 818 864 697 798 633 691 Z" fill="red" fill-opacity="0.5" /><text text-anchor="middle" x="500" y="1064" font-family="Arial" font-size="64">Source Han Serif TW</text><text text-anchor="middle" x="1500" y="1064" font-family="Arial" font-size="64">HKSerif (uni6E19HK-regular)</text></svg>