<svg width="3000" height="1080" xmlns="http://www.w3.org/2000/svg" style="background:#fff"><path d="M 326 161 L 491 161 L 491 216 L 502 216 C 532 216 552 206 552 200 L 552 161 L 698 161 L 698 215 L 709 215 C 743 214 759 202 759 197 L 759 161 L 935 161 C 949 161 957 156 959 145 C 931 118 882 81 882 81 L 841 132 L 759 132 L 759 80 C 783 76 791 65 793 52 L 698 43 L 698 132 L 552 132 L 552 80 C 576 76 584 66 586 52 L 491 43 L 491 132 L 319 132 L 326 161 Z M 114 240 L 96 239 C 99 307 74 388 47 420 C 31 436 23 460 36 476 C 51 496 86 484 102 460 C 127 423 141 341 114 240 Z M 270 53 L 173 41 L 173 958 L 185 958 C 209 958 234 943 234 934 L 234 81 C 259 77 267 67 270 53 Z M 264 205 L 251 210 C 272 250 294 312 293 360 C 342 411 405 300 264 205 Z M 784 868 L 476 868 L 476 789 L 784 789 L 784 868 Z M 476 688 L 784 688 L 784 759 L 476 759 L 476 688 Z M 476 590 L 784 590 L 784 660 L 476 660 L 476 590 Z M 426 264 L 523 264 L 523 372 L 426 372 L 426 264 Z M 577 264 L 678 264 L 678 372 L 577 372 L 577 264 Z M 733 264 L 835 264 L 835 372 L 733 372 L 733 264 Z M 973 496 L 898 423 L 858 465 L 869 465 L 869 466 L 385 466 C 384 455 383 442 380 430 C 402 428 426 418 426 412 L 426 401 L 835 401 L 835 422 L 845 422 C 865 422 896 409 897 403 L 897 273 C 913 270 928 262 934 256 L 860 200 L 826 236 L 432 236 L 366 205 L 366 426 L 362 426 C 362 473 331 521 302 540 C 283 553 271 574 281 592 C 292 614 325 611 345 595 C 366 578 384 544 386 496 L 857 496 C 850 513 843 531 836 545 L 809 524 L 775 562 L 481 562 L 413 530 L 413 954 L 423 954 C 450 954 476 939 476 932 L 476 898 L 784 898 L 784 951 L 793 951 C 816 951 848 933 849 925 L 849 598 C 866 595 878 588 884 582 L 853 558 C 879 543 915 521 936 505 C 954 504 965 504 973 496 Z" fill="blue" /><path transform="translate(1000)" d="M 101 235 L 82 234 C 88 302 66 383 42 416 C 25 434 17 456 32 473 C 48 493 82 480 97 455 C 120 418 130 336 101 235 Z M 257 53 L 158 41 L 158 958 L 171 958 C 194 958 220 944 220 935 L 220 81 C 246 77 254 67 257 53 Z M 241 218 L 228 225 C 252 266 277 331 278 381 C 329 430 388 316 241 218 Z M 740 211 L 740 166 L 937 166 C 951 166 959 161 961 150 C 933 120 885 81 885 81 L 843 136 L 740 136 L 740 81 C 765 77 774 68 776 55 L 678 44 L 678 228 L 691 228 C 713 228 740 217 740 211 Z M 310 136 L 329 166 L 512 166 L 512 230 L 524 230 C 546 230 574 219 574 213 L 574 81 C 598 77 608 68 610 55 L 512 44 L 512 136 L 310 136 Z M 773 882 L 495 882 L 495 801 L 773 801 L 773 882 Z M 495 771 L 495 694 L 773 694 L 773 771 L 495 771 Z M 495 588 L 773 588 L 773 666 L 495 666 L 495 588 Z M 427 275 L 523 275 L 523 367 L 427 367 L 427 275 Z M 578 275 L 678 275 L 678 367 L 578 367 L 578 275 Z M 733 275 L 834 275 L 834 367 L 733 367 L 733 275 Z M 368 217 L 368 434 L 377 434 C 400 434 427 421 427 416 L 427 397 L 834 397 L 834 426 L 844 426 C 864 426 894 413 895 407 L 895 284 C 912 281 927 273 933 266 L 859 211 L 825 247 L 432 247 L 368 217 Z M 874 577 L 802 521 L 770 560 L 507 560 L 433 528 L 433 957 L 443 957 C 474 957 495 943 495 937 L 495 912 L 773 912 L 773 948 L 783 948 C 812 948 836 933 836 929 L 836 593 C 857 590 868 585 874 577 Z M 967 497 L 899 430 L 863 468 L 370 468 C 368 457 366 443 362 429 L 344 429 C 347 472 322 521 298 542 C 279 554 268 573 278 592 C 289 613 321 609 338 593 C 357 577 371 542 372 497 L 868 497 C 864 519 858 544 854 559 L 869 565 C 887 551 914 524 930 506 C 948 505 960 504 967 497 Z" fill="red" /><path transform="translate(2000)" d="M 326 161 L 491 161 L 491 216 L 502 216 C 532 216 552 206 552 200 L 552 161 L 698 161 L 698 215 L 709 215 C 743 214 759 202 759 197 L 759 161 L 935 161 C 949 161 957 156 959 145 C 931 118 882 81 882 81 L 841 132 L 759 132 L 759 80 C 783 76 791 65 793 52 L 698 43 L 698 132 L 552 132 L 552 80 C 576 76 584 66 586 52 L 491 43 L 491 132 L 319 132 L 326 161 Z M 114 240 L 96 239 C 99 307 74 388 47 420 C 31 436 23 460 36 476 C 51 496 86 484 102 460 C 127 423 141 341 114 240 Z M 270 53 L 173 41 L 173 958 L 185 958 C 209 958 234 943 234 934 L 234 81 C 259 77 267 67 270 53 Z M 264 205 L 251 210 C 272 250 294 312 293 360 C 342 411 405 300 264 205 Z M 784 868 L 476 868 L 476 789 L 784 789 L 784 868 Z M 476 688 L 784 688 L 784 759 L 476 759 L 476 688 Z M 476 590 L 784 590 L 784 660 L 476 660 L 476 590 Z M 426 264 L 523 264 L 523 372 L 426 372 L 426 264 Z M 577 264 L 678 264 L 678 372 L 577 372 L 577 264 Z M 733 264 L 835 264 L 835 372 L 733 372 L 733 264 Z M 973 496 L 898 423 L 858 465 L 869 465 L 869 466 L 385 466 C 384 455 383 442 380 430 C 402 428 426 418 426 412 L 426 401 L 835 401 L 835 422 L 845 422 C 865 422 896 409 897 403 L 897 273 C 913 270 928 262 934 256 L 860 200 L 826 236 L 432 236 L 366 205 L 366 426 L 362 426 C 362 473 331 521 302 540 C 283 553 271 574 281 592 C 292 614 325 611 345 595 C 366 578 384 544 386 496 L 857 496 C 850 513 843 531 836 545 L 809 524 L 775 562 L 481 562 L 413 530 L 413 954 L 423 954 C 450 954 476 939 476 932 L 476 898 L 784 898 L 784 951 L 793 951 C 816 951 848 933 849 925 L 849 598 C 866 595 878 588 884 582 L 853 558 C 879 543 915 521 936 505 C 954 504 965 504 973 496 Z" fill="blue" fill-opacity="0.5" /><path transform="translate(2000)" d="M 101 235 L 82 234 C 88 302 66 383 42 416 C 25 434 17 456 32 473 C 48 493 82 480 97 455 C 120 418 130 336 101 235 Z M 257 53 L 158 41 L 158 958 L 171 958 C 194 958 220 944 220 935 L 220 81 C 246 77 254 67 257 53 Z M 241 218 L 228 225 C 252 266 277 331 278 381 C 329 430 388 316 241 218 Z M 740 211 L 740 166 L 937 166 C 951 166 959 161 961 150 C 933 120 885 81 885 81 L 843 136 L 740 136 L 740 81 C 765 77 774 68 776 55 L 678 44 L 678 228 L 691 228 C 713 228 740 217 740 211 Z M 310 136 L 329 166 L 512 166 L 512 230 L 524 230 C 546 230 574 219 574 213 L 574 81 C 598 77 608 68 610 55 L 512 44 L 512 136 L 310 136 Z M 773 882 L 495 882 L 495 801 L 773 801 L 773 882 Z M 495 771 L 495 694 L 773 694 L 773 771 L 495 771 Z M 495 588 L 773 588 L 773 666 L 495 666 L 495 588 Z M 427 275 L 523 275 L 523 367 L 427 367 L 427 275 Z M 578 275 L 678 275 L 678 367 L 578 367 L 578 275 Z M 733 275 L 834 275 L 834 367 L 733 367 L 733 275 Z M 368 217 L 368 434 L 377 434 C 400 434 427 421 427 416 L 427 397 L 834 397 L 834 426 L 844 426 C 864 426 894 413 895 407 L 895 284 C 912 281 927 273 933 266 L 859 211 L 825 247 L 432 247 L 368 217 Z M 874 577 L 802 521 L 770 560 L 507 560 L 433 528 L 433 957 L 443 957 C 474 957 495 943 495 937 L 495 912 L 773 912 L 773 948 L 783 948 C 812 948 836 933 836 929 L 836 593 C 857 590 868 585 874 577 Z M 967 497 L 899 430 L 863 468 L 370 468 C 368 457 366 443 362 429 L 344 429 C 347 472 322 521 298 542 C 279 554 268 573 278 592 C 289 613 321 609 338 593 C 357 577 371 542 372 497 L 868 497 C 864 519 858 544 854 559 L 869 565 C 887 551 914 524 930 506 C 948 505 960 504 967 497 Z" fill="red" fill-opacity="0.5" /><text text-anchor="middle" x="500" y="1064" font-family="Arial" font-size="64">Source Han Serif KR</text><text text-anchor="middle" x="1500" y="1064" font-family="Arial" font-size="64">HKSerif (uni61F5KX-regular)</text></svg>