<svg width="3000" height="1080" xmlns="http://www.w3.org/2000/svg" style="background:#fff"><path d="M 128 55 L 119 65 C 166 95 222 149 240 197 C 313 236 352 88 128 55 Z M 53 278 L 43 287 C 86 313 137 363 153 405 C 226 445 263 301 53 278 Z M 350 217 L 332 212 C 147 621 147 621 127 656 C 117 676 114 677 102 677 L 57 677 L 57 699 C 79 701 93 703 106 713 C 129 728 135 806 121 908 C 123 940 135 958 154 958 C 187 958 207 932 209 889 C 213 806 184 760 183 717 C 183 691 190 661 200 629 C 215 580 305 344 350 217 Z M 674 287 L 674 415 C 674 454 683 468 743 468 L 813 468 C 925 468 948 460 948 436 C 948 424 940 418 921 413 L 918 412 L 909 412 C 904 414 896 416 890 416 C 887 417 881 417 875 417 C 865 418 844 418 818 418 L 757 418 C 734 418 731 414 731 403 L 731 291 L 731 279 C 772 273 808 267 841 261 C 856 283 869 303 877 321 C 948 364 989 225 744 130 L 733 138 C 762 165 796 203 826 241 C 664 251 510 258 413 260 C 498 211 590 141 644 88 C 666 91 679 83 683 73 L 588 30 C 548 90 448 202 369 247 C 361 252 344 255 344 255 L 375 336 C 380 334 386 330 390 324 C 424 320 457 316 489 312 C 467 402 411 459 297 503 L 303 519 C 447 484 529 423 559 303 C 599 298 637 292 674 287 Z M 529 570 L 761 570 C 725 646 682 708 630 760 C 574 723 527 679 489 626 C 503 609 516 590 529 570 Z M 882 567 L 805 501 L 767 540 L 548 540 C 558 523 568 505 577 487 C 598 491 611 482 616 472 L 528 433 C 509 485 485 533 459 579 C 444 554 432 527 421 498 L 404 509 C 415 543 428 575 442 606 C 400 672 352 729 305 770 L 318 782 C 371 750 421 705 468 652 C 501 707 542 755 589 796 C 514 858 421 903 307 941 L 316 959 C 448 929 550 887 632 830 C 707 884 797 924 901 952 C 911 923 932 905 959 901 L 961 890 C 856 869 762 837 680 791 C 745 735 796 666 840 580 C 861 578 874 575 882 567 Z" fill="blue" /><path transform="translate(1000)" d="M 128 55 L 119 65 C 166 95 222 149 240 197 C 313 236 352 88 128 55 Z M 53 278 L 43 287 C 86 313 137 363 153 405 C 226 445 263 301 53 278 Z M 494 291 L 486 292 C 468 385 416 481 286 537 L 294 551 C 453 503 530 419 563 291 L 494 291 Z M 350 217 L 332 212 C 147 621 147 621 127 656 C 117 676 114 677 102 677 L 57 677 L 57 699 C 79 701 93 703 106 713 C 129 728 135 806 121 908 C 123 940 135 958 154 958 C 187 958 207 932 209 889 C 213 806 184 760 183 717 C 183 691 190 661 200 629 C 215 580 305 344 350 217 Z M 672 287 L 672 447 C 672 486 683 500 743 500 L 813 500 C 925 500 948 492 948 464 C 948 450 940 444 921 439 L 918 438 L 909 438 C 904 440 896 442 890 442 C 887 443 881 443 875 443 C 865 444 844 444 818 444 L 758 444 C 735 444 732 440 732 435 L 732 291 L 732 279 C 772 273 808 267 841 261 C 856 283 869 303 877 321 C 948 364 989 225 744 130 L 733 138 C 762 165 796 203 826 241 C 664 251 510 258 413 260 C 498 211 590 141 644 88 C 666 91 679 83 683 73 L 588 30 C 548 90 448 202 369 247 C 361 252 344 255 344 255 L 375 336 C 380 334 386 330 390 324 C 424 320 457 316 489 312 L 559 303 C 599 298 637 292 672 287 Z M 527 611 L 749 611 C 718 667 676 717 624 760 C 576 725 537 684 504 636 C 512 628 520 620 527 611 Z M 870 607 L 798 541 L 754 582 L 551 582 C 570 559 586 535 600 512 C 624 516 631 513 636 503 L 540 468 C 491 584 390 708 282 778 L 293 791 C 364 758 431 709 487 654 C 515 704 548 749 588 789 C 496 855 379 906 242 939 L 249 955 C 401 930 526 886 626 823 C 698 883 791 928 916 959 C 923 926 943 909 970 901 L 972 890 C 848 870 750 837 672 791 C 735 743 787 686 827 620 C 852 619 862 616 870 607 Z" fill="red" /><path transform="translate(2000)" d="M 128 55 L 119 65 C 166 95 222 149 240 197 C 313 236 352 88 128 55 Z M 53 278 L 43 287 C 86 313 137 363 153 405 C 226 445 263 301 53 278 Z M 350 217 L 332 212 C 147 621 147 621 127 656 C 117 676 114 677 102 677 L 57 677 L 57 699 C 79 701 93 703 106 713 C 129 728 135 806 121 908 C 123 940 135 958 154 958 C 187 958 207 932 209 889 C 213 806 184 760 183 717 C 183 691 190 661 200 629 C 215 580 305 344 350 217 Z M 674 287 L 674 415 C 674 454 683 468 743 468 L 813 468 C 925 468 948 460 948 436 C 948 424 940 418 921 413 L 918 412 L 909 412 C 904 414 896 416 890 416 C 887 417 881 417 875 417 C 865 418 844 418 818 418 L 757 418 C 734 418 731 414 731 403 L 731 291 L 731 279 C 772 273 808 267 841 261 C 856 283 869 303 877 321 C 948 364 989 225 744 130 L 733 138 C 762 165 796 203 826 241 C 664 251 510 258 413 260 C 498 211 590 141 644 88 C 666 91 679 83 683 73 L 588 30 C 548 90 448 202 369 247 C 361 252 344 255 344 255 L 375 336 C 380 334 386 330 390 324 C 424 320 457 316 489 312 C 467 402 411 459 297 503 L 303 519 C 447 484 529 423 559 303 C 599 298 637 292 674 287 Z M 529 570 L 761 570 C 725 646 682 708 630 760 C 574 723 527 679 489 626 C 503 609 516 590 529 570 Z M 882 567 L 805 501 L 767 540 L 548 540 C 558 523 568 505 577 487 C 598 491 611 482 616 472 L 528 433 C 509 485 485 533 459 579 C 444 554 432 527 421 498 L 404 509 C 415 543 428 575 442 606 C 400 672 352 729 305 770 L 318 782 C 371 750 421 705 468 652 C 501 707 542 755 589 796 C 514 858 421 903 307 941 L 316 959 C 448 929 550 887 632 830 C 707 884 797 924 901 952 C 911 923 932 905 959 901 L 961 890 C 856 869 762 837 680 791 C 745 735 796 666 840 580 C 861 578 874 575 882 567 Z" fill="blue" fill-opacity="0.5" /><path transform="translate(2000)" d="M 128 55 L 119 65 C 166 95 222 149 240 197 C 313 236 352 88 128 55 Z M 53 278 L 43 287 C 86 313 137 363 153 405 C 226 445 263 301 53 278 Z M 494 291 L 486 292 C 468 385 416 481 286 537 L 294 551 C 453 503 530 419 563 291 L 494 291 Z M 350 217 L 332 212 C 147 621 147 621 127 656 C 117 676 114 677 102 677 L 57 677 L 57 699 C 79 701 93 703 106 713 C 129 728 135 806 121 908 C 123 940 135 958 154 958 C 187 958 207 932 209 889 C 213 806 184 760 183 717 C 183 691 190 661 200 629 C 215 580 305 344 350 217 Z M 672 287 L 672 447 C 672 486 683 500 743 500 L 813 500 C 925 500 948 492 948 464 C 948 450 940 444 921 439 L 918 438 L 909 438 C 904 440 896 442 890 442 C 887 443 881 443 875 443 C 865 444 844 444 818 444 L 758 444 C 735 444 732 440 732 435 L 732 291 L 732 279 C 772 273 808 267 841 261 C 856 283 869 303 877 321 C 948 364 989 225 744 130 L 733 138 C 762 165 796 203 826 241 C 664 251 510 258 413 260 C 498 211 590 141 644 88 C 666 91 679 83 683 73 L 588 30 C 548 90 448 202 369 247 C 361 252 344 255 344 255 L 375 336 C 380 334 386 330 390 324 C 424 320 457 316 489 312 L 559 303 C 599 298 637 292 672 287 Z M 527 611 L 749 611 C 718 667 676 717 624 760 C 576 725 537 684 504 636 C 512 628 520 620 527 611 Z M 870 607 L 798 541 L 754 582 L 551 582 C 570 559 586 535 600 512 C 624 516 631 513 636 503 L 540 468 C 491 584 390 708 282 778 L 293 791 C 364 758 431 709 487 654 C 515 704 548 749 588 789 C 496 855 379 906 242 939 L 249 955 C 401 930 526 886 626 823 C 698 883 791 928 916 959 C 923 926 943 909 970 901 L 972 890 C 848 870 750 837 672 791 C 735 743 787 686 827 620 C 852 619 862 616 870 607 Z" fill="red" fill-opacity="0.5" /><text text-anchor="middle" x="500" y="1064" font-family="Arial" font-size="64">Source Han Serif TW</text><text text-anchor="middle" x="1500" y="1064" font-family="Arial" font-size="64">HKSerif (uni6D5AHK-regular)</text></svg>