<svg width="3000" height="1080" xmlns="http://www.w3.org/2000/svg" style="background:#fff"><path d="M 198 468 L 198 234 L 855 234 C 844 264 827 301 816 324 L 830 332 C 860 310 902 271 926 243 C 945 242 956 241 964 234 L 893 166 L 855 205 L 531 205 L 531 151 L 853 151 C 867 151 877 146 879 135 C 845 104 792 62 792 62 L 745 121 L 531 121 L 531 76 C 556 73 566 63 568 49 L 467 38 L 467 205 L 210 205 L 135 173 L 135 469 C 135 636 126 810 34 946 L 48 957 C 188 823 198 626 198 468 Z M 539 441 L 661 441 C 836 441 866 436 866 409 C 866 397 858 392 833 386 L 830 384 L 821 384 C 815 387 805 389 799 390 C 793 390 784 391 775 391 C 760 392 715 392 667 392 L 546 392 C 506 392 504 389 504 377 L 504 346 L 745 326 C 758 326 768 319 769 307 C 738 284 687 251 687 251 L 649 305 L 504 317 L 504 275 C 521 272 530 263 532 252 L 442 241 L 442 323 L 228 341 L 238 369 L 442 352 L 442 383 C 442 429 456 441 539 441 Z M 284 767 L 266 766 C 261 812 224 856 192 873 C 173 884 160 900 168 919 C 178 939 209 936 230 923 C 263 903 299 848 284 767 Z M 351 509 L 538 509 L 538 577 L 351 577 L 351 509 Z M 600 509 L 786 509 L 786 577 L 600 577 L 600 509 Z M 786 674 L 600 674 L 600 606 L 786 606 L 786 674 Z M 538 674 L 351 674 L 351 606 L 538 606 L 538 674 Z M 351 717 L 351 704 L 786 704 L 786 732 L 796 732 C 817 732 848 717 849 711 L 849 518 C 865 515 880 507 885 500 L 811 444 L 777 480 L 356 480 L 288 450 L 288 736 L 298 736 C 323 736 351 723 351 717 Z M 528 716 L 516 723 C 542 753 573 806 579 846 C 633 889 688 778 528 716 Z M 770 872 L 767 790 L 754 790 C 745 827 736 859 728 870 C 722 878 719 880 705 881 C 690 882 641 882 584 882 L 451 882 C 406 882 403 880 403 867 L 403 781 C 420 778 430 769 431 757 L 343 747 L 343 875 C 343 920 358 933 444 933 L 581 933 C 768 933 799 925 799 896 C 799 885 792 878 770 872 Z M 785 755 L 774 763 C 817 800 865 863 873 916 C 937 965 988 824 785 755 Z" fill="blue" /><path transform="translate(1000)" d="M 524 267 L 434 256 L 434 320 L 254 332 L 264 360 L 434 349 L 434 383 C 434 431 449 443 540 443 L 636 443 C 835 443 865 435 865 408 C 865 396 858 390 834 384 L 830 324 L 820 324 C 811 352 800 375 792 384 C 787 389 781 391 768 392 C 748 393 697 393 640 393 L 547 393 C 500 393 496 391 496 377 L 496 346 L 714 332 C 727 332 738 325 739 314 C 713 293 675 266 661 256 L 614 309 L 496 317 L 496 290 C 513 287 522 278 524 267 Z M 220 444 L 220 248 L 815 248 C 798 281 773 322 756 346 L 770 353 C 806 330 860 287 888 257 C 907 256 919 255 927 248 L 857 180 L 818 219 L 529 219 L 529 160 L 853 160 C 867 160 876 155 879 144 C 846 113 792 73 792 73 L 746 130 L 529 130 L 529 74 C 551 70 559 60 561 47 L 463 37 L 463 219 L 232 219 L 156 185 L 156 445 C 156 617 143 799 41 946 L 54 958 C 208 813 220 603 220 444 Z M 325 765 L 308 765 C 305 816 265 857 227 872 C 209 881 196 898 203 916 C 212 937 242 936 266 924 C 302 906 344 853 325 765 Z M 354 513 L 536 513 L 536 579 L 354 579 L 354 513 Z M 598 513 L 786 513 L 786 579 L 598 579 L 598 513 Z M 786 674 L 598 674 L 598 608 L 786 608 L 786 674 Z M 536 674 L 354 674 L 354 608 L 536 608 L 536 674 Z M 354 704 L 786 704 L 786 735 L 795 735 C 816 735 848 719 849 713 L 849 522 C 866 519 880 511 886 504 L 811 448 L 777 485 L 360 485 L 292 454 L 292 739 L 300 739 C 327 739 354 725 354 719 L 354 704 Z M 510 722 L 502 732 C 541 752 594 794 617 826 C 680 850 702 731 510 722 Z M 763 883 L 760 798 L 748 798 C 738 835 729 869 722 881 C 718 889 714 890 703 891 C 690 892 651 892 604 892 L 497 892 C 460 892 458 890 458 878 L 458 779 C 473 776 483 767 485 756 L 397 747 L 397 888 C 397 933 410 946 488 946 L 602 946 C 761 946 789 935 789 908 C 789 896 784 889 763 883 Z M 772 755 L 763 765 C 816 798 878 863 895 916 C 967 960 1006 806 772 755 Z" fill="red" /><path transform="translate(2000)" d="M 198 468 L 198 234 L 855 234 C 844 264 827 301 816 324 L 830 332 C 860 310 902 271 926 243 C 945 242 956 241 964 234 L 893 166 L 855 205 L 531 205 L 531 151 L 853 151 C 867 151 877 146 879 135 C 845 104 792 62 792 62 L 745 121 L 531 121 L 531 76 C 556 73 566 63 568 49 L 467 38 L 467 205 L 210 205 L 135 173 L 135 469 C 135 636 126 810 34 946 L 48 957 C 188 823 198 626 198 468 Z M 539 441 L 661 441 C 836 441 866 436 866 409 C 866 397 858 392 833 386 L 830 384 L 821 384 C 815 387 805 389 799 390 C 793 390 784 391 775 391 C 760 392 715 392 667 392 L 546 392 C 506 392 504 389 504 377 L 504 346 L 745 326 C 758 326 768 319 769 307 C 738 284 687 251 687 251 L 649 305 L 504 317 L 504 275 C 521 272 530 263 532 252 L 442 241 L 442 323 L 228 341 L 238 369 L 442 352 L 442 383 C 442 429 456 441 539 441 Z M 284 767 L 266 766 C 261 812 224 856 192 873 C 173 884 160 900 168 919 C 178 939 209 936 230 923 C 263 903 299 848 284 767 Z M 351 509 L 538 509 L 538 577 L 351 577 L 351 509 Z M 600 509 L 786 509 L 786 577 L 600 577 L 600 509 Z M 786 674 L 600 674 L 600 606 L 786 606 L 786 674 Z M 538 674 L 351 674 L 351 606 L 538 606 L 538 674 Z M 351 717 L 351 704 L 786 704 L 786 732 L 796 732 C 817 732 848 717 849 711 L 849 518 C 865 515 880 507 885 500 L 811 444 L 777 480 L 356 480 L 288 450 L 288 736 L 298 736 C 323 736 351 723 351 717 Z M 528 716 L 516 723 C 542 753 573 806 579 846 C 633 889 688 778 528 716 Z M 770 872 L 767 790 L 754 790 C 745 827 736 859 728 870 C 722 878 719 880 705 881 C 690 882 641 882 584 882 L 451 882 C 406 882 403 880 403 867 L 403 781 C 420 778 430 769 431 757 L 343 747 L 343 875 C 343 920 358 933 444 933 L 581 933 C 768 933 799 925 799 896 C 799 885 792 878 770 872 Z M 785 755 L 774 763 C 817 800 865 863 873 916 C 937 965 988 824 785 755 Z" fill="blue" fill-opacity="0.5" /><path transform="translate(2000)" d="M 524 267 L 434 256 L 434 320 L 254 332 L 264 360 L 434 349 L 434 383 C 434 431 449 443 540 443 L 636 443 C 835 443 865 435 865 408 C 865 396 858 390 834 384 L 830 324 L 820 324 C 811 352 800 375 792 384 C 787 389 781 391 768 392 C 748 393 697 393 640 393 L 547 393 C 500 393 496 391 496 377 L 496 346 L 714 332 C 727 332 738 325 739 314 C 713 293 675 266 661 256 L 614 309 L 496 317 L 496 290 C 513 287 522 278 524 267 Z M 220 444 L 220 248 L 815 248 C 798 281 773 322 756 346 L 770 353 C 806 330 860 287 888 257 C 907 256 919 255 927 248 L 857 180 L 818 219 L 529 219 L 529 160 L 853 160 C 867 160 876 155 879 144 C 846 113 792 73 792 73 L 746 130 L 529 130 L 529 74 C 551 70 559 60 561 47 L 463 37 L 463 219 L 232 219 L 156 185 L 156 445 C 156 617 143 799 41 946 L 54 958 C 208 813 220 603 220 444 Z M 325 765 L 308 765 C 305 816 265 857 227 872 C 209 881 196 898 203 916 C 212 937 242 936 266 924 C 302 906 344 853 325 765 Z M 354 513 L 536 513 L 536 579 L 354 579 L 354 513 Z M 598 513 L 786 513 L 786 579 L 598 579 L 598 513 Z M 786 674 L 598 674 L 598 608 L 786 608 L 786 674 Z M 536 674 L 354 674 L 354 608 L 536 608 L 536 674 Z M 354 704 L 786 704 L 786 735 L 795 735 C 816 735 848 719 849 713 L 849 522 C 866 519 880 511 886 504 L 811 448 L 777 485 L 360 485 L 292 454 L 292 739 L 300 739 C 327 739 354 725 354 719 L 354 704 Z M 510 722 L 502 732 C 541 752 594 794 617 826 C 680 850 702 731 510 722 Z M 763 883 L 760 798 L 748 798 C 738 835 729 869 722 881 C 718 889 714 890 703 891 C 690 892 651 892 604 892 L 497 892 C 460 892 458 890 458 878 L 458 779 C 473 776 483 767 485 756 L 397 747 L 397 888 C 397 933 410 946 488 946 L 602 946 C 761 946 789 935 789 908 C 789 896 784 889 763 883 Z M 772 755 L 763 765 C 816 798 878 863 895 916 C 967 960 1006 806 772 755 Z" fill="red" fill-opacity="0.5" /><text text-anchor="middle" x="500" y="1064" font-family="Arial" font-size="64">Source Han Serif TW</text><text text-anchor="middle" x="1500" y="1064" font-family="Arial" font-size="64">HKSerif (uni616EHK-regular)</text></svg>