<svg width="3000" height="1080" xmlns="http://www.w3.org/2000/svg" style="background:#fff"><path d="M 511 141 L 636 141 C 631 272 608 385 416 475 L 428 492 C 661 408 694 288 704 141 L 842 141 C 835 285 824 368 805 385 C 797 392 789 394 773 394 C 755 394 696 389 663 386 L 663 403 C 693 407 727 415 740 424 C 751 432 755 446 755 462 C 790 462 824 456 847 436 C 881 406 897 319 903 149 C 923 146 935 141 942 134 L 868 74 L 833 111 L 502 111 L 511 141 Z M 59 392 L 89 474 C 99 472 109 464 114 452 C 160 442 203 433 244 425 L 244 504 L 256 504 C 280 504 307 489 307 481 L 307 409 C 381 391 445 374 500 359 L 497 342 C 432 351 367 360 307 368 L 307 285 L 464 285 C 478 285 488 280 491 269 C 462 242 417 206 417 206 L 376 255 L 307 255 L 307 176 L 470 176 C 483 176 492 171 495 160 C 466 132 420 97 420 97 L 380 147 L 307 147 L 307 67 C 328 64 336 55 338 43 L 244 33 L 244 147 L 71 147 L 79 176 L 244 176 L 244 255 L 93 255 L 101 285 L 244 285 L 244 375 C 166 384 101 390 59 392 Z M 863 684 L 816 742 L 534 742 L 534 664 L 832 664 C 846 664 856 659 859 648 C 826 618 773 579 773 579 L 728 635 L 534 635 L 534 550 C 602 542 666 532 719 523 C 743 534 761 535 770 527 L 701 458 C 585 494 367 537 194 556 L 197 575 C 285 573 379 566 469 557 L 469 635 L 131 635 L 139 664 L 469 664 L 469 742 L 49 742 L 58 772 L 469 772 L 469 861 C 469 874 464 879 445 879 C 424 879 312 871 312 871 L 312 887 C 361 893 389 900 404 912 C 418 920 425 937 427 956 C 520 947 534 913 534 862 L 534 772 L 924 772 C 938 772 947 767 950 756 C 917 725 863 684 863 684 Z" fill="blue" /><path transform="translate(1000)" d="M 513 142 L 640 142 C 635 272 612 385 420 475 L 432 492 C 665 408 698 288 708 142 L 852 142 C 846 283 835 363 815 382 C 808 388 800 390 783 390 C 766 390 707 385 674 383 L 673 400 C 704 404 738 412 750 421 C 762 429 766 442 766 459 C 801 459 834 453 857 433 C 892 404 908 317 914 150 C 934 147 945 142 952 135 L 879 74 L 843 112 L 504 112 L 513 142 Z M 253 365 L 57 365 L 65 394 L 253 394 L 253 505 L 264 505 C 288 505 315 490 315 482 L 315 394 L 507 394 C 520 394 530 389 532 378 C 503 350 457 315 457 315 L 417 365 L 315 365 L 315 282 L 473 282 C 487 282 496 277 499 266 C 470 239 425 204 425 204 L 385 253 L 315 253 L 315 174 L 480 174 C 494 174 502 169 505 158 C 477 130 431 94 431 94 L 390 144 L 315 144 L 315 69 C 337 65 345 56 347 44 L 253 34 L 253 144 L 81 144 L 89 174 L 253 174 L 253 253 L 102 253 L 110 282 L 253 282 L 253 365 Z M 863 684 L 816 742 L 534 742 L 534 664 L 832 664 C 846 664 856 659 859 648 C 826 618 773 579 773 579 L 728 635 L 534 635 L 534 550 C 602 542 666 532 719 523 C 743 534 761 535 770 527 L 701 458 C 585 494 367 537 194 556 L 197 575 C 285 573 379 566 469 557 L 469 635 L 131 635 L 139 664 L 469 664 L 469 742 L 49 742 L 58 772 L 469 772 L 469 861 C 469 874 464 879 445 879 C 424 879 312 871 312 871 L 312 887 C 361 893 389 900 404 912 C 418 920 425 937 427 956 C 520 947 534 913 534 862 L 534 772 L 924 772 C 938 772 947 767 950 756 C 917 725 863 684 863 684 Z" fill="red" /><path transform="translate(2000)" d="M 511 141 L 636 141 C 631 272 608 385 416 475 L 428 492 C 661 408 694 288 704 141 L 842 141 C 835 285 824 368 805 385 C 797 392 789 394 773 394 C 755 394 696 389 663 386 L 663 403 C 693 407 727 415 740 424 C 751 432 755 446 755 462 C 790 462 824 456 847 436 C 881 406 897 319 903 149 C 923 146 935 141 942 134 L 868 74 L 833 111 L 502 111 L 511 141 Z M 59 392 L 89 474 C 99 472 109 464 114 452 C 160 442 203 433 244 425 L 244 504 L 256 504 C 280 504 307 489 307 481 L 307 409 C 381 391 445 374 500 359 L 497 342 C 432 351 367 360 307 368 L 307 285 L 464 285 C 478 285 488 280 491 269 C 462 242 417 206 417 206 L 376 255 L 307 255 L 307 176 L 470 176 C 483 176 492 171 495 160 C 466 132 420 97 420 97 L 380 147 L 307 147 L 307 67 C 328 64 336 55 338 43 L 244 33 L 244 147 L 71 147 L 79 176 L 244 176 L 244 255 L 93 255 L 101 285 L 244 285 L 244 375 C 166 384 101 390 59 392 Z M 863 684 L 816 742 L 534 742 L 534 664 L 832 664 C 846 664 856 659 859 648 C 826 618 773 579 773 579 L 728 635 L 534 635 L 534 550 C 602 542 666 532 719 523 C 743 534 761 535 770 527 L 701 458 C 585 494 367 537 194 556 L 197 575 C 285 573 379 566 469 557 L 469 635 L 131 635 L 139 664 L 469 664 L 469 742 L 49 742 L 58 772 L 469 772 L 469 861 C 469 874 464 879 445 879 C 424 879 312 871 312 871 L 312 887 C 361 893 389 900 404 912 C 418 920 425 937 427 956 C 520 947 534 913 534 862 L 534 772 L 924 772 C 938 772 947 767 950 756 C 917 725 863 684 863 684 Z" fill="blue" fill-opacity="0.5" /><path transform="translate(2000)" d="M 513 142 L 640 142 C 635 272 612 385 420 475 L 432 492 C 665 408 698 288 708 142 L 852 142 C 846 283 835 363 815 382 C 808 388 800 390 783 390 C 766 390 707 385 674 383 L 673 400 C 704 404 738 412 750 421 C 762 429 766 442 766 459 C 801 459 834 453 857 433 C 892 404 908 317 914 150 C 934 147 945 142 952 135 L 879 74 L 843 112 L 504 112 L 513 142 Z M 253 365 L 57 365 L 65 394 L 253 394 L 253 505 L 264 505 C 288 505 315 490 315 482 L 315 394 L 507 394 C 520 394 530 389 532 378 C 503 350 457 315 457 315 L 417 365 L 315 365 L 315 282 L 473 282 C 487 282 496 277 499 266 C 470 239 425 204 425 204 L 385 253 L 315 253 L 315 174 L 480 174 C 494 174 502 169 505 158 C 477 130 431 94 431 94 L 390 144 L 315 144 L 315 69 C 337 65 345 56 347 44 L 253 34 L 253 144 L 81 144 L 89 174 L 253 174 L 253 253 L 102 253 L 110 282 L 253 282 L 253 365 Z M 863 684 L 816 742 L 534 742 L 534 664 L 832 664 C 846 664 856 659 859 648 C 826 618 773 579 773 579 L 728 635 L 534 635 L 534 550 C 602 542 666 532 719 523 C 743 534 761 535 770 527 L 701 458 C 585 494 367 537 194 556 L 197 575 C 285 573 379 566 469 557 L 469 635 L 131 635 L 139 664 L 469 664 L 469 742 L 49 742 L 58 772 L 469 772 L 469 861 C 469 874 464 879 445 879 C 424 879 312 871 312 871 L 312 887 C 361 893 389 900 404 912 C 418 920 425 937 427 956 C 520 947 534 913 534 862 L 534 772 L 924 772 C 938 772 947 767 950 756 C 917 725 863 684 863 684 Z" fill="red" fill-opacity="0.5" /><text text-anchor="middle" x="500" y="1064" font-family="Arial" font-size="64">Source Han Serif TW</text><text text-anchor="middle" x="1500" y="1064" font-family="Arial" font-size="64">HKSerif (uni6308HK-regular)</text></svg>