<svg width="3000" height="1080" xmlns="http://www.w3.org/2000/svg" style="background:#fff"><path d="M 452 251 L 777 251 L 777 348 L 452 348 L 452 251 Z M 326 131 L 387 131 L 387 486 L 299 486 L 307 516 L 922 516 C 936 516 946 511 948 500 C 917 470 868 431 868 431 L 823 486 L 452 486 L 452 377 L 777 377 L 777 413 L 786 413 C 806 413 837 399 837 394 L 837 259 C 855 256 869 248 874 242 L 802 186 L 768 221 L 452 221 L 452 131 L 898 131 C 911 131 921 126 923 115 C 892 86 842 47 842 47 L 799 102 L 318 102 L 326 131 Z M 362 162 L 346 156 C 187 362 187 362 167 386 C 154 401 151 401 138 401 L 90 401 L 90 423 C 109 425 122 428 136 435 C 157 447 162 494 151 574 C 155 599 168 613 184 613 C 219 613 238 592 239 557 C 241 501 216 470 216 439 C 216 420 224 397 236 375 C 250 349 330 220 362 162 Z M 135 53 L 126 64 C 174 89 233 139 255 180 C 329 209 349 65 135 53 Z M 63 190 L 54 200 C 94 223 145 268 161 307 C 231 339 259 202 63 190 Z M 43 923 L 53 938 C 169 895 299 821 372 766 C 399 769 413 763 418 753 L 336 700 C 280 762 142 872 43 923 Z M 593 721 L 585 735 C 678 777 816 859 873 920 C 956 943 950 787 593 721 Z M 860 576 L 810 640 L 532 640 L 532 571 C 557 567 567 557 569 543 L 465 532 L 465 640 L 60 640 L 68 669 L 465 669 L 465 960 L 477 960 C 502 960 532 946 532 939 L 532 669 L 924 669 C 938 669 949 664 951 653 C 916 620 860 576 860 576 Z" fill="blue" /><path transform="translate(1000)" d="M 452 251 L 777 251 L 777 348 L 452 348 L 452 251 Z M 326 131 L 387 131 L 387 486 L 299 486 L 307 516 L 922 516 C 936 516 946 511 948 500 C 917 470 868 431 868 431 L 823 486 L 452 486 L 452 377 L 777 377 L 777 413 L 786 413 C 806 413 837 399 837 394 L 837 259 C 855 256 869 248 874 242 L 802 186 L 768 221 L 452 221 L 452 131 L 898 131 C 911 131 921 126 923 115 C 892 86 842 47 842 47 L 799 102 L 318 102 L 326 131 Z M 362 162 L 346 156 C 187 362 187 362 167 386 C 154 401 151 401 138 401 L 90 401 L 90 423 C 109 425 122 428 136 435 C 157 447 162 494 151 574 C 155 599 168 613 184 613 C 219 613 238 592 239 557 C 241 501 216 470 216 439 C 216 420 224 397 236 375 C 250 349 330 220 362 162 Z M 135 53 L 126 64 C 174 89 233 139 255 180 C 329 209 349 65 135 53 Z M 63 190 L 54 200 C 94 223 145 268 161 307 C 231 339 259 202 63 190 Z M 568 664 L 926 664 C 940 664 951 659 954 648 C 919 615 862 571 862 571 L 812 634 L 532 634 L 532 574 C 557 570 567 561 569 547 L 465 536 L 465 634 L 44 634 L 53 664 L 397 664 C 311 766 181 858 35 921 L 43 937 C 214 883 364 800 465 692 L 465 957 L 477 957 C 502 957 532 943 532 936 L 532 664 L 540 664 C 622 789 760 883 907 932 C 916 899 940 877 969 871 L 970 860 C 823 831 660 759 568 664 Z" fill="red" /><path transform="translate(2000)" d="M 452 251 L 777 251 L 777 348 L 452 348 L 452 251 Z M 326 131 L 387 131 L 387 486 L 299 486 L 307 516 L 922 516 C 936 516 946 511 948 500 C 917 470 868 431 868 431 L 823 486 L 452 486 L 452 377 L 777 377 L 777 413 L 786 413 C 806 413 837 399 837 394 L 837 259 C 855 256 869 248 874 242 L 802 186 L 768 221 L 452 221 L 452 131 L 898 131 C 911 131 921 126 923 115 C 892 86 842 47 842 47 L 799 102 L 318 102 L 326 131 Z M 362 162 L 346 156 C 187 362 187 362 167 386 C 154 401 151 401 138 401 L 90 401 L 90 423 C 109 425 122 428 136 435 C 157 447 162 494 151 574 C 155 599 168 613 184 613 C 219 613 238 592 239 557 C 241 501 216 470 216 439 C 216 420 224 397 236 375 C 250 349 330 220 362 162 Z M 135 53 L 126 64 C 174 89 233 139 255 180 C 329 209 349 65 135 53 Z M 63 190 L 54 200 C 94 223 145 268 161 307 C 231 339 259 202 63 190 Z M 43 923 L 53 938 C 169 895 299 821 372 766 C 399 769 413 763 418 753 L 336 700 C 280 762 142 872 43 923 Z M 593 721 L 585 735 C 678 777 816 859 873 920 C 956 943 950 787 593 721 Z M 860 576 L 810 640 L 532 640 L 532 571 C 557 567 567 557 569 543 L 465 532 L 465 640 L 60 640 L 68 669 L 465 669 L 465 960 L 477 960 C 502 960 532 946 532 939 L 532 669 L 924 669 C 938 669 949 664 951 653 C 916 620 860 576 860 576 Z" fill="blue" fill-opacity="0.5" /><path transform="translate(2000)" d="M 452 251 L 777 251 L 777 348 L 452 348 L 452 251 Z M 326 131 L 387 131 L 387 486 L 299 486 L 307 516 L 922 516 C 936 516 946 511 948 500 C 917 470 868 431 868 431 L 823 486 L 452 486 L 452 377 L 777 377 L 777 413 L 786 413 C 806 413 837 399 837 394 L 837 259 C 855 256 869 248 874 242 L 802 186 L 768 221 L 452 221 L 452 131 L 898 131 C 911 131 921 126 923 115 C 892 86 842 47 842 47 L 799 102 L 318 102 L 326 131 Z M 362 162 L 346 156 C 187 362 187 362 167 386 C 154 401 151 401 138 401 L 90 401 L 90 423 C 109 425 122 428 136 435 C 157 447 162 494 151 574 C 155 599 168 613 184 613 C 219 613 238 592 239 557 C 241 501 216 470 216 439 C 216 420 224 397 236 375 C 250 349 330 220 362 162 Z M 135 53 L 126 64 C 174 89 233 139 255 180 C 329 209 349 65 135 53 Z M 63 190 L 54 200 C 94 223 145 268 161 307 C 231 339 259 202 63 190 Z M 568 664 L 926 664 C 940 664 951 659 954 648 C 919 615 862 571 862 571 L 812 634 L 532 634 L 532 574 C 557 570 567 561 569 547 L 465 536 L 465 634 L 44 634 L 53 664 L 397 664 C 311 766 181 858 35 921 L 43 937 C 214 883 364 800 465 692 L 465 957 L 477 957 C 502 957 532 943 532 936 L 532 664 L 540 664 C 622 789 760 883 907 932 C 916 899 940 877 969 871 L 970 860 C 823 831 660 759 568 664 Z" fill="red" fill-opacity="0.5" /><text text-anchor="middle" x="500" y="1064" font-family="Arial" font-size="64">Source Han Serif TW</text><text text-anchor="middle" x="1500" y="1064" font-family="Arial" font-size="64">HKSerif (uni6E20HK-regular)</text></svg>