<svg width="1000" height="1000" xmlns="http://www.w3.org/2000/svg"><path d="M 340 176 L 348 205 L 561 205 L 561 337 L 298 337 L 306 367 L 476 367 C 452 479 390 556 266 615 L 273 629 C 425 582 515 503 550 367 L 661 367 L 661 502 C 661 544 671 559 735 559 L 810 559 L 936 559 C 950 559 960 554 963 543 C 930 512 877 470 877 470 L 850 505 L 816 505 L 750 505 C 725 505 722 501 722 489 L 722 367 L 930 367 C 944 367 954 362 957 351 C 926 320 872 278 872 278 L 826 337 L 626 337 L 626 205 L 851 205 C 865 205 874 200 877 189 C 846 158 793 117 793 117 L 748 176 L 626 176 L 626 87 C 651 83 661 73 663 59 L 561 49 L 561 176 L 340 176 Z" fill="black" /><path d="M 123 53 L 114 63 C 159 92 215 146 232 193 C 305 234 345 87 123 53 Z" fill="black" /><path d="M 51 279 L 41 288 C 84 314 133 363 149 406 C 220 446 260 302 51 279 Z" fill="black" /><path d="M 327 211 L 309 206 C 142 621 142 621 124 656 C 115 677 111 678 99 678 L 56 678 L 56 700 C 78 702 91 704 104 714 C 126 729 132 807 118 909 C 121 941 132 958 151 958 C 185 958 205 932 207 889 C 210 807 181 762 180 716 C 180 691 186 660 195 627 C 208 578 287 339 327 211 Z" fill="black" /><path d="M 877 840 L 831 899 L 626 899 L 626 728 L 886 728 C 900 728 910 723 913 712 C 880 681 827 639 827 639 L 781 698 L 626 698 L 626 585 C 651 581 660 571 662 557 L 559 546 L 559 698 L 306 698 L 314 728 L 559 728 L 559 899 L 240 899 L 248 929 L 937 929 C 951 929 960 924 963 913 C 930 882 877 840 877 840 Z" fill="black" /></svg>