<svg width="3000" height="1080" xmlns="http://www.w3.org/2000/svg" style="background:#fff"><path d="M 549 199 L 555 215 C 606 210 660 201 710 190 L 710 414 L 574 414 L 582 444 L 710 444 L 710 708 L 556 708 L 564 737 L 937 737 C 951 737 960 732 963 721 C 934 691 888 652 888 652 L 846 708 L 772 708 L 772 444 L 917 444 C 931 444 941 439 944 428 C 913 398 864 357 864 357 L 820 414 L 772 414 L 772 175 C 817 163 859 149 892 137 C 915 145 931 144 940 135 L 863 73 C 796 116 662 171 549 199 Z M 328 408 L 320 395 C 288 414 257 433 226 451 L 226 288 L 344 288 C 357 288 367 283 369 272 C 342 243 295 204 295 204 L 256 259 L 226 259 L 226 78 C 250 75 260 65 263 51 L 164 39 L 164 259 L 40 259 L 48 288 L 164 288 L 164 486 C 106 520 56 546 30 559 L 77 634 C 85 628 91 616 92 606 C 118 586 141 566 164 547 L 164 851 C 164 866 160 871 143 871 C 125 871 42 864 42 864 L 42 881 C 80 886 101 893 114 905 C 125 916 129 933 132 954 C 216 945 226 913 226 859 L 226 495 C 267 462 300 432 328 408 Z M 969 863 L 830 863 C 662 863 541 842 453 768 C 507 676 534 571 550 463 C 570 462 580 459 587 449 L 517 387 L 478 426 L 406 426 C 440 350 486 238 511 169 C 532 168 551 164 560 155 L 484 87 L 448 124 L 295 124 L 304 154 L 451 154 C 425 230 380 345 348 415 C 335 419 322 426 313 432 L 374 480 L 401 455 L 485 455 C 474 553 454 647 416 730 C 380 689 353 637 329 570 L 315 577 C 338 655 365 717 398 766 C 361 836 307 898 234 948 L 245 962 C 325 919 384 866 428 804 C 516 903 642 933 822 933 L 928 933 C 929 904 942 881 969 876 L 969 863 Z" fill="blue" /><path transform="translate(1000)" d="M 549 199 L 555 215 C 606 210 660 201 710 190 L 710 410 L 582 410 L 590 440 L 710 440 L 710 708 L 546 708 L 554 737 L 937 737 C 951 737 960 732 963 721 C 934 691 888 652 888 652 L 846 708 L 772 708 L 772 440 L 909 440 C 923 440 933 435 936 424 C 905 394 856 353 856 353 L 812 410 L 772 410 L 772 175 C 817 163 859 149 892 137 C 915 145 931 144 940 135 L 863 73 C 796 116 662 171 549 199 Z M 328 408 L 320 395 C 288 414 257 433 226 451 L 226 288 L 344 288 C 357 288 367 283 369 272 C 342 243 295 204 295 204 L 256 259 L 226 259 L 226 78 C 250 75 260 65 263 51 L 164 39 L 164 259 L 40 259 L 48 288 L 164 288 L 164 486 C 106 520 56 546 30 559 L 77 634 C 85 628 91 616 92 606 C 118 586 141 566 164 547 L 164 851 C 164 866 160 871 143 871 C 125 871 42 864 42 864 L 42 881 C 80 886 101 893 114 905 C 125 916 129 933 132 954 C 216 945 226 913 226 859 L 226 495 C 267 462 300 432 328 408 Z M 969 863 L 830 863 C 662 863 541 842 453 768 C 507 676 534 571 550 463 C 570 462 580 459 587 449 L 517 387 L 478 426 L 406 426 C 440 350 486 238 511 169 C 532 168 551 164 560 155 L 484 87 L 448 124 L 295 124 L 304 154 L 451 154 C 425 230 380 345 348 415 C 335 419 322 426 313 432 L 374 480 L 401 455 L 485 455 C 474 553 454 647 416 730 C 380 689 353 637 329 570 L 315 577 C 338 655 365 717 398 766 C 361 836 307 898 234 948 L 245 962 C 325 919 384 866 428 804 C 516 903 642 933 822 933 L 928 933 C 929 904 942 881 969 876 L 969 863 Z" fill="red" /><path transform="translate(2000)" d="M 549 199 L 555 215 C 606 210 660 201 710 190 L 710 414 L 574 414 L 582 444 L 710 444 L 710 708 L 556 708 L 564 737 L 937 737 C 951 737 960 732 963 721 C 934 691 888 652 888 652 L 846 708 L 772 708 L 772 444 L 917 444 C 931 444 941 439 944 428 C 913 398 864 357 864 357 L 820 414 L 772 414 L 772 175 C 817 163 859 149 892 137 C 915 145 931 144 940 135 L 863 73 C 796 116 662 171 549 199 Z M 328 408 L 320 395 C 288 414 257 433 226 451 L 226 288 L 344 288 C 357 288 367 283 369 272 C 342 243 295 204 295 204 L 256 259 L 226 259 L 226 78 C 250 75 260 65 263 51 L 164 39 L 164 259 L 40 259 L 48 288 L 164 288 L 164 486 C 106 520 56 546 30 559 L 77 634 C 85 628 91 616 92 606 C 118 586 141 566 164 547 L 164 851 C 164 866 160 871 143 871 C 125 871 42 864 42 864 L 42 881 C 80 886 101 893 114 905 C 125 916 129 933 132 954 C 216 945 226 913 226 859 L 226 495 C 267 462 300 432 328 408 Z M 969 863 L 830 863 C 662 863 541 842 453 768 C 507 676 534 571 550 463 C 570 462 580 459 587 449 L 517 387 L 478 426 L 406 426 C 440 350 486 238 511 169 C 532 168 551 164 560 155 L 484 87 L 448 124 L 295 124 L 304 154 L 451 154 C 425 230 380 345 348 415 C 335 419 322 426 313 432 L 374 480 L 401 455 L 485 455 C 474 553 454 647 416 730 C 380 689 353 637 329 570 L 315 577 C 338 655 365 717 398 766 C 361 836 307 898 234 948 L 245 962 C 325 919 384 866 428 804 C 516 903 642 933 822 933 L 928 933 C 929 904 942 881 969 876 L 969 863 Z" fill="blue" fill-opacity="0.5" /><path transform="translate(2000)" d="M 549 199 L 555 215 C 606 210 660 201 710 190 L 710 410 L 582 410 L 590 440 L 710 440 L 710 708 L 546 708 L 554 737 L 937 737 C 951 737 960 732 963 721 C 934 691 888 652 888 652 L 846 708 L 772 708 L 772 440 L 909 440 C 923 440 933 435 936 424 C 905 394 856 353 856 353 L 812 410 L 772 410 L 772 175 C 817 163 859 149 892 137 C 915 145 931 144 940 135 L 863 73 C 796 116 662 171 549 199 Z M 328 408 L 320 395 C 288 414 257 433 226 451 L 226 288 L 344 288 C 357 288 367 283 369 272 C 342 243 295 204 295 204 L 256 259 L 226 259 L 226 78 C 250 75 260 65 263 51 L 164 39 L 164 259 L 40 259 L 48 288 L 164 288 L 164 486 C 106 520 56 546 30 559 L 77 634 C 85 628 91 616 92 606 C 118 586 141 566 164 547 L 164 851 C 164 866 160 871 143 871 C 125 871 42 864 42 864 L 42 881 C 80 886 101 893 114 905 C 125 916 129 933 132 954 C 216 945 226 913 226 859 L 226 495 C 267 462 300 432 328 408 Z M 969 863 L 830 863 C 662 863 541 842 453 768 C 507 676 534 571 550 463 C 570 462 580 459 587 449 L 517 387 L 478 426 L 406 426 C 440 350 486 238 511 169 C 532 168 551 164 560 155 L 484 87 L 448 124 L 295 124 L 304 154 L 451 154 C 425 230 380 345 348 415 C 335 419 322 426 313 432 L 374 480 L 401 455 L 485 455 C 474 553 454 647 416 730 C 380 689 353 637 329 570 L 315 577 C 338 655 365 717 398 766 C 361 836 307 898 234 948 L 245 962 C 325 919 384 866 428 804 C 516 903 642 933 822 933 L 928 933 C 929 904 942 881 969 876 L 969 863 Z" fill="red" fill-opacity="0.5" /><text text-anchor="middle" x="500" y="1064" font-family="Arial" font-size="64">Source Han Serif TW</text><text text-anchor="middle" x="1500" y="1064" font-family="Arial" font-size="64">HKSerif (uni633AHK-regular)</text></svg>