<svg width="3000" height="1080" xmlns="http://www.w3.org/2000/svg" style="background:#fff"><path d="M 376 59 L 367 68 C 395 88 427 125 435 158 C 496 196 540 76 376 59 Z M 188 688 L 170 687 C 165 761 119 825 75 849 C 57 861 46 880 53 898 C 65 918 99 913 123 895 C 162 869 209 798 188 688 Z M 340 536 L 340 422 C 390 454 448 505 473 545 C 546 578 571 438 340 401 L 340 386 C 397 361 458 326 494 302 C 509 313 527 309 532 304 L 469 225 C 442 261 387 321 340 365 L 340 218 L 566 218 C 579 218 589 213 591 202 C 562 173 516 133 516 133 L 475 188 L 340 188 L 340 77 C 364 73 373 65 375 51 L 279 40 L 279 188 L 69 188 L 76 218 L 279 218 L 279 385 C 182 429 92 467 52 482 L 93 556 C 102 551 108 541 110 530 C 178 484 235 443 279 411 L 279 531 C 279 545 274 550 258 550 C 241 550 156 544 156 544 L 156 560 C 194 565 216 572 229 583 C 240 594 244 610 246 629 C 330 620 340 589 340 536 Z M 121 245 L 110 252 C 144 282 183 333 192 375 C 249 417 301 301 121 245 Z M 475 663 L 464 671 C 506 707 555 770 565 820 C 625 862 672 732 475 663 Z M 751 867 L 748 758 L 735 758 C 724 809 713 848 704 863 C 699 873 695 875 681 877 C 663 878 613 878 550 878 L 409 878 C 361 878 356 874 356 859 L 356 692 C 375 689 384 679 386 668 L 291 657 L 291 869 C 291 921 309 934 402 934 L 547 934 C 747 934 782 925 782 894 C 782 881 775 874 751 867 Z M 787 702 L 775 710 C 826 754 883 832 894 894 C 963 945 1014 788 787 702 Z M 877 136 L 831 196 L 667 196 C 680 162 693 127 702 90 C 723 89 734 80 738 69 L 635 43 C 615 185 567 323 512 414 L 527 424 C 577 373 621 305 655 225 L 800 225 C 790 293 770 353 739 407 C 703 389 663 372 617 355 L 607 366 C 640 387 678 413 715 443 C 662 518 585 577 476 626 L 484 640 C 604 601 692 548 755 477 C 813 528 865 584 888 633 C 958 670 983 551 790 434 C 830 376 858 307 874 225 L 937 225 C 951 225 961 220 963 209 C 931 178 877 136 877 136 Z" fill="blue" /><path transform="translate(1000)" d="M 207 689 L 190 689 C 187 772 130 833 75 854 C 56 865 41 884 49 904 C 60 926 95 925 125 908 C 172 884 233 815 207 689 Z M 411 640 L 401 650 C 457 681 528 738 552 788 C 625 821 647 675 411 640 Z M 714 864 L 712 760 L 699 760 C 688 807 678 846 670 861 C 665 870 662 872 648 873 C 633 874 588 875 533 875 L 410 875 C 367 875 364 872 364 857 L 364 705 C 382 703 391 694 393 682 L 300 672 L 300 868 C 300 918 316 932 401 932 L 532 932 C 711 932 743 921 743 891 C 743 879 737 872 714 864 Z M 729 684 L 719 694 C 791 742 877 829 897 905 C 980 956 1019 765 729 684 Z M 376 59 L 367 68 C 395 88 427 125 435 158 C 496 196 540 76 376 59 Z M 340 536 L 340 422 C 390 454 448 505 473 545 C 546 578 571 438 340 401 L 340 386 C 397 361 458 326 494 302 C 509 313 527 309 532 304 L 469 225 C 442 261 387 321 340 365 L 340 218 L 566 218 C 579 218 589 213 591 202 C 562 173 516 133 516 133 L 475 188 L 340 188 L 340 77 C 364 73 373 65 375 51 L 279 40 L 279 188 L 69 188 L 76 218 L 279 218 L 279 385 C 182 429 92 467 52 482 L 93 556 C 102 551 108 541 110 530 C 178 484 235 443 279 411 L 279 531 C 279 545 274 550 258 550 C 241 550 156 544 156 544 L 156 560 C 194 565 216 572 229 583 C 240 594 244 610 246 629 C 330 620 340 589 340 536 Z M 121 245 L 110 252 C 144 282 183 333 192 375 C 249 417 301 301 121 245 Z M 655 225 L 800 225 C 788 301 764 366 726 423 C 689 376 660 321 638 261 C 644 249 650 237 655 225 Z M 875 225 L 937 225 C 951 225 961 220 963 209 C 931 178 878 136 878 136 L 831 196 L 667 196 C 680 162 693 127 702 90 C 723 89 734 80 738 69 L 635 43 C 615 185 567 323 512 414 L 527 424 C 563 388 596 341 623 289 C 642 352 666 410 699 463 C 644 529 569 583 466 627 L 474 642 C 581 608 664 562 727 503 C 771 559 828 607 903 642 C 910 613 929 597 955 591 L 958 580 C 877 553 813 514 764 465 C 818 401 855 322 875 225 Z" fill="red" /><path transform="translate(2000)" d="M 376 59 L 367 68 C 395 88 427 125 435 158 C 496 196 540 76 376 59 Z M 188 688 L 170 687 C 165 761 119 825 75 849 C 57 861 46 880 53 898 C 65 918 99 913 123 895 C 162 869 209 798 188 688 Z M 340 536 L 340 422 C 390 454 448 505 473 545 C 546 578 571 438 340 401 L 340 386 C 397 361 458 326 494 302 C 509 313 527 309 532 304 L 469 225 C 442 261 387 321 340 365 L 340 218 L 566 218 C 579 218 589 213 591 202 C 562 173 516 133 516 133 L 475 188 L 340 188 L 340 77 C 364 73 373 65 375 51 L 279 40 L 279 188 L 69 188 L 76 218 L 279 218 L 279 385 C 182 429 92 467 52 482 L 93 556 C 102 551 108 541 110 530 C 178 484 235 443 279 411 L 279 531 C 279 545 274 550 258 550 C 241 550 156 544 156 544 L 156 560 C 194 565 216 572 229 583 C 240 594 244 610 246 629 C 330 620 340 589 340 536 Z M 121 245 L 110 252 C 144 282 183 333 192 375 C 249 417 301 301 121 245 Z M 475 663 L 464 671 C 506 707 555 770 565 820 C 625 862 672 732 475 663 Z M 751 867 L 748 758 L 735 758 C 724 809 713 848 704 863 C 699 873 695 875 681 877 C 663 878 613 878 550 878 L 409 878 C 361 878 356 874 356 859 L 356 692 C 375 689 384 679 386 668 L 291 657 L 291 869 C 291 921 309 934 402 934 L 547 934 C 747 934 782 925 782 894 C 782 881 775 874 751 867 Z M 787 702 L 775 710 C 826 754 883 832 894 894 C 963 945 1014 788 787 702 Z M 877 136 L 831 196 L 667 196 C 680 162 693 127 702 90 C 723 89 734 80 738 69 L 635 43 C 615 185 567 323 512 414 L 527 424 C 577 373 621 305 655 225 L 800 225 C 790 293 770 353 739 407 C 703 389 663 372 617 355 L 607 366 C 640 387 678 413 715 443 C 662 518 585 577 476 626 L 484 640 C 604 601 692 548 755 477 C 813 528 865 584 888 633 C 958 670 983 551 790 434 C 830 376 858 307 874 225 L 937 225 C 951 225 961 220 963 209 C 931 178 877 136 877 136 Z" fill="blue" fill-opacity="0.5" /><path transform="translate(2000)" d="M 207 689 L 190 689 C 187 772 130 833 75 854 C 56 865 41 884 49 904 C 60 926 95 925 125 908 C 172 884 233 815 207 689 Z M 411 640 L 401 650 C 457 681 528 738 552 788 C 625 821 647 675 411 640 Z M 714 864 L 712 760 L 699 760 C 688 807 678 846 670 861 C 665 870 662 872 648 873 C 633 874 588 875 533 875 L 410 875 C 367 875 364 872 364 857 L 364 705 C 382 703 391 694 393 682 L 300 672 L 300 868 C 300 918 316 932 401 932 L 532 932 C 711 932 743 921 743 891 C 743 879 737 872 714 864 Z M 729 684 L 719 694 C 791 742 877 829 897 905 C 980 956 1019 765 729 684 Z M 376 59 L 367 68 C 395 88 427 125 435 158 C 496 196 540 76 376 59 Z M 340 536 L 340 422 C 390 454 448 505 473 545 C 546 578 571 438 340 401 L 340 386 C 397 361 458 326 494 302 C 509 313 527 309 532 304 L 469 225 C 442 261 387 321 340 365 L 340 218 L 566 218 C 579 218 589 213 591 202 C 562 173 516 133 516 133 L 475 188 L 340 188 L 340 77 C 364 73 373 65 375 51 L 279 40 L 279 188 L 69 188 L 76 218 L 279 218 L 279 385 C 182 429 92 467 52 482 L 93 556 C 102 551 108 541 110 530 C 178 484 235 443 279 411 L 279 531 C 279 545 274 550 258 550 C 241 550 156 544 156 544 L 156 560 C 194 565 216 572 229 583 C 240 594 244 610 246 629 C 330 620 340 589 340 536 Z M 121 245 L 110 252 C 144 282 183 333 192 375 C 249 417 301 301 121 245 Z M 655 225 L 800 225 C 788 301 764 366 726 423 C 689 376 660 321 638 261 C 644 249 650 237 655 225 Z M 875 225 L 937 225 C 951 225 961 220 963 209 C 931 178 878 136 878 136 L 831 196 L 667 196 C 680 162 693 127 702 90 C 723 89 734 80 738 69 L 635 43 C 615 185 567 323 512 414 L 527 424 C 563 388 596 341 623 289 C 642 352 666 410 699 463 C 644 529 569 583 466 627 L 474 642 C 581 608 664 562 727 503 C 771 559 828 607 903 642 C 910 613 929 597 955 591 L 958 580 C 877 553 813 514 764 465 C 818 401 855 322 875 225 Z" fill="red" fill-opacity="0.5" /><text text-anchor="middle" x="500" y="1064" font-family="Arial" font-size="64">Source Han Serif TW</text><text text-anchor="middle" x="1500" y="1064" font-family="Arial" font-size="64">HKSerif (uni6166HK-regular)</text></svg>