<svg width="3000" height="1080" xmlns="http://www.w3.org/2000/svg" style="background:#fff"><path d="M 623 201 L 855 201 C 844 243 828 300 816 336 L 829 343 C 862 309 904 250 927 211 C 946 210 956 209 964 202 L 890 130 L 851 171 L 639 171 C 656 141 669 111 680 82 C 702 85 710 81 714 70 L 609 42 C 595 133 560 244 510 307 L 523 316 C 562 286 596 245 623 201 Z M 779 258 L 682 236 C 678 376 655 520 491 601 L 502 615 C 632 566 691 489 719 406 C 786 460 857 539 875 606 C 951 652 986 485 727 381 C 736 347 741 312 745 277 C 767 277 776 269 779 258 Z M 465 643 L 454 651 C 497 691 553 760 569 811 C 633 853 675 721 465 643 Z M 327 59 L 319 69 C 371 97 435 151 455 199 C 528 234 553 85 327 59 Z M 292 93 L 205 48 C 178 107 118 187 54 237 L 66 250 C 143 213 217 154 257 104 C 279 106 288 103 292 93 Z M 186 690 L 168 689 C 163 764 116 827 72 852 C 52 865 41 884 49 902 C 61 923 96 918 120 900 C 159 874 208 801 186 690 Z M 213 423 L 392 423 L 392 565 L 213 565 L 213 423 Z M 213 595 L 392 595 L 392 622 L 402 622 C 422 622 453 608 454 602 L 454 428 C 468 426 481 419 486 413 L 417 360 L 384 393 L 225 393 L 180 373 C 237 328 287 275 323 228 C 396 275 452 339 477 386 C 536 420 591 289 329 217 L 330 216 C 357 216 369 210 372 199 L 273 165 C 233 253 139 374 40 444 L 51 456 C 87 439 121 418 153 394 L 153 660 L 163 660 C 192 660 213 644 213 639 L 213 595 Z M 750 871 L 747 762 L 735 762 C 723 812 712 852 703 867 C 699 876 695 879 680 880 C 662 881 614 881 551 881 L 410 881 C 362 881 357 878 357 863 L 357 696 C 375 693 384 684 386 672 L 292 662 L 292 874 C 292 925 310 938 402 938 L 548 938 C 746 938 782 930 782 898 C 782 885 774 878 750 871 Z M 761 687 L 750 695 C 806 742 873 824 887 889 C 959 939 1007 778 761 687 Z" fill="blue" /><path transform="translate(1000)" d="M 323 51 L 314 61 C 362 89 421 141 439 188 C 509 224 538 80 323 51 Z M 279 86 L 190 41 C 165 98 111 178 52 227 L 64 241 C 137 204 204 145 242 95 C 265 100 273 95 279 86 Z M 203 709 L 186 709 C 183 781 128 832 79 849 C 58 859 44 877 50 898 C 60 920 95 920 124 907 C 169 885 226 823 203 709 Z M 727 869 L 724 763 L 711 763 C 701 811 691 850 683 866 C 678 875 674 877 660 878 C 644 879 599 880 541 880 L 411 880 C 367 880 364 877 364 863 L 364 725 C 380 723 390 713 392 701 L 299 691 L 299 874 C 299 923 315 936 403 936 L 538 936 C 723 936 756 926 756 896 C 756 884 750 876 727 869 Z M 429 653 L 419 662 C 468 694 532 752 552 800 C 624 834 653 693 429 653 Z M 734 697 L 724 707 C 792 750 874 830 895 900 C 976 949 1013 764 734 697 Z M 207 422 L 374 422 L 374 563 L 207 563 L 207 422 Z M 729 215 L 846 215 C 832 260 809 319 792 355 L 806 362 C 844 327 893 266 920 225 C 940 224 951 223 958 215 L 884 145 L 844 185 L 624 185 C 644 150 660 113 673 77 C 698 78 705 73 707 62 L 600 42 C 584 138 545 248 493 319 C 476 284 422 242 303 217 C 329 217 341 211 345 200 L 245 168 C 210 252 125 368 35 435 L 46 447 C 81 429 115 408 146 383 L 146 665 L 156 665 C 186 665 207 649 207 644 L 207 591 L 374 591 L 374 636 L 383 636 C 404 636 436 623 437 616 L 437 428 C 452 425 464 419 469 413 L 398 358 L 366 393 L 218 393 L 164 369 C 219 324 265 272 297 226 C 371 267 427 327 449 374 C 477 391 503 370 499 338 C 541 305 577 262 607 215 L 729 215 Z M 752 256 L 655 234 C 651 384 623 535 428 618 L 439 632 C 631 568 688 454 710 338 C 727 472 772 580 899 635 C 905 599 924 587 957 581 L 959 569 C 791 517 739 420 721 277 C 741 276 749 267 752 256 Z" fill="red" /><path transform="translate(2000)" d="M 623 201 L 855 201 C 844 243 828 300 816 336 L 829 343 C 862 309 904 250 927 211 C 946 210 956 209 964 202 L 890 130 L 851 171 L 639 171 C 656 141 669 111 680 82 C 702 85 710 81 714 70 L 609 42 C 595 133 560 244 510 307 L 523 316 C 562 286 596 245 623 201 Z M 779 258 L 682 236 C 678 376 655 520 491 601 L 502 615 C 632 566 691 489 719 406 C 786 460 857 539 875 606 C 951 652 986 485 727 381 C 736 347 741 312 745 277 C 767 277 776 269 779 258 Z M 465 643 L 454 651 C 497 691 553 760 569 811 C 633 853 675 721 465 643 Z M 327 59 L 319 69 C 371 97 435 151 455 199 C 528 234 553 85 327 59 Z M 292 93 L 205 48 C 178 107 118 187 54 237 L 66 250 C 143 213 217 154 257 104 C 279 106 288 103 292 93 Z M 186 690 L 168 689 C 163 764 116 827 72 852 C 52 865 41 884 49 902 C 61 923 96 918 120 900 C 159 874 208 801 186 690 Z M 213 423 L 392 423 L 392 565 L 213 565 L 213 423 Z M 213 595 L 392 595 L 392 622 L 402 622 C 422 622 453 608 454 602 L 454 428 C 468 426 481 419 486 413 L 417 360 L 384 393 L 225 393 L 180 373 C 237 328 287 275 323 228 C 396 275 452 339 477 386 C 536 420 591 289 329 217 L 330 216 C 357 216 369 210 372 199 L 273 165 C 233 253 139 374 40 444 L 51 456 C 87 439 121 418 153 394 L 153 660 L 163 660 C 192 660 213 644 213 639 L 213 595 Z M 750 871 L 747 762 L 735 762 C 723 812 712 852 703 867 C 699 876 695 879 680 880 C 662 881 614 881 551 881 L 410 881 C 362 881 357 878 357 863 L 357 696 C 375 693 384 684 386 672 L 292 662 L 292 874 C 292 925 310 938 402 938 L 548 938 C 746 938 782 930 782 898 C 782 885 774 878 750 871 Z M 761 687 L 750 695 C 806 742 873 824 887 889 C 959 939 1007 778 761 687 Z" fill="blue" fill-opacity="0.5" /><path transform="translate(2000)" d="M 323 51 L 314 61 C 362 89 421 141 439 188 C 509 224 538 80 323 51 Z M 279 86 L 190 41 C 165 98 111 178 52 227 L 64 241 C 137 204 204 145 242 95 C 265 100 273 95 279 86 Z M 203 709 L 186 709 C 183 781 128 832 79 849 C 58 859 44 877 50 898 C 60 920 95 920 124 907 C 169 885 226 823 203 709 Z M 727 869 L 724 763 L 711 763 C 701 811 691 850 683 866 C 678 875 674 877 660 878 C 644 879 599 880 541 880 L 411 880 C 367 880 364 877 364 863 L 364 725 C 380 723 390 713 392 701 L 299 691 L 299 874 C 299 923 315 936 403 936 L 538 936 C 723 936 756 926 756 896 C 756 884 750 876 727 869 Z M 429 653 L 419 662 C 468 694 532 752 552 800 C 624 834 653 693 429 653 Z M 734 697 L 724 707 C 792 750 874 830 895 900 C 976 949 1013 764 734 697 Z M 207 422 L 374 422 L 374 563 L 207 563 L 207 422 Z M 729 215 L 846 215 C 832 260 809 319 792 355 L 806 362 C 844 327 893 266 920 225 C 940 224 951 223 958 215 L 884 145 L 844 185 L 624 185 C 644 150 660 113 673 77 C 698 78 705 73 707 62 L 600 42 C 584 138 545 248 493 319 C 476 284 422 242 303 217 C 329 217 341 211 345 200 L 245 168 C 210 252 125 368 35 435 L 46 447 C 81 429 115 408 146 383 L 146 665 L 156 665 C 186 665 207 649 207 644 L 207 591 L 374 591 L 374 636 L 383 636 C 404 636 436 623 437 616 L 437 428 C 452 425 464 419 469 413 L 398 358 L 366 393 L 218 393 L 164 369 C 219 324 265 272 297 226 C 371 267 427 327 449 374 C 477 391 503 370 499 338 C 541 305 577 262 607 215 L 729 215 Z M 752 256 L 655 234 C 651 384 623 535 428 618 L 439 632 C 631 568 688 454 710 338 C 727 472 772 580 899 635 C 905 599 924 587 957 581 L 959 569 C 791 517 739 420 721 277 C 741 276 749 267 752 256 Z" fill="red" fill-opacity="0.5" /><text text-anchor="middle" x="500" y="1064" font-family="Arial" font-size="64">Source Han Serif TW</text><text text-anchor="middle" x="1500" y="1064" font-family="Arial" font-size="64">HKSerif (uni617EHK-regular)</text></svg>