<svg width="3000" height="1080" xmlns="http://www.w3.org/2000/svg" style="background:#fff"><path d="M 621 482 L 896 482 C 909 482 918 477 921 466 C 894 439 851 404 851 404 L 812 453 L 621 453 L 621 386 C 639 383 648 374 650 361 L 559 351 L 559 591 C 559 637 573 652 648 652 L 752 652 C 902 652 933 643 933 615 C 933 603 926 596 904 589 L 901 524 L 890 524 C 881 553 871 580 864 589 C 859 595 854 596 845 597 C 833 598 797 598 756 598 L 659 598 C 625 598 621 594 621 580 L 621 482 Z M 454 669 L 444 679 C 492 710 550 769 566 816 C 629 854 666 724 454 669 Z M 641 330 L 739 330 C 883 330 912 324 912 297 C 912 285 904 280 882 273 L 869 273 C 863 275 854 276 848 277 C 843 277 835 278 828 278 C 816 279 781 279 743 279 L 653 279 C 619 279 616 275 616 262 L 616 179 L 887 179 C 900 179 909 174 912 163 C 885 137 842 101 842 101 L 804 150 L 616 150 L 616 79 C 634 76 643 68 645 56 L 555 45 L 555 272 C 555 316 568 330 641 330 Z M 361 97 L 351 106 C 377 124 404 150 427 179 C 319 184 215 188 141 190 C 201 159 265 118 307 84 C 328 88 341 80 345 70 L 256 28 C 226 69 151 151 89 180 C 83 183 66 186 66 186 L 99 268 C 108 265 117 257 124 244 C 249 231 363 212 442 200 C 453 216 461 233 465 247 C 527 289 566 153 361 97 Z M 189 708 L 172 708 C 167 777 120 836 78 858 C 59 870 48 888 55 906 C 66 926 99 922 124 905 C 161 880 208 813 189 708 Z M 175 429 L 175 404 C 242 411 294 432 331 455 C 395 460 354 344 175 379 L 175 339 L 407 339 L 407 462 C 324 485 231 504 169 512 C 174 484 175 455 175 429 Z M 407 484 L 407 578 C 407 591 403 597 389 597 C 372 597 303 591 303 591 L 303 607 C 336 611 354 618 366 626 C 375 633 379 648 381 663 C 455 655 465 629 465 583 L 465 351 C 485 347 502 339 508 331 L 428 271 L 397 309 L 187 309 L 115 276 L 115 430 C 115 515 110 600 42 669 L 53 682 C 122 641 152 586 165 531 L 191 588 C 200 585 209 576 212 564 C 289 541 353 512 407 484 Z M 737 871 L 734 760 L 721 760 C 709 810 698 852 690 868 C 685 877 681 880 667 881 C 649 882 599 883 537 883 L 396 883 C 349 883 344 880 344 865 L 344 722 C 362 720 371 710 373 698 L 279 688 L 279 874 C 279 924 296 937 389 937 L 534 937 C 733 937 768 930 768 898 C 768 886 761 878 737 871 Z M 775 708 L 764 716 C 812 758 868 829 878 888 C 945 936 994 786 775 708 Z" fill="blue" /><path transform="translate(1000)" d="M 642 333 L 745 333 C 894 333 925 324 925 296 C 925 284 919 276 897 270 L 894 176 L 881 176 C 873 218 863 256 857 267 C 852 275 847 277 836 278 L 748 278 L 653 278 C 619 278 615 275 615 262 L 615 194 C 706 177 810 145 863 125 C 875 132 886 132 892 127 L 834 64 C 789 92 693 144 615 176 L 615 78 C 632 75 642 66 644 54 L 553 44 L 553 273 C 553 319 567 333 642 333 Z M 643 668 L 750 668 C 901 668 932 659 932 630 C 932 618 926 611 904 604 L 900 508 L 888 508 C 879 551 870 589 863 602 C 859 610 853 612 843 612 C 830 613 794 613 752 613 L 655 613 C 619 613 615 610 615 597 L 615 515 C 712 498 826 464 881 443 C 894 450 906 451 912 445 L 854 379 C 804 411 699 464 615 497 L 615 400 C 633 397 642 388 644 376 L 553 366 L 553 607 C 553 654 568 668 643 668 Z M 435 684 L 425 693 C 471 725 533 782 553 828 C 623 859 650 724 435 684 Z M 361 105 L 351 114 C 377 132 404 158 427 187 C 319 192 215 196 141 198 C 201 167 265 126 307 92 C 328 96 341 88 345 78 L 256 36 C 226 77 151 159 89 188 C 83 191 66 194 66 194 L 99 276 C 108 273 117 265 124 252 C 249 239 363 220 442 208 C 453 224 461 241 465 255 C 527 297 566 161 361 105 Z M 212 719 L 195 718 C 185 785 126 835 78 852 C 58 863 45 882 52 902 C 61 923 98 922 125 908 C 168 885 225 825 212 719 Z M 396 504 L 185 504 L 185 431 L 396 431 L 396 504 Z M 185 332 L 396 332 L 396 402 L 185 402 L 185 332 Z M 292 600 L 292 616 C 325 621 343 628 355 637 C 366 646 369 661 371 677 C 449 670 459 642 459 593 L 459 343 C 478 340 495 332 501 325 L 418 263 L 386 302 L 190 302 L 124 272 L 124 685 L 134 685 C 160 685 185 671 185 665 L 185 533 L 396 533 L 396 588 C 396 600 392 606 379 606 C 361 606 292 600 292 600 Z M 725 876 L 722 775 L 709 775 C 699 820 689 858 681 873 C 676 882 672 884 659 885 C 643 886 598 886 541 886 L 412 886 C 368 886 364 883 364 870 L 364 747 C 381 745 391 735 393 723 L 301 713 L 301 881 C 301 929 316 942 403 942 L 538 942 C 721 942 754 932 754 902 C 754 890 747 883 725 876 Z M 747 712 L 737 721 C 797 764 873 842 896 907 C 974 952 1012 787 747 712 Z" fill="red" /><path transform="translate(2000)" d="M 621 482 L 896 482 C 909 482 918 477 921 466 C 894 439 851 404 851 404 L 812 453 L 621 453 L 621 386 C 639 383 648 374 650 361 L 559 351 L 559 591 C 559 637 573 652 648 652 L 752 652 C 902 652 933 643 933 615 C 933 603 926 596 904 589 L 901 524 L 890 524 C 881 553 871 580 864 589 C 859 595 854 596 845 597 C 833 598 797 598 756 598 L 659 598 C 625 598 621 594 621 580 L 621 482 Z M 454 669 L 444 679 C 492 710 550 769 566 816 C 629 854 666 724 454 669 Z M 641 330 L 739 330 C 883 330 912 324 912 297 C 912 285 904 280 882 273 L 869 273 C 863 275 854 276 848 277 C 843 277 835 278 828 278 C 816 279 781 279 743 279 L 653 279 C 619 279 616 275 616 262 L 616 179 L 887 179 C 900 179 909 174 912 163 C 885 137 842 101 842 101 L 804 150 L 616 150 L 616 79 C 634 76 643 68 645 56 L 555 45 L 555 272 C 555 316 568 330 641 330 Z M 361 97 L 351 106 C 377 124 404 150 427 179 C 319 184 215 188 141 190 C 201 159 265 118 307 84 C 328 88 341 80 345 70 L 256 28 C 226 69 151 151 89 180 C 83 183 66 186 66 186 L 99 268 C 108 265 117 257 124 244 C 249 231 363 212 442 200 C 453 216 461 233 465 247 C 527 289 566 153 361 97 Z M 189 708 L 172 708 C 167 777 120 836 78 858 C 59 870 48 888 55 906 C 66 926 99 922 124 905 C 161 880 208 813 189 708 Z M 175 429 L 175 404 C 242 411 294 432 331 455 C 395 460 354 344 175 379 L 175 339 L 407 339 L 407 462 C 324 485 231 504 169 512 C 174 484 175 455 175 429 Z M 407 484 L 407 578 C 407 591 403 597 389 597 C 372 597 303 591 303 591 L 303 607 C 336 611 354 618 366 626 C 375 633 379 648 381 663 C 455 655 465 629 465 583 L 465 351 C 485 347 502 339 508 331 L 428 271 L 397 309 L 187 309 L 115 276 L 115 430 C 115 515 110 600 42 669 L 53 682 C 122 641 152 586 165 531 L 191 588 C 200 585 209 576 212 564 C 289 541 353 512 407 484 Z M 737 871 L 734 760 L 721 760 C 709 810 698 852 690 868 C 685 877 681 880 667 881 C 649 882 599 883 537 883 L 396 883 C 349 883 344 880 344 865 L 344 722 C 362 720 371 710 373 698 L 279 688 L 279 874 C 279 924 296 937 389 937 L 534 937 C 733 937 768 930 768 898 C 768 886 761 878 737 871 Z M 775 708 L 764 716 C 812 758 868 829 878 888 C 945 936 994 786 775 708 Z" fill="blue" fill-opacity="0.5" /><path transform="translate(2000)" d="M 642 333 L 745 333 C 894 333 925 324 925 296 C 925 284 919 276 897 270 L 894 176 L 881 176 C 873 218 863 256 857 267 C 852 275 847 277 836 278 L 748 278 L 653 278 C 619 278 615 275 615 262 L 615 194 C 706 177 810 145 863 125 C 875 132 886 132 892 127 L 834 64 C 789 92 693 144 615 176 L 615 78 C 632 75 642 66 644 54 L 553 44 L 553 273 C 553 319 567 333 642 333 Z M 643 668 L 750 668 C 901 668 932 659 932 630 C 932 618 926 611 904 604 L 900 508 L 888 508 C 879 551 870 589 863 602 C 859 610 853 612 843 612 C 830 613 794 613 752 613 L 655 613 C 619 613 615 610 615 597 L 615 515 C 712 498 826 464 881 443 C 894 450 906 451 912 445 L 854 379 C 804 411 699 464 615 497 L 615 400 C 633 397 642 388 644 376 L 553 366 L 553 607 C 553 654 568 668 643 668 Z M 435 684 L 425 693 C 471 725 533 782 553 828 C 623 859 650 724 435 684 Z M 361 105 L 351 114 C 377 132 404 158 427 187 C 319 192 215 196 141 198 C 201 167 265 126 307 92 C 328 96 341 88 345 78 L 256 36 C 226 77 151 159 89 188 C 83 191 66 194 66 194 L 99 276 C 108 273 117 265 124 252 C 249 239 363 220 442 208 C 453 224 461 241 465 255 C 527 297 566 161 361 105 Z M 212 719 L 195 718 C 185 785 126 835 78 852 C 58 863 45 882 52 902 C 61 923 98 922 125 908 C 168 885 225 825 212 719 Z M 396 504 L 185 504 L 185 431 L 396 431 L 396 504 Z M 185 332 L 396 332 L 396 402 L 185 402 L 185 332 Z M 292 600 L 292 616 C 325 621 343 628 355 637 C 366 646 369 661 371 677 C 449 670 459 642 459 593 L 459 343 C 478 340 495 332 501 325 L 418 263 L 386 302 L 190 302 L 124 272 L 124 685 L 134 685 C 160 685 185 671 185 665 L 185 533 L 396 533 L 396 588 C 396 600 392 606 379 606 C 361 606 292 600 292 600 Z M 725 876 L 722 775 L 709 775 C 699 820 689 858 681 873 C 676 882 672 884 659 885 C 643 886 598 886 541 886 L 412 886 C 368 886 364 883 364 870 L 364 747 C 381 745 391 735 393 723 L 301 713 L 301 881 C 301 929 316 942 403 942 L 538 942 C 721 942 754 932 754 902 C 754 890 747 883 725 876 Z M 747 712 L 737 721 C 797 764 873 842 896 907 C 974 952 1012 787 747 712 Z" fill="red" fill-opacity="0.5" /><text text-anchor="middle" x="500" y="1064" font-family="Arial" font-size="64">Source Han Serif TW</text><text text-anchor="middle" x="1500" y="1064" font-family="Arial" font-size="64">HKSerif (uni614BHK-regular)</text></svg>