<svg width="3000" height="1080" xmlns="http://www.w3.org/2000/svg" style="background:#fff"><path d="M 95 52 L 85 61 C 127 91 177 142 193 185 C 264 226 305 87 95 52 Z M 47 288 L 38 297 C 77 323 121 369 132 411 C 203 452 246 313 47 288 Z M 304 237 L 286 232 C 132 620 132 620 117 654 C 108 674 104 674 93 674 L 50 674 L 50 696 C 71 698 85 701 98 711 C 120 725 125 804 112 905 C 113 936 124 954 141 954 C 173 954 192 929 194 887 C 197 806 170 758 170 715 C 170 689 176 660 183 629 C 196 583 267 357 304 237 Z M 482 610 L 482 405 L 556 405 L 556 610 L 482 610 Z M 603 405 L 679 405 L 679 610 L 603 610 L 603 405 Z M 667 706 L 655 712 C 670 735 687 765 700 797 L 608 806 L 608 639 L 679 639 L 679 681 L 687 681 C 704 681 730 668 731 662 L 731 414 C 749 410 764 402 771 395 L 701 341 L 670 375 L 608 375 L 608 250 C 644 243 677 236 704 229 C 725 238 742 238 751 230 L 683 167 C 621 196 501 238 405 259 L 410 276 C 455 272 504 266 551 259 L 551 375 L 487 375 L 430 348 L 430 701 L 438 701 C 459 701 482 688 482 683 L 482 639 L 551 639 L 551 812 C 468 820 398 826 358 828 L 397 908 C 407 905 416 899 421 886 C 546 857 640 835 708 816 C 721 848 730 880 732 908 C 791 961 849 829 667 706 Z M 951 877 L 967 710 L 955 708 C 948 742 938 780 925 820 C 920 834 915 834 909 823 C 850 725 842 378 853 152 C 875 149 890 141 897 134 L 816 64 L 777 107 L 386 107 L 317 76 L 317 419 C 317 605 307 796 212 945 L 227 955 C 367 807 376 593 376 418 L 376 136 L 787 136 C 784 428 788 761 868 892 C 891 935 927 967 957 949 C 971 941 968 917 951 877 Z" fill="blue" /><path transform="translate(1000)" d="M 608 265 L 742 265 C 754 265 763 260 766 249 C 740 222 697 186 697 186 L 659 236 L 408 236 L 416 265 L 551 265 L 551 820 L 608 820 L 608 265 Z M 95 52 L 85 61 C 127 91 177 142 193 185 C 264 226 305 87 95 52 Z M 47 288 L 38 297 C 77 323 121 369 132 411 C 203 452 246 313 47 288 Z M 304 237 L 286 232 C 132 620 132 620 117 654 C 108 674 104 674 93 674 L 50 674 L 50 696 C 71 698 85 701 98 711 C 120 725 125 804 112 905 C 113 936 124 954 141 954 C 173 954 192 929 194 887 C 197 806 170 758 170 715 C 170 689 176 660 183 629 C 196 583 267 357 304 237 Z M 482 610 L 482 405 L 556 405 L 556 610 L 482 610 Z M 603 405 L 679 405 L 679 610 L 603 610 L 603 405 Z M 667 706 L 655 712 C 670 735 687 765 700 797 L 608 806 L 608 639 L 679 639 L 679 681 L 687 681 C 704 681 730 668 731 662 L 731 414 C 749 410 764 402 771 395 L 701 341 L 670 375 L 608 375 L 551 375 L 487 375 L 430 348 L 430 701 L 438 701 C 459 701 482 688 482 683 L 482 639 L 551 639 L 551 812 C 468 820 398 826 358 828 L 397 908 C 407 905 416 899 421 886 C 546 857 640 835 708 816 C 721 848 730 880 732 908 C 791 961 849 829 667 706 Z M 951 877 L 967 710 L 955 708 C 948 742 938 780 925 820 C 920 834 915 834 909 823 C 850 725 842 378 853 152 C 875 149 890 141 897 134 L 816 64 L 777 107 L 386 107 L 317 76 L 317 419 C 317 605 307 796 212 945 L 227 955 C 367 807 376 593 376 418 L 376 136 L 787 136 C 784 428 788 761 868 892 C 891 935 927 967 957 949 C 971 941 968 917 951 877 Z" fill="red" /><path transform="translate(2000)" d="M 95 52 L 85 61 C 127 91 177 142 193 185 C 264 226 305 87 95 52 Z M 47 288 L 38 297 C 77 323 121 369 132 411 C 203 452 246 313 47 288 Z M 304 237 L 286 232 C 132 620 132 620 117 654 C 108 674 104 674 93 674 L 50 674 L 50 696 C 71 698 85 701 98 711 C 120 725 125 804 112 905 C 113 936 124 954 141 954 C 173 954 192 929 194 887 C 197 806 170 758 170 715 C 170 689 176 660 183 629 C 196 583 267 357 304 237 Z M 482 610 L 482 405 L 556 405 L 556 610 L 482 610 Z M 603 405 L 679 405 L 679 610 L 603 610 L 603 405 Z M 667 706 L 655 712 C 670 735 687 765 700 797 L 608 806 L 608 639 L 679 639 L 679 681 L 687 681 C 704 681 730 668 731 662 L 731 414 C 749 410 764 402 771 395 L 701 341 L 670 375 L 608 375 L 608 250 C 644 243 677 236 704 229 C 725 238 742 238 751 230 L 683 167 C 621 196 501 238 405 259 L 410 276 C 455 272 504 266 551 259 L 551 375 L 487 375 L 430 348 L 430 701 L 438 701 C 459 701 482 688 482 683 L 482 639 L 551 639 L 551 812 C 468 820 398 826 358 828 L 397 908 C 407 905 416 899 421 886 C 546 857 640 835 708 816 C 721 848 730 880 732 908 C 791 961 849 829 667 706 Z M 951 877 L 967 710 L 955 708 C 948 742 938 780 925 820 C 920 834 915 834 909 823 C 850 725 842 378 853 152 C 875 149 890 141 897 134 L 816 64 L 777 107 L 386 107 L 317 76 L 317 419 C 317 605 307 796 212 945 L 227 955 C 367 807 376 593 376 418 L 376 136 L 787 136 C 784 428 788 761 868 892 C 891 935 927 967 957 949 C 971 941 968 917 951 877 Z" fill="blue" fill-opacity="0.5" /><path transform="translate(2000)" d="M 608 265 L 742 265 C 754 265 763 260 766 249 C 740 222 697 186 697 186 L 659 236 L 408 236 L 416 265 L 551 265 L 551 820 L 608 820 L 608 265 Z M 95 52 L 85 61 C 127 91 177 142 193 185 C 264 226 305 87 95 52 Z M 47 288 L 38 297 C 77 323 121 369 132 411 C 203 452 246 313 47 288 Z M 304 237 L 286 232 C 132 620 132 620 117 654 C 108 674 104 674 93 674 L 50 674 L 50 696 C 71 698 85 701 98 711 C 120 725 125 804 112 905 C 113 936 124 954 141 954 C 173 954 192 929 194 887 C 197 806 170 758 170 715 C 170 689 176 660 183 629 C 196 583 267 357 304 237 Z M 482 610 L 482 405 L 556 405 L 556 610 L 482 610 Z M 603 405 L 679 405 L 679 610 L 603 610 L 603 405 Z M 667 706 L 655 712 C 670 735 687 765 700 797 L 608 806 L 608 639 L 679 639 L 679 681 L 687 681 C 704 681 730 668 731 662 L 731 414 C 749 410 764 402 771 395 L 701 341 L 670 375 L 608 375 L 551 375 L 487 375 L 430 348 L 430 701 L 438 701 C 459 701 482 688 482 683 L 482 639 L 551 639 L 551 812 C 468 820 398 826 358 828 L 397 908 C 407 905 416 899 421 886 C 546 857 640 835 708 816 C 721 848 730 880 732 908 C 791 961 849 829 667 706 Z M 951 877 L 967 710 L 955 708 C 948 742 938 780 925 820 C 920 834 915 834 909 823 C 850 725 842 378 853 152 C 875 149 890 141 897 134 L 816 64 L 777 107 L 386 107 L 317 76 L 317 419 C 317 605 307 796 212 945 L 227 955 C 367 807 376 593 376 418 L 376 136 L 787 136 C 784 428 788 761 868 892 C 891 935 927 967 957 949 C 971 941 968 917 951 877 Z" fill="red" fill-opacity="0.5" /><text text-anchor="middle" x="500" y="1064" font-family="Arial" font-size="64">Source Han Serif KR</text><text text-anchor="middle" x="1500" y="1064" font-family="Arial" font-size="64">HKSerif (uni6E22KX-regular)</text></svg>