<svg width="3000" height="1080" xmlns="http://www.w3.org/2000/svg" style="background:#fff"><path d="M 237 402 L 237 306 L 350 306 C 364 306 374 301 376 290 C 348 261 300 221 300 221 L 260 276 L 237 276 L 237 83 C 263 79 271 70 273 55 L 175 44 L 175 276 L 47 276 L 54 306 L 160 306 C 138 451 98 596 31 711 L 46 724 C 101 655 144 578 175 495 L 175 957 L 189 957 C 212 957 237 943 237 934 L 237 425 C 265 465 295 519 302 562 C 360 608 413 492 237 402 Z M 532 615 L 532 400 L 593 400 L 593 615 L 532 615 Z M 640 400 L 703 400 L 703 615 L 640 615 L 640 400 Z M 696 702 L 683 708 C 698 733 714 766 728 799 L 643 810 L 643 645 L 703 645 L 703 667 L 709 667 C 726 667 752 654 753 648 L 753 408 C 770 404 786 397 791 390 L 724 338 L 694 370 L 643 370 L 643 253 C 675 247 705 240 729 234 C 751 242 767 242 776 234 L 706 172 C 652 201 544 242 458 263 L 462 281 C 503 277 547 271 589 264 L 589 370 L 537 370 L 482 344 L 482 697 L 490 697 C 511 697 532 685 532 680 L 532 645 L 589 645 L 589 816 C 516 825 454 832 418 834 L 459 913 C 468 910 477 904 482 891 C 592 862 674 839 735 820 C 747 852 756 886 757 915 C 816 971 875 833 696 702 Z M 956 883 L 974 715 L 962 712 C 954 747 945 784 932 825 C 927 838 924 839 917 827 C 864 730 859 379 871 152 C 894 149 908 142 915 135 L 834 64 L 794 107 L 450 107 L 379 75 L 379 420 C 379 607 371 798 277 948 L 293 959 C 430 810 438 594 438 419 L 438 136 L 804 136 C 801 430 800 766 874 897 C 897 941 932 974 962 956 C 977 948 973 925 956 883 Z" fill="blue" /><path transform="translate(1000)" d="M 644 265 L 765 265 C 777 265 786 260 789 249 C 763 222 720 186 720 186 L 682 236 L 459 236 L 467 265 L 589 265 L 589 820 L 644 820 L 644 265 Z M 237 402 L 237 306 L 350 306 C 364 306 374 301 376 290 C 348 261 300 221 300 221 L 260 276 L 237 276 L 237 83 C 263 79 271 70 273 55 L 175 44 L 175 276 L 47 276 L 54 306 L 160 306 C 138 451 98 596 31 711 L 46 724 C 101 655 144 578 175 495 L 175 957 L 189 957 C 212 957 237 943 237 934 L 237 425 C 265 465 295 519 302 562 C 360 608 413 492 237 402 Z M 532 615 L 532 400 L 593 400 L 593 615 L 532 615 Z M 640 400 L 702 400 L 702 615 L 640 615 L 640 400 Z M 696 702 L 683 708 C 698 733 714 766 728 799 L 643 810 L 643 645 L 702 645 L 702 667 L 708 667 C 726 667 752 654 753 648 L 753 408 C 770 404 786 397 791 390 L 724 338 L 694 370 L 643 370 L 589 370 L 537 370 L 482 344 L 482 697 L 490 697 C 511 697 532 685 532 680 L 532 645 L 589 645 L 589 816 C 516 825 454 832 418 834 L 459 913 C 468 910 477 904 482 891 C 592 862 674 839 735 820 C 747 852 756 886 757 915 C 816 971 875 833 696 702 Z M 956 883 L 974 715 L 962 712 C 954 747 945 784 932 825 C 927 838 924 839 917 827 C 864 730 859 379 871 152 C 894 149 908 142 915 135 L 834 64 L 794 107 L 450 107 L 379 75 L 379 420 C 379 607 371 798 277 948 L 293 959 C 430 810 438 594 438 419 L 438 136 L 804 136 C 801 430 800 766 874 897 C 897 941 932 974 962 956 C 977 948 973 925 956 883 Z" fill="red" /><path transform="translate(2000)" d="M 237 402 L 237 306 L 350 306 C 364 306 374 301 376 290 C 348 261 300 221 300 221 L 260 276 L 237 276 L 237 83 C 263 79 271 70 273 55 L 175 44 L 175 276 L 47 276 L 54 306 L 160 306 C 138 451 98 596 31 711 L 46 724 C 101 655 144 578 175 495 L 175 957 L 189 957 C 212 957 237 943 237 934 L 237 425 C 265 465 295 519 302 562 C 360 608 413 492 237 402 Z M 532 615 L 532 400 L 593 400 L 593 615 L 532 615 Z M 640 400 L 703 400 L 703 615 L 640 615 L 640 400 Z M 696 702 L 683 708 C 698 733 714 766 728 799 L 643 810 L 643 645 L 703 645 L 703 667 L 709 667 C 726 667 752 654 753 648 L 753 408 C 770 404 786 397 791 390 L 724 338 L 694 370 L 643 370 L 643 253 C 675 247 705 240 729 234 C 751 242 767 242 776 234 L 706 172 C 652 201 544 242 458 263 L 462 281 C 503 277 547 271 589 264 L 589 370 L 537 370 L 482 344 L 482 697 L 490 697 C 511 697 532 685 532 680 L 532 645 L 589 645 L 589 816 C 516 825 454 832 418 834 L 459 913 C 468 910 477 904 482 891 C 592 862 674 839 735 820 C 747 852 756 886 757 915 C 816 971 875 833 696 702 Z M 956 883 L 974 715 L 962 712 C 954 747 945 784 932 825 C 927 838 924 839 917 827 C 864 730 859 379 871 152 C 894 149 908 142 915 135 L 834 64 L 794 107 L 450 107 L 379 75 L 379 420 C 379 607 371 798 277 948 L 293 959 C 430 810 438 594 438 419 L 438 136 L 804 136 C 801 430 800 766 874 897 C 897 941 932 974 962 956 C 977 948 973 925 956 883 Z" fill="blue" fill-opacity="0.5" /><path transform="translate(2000)" d="M 644 265 L 765 265 C 777 265 786 260 789 249 C 763 222 720 186 720 186 L 682 236 L 459 236 L 467 265 L 589 265 L 589 820 L 644 820 L 644 265 Z M 237 402 L 237 306 L 350 306 C 364 306 374 301 376 290 C 348 261 300 221 300 221 L 260 276 L 237 276 L 237 83 C 263 79 271 70 273 55 L 175 44 L 175 276 L 47 276 L 54 306 L 160 306 C 138 451 98 596 31 711 L 46 724 C 101 655 144 578 175 495 L 175 957 L 189 957 C 212 957 237 943 237 934 L 237 425 C 265 465 295 519 302 562 C 360 608 413 492 237 402 Z M 532 615 L 532 400 L 593 400 L 593 615 L 532 615 Z M 640 400 L 702 400 L 702 615 L 640 615 L 640 400 Z M 696 702 L 683 708 C 698 733 714 766 728 799 L 643 810 L 643 645 L 702 645 L 702 667 L 708 667 C 726 667 752 654 753 648 L 753 408 C 770 404 786 397 791 390 L 724 338 L 694 370 L 643 370 L 589 370 L 537 370 L 482 344 L 482 697 L 490 697 C 511 697 532 685 532 680 L 532 645 L 589 645 L 589 816 C 516 825 454 832 418 834 L 459 913 C 468 910 477 904 482 891 C 592 862 674 839 735 820 C 747 852 756 886 757 915 C 816 971 875 833 696 702 Z M 956 883 L 974 715 L 962 712 C 954 747 945 784 932 825 C 927 838 924 839 917 827 C 864 730 859 379 871 152 C 894 149 908 142 915 135 L 834 64 L 794 107 L 450 107 L 379 75 L 379 420 C 379 607 371 798 277 948 L 293 959 C 430 810 438 594 438 419 L 438 136 L 804 136 C 801 430 800 766 874 897 C 897 941 932 974 962 956 C 977 948 973 925 956 883 Z" fill="red" fill-opacity="0.5" /><text text-anchor="middle" x="500" y="1064" font-family="Arial" font-size="64">Source Han Serif KR</text><text text-anchor="middle" x="1500" y="1064" font-family="Arial" font-size="64">HKSerif (uni6953KX-regular)</text></svg>