<svg width="3000" height="1080" xmlns="http://www.w3.org/2000/svg" style="background:#fff"><path d="M 361 226 L 376 237 C 410 212 451 174 484 135 C 503 138 516 131 520 121 L 437 82 C 413 136 384 192 361 226 Z M 106 88 L 94 96 C 127 126 167 181 177 223 C 231 264 276 149 106 88 Z M 146 612 L 146 278 L 279 278 L 279 598 L 287 598 C 311 598 331 583 332 579 L 332 278 L 458 278 L 458 529 C 458 540 455 545 443 545 C 429 545 380 541 380 541 L 380 557 C 406 561 419 568 429 576 C 437 586 440 600 440 616 C 508 609 516 583 516 534 L 516 291 C 537 287 553 278 559 271 L 479 211 L 448 249 L 336 249 L 336 76 C 360 72 369 64 371 50 L 275 39 L 275 249 L 158 249 L 88 218 L 88 632 L 97 632 C 126 632 146 617 146 612 Z M 471 629 L 461 637 C 505 674 556 740 563 794 C 624 841 673 701 471 629 Z M 363 333 L 349 339 C 369 376 391 438 390 484 C 430 525 479 432 363 333 Z M 187 684 L 169 683 C 164 758 116 821 72 845 C 54 858 43 877 50 895 C 62 915 96 910 121 892 C 159 866 208 794 187 684 Z M 272 349 L 196 334 C 189 400 174 470 155 519 L 172 527 C 200 488 223 428 238 372 C 259 371 268 361 272 349 Z M 761 869 L 758 760 L 745 760 C 733 811 722 849 713 866 C 708 875 704 877 688 878 C 669 880 615 881 545 881 L 391 881 C 338 881 334 877 334 861 L 334 693 C 352 690 362 680 364 668 L 269 658 L 269 871 C 269 923 288 936 385 936 L 542 936 C 757 936 793 928 793 896 C 793 884 785 876 761 869 Z M 774 677 L 763 685 C 812 731 870 808 880 871 C 948 922 1000 767 774 677 Z M 884 160 L 839 218 L 658 218 C 676 180 691 140 704 97 C 725 97 736 88 739 77 L 643 52 C 622 179 577 302 524 384 L 540 393 C 579 356 615 305 644 248 L 804 248 C 793 307 775 360 748 408 C 712 386 670 365 622 342 L 611 352 C 645 377 685 411 725 447 C 680 513 616 569 529 617 L 537 631 C 633 593 706 542 761 479 C 816 533 867 587 892 631 C 957 665 980 565 794 437 C 830 383 856 320 873 248 L 940 248 C 954 248 964 243 966 232 C 935 201 884 160 884 160 Z" fill="blue" /><path transform="translate(1000)" d="M 368 223 L 383 234 C 420 209 463 171 498 131 C 518 135 531 127 536 119 L 453 77 C 427 132 395 189 368 223 Z M 280 249 L 169 249 L 99 218 L 99 642 L 109 642 C 137 642 157 626 157 621 L 157 278 L 280 278 L 280 598 L 288 598 C 316 598 340 583 341 579 L 341 278 L 457 278 L 457 534 C 457 546 454 550 442 550 C 428 550 380 547 380 547 L 380 562 C 405 566 418 573 428 581 C 436 590 439 606 440 621 C 507 614 515 588 515 539 L 515 290 C 536 287 553 278 559 271 L 478 211 L 447 249 L 341 249 L 341 76 C 365 72 374 64 376 50 L 280 39 L 280 249 Z M 365 333 L 351 339 C 372 376 393 438 393 484 C 432 524 481 431 365 333 Z M 110 82 L 98 90 C 135 120 179 175 191 218 C 246 258 290 141 110 82 Z M 282 348 L 206 334 C 200 400 185 470 166 519 L 184 527 C 212 487 234 426 248 372 C 269 371 278 360 282 348 Z M 626 269 L 636 248 L 799 248 C 784 320 760 385 723 442 C 681 392 650 334 626 269 Z M 865 248 L 931 248 C 945 248 953 243 956 232 C 925 201 874 160 874 160 L 830 218 L 649 218 C 666 179 680 138 690 96 C 712 95 723 86 726 74 L 628 52 C 611 177 572 303 526 388 L 540 398 C 567 370 591 335 613 296 C 633 366 659 427 695 480 C 648 539 586 588 504 631 L 512 645 C 599 611 668 568 722 516 C 770 573 833 620 919 653 C 925 624 944 609 969 602 L 971 592 C 880 566 811 528 757 477 C 809 414 845 339 865 248 Z M 209 687 L 191 687 C 188 768 129 827 76 846 C 55 857 41 875 49 895 C 58 917 94 916 123 901 C 170 877 231 810 209 687 Z M 439 646 L 428 655 C 474 687 531 745 546 794 C 616 830 649 686 439 646 Z M 728 858 L 725 750 L 713 750 C 703 800 693 840 685 855 C 680 863 676 866 661 867 C 645 868 599 869 541 869 L 412 869 C 367 869 363 866 363 852 L 363 700 C 381 698 390 689 392 677 L 299 667 L 299 864 C 299 914 315 927 404 927 L 540 927 C 725 927 758 916 758 886 C 758 873 751 865 728 858 Z M 740 678 L 730 687 C 798 736 882 823 905 894 C 986 942 1024 762 740 678 Z" fill="red" /><path transform="translate(2000)" d="M 361 226 L 376 237 C 410 212 451 174 484 135 C 503 138 516 131 520 121 L 437 82 C 413 136 384 192 361 226 Z M 106 88 L 94 96 C 127 126 167 181 177 223 C 231 264 276 149 106 88 Z M 146 612 L 146 278 L 279 278 L 279 598 L 287 598 C 311 598 331 583 332 579 L 332 278 L 458 278 L 458 529 C 458 540 455 545 443 545 C 429 545 380 541 380 541 L 380 557 C 406 561 419 568 429 576 C 437 586 440 600 440 616 C 508 609 516 583 516 534 L 516 291 C 537 287 553 278 559 271 L 479 211 L 448 249 L 336 249 L 336 76 C 360 72 369 64 371 50 L 275 39 L 275 249 L 158 249 L 88 218 L 88 632 L 97 632 C 126 632 146 617 146 612 Z M 471 629 L 461 637 C 505 674 556 740 563 794 C 624 841 673 701 471 629 Z M 363 333 L 349 339 C 369 376 391 438 390 484 C 430 525 479 432 363 333 Z M 187 684 L 169 683 C 164 758 116 821 72 845 C 54 858 43 877 50 895 C 62 915 96 910 121 892 C 159 866 208 794 187 684 Z M 272 349 L 196 334 C 189 400 174 470 155 519 L 172 527 C 200 488 223 428 238 372 C 259 371 268 361 272 349 Z M 761 869 L 758 760 L 745 760 C 733 811 722 849 713 866 C 708 875 704 877 688 878 C 669 880 615 881 545 881 L 391 881 C 338 881 334 877 334 861 L 334 693 C 352 690 362 680 364 668 L 269 658 L 269 871 C 269 923 288 936 385 936 L 542 936 C 757 936 793 928 793 896 C 793 884 785 876 761 869 Z M 774 677 L 763 685 C 812 731 870 808 880 871 C 948 922 1000 767 774 677 Z M 884 160 L 839 218 L 658 218 C 676 180 691 140 704 97 C 725 97 736 88 739 77 L 643 52 C 622 179 577 302 524 384 L 540 393 C 579 356 615 305 644 248 L 804 248 C 793 307 775 360 748 408 C 712 386 670 365 622 342 L 611 352 C 645 377 685 411 725 447 C 680 513 616 569 529 617 L 537 631 C 633 593 706 542 761 479 C 816 533 867 587 892 631 C 957 665 980 565 794 437 C 830 383 856 320 873 248 L 940 248 C 954 248 964 243 966 232 C 935 201 884 160 884 160 Z" fill="blue" fill-opacity="0.5" /><path transform="translate(2000)" d="M 368 223 L 383 234 C 420 209 463 171 498 131 C 518 135 531 127 536 119 L 453 77 C 427 132 395 189 368 223 Z M 280 249 L 169 249 L 99 218 L 99 642 L 109 642 C 137 642 157 626 157 621 L 157 278 L 280 278 L 280 598 L 288 598 C 316 598 340 583 341 579 L 341 278 L 457 278 L 457 534 C 457 546 454 550 442 550 C 428 550 380 547 380 547 L 380 562 C 405 566 418 573 428 581 C 436 590 439 606 440 621 C 507 614 515 588 515 539 L 515 290 C 536 287 553 278 559 271 L 478 211 L 447 249 L 341 249 L 341 76 C 365 72 374 64 376 50 L 280 39 L 280 249 Z M 365 333 L 351 339 C 372 376 393 438 393 484 C 432 524 481 431 365 333 Z M 110 82 L 98 90 C 135 120 179 175 191 218 C 246 258 290 141 110 82 Z M 282 348 L 206 334 C 200 400 185 470 166 519 L 184 527 C 212 487 234 426 248 372 C 269 371 278 360 282 348 Z M 626 269 L 636 248 L 799 248 C 784 320 760 385 723 442 C 681 392 650 334 626 269 Z M 865 248 L 931 248 C 945 248 953 243 956 232 C 925 201 874 160 874 160 L 830 218 L 649 218 C 666 179 680 138 690 96 C 712 95 723 86 726 74 L 628 52 C 611 177 572 303 526 388 L 540 398 C 567 370 591 335 613 296 C 633 366 659 427 695 480 C 648 539 586 588 504 631 L 512 645 C 599 611 668 568 722 516 C 770 573 833 620 919 653 C 925 624 944 609 969 602 L 971 592 C 880 566 811 528 757 477 C 809 414 845 339 865 248 Z M 209 687 L 191 687 C 188 768 129 827 76 846 C 55 857 41 875 49 895 C 58 917 94 916 123 901 C 170 877 231 810 209 687 Z M 439 646 L 428 655 C 474 687 531 745 546 794 C 616 830 649 686 439 646 Z M 728 858 L 725 750 L 713 750 C 703 800 693 840 685 855 C 680 863 676 866 661 867 C 645 868 599 869 541 869 L 412 869 C 367 869 363 866 363 852 L 363 700 C 381 698 390 689 392 677 L 299 667 L 299 864 C 299 914 315 927 404 927 L 540 927 C 725 927 758 916 758 886 C 758 873 751 865 728 858 Z M 740 678 L 730 687 C 798 736 882 823 905 894 C 986 942 1024 762 740 678 Z" fill="red" fill-opacity="0.5" /><text text-anchor="middle" x="500" y="1064" font-family="Arial" font-size="64">Source Han Serif TW</text><text text-anchor="middle" x="1500" y="1064" font-family="Arial" font-size="64">HKSerif (uni618BHK-regular)</text></svg>