<svg width="3000" height="1080" xmlns="http://www.w3.org/2000/svg" style="background:#fff"><path d="M 758 322 L 839 322 L 839 422 L 758 422 L 758 322 Z M 839 553 L 758 553 L 758 451 L 839 451 L 839 553 Z M 701 553 L 621 553 L 621 451 L 701 451 L 701 553 Z M 621 322 L 701 322 L 701 422 L 621 422 L 621 322 Z M 531 171 L 539 201 L 701 201 L 701 293 L 626 293 L 567 266 L 567 629 L 575 629 C 597 629 621 616 621 610 L 621 583 L 701 583 L 701 687 L 527 687 L 535 716 L 701 716 L 701 854 L 712 854 C 733 854 758 840 758 832 L 758 716 L 928 716 C 941 716 950 711 953 700 C 923 671 875 633 875 633 L 834 687 L 758 687 L 758 583 L 839 583 L 839 615 L 848 615 C 868 615 896 602 897 595 L 897 331 C 915 328 930 320 936 313 L 863 258 L 830 293 L 758 293 L 758 201 L 924 201 C 938 201 947 196 949 185 C 920 156 871 119 871 119 L 829 171 L 758 171 L 758 82 C 784 78 792 67 794 53 L 701 43 L 701 171 L 531 171 Z M 381 74 L 370 82 C 406 112 447 165 457 208 C 520 249 566 122 381 74 Z M 386 277 L 375 285 C 407 315 447 368 458 407 C 518 447 564 328 386 277 Z M 238 395 L 238 307 L 352 307 C 366 307 375 302 378 291 C 351 261 305 219 305 219 L 265 277 L 238 277 L 238 77 C 263 73 271 64 274 49 L 177 37 L 177 277 L 48 277 L 55 307 L 164 307 C 141 451 103 599 39 716 L 54 729 C 106 661 146 585 177 502 L 177 956 L 190 956 C 212 956 238 940 238 931 L 238 418 C 266 454 293 503 299 542 C 352 587 404 473 238 395 Z M 502 786 L 502 571 C 529 567 543 559 549 552 L 468 483 L 431 531 L 358 531 L 364 561 L 445 561 L 445 808 C 402 837 355 868 324 884 L 371 960 C 379 955 383 948 380 936 C 410 905 460 847 490 806 C 533 916 590 939 708 939 L 921 939 C 923 911 936 891 959 887 L 959 873 C 883 875 787 875 708 875 C 601 875 549 863 502 786 Z" fill="blue" /><path transform="translate(1000)" d="M 238 395 L 238 307 L 352 307 C 366 307 375 302 378 291 C 351 261 305 219 305 219 L 265 277 L 238 277 L 238 77 C 263 73 271 64 274 49 L 177 37 L 177 277 L 48 277 L 55 307 L 164 307 C 141 451 103 599 39 716 L 54 729 C 106 661 146 585 177 502 L 177 956 L 190 956 C 212 956 238 940 238 931 L 238 418 C 266 454 293 503 299 542 C 352 587 404 473 238 395 Z M 738 314 L 844 314 L 844 412 L 738 412 L 738 314 Z M 844 539 L 738 539 L 738 440 L 844 440 L 844 539 Z M 578 539 L 578 440 L 680 440 L 680 539 L 578 539 Z M 578 314 L 680 314 L 680 412 L 578 412 L 578 314 Z M 477 168 L 485 197 L 679 197 L 679 284 L 590 284 L 520 255 L 520 619 L 529 619 C 558 619 578 604 578 599 L 578 569 L 679 569 L 679 683 L 459 683 L 467 712 L 679 712 L 679 850 L 688 850 C 719 850 740 835 740 830 L 740 712 L 957 712 C 971 712 980 707 983 696 C 952 667 900 625 900 625 L 855 683 L 740 683 L 740 569 L 844 569 L 844 608 L 853 608 C 880 608 904 594 904 589 L 904 318 C 924 315 934 309 941 301 L 871 248 L 841 284 L 740 284 L 740 197 L 950 197 C 963 197 972 192 975 181 C 944 152 892 111 892 111 L 847 168 L 740 168 L 740 76 C 764 73 775 63 777 49 L 679 38 L 679 168 L 477 168 Z M 336 74 L 325 82 C 359 114 394 172 399 218 C 461 266 518 132 336 74 Z M 326 272 L 315 280 C 352 313 392 369 399 416 C 464 462 516 326 326 272 Z M 440 775 L 440 572 C 466 568 481 560 488 553 L 404 483 L 367 532 L 291 532 L 296 562 L 379 562 L 379 803 C 338 834 295 864 267 881 L 314 957 C 322 953 327 946 324 934 C 353 901 399 840 429 796 C 479 913 546 937 687 937 L 945 937 C 948 908 961 888 987 883 L 987 870 C 896 873 778 873 687 873 C 557 873 496 859 440 775 Z" fill="red" /><path transform="translate(2000)" d="M 758 322 L 839 322 L 839 422 L 758 422 L 758 322 Z M 839 553 L 758 553 L 758 451 L 839 451 L 839 553 Z M 701 553 L 621 553 L 621 451 L 701 451 L 701 553 Z M 621 322 L 701 322 L 701 422 L 621 422 L 621 322 Z M 531 171 L 539 201 L 701 201 L 701 293 L 626 293 L 567 266 L 567 629 L 575 629 C 597 629 621 616 621 610 L 621 583 L 701 583 L 701 687 L 527 687 L 535 716 L 701 716 L 701 854 L 712 854 C 733 854 758 840 758 832 L 758 716 L 928 716 C 941 716 950 711 953 700 C 923 671 875 633 875 633 L 834 687 L 758 687 L 758 583 L 839 583 L 839 615 L 848 615 C 868 615 896 602 897 595 L 897 331 C 915 328 930 320 936 313 L 863 258 L 830 293 L 758 293 L 758 201 L 924 201 C 938 201 947 196 949 185 C 920 156 871 119 871 119 L 829 171 L 758 171 L 758 82 C 784 78 792 67 794 53 L 701 43 L 701 171 L 531 171 Z M 381 74 L 370 82 C 406 112 447 165 457 208 C 520 249 566 122 381 74 Z M 386 277 L 375 285 C 407 315 447 368 458 407 C 518 447 564 328 386 277 Z M 238 395 L 238 307 L 352 307 C 366 307 375 302 378 291 C 351 261 305 219 305 219 L 265 277 L 238 277 L 238 77 C 263 73 271 64 274 49 L 177 37 L 177 277 L 48 277 L 55 307 L 164 307 C 141 451 103 599 39 716 L 54 729 C 106 661 146 585 177 502 L 177 956 L 190 956 C 212 956 238 940 238 931 L 238 418 C 266 454 293 503 299 542 C 352 587 404 473 238 395 Z M 502 786 L 502 571 C 529 567 543 559 549 552 L 468 483 L 431 531 L 358 531 L 364 561 L 445 561 L 445 808 C 402 837 355 868 324 884 L 371 960 C 379 955 383 948 380 936 C 410 905 460 847 490 806 C 533 916 590 939 708 939 L 921 939 C 923 911 936 891 959 887 L 959 873 C 883 875 787 875 708 875 C 601 875 549 863 502 786 Z" fill="blue" fill-opacity="0.5" /><path transform="translate(2000)" d="M 238 395 L 238 307 L 352 307 C 366 307 375 302 378 291 C 351 261 305 219 305 219 L 265 277 L 238 277 L 238 77 C 263 73 271 64 274 49 L 177 37 L 177 277 L 48 277 L 55 307 L 164 307 C 141 451 103 599 39 716 L 54 729 C 106 661 146 585 177 502 L 177 956 L 190 956 C 212 956 238 940 238 931 L 238 418 C 266 454 293 503 299 542 C 352 587 404 473 238 395 Z M 738 314 L 844 314 L 844 412 L 738 412 L 738 314 Z M 844 539 L 738 539 L 738 440 L 844 440 L 844 539 Z M 578 539 L 578 440 L 680 440 L 680 539 L 578 539 Z M 578 314 L 680 314 L 680 412 L 578 412 L 578 314 Z M 477 168 L 485 197 L 679 197 L 679 284 L 590 284 L 520 255 L 520 619 L 529 619 C 558 619 578 604 578 599 L 578 569 L 679 569 L 679 683 L 459 683 L 467 712 L 679 712 L 679 850 L 688 850 C 719 850 740 835 740 830 L 740 712 L 957 712 C 971 712 980 707 983 696 C 952 667 900 625 900 625 L 855 683 L 740 683 L 740 569 L 844 569 L 844 608 L 853 608 C 880 608 904 594 904 589 L 904 318 C 924 315 934 309 941 301 L 871 248 L 841 284 L 740 284 L 740 197 L 950 197 C 963 197 972 192 975 181 C 944 152 892 111 892 111 L 847 168 L 740 168 L 740 76 C 764 73 775 63 777 49 L 679 38 L 679 168 L 477 168 Z M 336 74 L 325 82 C 359 114 394 172 399 218 C 461 266 518 132 336 74 Z M 326 272 L 315 280 C 352 313 392 369 399 416 C 464 462 516 326 326 272 Z M 440 775 L 440 572 C 466 568 481 560 488 553 L 404 483 L 367 532 L 291 532 L 296 562 L 379 562 L 379 803 C 338 834 295 864 267 881 L 314 957 C 322 953 327 946 324 934 C 353 901 399 840 429 796 C 479 913 546 937 687 937 L 945 937 C 948 908 961 888 987 883 L 987 870 C 896 873 778 873 687 873 C 557 873 496 859 440 775 Z" fill="red" fill-opacity="0.5" /><text text-anchor="middle" x="500" y="1064" font-family="Arial" font-size="64">Source Han Serif KR</text><text text-anchor="middle" x="1500" y="1064" font-family="Arial" font-size="64">HKSerif (uni69E4KX-regular)</text></svg>