<svg width="3000" height="1080" xmlns="http://www.w3.org/2000/svg" style="background:#fff"><path d="M 509 179 L 628 179 C 583 241 518 298 444 342 L 455 359 C 538 324 612 280 667 223 L 667 385 L 679 385 C 702 385 729 373 729 366 L 729 212 C 784 248 848 300 875 337 C 944 364 964 245 729 189 L 729 179 L 907 179 C 921 179 931 174 934 163 C 902 134 854 94 854 94 L 810 149 L 729 149 L 729 82 C 754 78 763 69 765 55 L 667 44 L 667 149 L 501 149 L 509 179 Z M 59 362 L 70 377 C 143 341 205 294 253 237 L 253 386 L 264 386 C 286 386 313 373 313 366 L 313 214 C 351 241 392 280 409 310 C 472 340 501 223 313 193 L 313 179 L 457 179 C 471 179 481 174 484 163 C 454 134 405 96 405 96 L 364 149 L 313 149 L 313 77 C 337 73 346 64 349 50 L 253 40 L 253 149 L 82 149 L 90 179 L 220 179 C 183 248 127 311 59 362 Z M 353 737 L 353 629 L 465 629 L 465 737 L 353 737 Z M 519 629 L 635 629 L 635 737 L 519 737 L 519 629 Z M 603 780 L 593 789 C 614 804 637 825 657 848 L 521 856 L 521 767 L 635 767 L 635 787 L 644 787 C 664 787 692 773 693 766 L 693 634 C 707 632 720 625 725 619 L 659 568 L 628 600 L 521 600 L 521 519 L 716 519 C 730 519 738 514 741 503 C 714 475 669 438 669 438 L 630 489 L 264 489 L 272 519 L 463 519 L 463 600 L 358 600 L 295 570 L 295 802 L 304 802 C 327 802 353 789 353 784 L 353 767 L 463 767 L 463 859 C 364 865 280 868 232 869 L 267 944 C 277 942 286 935 292 923 C 459 901 581 883 672 867 C 689 890 704 912 710 933 C 771 977 814 847 603 780 Z M 940 889 L 952 764 L 941 761 C 932 792 922 822 913 850 C 908 862 905 863 896 856 C 842 798 826 588 831 441 C 851 439 865 433 870 426 L 794 361 L 755 402 L 228 402 L 154 370 L 154 566 C 154 698 141 837 39 949 L 52 962 C 203 852 216 689 216 566 L 216 431 L 765 431 C 767 631 783 840 866 923 C 893 952 933 970 953 946 C 963 934 958 916 940 889 Z" fill="blue" /><path transform="translate(1000)" d="M 756 179 L 729 179 C 772 263 845 325 914 363 C 921 332 939 314 963 310 L 964 300 C 894 279 811 237 756 179 Z M 509 179 L 628 179 C 583 241 518 298 444 342 L 455 359 C 538 324 612 280 667 223 L 667 385 L 679 385 C 702 385 729 373 729 366 L 729 179 L 907 179 C 921 179 931 174 934 163 C 902 134 854 94 854 94 L 810 149 L 729 149 L 729 82 C 754 78 763 69 765 55 L 667 44 L 667 149 L 501 149 L 509 179 Z M 59 362 L 70 377 C 143 341 205 294 253 237 L 253 386 L 264 386 C 286 386 313 373 313 366 L 313 214 C 351 241 392 280 409 310 C 472 340 501 223 313 193 L 313 179 L 457 179 C 471 179 481 174 484 163 C 454 134 405 96 405 96 L 364 149 L 313 149 L 313 77 C 337 73 346 64 349 50 L 253 40 L 253 149 L 82 149 L 90 179 L 220 179 C 183 248 127 311 59 362 Z M 353 737 L 353 629 L 463 629 L 463 737 L 353 737 Z M 521 629 L 635 629 L 635 737 L 521 737 L 521 629 Z M 603 780 L 593 789 C 614 804 637 825 657 848 L 521 856 L 521 767 L 635 767 L 635 787 L 644 787 C 664 787 692 773 693 766 L 693 634 C 707 632 720 625 725 619 L 659 568 L 628 600 L 521 600 L 521 519 L 716 519 C 730 519 738 514 741 503 C 714 475 669 438 669 438 L 630 489 L 264 489 L 272 519 L 463 519 L 463 600 L 358 600 L 295 570 L 295 802 L 304 802 C 327 802 353 789 353 784 L 353 767 L 463 767 L 463 859 C 364 865 280 868 232 869 L 267 944 C 277 942 286 935 292 923 C 459 901 581 883 672 867 C 689 890 704 912 710 933 C 771 977 814 847 603 780 Z M 940 889 L 952 764 L 941 761 C 932 792 922 822 913 850 C 908 862 905 863 896 856 C 842 798 826 588 831 441 C 851 439 865 433 870 426 L 794 361 L 755 402 L 228 402 L 154 370 L 154 566 C 154 698 141 837 39 949 L 52 962 C 203 852 216 689 216 566 L 216 431 L 765 431 C 767 631 783 840 866 923 C 893 952 933 970 953 946 C 963 934 958 916 940 889 Z" fill="red" /><path transform="translate(2000)" d="M 509 179 L 628 179 C 583 241 518 298 444 342 L 455 359 C 538 324 612 280 667 223 L 667 385 L 679 385 C 702 385 729 373 729 366 L 729 212 C 784 248 848 300 875 337 C 944 364 964 245 729 189 L 729 179 L 907 179 C 921 179 931 174 934 163 C 902 134 854 94 854 94 L 810 149 L 729 149 L 729 82 C 754 78 763 69 765 55 L 667 44 L 667 149 L 501 149 L 509 179 Z M 59 362 L 70 377 C 143 341 205 294 253 237 L 253 386 L 264 386 C 286 386 313 373 313 366 L 313 214 C 351 241 392 280 409 310 C 472 340 501 223 313 193 L 313 179 L 457 179 C 471 179 481 174 484 163 C 454 134 405 96 405 96 L 364 149 L 313 149 L 313 77 C 337 73 346 64 349 50 L 253 40 L 253 149 L 82 149 L 90 179 L 220 179 C 183 248 127 311 59 362 Z M 353 737 L 353 629 L 465 629 L 465 737 L 353 737 Z M 519 629 L 635 629 L 635 737 L 519 737 L 519 629 Z M 603 780 L 593 789 C 614 804 637 825 657 848 L 521 856 L 521 767 L 635 767 L 635 787 L 644 787 C 664 787 692 773 693 766 L 693 634 C 707 632 720 625 725 619 L 659 568 L 628 600 L 521 600 L 521 519 L 716 519 C 730 519 738 514 741 503 C 714 475 669 438 669 438 L 630 489 L 264 489 L 272 519 L 463 519 L 463 600 L 358 600 L 295 570 L 295 802 L 304 802 C 327 802 353 789 353 784 L 353 767 L 463 767 L 463 859 C 364 865 280 868 232 869 L 267 944 C 277 942 286 935 292 923 C 459 901 581 883 672 867 C 689 890 704 912 710 933 C 771 977 814 847 603 780 Z M 940 889 L 952 764 L 941 761 C 932 792 922 822 913 850 C 908 862 905 863 896 856 C 842 798 826 588 831 441 C 851 439 865 433 870 426 L 794 361 L 755 402 L 228 402 L 154 370 L 154 566 C 154 698 141 837 39 949 L 52 962 C 203 852 216 689 216 566 L 216 431 L 765 431 C 767 631 783 840 866 923 C 893 952 933 970 953 946 C 963 934 958 916 940 889 Z" fill="blue" fill-opacity="0.5" /><path transform="translate(2000)" d="M 756 179 L 729 179 C 772 263 845 325 914 363 C 921 332 939 314 963 310 L 964 300 C 894 279 811 237 756 179 Z M 509 179 L 628 179 C 583 241 518 298 444 342 L 455 359 C 538 324 612 280 667 223 L 667 385 L 679 385 C 702 385 729 373 729 366 L 729 179 L 907 179 C 921 179 931 174 934 163 C 902 134 854 94 854 94 L 810 149 L 729 149 L 729 82 C 754 78 763 69 765 55 L 667 44 L 667 149 L 501 149 L 509 179 Z M 59 362 L 70 377 C 143 341 205 294 253 237 L 253 386 L 264 386 C 286 386 313 373 313 366 L 313 214 C 351 241 392 280 409 310 C 472 340 501 223 313 193 L 313 179 L 457 179 C 471 179 481 174 484 163 C 454 134 405 96 405 96 L 364 149 L 313 149 L 313 77 C 337 73 346 64 349 50 L 253 40 L 253 149 L 82 149 L 90 179 L 220 179 C 183 248 127 311 59 362 Z M 353 737 L 353 629 L 463 629 L 463 737 L 353 737 Z M 521 629 L 635 629 L 635 737 L 521 737 L 521 629 Z M 603 780 L 593 789 C 614 804 637 825 657 848 L 521 856 L 521 767 L 635 767 L 635 787 L 644 787 C 664 787 692 773 693 766 L 693 634 C 707 632 720 625 725 619 L 659 568 L 628 600 L 521 600 L 521 519 L 716 519 C 730 519 738 514 741 503 C 714 475 669 438 669 438 L 630 489 L 264 489 L 272 519 L 463 519 L 463 600 L 358 600 L 295 570 L 295 802 L 304 802 C 327 802 353 789 353 784 L 353 767 L 463 767 L 463 859 C 364 865 280 868 232 869 L 267 944 C 277 942 286 935 292 923 C 459 901 581 883 672 867 C 689 890 704 912 710 933 C 771 977 814 847 603 780 Z M 940 889 L 952 764 L 941 761 C 932 792 922 822 913 850 C 908 862 905 863 896 856 C 842 798 826 588 831 441 C 851 439 865 433 870 426 L 794 361 L 755 402 L 228 402 L 154 370 L 154 566 C 154 698 141 837 39 949 L 52 962 C 203 852 216 689 216 566 L 216 431 L 765 431 C 767 631 783 840 866 923 C 893 952 933 970 953 946 C 963 934 958 916 940 889 Z" fill="red" fill-opacity="0.5" /><text text-anchor="middle" x="500" y="1064" font-family="Arial" font-size="64">Source Han Serif TW</text><text text-anchor="middle" x="1500" y="1064" font-family="Arial" font-size="64">HKSerif (uni6A92HK-regular)</text></svg>