<svg width="1000" height="1000" xmlns="http://www.w3.org/2000/svg"><path d="M 967 497 L 899 430 L 863 468 L 370 468 C 368 457 366 443 362 429 L 344 429 C 347 472 322 521 298 542 C 279 554 268 573 278 592 C 289 613 321 609 338 593 C 357 577 371 542 372 497 L 868 497 C 864 519 858 544 854 559 L 869 565 C 887 551 914 524 930 506 C 948 505 960 504 967 497 Z" fill="black" /><path d="M 874 577 L 802 521 L 770 560 L 507 560 L 433 528 L 433 957 L 443 957 C 474 957 495 943 495 937 L 495 912 L 773 912 L 773 948 L 783 948 C 812 948 836 933 836 929 L 836 593 C 857 590 868 585 874 577 Z" fill="black" /><path d="M 368 217 L 368 434 L 377 434 C 400 434 427 421 427 416 L 427 397 L 834 397 L 834 426 L 844 426 C 864 426 894 413 895 407 L 895 284 C 912 281 927 273 933 266 L 859 211 L 825 247 L 432 247 L 368 217 Z" fill="black" /><path d="M 733 275 L 834 275 L 834 367 L 733 367 L 733 275 Z" fill="white" /><path d="M 578 275 L 678 275 L 678 367 L 578 367 L 578 275 Z" fill="white" /><path d="M 427 275 L 523 275 L 523 367 L 427 367 L 427 275 Z" fill="white" /><path d="M 495 588 L 773 588 L 773 666 L 495 666 L 495 588 Z" fill="white" /><path d="M 495 771 L 495 694 L 773 694 L 773 771 L 495 771 Z" fill="white" /><path d="M 773 882 L 495 882 L 495 801 L 773 801 L 773 882 Z" fill="white" /><path d="M 310 136 L 329 166 L 512 166 L 512 230 L 524 230 C 546 230 574 219 574 213 L 574 81 C 598 77 608 68 610 55 L 512 44 L 512 136 L 310 136 Z" fill="black" /><path d="M 740 211 L 740 166 L 937 166 C 951 166 959 161 961 150 C 933 120 885 81 885 81 L 843 136 L 740 136 L 740 81 C 765 77 774 68 776 55 L 678 44 L 678 228 L 691 228 C 713 228 740 217 740 211 Z" fill="black" /><path d="M 241 218 L 228 225 C 252 266 277 331 278 381 C 329 430 388 316 241 218 Z" fill="black" /><path d="M 257 53 L 158 41 L 158 958 L 171 958 C 194 958 220 944 220 935 L 220 81 C 246 77 254 67 257 53 Z" fill="black" /><path d="M 101 235 L 82 234 C 88 302 66 383 42 416 C 25 434 17 456 32 473 C 48 493 82 480 97 455 C 120 418 130 336 101 235 Z" fill="black" /></svg>