<svg width="3000" height="1080" xmlns="http://www.w3.org/2000/svg" style="background:#fff"><path d="M 544 126 L 765 126 L 765 318 L 544 318 L 544 126 Z M 544 377 L 544 347 L 765 347 L 765 383 L 775 383 C 795 383 826 369 827 363 L 827 138 C 847 134 863 126 869 118 L 791 58 L 755 96 L 557 96 L 482 65 L 482 398 L 492 398 C 523 398 544 382 544 377 Z M 126 56 L 116 66 C 163 95 219 150 237 197 C 310 236 349 88 126 56 Z M 53 278 L 43 287 C 85 313 135 363 151 406 C 223 446 262 303 53 278 Z M 336 230 L 317 224 C 145 621 145 621 127 656 C 117 676 114 677 102 677 L 58 677 L 58 699 C 80 701 93 703 106 713 C 129 728 134 806 120 908 C 122 940 135 958 154 958 C 187 958 207 932 209 889 C 213 806 184 761 182 716 C 182 692 189 661 198 629 C 212 582 294 353 336 230 Z M 667 710 L 656 721 C 733 779 844 878 888 946 C 969 984 993 829 667 710 Z M 630 473 L 800 473 L 800 644 L 612 644 C 624 592 628 534 630 473 Z M 906 589 L 872 644 L 862 644 L 862 478 C 878 476 886 473 893 466 L 823 409 L 791 443 L 403 443 L 403 224 C 426 220 437 211 439 197 L 342 186 L 342 436 C 328 443 313 452 305 459 L 384 508 L 412 473 L 566 473 C 564 534 562 591 551 644 L 292 644 L 300 674 L 544 674 C 515 780 444 868 270 942 L 283 958 C 490 886 572 792 605 674 L 947 674 C 961 674 970 669 972 658 C 949 629 906 589 906 589 Z" fill="blue" /><path transform="translate(1000)" d="M 544 126 L 765 126 L 765 318 L 544 318 L 544 126 Z M 544 377 L 544 347 L 765 347 L 765 383 L 775 383 C 795 383 826 369 827 363 L 827 138 C 847 134 863 126 869 118 L 791 58 L 755 96 L 557 96 L 482 65 L 482 398 L 492 398 C 523 398 544 382 544 377 Z M 126 56 L 116 66 C 163 95 219 150 237 197 C 310 236 349 88 126 56 Z M 53 278 L 43 287 C 85 313 135 363 151 406 C 223 446 262 303 53 278 Z M 336 230 L 317 224 C 145 621 145 621 127 656 C 117 676 114 677 102 677 L 58 677 L 58 699 C 80 701 93 703 106 713 C 129 728 134 806 120 908 C 122 940 135 958 154 958 C 187 958 207 932 209 889 C 213 806 184 761 182 716 C 182 692 189 661 198 629 C 212 582 294 353 336 230 Z M 630 473 L 800 473 L 800 644 L 612 644 C 624 592 628 534 630 473 Z M 906 589 L 872 644 L 862 644 L 862 478 C 878 476 886 473 893 466 L 823 409 L 791 443 L 403 443 L 403 224 C 426 220 437 211 439 197 L 342 186 L 342 436 C 328 443 313 452 305 459 L 384 508 L 412 473 L 566 473 C 564 534 562 591 551 644 L 292 644 L 300 674 L 544 674 C 515 780 444 868 270 942 L 283 958 C 490 886 572 792 605 674 L 621 674 C 673 819 765 912 908 961 C 915 928 935 907 963 901 L 964 890 C 820 863 705 786 643 674 L 947 674 C 961 674 970 669 972 658 C 949 629 906 589 906 589 Z" fill="red" /><path transform="translate(2000)" d="M 544 126 L 765 126 L 765 318 L 544 318 L 544 126 Z M 544 377 L 544 347 L 765 347 L 765 383 L 775 383 C 795 383 826 369 827 363 L 827 138 C 847 134 863 126 869 118 L 791 58 L 755 96 L 557 96 L 482 65 L 482 398 L 492 398 C 523 398 544 382 544 377 Z M 126 56 L 116 66 C 163 95 219 150 237 197 C 310 236 349 88 126 56 Z M 53 278 L 43 287 C 85 313 135 363 151 406 C 223 446 262 303 53 278 Z M 336 230 L 317 224 C 145 621 145 621 127 656 C 117 676 114 677 102 677 L 58 677 L 58 699 C 80 701 93 703 106 713 C 129 728 134 806 120 908 C 122 940 135 958 154 958 C 187 958 207 932 209 889 C 213 806 184 761 182 716 C 182 692 189 661 198 629 C 212 582 294 353 336 230 Z M 667 710 L 656 721 C 733 779 844 878 888 946 C 969 984 993 829 667 710 Z M 630 473 L 800 473 L 800 644 L 612 644 C 624 592 628 534 630 473 Z M 906 589 L 872 644 L 862 644 L 862 478 C 878 476 886 473 893 466 L 823 409 L 791 443 L 403 443 L 403 224 C 426 220 437 211 439 197 L 342 186 L 342 436 C 328 443 313 452 305 459 L 384 508 L 412 473 L 566 473 C 564 534 562 591 551 644 L 292 644 L 300 674 L 544 674 C 515 780 444 868 270 942 L 283 958 C 490 886 572 792 605 674 L 947 674 C 961 674 970 669 972 658 C 949 629 906 589 906 589 Z" fill="blue" fill-opacity="0.5" /><path transform="translate(2000)" d="M 544 126 L 765 126 L 765 318 L 544 318 L 544 126 Z M 544 377 L 544 347 L 765 347 L 765 383 L 775 383 C 795 383 826 369 827 363 L 827 138 C 847 134 863 126 869 118 L 791 58 L 755 96 L 557 96 L 482 65 L 482 398 L 492 398 C 523 398 544 382 544 377 Z M 126 56 L 116 66 C 163 95 219 150 237 197 C 310 236 349 88 126 56 Z M 53 278 L 43 287 C 85 313 135 363 151 406 C 223 446 262 303 53 278 Z M 336 230 L 317 224 C 145 621 145 621 127 656 C 117 676 114 677 102 677 L 58 677 L 58 699 C 80 701 93 703 106 713 C 129 728 134 806 120 908 C 122 940 135 958 154 958 C 187 958 207 932 209 889 C 213 806 184 761 182 716 C 182 692 189 661 198 629 C 212 582 294 353 336 230 Z M 630 473 L 800 473 L 800 644 L 612 644 C 624 592 628 534 630 473 Z M 906 589 L 872 644 L 862 644 L 862 478 C 878 476 886 473 893 466 L 823 409 L 791 443 L 403 443 L 403 224 C 426 220 437 211 439 197 L 342 186 L 342 436 C 328 443 313 452 305 459 L 384 508 L 412 473 L 566 473 C 564 534 562 591 551 644 L 292 644 L 300 674 L 544 674 C 515 780 444 868 270 942 L 283 958 C 490 886 572 792 605 674 L 621 674 C 673 819 765 912 908 961 C 915 928 935 907 963 901 L 964 890 C 820 863 705 786 643 674 L 947 674 C 961 674 970 669 972 658 C 949 629 906 589 906 589 Z" fill="red" fill-opacity="0.5" /><text text-anchor="middle" x="500" y="1064" font-family="Arial" font-size="64">Source Han Serif TW</text><text text-anchor="middle" x="1500" y="1064" font-family="Arial" font-size="64">HKSerif (uni6D16HK-regular)</text></svg>