<svg width="3000" height="1080" xmlns="http://www.w3.org/2000/svg" style="background:#fff"><path d="M 527 324 L 542 333 C 580 301 612 256 638 208 L 801 208 C 787 260 767 308 737 351 C 701 331 657 312 607 295 L 597 306 C 631 327 671 356 709 387 C 657 449 585 499 490 539 L 497 555 C 602 522 684 478 747 419 C 797 464 843 512 866 551 C 930 582 952 483 785 377 C 825 330 855 274 873 208 L 921 208 C 935 208 944 203 947 192 C 916 162 866 124 866 124 L 823 179 L 653 179 C 668 147 681 114 692 82 C 711 81 722 72 726 60 L 627 38 C 611 139 573 255 527 324 Z M 620 547 L 612 557 C 653 579 705 621 726 655 C 790 681 812 558 620 547 Z M 66 127 L 74 157 L 270 157 L 270 224 L 106 224 L 114 253 L 485 253 C 499 253 508 248 511 237 C 483 211 440 178 440 178 L 401 224 L 331 224 L 331 157 L 534 157 C 548 157 557 152 560 141 C 532 115 490 82 490 82 L 452 127 L 331 127 L 331 67 C 349 64 356 56 357 45 L 270 36 L 270 127 L 66 127 Z M 58 616 L 65 631 C 152 588 213 528 249 446 L 414 446 C 406 497 396 528 384 536 C 378 540 372 542 359 542 C 343 542 304 539 281 537 L 281 554 C 302 557 322 562 331 569 C 340 577 343 589 343 603 C 372 604 399 600 419 588 C 448 569 465 530 473 451 C 492 449 505 445 511 438 L 442 382 L 408 416 L 261 416 C 267 398 273 381 277 361 L 517 361 C 531 361 540 356 542 345 C 516 319 474 288 474 288 L 439 331 L 333 331 C 359 315 358 265 263 254 L 253 261 C 271 276 289 303 293 327 C 295 329 297 330 299 331 L 65 331 L 73 361 L 207 361 C 192 465 146 551 58 616 Z M 562 732 L 553 743 C 654 792 798 886 858 954 C 950 980 949 807 562 732 Z M 858 617 L 811 677 L 510 677 C 514 657 518 637 521 616 C 543 614 554 602 556 589 L 454 578 C 451 613 447 647 438 677 L 69 677 L 77 707 L 428 707 C 388 799 294 874 56 939 L 64 958 C 368 895 462 810 500 707 L 919 707 C 933 707 942 702 945 691 C 912 659 858 617 858 617 Z" fill="blue" /><path transform="translate(1000)" d="M 620 547 L 612 557 C 653 579 705 621 726 655 C 790 681 812 558 620 547 Z M 66 127 L 74 157 L 270 157 L 270 224 L 106 224 L 114 253 L 485 253 C 499 253 508 248 511 237 C 483 211 440 178 440 178 L 401 224 L 331 224 L 331 157 L 534 157 C 548 157 557 152 560 141 C 532 115 490 82 490 82 L 452 127 L 331 127 L 331 67 C 349 64 356 56 357 45 L 270 36 L 270 127 L 66 127 Z M 58 616 L 65 631 C 152 588 213 528 249 446 L 414 446 C 406 497 396 528 384 536 C 378 540 372 542 359 542 C 343 542 304 539 281 537 L 281 554 C 302 557 322 562 331 569 C 340 577 343 589 343 603 C 372 604 399 600 419 588 C 448 569 465 530 473 451 C 492 449 505 445 511 438 L 442 382 L 408 416 L 261 416 C 267 398 273 381 277 361 L 517 361 C 531 361 540 356 542 345 C 516 319 474 288 474 288 L 439 331 L 333 331 C 359 315 358 265 263 254 L 253 261 C 271 276 289 303 293 327 C 295 329 297 330 299 331 L 65 331 L 73 361 L 207 361 C 192 465 146 551 58 616 Z M 533 703 L 936 703 C 951 703 960 698 963 687 C 929 656 876 614 876 614 L 829 674 L 508 674 C 513 655 517 636 520 615 C 542 613 553 602 555 588 L 453 578 C 450 612 446 644 437 674 L 42 674 L 51 703 L 428 703 C 388 797 291 873 41 939 L 50 958 C 364 895 462 809 500 703 L 508 703 C 583 851 715 918 913 955 C 919 921 939 899 967 893 L 968 882 C 772 865 615 816 533 703 Z M 644 205 L 794 205 C 778 267 753 322 718 372 C 681 331 652 285 629 233 C 634 224 639 214 644 205 Z M 503 367 L 518 377 C 553 345 586 305 614 258 C 634 312 659 362 690 406 C 637 467 566 517 475 558 L 482 573 C 579 540 657 498 719 443 C 766 498 828 542 910 576 C 916 546 936 531 959 524 L 961 514 C 875 490 808 454 755 408 C 806 352 843 285 866 205 L 933 205 C 946 205 955 200 958 189 C 926 159 874 119 874 119 L 830 175 L 658 175 C 670 148 681 121 690 92 C 711 93 722 85 726 72 L 629 46 C 605 170 556 289 503 367 Z" fill="red" /><path transform="translate(2000)" d="M 527 324 L 542 333 C 580 301 612 256 638 208 L 801 208 C 787 260 767 308 737 351 C 701 331 657 312 607 295 L 597 306 C 631 327 671 356 709 387 C 657 449 585 499 490 539 L 497 555 C 602 522 684 478 747 419 C 797 464 843 512 866 551 C 930 582 952 483 785 377 C 825 330 855 274 873 208 L 921 208 C 935 208 944 203 947 192 C 916 162 866 124 866 124 L 823 179 L 653 179 C 668 147 681 114 692 82 C 711 81 722 72 726 60 L 627 38 C 611 139 573 255 527 324 Z M 620 547 L 612 557 C 653 579 705 621 726 655 C 790 681 812 558 620 547 Z M 66 127 L 74 157 L 270 157 L 270 224 L 106 224 L 114 253 L 485 253 C 499 253 508 248 511 237 C 483 211 440 178 440 178 L 401 224 L 331 224 L 331 157 L 534 157 C 548 157 557 152 560 141 C 532 115 490 82 490 82 L 452 127 L 331 127 L 331 67 C 349 64 356 56 357 45 L 270 36 L 270 127 L 66 127 Z M 58 616 L 65 631 C 152 588 213 528 249 446 L 414 446 C 406 497 396 528 384 536 C 378 540 372 542 359 542 C 343 542 304 539 281 537 L 281 554 C 302 557 322 562 331 569 C 340 577 343 589 343 603 C 372 604 399 600 419 588 C 448 569 465 530 473 451 C 492 449 505 445 511 438 L 442 382 L 408 416 L 261 416 C 267 398 273 381 277 361 L 517 361 C 531 361 540 356 542 345 C 516 319 474 288 474 288 L 439 331 L 333 331 C 359 315 358 265 263 254 L 253 261 C 271 276 289 303 293 327 C 295 329 297 330 299 331 L 65 331 L 73 361 L 207 361 C 192 465 146 551 58 616 Z M 562 732 L 553 743 C 654 792 798 886 858 954 C 950 980 949 807 562 732 Z M 858 617 L 811 677 L 510 677 C 514 657 518 637 521 616 C 543 614 554 602 556 589 L 454 578 C 451 613 447 647 438 677 L 69 677 L 77 707 L 428 707 C 388 799 294 874 56 939 L 64 958 C 368 895 462 810 500 707 L 919 707 C 933 707 942 702 945 691 C 912 659 858 617 858 617 Z" fill="blue" fill-opacity="0.5" /><path transform="translate(2000)" d="M 620 547 L 612 557 C 653 579 705 621 726 655 C 790 681 812 558 620 547 Z M 66 127 L 74 157 L 270 157 L 270 224 L 106 224 L 114 253 L 485 253 C 499 253 508 248 511 237 C 483 211 440 178 440 178 L 401 224 L 331 224 L 331 157 L 534 157 C 548 157 557 152 560 141 C 532 115 490 82 490 82 L 452 127 L 331 127 L 331 67 C 349 64 356 56 357 45 L 270 36 L 270 127 L 66 127 Z M 58 616 L 65 631 C 152 588 213 528 249 446 L 414 446 C 406 497 396 528 384 536 C 378 540 372 542 359 542 C 343 542 304 539 281 537 L 281 554 C 302 557 322 562 331 569 C 340 577 343 589 343 603 C 372 604 399 600 419 588 C 448 569 465 530 473 451 C 492 449 505 445 511 438 L 442 382 L 408 416 L 261 416 C 267 398 273 381 277 361 L 517 361 C 531 361 540 356 542 345 C 516 319 474 288 474 288 L 439 331 L 333 331 C 359 315 358 265 263 254 L 253 261 C 271 276 289 303 293 327 C 295 329 297 330 299 331 L 65 331 L 73 361 L 207 361 C 192 465 146 551 58 616 Z M 533 703 L 936 703 C 951 703 960 698 963 687 C 929 656 876 614 876 614 L 829 674 L 508 674 C 513 655 517 636 520 615 C 542 613 553 602 555 588 L 453 578 C 450 612 446 644 437 674 L 42 674 L 51 703 L 428 703 C 388 797 291 873 41 939 L 50 958 C 364 895 462 809 500 703 L 508 703 C 583 851 715 918 913 955 C 919 921 939 899 967 893 L 968 882 C 772 865 615 816 533 703 Z M 644 205 L 794 205 C 778 267 753 322 718 372 C 681 331 652 285 629 233 C 634 224 639 214 644 205 Z M 503 367 L 518 377 C 553 345 586 305 614 258 C 634 312 659 362 690 406 C 637 467 566 517 475 558 L 482 573 C 579 540 657 498 719 443 C 766 498 828 542 910 576 C 916 546 936 531 959 524 L 961 514 C 875 490 808 454 755 408 C 806 352 843 285 866 205 L 933 205 C 946 205 955 200 958 189 C 926 159 874 119 874 119 L 830 175 L 658 175 C 670 148 681 121 690 92 C 711 93 722 85 726 72 L 629 46 C 605 170 556 289 503 367 Z" fill="red" fill-opacity="0.5" /><text text-anchor="middle" x="500" y="1064" font-family="Arial" font-size="64">Source Han Serif TW</text><text text-anchor="middle" x="1500" y="1064" font-family="Arial" font-size="64">HKSerif (uni7352HK-regular)</text></svg>