<svg width="3000" height="1080" xmlns="http://www.w3.org/2000/svg" style="background:#fff"><path d="M 376 495 L 382 511 C 514 476 587 416 610 299 C 646 294 679 289 711 284 L 711 416 C 711 454 720 467 774 467 L 831 467 C 929 467 952 460 952 436 C 952 424 944 419 925 414 L 913 414 C 907 415 900 416 895 417 L 882 417 C 875 418 856 418 837 418 L 788 418 C 770 418 767 414 767 404 L 767 289 L 767 276 C 800 271 829 266 856 261 C 869 282 881 301 888 318 C 953 361 993 229 765 128 L 753 136 C 780 164 813 202 841 241 C 706 249 575 255 489 257 C 562 208 641 139 687 87 C 710 89 722 79 726 69 L 630 32 C 597 91 511 203 443 247 C 436 252 419 255 419 255 L 448 334 C 455 331 463 327 469 318 C 494 315 519 312 543 309 C 525 396 479 452 376 495 Z M 153 48 L 141 53 C 168 96 203 163 208 215 C 267 267 329 142 153 48 Z M 49 289 L 400 289 C 414 289 423 284 425 273 C 397 244 349 206 349 206 L 308 260 L 41 260 L 49 289 Z M 98 333 L 83 339 C 125 444 133 599 130 676 C 173 745 257 572 98 333 Z M 402 703 L 398 688 C 350 704 301 719 254 732 C 293 615 333 470 356 371 C 380 368 390 357 392 344 L 293 330 C 277 448 251 614 230 739 C 148 763 78 783 37 791 L 81 873 C 90 869 98 860 101 848 C 232 790 332 739 402 703 Z M 587 568 L 785 568 C 750 647 709 711 656 763 C 611 729 571 689 539 642 C 556 620 572 594 587 568 Z M 903 564 L 828 501 L 790 538 L 603 538 C 612 521 621 504 629 486 C 649 488 661 479 666 469 L 577 435 C 559 491 536 545 509 596 C 493 567 479 535 468 502 L 450 511 C 462 552 477 591 493 626 C 461 686 424 738 388 778 L 401 790 C 442 758 481 719 518 672 C 546 720 579 761 617 799 C 543 860 450 905 334 943 L 343 961 C 475 931 576 891 657 833 C 725 888 806 929 898 959 C 907 930 928 912 955 909 L 957 898 C 863 876 777 842 704 797 C 769 739 818 668 861 578 C 883 576 895 573 903 564 Z" fill="blue" /><path transform="translate(1000)" d="M 752 129 L 740 137 C 765 164 796 200 821 237 C 692 245 567 251 485 253 C 556 205 633 140 679 91 C 700 94 713 85 717 76 L 623 33 C 589 93 502 202 433 247 C 426 250 410 254 410 254 L 454 334 C 460 331 465 325 470 317 L 531 308 C 513 404 456 500 348 544 L 353 560 C 481 527 580 431 610 298 L 699 283 L 699 427 C 699 467 708 481 768 481 L 835 481 C 933 481 957 471 957 445 C 957 433 953 427 934 424 L 934 424 L 922 424 C 914 425 902 426 896 427 L 881 427 C 874 428 855 428 837 428 L 782 428 C 760 428 758 426 758 415 L 758 272 L 834 258 C 849 281 861 303 869 323 C 937 368 980 229 752 129 Z M 153 45 L 140 51 C 167 95 199 163 202 216 C 261 271 326 141 153 45 Z M 49 289 L 376 289 C 389 289 399 284 401 273 C 371 243 319 201 319 201 L 275 260 L 41 260 L 49 289 Z M 103 329 L 88 336 C 131 438 139 587 138 663 C 181 730 263 560 103 329 Z M 416 682 L 411 667 C 359 685 307 702 256 718 C 293 603 330 463 352 369 C 375 367 386 356 389 343 L 288 324 C 274 441 250 602 231 725 C 148 750 77 771 35 780 L 82 864 C 91 860 98 851 101 838 C 239 778 341 722 416 682 Z M 580 609 L 770 609 C 742 663 704 712 658 755 C 617 721 585 682 558 637 C 565 628 573 619 580 609 Z M 887 605 L 817 540 L 773 580 L 601 580 C 613 561 625 542 636 521 C 658 525 672 517 677 506 L 582 464 C 527 607 429 722 330 785 L 341 799 C 414 767 483 720 542 655 C 565 702 592 745 625 783 C 535 854 418 906 278 941 L 285 958 C 439 932 563 886 660 820 C 723 880 807 926 920 958 C 926 925 945 907 972 900 L 974 889 C 861 868 772 835 702 788 C 761 740 809 684 846 618 C 870 617 880 614 887 605 Z" fill="red" /><path transform="translate(2000)" d="M 376 495 L 382 511 C 514 476 587 416 610 299 C 646 294 679 289 711 284 L 711 416 C 711 454 720 467 774 467 L 831 467 C 929 467 952 460 952 436 C 952 424 944 419 925 414 L 913 414 C 907 415 900 416 895 417 L 882 417 C 875 418 856 418 837 418 L 788 418 C 770 418 767 414 767 404 L 767 289 L 767 276 C 800 271 829 266 856 261 C 869 282 881 301 888 318 C 953 361 993 229 765 128 L 753 136 C 780 164 813 202 841 241 C 706 249 575 255 489 257 C 562 208 641 139 687 87 C 710 89 722 79 726 69 L 630 32 C 597 91 511 203 443 247 C 436 252 419 255 419 255 L 448 334 C 455 331 463 327 469 318 C 494 315 519 312 543 309 C 525 396 479 452 376 495 Z M 153 48 L 141 53 C 168 96 203 163 208 215 C 267 267 329 142 153 48 Z M 49 289 L 400 289 C 414 289 423 284 425 273 C 397 244 349 206 349 206 L 308 260 L 41 260 L 49 289 Z M 98 333 L 83 339 C 125 444 133 599 130 676 C 173 745 257 572 98 333 Z M 402 703 L 398 688 C 350 704 301 719 254 732 C 293 615 333 470 356 371 C 380 368 390 357 392 344 L 293 330 C 277 448 251 614 230 739 C 148 763 78 783 37 791 L 81 873 C 90 869 98 860 101 848 C 232 790 332 739 402 703 Z M 587 568 L 785 568 C 750 647 709 711 656 763 C 611 729 571 689 539 642 C 556 620 572 594 587 568 Z M 903 564 L 828 501 L 790 538 L 603 538 C 612 521 621 504 629 486 C 649 488 661 479 666 469 L 577 435 C 559 491 536 545 509 596 C 493 567 479 535 468 502 L 450 511 C 462 552 477 591 493 626 C 461 686 424 738 388 778 L 401 790 C 442 758 481 719 518 672 C 546 720 579 761 617 799 C 543 860 450 905 334 943 L 343 961 C 475 931 576 891 657 833 C 725 888 806 929 898 959 C 907 930 928 912 955 909 L 957 898 C 863 876 777 842 704 797 C 769 739 818 668 861 578 C 883 576 895 573 903 564 Z" fill="blue" fill-opacity="0.5" /><path transform="translate(2000)" d="M 752 129 L 740 137 C 765 164 796 200 821 237 C 692 245 567 251 485 253 C 556 205 633 140 679 91 C 700 94 713 85 717 76 L 623 33 C 589 93 502 202 433 247 C 426 250 410 254 410 254 L 454 334 C 460 331 465 325 470 317 L 531 308 C 513 404 456 500 348 544 L 353 560 C 481 527 580 431 610 298 L 699 283 L 699 427 C 699 467 708 481 768 481 L 835 481 C 933 481 957 471 957 445 C 957 433 953 427 934 424 L 934 424 L 922 424 C 914 425 902 426 896 427 L 881 427 C 874 428 855 428 837 428 L 782 428 C 760 428 758 426 758 415 L 758 272 L 834 258 C 849 281 861 303 869 323 C 937 368 980 229 752 129 Z M 153 45 L 140 51 C 167 95 199 163 202 216 C 261 271 326 141 153 45 Z M 49 289 L 376 289 C 389 289 399 284 401 273 C 371 243 319 201 319 201 L 275 260 L 41 260 L 49 289 Z M 103 329 L 88 336 C 131 438 139 587 138 663 C 181 730 263 560 103 329 Z M 416 682 L 411 667 C 359 685 307 702 256 718 C 293 603 330 463 352 369 C 375 367 386 356 389 343 L 288 324 C 274 441 250 602 231 725 C 148 750 77 771 35 780 L 82 864 C 91 860 98 851 101 838 C 239 778 341 722 416 682 Z M 580 609 L 770 609 C 742 663 704 712 658 755 C 617 721 585 682 558 637 C 565 628 573 619 580 609 Z M 887 605 L 817 540 L 773 580 L 601 580 C 613 561 625 542 636 521 C 658 525 672 517 677 506 L 582 464 C 527 607 429 722 330 785 L 341 799 C 414 767 483 720 542 655 C 565 702 592 745 625 783 C 535 854 418 906 278 941 L 285 958 C 439 932 563 886 660 820 C 723 880 807 926 920 958 C 926 925 945 907 972 900 L 974 889 C 861 868 772 835 702 788 C 761 740 809 684 846 618 C 870 617 880 614 887 605 Z" fill="red" fill-opacity="0.5" /><text text-anchor="middle" x="500" y="1064" font-family="Arial" font-size="64">Source Han Serif TW</text><text text-anchor="middle" x="1500" y="1064" font-family="Arial" font-size="64">HKSerif (uni7AE3HK-regular)</text></svg>