<svg width="3000" height="1080" xmlns="http://www.w3.org/2000/svg" style="background:#fff"><path d="M 465 305 L 479 314 C 525 279 569 229 608 172 L 923 172 C 936 172 946 167 948 156 C 917 126 867 87 867 87 L 823 143 L 627 143 C 637 125 647 108 656 89 C 677 91 689 83 694 72 L 599 35 C 567 139 515 241 465 305 Z M 605 754 L 376 754 L 384 784 L 900 784 C 914 784 924 779 927 768 C 892 735 837 691 837 691 L 789 754 L 668 754 L 668 577 L 837 577 C 852 577 862 572 864 561 C 831 529 777 486 777 486 L 729 547 L 668 547 L 668 389 C 723 381 775 371 817 361 C 840 371 859 371 868 362 L 795 293 C 709 330 542 377 405 399 L 410 416 C 474 413 541 406 605 399 L 605 547 L 424 547 L 432 577 L 605 577 L 605 754 Z M 669 193 L 659 201 C 686 220 715 255 723 285 C 780 322 825 212 669 193 Z M 217 173 L 494 173 C 508 173 517 168 520 157 C 492 129 447 94 447 94 L 407 143 L 235 143 C 247 125 257 107 267 88 C 289 90 301 81 306 71 L 212 34 C 170 155 102 267 36 336 L 50 347 C 109 306 167 245 217 173 Z M 275 204 L 265 212 C 297 235 331 278 340 315 C 396 354 441 239 275 204 Z M 417 585 L 349 524 L 311 561 L 211 561 C 246 513 292 448 319 407 C 345 405 368 398 378 388 L 297 322 L 262 362 L 84 362 L 93 391 L 257 391 C 228 438 184 503 151 546 C 137 550 121 556 111 561 L 168 614 L 197 591 L 313 591 C 295 665 265 733 221 793 C 175 763 139 720 109 660 L 94 669 C 125 734 158 783 200 821 C 158 869 108 910 45 944 L 54 960 C 127 930 186 892 233 847 C 324 910 447 926 626 926 L 911 926 C 913 902 928 881 955 877 L 955 863 C 874 865 705 865 630 865 C 469 865 351 857 262 816 C 318 753 354 678 378 597 C 399 596 410 593 417 585 Z" fill="blue" /><path transform="translate(1000)" d="M 456 314 L 470 325 C 518 290 564 241 604 184 L 674 184 C 703 210 729 252 734 285 C 787 325 835 234 727 184 L 928 184 C 942 184 952 179 955 168 C 923 138 871 98 871 98 L 827 155 L 623 155 C 637 134 648 113 659 91 C 681 93 693 84 697 74 L 603 37 C 568 145 512 249 456 314 Z M 230 184 L 268 184 C 293 211 317 250 320 285 C 370 325 422 237 313 184 L 517 184 C 531 184 540 179 542 168 C 513 140 467 104 467 104 L 427 155 L 251 155 C 265 134 279 112 291 89 C 312 92 325 84 330 73 L 237 35 C 190 157 114 269 40 336 L 54 348 C 115 310 177 253 230 184 Z M 605 754 L 376 754 L 384 784 L 900 784 C 914 784 924 779 927 768 C 892 735 837 691 837 691 L 789 754 L 668 754 L 668 577 L 837 577 C 852 577 862 572 864 561 C 831 529 777 486 777 486 L 729 547 L 668 547 L 668 389 C 723 381 775 371 817 361 C 840 371 859 371 868 362 L 795 293 C 709 330 542 377 405 399 L 410 416 C 474 413 541 406 605 399 L 605 547 L 424 547 L 432 577 L 605 577 L 605 754 Z M 417 585 L 349 524 L 311 561 L 211 561 C 246 513 292 448 319 407 C 345 405 368 398 378 388 L 297 322 L 262 362 L 84 362 L 93 391 L 257 391 C 228 438 184 503 151 546 C 137 550 121 556 111 561 L 168 614 L 197 591 L 313 591 C 295 665 265 733 221 793 C 175 763 139 720 109 660 L 94 669 C 125 734 158 783 200 821 C 158 869 108 910 45 944 L 54 960 C 127 930 186 892 233 847 C 324 910 447 926 626 926 L 911 926 C 913 902 928 881 955 877 L 955 863 C 874 865 705 865 630 865 C 469 865 351 857 262 816 C 318 753 354 678 378 597 C 399 596 410 593 417 585 Z" fill="red" /><path transform="translate(2000)" d="M 465 305 L 479 314 C 525 279 569 229 608 172 L 923 172 C 936 172 946 167 948 156 C 917 126 867 87 867 87 L 823 143 L 627 143 C 637 125 647 108 656 89 C 677 91 689 83 694 72 L 599 35 C 567 139 515 241 465 305 Z M 605 754 L 376 754 L 384 784 L 900 784 C 914 784 924 779 927 768 C 892 735 837 691 837 691 L 789 754 L 668 754 L 668 577 L 837 577 C 852 577 862 572 864 561 C 831 529 777 486 777 486 L 729 547 L 668 547 L 668 389 C 723 381 775 371 817 361 C 840 371 859 371 868 362 L 795 293 C 709 330 542 377 405 399 L 410 416 C 474 413 541 406 605 399 L 605 547 L 424 547 L 432 577 L 605 577 L 605 754 Z M 669 193 L 659 201 C 686 220 715 255 723 285 C 780 322 825 212 669 193 Z M 217 173 L 494 173 C 508 173 517 168 520 157 C 492 129 447 94 447 94 L 407 143 L 235 143 C 247 125 257 107 267 88 C 289 90 301 81 306 71 L 212 34 C 170 155 102 267 36 336 L 50 347 C 109 306 167 245 217 173 Z M 275 204 L 265 212 C 297 235 331 278 340 315 C 396 354 441 239 275 204 Z M 417 585 L 349 524 L 311 561 L 211 561 C 246 513 292 448 319 407 C 345 405 368 398 378 388 L 297 322 L 262 362 L 84 362 L 93 391 L 257 391 C 228 438 184 503 151 546 C 137 550 121 556 111 561 L 168 614 L 197 591 L 313 591 C 295 665 265 733 221 793 C 175 763 139 720 109 660 L 94 669 C 125 734 158 783 200 821 C 158 869 108 910 45 944 L 54 960 C 127 930 186 892 233 847 C 324 910 447 926 626 926 L 911 926 C 913 902 928 881 955 877 L 955 863 C 874 865 705 865 630 865 C 469 865 351 857 262 816 C 318 753 354 678 378 597 C 399 596 410 593 417 585 Z" fill="blue" fill-opacity="0.5" /><path transform="translate(2000)" d="M 456 314 L 470 325 C 518 290 564 241 604 184 L 674 184 C 703 210 729 252 734 285 C 787 325 835 234 727 184 L 928 184 C 942 184 952 179 955 168 C 923 138 871 98 871 98 L 827 155 L 623 155 C 637 134 648 113 659 91 C 681 93 693 84 697 74 L 603 37 C 568 145 512 249 456 314 Z M 230 184 L 268 184 C 293 211 317 250 320 285 C 370 325 422 237 313 184 L 517 184 C 531 184 540 179 542 168 C 513 140 467 104 467 104 L 427 155 L 251 155 C 265 134 279 112 291 89 C 312 92 325 84 330 73 L 237 35 C 190 157 114 269 40 336 L 54 348 C 115 310 177 253 230 184 Z M 605 754 L 376 754 L 384 784 L 900 784 C 914 784 924 779 927 768 C 892 735 837 691 837 691 L 789 754 L 668 754 L 668 577 L 837 577 C 852 577 862 572 864 561 C 831 529 777 486 777 486 L 729 547 L 668 547 L 668 389 C 723 381 775 371 817 361 C 840 371 859 371 868 362 L 795 293 C 709 330 542 377 405 399 L 410 416 C 474 413 541 406 605 399 L 605 547 L 424 547 L 432 577 L 605 577 L 605 754 Z M 417 585 L 349 524 L 311 561 L 211 561 C 246 513 292 448 319 407 C 345 405 368 398 378 388 L 297 322 L 262 362 L 84 362 L 93 391 L 257 391 C 228 438 184 503 151 546 C 137 550 121 556 111 561 L 168 614 L 197 591 L 313 591 C 295 665 265 733 221 793 C 175 763 139 720 109 660 L 94 669 C 125 734 158 783 200 821 C 158 869 108 910 45 944 L 54 960 C 127 930 186 892 233 847 C 324 910 447 926 626 926 L 911 926 C 913 902 928 881 955 877 L 955 863 C 874 865 705 865 630 865 C 469 865 351 857 262 816 C 318 753 354 678 378 597 C 399 596 410 593 417 585 Z" fill="red" fill-opacity="0.5" /><text text-anchor="middle" x="500" y="1064" font-family="Arial" font-size="64">Source Han Serif TW</text><text text-anchor="middle" x="1500" y="1064" font-family="Arial" font-size="64">HKSerif (uni7B73HK-regular)</text></svg>