<svg width="3000" height="1080" xmlns="http://www.w3.org/2000/svg" style="background:#fff"><path d="M 512 167 L 348 167 L 356 196 L 512 196 L 512 301 L 524 301 C 546 301 573 287 573 280 L 573 196 L 724 196 L 724 299 L 736 299 C 759 299 786 286 786 279 L 786 196 L 942 196 C 955 196 964 191 967 180 C 937 150 885 108 885 108 L 840 167 L 786 167 L 786 81 C 805 77 812 69 814 58 L 724 48 L 724 167 L 573 167 L 573 82 C 592 78 599 70 601 59 L 512 49 L 512 167 Z M 878 332 L 780 295 C 758 362 731 437 708 490 C 688 474 661 457 629 442 L 618 450 C 664 498 717 578 724 641 C 775 682 820 595 727 507 C 765 463 806 404 841 349 C 862 350 873 341 878 332 Z M 582 330 L 483 295 C 463 361 439 435 418 489 C 398 473 374 458 344 443 L 332 450 C 376 498 425 577 430 640 C 481 683 527 595 437 507 C 474 462 514 402 546 348 C 566 349 578 340 582 330 Z M 246 477 L 246 367 L 366 367 C 378 367 388 362 390 351 C 363 323 316 285 316 285 L 276 339 L 246 339 L 246 140 C 278 129 307 119 331 110 C 355 117 373 116 380 106 L 295 42 C 239 83 128 143 40 177 L 46 192 C 90 184 138 172 184 159 L 184 339 L 43 339 L 50 367 L 168 367 C 143 505 100 646 33 755 L 47 769 C 104 704 149 629 184 547 L 184 957 L 194 957 C 224 957 246 942 246 935 L 246 498 C 275 534 307 586 315 626 C 372 670 425 556 246 477 Z M 541 727 L 528 732 C 542 759 557 795 569 832 C 518 835 468 838 425 840 C 500 742 572 624 616 547 C 639 552 649 547 655 536 L 561 490 C 527 581 460 730 398 842 C 362 844 333 845 313 846 L 352 933 C 362 931 372 925 377 913 C 460 889 526 870 575 854 C 582 881 587 907 587 931 C 642 988 706 855 541 727 Z M 853 723 L 840 729 C 855 758 871 794 883 832 C 822 836 763 840 716 842 C 794 741 870 621 916 543 C 940 547 950 543 955 531 L 862 485 C 825 579 753 729 687 844 L 638 846 L 677 933 C 688 931 697 925 702 913 C 782 889 844 869 890 854 C 897 882 903 910 903 935 C 960 993 1024 855 853 723 Z" fill="blue" /><path transform="translate(1000)" d="M 465 47 L 454 55 C 493 91 537 154 544 205 C 608 255 663 114 465 47 Z M 875 175 L 831 230 L 710 230 C 750 186 794 132 822 91 C 844 91 857 83 861 71 L 755 44 C 737 97 706 174 682 230 L 356 230 L 363 259 L 929 259 C 943 259 952 254 955 243 C 924 214 875 175 875 175 Z M 878 332 L 780 295 C 758 362 731 437 708 490 C 688 474 661 457 629 442 L 618 450 C 664 498 717 578 724 641 C 775 682 820 595 727 507 C 765 463 806 404 841 349 C 862 350 873 341 878 332 Z M 582 330 L 483 295 C 463 361 439 435 418 489 C 398 473 374 458 344 443 L 332 450 C 376 498 425 577 430 640 C 481 683 527 595 437 507 C 474 462 514 402 546 348 C 566 349 578 340 582 330 Z M 246 477 L 246 367 L 366 367 C 378 367 388 362 390 351 C 363 323 316 285 316 285 L 276 339 L 246 339 L 246 140 C 278 129 307 119 331 110 C 355 117 373 116 380 106 L 295 42 C 239 83 128 143 40 177 L 46 192 C 90 184 138 172 184 159 L 184 339 L 43 339 L 50 367 L 168 367 C 143 505 100 646 33 755 L 47 769 C 104 704 149 629 184 547 L 184 957 L 194 957 C 224 957 246 942 246 935 L 246 498 C 275 534 307 586 315 626 C 372 670 425 556 246 477 Z M 541 727 L 528 732 C 542 759 557 795 569 832 C 518 835 468 838 425 840 C 500 742 572 624 616 547 C 639 552 649 547 655 536 L 561 490 C 527 581 460 730 398 842 C 362 844 333 845 313 846 L 352 933 C 362 931 372 925 377 913 C 460 889 526 870 575 854 C 582 881 587 907 587 931 C 642 988 706 855 541 727 Z M 853 723 L 840 729 C 855 758 871 794 883 832 C 822 836 763 840 716 842 C 794 741 870 621 916 543 C 940 547 950 543 955 531 L 862 485 C 825 579 753 729 687 844 L 638 846 L 677 933 C 688 931 697 925 702 913 C 782 889 844 869 890 854 C 897 882 903 910 903 935 C 960 993 1024 855 853 723 Z" fill="red" /><path transform="translate(2000)" d="M 512 167 L 348 167 L 356 196 L 512 196 L 512 301 L 524 301 C 546 301 573 287 573 280 L 573 196 L 724 196 L 724 299 L 736 299 C 759 299 786 286 786 279 L 786 196 L 942 196 C 955 196 964 191 967 180 C 937 150 885 108 885 108 L 840 167 L 786 167 L 786 81 C 805 77 812 69 814 58 L 724 48 L 724 167 L 573 167 L 573 82 C 592 78 599 70 601 59 L 512 49 L 512 167 Z M 878 332 L 780 295 C 758 362 731 437 708 490 C 688 474 661 457 629 442 L 618 450 C 664 498 717 578 724 641 C 775 682 820 595 727 507 C 765 463 806 404 841 349 C 862 350 873 341 878 332 Z M 582 330 L 483 295 C 463 361 439 435 418 489 C 398 473 374 458 344 443 L 332 450 C 376 498 425 577 430 640 C 481 683 527 595 437 507 C 474 462 514 402 546 348 C 566 349 578 340 582 330 Z M 246 477 L 246 367 L 366 367 C 378 367 388 362 390 351 C 363 323 316 285 316 285 L 276 339 L 246 339 L 246 140 C 278 129 307 119 331 110 C 355 117 373 116 380 106 L 295 42 C 239 83 128 143 40 177 L 46 192 C 90 184 138 172 184 159 L 184 339 L 43 339 L 50 367 L 168 367 C 143 505 100 646 33 755 L 47 769 C 104 704 149 629 184 547 L 184 957 L 194 957 C 224 957 246 942 246 935 L 246 498 C 275 534 307 586 315 626 C 372 670 425 556 246 477 Z M 541 727 L 528 732 C 542 759 557 795 569 832 C 518 835 468 838 425 840 C 500 742 572 624 616 547 C 639 552 649 547 655 536 L 561 490 C 527 581 460 730 398 842 C 362 844 333 845 313 846 L 352 933 C 362 931 372 925 377 913 C 460 889 526 870 575 854 C 582 881 587 907 587 931 C 642 988 706 855 541 727 Z M 853 723 L 840 729 C 855 758 871 794 883 832 C 822 836 763 840 716 842 C 794 741 870 621 916 543 C 940 547 950 543 955 531 L 862 485 C 825 579 753 729 687 844 L 638 846 L 677 933 C 688 931 697 925 702 913 C 782 889 844 869 890 854 C 897 882 903 910 903 935 C 960 993 1024 855 853 723 Z" fill="blue" fill-opacity="0.5" /><path transform="translate(2000)" d="M 465 47 L 454 55 C 493 91 537 154 544 205 C 608 255 663 114 465 47 Z M 875 175 L 831 230 L 710 230 C 750 186 794 132 822 91 C 844 91 857 83 861 71 L 755 44 C 737 97 706 174 682 230 L 356 230 L 363 259 L 929 259 C 943 259 952 254 955 243 C 924 214 875 175 875 175 Z M 878 332 L 780 295 C 758 362 731 437 708 490 C 688 474 661 457 629 442 L 618 450 C 664 498 717 578 724 641 C 775 682 820 595 727 507 C 765 463 806 404 841 349 C 862 350 873 341 878 332 Z M 582 330 L 483 295 C 463 361 439 435 418 489 C 398 473 374 458 344 443 L 332 450 C 376 498 425 577 430 640 C 481 683 527 595 437 507 C 474 462 514 402 546 348 C 566 349 578 340 582 330 Z M 246 477 L 246 367 L 366 367 C 378 367 388 362 390 351 C 363 323 316 285 316 285 L 276 339 L 246 339 L 246 140 C 278 129 307 119 331 110 C 355 117 373 116 380 106 L 295 42 C 239 83 128 143 40 177 L 46 192 C 90 184 138 172 184 159 L 184 339 L 43 339 L 50 367 L 168 367 C 143 505 100 646 33 755 L 47 769 C 104 704 149 629 184 547 L 184 957 L 194 957 C 224 957 246 942 246 935 L 246 498 C 275 534 307 586 315 626 C 372 670 425 556 246 477 Z M 541 727 L 528 732 C 542 759 557 795 569 832 C 518 835 468 838 425 840 C 500 742 572 624 616 547 C 639 552 649 547 655 536 L 561 490 C 527 581 460 730 398 842 C 362 844 333 845 313 846 L 352 933 C 362 931 372 925 377 913 C 460 889 526 870 575 854 C 582 881 587 907 587 931 C 642 988 706 855 541 727 Z M 853 723 L 840 729 C 855 758 871 794 883 832 C 822 836 763 840 716 842 C 794 741 870 621 916 543 C 940 547 950 543 955 531 L 862 485 C 825 579 753 729 687 844 L 638 846 L 677 933 C 688 931 697 925 702 913 C 782 889 844 869 890 854 C 897 882 903 910 903 935 C 960 993 1024 855 853 723 Z" fill="red" fill-opacity="0.5" /><text text-anchor="middle" x="500" y="1064" font-family="Arial" font-size="64">Source Han Serif KR</text><text text-anchor="middle" x="1500" y="1064" font-family="Arial" font-size="64">HKSerif (uni7A35KX-regular)</text></svg>