<svg width="1000" height="1000" xmlns="http://www.w3.org/2000/svg"><path d="M 878 479 L 847 517 L 465 517 L 401 487 L 401 958 L 411 958 C 436 958 460 944 460 937 L 460 547 L 857 547 L 857 868 C 857 881 852 887 836 887 C 816 887 733 881 733 881 L 733 896 C 771 901 792 909 806 917 C 818 926 822 942 824 960 C 907 951 917 922 917 874 L 917 559 C 937 556 953 547 959 540 L 878 479 Z" fill="black" /><path d="M 727 826 L 735 826 C 754 826 782 813 783 807 L 783 657 C 799 654 814 647 820 640 L 750 587 L 718 620 L 592 620 L 533 592 L 533 845 L 541 845 C 563 845 587 832 587 828 L 587 787 L 727 787 L 727 826 Z" fill="black" /><path d="M 727 757 L 587 757 L 587 649 L 727 649 L 727 757 Z" fill="white" /><path d="M 772 476 L 781 476 C 801 476 833 462 834 456 L 834 305 C 851 302 866 294 871 287 L 796 231 L 763 266 L 548 266 L 482 238 L 482 479 L 491 479 C 516 479 543 465 543 460 L 543 438 L 772 438 L 772 476 Z" fill="black" /><path d="M 772 410 L 543 410 L 543 296 L 772 296 L 772 410 Z" fill="white" /><path d="M 874 109 L 829 167 L 384 167 L 392 195 L 934 195 C 948 195 957 190 960 179 C 928 150 874 109 874 109 Z" fill="black" /><path d="M 599 30 L 588 37 C 615 64 642 112 643 152 C 701 200 762 79 599 30 Z" fill="black" /><path d="M 305 378 L 272 416 L 187 416 L 170 408 C 199 333 219 252 233 167 L 378 167 C 392 167 402 162 405 151 C 374 121 321 82 321 82 L 276 138 L 44 138 L 51 167 L 166 167 C 144 325 105 485 37 610 L 51 622 C 75 591 97 558 116 523 L 116 928 L 126 928 C 154 928 174 913 174 909 L 174 802 L 282 802 L 282 878 L 291 878 C 310 878 340 864 341 859 L 341 455 C 360 451 376 444 382 436 L 305 378 Z" fill="black" /><path d="M 282 773 L 174 773 L 174 445 L 282 445 L 282 773 Z" fill="white" /></svg>