<svg width="3000" height="1080" xmlns="http://www.w3.org/2000/svg" style="background:#fff"><path d="M 186 170 L 354 170 C 318 263 231 310 82 341 L 87 356 C 151 350 209 339 258 322 L 258 403 C 204 421 149 433 103 441 L 106 459 C 151 457 204 451 258 441 L 258 501 C 208 517 158 529 115 539 L 118 557 C 161 554 209 547 258 537 L 258 598 C 203 616 148 630 101 639 L 105 658 C 151 655 204 647 258 636 L 258 690 L 269 690 C 291 690 317 676 317 670 L 317 621 C 375 606 431 586 482 561 C 497 572 506 571 515 565 L 468 504 C 422 532 371 557 317 578 L 317 523 C 368 511 417 493 462 472 C 477 482 487 482 496 477 L 448 416 C 408 440 363 461 317 479 L 317 429 C 360 418 401 405 439 389 C 454 398 464 398 473 392 L 427 333 C 393 352 356 368 317 383 L 317 356 C 341 352 350 343 352 330 L 265 320 C 345 291 401 245 430 170 L 563 170 L 563 274 C 563 316 575 329 647 329 L 747 329 C 893 329 919 320 919 295 C 919 283 913 277 891 270 L 888 215 L 877 215 C 869 239 860 262 853 271 C 850 276 844 277 835 278 L 751 278 L 659 278 C 627 278 624 276 624 265 L 624 181 L 624 170 L 813 170 C 801 196 784 226 771 246 L 784 253 C 820 236 869 207 898 182 C 916 181 928 180 935 172 L 857 98 L 815 141 L 533 141 L 533 80 C 556 77 566 67 568 53 L 467 43 L 467 141 L 185 141 C 183 126 180 110 174 92 L 157 93 C 161 151 122 199 84 216 C 62 226 47 245 54 269 C 64 293 99 295 125 280 C 154 264 184 227 186 170 Z M 550 737 L 933 737 C 947 737 957 732 960 721 C 925 689 870 647 870 647 L 823 708 L 509 708 C 514 690 518 672 521 654 C 543 652 553 641 555 627 L 508 622 C 646 563 681 487 693 403 L 822 403 C 814 504 797 567 779 583 C 772 590 763 592 747 592 C 728 592 670 587 636 584 L 636 601 C 666 605 698 613 710 622 C 722 630 727 643 727 659 C 762 660 794 654 817 636 C 853 610 874 536 883 410 C 902 407 915 403 921 396 L 850 338 L 814 373 L 493 373 L 501 403 L 621 403 C 613 480 587 553 457 618 L 452 618 L 452 621 C 442 626 431 629 420 634 L 433 650 L 449 645 C 446 667 442 688 435 708 L 45 708 L 53 737 L 423 737 C 384 819 287 882 41 938 L 49 958 C 363 904 461 831 500 737 L 523 737 C 599 862 735 925 916 957 C 923 926 940 905 968 898 L 968 887 C 791 872 636 830 550 737 Z" fill="blue" /><path transform="translate(1000)" d="M 279 696 L 290 696 C 313 696 339 683 339 675 L 339 596 C 401 583 454 570 499 559 L 498 542 C 444 548 390 553 339 557 L 339 496 L 466 496 C 480 496 490 491 492 480 C 463 451 415 415 415 415 L 374 466 L 339 466 L 339 405 L 490 405 C 503 405 513 400 515 389 C 486 361 438 323 438 323 L 395 375 L 339 375 L 339 343 C 364 339 374 330 376 316 L 279 305 L 279 375 L 107 375 L 115 405 L 279 405 L 279 466 L 130 466 L 138 496 L 279 496 L 279 562 C 208 567 149 570 111 571 L 137 650 C 148 649 156 643 162 631 C 204 623 243 616 279 608 L 279 696 Z M 186 170 L 354 170 C 318 263 231 310 82 341 L 87 356 C 151 350 209 339 258 322 L 265 320 C 345 291 401 245 430 170 L 563 170 L 563 274 C 563 316 575 329 647 329 L 747 329 C 893 329 919 320 919 295 C 919 283 913 277 891 270 L 888 215 L 877 215 C 869 239 860 262 853 271 C 850 276 844 277 835 278 L 751 278 L 659 278 C 627 278 624 276 624 265 L 624 181 L 624 170 L 813 170 C 801 196 784 226 771 246 L 784 253 C 820 236 869 207 898 182 C 916 181 928 180 935 172 L 857 98 L 815 141 L 533 141 L 533 80 C 556 77 566 67 568 53 L 467 43 L 467 141 L 185 141 C 183 126 180 110 174 92 L 157 93 C 161 151 122 199 84 216 C 62 226 47 245 54 269 C 64 293 99 295 125 280 C 154 264 184 227 186 170 Z M 550 737 L 933 737 C 947 737 957 732 960 721 C 925 689 870 647 870 647 L 823 708 L 509 708 C 514 690 518 672 521 654 C 543 652 553 641 555 627 L 508 622 C 646 563 681 487 693 403 L 822 403 C 814 504 797 567 779 583 C 772 590 763 592 747 592 C 728 592 670 587 636 584 L 636 601 C 666 605 698 613 710 622 C 722 630 727 643 727 659 C 762 660 794 654 817 636 C 853 610 874 536 883 410 C 902 407 915 403 921 396 L 850 338 L 814 373 L 513 373 L 521 403 L 621 403 C 613 480 587 553 457 618 L 452 618 L 452 621 C 442 626 431 629 420 634 L 433 650 L 449 645 C 446 667 442 688 435 708 L 45 708 L 53 737 L 423 737 C 384 819 287 882 41 938 L 49 958 C 363 904 461 831 500 737 L 523 737 C 599 862 735 925 916 957 C 923 926 940 905 968 898 L 968 887 C 791 872 636 830 550 737 Z" fill="red" /><path transform="translate(2000)" d="M 186 170 L 354 170 C 318 263 231 310 82 341 L 87 356 C 151 350 209 339 258 322 L 258 403 C 204 421 149 433 103 441 L 106 459 C 151 457 204 451 258 441 L 258 501 C 208 517 158 529 115 539 L 118 557 C 161 554 209 547 258 537 L 258 598 C 203 616 148 630 101 639 L 105 658 C 151 655 204 647 258 636 L 258 690 L 269 690 C 291 690 317 676 317 670 L 317 621 C 375 606 431 586 482 561 C 497 572 506 571 515 565 L 468 504 C 422 532 371 557 317 578 L 317 523 C 368 511 417 493 462 472 C 477 482 487 482 496 477 L 448 416 C 408 440 363 461 317 479 L 317 429 C 360 418 401 405 439 389 C 454 398 464 398 473 392 L 427 333 C 393 352 356 368 317 383 L 317 356 C 341 352 350 343 352 330 L 265 320 C 345 291 401 245 430 170 L 563 170 L 563 274 C 563 316 575 329 647 329 L 747 329 C 893 329 919 320 919 295 C 919 283 913 277 891 270 L 888 215 L 877 215 C 869 239 860 262 853 271 C 850 276 844 277 835 278 L 751 278 L 659 278 C 627 278 624 276 624 265 L 624 181 L 624 170 L 813 170 C 801 196 784 226 771 246 L 784 253 C 820 236 869 207 898 182 C 916 181 928 180 935 172 L 857 98 L 815 141 L 533 141 L 533 80 C 556 77 566 67 568 53 L 467 43 L 467 141 L 185 141 C 183 126 180 110 174 92 L 157 93 C 161 151 122 199 84 216 C 62 226 47 245 54 269 C 64 293 99 295 125 280 C 154 264 184 227 186 170 Z M 550 737 L 933 737 C 947 737 957 732 960 721 C 925 689 870 647 870 647 L 823 708 L 509 708 C 514 690 518 672 521 654 C 543 652 553 641 555 627 L 508 622 C 646 563 681 487 693 403 L 822 403 C 814 504 797 567 779 583 C 772 590 763 592 747 592 C 728 592 670 587 636 584 L 636 601 C 666 605 698 613 710 622 C 722 630 727 643 727 659 C 762 660 794 654 817 636 C 853 610 874 536 883 410 C 902 407 915 403 921 396 L 850 338 L 814 373 L 493 373 L 501 403 L 621 403 C 613 480 587 553 457 618 L 452 618 L 452 621 C 442 626 431 629 420 634 L 433 650 L 449 645 C 446 667 442 688 435 708 L 45 708 L 53 737 L 423 737 C 384 819 287 882 41 938 L 49 958 C 363 904 461 831 500 737 L 523 737 C 599 862 735 925 916 957 C 923 926 940 905 968 898 L 968 887 C 791 872 636 830 550 737 Z" fill="blue" fill-opacity="0.5" /><path transform="translate(2000)" d="M 279 696 L 290 696 C 313 696 339 683 339 675 L 339 596 C 401 583 454 570 499 559 L 498 542 C 444 548 390 553 339 557 L 339 496 L 466 496 C 480 496 490 491 492 480 C 463 451 415 415 415 415 L 374 466 L 339 466 L 339 405 L 490 405 C 503 405 513 400 515 389 C 486 361 438 323 438 323 L 395 375 L 339 375 L 339 343 C 364 339 374 330 376 316 L 279 305 L 279 375 L 107 375 L 115 405 L 279 405 L 279 466 L 130 466 L 138 496 L 279 496 L 279 562 C 208 567 149 570 111 571 L 137 650 C 148 649 156 643 162 631 C 204 623 243 616 279 608 L 279 696 Z M 186 170 L 354 170 C 318 263 231 310 82 341 L 87 356 C 151 350 209 339 258 322 L 265 320 C 345 291 401 245 430 170 L 563 170 L 563 274 C 563 316 575 329 647 329 L 747 329 C 893 329 919 320 919 295 C 919 283 913 277 891 270 L 888 215 L 877 215 C 869 239 860 262 853 271 C 850 276 844 277 835 278 L 751 278 L 659 278 C 627 278 624 276 624 265 L 624 181 L 624 170 L 813 170 C 801 196 784 226 771 246 L 784 253 C 820 236 869 207 898 182 C 916 181 928 180 935 172 L 857 98 L 815 141 L 533 141 L 533 80 C 556 77 566 67 568 53 L 467 43 L 467 141 L 185 141 C 183 126 180 110 174 92 L 157 93 C 161 151 122 199 84 216 C 62 226 47 245 54 269 C 64 293 99 295 125 280 C 154 264 184 227 186 170 Z M 550 737 L 933 737 C 947 737 957 732 960 721 C 925 689 870 647 870 647 L 823 708 L 509 708 C 514 690 518 672 521 654 C 543 652 553 641 555 627 L 508 622 C 646 563 681 487 693 403 L 822 403 C 814 504 797 567 779 583 C 772 590 763 592 747 592 C 728 592 670 587 636 584 L 636 601 C 666 605 698 613 710 622 C 722 630 727 643 727 659 C 762 660 794 654 817 636 C 853 610 874 536 883 410 C 902 407 915 403 921 396 L 850 338 L 814 373 L 513 373 L 521 403 L 621 403 C 613 480 587 553 457 618 L 452 618 L 452 621 C 442 626 431 629 420 634 L 433 650 L 449 645 C 446 667 442 688 435 708 L 45 708 L 53 737 L 423 737 C 384 819 287 882 41 938 L 49 958 C 363 904 461 831 500 737 L 523 737 C 599 862 735 925 916 957 C 923 926 940 905 968 898 L 968 887 C 791 872 636 830 550 737 Z" fill="red" fill-opacity="0.5" /><text text-anchor="middle" x="500" y="1064" font-family="Arial" font-size="64">Source Han Serif KR</text><text text-anchor="middle" x="1500" y="1064" font-family="Arial" font-size="64">HKSerif (uni7AABKX-regular)</text></svg>