<svg width="3000" height="1080" xmlns="http://www.w3.org/2000/svg" style="background:#fff"><path d="M 616 30 L 605 37 C 632 64 659 112 660 152 C 718 200 779 79 616 30 Z M 176 464 L 297 464 L 297 774 L 176 774 L 176 464 Z M 332 85 L 287 141 L 239 141 L 239 138 L 175 138 L 175 141 L 40 141 L 48 170 L 170 170 C 145 331 100 499 29 627 L 45 639 C 72 604 95 566 117 527 L 117 920 L 127 920 C 156 920 176 903 176 899 L 176 804 L 297 804 L 297 870 L 306 870 C 326 870 355 856 356 851 L 356 475 C 376 471 390 463 397 456 L 321 396 L 287 434 L 188 434 L 165 424 C 197 345 221 259 236 170 L 389 170 C 403 170 413 165 416 154 C 384 124 332 85 332 85 Z M 883 114 L 839 169 L 419 169 L 427 198 L 938 198 C 952 198 961 193 964 182 C 933 152 883 114 883 114 Z M 793 412 L 568 412 L 568 292 L 793 292 L 793 412 Z M 793 477 L 802 477 C 822 477 852 464 853 458 L 853 298 C 868 296 882 289 887 282 L 817 229 L 785 262 L 573 262 L 509 233 L 509 488 L 518 488 C 541 488 568 474 568 469 L 568 441 L 793 441 L 793 477 Z M 741 770 L 609 770 L 609 644 L 741 644 L 741 770 Z M 792 820 L 792 648 C 806 645 819 638 824 633 L 762 584 L 733 614 L 614 614 L 559 588 L 559 851 L 567 851 C 587 851 609 839 609 835 L 609 800 L 741 800 L 741 838 L 749 838 C 766 838 791 826 792 820 Z M 883 484 L 852 520 L 497 520 L 432 490 L 432 957 L 442 957 C 467 957 492 942 492 937 L 492 550 L 861 550 L 861 867 C 861 880 858 886 843 886 C 826 886 755 880 755 880 L 755 896 C 789 901 807 908 818 917 C 829 926 833 941 835 958 C 913 950 922 922 922 874 L 922 559 C 939 556 954 548 959 541 L 883 484 Z" fill="blue" /><path transform="translate(1000)" d="M 282 773 L 174 773 L 174 445 L 282 445 L 282 773 Z M 305 378 L 272 416 L 187 416 L 170 408 C 199 333 219 252 233 167 L 378 167 C 392 167 402 162 405 151 C 374 121 321 82 321 82 L 276 138 L 44 138 L 51 167 L 166 167 C 144 325 105 485 37 610 L 51 622 C 75 591 97 558 116 523 L 116 928 L 126 928 C 154 928 174 913 174 909 L 174 802 L 282 802 L 282 878 L 291 878 C 310 878 340 864 341 859 L 341 455 C 360 451 376 444 382 436 L 305 378 Z M 599 30 L 588 37 C 615 64 642 112 643 152 C 701 200 762 79 599 30 Z M 874 109 L 829 167 L 384 167 L 392 195 L 934 195 C 948 195 957 190 960 179 C 928 150 874 109 874 109 Z M 772 410 L 543 410 L 543 296 L 772 296 L 772 410 Z M 772 476 L 781 476 C 801 476 833 462 834 456 L 834 305 C 851 302 866 294 871 287 L 796 231 L 763 266 L 548 266 L 482 238 L 482 479 L 491 479 C 516 479 543 465 543 460 L 543 438 L 772 438 L 772 476 Z M 727 757 L 587 757 L 587 649 L 727 649 L 727 757 Z M 727 826 L 735 826 C 754 826 782 813 783 807 L 783 657 C 799 654 814 647 820 640 L 750 587 L 718 620 L 592 620 L 533 592 L 533 845 L 541 845 C 563 845 587 832 587 828 L 587 787 L 727 787 L 727 826 Z M 878 479 L 847 517 L 465 517 L 401 487 L 401 958 L 411 958 C 436 958 460 944 460 937 L 460 547 L 857 547 L 857 868 C 857 881 852 887 836 887 C 816 887 733 881 733 881 L 733 896 C 771 901 792 909 806 917 C 818 926 822 942 824 960 C 907 951 917 922 917 874 L 917 559 C 937 556 953 547 959 540 L 878 479 Z" fill="red" /><path transform="translate(2000)" d="M 616 30 L 605 37 C 632 64 659 112 660 152 C 718 200 779 79 616 30 Z M 176 464 L 297 464 L 297 774 L 176 774 L 176 464 Z M 332 85 L 287 141 L 239 141 L 239 138 L 175 138 L 175 141 L 40 141 L 48 170 L 170 170 C 145 331 100 499 29 627 L 45 639 C 72 604 95 566 117 527 L 117 920 L 127 920 C 156 920 176 903 176 899 L 176 804 L 297 804 L 297 870 L 306 870 C 326 870 355 856 356 851 L 356 475 C 376 471 390 463 397 456 L 321 396 L 287 434 L 188 434 L 165 424 C 197 345 221 259 236 170 L 389 170 C 403 170 413 165 416 154 C 384 124 332 85 332 85 Z M 883 114 L 839 169 L 419 169 L 427 198 L 938 198 C 952 198 961 193 964 182 C 933 152 883 114 883 114 Z M 793 412 L 568 412 L 568 292 L 793 292 L 793 412 Z M 793 477 L 802 477 C 822 477 852 464 853 458 L 853 298 C 868 296 882 289 887 282 L 817 229 L 785 262 L 573 262 L 509 233 L 509 488 L 518 488 C 541 488 568 474 568 469 L 568 441 L 793 441 L 793 477 Z M 741 770 L 609 770 L 609 644 L 741 644 L 741 770 Z M 792 820 L 792 648 C 806 645 819 638 824 633 L 762 584 L 733 614 L 614 614 L 559 588 L 559 851 L 567 851 C 587 851 609 839 609 835 L 609 800 L 741 800 L 741 838 L 749 838 C 766 838 791 826 792 820 Z M 883 484 L 852 520 L 497 520 L 432 490 L 432 957 L 442 957 C 467 957 492 942 492 937 L 492 550 L 861 550 L 861 867 C 861 880 858 886 843 886 C 826 886 755 880 755 880 L 755 896 C 789 901 807 908 818 917 C 829 926 833 941 835 958 C 913 950 922 922 922 874 L 922 559 C 939 556 954 548 959 541 L 883 484 Z" fill="blue" fill-opacity="0.5" /><path transform="translate(2000)" d="M 282 773 L 174 773 L 174 445 L 282 445 L 282 773 Z M 305 378 L 272 416 L 187 416 L 170 408 C 199 333 219 252 233 167 L 378 167 C 392 167 402 162 405 151 C 374 121 321 82 321 82 L 276 138 L 44 138 L 51 167 L 166 167 C 144 325 105 485 37 610 L 51 622 C 75 591 97 558 116 523 L 116 928 L 126 928 C 154 928 174 913 174 909 L 174 802 L 282 802 L 282 878 L 291 878 C 310 878 340 864 341 859 L 341 455 C 360 451 376 444 382 436 L 305 378 Z M 599 30 L 588 37 C 615 64 642 112 643 152 C 701 200 762 79 599 30 Z M 874 109 L 829 167 L 384 167 L 392 195 L 934 195 C 948 195 957 190 960 179 C 928 150 874 109 874 109 Z M 772 410 L 543 410 L 543 296 L 772 296 L 772 410 Z M 772 476 L 781 476 C 801 476 833 462 834 456 L 834 305 C 851 302 866 294 871 287 L 796 231 L 763 266 L 548 266 L 482 238 L 482 479 L 491 479 C 516 479 543 465 543 460 L 543 438 L 772 438 L 772 476 Z M 727 757 L 587 757 L 587 649 L 727 649 L 727 757 Z M 727 826 L 735 826 C 754 826 782 813 783 807 L 783 657 C 799 654 814 647 820 640 L 750 587 L 718 620 L 592 620 L 533 592 L 533 845 L 541 845 C 563 845 587 832 587 828 L 587 787 L 727 787 L 727 826 Z M 878 479 L 847 517 L 465 517 L 401 487 L 401 958 L 411 958 C 436 958 460 944 460 937 L 460 547 L 857 547 L 857 868 C 857 881 852 887 836 887 C 816 887 733 881 733 881 L 733 896 C 771 901 792 909 806 917 C 818 926 822 942 824 960 C 907 951 917 922 917 874 L 917 559 C 937 556 953 547 959 540 L 878 479 Z" fill="red" fill-opacity="0.5" /><text text-anchor="middle" x="500" y="1064" font-family="Arial" font-size="64">Source Han Serif TW</text><text text-anchor="middle" x="1500" y="1064" font-family="Arial" font-size="64">HKSerif (uni78BBHK-regular)</text></svg>