<svg width="1000" height="1000" xmlns="http://www.w3.org/2000/svg"><path d="M 887 605 L 817 540 L 773 580 L 601 580 C 613 561 625 542 636 521 C 658 525 672 517 677 506 L 582 464 C 527 607 429 722 330 785 L 341 799 C 414 767 483 720 542 655 C 565 702 592 745 625 783 C 535 854 418 906 278 941 L 285 958 C 439 932 563 886 660 820 C 723 880 807 926 920 958 C 926 925 945 907 972 900 L 974 889 C 861 868 772 835 702 788 C 761 740 809 684 846 618 C 870 617 880 614 887 605 Z" fill="black" /><path d="M 580 609 L 770 609 C 742 663 704 712 658 755 C 617 721 585 682 558 637 C 565 628 573 619 580 609 Z" fill="white" /><path d="M 416 682 L 411 667 C 359 685 307 702 256 718 C 293 603 330 463 352 369 C 375 367 386 356 389 343 L 288 324 C 274 441 250 602 231 725 C 148 750 77 771 35 780 L 82 864 C 91 860 98 851 101 838 C 239 778 341 722 416 682 Z" fill="black" /><path d="M 103 329 L 88 336 C 131 438 139 587 138 663 C 181 730 263 560 103 329 Z" fill="black" /><path d="M 49 289 L 376 289 C 389 289 399 284 401 273 C 371 243 319 201 319 201 L 275 260 L 41 260 L 49 289 Z" fill="black" /><path d="M 153 45 L 140 51 C 167 95 199 163 202 216 C 261 271 326 141 153 45 Z" fill="black" /><path d="M 752 129 L 740 137 C 765 164 796 200 821 237 C 692 245 567 251 485 253 C 556 205 633 140 679 91 C 700 94 713 85 717 76 L 623 33 C 589 93 502 202 433 247 C 426 250 410 254 410 254 L 454 334 C 460 331 465 325 470 317 L 531 308 C 513 404 456 500 348 544 L 353 560 C 481 527 580 431 610 298 L 699 283 L 699 427 C 699 467 708 481 768 481 L 835 481 C 933 481 957 471 957 445 C 957 433 953 427 934 424 L 934 424 L 922 424 C 914 425 902 426 896 427 L 881 427 C 874 428 855 428 837 428 L 782 428 C 760 428 758 426 758 415 L 758 272 L 834 258 C 849 281 861 303 869 323 C 937 368 980 229 752 129 Z" fill="black" /></svg>