<svg width="3000" height="1080" xmlns="http://www.w3.org/2000/svg" style="background:#fff"><path d="M 38 313 L 46 328 C 135 301 227 258 305 208 C 357 239 397 271 426 301 C 477 341 533 260 355 174 C 390 148 420 122 444 95 C 461 100 473 98 479 90 L 395 40 C 369 76 334 113 294 148 C 243 129 178 109 98 92 L 91 110 C 153 132 207 156 254 181 C 188 233 111 280 38 313 Z M 480 774 L 480 582 C 500 578 516 570 523 562 L 443 504 L 413 541 L 333 541 L 333 471 C 352 468 360 460 361 448 L 274 438 L 274 541 L 202 541 L 178 530 C 198 496 217 459 234 419 L 521 419 C 535 419 543 414 546 403 C 516 374 466 336 466 336 L 423 390 L 246 390 C 256 365 265 340 273 314 C 295 315 306 306 310 294 L 214 266 C 205 308 194 350 181 390 L 41 390 L 48 419 L 171 419 C 160 451 147 482 133 511 L 132 510 L 132 514 C 101 579 65 637 28 682 L 43 693 C 75 666 104 634 132 598 L 132 870 L 141 870 C 170 870 190 855 190 849 L 190 571 L 274 571 L 274 956 L 286 956 C 307 956 333 942 333 934 L 333 571 L 423 571 L 423 767 C 423 779 420 784 409 784 C 397 784 358 780 358 780 L 358 796 C 379 800 391 806 398 816 C 407 825 408 841 409 858 C 473 851 480 824 480 774 Z M 953 887 L 969 747 L 956 744 C 949 773 939 807 928 839 C 923 851 919 852 913 842 C 875 769 866 523 874 354 C 895 352 909 345 916 339 L 839 273 L 801 314 L 649 314 C 653 256 656 202 659 155 L 936 155 C 949 155 958 150 961 139 C 929 108 876 68 876 68 L 829 126 L 499 126 L 507 155 L 600 155 C 596 339 565 677 539 850 C 503 858 472 864 451 868 L 496 947 C 505 944 513 936 517 924 C 645 874 739 833 803 804 L 800 788 C 730 806 661 823 600 836 C 618 699 635 508 647 342 L 810 342 C 810 562 815 802 875 905 C 897 942 935 969 960 950 C 973 940 969 921 953 887 Z M 671 447 L 657 453 C 690 510 723 602 720 672 C 777 730 839 588 671 447 Z" fill="blue" /><path transform="translate(1000)" d="M 38 313 L 46 328 C 135 301 227 258 305 208 C 357 239 397 271 426 301 C 477 341 533 260 355 174 C 390 148 420 122 444 95 C 461 100 473 98 479 90 L 395 40 C 369 76 334 113 294 148 C 243 129 178 109 98 92 L 91 110 C 153 132 207 156 254 181 C 188 233 111 280 38 313 Z M 480 774 L 480 582 C 500 578 516 570 523 562 L 443 504 L 413 541 L 333 541 L 333 471 C 352 468 360 460 361 448 L 274 438 L 274 541 L 202 541 L 178 530 C 198 496 217 459 234 419 L 521 419 C 535 419 543 414 546 403 C 516 374 466 336 466 336 L 423 390 L 246 390 C 256 365 265 340 273 314 C 295 315 306 306 310 294 L 214 266 C 205 308 194 350 181 390 L 41 390 L 48 419 L 171 419 C 160 451 147 482 133 511 L 132 510 L 132 514 C 101 579 65 637 28 682 L 43 693 C 75 666 104 634 132 598 L 132 870 L 141 870 C 170 870 190 855 190 849 L 190 571 L 274 571 L 274 956 L 286 956 C 307 956 333 942 333 934 L 333 571 L 423 571 L 423 767 C 423 779 420 784 409 784 C 397 784 358 780 358 780 L 358 796 C 379 800 391 806 398 816 C 407 825 408 841 409 858 C 473 851 480 824 480 774 Z M 664 445 L 651 450 C 681 506 712 595 709 663 C 763 720 827 583 664 445 Z M 949 872 L 946 774 L 933 774 C 926 812 916 859 910 869 C 907 875 904 876 899 876 C 894 877 886 877 876 877 L 876 877 C 864 877 862 872 862 859 L 862 350 C 884 347 895 341 901 335 L 826 268 L 789 309 L 642 309 C 645 253 648 201 650 155 L 932 155 C 946 155 954 150 957 139 C 925 108 872 68 872 68 L 825 126 L 482 126 L 490 155 L 589 155 C 586 337 560 675 535 848 C 502 855 475 860 455 863 L 495 948 C 505 945 513 936 516 924 C 651 877 751 835 827 805 L 827 784 C 746 803 666 821 599 835 C 615 697 630 505 640 339 L 799 339 L 799 878 C 799 918 807 938 858 938 L 874 938 C 950 938 973 925 973 899 C 973 886 967 879 949 872 Z" fill="red" /><path transform="translate(2000)" d="M 38 313 L 46 328 C 135 301 227 258 305 208 C 357 239 397 271 426 301 C 477 341 533 260 355 174 C 390 148 420 122 444 95 C 461 100 473 98 479 90 L 395 40 C 369 76 334 113 294 148 C 243 129 178 109 98 92 L 91 110 C 153 132 207 156 254 181 C 188 233 111 280 38 313 Z M 480 774 L 480 582 C 500 578 516 570 523 562 L 443 504 L 413 541 L 333 541 L 333 471 C 352 468 360 460 361 448 L 274 438 L 274 541 L 202 541 L 178 530 C 198 496 217 459 234 419 L 521 419 C 535 419 543 414 546 403 C 516 374 466 336 466 336 L 423 390 L 246 390 C 256 365 265 340 273 314 C 295 315 306 306 310 294 L 214 266 C 205 308 194 350 181 390 L 41 390 L 48 419 L 171 419 C 160 451 147 482 133 511 L 132 510 L 132 514 C 101 579 65 637 28 682 L 43 693 C 75 666 104 634 132 598 L 132 870 L 141 870 C 170 870 190 855 190 849 L 190 571 L 274 571 L 274 956 L 286 956 C 307 956 333 942 333 934 L 333 571 L 423 571 L 423 767 C 423 779 420 784 409 784 C 397 784 358 780 358 780 L 358 796 C 379 800 391 806 398 816 C 407 825 408 841 409 858 C 473 851 480 824 480 774 Z M 953 887 L 969 747 L 956 744 C 949 773 939 807 928 839 C 923 851 919 852 913 842 C 875 769 866 523 874 354 C 895 352 909 345 916 339 L 839 273 L 801 314 L 649 314 C 653 256 656 202 659 155 L 936 155 C 949 155 958 150 961 139 C 929 108 876 68 876 68 L 829 126 L 499 126 L 507 155 L 600 155 C 596 339 565 677 539 850 C 503 858 472 864 451 868 L 496 947 C 505 944 513 936 517 924 C 645 874 739 833 803 804 L 800 788 C 730 806 661 823 600 836 C 618 699 635 508 647 342 L 810 342 C 810 562 815 802 875 905 C 897 942 935 969 960 950 C 973 940 969 921 953 887 Z M 671 447 L 657 453 C 690 510 723 602 720 672 C 777 730 839 588 671 447 Z" fill="blue" fill-opacity="0.5" /><path transform="translate(2000)" d="M 38 313 L 46 328 C 135 301 227 258 305 208 C 357 239 397 271 426 301 C 477 341 533 260 355 174 C 390 148 420 122 444 95 C 461 100 473 98 479 90 L 395 40 C 369 76 334 113 294 148 C 243 129 178 109 98 92 L 91 110 C 153 132 207 156 254 181 C 188 233 111 280 38 313 Z M 480 774 L 480 582 C 500 578 516 570 523 562 L 443 504 L 413 541 L 333 541 L 333 471 C 352 468 360 460 361 448 L 274 438 L 274 541 L 202 541 L 178 530 C 198 496 217 459 234 419 L 521 419 C 535 419 543 414 546 403 C 516 374 466 336 466 336 L 423 390 L 246 390 C 256 365 265 340 273 314 C 295 315 306 306 310 294 L 214 266 C 205 308 194 350 181 390 L 41 390 L 48 419 L 171 419 C 160 451 147 482 133 511 L 132 510 L 132 514 C 101 579 65 637 28 682 L 43 693 C 75 666 104 634 132 598 L 132 870 L 141 870 C 170 870 190 855 190 849 L 190 571 L 274 571 L 274 956 L 286 956 C 307 956 333 942 333 934 L 333 571 L 423 571 L 423 767 C 423 779 420 784 409 784 C 397 784 358 780 358 780 L 358 796 C 379 800 391 806 398 816 C 407 825 408 841 409 858 C 473 851 480 824 480 774 Z M 664 445 L 651 450 C 681 506 712 595 709 663 C 763 720 827 583 664 445 Z M 949 872 L 946 774 L 933 774 C 926 812 916 859 910 869 C 907 875 904 876 899 876 C 894 877 886 877 876 877 L 876 877 C 864 877 862 872 862 859 L 862 350 C 884 347 895 341 901 335 L 826 268 L 789 309 L 642 309 C 645 253 648 201 650 155 L 932 155 C 946 155 954 150 957 139 C 925 108 872 68 872 68 L 825 126 L 482 126 L 490 155 L 589 155 C 586 337 560 675 535 848 C 502 855 475 860 455 863 L 495 948 C 505 945 513 936 516 924 C 651 877 751 835 827 805 L 827 784 C 746 803 666 821 599 835 C 615 697 630 505 640 339 L 799 339 L 799 878 C 799 918 807 938 858 938 L 874 938 C 950 938 973 925 973 899 C 973 886 967 879 949 872 Z" fill="red" fill-opacity="0.5" /><text text-anchor="middle" x="500" y="1064" font-family="Arial" font-size="64">Source Han Serif KR</text><text text-anchor="middle" x="1500" y="1064" font-family="Arial" font-size="64">HKSerif (uni74FBKX-regular)</text></svg>