<svg width="3000" height="1080" xmlns="http://www.w3.org/2000/svg" style="background:#fff"><path d="M 148 140 L 388 140 L 388 280 L 148 280 L 148 140 Z M 148 335 L 148 310 L 388 310 L 388 343 L 398 343 C 427 343 451 330 451 325 L 451 143 C 471 140 480 135 486 127 L 417 73 L 384 110 L 159 110 L 86 79 L 86 354 L 96 354 C 128 354 148 340 148 335 Z M 409 709 L 130 709 L 130 590 L 409 590 L 409 709 Z M 130 447 L 409 447 L 409 561 L 130 561 L 130 447 Z M 516 440 L 432 377 L 399 418 L 135 418 L 67 386 L 67 959 L 78 959 C 105 959 130 943 130 936 L 130 738 L 409 738 L 409 868 C 409 883 404 889 385 889 C 363 889 266 882 266 882 L 266 897 C 309 903 335 910 349 920 C 363 929 368 944 369 963 C 461 955 472 924 472 875 L 472 460 C 493 456 509 448 516 440 Z M 951 872 L 947 762 L 935 762 C 927 803 917 858 912 869 C 909 875 905 876 901 877 L 882 877 L 862 877 C 851 877 848 873 848 861 L 848 379 C 870 376 882 371 889 364 L 815 298 L 779 337 L 632 337 C 639 263 646 198 651 153 L 929 153 C 943 153 952 148 955 137 C 922 106 870 65 870 65 L 823 123 L 491 123 L 499 153 L 591 153 C 579 296 535 756 520 825 C 515 858 494 880 482 885 L 518 956 C 524 953 532 946 536 935 C 621 885 705 831 748 804 L 742 789 C 682 814 621 838 574 857 C 589 763 612 546 629 367 L 788 367 L 788 880 C 788 918 796 937 845 937 L 880 937 C 951 937 974 923 974 899 C 974 886 969 880 951 872 Z M 656 477 L 641 482 C 666 534 698 615 702 676 C 753 728 810 608 656 477 Z" fill="blue" /><path transform="translate(1000)" d="M 164 141 L 362 141 L 362 277 L 164 277 L 164 141 Z M 164 332 L 164 307 L 362 307 L 362 343 L 371 343 C 391 343 421 330 422 324 L 422 153 C 441 149 458 140 464 132 L 387 73 L 352 111 L 177 111 L 104 79 L 104 352 L 114 352 C 144 352 164 337 164 332 Z M 377 695 L 149 695 L 149 579 L 377 579 L 377 695 Z M 149 438 L 377 438 L 377 549 L 149 549 L 149 438 Z M 476 429 L 399 371 L 368 409 L 161 409 L 88 377 L 88 955 L 98 955 C 128 955 149 939 149 933 L 149 725 L 377 725 L 377 857 C 377 871 373 876 359 876 C 343 876 274 870 274 870 L 274 887 C 307 891 324 899 335 909 C 346 919 349 935 351 954 C 428 946 437 916 437 865 L 437 447 C 455 444 470 436 476 429 Z M 951 872 L 947 762 L 935 762 C 927 803 917 858 912 869 C 909 875 905 876 901 877 L 882 877 L 862 877 C 851 877 848 873 848 861 L 848 379 C 870 376 882 371 889 364 L 815 298 L 779 337 L 632 337 C 639 263 646 198 651 153 L 929 153 C 943 153 952 148 955 137 C 922 106 870 65 870 65 L 823 123 L 481 123 L 489 153 L 591 153 C 579 296 535 756 520 825 C 515 858 494 880 482 885 L 518 956 C 524 953 532 946 536 935 C 621 885 705 831 748 804 L 742 789 C 682 814 621 838 574 857 C 589 763 612 546 629 367 L 788 367 L 788 880 C 788 918 796 937 845 937 L 880 937 C 951 937 974 923 974 899 C 974 886 969 880 951 872 Z M 656 477 L 641 482 C 666 534 698 615 702 676 C 753 728 810 608 656 477 Z" fill="red" /><path transform="translate(2000)" d="M 148 140 L 388 140 L 388 280 L 148 280 L 148 140 Z M 148 335 L 148 310 L 388 310 L 388 343 L 398 343 C 427 343 451 330 451 325 L 451 143 C 471 140 480 135 486 127 L 417 73 L 384 110 L 159 110 L 86 79 L 86 354 L 96 354 C 128 354 148 340 148 335 Z M 409 709 L 130 709 L 130 590 L 409 590 L 409 709 Z M 130 447 L 409 447 L 409 561 L 130 561 L 130 447 Z M 516 440 L 432 377 L 399 418 L 135 418 L 67 386 L 67 959 L 78 959 C 105 959 130 943 130 936 L 130 738 L 409 738 L 409 868 C 409 883 404 889 385 889 C 363 889 266 882 266 882 L 266 897 C 309 903 335 910 349 920 C 363 929 368 944 369 963 C 461 955 472 924 472 875 L 472 460 C 493 456 509 448 516 440 Z M 951 872 L 947 762 L 935 762 C 927 803 917 858 912 869 C 909 875 905 876 901 877 L 882 877 L 862 877 C 851 877 848 873 848 861 L 848 379 C 870 376 882 371 889 364 L 815 298 L 779 337 L 632 337 C 639 263 646 198 651 153 L 929 153 C 943 153 952 148 955 137 C 922 106 870 65 870 65 L 823 123 L 491 123 L 499 153 L 591 153 C 579 296 535 756 520 825 C 515 858 494 880 482 885 L 518 956 C 524 953 532 946 536 935 C 621 885 705 831 748 804 L 742 789 C 682 814 621 838 574 857 C 589 763 612 546 629 367 L 788 367 L 788 880 C 788 918 796 937 845 937 L 880 937 C 951 937 974 923 974 899 C 974 886 969 880 951 872 Z M 656 477 L 641 482 C 666 534 698 615 702 676 C 753 728 810 608 656 477 Z" fill="blue" fill-opacity="0.5" /><path transform="translate(2000)" d="M 164 141 L 362 141 L 362 277 L 164 277 L 164 141 Z M 164 332 L 164 307 L 362 307 L 362 343 L 371 343 C 391 343 421 330 422 324 L 422 153 C 441 149 458 140 464 132 L 387 73 L 352 111 L 177 111 L 104 79 L 104 352 L 114 352 C 144 352 164 337 164 332 Z M 377 695 L 149 695 L 149 579 L 377 579 L 377 695 Z M 149 438 L 377 438 L 377 549 L 149 549 L 149 438 Z M 476 429 L 399 371 L 368 409 L 161 409 L 88 377 L 88 955 L 98 955 C 128 955 149 939 149 933 L 149 725 L 377 725 L 377 857 C 377 871 373 876 359 876 C 343 876 274 870 274 870 L 274 887 C 307 891 324 899 335 909 C 346 919 349 935 351 954 C 428 946 437 916 437 865 L 437 447 C 455 444 470 436 476 429 Z M 951 872 L 947 762 L 935 762 C 927 803 917 858 912 869 C 909 875 905 876 901 877 L 882 877 L 862 877 C 851 877 848 873 848 861 L 848 379 C 870 376 882 371 889 364 L 815 298 L 779 337 L 632 337 C 639 263 646 198 651 153 L 929 153 C 943 153 952 148 955 137 C 922 106 870 65 870 65 L 823 123 L 481 123 L 489 153 L 591 153 C 579 296 535 756 520 825 C 515 858 494 880 482 885 L 518 956 C 524 953 532 946 536 935 C 621 885 705 831 748 804 L 742 789 C 682 814 621 838 574 857 C 589 763 612 546 629 367 L 788 367 L 788 880 C 788 918 796 937 845 937 L 880 937 C 951 937 974 923 974 899 C 974 886 969 880 951 872 Z M 656 477 L 641 482 C 666 534 698 615 702 676 C 753 728 810 608 656 477 Z" fill="red" fill-opacity="0.5" /><text text-anchor="middle" x="500" y="1064" font-family="Arial" font-size="64">Source Han Serif TW</text><text text-anchor="middle" x="1500" y="1064" font-family="Arial" font-size="64">HKSerif (uni74F9HK-regular)</text></svg>