<svg width="3000" height="1080" xmlns="http://www.w3.org/2000/svg" style="background:#fff"><path d="M 256 636 L 187 636 L 187 473 L 256 473 L 256 636 Z M 187 444 L 187 291 L 256 291 L 256 444 L 187 444 Z M 315 291 L 389 291 L 389 444 L 315 444 L 315 291 Z M 389 473 L 389 636 L 315 636 L 315 473 L 389 473 Z M 526 783 L 522 767 C 451 784 380 799 315 814 L 315 666 L 524 666 C 537 666 547 661 549 650 C 522 622 478 585 478 585 L 445 627 L 445 473 L 540 473 C 554 473 563 468 566 457 C 538 429 491 391 491 391 L 452 444 L 445 444 L 445 291 L 508 291 C 522 291 531 286 534 275 C 505 247 459 209 459 209 L 419 262 L 315 262 L 315 142 C 367 133 415 124 455 115 C 476 125 495 125 504 116 L 429 47 C 345 84 183 129 49 149 L 53 166 C 119 164 190 158 256 150 L 256 262 L 65 262 L 73 291 L 131 291 L 131 444 L 37 444 L 45 473 L 131 473 L 131 636 L 60 636 L 68 666 L 256 666 L 256 827 C 171 847 100 861 59 868 L 104 949 C 114 946 122 938 127 925 C 304 867 433 819 526 783 Z M 945 889 L 960 750 L 947 748 C 939 778 930 810 919 843 C 915 855 911 856 905 847 C 871 780 865 530 875 364 C 896 362 910 355 916 348 L 840 282 L 801 322 L 657 322 C 661 261 664 204 666 154 L 923 154 C 937 154 948 149 951 138 C 917 108 864 67 864 67 L 817 125 L 506 125 L 514 154 L 607 154 C 604 339 578 681 555 857 C 525 862 500 866 483 868 L 514 952 C 525 949 533 941 538 929 C 659 886 751 849 818 823 L 814 809 C 744 822 675 835 617 846 C 632 710 645 519 655 352 L 811 352 C 809 574 811 817 872 914 C 894 949 930 971 954 950 C 966 940 960 920 945 889 Z M 684 462 L 670 467 C 699 521 728 606 725 671 C 779 728 844 592 684 462 Z" fill="blue" /><path transform="translate(1000)" d="M 318 311 L 391 311 L 391 476 L 318 476 L 318 311 Z M 391 506 L 391 688 L 318 688 L 318 506 L 391 506 Z M 260 688 L 186 688 L 186 506 L 260 506 L 260 688 Z M 186 476 L 186 311 L 260 311 L 260 476 L 186 476 Z M 527 133 L 453 63 C 367 96 206 139 73 159 L 78 177 C 137 174 200 169 260 162 L 260 281 L 60 281 L 68 311 L 132 311 L 132 476 L 44 476 L 52 506 L 132 506 L 132 688 L 60 688 L 68 718 L 260 718 L 260 850 C 175 861 105 869 64 872 L 99 950 C 108 947 118 940 123 928 C 293 891 419 859 511 836 L 509 819 C 443 828 378 836 318 843 L 318 718 L 532 718 C 546 718 555 713 558 702 C 530 673 485 635 485 635 L 446 688 L 445 688 L 445 506 L 556 506 C 569 506 578 501 581 490 C 554 460 506 420 506 420 L 465 476 L 445 476 L 445 311 L 534 311 C 547 311 557 306 559 295 C 529 266 481 227 481 227 L 437 281 L 318 281 L 318 154 C 377 146 430 137 474 128 C 490 135 505 137 516 133 L 527 133 Z M 670 445 L 657 450 C 687 506 718 595 715 663 C 769 720 833 583 670 445 Z M 949 872 L 946 774 L 933 774 C 926 812 916 859 910 869 C 907 875 904 876 899 876 C 894 877 886 877 876 877 L 876 877 C 864 877 862 872 862 859 L 862 350 C 884 347 895 341 901 335 L 826 268 L 789 309 L 658 309 C 661 253 664 201 666 155 L 932 155 C 946 155 954 150 957 139 C 925 108 872 68 872 68 L 825 126 L 498 126 L 506 155 L 605 155 C 602 337 576 675 551 848 C 518 855 491 860 471 863 L 511 948 C 521 945 529 936 532 924 C 667 877 767 835 843 805 L 843 784 C 762 803 682 821 615 835 C 631 697 646 505 656 339 L 799 339 L 799 878 C 799 918 807 938 858 938 L 874 938 C 950 938 973 925 973 899 C 973 886 967 879 949 872 Z" fill="red" /><path transform="translate(2000)" d="M 256 636 L 187 636 L 187 473 L 256 473 L 256 636 Z M 187 444 L 187 291 L 256 291 L 256 444 L 187 444 Z M 315 291 L 389 291 L 389 444 L 315 444 L 315 291 Z M 389 473 L 389 636 L 315 636 L 315 473 L 389 473 Z M 526 783 L 522 767 C 451 784 380 799 315 814 L 315 666 L 524 666 C 537 666 547 661 549 650 C 522 622 478 585 478 585 L 445 627 L 445 473 L 540 473 C 554 473 563 468 566 457 C 538 429 491 391 491 391 L 452 444 L 445 444 L 445 291 L 508 291 C 522 291 531 286 534 275 C 505 247 459 209 459 209 L 419 262 L 315 262 L 315 142 C 367 133 415 124 455 115 C 476 125 495 125 504 116 L 429 47 C 345 84 183 129 49 149 L 53 166 C 119 164 190 158 256 150 L 256 262 L 65 262 L 73 291 L 131 291 L 131 444 L 37 444 L 45 473 L 131 473 L 131 636 L 60 636 L 68 666 L 256 666 L 256 827 C 171 847 100 861 59 868 L 104 949 C 114 946 122 938 127 925 C 304 867 433 819 526 783 Z M 945 889 L 960 750 L 947 748 C 939 778 930 810 919 843 C 915 855 911 856 905 847 C 871 780 865 530 875 364 C 896 362 910 355 916 348 L 840 282 L 801 322 L 657 322 C 661 261 664 204 666 154 L 923 154 C 937 154 948 149 951 138 C 917 108 864 67 864 67 L 817 125 L 506 125 L 514 154 L 607 154 C 604 339 578 681 555 857 C 525 862 500 866 483 868 L 514 952 C 525 949 533 941 538 929 C 659 886 751 849 818 823 L 814 809 C 744 822 675 835 617 846 C 632 710 645 519 655 352 L 811 352 C 809 574 811 817 872 914 C 894 949 930 971 954 950 C 966 940 960 920 945 889 Z M 684 462 L 670 467 C 699 521 728 606 725 671 C 779 728 844 592 684 462 Z" fill="blue" fill-opacity="0.5" /><path transform="translate(2000)" d="M 318 311 L 391 311 L 391 476 L 318 476 L 318 311 Z M 391 506 L 391 688 L 318 688 L 318 506 L 391 506 Z M 260 688 L 186 688 L 186 506 L 260 506 L 260 688 Z M 186 476 L 186 311 L 260 311 L 260 476 L 186 476 Z M 527 133 L 453 63 C 367 96 206 139 73 159 L 78 177 C 137 174 200 169 260 162 L 260 281 L 60 281 L 68 311 L 132 311 L 132 476 L 44 476 L 52 506 L 132 506 L 132 688 L 60 688 L 68 718 L 260 718 L 260 850 C 175 861 105 869 64 872 L 99 950 C 108 947 118 940 123 928 C 293 891 419 859 511 836 L 509 819 C 443 828 378 836 318 843 L 318 718 L 532 718 C 546 718 555 713 558 702 C 530 673 485 635 485 635 L 446 688 L 445 688 L 445 506 L 556 506 C 569 506 578 501 581 490 C 554 460 506 420 506 420 L 465 476 L 445 476 L 445 311 L 534 311 C 547 311 557 306 559 295 C 529 266 481 227 481 227 L 437 281 L 318 281 L 318 154 C 377 146 430 137 474 128 C 490 135 505 137 516 133 L 527 133 Z M 670 445 L 657 450 C 687 506 718 595 715 663 C 769 720 833 583 670 445 Z M 949 872 L 946 774 L 933 774 C 926 812 916 859 910 869 C 907 875 904 876 899 876 C 894 877 886 877 876 877 L 876 877 C 864 877 862 872 862 859 L 862 350 C 884 347 895 341 901 335 L 826 268 L 789 309 L 658 309 C 661 253 664 201 666 155 L 932 155 C 946 155 954 150 957 139 C 925 108 872 68 872 68 L 825 126 L 498 126 L 506 155 L 605 155 C 602 337 576 675 551 848 C 518 855 491 860 471 863 L 511 948 C 521 945 529 936 532 924 C 667 877 767 835 843 805 L 843 784 C 762 803 682 821 615 835 C 631 697 646 505 656 339 L 799 339 L 799 878 C 799 918 807 938 858 938 L 874 938 C 950 938 973 925 973 899 C 973 886 967 879 949 872 Z" fill="red" fill-opacity="0.5" /><text text-anchor="middle" x="500" y="1064" font-family="Arial" font-size="64">Source Han Serif KR</text><text text-anchor="middle" x="1500" y="1064" font-family="Arial" font-size="64">HKSerif (uni7500KX-regular)</text></svg>