<svg width="3000" height="1080" xmlns="http://www.w3.org/2000/svg" style="background:#fff"><path d="M 577 31 L 566 38 C 594 63 624 106 628 144 C 686 187 741 68 577 31 Z M 896 702 L 825 650 C 801 678 758 723 725 755 C 694 726 668 692 649 655 L 663 643 C 691 644 705 639 709 629 L 609 600 C 548 672 423 760 294 811 L 303 826 C 366 809 428 785 483 757 L 483 854 C 483 869 478 874 447 890 L 481 959 C 487 956 495 950 501 941 C 580 907 659 869 699 850 L 695 835 C 642 848 587 861 543 871 L 543 726 C 576 707 605 687 632 668 C 684 799 776 891 899 940 C 906 913 925 896 950 892 L 951 881 C 873 860 800 822 740 770 C 783 750 833 723 864 706 C 884 712 892 710 896 702 Z M 825 380 L 744 380 L 744 273 L 825 273 L 825 380 Z M 466 380 L 466 273 L 554 273 L 554 380 L 466 380 Z M 608 273 L 690 273 L 690 380 L 608 380 L 608 273 Z M 825 428 L 833 428 C 853 428 882 414 883 408 L 883 281 C 900 278 915 270 920 263 L 848 208 L 816 243 L 471 243 L 407 213 L 407 435 L 416 435 C 439 435 466 422 466 416 L 466 410 L 825 410 L 825 428 Z M 393 449 L 386 463 C 434 478 500 508 532 527 C 584 538 593 443 393 449 Z M 374 585 L 411 654 C 421 650 427 643 431 630 C 503 597 564 569 609 546 L 609 600 L 621 600 C 642 600 669 587 669 579 L 669 539 C 742 565 838 606 882 634 C 933 653 962 574 745 529 C 794 517 845 503 871 492 C 881 500 889 501 894 497 L 853 436 C 823 457 755 498 706 522 C 694 520 682 518 669 517 L 669 465 C 689 462 697 454 698 443 L 609 433 L 609 524 C 511 551 417 576 374 585 Z M 872 99 L 826 157 L 369 157 L 370 155 C 340 125 289 85 289 85 L 246 141 L 41 141 L 48 171 L 163 171 L 163 423 L 48 423 L 56 452 L 163 452 L 163 740 C 107 758 60 773 33 780 L 78 858 C 88 854 95 845 98 833 C 217 773 307 723 370 688 L 365 674 C 317 690 269 706 225 721 L 225 452 L 334 452 C 346 452 356 447 358 436 C 333 407 286 368 286 368 L 248 423 L 225 423 L 225 171 L 344 171 C 352 171 359 169 363 166 L 370 187 L 929 187 C 943 187 953 182 955 171 C 923 140 872 99 872 99 Z" fill="blue" /><path transform="translate(1000)" d="M 577 31 L 566 38 C 594 63 624 106 628 144 C 686 187 741 68 577 31 Z M 896 702 L 825 650 C 801 678 758 723 725 755 C 694 726 668 692 649 655 L 663 643 C 691 644 705 639 709 629 L 609 600 C 548 672 423 760 294 811 L 303 826 C 366 809 428 785 483 757 L 483 854 C 483 869 478 874 447 890 L 481 959 C 487 956 495 950 501 941 C 580 907 659 869 699 850 L 695 835 C 642 848 587 861 543 871 L 543 726 C 576 707 605 687 632 668 C 684 799 776 891 899 940 C 906 913 925 896 950 892 L 951 881 C 873 860 800 822 740 770 C 783 750 833 723 864 706 C 884 712 892 710 896 702 Z M 825 380 L 744 380 L 744 273 L 825 273 L 825 380 Z M 466 380 L 466 273 L 554 273 L 554 380 L 466 380 Z M 608 273 L 690 273 L 690 380 L 608 380 L 608 273 Z M 825 428 L 833 428 C 853 428 882 414 883 408 L 883 281 C 900 278 915 270 920 263 L 848 208 L 816 243 L 471 243 L 407 213 L 407 435 L 416 435 C 439 435 466 422 466 416 L 466 410 L 825 410 L 825 428 Z M 609 433 L 609 600 L 621 600 C 642 600 669 587 669 579 L 669 465 C 689 462 697 454 698 443 L 609 433 Z M 872 99 L 826 157 L 369 157 L 370 155 C 340 125 289 85 289 85 L 246 141 L 41 141 L 48 171 L 163 171 L 163 423 L 48 423 L 56 452 L 163 452 L 163 740 C 107 758 60 773 33 780 L 78 858 C 88 854 95 845 98 833 C 217 773 307 723 370 688 L 365 674 C 317 690 269 706 225 721 L 225 452 L 334 452 C 346 452 356 447 358 436 C 333 407 286 368 286 368 L 248 423 L 225 423 L 225 171 L 344 171 C 352 171 359 169 363 166 L 370 187 L 929 187 C 943 187 953 182 955 171 C 923 140 872 99 872 99 Z M 510 457 L 478 494 L 352 494 L 360 522 L 545 522 C 557 522 566 517 568 506 C 546 485 510 457 510 457 Z M 508 550 L 475 587 L 341 587 L 349 616 L 543 616 C 555 616 565 611 567 600 C 544 578 508 550 508 550 Z M 878 457 L 847 494 L 716 494 L 724 522 L 913 522 C 927 522 935 517 938 506 C 914 485 878 457 878 457 Z M 724 616 L 924 616 C 937 616 946 611 948 600 C 924 578 887 550 887 550 L 856 587 L 716 587 L 724 616 Z" fill="red" /><path transform="translate(2000)" d="M 577 31 L 566 38 C 594 63 624 106 628 144 C 686 187 741 68 577 31 Z M 896 702 L 825 650 C 801 678 758 723 725 755 C 694 726 668 692 649 655 L 663 643 C 691 644 705 639 709 629 L 609 600 C 548 672 423 760 294 811 L 303 826 C 366 809 428 785 483 757 L 483 854 C 483 869 478 874 447 890 L 481 959 C 487 956 495 950 501 941 C 580 907 659 869 699 850 L 695 835 C 642 848 587 861 543 871 L 543 726 C 576 707 605 687 632 668 C 684 799 776 891 899 940 C 906 913 925 896 950 892 L 951 881 C 873 860 800 822 740 770 C 783 750 833 723 864 706 C 884 712 892 710 896 702 Z M 825 380 L 744 380 L 744 273 L 825 273 L 825 380 Z M 466 380 L 466 273 L 554 273 L 554 380 L 466 380 Z M 608 273 L 690 273 L 690 380 L 608 380 L 608 273 Z M 825 428 L 833 428 C 853 428 882 414 883 408 L 883 281 C 900 278 915 270 920 263 L 848 208 L 816 243 L 471 243 L 407 213 L 407 435 L 416 435 C 439 435 466 422 466 416 L 466 410 L 825 410 L 825 428 Z M 393 449 L 386 463 C 434 478 500 508 532 527 C 584 538 593 443 393 449 Z M 374 585 L 411 654 C 421 650 427 643 431 630 C 503 597 564 569 609 546 L 609 600 L 621 600 C 642 600 669 587 669 579 L 669 539 C 742 565 838 606 882 634 C 933 653 962 574 745 529 C 794 517 845 503 871 492 C 881 500 889 501 894 497 L 853 436 C 823 457 755 498 706 522 C 694 520 682 518 669 517 L 669 465 C 689 462 697 454 698 443 L 609 433 L 609 524 C 511 551 417 576 374 585 Z M 872 99 L 826 157 L 369 157 L 370 155 C 340 125 289 85 289 85 L 246 141 L 41 141 L 48 171 L 163 171 L 163 423 L 48 423 L 56 452 L 163 452 L 163 740 C 107 758 60 773 33 780 L 78 858 C 88 854 95 845 98 833 C 217 773 307 723 370 688 L 365 674 C 317 690 269 706 225 721 L 225 452 L 334 452 C 346 452 356 447 358 436 C 333 407 286 368 286 368 L 248 423 L 225 423 L 225 171 L 344 171 C 352 171 359 169 363 166 L 370 187 L 929 187 C 943 187 953 182 955 171 C 923 140 872 99 872 99 Z" fill="blue" fill-opacity="0.5" /><path transform="translate(2000)" d="M 577 31 L 566 38 C 594 63 624 106 628 144 C 686 187 741 68 577 31 Z M 896 702 L 825 650 C 801 678 758 723 725 755 C 694 726 668 692 649 655 L 663 643 C 691 644 705 639 709 629 L 609 600 C 548 672 423 760 294 811 L 303 826 C 366 809 428 785 483 757 L 483 854 C 483 869 478 874 447 890 L 481 959 C 487 956 495 950 501 941 C 580 907 659 869 699 850 L 695 835 C 642 848 587 861 543 871 L 543 726 C 576 707 605 687 632 668 C 684 799 776 891 899 940 C 906 913 925 896 950 892 L 951 881 C 873 860 800 822 740 770 C 783 750 833 723 864 706 C 884 712 892 710 896 702 Z M 825 380 L 744 380 L 744 273 L 825 273 L 825 380 Z M 466 380 L 466 273 L 554 273 L 554 380 L 466 380 Z M 608 273 L 690 273 L 690 380 L 608 380 L 608 273 Z M 825 428 L 833 428 C 853 428 882 414 883 408 L 883 281 C 900 278 915 270 920 263 L 848 208 L 816 243 L 471 243 L 407 213 L 407 435 L 416 435 C 439 435 466 422 466 416 L 466 410 L 825 410 L 825 428 Z M 609 433 L 609 600 L 621 600 C 642 600 669 587 669 579 L 669 465 C 689 462 697 454 698 443 L 609 433 Z M 872 99 L 826 157 L 369 157 L 370 155 C 340 125 289 85 289 85 L 246 141 L 41 141 L 48 171 L 163 171 L 163 423 L 48 423 L 56 452 L 163 452 L 163 740 C 107 758 60 773 33 780 L 78 858 C 88 854 95 845 98 833 C 217 773 307 723 370 688 L 365 674 C 317 690 269 706 225 721 L 225 452 L 334 452 C 346 452 356 447 358 436 C 333 407 286 368 286 368 L 248 423 L 225 423 L 225 171 L 344 171 C 352 171 359 169 363 166 L 370 187 L 929 187 C 943 187 953 182 955 171 C 923 140 872 99 872 99 Z M 510 457 L 478 494 L 352 494 L 360 522 L 545 522 C 557 522 566 517 568 506 C 546 485 510 457 510 457 Z M 508 550 L 475 587 L 341 587 L 349 616 L 543 616 C 555 616 565 611 567 600 C 544 578 508 550 508 550 Z M 878 457 L 847 494 L 716 494 L 724 522 L 913 522 C 927 522 935 517 938 506 C 914 485 878 457 878 457 Z M 724 616 L 924 616 C 937 616 946 611 948 600 C 924 578 887 550 887 550 L 856 587 L 716 587 L 724 616 Z" fill="red" fill-opacity="0.5" /><text text-anchor="middle" x="500" y="1064" font-family="Arial" font-size="64">Source Han Serif TW</text><text text-anchor="middle" x="1500" y="1064" font-family="Arial" font-size="64">HKSerif (uni74CCHK-regular)</text></svg>