<svg width="3000" height="1080" xmlns="http://www.w3.org/2000/svg" style="background:#fff"><path d="M 518 341 L 534 350 C 571 316 605 269 634 216 L 794 216 C 782 270 764 318 737 361 C 699 339 655 319 603 297 L 593 308 C 627 333 669 364 709 398 C 665 452 603 498 521 535 L 528 550 C 618 519 689 480 744 427 C 796 475 844 523 869 562 C 931 591 954 501 780 388 C 819 339 846 283 863 216 L 927 216 C 940 216 949 211 952 200 C 922 170 870 129 870 129 L 826 187 L 648 187 C 664 155 677 122 687 86 C 708 86 720 76 723 64 L 627 40 C 607 156 566 267 518 341 Z M 632 532 L 622 542 C 668 568 725 615 745 655 C 810 685 838 560 632 532 Z M 366 210 L 380 221 C 415 197 456 157 489 119 C 509 123 520 116 525 105 L 441 66 C 419 121 389 176 366 210 Z M 111 71 L 100 79 C 133 111 173 165 182 208 C 237 248 282 133 111 71 Z M 150 566 L 150 257 L 279 257 L 279 567 L 287 567 C 310 567 330 554 331 550 L 331 257 L 450 257 L 450 477 C 450 489 447 493 434 493 C 419 493 363 489 363 489 L 363 505 C 391 509 406 516 416 524 C 425 533 429 548 430 564 C 500 557 508 530 508 482 L 508 269 C 529 266 545 256 551 249 L 471 189 L 440 227 L 334 227 L 334 72 C 359 68 367 60 369 46 L 276 36 L 276 227 L 162 227 L 93 196 L 93 585 L 102 585 C 131 585 150 570 150 566 Z M 360 298 L 346 304 C 366 339 387 399 386 444 C 426 486 477 394 360 298 Z M 159 479 L 177 487 C 206 449 229 389 244 334 C 265 333 274 323 278 311 L 200 296 C 194 361 178 431 159 479 Z M 557 730 L 548 744 C 658 794 823 893 891 957 C 977 979 970 829 557 730 Z M 864 619 L 816 677 L 507 677 C 512 655 516 632 519 608 C 541 606 551 595 553 582 L 453 572 C 451 610 447 644 438 677 L 65 677 L 74 706 L 429 706 C 393 804 299 876 47 938 L 55 958 C 369 899 463 817 499 706 L 924 706 C 938 706 948 701 950 690 C 917 659 864 619 864 619 Z" fill="blue" /><path transform="translate(1000)" d="M 650 208 L 797 208 C 783 270 759 325 725 375 C 689 333 661 284 639 230 L 650 208 Z M 521 362 L 536 371 C 568 340 598 300 625 255 C 644 313 667 365 698 412 C 651 468 590 515 511 551 L 517 564 C 602 536 671 499 726 449 C 771 505 831 550 911 584 C 918 553 936 536 961 529 L 963 518 C 879 494 814 459 762 412 C 812 356 848 288 870 208 L 936 208 C 950 208 958 203 961 192 C 930 163 878 123 878 123 L 834 179 L 664 179 C 677 152 688 124 698 95 C 718 95 730 87 733 76 L 636 48 C 613 167 569 285 521 362 Z M 617 531 L 606 540 C 643 565 686 609 699 647 C 760 683 800 565 617 531 Z M 366 209 L 380 220 C 415 196 456 157 489 118 C 509 122 520 115 525 104 L 441 66 C 419 120 389 175 366 209 Z M 111 71 L 100 78 C 133 110 173 164 182 207 C 237 247 282 132 111 71 Z M 150 566 L 150 257 L 277 257 L 277 567 L 285 567 C 310 567 333 554 333 550 L 333 257 L 453 257 L 453 538 L 462 538 C 481 538 508 524 509 518 L 509 265 C 527 262 542 254 546 247 L 477 192 L 444 227 L 333 227 L 333 72 C 358 68 366 60 368 46 L 277 36 L 277 227 L 162 227 L 93 196 L 93 585 L 102 585 C 131 585 150 570 150 566 Z M 360 298 L 346 304 C 366 340 388 402 387 449 C 428 491 479 396 360 298 Z M 160 481 L 177 489 C 206 451 229 391 244 336 C 265 335 274 325 278 313 L 201 298 C 194 363 179 433 160 481 Z M 541 700 L 924 700 C 938 700 948 695 949 684 C 917 653 864 613 864 613 L 816 670 L 500 670 C 507 646 511 621 515 595 C 537 593 547 582 549 568 L 449 557 C 446 597 441 634 430 670 L 52 670 L 61 700 L 419 700 C 378 794 281 870 42 936 L 51 956 C 351 892 451 806 490 700 L 518 700 C 585 851 708 918 904 955 C 910 921 929 900 957 893 L 957 882 C 762 865 616 817 541 700 Z" fill="red" /><path transform="translate(2000)" d="M 518 341 L 534 350 C 571 316 605 269 634 216 L 794 216 C 782 270 764 318 737 361 C 699 339 655 319 603 297 L 593 308 C 627 333 669 364 709 398 C 665 452 603 498 521 535 L 528 550 C 618 519 689 480 744 427 C 796 475 844 523 869 562 C 931 591 954 501 780 388 C 819 339 846 283 863 216 L 927 216 C 940 216 949 211 952 200 C 922 170 870 129 870 129 L 826 187 L 648 187 C 664 155 677 122 687 86 C 708 86 720 76 723 64 L 627 40 C 607 156 566 267 518 341 Z M 632 532 L 622 542 C 668 568 725 615 745 655 C 810 685 838 560 632 532 Z M 366 210 L 380 221 C 415 197 456 157 489 119 C 509 123 520 116 525 105 L 441 66 C 419 121 389 176 366 210 Z M 111 71 L 100 79 C 133 111 173 165 182 208 C 237 248 282 133 111 71 Z M 150 566 L 150 257 L 279 257 L 279 567 L 287 567 C 310 567 330 554 331 550 L 331 257 L 450 257 L 450 477 C 450 489 447 493 434 493 C 419 493 363 489 363 489 L 363 505 C 391 509 406 516 416 524 C 425 533 429 548 430 564 C 500 557 508 530 508 482 L 508 269 C 529 266 545 256 551 249 L 471 189 L 440 227 L 334 227 L 334 72 C 359 68 367 60 369 46 L 276 36 L 276 227 L 162 227 L 93 196 L 93 585 L 102 585 C 131 585 150 570 150 566 Z M 360 298 L 346 304 C 366 339 387 399 386 444 C 426 486 477 394 360 298 Z M 159 479 L 177 487 C 206 449 229 389 244 334 C 265 333 274 323 278 311 L 200 296 C 194 361 178 431 159 479 Z M 557 730 L 548 744 C 658 794 823 893 891 957 C 977 979 970 829 557 730 Z M 864 619 L 816 677 L 507 677 C 512 655 516 632 519 608 C 541 606 551 595 553 582 L 453 572 C 451 610 447 644 438 677 L 65 677 L 74 706 L 429 706 C 393 804 299 876 47 938 L 55 958 C 369 899 463 817 499 706 L 924 706 C 938 706 948 701 950 690 C 917 659 864 619 864 619 Z" fill="blue" fill-opacity="0.5" /><path transform="translate(2000)" d="M 650 208 L 797 208 C 783 270 759 325 725 375 C 689 333 661 284 639 230 L 650 208 Z M 521 362 L 536 371 C 568 340 598 300 625 255 C 644 313 667 365 698 412 C 651 468 590 515 511 551 L 517 564 C 602 536 671 499 726 449 C 771 505 831 550 911 584 C 918 553 936 536 961 529 L 963 518 C 879 494 814 459 762 412 C 812 356 848 288 870 208 L 936 208 C 950 208 958 203 961 192 C 930 163 878 123 878 123 L 834 179 L 664 179 C 677 152 688 124 698 95 C 718 95 730 87 733 76 L 636 48 C 613 167 569 285 521 362 Z M 617 531 L 606 540 C 643 565 686 609 699 647 C 760 683 800 565 617 531 Z M 366 209 L 380 220 C 415 196 456 157 489 118 C 509 122 520 115 525 104 L 441 66 C 419 120 389 175 366 209 Z M 111 71 L 100 78 C 133 110 173 164 182 207 C 237 247 282 132 111 71 Z M 150 566 L 150 257 L 277 257 L 277 567 L 285 567 C 310 567 333 554 333 550 L 333 257 L 453 257 L 453 538 L 462 538 C 481 538 508 524 509 518 L 509 265 C 527 262 542 254 546 247 L 477 192 L 444 227 L 333 227 L 333 72 C 358 68 366 60 368 46 L 277 36 L 277 227 L 162 227 L 93 196 L 93 585 L 102 585 C 131 585 150 570 150 566 Z M 360 298 L 346 304 C 366 340 388 402 387 449 C 428 491 479 396 360 298 Z M 160 481 L 177 489 C 206 451 229 391 244 336 C 265 335 274 325 278 313 L 201 298 C 194 363 179 433 160 481 Z M 541 700 L 924 700 C 938 700 948 695 949 684 C 917 653 864 613 864 613 L 816 670 L 500 670 C 507 646 511 621 515 595 C 537 593 547 582 549 568 L 449 557 C 446 597 441 634 430 670 L 52 670 L 61 700 L 419 700 C 378 794 281 870 42 936 L 51 956 C 351 892 451 806 490 700 L 518 700 C 585 851 708 918 904 955 C 910 921 929 900 957 893 L 957 882 C 762 865 616 817 541 700 Z" fill="red" fill-opacity="0.5" /><text text-anchor="middle" x="500" y="1064" font-family="Arial" font-size="64">Source Han Serif TW</text><text text-anchor="middle" x="1500" y="1064" font-family="Arial" font-size="64">HKSerif (uni7358HK-regular)</text></svg>