<svg width="1000" height="1000" xmlns="http://www.w3.org/2000/svg"><path d="M 859 614 L 775 576 C 771 619 751 708 732 740 C 728 744 716 747 716 747 L 748 813 C 753 810 759 805 763 798 C 798 784 834 768 861 755 C 864 767 866 780 866 791 C 905 830 954 740 835 665 L 822 672 C 832 687 844 709 852 732 C 821 736 789 741 764 744 C 786 710 809 665 825 630 C 844 632 855 623 859 614 Z" fill="black" /><path d="M 942 876 L 939 772 L 926 772 C 918 816 908 862 902 873 C 898 881 894 882 886 883 C 875 884 849 885 816 885 L 745 885 C 715 885 712 881 712 866 L 712 559 L 712 541 L 815 541 L 815 587 L 824 587 C 852 587 877 572 877 568 L 877 197 C 897 193 908 188 915 180 L 843 125 L 811 163 L 597 163 C 621 139 649 110 669 88 C 688 90 702 84 708 70 L 603 40 C 592 75 574 128 562 163 L 496 163 L 424 133 L 424 598 L 433 598 C 464 598 484 583 484 578 L 484 541 L 533 541 C 522 733 470 851 305 947 L 313 962 C 511 881 582 759 600 541 L 655 541 L 655 879 C 655 922 670 937 734 937 L 816 937 C 941 937 967 926 967 901 C 967 889 962 882 942 876 Z" fill="black" /><path d="M 815 512 L 673 512 L 673 364 L 815 364 L 815 512 Z" fill="white" /><path d="M 673 192 L 815 192 L 815 334 L 673 334 L 673 192 Z" fill="white" /><path d="M 484 192 L 615 192 L 615 334 L 484 334 L 484 192 Z" fill="white" /><path d="M 484 512 L 484 364 L 615 364 L 615 512 L 484 512 Z" fill="white" /><path d="M 356 852 L 356 475 C 375 471 390 463 397 456 L 321 396 L 287 434 L 188 434 L 165 424 C 197 344 222 258 237 168 L 386 168 C 398 168 409 163 412 152 C 380 122 328 82 328 82 L 282 138 L 43 138 L 51 168 L 170 168 C 146 330 101 498 29 627 L 45 639 C 72 604 95 566 117 527 L 117 920 L 127 920 C 156 920 176 904 176 900 L 176 804 L 297 804 L 297 871 L 306 871 C 326 871 355 857 356 852 Z" fill="black" /><path d="M 297 774 L 176 774 L 176 464 L 297 464 L 297 774 Z" fill="white" /></svg>