<svg width="3000" height="1080" xmlns="http://www.w3.org/2000/svg" style="background:#fff"><path d="M 221 170 L 497 170 C 511 170 520 165 523 154 C 495 125 450 90 450 90 L 410 140 L 240 140 C 250 123 261 107 270 89 C 291 91 304 83 309 72 L 215 35 C 172 152 103 260 38 325 L 52 337 C 111 298 170 240 221 170 Z M 165 333 L 173 362 L 694 362 C 664 379 628 397 586 414 C 513 398 410 384 271 379 L 268 398 C 351 410 431 425 501 444 C 418 471 327 492 244 504 L 251 520 C 359 513 478 493 576 466 C 638 485 690 504 723 522 C 768 530 790 479 667 436 C 696 425 720 414 741 402 C 762 410 770 408 778 399 L 723 362 L 871 362 C 884 362 893 357 896 346 C 867 318 818 282 818 282 L 778 333 L 165 333 Z M 651 190 L 642 200 C 674 222 709 262 717 297 C 776 335 822 220 651 190 Z M 249 190 L 239 199 C 272 222 311 265 322 301 C 378 340 421 225 249 190 Z M 435 235 L 424 243 C 443 262 464 295 469 322 C 520 361 574 263 435 235 Z M 849 844 L 803 901 L 588 901 L 588 817 L 796 817 C 810 817 820 812 823 801 C 792 772 742 733 742 733 L 698 787 L 588 787 L 588 706 L 834 706 C 848 706 858 701 860 690 C 827 659 777 621 777 621 L 731 677 L 588 677 L 588 620 C 611 616 619 607 621 594 L 524 584 L 524 677 L 354 677 C 363 663 372 650 380 635 C 400 637 412 629 416 619 L 326 584 C 303 666 259 739 213 783 L 226 795 C 264 774 301 744 332 706 L 524 706 L 524 787 L 325 787 L 333 817 L 524 817 L 524 901 L 177 901 L 186 931 L 909 931 C 922 931 932 926 935 915 C 901 884 849 844 849 844 Z M 857 478 L 811 534 L 208 534 L 132 502 L 132 616 C 132 720 126 842 56 948 L 68 961 C 185 859 195 710 195 616 L 195 564 L 916 564 C 930 564 940 559 942 548 C 910 518 857 478 857 478 Z M 882 84 L 837 139 L 630 139 C 641 123 651 107 660 90 C 682 92 694 84 698 72 L 604 36 C 579 116 542 195 503 244 L 518 255 C 549 233 579 203 608 169 L 938 169 C 952 169 961 164 964 153 C 932 123 882 84 882 84 Z" fill="blue" /><path transform="translate(1000)" d="M 165 333 L 173 362 L 694 362 C 664 379 628 397 586 414 C 513 398 410 384 271 379 L 268 398 C 351 410 431 425 501 444 C 418 471 327 492 244 504 L 251 520 C 359 513 478 493 576 466 C 638 485 690 504 723 522 C 768 530 790 479 667 436 C 696 425 720 414 741 402 C 762 410 770 408 778 399 L 723 362 L 871 362 C 884 362 893 357 896 346 C 867 318 818 282 818 282 L 778 333 L 165 333 Z M 849 844 L 803 901 L 588 901 L 588 817 L 796 817 C 810 817 820 812 823 801 C 792 772 742 733 742 733 L 698 787 L 588 787 L 588 706 L 834 706 C 848 706 858 701 860 690 C 827 659 777 621 777 621 L 731 677 L 588 677 L 588 620 C 611 616 619 607 621 594 L 524 584 L 524 677 L 354 677 C 363 663 372 650 380 635 C 400 637 412 629 416 619 L 326 584 C 303 666 259 739 213 783 L 226 795 C 264 774 301 744 332 706 L 524 706 L 524 787 L 325 787 L 333 817 L 524 817 L 524 901 L 177 901 L 186 931 L 909 931 C 922 931 932 926 935 915 C 901 884 849 844 849 844 Z M 857 478 L 811 534 L 208 534 L 132 502 L 132 616 C 132 720 126 842 56 948 L 68 961 C 185 859 195 710 195 616 L 195 564 L 916 564 C 930 564 940 559 942 548 C 910 518 857 478 857 478 Z M 219 180 L 272 180 C 300 209 328 253 332 291 C 383 333 434 238 315 180 L 511 180 C 525 180 534 175 536 164 C 508 136 461 99 461 99 L 421 150 L 242 150 C 258 129 273 108 286 85 C 306 88 319 80 324 70 L 233 31 C 186 145 109 249 37 309 L 50 321 C 109 289 168 240 219 180 Z M 869 93 L 825 150 L 619 150 C 632 128 645 106 656 83 C 678 84 689 76 693 65 L 598 33 C 577 116 543 200 508 254 C 489 242 463 231 427 225 L 416 234 C 450 259 486 304 494 341 C 497 343 501 345 504 346 L 530 346 C 555 335 561 291 514 258 L 524 264 C 550 241 577 213 600 179 L 679 179 C 708 207 736 249 742 286 C 795 325 843 232 730 179 L 926 179 C 940 179 950 174 953 163 C 921 133 869 93 869 93 Z" fill="red" /><path transform="translate(2000)" d="M 221 170 L 497 170 C 511 170 520 165 523 154 C 495 125 450 90 450 90 L 410 140 L 240 140 C 250 123 261 107 270 89 C 291 91 304 83 309 72 L 215 35 C 172 152 103 260 38 325 L 52 337 C 111 298 170 240 221 170 Z M 165 333 L 173 362 L 694 362 C 664 379 628 397 586 414 C 513 398 410 384 271 379 L 268 398 C 351 410 431 425 501 444 C 418 471 327 492 244 504 L 251 520 C 359 513 478 493 576 466 C 638 485 690 504 723 522 C 768 530 790 479 667 436 C 696 425 720 414 741 402 C 762 410 770 408 778 399 L 723 362 L 871 362 C 884 362 893 357 896 346 C 867 318 818 282 818 282 L 778 333 L 165 333 Z M 651 190 L 642 200 C 674 222 709 262 717 297 C 776 335 822 220 651 190 Z M 249 190 L 239 199 C 272 222 311 265 322 301 C 378 340 421 225 249 190 Z M 435 235 L 424 243 C 443 262 464 295 469 322 C 520 361 574 263 435 235 Z M 849 844 L 803 901 L 588 901 L 588 817 L 796 817 C 810 817 820 812 823 801 C 792 772 742 733 742 733 L 698 787 L 588 787 L 588 706 L 834 706 C 848 706 858 701 860 690 C 827 659 777 621 777 621 L 731 677 L 588 677 L 588 620 C 611 616 619 607 621 594 L 524 584 L 524 677 L 354 677 C 363 663 372 650 380 635 C 400 637 412 629 416 619 L 326 584 C 303 666 259 739 213 783 L 226 795 C 264 774 301 744 332 706 L 524 706 L 524 787 L 325 787 L 333 817 L 524 817 L 524 901 L 177 901 L 186 931 L 909 931 C 922 931 932 926 935 915 C 901 884 849 844 849 844 Z M 857 478 L 811 534 L 208 534 L 132 502 L 132 616 C 132 720 126 842 56 948 L 68 961 C 185 859 195 710 195 616 L 195 564 L 916 564 C 930 564 940 559 942 548 C 910 518 857 478 857 478 Z M 882 84 L 837 139 L 630 139 C 641 123 651 107 660 90 C 682 92 694 84 698 72 L 604 36 C 579 116 542 195 503 244 L 518 255 C 549 233 579 203 608 169 L 938 169 C 952 169 961 164 964 153 C 932 123 882 84 882 84 Z" fill="blue" fill-opacity="0.5" /><path transform="translate(2000)" d="M 165 333 L 173 362 L 694 362 C 664 379 628 397 586 414 C 513 398 410 384 271 379 L 268 398 C 351 410 431 425 501 444 C 418 471 327 492 244 504 L 251 520 C 359 513 478 493 576 466 C 638 485 690 504 723 522 C 768 530 790 479 667 436 C 696 425 720 414 741 402 C 762 410 770 408 778 399 L 723 362 L 871 362 C 884 362 893 357 896 346 C 867 318 818 282 818 282 L 778 333 L 165 333 Z M 849 844 L 803 901 L 588 901 L 588 817 L 796 817 C 810 817 820 812 823 801 C 792 772 742 733 742 733 L 698 787 L 588 787 L 588 706 L 834 706 C 848 706 858 701 860 690 C 827 659 777 621 777 621 L 731 677 L 588 677 L 588 620 C 611 616 619 607 621 594 L 524 584 L 524 677 L 354 677 C 363 663 372 650 380 635 C 400 637 412 629 416 619 L 326 584 C 303 666 259 739 213 783 L 226 795 C 264 774 301 744 332 706 L 524 706 L 524 787 L 325 787 L 333 817 L 524 817 L 524 901 L 177 901 L 186 931 L 909 931 C 922 931 932 926 935 915 C 901 884 849 844 849 844 Z M 857 478 L 811 534 L 208 534 L 132 502 L 132 616 C 132 720 126 842 56 948 L 68 961 C 185 859 195 710 195 616 L 195 564 L 916 564 C 930 564 940 559 942 548 C 910 518 857 478 857 478 Z M 219 180 L 272 180 C 300 209 328 253 332 291 C 383 333 434 238 315 180 L 511 180 C 525 180 534 175 536 164 C 508 136 461 99 461 99 L 421 150 L 242 150 C 258 129 273 108 286 85 C 306 88 319 80 324 70 L 233 31 C 186 145 109 249 37 309 L 50 321 C 109 289 168 240 219 180 Z M 869 93 L 825 150 L 619 150 C 632 128 645 106 656 83 C 678 84 689 76 693 65 L 598 33 C 577 116 543 200 508 254 C 489 242 463 231 427 225 L 416 234 C 450 259 486 304 494 341 C 497 343 501 345 504 346 L 530 346 C 555 335 561 291 514 258 L 524 264 C 550 241 577 213 600 179 L 679 179 C 708 207 736 249 742 286 C 795 325 843 232 730 179 L 926 179 C 940 179 950 174 953 163 C 921 133 869 93 869 93 Z" fill="red" fill-opacity="0.5" /><text text-anchor="middle" x="500" y="1064" font-family="Arial" font-size="64">Source Han Serif TW</text><text text-anchor="middle" x="1500" y="1064" font-family="Arial" font-size="64">HKSerif (uni7C05HK-regular)</text></svg>