<svg width="3000" height="1080" xmlns="http://www.w3.org/2000/svg" style="background:#fff"><path d="M 48 181 L 56 210 L 482 210 C 496 210 506 205 508 194 C 479 166 431 127 431 127 L 389 181 L 302 181 L 302 81 C 327 78 337 68 339 54 L 240 43 L 240 181 L 48 181 Z M 124 233 L 111 239 C 133 285 158 356 156 413 C 211 468 277 345 124 233 Z M 458 385 L 414 441 L 325 441 C 363 388 401 321 426 270 C 448 269 459 259 461 248 L 360 228 C 346 291 322 378 301 441 L 31 441 L 39 470 L 512 470 C 526 470 535 465 538 454 C 508 425 458 385 458 385 Z M 373 822 L 169 822 L 169 606 L 373 606 L 373 822 Z M 477 598 L 397 537 L 363 577 L 174 577 L 106 546 L 106 939 L 117 939 C 142 939 169 925 169 919 L 169 851 L 373 851 L 373 906 L 381 906 C 402 906 433 891 434 885 L 434 618 C 455 614 471 606 477 598 Z M 953 887 L 969 749 L 957 747 C 949 775 939 808 928 841 C 923 852 920 853 914 844 C 876 772 868 532 876 368 C 896 365 911 359 917 352 L 839 286 L 801 327 L 635 327 C 639 264 643 205 646 155 L 936 155 C 949 155 958 150 961 139 C 929 108 875 68 875 68 L 829 126 L 494 126 L 502 155 L 585 155 C 581 339 549 683 524 854 C 495 859 470 863 453 865 L 491 950 C 501 947 510 940 514 927 C 643 883 739 845 807 818 L 804 803 C 727 818 650 832 587 844 C 604 710 621 522 633 356 L 811 356 C 810 571 815 807 875 908 C 897 944 936 971 961 951 C 974 941 969 921 953 887 Z M 664 461 L 650 466 C 681 522 712 611 710 678 C 764 737 827 597 664 461 Z" fill="blue" /><path transform="translate(1000)" d="M 48 181 L 56 210 L 482 210 C 496 210 506 205 508 194 C 479 166 431 127 431 127 L 389 181 L 302 181 L 302 81 C 327 78 337 68 339 54 L 240 43 L 240 181 L 48 181 Z M 124 233 L 111 239 C 133 285 158 356 156 413 C 211 468 277 345 124 233 Z M 458 385 L 414 441 L 325 441 C 363 388 401 321 426 270 C 448 269 459 259 461 248 L 360 228 C 346 291 322 378 301 441 L 31 441 L 39 470 L 512 470 C 526 470 535 465 538 454 C 508 425 458 385 458 385 Z M 373 822 L 169 822 L 169 606 L 373 606 L 373 822 Z M 477 598 L 397 537 L 363 577 L 174 577 L 106 546 L 106 939 L 117 939 C 142 939 169 925 169 919 L 169 851 L 373 851 L 373 906 L 381 906 C 402 906 433 891 434 885 L 434 618 C 455 614 471 606 477 598 Z M 658 445 L 645 450 C 675 506 706 595 703 663 C 757 720 821 583 658 445 Z M 949 872 L 946 774 L 933 774 C 926 812 916 859 910 869 C 907 875 904 876 899 876 C 894 877 886 877 876 877 L 876 877 C 864 877 862 872 862 859 L 862 350 C 884 347 895 341 901 335 L 826 268 L 789 309 L 634 309 C 637 253 640 201 642 155 L 932 155 C 946 155 954 150 957 139 C 925 108 872 68 872 68 L 825 126 L 488 126 L 496 155 L 581 155 C 578 337 552 675 527 848 C 494 855 467 860 447 863 L 487 948 C 497 945 505 936 508 924 C 643 877 743 835 819 805 L 819 784 C 738 803 658 821 591 835 C 607 697 622 505 632 339 L 799 339 L 799 878 C 799 918 807 938 858 938 L 874 938 C 950 938 973 925 973 899 C 973 886 967 879 949 872 Z" fill="red" /><path transform="translate(2000)" d="M 48 181 L 56 210 L 482 210 C 496 210 506 205 508 194 C 479 166 431 127 431 127 L 389 181 L 302 181 L 302 81 C 327 78 337 68 339 54 L 240 43 L 240 181 L 48 181 Z M 124 233 L 111 239 C 133 285 158 356 156 413 C 211 468 277 345 124 233 Z M 458 385 L 414 441 L 325 441 C 363 388 401 321 426 270 C 448 269 459 259 461 248 L 360 228 C 346 291 322 378 301 441 L 31 441 L 39 470 L 512 470 C 526 470 535 465 538 454 C 508 425 458 385 458 385 Z M 373 822 L 169 822 L 169 606 L 373 606 L 373 822 Z M 477 598 L 397 537 L 363 577 L 174 577 L 106 546 L 106 939 L 117 939 C 142 939 169 925 169 919 L 169 851 L 373 851 L 373 906 L 381 906 C 402 906 433 891 434 885 L 434 618 C 455 614 471 606 477 598 Z M 953 887 L 969 749 L 957 747 C 949 775 939 808 928 841 C 923 852 920 853 914 844 C 876 772 868 532 876 368 C 896 365 911 359 917 352 L 839 286 L 801 327 L 635 327 C 639 264 643 205 646 155 L 936 155 C 949 155 958 150 961 139 C 929 108 875 68 875 68 L 829 126 L 494 126 L 502 155 L 585 155 C 581 339 549 683 524 854 C 495 859 470 863 453 865 L 491 950 C 501 947 510 940 514 927 C 643 883 739 845 807 818 L 804 803 C 727 818 650 832 587 844 C 604 710 621 522 633 356 L 811 356 C 810 571 815 807 875 908 C 897 944 936 971 961 951 C 974 941 969 921 953 887 Z M 664 461 L 650 466 C 681 522 712 611 710 678 C 764 737 827 597 664 461 Z" fill="blue" fill-opacity="0.5" /><path transform="translate(2000)" d="M 48 181 L 56 210 L 482 210 C 496 210 506 205 508 194 C 479 166 431 127 431 127 L 389 181 L 302 181 L 302 81 C 327 78 337 68 339 54 L 240 43 L 240 181 L 48 181 Z M 124 233 L 111 239 C 133 285 158 356 156 413 C 211 468 277 345 124 233 Z M 458 385 L 414 441 L 325 441 C 363 388 401 321 426 270 C 448 269 459 259 461 248 L 360 228 C 346 291 322 378 301 441 L 31 441 L 39 470 L 512 470 C 526 470 535 465 538 454 C 508 425 458 385 458 385 Z M 373 822 L 169 822 L 169 606 L 373 606 L 373 822 Z M 477 598 L 397 537 L 363 577 L 174 577 L 106 546 L 106 939 L 117 939 C 142 939 169 925 169 919 L 169 851 L 373 851 L 373 906 L 381 906 C 402 906 433 891 434 885 L 434 618 C 455 614 471 606 477 598 Z M 658 445 L 645 450 C 675 506 706 595 703 663 C 757 720 821 583 658 445 Z M 949 872 L 946 774 L 933 774 C 926 812 916 859 910 869 C 907 875 904 876 899 876 C 894 877 886 877 876 877 L 876 877 C 864 877 862 872 862 859 L 862 350 C 884 347 895 341 901 335 L 826 268 L 789 309 L 634 309 C 637 253 640 201 642 155 L 932 155 C 946 155 954 150 957 139 C 925 108 872 68 872 68 L 825 126 L 488 126 L 496 155 L 581 155 C 578 337 552 675 527 848 C 494 855 467 860 447 863 L 487 948 C 497 945 505 936 508 924 C 643 877 743 835 819 805 L 819 784 C 738 803 658 821 591 835 C 607 697 622 505 632 339 L 799 339 L 799 878 C 799 918 807 938 858 938 L 874 938 C 950 938 973 925 973 899 C 973 886 967 879 949 872 Z" fill="red" fill-opacity="0.5" /><text text-anchor="middle" x="500" y="1064" font-family="Arial" font-size="64">Source Han Serif KR</text><text text-anchor="middle" x="1500" y="1064" font-family="Arial" font-size="64">HKSerif (uni74FFKX-regular)</text></svg>