<svg width="3000" height="1080" xmlns="http://www.w3.org/2000/svg" style="background:#fff"><path d="M 329 163 L 329 265 L 341 265 C 364 265 391 252 391 245 L 391 79 C 417 75 426 66 429 51 L 329 41 L 329 134 L 39 134 L 47 163 L 329 163 Z M 188 894 L 207 901 C 232 860 255 801 269 749 C 288 748 298 738 301 727 L 228 711 C 220 774 206 846 188 894 Z M 349 655 L 393 642 C 397 656 399 669 399 681 C 441 722 493 629 368 543 L 356 548 C 366 567 379 594 388 621 C 337 625 286 629 249 631 C 308 584 370 521 407 473 C 427 478 440 471 445 463 L 375 416 C 363 438 345 467 323 497 C 293 499 264 500 240 501 C 276 466 313 421 338 385 C 359 388 371 379 375 371 L 301 334 C 284 375 242 459 204 492 C 200 495 186 498 186 498 L 215 568 C 222 565 229 559 236 549 C 257 543 278 537 298 530 C 270 567 238 603 208 624 C 202 628 187 631 187 631 L 214 699 C 220 697 227 692 232 685 C 256 679 279 673 302 667 L 302 921 L 310 921 C 333 921 349 909 349 905 L 349 655 Z M 377 709 L 364 715 C 383 752 407 811 407 855 C 445 894 489 807 377 709 Z M 601 644 L 601 489 L 649 489 L 649 644 L 601 644 Z M 688 489 L 737 489 L 737 644 L 688 644 L 688 489 Z M 730 714 L 716 720 C 725 738 735 761 743 785 L 691 795 L 691 674 L 737 674 L 737 697 L 743 697 C 757 697 777 686 778 680 L 778 490 C 790 488 802 481 806 476 L 755 436 L 731 460 L 692 460 L 692 370 C 710 367 718 359 720 348 L 647 339 L 647 460 L 606 460 L 561 437 L 561 708 L 568 708 C 584 708 601 699 601 695 L 601 674 L 647 674 L 647 802 C 601 810 562 816 539 819 L 573 883 C 583 880 590 874 594 861 C 659 839 711 820 749 805 C 752 819 755 834 755 847 C 791 884 837 803 730 714 Z M 842 245 L 808 284 L 180 284 L 113 252 L 113 957 L 124 957 C 150 957 173 942 173 934 L 173 313 L 462 313 L 462 936 L 471 936 C 500 936 519 921 519 916 L 519 313 L 819 313 L 819 861 C 819 876 814 883 795 883 C 775 883 678 876 678 876 L 677 891 C 720 897 744 905 759 915 C 772 924 778 939 781 958 C 868 948 879 918 879 868 L 879 326 C 899 323 916 313 922 306 L 842 245 Z M 888 75 L 844 134 L 659 134 L 659 80 C 684 76 694 66 697 52 L 597 42 L 597 264 L 608 264 C 632 264 659 252 659 245 L 659 163 L 943 163 C 957 163 967 158 969 147 C 938 117 888 75 888 75 Z" fill="blue" /><path transform="translate(1000)" d="M 188 894 L 207 901 C 232 860 255 801 269 749 C 288 748 298 738 301 727 L 228 711 C 220 774 206 846 188 894 Z M 349 655 L 393 642 C 397 656 399 669 399 681 C 441 722 493 629 368 543 L 356 548 C 366 567 379 594 388 621 C 337 625 286 629 249 631 C 308 584 370 521 407 473 C 427 478 440 471 445 463 L 375 416 C 363 438 345 467 323 497 C 293 499 264 500 240 501 C 276 466 313 421 338 385 C 359 388 371 379 375 371 L 301 334 C 284 375 242 459 204 492 C 200 495 186 498 186 498 L 215 568 C 222 565 229 559 236 549 C 257 543 278 537 298 530 C 270 567 238 603 208 624 C 202 628 187 631 187 631 L 214 699 C 220 697 227 692 232 685 C 256 679 279 673 302 667 L 302 858 C 302 866 299 870 289 870 C 275 870 219 865 219 865 L 219 877 C 246 880 262 885 270 892 C 277 898 280 908 281 919 C 340 914 349 894 349 858 L 349 655 Z M 377 709 L 364 715 C 383 752 407 811 407 855 C 445 894 489 807 377 709 Z M 601 644 L 601 489 L 647 489 L 647 644 L 601 644 Z M 692 489 L 737 489 L 737 644 L 692 644 L 692 489 Z M 730 714 L 716 720 C 725 738 735 761 743 785 L 691 795 L 691 674 L 737 674 L 737 697 L 743 697 C 757 697 777 686 778 680 L 778 490 C 790 488 802 481 806 476 L 755 436 L 731 460 L 692 460 L 692 370 C 710 367 718 359 720 348 L 647 339 L 647 460 L 606 460 L 561 437 L 561 708 L 568 708 C 584 708 601 699 601 695 L 601 674 L 647 674 L 647 802 C 601 810 562 816 539 819 L 573 883 C 583 880 590 874 594 861 C 659 839 711 820 749 805 C 752 819 755 834 755 847 C 791 884 837 803 730 714 Z M 842 245 L 808 284 L 180 284 L 113 252 L 113 957 L 124 957 C 150 957 173 942 173 934 L 173 313 L 462 313 L 462 936 L 471 936 C 500 936 519 921 519 916 L 519 313 L 819 313 L 819 861 C 819 876 814 883 795 883 C 775 883 678 876 678 876 L 677 891 C 720 897 744 905 759 915 C 772 924 778 939 781 958 C 868 948 879 918 879 868 L 879 326 C 899 323 916 313 922 306 L 842 245 Z M 872 92 L 827 149 L 639 149 L 639 83 C 664 80 673 70 675 56 L 578 45 L 578 259 L 588 259 C 618 258 639 247 639 241 L 639 179 L 931 179 C 944 179 954 174 956 163 C 926 133 872 92 872 92 Z M 406 245 L 406 83 C 431 79 440 70 442 56 L 345 45 L 345 149 L 52 149 L 58 179 L 345 179 L 345 262 L 355 262 C 379 262 406 253 406 245 Z" fill="red" /><path transform="translate(2000)" d="M 329 163 L 329 265 L 341 265 C 364 265 391 252 391 245 L 391 79 C 417 75 426 66 429 51 L 329 41 L 329 134 L 39 134 L 47 163 L 329 163 Z M 188 894 L 207 901 C 232 860 255 801 269 749 C 288 748 298 738 301 727 L 228 711 C 220 774 206 846 188 894 Z M 349 655 L 393 642 C 397 656 399 669 399 681 C 441 722 493 629 368 543 L 356 548 C 366 567 379 594 388 621 C 337 625 286 629 249 631 C 308 584 370 521 407 473 C 427 478 440 471 445 463 L 375 416 C 363 438 345 467 323 497 C 293 499 264 500 240 501 C 276 466 313 421 338 385 C 359 388 371 379 375 371 L 301 334 C 284 375 242 459 204 492 C 200 495 186 498 186 498 L 215 568 C 222 565 229 559 236 549 C 257 543 278 537 298 530 C 270 567 238 603 208 624 C 202 628 187 631 187 631 L 214 699 C 220 697 227 692 232 685 C 256 679 279 673 302 667 L 302 921 L 310 921 C 333 921 349 909 349 905 L 349 655 Z M 377 709 L 364 715 C 383 752 407 811 407 855 C 445 894 489 807 377 709 Z M 601 644 L 601 489 L 649 489 L 649 644 L 601 644 Z M 688 489 L 737 489 L 737 644 L 688 644 L 688 489 Z M 730 714 L 716 720 C 725 738 735 761 743 785 L 691 795 L 691 674 L 737 674 L 737 697 L 743 697 C 757 697 777 686 778 680 L 778 490 C 790 488 802 481 806 476 L 755 436 L 731 460 L 692 460 L 692 370 C 710 367 718 359 720 348 L 647 339 L 647 460 L 606 460 L 561 437 L 561 708 L 568 708 C 584 708 601 699 601 695 L 601 674 L 647 674 L 647 802 C 601 810 562 816 539 819 L 573 883 C 583 880 590 874 594 861 C 659 839 711 820 749 805 C 752 819 755 834 755 847 C 791 884 837 803 730 714 Z M 842 245 L 808 284 L 180 284 L 113 252 L 113 957 L 124 957 C 150 957 173 942 173 934 L 173 313 L 462 313 L 462 936 L 471 936 C 500 936 519 921 519 916 L 519 313 L 819 313 L 819 861 C 819 876 814 883 795 883 C 775 883 678 876 678 876 L 677 891 C 720 897 744 905 759 915 C 772 924 778 939 781 958 C 868 948 879 918 879 868 L 879 326 C 899 323 916 313 922 306 L 842 245 Z M 888 75 L 844 134 L 659 134 L 659 80 C 684 76 694 66 697 52 L 597 42 L 597 264 L 608 264 C 632 264 659 252 659 245 L 659 163 L 943 163 C 957 163 967 158 969 147 C 938 117 888 75 888 75 Z" fill="blue" fill-opacity="0.5" /><path transform="translate(2000)" d="M 188 894 L 207 901 C 232 860 255 801 269 749 C 288 748 298 738 301 727 L 228 711 C 220 774 206 846 188 894 Z M 349 655 L 393 642 C 397 656 399 669 399 681 C 441 722 493 629 368 543 L 356 548 C 366 567 379 594 388 621 C 337 625 286 629 249 631 C 308 584 370 521 407 473 C 427 478 440 471 445 463 L 375 416 C 363 438 345 467 323 497 C 293 499 264 500 240 501 C 276 466 313 421 338 385 C 359 388 371 379 375 371 L 301 334 C 284 375 242 459 204 492 C 200 495 186 498 186 498 L 215 568 C 222 565 229 559 236 549 C 257 543 278 537 298 530 C 270 567 238 603 208 624 C 202 628 187 631 187 631 L 214 699 C 220 697 227 692 232 685 C 256 679 279 673 302 667 L 302 858 C 302 866 299 870 289 870 C 275 870 219 865 219 865 L 219 877 C 246 880 262 885 270 892 C 277 898 280 908 281 919 C 340 914 349 894 349 858 L 349 655 Z M 377 709 L 364 715 C 383 752 407 811 407 855 C 445 894 489 807 377 709 Z M 601 644 L 601 489 L 647 489 L 647 644 L 601 644 Z M 692 489 L 737 489 L 737 644 L 692 644 L 692 489 Z M 730 714 L 716 720 C 725 738 735 761 743 785 L 691 795 L 691 674 L 737 674 L 737 697 L 743 697 C 757 697 777 686 778 680 L 778 490 C 790 488 802 481 806 476 L 755 436 L 731 460 L 692 460 L 692 370 C 710 367 718 359 720 348 L 647 339 L 647 460 L 606 460 L 561 437 L 561 708 L 568 708 C 584 708 601 699 601 695 L 601 674 L 647 674 L 647 802 C 601 810 562 816 539 819 L 573 883 C 583 880 590 874 594 861 C 659 839 711 820 749 805 C 752 819 755 834 755 847 C 791 884 837 803 730 714 Z M 842 245 L 808 284 L 180 284 L 113 252 L 113 957 L 124 957 C 150 957 173 942 173 934 L 173 313 L 462 313 L 462 936 L 471 936 C 500 936 519 921 519 916 L 519 313 L 819 313 L 819 861 C 819 876 814 883 795 883 C 775 883 678 876 678 876 L 677 891 C 720 897 744 905 759 915 C 772 924 778 939 781 958 C 868 948 879 918 879 868 L 879 326 C 899 323 916 313 922 306 L 842 245 Z M 872 92 L 827 149 L 639 149 L 639 83 C 664 80 673 70 675 56 L 578 45 L 578 259 L 588 259 C 618 258 639 247 639 241 L 639 179 L 931 179 C 944 179 954 174 956 163 C 926 133 872 92 872 92 Z M 406 245 L 406 83 C 431 79 440 70 442 56 L 345 45 L 345 149 L 52 149 L 58 179 L 345 179 L 345 262 L 355 262 C 379 262 406 253 406 245 Z" fill="red" fill-opacity="0.5" /><text text-anchor="middle" x="500" y="1064" font-family="Arial" font-size="64">Source Han Serif TW</text><text text-anchor="middle" x="1500" y="1064" font-family="Arial" font-size="64">HKSerif (uni7E6DHK-regular-v2)</text></svg>