<svg width="3000" height="1080" xmlns="http://www.w3.org/2000/svg" style="background:#fff"><path d="M 421 564 L 529 564 C 542 564 551 559 554 548 C 527 519 480 481 480 481 L 440 534 L 421 534 L 421 266 L 518 266 C 532 266 541 261 543 251 C 517 223 473 187 473 187 L 436 237 L 377 237 C 414 189 453 128 478 83 C 500 82 511 73 515 60 L 406 41 C 394 98 372 179 353 237 L 305 237 C 281 213 250 188 250 188 L 213 237 L 187 237 C 217 187 248 126 267 82 C 289 80 299 70 302 57 L 195 41 C 188 98 176 179 164 237 L 54 237 L 62 266 L 154 266 L 154 497 L 154 502 C 101 520 57 534 31 541 L 73 615 C 82 611 89 602 92 590 C 114 578 134 567 153 557 C 150 690 133 830 50 945 L 65 956 C 198 839 215 667 216 521 C 256 498 290 478 318 462 L 312 447 C 280 459 247 470 216 481 L 216 266 L 358 266 L 358 534 L 256 534 L 264 564 L 358 564 L 358 957 L 368 957 C 400 957 421 941 421 937 L 421 564 Z M 947 887 L 962 745 L 950 743 C 942 772 932 805 920 838 C 916 850 913 851 906 841 C 869 768 860 520 869 353 C 889 351 903 344 910 338 L 831 270 L 792 312 L 645 312 C 648 255 651 201 653 155 L 936 155 C 949 155 958 150 961 139 C 929 108 875 68 875 68 L 829 126 L 494 126 L 502 155 L 593 155 C 589 337 561 675 537 847 C 501 857 471 864 450 868 L 492 950 C 502 947 510 938 513 925 C 639 870 733 824 799 791 L 794 777 C 727 796 660 815 601 831 C 617 695 632 506 643 341 L 801 341 C 800 562 806 803 867 907 C 888 943 927 971 953 951 C 967 941 962 921 947 887 Z M 664 455 L 650 461 C 681 517 712 605 710 673 C 765 731 827 591 664 455 Z" fill="blue" /><path transform="translate(1000)" d="M 421 564 L 529 564 C 542 564 551 559 554 548 C 527 519 480 481 480 481 L 440 534 L 421 534 L 421 266 L 518 266 C 532 266 541 261 543 251 C 517 223 473 187 473 187 L 436 237 L 377 237 C 414 189 453 128 478 83 C 500 82 511 73 515 60 L 406 41 C 394 98 372 179 353 237 L 305 237 C 281 213 250 188 250 188 L 213 237 L 187 237 C 217 187 248 126 267 82 C 289 80 299 70 302 57 L 195 41 C 188 98 176 179 164 237 L 54 237 L 62 266 L 154 266 L 154 497 L 154 502 C 101 520 57 534 31 541 L 73 615 C 82 611 89 602 92 590 C 114 578 134 567 153 557 C 150 690 133 830 50 945 L 65 956 C 198 839 215 667 216 521 C 256 498 290 478 318 462 L 312 447 C 280 459 247 470 216 481 L 216 266 L 358 266 L 358 534 L 256 534 L 264 564 L 358 564 L 358 957 L 368 957 C 400 957 421 941 421 937 L 421 564 Z M 664 445 L 651 450 C 681 506 712 595 709 663 C 763 720 827 583 664 445 Z M 949 872 L 946 774 L 933 774 C 926 812 916 859 910 869 C 907 875 904 876 899 876 C 894 877 886 877 876 877 L 876 877 C 864 877 862 872 862 859 L 862 350 C 884 347 895 341 901 335 L 826 268 L 789 309 L 642 309 C 645 253 648 201 650 155 L 932 155 C 946 155 954 150 957 139 C 925 108 872 68 872 68 L 825 126 L 488 126 L 496 155 L 589 155 C 586 337 560 675 535 848 C 502 855 475 860 455 863 L 495 948 C 505 945 513 936 516 924 C 651 877 751 835 827 805 L 827 784 C 746 803 666 821 599 835 C 615 697 630 505 640 339 L 799 339 L 799 878 C 799 918 807 938 858 938 L 874 938 C 950 938 973 925 973 899 C 973 886 967 879 949 872 Z" fill="red" /><path transform="translate(2000)" d="M 421 564 L 529 564 C 542 564 551 559 554 548 C 527 519 480 481 480 481 L 440 534 L 421 534 L 421 266 L 518 266 C 532 266 541 261 543 251 C 517 223 473 187 473 187 L 436 237 L 377 237 C 414 189 453 128 478 83 C 500 82 511 73 515 60 L 406 41 C 394 98 372 179 353 237 L 305 237 C 281 213 250 188 250 188 L 213 237 L 187 237 C 217 187 248 126 267 82 C 289 80 299 70 302 57 L 195 41 C 188 98 176 179 164 237 L 54 237 L 62 266 L 154 266 L 154 497 L 154 502 C 101 520 57 534 31 541 L 73 615 C 82 611 89 602 92 590 C 114 578 134 567 153 557 C 150 690 133 830 50 945 L 65 956 C 198 839 215 667 216 521 C 256 498 290 478 318 462 L 312 447 C 280 459 247 470 216 481 L 216 266 L 358 266 L 358 534 L 256 534 L 264 564 L 358 564 L 358 957 L 368 957 C 400 957 421 941 421 937 L 421 564 Z M 947 887 L 962 745 L 950 743 C 942 772 932 805 920 838 C 916 850 913 851 906 841 C 869 768 860 520 869 353 C 889 351 903 344 910 338 L 831 270 L 792 312 L 645 312 C 648 255 651 201 653 155 L 936 155 C 949 155 958 150 961 139 C 929 108 875 68 875 68 L 829 126 L 494 126 L 502 155 L 593 155 C 589 337 561 675 537 847 C 501 857 471 864 450 868 L 492 950 C 502 947 510 938 513 925 C 639 870 733 824 799 791 L 794 777 C 727 796 660 815 601 831 C 617 695 632 506 643 341 L 801 341 C 800 562 806 803 867 907 C 888 943 927 971 953 951 C 967 941 962 921 947 887 Z M 664 455 L 650 461 C 681 517 712 605 710 673 C 765 731 827 591 664 455 Z" fill="blue" fill-opacity="0.5" /><path transform="translate(2000)" d="M 421 564 L 529 564 C 542 564 551 559 554 548 C 527 519 480 481 480 481 L 440 534 L 421 534 L 421 266 L 518 266 C 532 266 541 261 543 251 C 517 223 473 187 473 187 L 436 237 L 377 237 C 414 189 453 128 478 83 C 500 82 511 73 515 60 L 406 41 C 394 98 372 179 353 237 L 305 237 C 281 213 250 188 250 188 L 213 237 L 187 237 C 217 187 248 126 267 82 C 289 80 299 70 302 57 L 195 41 C 188 98 176 179 164 237 L 54 237 L 62 266 L 154 266 L 154 497 L 154 502 C 101 520 57 534 31 541 L 73 615 C 82 611 89 602 92 590 C 114 578 134 567 153 557 C 150 690 133 830 50 945 L 65 956 C 198 839 215 667 216 521 C 256 498 290 478 318 462 L 312 447 C 280 459 247 470 216 481 L 216 266 L 358 266 L 358 534 L 256 534 L 264 564 L 358 564 L 358 957 L 368 957 C 400 957 421 941 421 937 L 421 564 Z M 664 445 L 651 450 C 681 506 712 595 709 663 C 763 720 827 583 664 445 Z M 949 872 L 946 774 L 933 774 C 926 812 916 859 910 869 C 907 875 904 876 899 876 C 894 877 886 877 876 877 L 876 877 C 864 877 862 872 862 859 L 862 350 C 884 347 895 341 901 335 L 826 268 L 789 309 L 642 309 C 645 253 648 201 650 155 L 932 155 C 946 155 954 150 957 139 C 925 108 872 68 872 68 L 825 126 L 488 126 L 496 155 L 589 155 C 586 337 560 675 535 848 C 502 855 475 860 455 863 L 495 948 C 505 945 513 936 516 924 C 651 877 751 835 827 805 L 827 784 C 746 803 666 821 599 835 C 615 697 630 505 640 339 L 799 339 L 799 878 C 799 918 807 938 858 938 L 874 938 C 950 938 973 925 973 899 C 973 886 967 879 949 872 Z" fill="red" fill-opacity="0.5" /><text text-anchor="middle" x="500" y="1064" font-family="Arial" font-size="64">Source Han Serif KR</text><text text-anchor="middle" x="1500" y="1064" font-family="Arial" font-size="64">HKSerif (uni7501KX-regular)</text></svg>