<svg width="3000" height="1080" xmlns="http://www.w3.org/2000/svg" style="background:#fff"><path d="M 486 264 L 496 277 C 609 231 720 147 776 80 C 803 80 815 77 820 66 L 724 31 C 683 104 583 206 486 264 Z M 254 231 L 259 220 L 477 220 C 492 220 500 215 503 204 C 470 174 417 135 417 135 L 370 190 L 272 190 C 284 160 295 126 304 89 C 326 89 336 80 340 68 L 237 43 C 230 96 218 146 202 190 L 42 190 L 50 220 L 191 220 C 154 315 97 388 27 441 L 40 454 C 127 410 197 343 247 247 C 314 286 398 354 429 408 C 501 440 517 295 254 231 Z M 343 350 L 307 396 L 140 396 L 148 426 L 387 426 C 401 426 410 421 412 410 C 385 384 343 350 343 350 Z M 456 685 L 384 626 L 347 662 L 183 662 C 198 629 215 587 228 556 L 452 556 C 466 556 475 551 478 540 C 446 510 398 473 398 473 L 353 526 L 59 526 L 67 556 L 161 556 C 152 581 137 618 124 647 C 107 651 88 658 77 666 L 146 723 L 178 692 L 354 692 C 341 786 320 855 296 872 C 287 878 277 880 260 880 C 239 880 164 874 122 871 L 122 888 C 160 893 199 903 214 913 C 228 922 233 939 233 956 C 271 956 307 947 332 929 C 374 900 404 815 416 699 C 437 697 449 692 456 685 Z M 661 707 L 573 664 C 547 733 491 835 430 900 L 443 912 C 518 859 586 778 624 717 C 647 721 656 717 661 707 Z M 764 584 L 872 559 C 889 587 901 616 906 640 C 967 689 1016 548 807 451 L 796 459 C 817 480 842 510 862 542 C 753 553 649 564 578 570 C 695 500 823 398 893 328 C 914 333 928 326 933 317 L 851 265 C 827 298 789 342 744 386 C 688 389 633 392 589 393 C 667 344 750 274 799 223 C 819 228 832 220 837 211 L 752 165 C 713 226 615 341 538 387 C 531 390 513 394 513 394 L 555 474 C 563 471 570 463 575 451 C 623 441 671 429 711 419 C 653 474 587 528 532 559 C 524 564 504 567 504 567 L 545 647 C 553 643 560 636 566 625 C 613 616 660 607 702 598 L 702 867 C 702 880 697 885 680 885 C 660 885 565 879 565 879 L 565 894 C 608 899 633 906 647 916 C 659 926 663 941 665 958 C 751 950 764 918 764 868 L 764 584 Z M 812 678 L 800 684 C 844 735 896 818 905 882 C 970 935 1023 788 812 678 Z" fill="blue" /><path transform="translate(1000)" d="M 242 208 L 313 208 C 344 303 402 386 472 441 C 481 410 499 392 524 389 L 525 378 C 454 345 379 281 338 208 L 483 208 C 497 208 507 203 510 192 C 478 162 429 122 429 122 L 384 178 L 255 178 C 268 146 278 115 287 85 C 313 84 319 79 323 67 L 223 43 C 216 86 205 132 190 178 L 47 178 L 55 208 L 179 208 C 145 301 93 393 23 460 L 33 472 C 131 406 198 306 242 208 Z M 330 347 L 293 395 L 134 395 L 142 424 L 375 424 C 389 424 398 419 400 408 C 375 381 330 347 330 347 Z M 456 685 L 384 626 L 347 662 L 183 662 C 198 629 215 587 228 556 L 452 556 C 466 556 475 551 478 540 C 446 510 397 473 397 473 L 353 526 L 59 526 L 66 556 L 160 556 C 151 581 137 618 124 647 C 107 651 88 658 76 666 L 146 723 L 178 692 L 354 692 C 341 785 319 855 296 872 C 287 878 277 880 259 880 C 237 880 160 874 117 870 L 117 887 C 155 893 197 903 212 913 C 226 922 231 939 231 956 C 271 956 307 947 331 929 C 374 900 403 814 416 699 C 437 697 449 692 456 685 Z M 650 664 L 560 624 C 537 704 486 822 427 901 L 440 913 C 515 846 578 746 613 676 C 637 679 645 675 650 664 Z M 792 408 L 781 415 C 805 443 831 479 852 519 C 742 526 639 532 569 535 C 684 464 810 358 878 286 C 899 290 913 284 919 275 L 835 223 C 814 253 784 291 747 331 C 680 335 615 338 566 340 C 631 299 701 242 742 199 C 764 203 776 195 781 187 L 713 150 C 776 139 835 127 881 116 C 904 125 922 125 931 117 L 858 48 C 778 86 625 133 498 156 L 503 174 C 563 170 627 163 688 154 C 652 207 579 294 520 330 C 514 334 496 337 496 337 L 539 416 C 545 413 551 406 556 398 C 615 386 673 372 719 361 C 658 424 587 487 527 524 C 518 529 499 532 499 532 L 540 610 C 547 608 554 602 559 591 C 602 585 644 578 684 571 L 684 865 C 684 878 680 883 662 883 C 642 883 548 877 548 877 L 548 892 C 591 897 615 905 629 914 C 641 924 646 940 647 957 C 734 948 746 916 746 867 L 746 561 C 789 553 829 546 861 540 C 873 566 881 591 884 614 C 948 668 1005 517 792 408 Z M 799 638 L 787 646 C 839 706 902 804 913 879 C 980 935 1034 774 799 638 Z" fill="red" /><path transform="translate(2000)" d="M 486 264 L 496 277 C 609 231 720 147 776 80 C 803 80 815 77 820 66 L 724 31 C 683 104 583 206 486 264 Z M 254 231 L 259 220 L 477 220 C 492 220 500 215 503 204 C 470 174 417 135 417 135 L 370 190 L 272 190 C 284 160 295 126 304 89 C 326 89 336 80 340 68 L 237 43 C 230 96 218 146 202 190 L 42 190 L 50 220 L 191 220 C 154 315 97 388 27 441 L 40 454 C 127 410 197 343 247 247 C 314 286 398 354 429 408 C 501 440 517 295 254 231 Z M 343 350 L 307 396 L 140 396 L 148 426 L 387 426 C 401 426 410 421 412 410 C 385 384 343 350 343 350 Z M 456 685 L 384 626 L 347 662 L 183 662 C 198 629 215 587 228 556 L 452 556 C 466 556 475 551 478 540 C 446 510 398 473 398 473 L 353 526 L 59 526 L 67 556 L 161 556 C 152 581 137 618 124 647 C 107 651 88 658 77 666 L 146 723 L 178 692 L 354 692 C 341 786 320 855 296 872 C 287 878 277 880 260 880 C 239 880 164 874 122 871 L 122 888 C 160 893 199 903 214 913 C 228 922 233 939 233 956 C 271 956 307 947 332 929 C 374 900 404 815 416 699 C 437 697 449 692 456 685 Z M 661 707 L 573 664 C 547 733 491 835 430 900 L 443 912 C 518 859 586 778 624 717 C 647 721 656 717 661 707 Z M 764 584 L 872 559 C 889 587 901 616 906 640 C 967 689 1016 548 807 451 L 796 459 C 817 480 842 510 862 542 C 753 553 649 564 578 570 C 695 500 823 398 893 328 C 914 333 928 326 933 317 L 851 265 C 827 298 789 342 744 386 C 688 389 633 392 589 393 C 667 344 750 274 799 223 C 819 228 832 220 837 211 L 752 165 C 713 226 615 341 538 387 C 531 390 513 394 513 394 L 555 474 C 563 471 570 463 575 451 C 623 441 671 429 711 419 C 653 474 587 528 532 559 C 524 564 504 567 504 567 L 545 647 C 553 643 560 636 566 625 C 613 616 660 607 702 598 L 702 867 C 702 880 697 885 680 885 C 660 885 565 879 565 879 L 565 894 C 608 899 633 906 647 916 C 659 926 663 941 665 958 C 751 950 764 918 764 868 L 764 584 Z M 812 678 L 800 684 C 844 735 896 818 905 882 C 970 935 1023 788 812 678 Z" fill="blue" fill-opacity="0.5" /><path transform="translate(2000)" d="M 242 208 L 313 208 C 344 303 402 386 472 441 C 481 410 499 392 524 389 L 525 378 C 454 345 379 281 338 208 L 483 208 C 497 208 507 203 510 192 C 478 162 429 122 429 122 L 384 178 L 255 178 C 268 146 278 115 287 85 C 313 84 319 79 323 67 L 223 43 C 216 86 205 132 190 178 L 47 178 L 55 208 L 179 208 C 145 301 93 393 23 460 L 33 472 C 131 406 198 306 242 208 Z M 330 347 L 293 395 L 134 395 L 142 424 L 375 424 C 389 424 398 419 400 408 C 375 381 330 347 330 347 Z M 456 685 L 384 626 L 347 662 L 183 662 C 198 629 215 587 228 556 L 452 556 C 466 556 475 551 478 540 C 446 510 397 473 397 473 L 353 526 L 59 526 L 66 556 L 160 556 C 151 581 137 618 124 647 C 107 651 88 658 76 666 L 146 723 L 178 692 L 354 692 C 341 785 319 855 296 872 C 287 878 277 880 259 880 C 237 880 160 874 117 870 L 117 887 C 155 893 197 903 212 913 C 226 922 231 939 231 956 C 271 956 307 947 331 929 C 374 900 403 814 416 699 C 437 697 449 692 456 685 Z M 650 664 L 560 624 C 537 704 486 822 427 901 L 440 913 C 515 846 578 746 613 676 C 637 679 645 675 650 664 Z M 792 408 L 781 415 C 805 443 831 479 852 519 C 742 526 639 532 569 535 C 684 464 810 358 878 286 C 899 290 913 284 919 275 L 835 223 C 814 253 784 291 747 331 C 680 335 615 338 566 340 C 631 299 701 242 742 199 C 764 203 776 195 781 187 L 713 150 C 776 139 835 127 881 116 C 904 125 922 125 931 117 L 858 48 C 778 86 625 133 498 156 L 503 174 C 563 170 627 163 688 154 C 652 207 579 294 520 330 C 514 334 496 337 496 337 L 539 416 C 545 413 551 406 556 398 C 615 386 673 372 719 361 C 658 424 587 487 527 524 C 518 529 499 532 499 532 L 540 610 C 547 608 554 602 559 591 C 602 585 644 578 684 571 L 684 865 C 684 878 680 883 662 883 C 642 883 548 877 548 877 L 548 892 C 591 897 615 905 629 914 C 641 924 646 940 647 957 C 734 948 746 916 746 867 L 746 561 C 789 553 829 546 861 540 C 873 566 881 591 884 614 C 948 668 1005 517 792 408 Z M 799 638 L 787 646 C 839 706 902 804 913 879 C 980 935 1034 774 799 638 Z" fill="red" fill-opacity="0.5" /><text text-anchor="middle" x="500" y="1064" font-family="Arial" font-size="64">Source Han Serif TW</text><text text-anchor="middle" x="1500" y="1064" font-family="Arial" font-size="64">HKSerif (uni7D94HK-regular)</text></svg>