<svg width="3000" height="1080" xmlns="http://www.w3.org/2000/svg" style="background:#fff"><path d="M 254 231 L 259 220 L 477 220 C 491 220 500 215 503 204 C 470 175 417 136 417 136 L 370 190 L 272 190 C 284 160 295 127 304 90 C 325 90 336 81 340 69 L 236 44 C 230 97 218 146 202 190 L 42 190 L 50 220 L 191 220 C 153 315 97 388 27 441 L 40 454 C 127 410 196 343 246 247 C 314 287 398 355 430 409 C 501 440 516 299 254 231 Z M 344 348 L 307 396 L 140 396 L 148 426 L 391 426 C 404 426 413 421 415 410 C 389 383 344 348 344 348 Z M 456 685 L 384 626 L 347 662 L 183 662 C 198 629 215 587 228 556 L 452 556 C 466 556 475 551 478 540 C 446 510 397 473 397 473 L 353 526 L 59 526 L 66 556 L 160 556 C 151 581 137 618 124 647 C 107 651 88 658 76 666 L 146 723 L 178 692 L 354 692 C 341 785 319 855 296 872 C 287 878 277 880 259 880 C 237 880 160 874 117 870 L 117 887 C 155 893 197 903 212 913 C 226 922 231 939 231 956 C 271 956 307 947 331 929 C 374 900 403 814 416 699 C 437 697 449 692 456 685 Z M 919 120 L 844 60 C 769 97 672 130 586 152 L 519 129 L 519 420 C 519 600 508 791 408 947 L 424 958 C 569 806 579 588 579 420 L 579 179 C 678 169 794 148 883 123 C 903 129 912 128 919 120 Z M 759 698 L 744 702 C 756 732 770 774 780 815 C 755 823 732 831 710 838 L 710 244 C 733 241 743 232 745 219 L 656 208 L 656 818 C 656 836 651 842 619 858 L 655 928 C 661 925 669 919 675 909 C 714 884 758 855 785 836 C 791 863 794 889 793 913 C 838 962 888 842 759 698 Z M 821 171 L 798 176 C 801 468 813 789 904 956 C 911 927 926 907 951 899 L 954 891 C 856 742 828 438 821 171 Z" fill="blue" /><path transform="translate(1000)" d="M 247 207 L 321 207 C 352 303 410 386 480 440 C 489 410 507 392 532 389 L 533 378 C 462 344 387 281 346 207 L 499 207 C 513 207 522 202 525 191 C 494 162 444 121 444 121 L 400 177 L 260 177 C 273 145 283 114 292 85 C 317 84 325 79 329 67 L 228 42 C 221 85 210 131 195 177 L 43 177 L 50 207 L 184 207 C 150 301 99 393 28 459 L 38 471 C 136 406 203 306 247 207 Z M 341 342 L 302 391 L 149 391 L 157 420 L 386 420 C 400 420 409 415 412 404 C 384 377 341 342 341 342 Z M 460 683 L 390 626 L 356 661 L 201 661 C 216 628 234 585 246 555 L 468 555 C 482 555 491 550 494 539 C 462 510 414 472 414 472 L 370 525 L 62 525 L 70 555 L 179 555 C 170 580 155 617 142 646 C 125 650 106 657 95 665 L 164 722 L 197 691 L 363 691 C 350 794 328 859 307 875 C 298 882 290 884 274 884 C 256 884 203 879 174 877 L 173 894 C 200 898 227 906 238 915 C 250 923 253 940 253 956 C 286 956 318 948 341 930 C 380 903 409 826 422 698 C 441 695 454 690 460 683 Z M 937 128 L 866 63 C 807 91 700 131 604 157 L 547 136 L 547 408 C 547 593 531 786 413 946 L 428 958 C 591 801 605 579 605 409 L 605 179 C 632 176 659 172 686 168 L 686 808 C 686 827 681 833 651 853 L 699 915 C 704 912 710 904 714 894 C 749 873 784 848 811 830 C 817 862 821 892 820 919 C 867 970 914 842 781 683 L 767 687 C 780 719 795 763 805 806 C 783 813 762 820 742 826 L 742 160 C 770 155 795 150 820 144 C 824 455 839 787 937 960 C 943 933 958 914 982 908 L 986 899 C 881 743 850 426 843 139 C 860 135 876 132 889 128 C 911 136 928 137 937 128 Z" fill="red" /><path transform="translate(2000)" d="M 254 231 L 259 220 L 477 220 C 491 220 500 215 503 204 C 470 175 417 136 417 136 L 370 190 L 272 190 C 284 160 295 127 304 90 C 325 90 336 81 340 69 L 236 44 C 230 97 218 146 202 190 L 42 190 L 50 220 L 191 220 C 153 315 97 388 27 441 L 40 454 C 127 410 196 343 246 247 C 314 287 398 355 430 409 C 501 440 516 299 254 231 Z M 344 348 L 307 396 L 140 396 L 148 426 L 391 426 C 404 426 413 421 415 410 C 389 383 344 348 344 348 Z M 456 685 L 384 626 L 347 662 L 183 662 C 198 629 215 587 228 556 L 452 556 C 466 556 475 551 478 540 C 446 510 397 473 397 473 L 353 526 L 59 526 L 66 556 L 160 556 C 151 581 137 618 124 647 C 107 651 88 658 76 666 L 146 723 L 178 692 L 354 692 C 341 785 319 855 296 872 C 287 878 277 880 259 880 C 237 880 160 874 117 870 L 117 887 C 155 893 197 903 212 913 C 226 922 231 939 231 956 C 271 956 307 947 331 929 C 374 900 403 814 416 699 C 437 697 449 692 456 685 Z M 919 120 L 844 60 C 769 97 672 130 586 152 L 519 129 L 519 420 C 519 600 508 791 408 947 L 424 958 C 569 806 579 588 579 420 L 579 179 C 678 169 794 148 883 123 C 903 129 912 128 919 120 Z M 759 698 L 744 702 C 756 732 770 774 780 815 C 755 823 732 831 710 838 L 710 244 C 733 241 743 232 745 219 L 656 208 L 656 818 C 656 836 651 842 619 858 L 655 928 C 661 925 669 919 675 909 C 714 884 758 855 785 836 C 791 863 794 889 793 913 C 838 962 888 842 759 698 Z M 821 171 L 798 176 C 801 468 813 789 904 956 C 911 927 926 907 951 899 L 954 891 C 856 742 828 438 821 171 Z" fill="blue" fill-opacity="0.5" /><path transform="translate(2000)" d="M 247 207 L 321 207 C 352 303 410 386 480 440 C 489 410 507 392 532 389 L 533 378 C 462 344 387 281 346 207 L 499 207 C 513 207 522 202 525 191 C 494 162 444 121 444 121 L 400 177 L 260 177 C 273 145 283 114 292 85 C 317 84 325 79 329 67 L 228 42 C 221 85 210 131 195 177 L 43 177 L 50 207 L 184 207 C 150 301 99 393 28 459 L 38 471 C 136 406 203 306 247 207 Z M 341 342 L 302 391 L 149 391 L 157 420 L 386 420 C 400 420 409 415 412 404 C 384 377 341 342 341 342 Z M 460 683 L 390 626 L 356 661 L 201 661 C 216 628 234 585 246 555 L 468 555 C 482 555 491 550 494 539 C 462 510 414 472 414 472 L 370 525 L 62 525 L 70 555 L 179 555 C 170 580 155 617 142 646 C 125 650 106 657 95 665 L 164 722 L 197 691 L 363 691 C 350 794 328 859 307 875 C 298 882 290 884 274 884 C 256 884 203 879 174 877 L 173 894 C 200 898 227 906 238 915 C 250 923 253 940 253 956 C 286 956 318 948 341 930 C 380 903 409 826 422 698 C 441 695 454 690 460 683 Z M 937 128 L 866 63 C 807 91 700 131 604 157 L 547 136 L 547 408 C 547 593 531 786 413 946 L 428 958 C 591 801 605 579 605 409 L 605 179 C 632 176 659 172 686 168 L 686 808 C 686 827 681 833 651 853 L 699 915 C 704 912 710 904 714 894 C 749 873 784 848 811 830 C 817 862 821 892 820 919 C 867 970 914 842 781 683 L 767 687 C 780 719 795 763 805 806 C 783 813 762 820 742 826 L 742 160 C 770 155 795 150 820 144 C 824 455 839 787 937 960 C 943 933 958 914 982 908 L 986 899 C 881 743 850 426 843 139 C 860 135 876 132 889 128 C 911 136 928 137 937 128 Z" fill="red" fill-opacity="0.5" /><text text-anchor="middle" x="500" y="1064" font-family="Arial" font-size="64">Source Han Serif TW</text><text text-anchor="middle" x="1500" y="1064" font-family="Arial" font-size="64">HKSerif (uni74E0HK-regular)</text></svg>