<svg width="3000" height="1080" xmlns="http://www.w3.org/2000/svg" style="background:#fff"><path d="M 170 179 L 375 179 L 375 256 L 170 256 L 170 179 Z M 375 285 L 375 370 L 170 370 L 170 285 L 375 285 Z M 375 492 L 170 492 L 170 400 L 375 400 L 375 492 Z M 170 548 L 170 522 L 375 522 L 375 555 L 385 555 C 406 555 437 540 438 533 L 438 192 C 458 188 474 179 480 171 L 402 110 L 365 150 L 253 150 C 273 129 298 104 315 84 C 336 83 348 75 352 61 L 242 39 C 236 71 226 118 218 150 L 175 150 L 109 119 L 109 568 L 119 568 C 144 568 170 554 170 548 Z M 304 706 L 304 668 L 473 668 C 486 668 496 663 499 652 C 466 622 412 580 412 580 L 365 639 L 304 639 L 304 571 C 329 567 339 558 341 544 L 241 533 L 241 639 L 50 639 L 58 668 L 204 668 C 166 751 106 831 32 892 L 43 907 C 122 862 190 804 241 738 L 241 961 L 253 961 C 277 961 304 947 304 939 L 304 719 C 350 747 382 799 392 834 C 420 885 476 842 449 792 C 428 753 375 721 304 706 Z M 951 888 L 968 745 L 956 742 C 947 772 938 804 926 839 C 922 851 919 852 913 841 C 877 767 869 519 878 349 C 898 346 913 339 919 332 L 842 267 L 804 307 L 635 307 C 638 252 641 201 643 157 L 918 157 C 932 157 942 152 944 141 C 912 110 858 69 858 69 L 812 127 L 475 127 L 483 157 L 585 157 C 581 341 552 685 529 857 C 499 864 473 869 455 872 L 494 954 C 504 952 512 943 516 931 C 649 880 749 836 820 804 L 816 790 C 736 809 657 828 592 843 C 608 705 623 506 633 337 L 814 337 C 812 557 818 798 873 904 C 894 943 932 972 959 953 C 972 943 968 923 951 888 Z M 669 439 L 655 445 C 684 501 715 590 712 658 C 764 715 825 579 669 439 Z" fill="blue" /><path transform="translate(1000)" d="M 170 179 L 375 179 L 375 256 L 170 256 L 170 179 Z M 375 285 L 375 370 L 170 370 L 170 285 L 375 285 Z M 375 492 L 170 492 L 170 400 L 375 400 L 375 492 Z M 170 548 L 170 522 L 375 522 L 375 555 L 385 555 C 406 555 437 540 438 533 L 438 192 C 458 188 474 179 480 171 L 402 110 L 365 150 L 253 150 C 273 129 298 104 315 84 C 336 83 348 75 352 61 L 242 39 C 236 71 226 118 218 150 L 175 150 L 109 119 L 109 568 L 119 568 C 144 568 170 554 170 548 Z M 304 706 L 304 668 L 473 668 C 486 668 496 663 499 652 C 466 622 412 580 412 580 L 365 639 L 304 639 L 304 583 C 329 579 339 570 341 556 L 241 545 L 241 639 L 50 639 L 58 668 L 204 668 C 166 751 106 831 32 892 L 43 907 C 122 862 190 804 241 738 L 241 961 L 253 961 C 277 961 304 947 304 939 L 304 719 C 350 747 382 799 392 834 C 420 885 476 842 449 792 C 428 753 375 721 304 706 Z M 656 445 L 643 450 C 673 506 704 595 701 663 C 755 720 819 583 656 445 Z M 949 872 L 946 774 L 933 774 C 926 812 916 859 910 869 C 907 875 904 876 899 876 C 894 877 886 877 876 877 L 876 877 C 864 877 862 872 862 859 L 862 350 C 884 347 895 341 901 335 L 826 268 L 789 309 L 630 309 C 633 253 636 201 638 155 L 932 155 C 946 155 954 150 957 139 C 925 108 872 68 872 68 L 825 126 L 478 126 L 486 155 L 577 155 C 574 337 548 675 523 848 C 490 855 463 860 443 863 L 483 948 C 493 945 501 936 504 924 C 639 877 739 835 815 805 L 815 784 C 734 803 654 821 587 835 C 603 697 618 505 628 339 L 799 339 L 799 878 C 799 918 807 938 858 938 L 874 938 C 950 938 973 925 973 899 C 973 886 967 879 949 872 Z" fill="red" /><path transform="translate(2000)" d="M 170 179 L 375 179 L 375 256 L 170 256 L 170 179 Z M 375 285 L 375 370 L 170 370 L 170 285 L 375 285 Z M 375 492 L 170 492 L 170 400 L 375 400 L 375 492 Z M 170 548 L 170 522 L 375 522 L 375 555 L 385 555 C 406 555 437 540 438 533 L 438 192 C 458 188 474 179 480 171 L 402 110 L 365 150 L 253 150 C 273 129 298 104 315 84 C 336 83 348 75 352 61 L 242 39 C 236 71 226 118 218 150 L 175 150 L 109 119 L 109 568 L 119 568 C 144 568 170 554 170 548 Z M 304 706 L 304 668 L 473 668 C 486 668 496 663 499 652 C 466 622 412 580 412 580 L 365 639 L 304 639 L 304 571 C 329 567 339 558 341 544 L 241 533 L 241 639 L 50 639 L 58 668 L 204 668 C 166 751 106 831 32 892 L 43 907 C 122 862 190 804 241 738 L 241 961 L 253 961 C 277 961 304 947 304 939 L 304 719 C 350 747 382 799 392 834 C 420 885 476 842 449 792 C 428 753 375 721 304 706 Z M 951 888 L 968 745 L 956 742 C 947 772 938 804 926 839 C 922 851 919 852 913 841 C 877 767 869 519 878 349 C 898 346 913 339 919 332 L 842 267 L 804 307 L 635 307 C 638 252 641 201 643 157 L 918 157 C 932 157 942 152 944 141 C 912 110 858 69 858 69 L 812 127 L 475 127 L 483 157 L 585 157 C 581 341 552 685 529 857 C 499 864 473 869 455 872 L 494 954 C 504 952 512 943 516 931 C 649 880 749 836 820 804 L 816 790 C 736 809 657 828 592 843 C 608 705 623 506 633 337 L 814 337 C 812 557 818 798 873 904 C 894 943 932 972 959 953 C 972 943 968 923 951 888 Z M 669 439 L 655 445 C 684 501 715 590 712 658 C 764 715 825 579 669 439 Z" fill="blue" fill-opacity="0.5" /><path transform="translate(2000)" d="M 170 179 L 375 179 L 375 256 L 170 256 L 170 179 Z M 375 285 L 375 370 L 170 370 L 170 285 L 375 285 Z M 375 492 L 170 492 L 170 400 L 375 400 L 375 492 Z M 170 548 L 170 522 L 375 522 L 375 555 L 385 555 C 406 555 437 540 438 533 L 438 192 C 458 188 474 179 480 171 L 402 110 L 365 150 L 253 150 C 273 129 298 104 315 84 C 336 83 348 75 352 61 L 242 39 C 236 71 226 118 218 150 L 175 150 L 109 119 L 109 568 L 119 568 C 144 568 170 554 170 548 Z M 304 706 L 304 668 L 473 668 C 486 668 496 663 499 652 C 466 622 412 580 412 580 L 365 639 L 304 639 L 304 583 C 329 579 339 570 341 556 L 241 545 L 241 639 L 50 639 L 58 668 L 204 668 C 166 751 106 831 32 892 L 43 907 C 122 862 190 804 241 738 L 241 961 L 253 961 C 277 961 304 947 304 939 L 304 719 C 350 747 382 799 392 834 C 420 885 476 842 449 792 C 428 753 375 721 304 706 Z M 656 445 L 643 450 C 673 506 704 595 701 663 C 755 720 819 583 656 445 Z M 949 872 L 946 774 L 933 774 C 926 812 916 859 910 869 C 907 875 904 876 899 876 C 894 877 886 877 876 877 L 876 877 C 864 877 862 872 862 859 L 862 350 C 884 347 895 341 901 335 L 826 268 L 789 309 L 630 309 C 633 253 636 201 638 155 L 932 155 C 946 155 954 150 957 139 C 925 108 872 68 872 68 L 825 126 L 478 126 L 486 155 L 577 155 C 574 337 548 675 523 848 C 490 855 463 860 443 863 L 483 948 C 493 945 501 936 504 924 C 639 877 739 835 815 805 L 815 784 C 734 803 654 821 587 835 C 603 697 618 505 628 339 L 799 339 L 799 878 C 799 918 807 938 858 938 L 874 938 C 950 938 973 925 973 899 C 973 886 967 879 949 872 Z" fill="red" fill-opacity="0.5" /><text text-anchor="middle" x="500" y="1064" font-family="Arial" font-size="64">Source Han Serif KR</text><text text-anchor="middle" x="1500" y="1064" font-family="Arial" font-size="64">HKSerif (uni7508KX-regular)</text></svg>