<svg width="1000" height="1000" xmlns="http://www.w3.org/2000/svg"><path d="M 937 128 L 866 63 C 807 91 700 131 604 157 L 547 136 L 547 408 C 547 593 531 786 413 946 L 428 958 C 591 801 605 579 605 409 L 605 179 C 632 176 659 172 686 168 L 686 808 C 686 827 681 833 651 853 L 699 915 C 704 912 710 904 714 894 C 749 873 784 848 811 830 C 817 862 821 892 820 919 C 867 970 914 842 781 683 L 767 687 C 780 719 795 763 805 806 C 783 813 762 820 742 826 L 742 160 C 770 155 795 150 820 144 C 824 455 839 787 937 960 C 943 933 958 914 982 908 L 986 899 C 881 743 850 426 843 139 C 860 135 876 132 889 128 C 911 136 928 137 937 128 Z" fill="black" /><path d="M 460 683 L 390 626 L 356 661 L 201 661 C 216 628 234 585 246 555 L 468 555 C 482 555 491 550 494 539 C 462 510 414 472 414 472 L 370 525 L 62 525 L 70 555 L 179 555 C 170 580 155 617 142 646 C 125 650 106 657 95 665 L 164 722 L 197 691 L 363 691 C 350 794 328 859 307 875 C 298 882 290 884 274 884 C 256 884 203 879 174 877 L 173 894 C 200 898 227 906 238 915 C 250 923 253 940 253 956 C 286 956 318 948 341 930 C 380 903 409 826 422 698 C 441 695 454 690 460 683 Z" fill="black" /><path d="M 341 342 L 302 391 L 149 391 L 157 420 L 386 420 C 400 420 409 415 412 404 C 384 377 341 342 341 342 Z" fill="black" /><path d="M 247 207 L 321 207 C 352 303 410 386 480 440 C 489 410 507 392 532 389 L 533 378 C 462 344 387 281 346 207 L 499 207 C 513 207 522 202 525 191 C 494 162 444 121 444 121 L 400 177 L 260 177 C 273 145 283 114 292 85 C 317 84 325 79 329 67 L 228 42 C 221 85 210 131 195 177 L 43 177 L 50 207 L 184 207 C 150 301 99 393 28 459 L 38 471 C 136 406 203 306 247 207 Z" fill="black" /></svg>