<svg width="3000" height="1080" xmlns="http://www.w3.org/2000/svg" style="background:#fff"><path d="M 509 787 L 506 770 C 434 785 364 800 299 813 L 299 684 L 467 684 C 481 684 491 679 493 669 C 463 641 416 603 416 603 L 375 656 L 299 656 L 299 571 C 321 568 330 559 332 547 L 236 537 L 236 656 L 62 656 L 70 684 L 236 684 L 236 826 C 152 843 83 855 42 861 L 80 944 C 89 941 99 933 103 921 C 281 867 413 821 509 787 Z M 304 155 L 304 249 L 243 249 C 245 220 246 189 247 155 L 304 155 Z M 356 277 L 434 277 L 434 367 L 427 367 C 423 369 417 370 412 370 L 403 370 L 386 370 L 368 370 C 358 370 356 367 356 356 L 356 277 Z M 434 487 L 131 487 L 131 442 L 140 453 C 207 411 231 355 241 277 L 304 277 L 304 371 C 304 405 311 419 353 419 L 381 419 C 404 419 421 418 434 416 L 434 487 Z M 131 277 L 191 277 C 186 343 171 393 131 433 L 131 277 Z M 948 886 L 962 749 L 950 746 C 942 776 933 808 922 841 C 917 852 914 854 907 845 C 868 778 860 527 868 361 C 888 358 902 352 908 344 L 831 279 L 793 320 L 643 320 C 647 260 650 203 652 155 L 936 155 C 949 155 958 150 961 139 C 929 108 875 68 875 68 L 829 126 L 507 126 C 476 99 437 69 437 69 L 392 126 L 42 126 L 49 155 L 193 155 C 193 189 193 220 192 249 L 143 249 L 75 218 L 75 570 L 83 570 C 113 570 131 555 131 550 L 131 516 L 434 516 L 434 558 L 443 558 C 461 558 490 543 491 537 L 491 289 C 511 285 527 277 534 269 L 458 212 L 425 249 L 356 249 L 356 155 L 495 155 C 497 155 500 155 502 155 L 593 155 C 589 340 561 684 538 853 C 498 860 465 865 442 868 L 482 952 C 491 949 500 942 504 929 C 641 883 743 845 816 817 L 813 801 C 737 816 663 830 599 842 C 616 708 631 516 641 349 L 802 349 C 801 572 806 816 874 914 C 898 947 935 969 957 948 C 968 938 963 918 948 886 Z M 662 451 L 648 457 C 680 510 713 596 712 663 C 769 718 832 579 662 451 Z" fill="blue" /><path transform="translate(1000)" d="M 509 787 L 506 770 C 434 785 364 800 299 813 L 299 684 L 467 684 C 481 684 491 679 493 669 C 463 641 416 603 416 603 L 375 656 L 299 656 L 299 571 C 321 568 330 559 332 547 L 236 537 L 236 656 L 62 656 L 70 684 L 236 684 L 236 826 C 152 843 83 855 42 861 L 80 944 C 89 941 99 933 103 921 C 281 867 413 821 509 787 Z M 304 155 L 304 249 L 243 249 C 245 220 246 189 247 155 L 304 155 Z M 356 277 L 434 277 L 434 367 L 427 367 C 423 369 417 370 412 370 L 403 370 L 386 370 L 368 370 C 358 370 356 367 356 356 L 356 277 Z M 434 487 L 131 487 L 131 442 L 140 453 C 207 411 231 355 241 277 L 304 277 L 304 371 C 304 405 311 419 353 419 L 381 419 C 404 419 421 418 434 416 L 434 487 Z M 131 277 L 191 277 C 186 343 171 393 131 433 L 131 277 Z M 550 155 L 507 126 C 476 99 437 69 437 69 L 392 126 L 42 126 L 49 155 L 193 155 C 193 189 193 220 192 249 L 143 249 L 75 218 L 75 570 L 83 570 C 113 570 131 555 131 550 L 131 516 L 434 516 L 434 558 L 443 558 C 461 558 490 543 491 537 L 491 289 C 511 285 527 277 534 269 L 458 212 L 425 249 L 356 249 L 356 155 L 550 155 Z M 664 445 L 651 450 C 681 506 712 595 709 663 C 763 720 827 583 664 445 Z M 949 872 L 946 774 L 933 774 C 926 812 916 859 910 869 C 907 875 904 876 899 876 C 894 877 886 877 876 877 L 876 877 C 864 877 862 872 862 859 L 862 350 C 884 347 895 341 901 335 L 826 268 L 789 309 L 642 309 C 645 253 648 201 650 155 L 932 155 C 946 155 954 150 957 139 C 925 108 872 68 872 68 L 825 126 L 490 126 L 498 155 L 589 155 C 586 337 560 675 535 848 C 502 855 475 860 455 863 L 495 948 C 505 945 513 936 516 924 C 651 877 751 835 827 805 L 827 784 C 746 803 666 821 599 835 C 615 697 630 505 640 339 L 799 339 L 799 878 C 799 918 807 938 858 938 L 874 938 C 950 938 973 925 973 899 C 973 886 967 879 949 872 Z" fill="red" /><path transform="translate(2000)" d="M 509 787 L 506 770 C 434 785 364 800 299 813 L 299 684 L 467 684 C 481 684 491 679 493 669 C 463 641 416 603 416 603 L 375 656 L 299 656 L 299 571 C 321 568 330 559 332 547 L 236 537 L 236 656 L 62 656 L 70 684 L 236 684 L 236 826 C 152 843 83 855 42 861 L 80 944 C 89 941 99 933 103 921 C 281 867 413 821 509 787 Z M 304 155 L 304 249 L 243 249 C 245 220 246 189 247 155 L 304 155 Z M 356 277 L 434 277 L 434 367 L 427 367 C 423 369 417 370 412 370 L 403 370 L 386 370 L 368 370 C 358 370 356 367 356 356 L 356 277 Z M 434 487 L 131 487 L 131 442 L 140 453 C 207 411 231 355 241 277 L 304 277 L 304 371 C 304 405 311 419 353 419 L 381 419 C 404 419 421 418 434 416 L 434 487 Z M 131 277 L 191 277 C 186 343 171 393 131 433 L 131 277 Z M 948 886 L 962 749 L 950 746 C 942 776 933 808 922 841 C 917 852 914 854 907 845 C 868 778 860 527 868 361 C 888 358 902 352 908 344 L 831 279 L 793 320 L 643 320 C 647 260 650 203 652 155 L 936 155 C 949 155 958 150 961 139 C 929 108 875 68 875 68 L 829 126 L 507 126 C 476 99 437 69 437 69 L 392 126 L 42 126 L 49 155 L 193 155 C 193 189 193 220 192 249 L 143 249 L 75 218 L 75 570 L 83 570 C 113 570 131 555 131 550 L 131 516 L 434 516 L 434 558 L 443 558 C 461 558 490 543 491 537 L 491 289 C 511 285 527 277 534 269 L 458 212 L 425 249 L 356 249 L 356 155 L 495 155 C 497 155 500 155 502 155 L 593 155 C 589 340 561 684 538 853 C 498 860 465 865 442 868 L 482 952 C 491 949 500 942 504 929 C 641 883 743 845 816 817 L 813 801 C 737 816 663 830 599 842 C 616 708 631 516 641 349 L 802 349 C 801 572 806 816 874 914 C 898 947 935 969 957 948 C 968 938 963 918 948 886 Z M 662 451 L 648 457 C 680 510 713 596 712 663 C 769 718 832 579 662 451 Z" fill="blue" fill-opacity="0.5" /><path transform="translate(2000)" d="M 509 787 L 506 770 C 434 785 364 800 299 813 L 299 684 L 467 684 C 481 684 491 679 493 669 C 463 641 416 603 416 603 L 375 656 L 299 656 L 299 571 C 321 568 330 559 332 547 L 236 537 L 236 656 L 62 656 L 70 684 L 236 684 L 236 826 C 152 843 83 855 42 861 L 80 944 C 89 941 99 933 103 921 C 281 867 413 821 509 787 Z M 304 155 L 304 249 L 243 249 C 245 220 246 189 247 155 L 304 155 Z M 356 277 L 434 277 L 434 367 L 427 367 C 423 369 417 370 412 370 L 403 370 L 386 370 L 368 370 C 358 370 356 367 356 356 L 356 277 Z M 434 487 L 131 487 L 131 442 L 140 453 C 207 411 231 355 241 277 L 304 277 L 304 371 C 304 405 311 419 353 419 L 381 419 C 404 419 421 418 434 416 L 434 487 Z M 131 277 L 191 277 C 186 343 171 393 131 433 L 131 277 Z M 550 155 L 507 126 C 476 99 437 69 437 69 L 392 126 L 42 126 L 49 155 L 193 155 C 193 189 193 220 192 249 L 143 249 L 75 218 L 75 570 L 83 570 C 113 570 131 555 131 550 L 131 516 L 434 516 L 434 558 L 443 558 C 461 558 490 543 491 537 L 491 289 C 511 285 527 277 534 269 L 458 212 L 425 249 L 356 249 L 356 155 L 550 155 Z M 664 445 L 651 450 C 681 506 712 595 709 663 C 763 720 827 583 664 445 Z M 949 872 L 946 774 L 933 774 C 926 812 916 859 910 869 C 907 875 904 876 899 876 C 894 877 886 877 876 877 L 876 877 C 864 877 862 872 862 859 L 862 350 C 884 347 895 341 901 335 L 826 268 L 789 309 L 642 309 C 645 253 648 201 650 155 L 932 155 C 946 155 954 150 957 139 C 925 108 872 68 872 68 L 825 126 L 490 126 L 498 155 L 589 155 C 586 337 560 675 535 848 C 502 855 475 860 455 863 L 495 948 C 505 945 513 936 516 924 C 651 877 751 835 827 805 L 827 784 C 746 803 666 821 599 835 C 615 697 630 505 640 339 L 799 339 L 799 878 C 799 918 807 938 858 938 L 874 938 C 950 938 973 925 973 899 C 973 886 967 879 949 872 Z" fill="red" fill-opacity="0.5" /><text text-anchor="middle" x="500" y="1064" font-family="Arial" font-size="64">Source Han Serif KR</text><text text-anchor="middle" x="1500" y="1064" font-family="Arial" font-size="64">HKSerif (uni7504KX-regular)</text></svg>