<svg width="3000" height="1080" xmlns="http://www.w3.org/2000/svg" style="background:#fff"><path d="M 374 88 L 281 43 C 264 86 238 135 208 186 C 177 146 138 109 88 76 L 73 89 C 121 132 157 177 184 223 C 144 285 95 346 45 393 L 56 405 C 112 367 163 320 209 271 C 225 305 236 342 244 379 C 203 487 124 600 35 675 L 46 687 C 134 635 214 559 260 490 C 262 522 263 555 263 589 C 263 700 251 823 223 863 C 215 875 207 878 190 878 C 150 878 74 870 74 870 L 74 888 C 108 895 134 904 148 913 C 160 921 166 936 166 959 C 214 959 248 948 268 920 C 316 855 327 717 326 588 C 324 457 306 338 241 233 C 280 187 312 141 336 100 C 360 104 368 99 374 88 Z M 543 617 L 543 413 L 611 413 L 611 617 L 543 617 Z M 657 413 L 722 413 L 722 617 L 657 617 L 657 413 Z M 730 706 L 716 711 C 730 736 746 768 757 802 L 661 811 L 661 647 L 722 647 L 722 676 L 730 676 C 747 676 771 664 772 657 L 772 421 C 789 418 805 410 811 403 L 743 351 L 713 383 L 661 383 L 661 265 L 787 265 C 800 265 809 260 812 249 C 785 222 743 187 743 187 L 705 236 L 476 236 L 484 265 L 607 265 L 607 383 L 549 383 L 495 358 L 495 709 L 502 709 C 523 709 543 696 543 692 L 543 647 L 607 647 L 607 816 C 534 822 473 827 437 828 L 477 909 C 487 906 495 900 501 888 C 615 862 702 840 764 822 C 774 853 781 882 781 908 C 830 957 882 836 730 706 Z M 954 880 L 973 712 L 960 709 C 952 744 942 781 929 821 C 924 835 921 836 916 823 C 874 727 872 381 885 160 C 908 157 922 149 928 143 L 850 73 L 810 115 L 472 115 L 402 84 L 402 429 C 402 614 394 804 297 954 L 314 964 C 451 816 460 602 460 428 L 460 144 L 821 144 C 817 431 812 761 875 891 C 896 935 929 967 960 951 C 973 943 970 920 954 880 Z" fill="blue" /><path transform="translate(1000)" d="M 635 265 L 756 265 C 768 265 777 260 780 249 C 754 222 711 186 711 186 L 673 236 L 450 236 L 458 265 L 580 265 L 580 820 L 635 820 L 635 265 Z M 339 111 L 245 65 C 230 100 206 142 177 184 C 148 139 108 96 59 58 L 44 70 C 90 119 124 170 149 224 C 113 271 73 315 32 350 L 43 363 C 87 338 130 306 167 272 C 184 321 195 373 201 427 C 168 517 109 613 39 680 L 51 690 C 112 653 167 600 208 549 L 208 579 C 208 692 198 821 172 860 C 165 871 158 874 143 874 C 113 874 60 868 60 868 L 60 885 C 85 892 102 900 112 909 C 121 917 126 932 126 957 C 171 957 203 945 222 918 C 266 853 275 710 273 579 C 272 451 257 336 207 234 C 245 196 277 157 301 122 C 324 127 333 122 339 111 Z M 523 615 L 523 400 L 584 400 L 584 615 L 523 615 Z M 631 400 L 694 400 L 694 615 L 631 615 L 631 400 Z M 688 702 L 675 708 C 690 734 707 765 719 799 L 634 810 L 634 645 L 694 645 L 694 667 L 702 667 C 718 667 743 654 744 648 L 744 408 C 762 404 777 397 783 390 L 716 337 L 685 370 L 634 370 L 580 370 L 528 370 L 474 344 L 474 697 L 482 697 C 502 697 523 685 523 681 L 523 645 L 580 645 L 580 816 C 507 825 446 832 410 834 L 452 913 C 462 910 470 904 475 891 C 584 863 666 839 727 820 C 739 853 748 886 749 915 C 808 971 867 833 688 702 Z M 949 883 L 966 715 L 955 712 C 947 747 937 785 924 825 C 919 839 916 840 909 827 C 857 730 851 379 863 153 C 887 150 901 143 907 136 L 827 65 L 787 108 L 438 108 L 368 75 L 368 420 C 368 610 355 799 249 948 L 265 959 C 415 812 426 597 426 419 L 426 137 L 798 137 C 794 430 793 767 867 897 C 890 941 924 974 955 956 C 970 948 967 926 949 883 Z" fill="red" /><path transform="translate(2000)" d="M 374 88 L 281 43 C 264 86 238 135 208 186 C 177 146 138 109 88 76 L 73 89 C 121 132 157 177 184 223 C 144 285 95 346 45 393 L 56 405 C 112 367 163 320 209 271 C 225 305 236 342 244 379 C 203 487 124 600 35 675 L 46 687 C 134 635 214 559 260 490 C 262 522 263 555 263 589 C 263 700 251 823 223 863 C 215 875 207 878 190 878 C 150 878 74 870 74 870 L 74 888 C 108 895 134 904 148 913 C 160 921 166 936 166 959 C 214 959 248 948 268 920 C 316 855 327 717 326 588 C 324 457 306 338 241 233 C 280 187 312 141 336 100 C 360 104 368 99 374 88 Z M 543 617 L 543 413 L 611 413 L 611 617 L 543 617 Z M 657 413 L 722 413 L 722 617 L 657 617 L 657 413 Z M 730 706 L 716 711 C 730 736 746 768 757 802 L 661 811 L 661 647 L 722 647 L 722 676 L 730 676 C 747 676 771 664 772 657 L 772 421 C 789 418 805 410 811 403 L 743 351 L 713 383 L 661 383 L 661 265 L 787 265 C 800 265 809 260 812 249 C 785 222 743 187 743 187 L 705 236 L 476 236 L 484 265 L 607 265 L 607 383 L 549 383 L 495 358 L 495 709 L 502 709 C 523 709 543 696 543 692 L 543 647 L 607 647 L 607 816 C 534 822 473 827 437 828 L 477 909 C 487 906 495 900 501 888 C 615 862 702 840 764 822 C 774 853 781 882 781 908 C 830 957 882 836 730 706 Z M 954 880 L 973 712 L 960 709 C 952 744 942 781 929 821 C 924 835 921 836 916 823 C 874 727 872 381 885 160 C 908 157 922 149 928 143 L 850 73 L 810 115 L 472 115 L 402 84 L 402 429 C 402 614 394 804 297 954 L 314 964 C 451 816 460 602 460 428 L 460 144 L 821 144 C 817 431 812 761 875 891 C 896 935 929 967 960 951 C 973 943 970 920 954 880 Z" fill="blue" fill-opacity="0.5" /><path transform="translate(2000)" d="M 635 265 L 756 265 C 768 265 777 260 780 249 C 754 222 711 186 711 186 L 673 236 L 450 236 L 458 265 L 580 265 L 580 820 L 635 820 L 635 265 Z M 339 111 L 245 65 C 230 100 206 142 177 184 C 148 139 108 96 59 58 L 44 70 C 90 119 124 170 149 224 C 113 271 73 315 32 350 L 43 363 C 87 338 130 306 167 272 C 184 321 195 373 201 427 C 168 517 109 613 39 680 L 51 690 C 112 653 167 600 208 549 L 208 579 C 208 692 198 821 172 860 C 165 871 158 874 143 874 C 113 874 60 868 60 868 L 60 885 C 85 892 102 900 112 909 C 121 917 126 932 126 957 C 171 957 203 945 222 918 C 266 853 275 710 273 579 C 272 451 257 336 207 234 C 245 196 277 157 301 122 C 324 127 333 122 339 111 Z M 523 615 L 523 400 L 584 400 L 584 615 L 523 615 Z M 631 400 L 694 400 L 694 615 L 631 615 L 631 400 Z M 688 702 L 675 708 C 690 734 707 765 719 799 L 634 810 L 634 645 L 694 645 L 694 667 L 702 667 C 718 667 743 654 744 648 L 744 408 C 762 404 777 397 783 390 L 716 337 L 685 370 L 634 370 L 580 370 L 528 370 L 474 344 L 474 697 L 482 697 C 502 697 523 685 523 681 L 523 645 L 580 645 L 580 816 C 507 825 446 832 410 834 L 452 913 C 462 910 470 904 475 891 C 584 863 666 839 727 820 C 739 853 748 886 749 915 C 808 971 867 833 688 702 Z M 949 883 L 966 715 L 955 712 C 947 747 937 785 924 825 C 919 839 916 840 909 827 C 857 730 851 379 863 153 C 887 150 901 143 907 136 L 827 65 L 787 108 L 438 108 L 368 75 L 368 420 C 368 610 355 799 249 948 L 265 959 C 415 812 426 597 426 419 L 426 137 L 798 137 C 794 430 793 767 867 897 C 890 941 924 974 955 956 C 970 948 967 926 949 883 Z" fill="red" fill-opacity="0.5" /><text text-anchor="middle" x="500" y="1064" font-family="Arial" font-size="64">Source Han Serif TW</text><text text-anchor="middle" x="1500" y="1064" font-family="Arial" font-size="64">HKSerif (uni7326HK-regular)</text></svg>