<svg width="3000" height="1080" xmlns="http://www.w3.org/2000/svg" style="background:#fff"><path d="M 332 229 L 319 236 C 347 273 376 323 396 374 C 312 380 231 386 165 390 C 219 293 275 177 308 96 C 329 97 341 89 345 77 L 237 44 C 213 145 173 283 136 391 C 95 393 61 395 38 395 L 68 482 C 78 480 88 473 94 460 C 225 435 327 413 403 395 C 412 422 418 448 419 473 C 487 535 551 369 332 229 Z M 367 837 L 162 837 L 162 580 L 367 580 L 367 837 Z M 466 568 L 395 513 L 363 551 L 174 551 L 101 519 L 101 952 L 111 952 C 142 952 162 937 162 932 L 162 866 L 367 866 L 367 932 L 376 932 C 405 932 429 918 429 913 L 429 584 C 449 581 460 576 466 568 Z M 953 885 L 968 744 L 956 742 C 948 772 938 806 927 838 C 923 850 920 851 913 841 C 869 767 858 521 866 355 C 886 352 901 346 907 339 L 829 273 L 789 314 L 628 314 C 632 256 635 201 638 155 L 939 155 C 952 155 961 150 964 139 C 932 108 879 68 879 68 L 832 126 L 447 126 L 455 155 L 577 155 C 573 342 541 695 516 862 C 488 869 466 874 449 877 L 491 959 C 501 956 509 947 512 934 C 643 880 740 834 809 802 L 805 786 C 726 808 646 829 580 846 C 597 710 614 513 626 343 L 799 343 C 800 562 808 802 872 905 C 895 943 935 971 961 952 C 974 941 970 921 953 885 Z M 653 447 L 638 453 C 670 510 703 598 702 666 C 756 722 818 585 653 447 Z" fill="blue" /><path transform="translate(1000)" d="M 332 229 L 319 236 C 347 273 376 323 396 374 C 312 380 231 386 165 390 C 219 293 275 177 308 96 C 329 97 341 89 345 77 L 237 44 C 213 145 173 283 136 391 C 95 393 61 395 38 395 L 68 482 C 78 480 88 473 94 460 C 225 435 327 413 403 395 C 412 422 418 448 419 473 C 487 535 551 369 332 229 Z M 367 837 L 162 837 L 162 580 L 367 580 L 367 837 Z M 466 568 L 395 513 L 363 551 L 174 551 L 101 519 L 101 952 L 111 952 C 142 952 162 937 162 932 L 162 866 L 367 866 L 367 932 L 376 932 C 405 932 429 918 429 913 L 429 584 C 449 581 460 576 466 568 Z M 656 445 L 643 450 C 673 506 704 595 701 663 C 755 720 819 583 656 445 Z M 949 872 L 946 774 L 933 774 C 926 812 916 859 910 869 C 907 875 904 876 899 876 C 894 877 886 877 876 877 L 876 877 C 864 877 862 872 862 859 L 862 350 C 884 347 895 341 901 335 L 826 268 L 789 309 L 630 309 C 633 253 636 201 638 155 L 932 155 C 946 155 954 150 957 139 C 925 108 872 68 872 68 L 825 126 L 446 126 L 454 155 L 577 155 C 574 337 548 675 523 848 C 490 855 463 860 443 863 L 483 948 C 493 945 501 936 504 924 C 639 877 739 835 815 805 L 815 784 C 734 803 654 821 587 835 C 603 697 618 505 628 339 L 799 339 L 799 878 C 799 918 807 938 858 938 L 874 938 C 950 938 973 925 973 899 C 973 886 967 879 949 872 Z" fill="red" /><path transform="translate(2000)" d="M 332 229 L 319 236 C 347 273 376 323 396 374 C 312 380 231 386 165 390 C 219 293 275 177 308 96 C 329 97 341 89 345 77 L 237 44 C 213 145 173 283 136 391 C 95 393 61 395 38 395 L 68 482 C 78 480 88 473 94 460 C 225 435 327 413 403 395 C 412 422 418 448 419 473 C 487 535 551 369 332 229 Z M 367 837 L 162 837 L 162 580 L 367 580 L 367 837 Z M 466 568 L 395 513 L 363 551 L 174 551 L 101 519 L 101 952 L 111 952 C 142 952 162 937 162 932 L 162 866 L 367 866 L 367 932 L 376 932 C 405 932 429 918 429 913 L 429 584 C 449 581 460 576 466 568 Z M 953 885 L 968 744 L 956 742 C 948 772 938 806 927 838 C 923 850 920 851 913 841 C 869 767 858 521 866 355 C 886 352 901 346 907 339 L 829 273 L 789 314 L 628 314 C 632 256 635 201 638 155 L 939 155 C 952 155 961 150 964 139 C 932 108 879 68 879 68 L 832 126 L 447 126 L 455 155 L 577 155 C 573 342 541 695 516 862 C 488 869 466 874 449 877 L 491 959 C 501 956 509 947 512 934 C 643 880 740 834 809 802 L 805 786 C 726 808 646 829 580 846 C 597 710 614 513 626 343 L 799 343 C 800 562 808 802 872 905 C 895 943 935 971 961 952 C 974 941 970 921 953 885 Z M 653 447 L 638 453 C 670 510 703 598 702 666 C 756 722 818 585 653 447 Z" fill="blue" fill-opacity="0.5" /><path transform="translate(2000)" d="M 332 229 L 319 236 C 347 273 376 323 396 374 C 312 380 231 386 165 390 C 219 293 275 177 308 96 C 329 97 341 89 345 77 L 237 44 C 213 145 173 283 136 391 C 95 393 61 395 38 395 L 68 482 C 78 480 88 473 94 460 C 225 435 327 413 403 395 C 412 422 418 448 419 473 C 487 535 551 369 332 229 Z M 367 837 L 162 837 L 162 580 L 367 580 L 367 837 Z M 466 568 L 395 513 L 363 551 L 174 551 L 101 519 L 101 952 L 111 952 C 142 952 162 937 162 932 L 162 866 L 367 866 L 367 932 L 376 932 C 405 932 429 918 429 913 L 429 584 C 449 581 460 576 466 568 Z M 656 445 L 643 450 C 673 506 704 595 701 663 C 755 720 819 583 656 445 Z M 949 872 L 946 774 L 933 774 C 926 812 916 859 910 869 C 907 875 904 876 899 876 C 894 877 886 877 876 877 L 876 877 C 864 877 862 872 862 859 L 862 350 C 884 347 895 341 901 335 L 826 268 L 789 309 L 630 309 C 633 253 636 201 638 155 L 932 155 C 946 155 954 150 957 139 C 925 108 872 68 872 68 L 825 126 L 446 126 L 454 155 L 577 155 C 574 337 548 675 523 848 C 490 855 463 860 443 863 L 483 948 C 493 945 501 936 504 924 C 639 877 739 835 815 805 L 815 784 C 734 803 654 821 587 835 C 603 697 618 505 628 339 L 799 339 L 799 878 C 799 918 807 938 858 938 L 874 938 C 950 938 973 925 973 899 C 973 886 967 879 949 872 Z" fill="red" fill-opacity="0.5" /><text text-anchor="middle" x="500" y="1064" font-family="Arial" font-size="64">Source Han Serif KR</text><text text-anchor="middle" x="1500" y="1064" font-family="Arial" font-size="64">HKSerif (uni74F5KX-regular)</text></svg>