<svg width="3000" height="1080" xmlns="http://www.w3.org/2000/svg" style="background:#fff"><path d="M 442 205 L 400 170 L 574 170 L 574 247 C 574 288 585 300 653 300 L 746 300 C 884 300 909 292 909 269 C 909 257 901 252 880 247 L 876 246 L 867 246 C 861 248 853 250 847 250 C 843 251 835 251 830 252 L 751 252 L 665 252 C 634 252 632 249 632 239 L 632 178 L 632 170 L 856 170 C 847 191 835 214 827 230 L 839 238 C 870 224 912 201 934 180 C 952 179 964 178 971 171 L 897 100 L 857 140 L 503 140 C 550 134 562 44 414 34 L 405 42 C 434 63 464 100 472 132 C 479 137 487 139 493 140 L 165 140 C 164 123 161 106 155 86 L 138 87 C 141 144 107 194 69 211 C 49 222 36 240 43 260 C 53 280 86 279 109 266 C 134 251 159 219 164 170 L 358 170 C 296 230 192 285 62 312 L 70 328 C 217 317 324 272 398 214 C 424 218 436 213 442 205 Z M 205 792 L 397 792 C 410 792 419 787 421 776 C 397 753 361 726 361 726 L 329 762 L 205 762 L 205 696 L 391 696 C 404 696 414 691 416 680 C 392 658 357 632 357 632 L 324 667 L 205 667 L 205 621 C 224 618 232 609 234 598 L 168 591 C 195 588 209 578 211 574 L 211 549 L 729 549 L 729 578 L 739 578 C 759 578 792 564 793 558 L 793 380 C 810 377 825 369 831 362 L 754 305 L 719 341 L 491 341 L 500 370 L 729 370 L 729 431 L 515 431 L 524 461 L 729 461 L 729 520 L 211 520 L 211 464 L 440 464 C 454 464 464 459 466 448 C 438 422 393 390 393 390 L 356 435 L 211 435 L 211 385 C 290 373 375 351 428 332 C 450 340 466 340 474 331 L 403 273 C 365 298 293 333 225 356 L 149 332 L 149 588 L 145 588 L 145 857 C 145 873 141 879 113 897 L 160 967 C 167 963 175 954 178 942 C 266 905 350 864 392 843 L 388 829 C 323 846 257 864 205 877 L 205 792 Z M 651 726 L 620 762 L 504 762 L 504 696 L 682 696 C 695 696 703 691 706 680 C 683 657 646 631 646 631 L 615 667 L 504 667 L 504 615 C 523 612 531 603 533 592 L 444 582 L 444 855 C 444 870 440 877 412 894 L 459 964 C 466 960 474 951 478 938 C 565 901 646 861 689 840 L 684 826 C 620 843 555 860 504 873 L 504 792 L 687 792 C 701 792 709 787 712 776 C 687 753 651 726 651 726 Z M 931 902 L 939 824 L 927 822 C 920 840 910 867 903 882 C 898 892 893 892 883 887 C 793 853 784 717 784 626 C 802 623 811 614 813 602 L 717 593 C 720 736 732 903 865 953 C 901 968 940 972 951 945 C 957 934 949 917 931 902 Z" fill="blue" /><path transform="translate(1000)" d="M 442 205 L 400 170 L 574 170 L 574 247 C 574 288 585 300 653 300 L 746 300 C 884 300 909 292 909 269 C 909 257 901 252 880 247 L 876 246 L 867 246 C 861 248 853 250 847 250 C 843 251 835 251 830 252 L 751 252 L 665 252 C 634 252 632 249 632 239 L 632 178 L 632 170 L 838 170 C 829 191 817 213 808 228 L 821 236 C 851 223 893 200 917 180 C 934 179 946 178 953 171 L 879 100 L 839 140 L 503 140 C 550 135 562 44 414 34 L 405 42 C 434 62 464 100 472 132 C 479 137 487 139 493 140 L 182 140 C 181 123 178 106 172 86 L 154 87 C 158 144 125 194 88 211 C 69 222 56 240 63 260 C 73 280 106 280 128 266 C 153 251 177 219 182 170 L 358 170 C 296 230 192 285 62 312 L 70 328 C 217 317 324 272 398 214 C 424 218 436 213 442 205 Z M 392 843 L 388 829 C 323 847 256 865 205 878 L 205 621 C 224 618 232 609 234 598 L 168 591 C 195 588 209 578 211 574 L 211 549 L 729 549 L 729 578 L 739 578 C 759 578 792 564 793 558 L 793 380 C 810 377 825 369 831 362 L 754 305 L 719 341 L 491 341 L 500 370 L 729 370 L 729 431 L 514 431 L 523 461 L 729 461 L 729 520 L 211 520 L 211 464 L 439 464 C 453 464 463 459 465 448 C 437 422 393 390 393 390 L 355 435 L 211 435 L 211 385 C 290 373 374 351 427 332 C 449 340 465 340 474 331 L 403 273 C 364 298 293 333 225 356 L 149 332 L 149 588 L 145 588 L 145 857 C 145 873 141 879 113 897 L 160 967 C 167 963 175 954 178 942 C 266 905 350 864 392 843 Z M 259 700 L 249 711 C 289 727 334 762 350 795 C 404 818 422 711 259 700 Z M 265 608 L 257 620 C 295 634 340 663 359 691 C 412 712 427 607 265 608 Z M 690 840 L 685 826 C 621 843 555 860 504 873 L 504 615 C 523 612 531 603 533 592 L 444 582 L 444 855 C 444 870 440 877 412 894 L 459 964 C 466 960 474 951 478 938 C 565 901 646 861 690 840 Z M 544 700 L 536 711 C 577 728 625 762 642 796 C 699 820 715 707 544 700 Z M 550 605 L 542 617 C 585 630 633 662 653 693 C 710 715 720 603 550 605 Z M 931 902 L 939 824 L 927 822 C 920 841 910 867 903 882 C 898 892 893 892 883 887 C 793 854 784 718 784 626 C 802 623 811 614 813 602 L 717 593 C 720 737 732 903 865 953 C 901 968 940 972 951 945 C 957 934 949 917 931 902 Z" fill="red" /><path transform="translate(2000)" d="M 442 205 L 400 170 L 574 170 L 574 247 C 574 288 585 300 653 300 L 746 300 C 884 300 909 292 909 269 C 909 257 901 252 880 247 L 876 246 L 867 246 C 861 248 853 250 847 250 C 843 251 835 251 830 252 L 751 252 L 665 252 C 634 252 632 249 632 239 L 632 178 L 632 170 L 856 170 C 847 191 835 214 827 230 L 839 238 C 870 224 912 201 934 180 C 952 179 964 178 971 171 L 897 100 L 857 140 L 503 140 C 550 134 562 44 414 34 L 405 42 C 434 63 464 100 472 132 C 479 137 487 139 493 140 L 165 140 C 164 123 161 106 155 86 L 138 87 C 141 144 107 194 69 211 C 49 222 36 240 43 260 C 53 280 86 279 109 266 C 134 251 159 219 164 170 L 358 170 C 296 230 192 285 62 312 L 70 328 C 217 317 324 272 398 214 C 424 218 436 213 442 205 Z M 205 792 L 397 792 C 410 792 419 787 421 776 C 397 753 361 726 361 726 L 329 762 L 205 762 L 205 696 L 391 696 C 404 696 414 691 416 680 C 392 658 357 632 357 632 L 324 667 L 205 667 L 205 621 C 224 618 232 609 234 598 L 168 591 C 195 588 209 578 211 574 L 211 549 L 729 549 L 729 578 L 739 578 C 759 578 792 564 793 558 L 793 380 C 810 377 825 369 831 362 L 754 305 L 719 341 L 491 341 L 500 370 L 729 370 L 729 431 L 515 431 L 524 461 L 729 461 L 729 520 L 211 520 L 211 464 L 440 464 C 454 464 464 459 466 448 C 438 422 393 390 393 390 L 356 435 L 211 435 L 211 385 C 290 373 375 351 428 332 C 450 340 466 340 474 331 L 403 273 C 365 298 293 333 225 356 L 149 332 L 149 588 L 145 588 L 145 857 C 145 873 141 879 113 897 L 160 967 C 167 963 175 954 178 942 C 266 905 350 864 392 843 L 388 829 C 323 846 257 864 205 877 L 205 792 Z M 651 726 L 620 762 L 504 762 L 504 696 L 682 696 C 695 696 703 691 706 680 C 683 657 646 631 646 631 L 615 667 L 504 667 L 504 615 C 523 612 531 603 533 592 L 444 582 L 444 855 C 444 870 440 877 412 894 L 459 964 C 466 960 474 951 478 938 C 565 901 646 861 689 840 L 684 826 C 620 843 555 860 504 873 L 504 792 L 687 792 C 701 792 709 787 712 776 C 687 753 651 726 651 726 Z M 931 902 L 939 824 L 927 822 C 920 840 910 867 903 882 C 898 892 893 892 883 887 C 793 853 784 717 784 626 C 802 623 811 614 813 602 L 717 593 C 720 736 732 903 865 953 C 901 968 940 972 951 945 C 957 934 949 917 931 902 Z" fill="blue" fill-opacity="0.5" /><path transform="translate(2000)" d="M 442 205 L 400 170 L 574 170 L 574 247 C 574 288 585 300 653 300 L 746 300 C 884 300 909 292 909 269 C 909 257 901 252 880 247 L 876 246 L 867 246 C 861 248 853 250 847 250 C 843 251 835 251 830 252 L 751 252 L 665 252 C 634 252 632 249 632 239 L 632 178 L 632 170 L 838 170 C 829 191 817 213 808 228 L 821 236 C 851 223 893 200 917 180 C 934 179 946 178 953 171 L 879 100 L 839 140 L 503 140 C 550 135 562 44 414 34 L 405 42 C 434 62 464 100 472 132 C 479 137 487 139 493 140 L 182 140 C 181 123 178 106 172 86 L 154 87 C 158 144 125 194 88 211 C 69 222 56 240 63 260 C 73 280 106 280 128 266 C 153 251 177 219 182 170 L 358 170 C 296 230 192 285 62 312 L 70 328 C 217 317 324 272 398 214 C 424 218 436 213 442 205 Z M 392 843 L 388 829 C 323 847 256 865 205 878 L 205 621 C 224 618 232 609 234 598 L 168 591 C 195 588 209 578 211 574 L 211 549 L 729 549 L 729 578 L 739 578 C 759 578 792 564 793 558 L 793 380 C 810 377 825 369 831 362 L 754 305 L 719 341 L 491 341 L 500 370 L 729 370 L 729 431 L 514 431 L 523 461 L 729 461 L 729 520 L 211 520 L 211 464 L 439 464 C 453 464 463 459 465 448 C 437 422 393 390 393 390 L 355 435 L 211 435 L 211 385 C 290 373 374 351 427 332 C 449 340 465 340 474 331 L 403 273 C 364 298 293 333 225 356 L 149 332 L 149 588 L 145 588 L 145 857 C 145 873 141 879 113 897 L 160 967 C 167 963 175 954 178 942 C 266 905 350 864 392 843 Z M 259 700 L 249 711 C 289 727 334 762 350 795 C 404 818 422 711 259 700 Z M 265 608 L 257 620 C 295 634 340 663 359 691 C 412 712 427 607 265 608 Z M 690 840 L 685 826 C 621 843 555 860 504 873 L 504 615 C 523 612 531 603 533 592 L 444 582 L 444 855 C 444 870 440 877 412 894 L 459 964 C 466 960 474 951 478 938 C 565 901 646 861 690 840 Z M 544 700 L 536 711 C 577 728 625 762 642 796 C 699 820 715 707 544 700 Z M 550 605 L 542 617 C 585 630 633 662 653 693 C 710 715 720 603 550 605 Z M 931 902 L 939 824 L 927 822 C 920 841 910 867 903 882 C 898 892 893 892 883 887 C 793 854 784 718 784 626 C 802 623 811 614 813 602 L 717 593 C 720 737 732 903 865 953 C 901 968 940 972 951 945 C 957 934 949 917 931 902 Z" fill="red" fill-opacity="0.5" /><text text-anchor="middle" x="500" y="1064" font-family="Arial" font-size="64">Source Han Serif TW</text><text text-anchor="middle" x="1500" y="1064" font-family="Arial" font-size="64">HKSerif (uni7AC4HK-regular)</text></svg>