<svg width="3000" height="1080" xmlns="http://www.w3.org/2000/svg" style="background:#fff"><path d="M 308 776 L 180 776 L 180 466 L 308 466 L 308 776 Z M 409 458 L 332 398 L 298 437 L 193 437 L 168 426 C 201 346 224 259 240 169 L 395 169 C 409 169 418 164 420 153 C 389 123 337 83 337 83 L 291 140 L 43 140 L 51 169 L 173 169 C 149 332 103 504 31 635 L 46 647 C 74 611 99 571 121 529 L 121 921 L 131 921 C 160 921 180 905 180 900 L 180 806 L 308 806 L 308 871 L 317 871 C 337 871 367 858 368 852 L 368 478 C 387 474 403 466 409 458 Z M 606 683 L 599 670 C 512 715 423 758 385 774 L 437 847 C 446 842 452 831 453 819 C 520 761 572 713 606 683 Z M 445 480 L 434 488 C 466 523 505 583 515 628 C 574 673 626 556 445 480 Z M 746 676 L 739 687 C 816 730 866 802 899 853 C 971 893 983 726 746 676 Z M 928 521 L 853 465 C 822 507 769 578 732 619 L 740 629 C 788 600 858 554 895 526 C 914 531 923 529 928 521 Z M 741 290 L 521 290 C 537 255 553 212 569 171 L 779 171 L 741 290 Z M 884 346 L 840 404 L 772 404 L 843 177 C 862 176 871 174 878 166 L 812 107 L 778 141 L 580 141 C 587 121 592 104 597 87 C 624 88 634 76 637 64 L 544 46 C 529 103 492 208 464 275 C 448 280 429 287 419 294 L 487 353 L 520 320 L 732 320 L 706 404 L 392 404 L 400 434 L 632 434 L 632 862 C 632 876 628 881 611 881 C 592 881 506 874 506 874 L 506 891 C 546 895 568 902 581 913 C 592 922 597 937 598 954 C 681 945 692 913 692 864 L 692 434 L 940 434 C 954 434 963 429 966 418 C 935 387 884 346 884 346 Z" fill="blue" /><path transform="translate(1000)" d="M 308 776 L 180 776 L 180 466 L 308 466 L 308 776 Z M 409 458 L 332 398 L 298 437 L 193 437 L 168 426 C 201 346 224 259 240 169 L 395 169 C 409 169 418 164 420 153 C 389 123 337 83 337 83 L 291 140 L 43 140 L 51 169 L 173 169 C 149 332 103 504 31 635 L 46 647 C 74 611 99 571 121 529 L 121 921 L 131 921 C 160 921 180 905 180 900 L 180 806 L 308 806 L 308 871 L 317 871 C 337 871 367 858 368 852 L 368 478 C 387 474 403 466 409 458 Z M 725 290 L 529 290 C 545 255 561 212 577 171 L 763 171 L 725 290 Z M 884 346 L 840 404 L 756 404 L 827 177 C 846 176 855 174 862 166 L 796 107 L 762 141 L 588 141 C 595 121 600 104 605 87 C 632 88 642 76 645 64 L 552 46 C 537 103 500 208 472 275 C 456 280 437 287 427 294 L 495 353 L 528 320 L 716 320 L 690 404 L 392 404 L 400 434 L 634 434 L 634 655 C 524 718 413 778 369 799 L 423 872 C 431 867 437 855 437 844 C 522 775 587 716 634 675 L 634 861 C 634 875 629 880 612 880 C 592 880 493 873 493 873 L 493 888 C 538 894 562 902 577 913 C 589 922 595 939 596 958 C 685 949 697 914 697 862 L 697 507 C 735 701 807 801 914 882 C 924 853 942 832 966 827 L 968 818 C 892 777 821 722 768 631 C 815 597 876 551 911 523 C 931 529 940 526 945 518 L 870 463 C 842 503 796 567 758 613 C 733 565 712 506 699 434 L 940 434 C 954 434 963 429 966 418 C 935 387 884 346 884 346 Z M 427 493 L 417 501 C 453 534 498 592 514 636 C 578 678 630 554 427 493 Z" fill="red" /><path transform="translate(2000)" d="M 308 776 L 180 776 L 180 466 L 308 466 L 308 776 Z M 409 458 L 332 398 L 298 437 L 193 437 L 168 426 C 201 346 224 259 240 169 L 395 169 C 409 169 418 164 420 153 C 389 123 337 83 337 83 L 291 140 L 43 140 L 51 169 L 173 169 C 149 332 103 504 31 635 L 46 647 C 74 611 99 571 121 529 L 121 921 L 131 921 C 160 921 180 905 180 900 L 180 806 L 308 806 L 308 871 L 317 871 C 337 871 367 858 368 852 L 368 478 C 387 474 403 466 409 458 Z M 606 683 L 599 670 C 512 715 423 758 385 774 L 437 847 C 446 842 452 831 453 819 C 520 761 572 713 606 683 Z M 445 480 L 434 488 C 466 523 505 583 515 628 C 574 673 626 556 445 480 Z M 746 676 L 739 687 C 816 730 866 802 899 853 C 971 893 983 726 746 676 Z M 928 521 L 853 465 C 822 507 769 578 732 619 L 740 629 C 788 600 858 554 895 526 C 914 531 923 529 928 521 Z M 741 290 L 521 290 C 537 255 553 212 569 171 L 779 171 L 741 290 Z M 884 346 L 840 404 L 772 404 L 843 177 C 862 176 871 174 878 166 L 812 107 L 778 141 L 580 141 C 587 121 592 104 597 87 C 624 88 634 76 637 64 L 544 46 C 529 103 492 208 464 275 C 448 280 429 287 419 294 L 487 353 L 520 320 L 732 320 L 706 404 L 392 404 L 400 434 L 632 434 L 632 862 C 632 876 628 881 611 881 C 592 881 506 874 506 874 L 506 891 C 546 895 568 902 581 913 C 592 922 597 937 598 954 C 681 945 692 913 692 864 L 692 434 L 940 434 C 954 434 963 429 966 418 C 935 387 884 346 884 346 Z" fill="blue" fill-opacity="0.5" /><path transform="translate(2000)" d="M 308 776 L 180 776 L 180 466 L 308 466 L 308 776 Z M 409 458 L 332 398 L 298 437 L 193 437 L 168 426 C 201 346 224 259 240 169 L 395 169 C 409 169 418 164 420 153 C 389 123 337 83 337 83 L 291 140 L 43 140 L 51 169 L 173 169 C 149 332 103 504 31 635 L 46 647 C 74 611 99 571 121 529 L 121 921 L 131 921 C 160 921 180 905 180 900 L 180 806 L 308 806 L 308 871 L 317 871 C 337 871 367 858 368 852 L 368 478 C 387 474 403 466 409 458 Z M 725 290 L 529 290 C 545 255 561 212 577 171 L 763 171 L 725 290 Z M 884 346 L 840 404 L 756 404 L 827 177 C 846 176 855 174 862 166 L 796 107 L 762 141 L 588 141 C 595 121 600 104 605 87 C 632 88 642 76 645 64 L 552 46 C 537 103 500 208 472 275 C 456 280 437 287 427 294 L 495 353 L 528 320 L 716 320 L 690 404 L 392 404 L 400 434 L 634 434 L 634 655 C 524 718 413 778 369 799 L 423 872 C 431 867 437 855 437 844 C 522 775 587 716 634 675 L 634 861 C 634 875 629 880 612 880 C 592 880 493 873 493 873 L 493 888 C 538 894 562 902 577 913 C 589 922 595 939 596 958 C 685 949 697 914 697 862 L 697 507 C 735 701 807 801 914 882 C 924 853 942 832 966 827 L 968 818 C 892 777 821 722 768 631 C 815 597 876 551 911 523 C 931 529 940 526 945 518 L 870 463 C 842 503 796 567 758 613 C 733 565 712 506 699 434 L 940 434 C 954 434 963 429 966 418 C 935 387 884 346 884 346 Z M 427 493 L 417 501 C 453 534 498 592 514 636 C 578 678 630 554 427 493 Z" fill="red" fill-opacity="0.5" /><text text-anchor="middle" x="500" y="1064" font-family="Arial" font-size="64">Source Han Serif TW</text><text text-anchor="middle" x="1500" y="1064" font-family="Arial" font-size="64">HKSerif (uni788CHK-regular)</text></svg>