<svg width="3000" height="1080" xmlns="http://www.w3.org/2000/svg" style="background:#fff"><path d="M 604 34 L 593 42 C 623 69 655 119 659 159 C 719 206 777 81 604 34 Z M 463 207 L 861 207 C 856 234 850 264 844 284 L 858 292 C 883 273 914 241 930 218 C 949 217 960 215 968 208 L 894 136 L 854 177 L 462 177 C 460 163 457 149 453 135 L 435 134 C 437 171 415 217 395 235 C 377 248 366 269 376 287 C 388 308 419 304 435 289 C 450 274 462 244 463 207 Z M 284 758 L 137 758 L 137 570 L 284 570 L 284 758 Z M 284 359 L 284 540 L 137 540 L 137 359 L 284 359 Z M 137 153 L 284 153 L 284 329 L 137 329 L 137 153 Z M 388 145 L 310 84 L 274 124 L 141 124 L 77 92 L 77 905 L 88 905 C 115 905 137 889 137 881 L 137 788 L 284 788 L 284 859 L 293 859 C 314 859 344 843 345 836 L 345 165 C 365 161 382 153 388 145 Z M 809 859 L 501 859 L 501 696 L 809 696 L 809 859 Z M 835 630 L 800 667 L 506 667 L 437 637 L 437 958 L 448 958 C 473 958 501 944 501 938 L 501 889 L 809 889 L 809 949 L 819 949 C 840 949 871 935 872 929 L 872 707 C 890 703 905 695 911 688 L 835 630 Z M 885 514 L 839 570 L 685 570 L 685 479 L 877 479 C 891 479 901 474 903 463 C 872 433 821 393 821 393 L 777 449 L 685 449 L 685 345 C 727 338 767 331 799 324 C 820 333 836 333 843 326 L 785 269 C 758 279 723 290 685 299 L 685 257 C 708 254 716 243 719 230 L 623 219 L 623 315 C 560 329 491 342 428 349 L 432 368 C 495 367 561 361 623 353 L 623 449 L 412 449 L 420 479 L 623 479 L 623 570 L 372 570 L 380 600 L 941 600 C 954 600 964 595 967 584 C 935 553 885 514 885 514 Z" fill="blue" /><path transform="translate(1000)" d="M 591 34 L 580 42 C 608 69 639 116 643 156 C 703 202 760 80 591 34 Z M 270 758 L 137 758 L 137 570 L 270 570 L 270 758 Z M 137 153 L 270 153 L 270 329 L 137 329 L 137 153 Z M 270 359 L 270 540 L 137 540 L 137 359 L 270 359 Z M 372 145 L 296 84 L 260 124 L 142 124 L 77 92 L 77 905 L 88 905 C 115 905 137 890 137 882 L 137 788 L 270 788 L 270 860 L 279 860 C 300 860 329 843 330 836 L 330 165 C 350 161 366 153 372 145 Z M 446 202 L 868 202 C 862 225 853 250 846 268 L 860 276 C 885 260 917 232 934 212 C 953 211 964 209 971 202 L 902 135 L 865 172 L 444 172 C 442 158 438 144 433 129 L 416 129 C 420 160 401 203 383 220 C 363 233 351 255 361 275 C 374 297 406 295 422 279 C 437 264 447 237 446 202 Z M 797 859 L 497 859 L 497 695 L 797 695 L 797 859 Z M 822 628 L 787 665 L 502 665 L 435 635 L 435 957 L 444 957 C 470 957 497 944 497 937 L 497 889 L 797 889 L 797 948 L 806 948 C 827 948 858 934 859 928 L 859 705 C 877 701 892 693 898 686 L 822 628 Z M 891 314 L 827 253 C 788 267 734 281 674 295 L 674 252 C 698 249 706 240 708 226 L 612 216 L 612 308 C 544 321 472 332 407 339 L 412 357 C 478 356 546 351 612 345 L 612 428 L 399 428 L 407 456 L 612 456 L 612 542 L 365 542 L 373 571 L 612 571 L 612 636 L 624 636 C 646 636 674 623 674 616 L 674 571 L 936 571 C 950 571 960 566 962 555 C 932 525 879 485 879 485 L 836 542 L 674 542 L 674 456 L 878 456 C 892 456 901 451 904 440 C 872 411 823 371 823 371 L 779 428 L 674 428 L 674 338 C 737 331 796 321 844 312 C 866 321 882 321 891 314 Z" fill="red" /><path transform="translate(2000)" d="M 604 34 L 593 42 C 623 69 655 119 659 159 C 719 206 777 81 604 34 Z M 463 207 L 861 207 C 856 234 850 264 844 284 L 858 292 C 883 273 914 241 930 218 C 949 217 960 215 968 208 L 894 136 L 854 177 L 462 177 C 460 163 457 149 453 135 L 435 134 C 437 171 415 217 395 235 C 377 248 366 269 376 287 C 388 308 419 304 435 289 C 450 274 462 244 463 207 Z M 284 758 L 137 758 L 137 570 L 284 570 L 284 758 Z M 284 359 L 284 540 L 137 540 L 137 359 L 284 359 Z M 137 153 L 284 153 L 284 329 L 137 329 L 137 153 Z M 388 145 L 310 84 L 274 124 L 141 124 L 77 92 L 77 905 L 88 905 C 115 905 137 889 137 881 L 137 788 L 284 788 L 284 859 L 293 859 C 314 859 344 843 345 836 L 345 165 C 365 161 382 153 388 145 Z M 809 859 L 501 859 L 501 696 L 809 696 L 809 859 Z M 835 630 L 800 667 L 506 667 L 437 637 L 437 958 L 448 958 C 473 958 501 944 501 938 L 501 889 L 809 889 L 809 949 L 819 949 C 840 949 871 935 872 929 L 872 707 C 890 703 905 695 911 688 L 835 630 Z M 885 514 L 839 570 L 685 570 L 685 479 L 877 479 C 891 479 901 474 903 463 C 872 433 821 393 821 393 L 777 449 L 685 449 L 685 345 C 727 338 767 331 799 324 C 820 333 836 333 843 326 L 785 269 C 758 279 723 290 685 299 L 685 257 C 708 254 716 243 719 230 L 623 219 L 623 315 C 560 329 491 342 428 349 L 432 368 C 495 367 561 361 623 353 L 623 449 L 412 449 L 420 479 L 623 479 L 623 570 L 372 570 L 380 600 L 941 600 C 954 600 964 595 967 584 C 935 553 885 514 885 514 Z" fill="blue" fill-opacity="0.5" /><path transform="translate(2000)" d="M 591 34 L 580 42 C 608 69 639 116 643 156 C 703 202 760 80 591 34 Z M 270 758 L 137 758 L 137 570 L 270 570 L 270 758 Z M 137 153 L 270 153 L 270 329 L 137 329 L 137 153 Z M 270 359 L 270 540 L 137 540 L 137 359 L 270 359 Z M 372 145 L 296 84 L 260 124 L 142 124 L 77 92 L 77 905 L 88 905 C 115 905 137 890 137 882 L 137 788 L 270 788 L 270 860 L 279 860 C 300 860 329 843 330 836 L 330 165 C 350 161 366 153 372 145 Z M 446 202 L 868 202 C 862 225 853 250 846 268 L 860 276 C 885 260 917 232 934 212 C 953 211 964 209 971 202 L 902 135 L 865 172 L 444 172 C 442 158 438 144 433 129 L 416 129 C 420 160 401 203 383 220 C 363 233 351 255 361 275 C 374 297 406 295 422 279 C 437 264 447 237 446 202 Z M 797 859 L 497 859 L 497 695 L 797 695 L 797 859 Z M 822 628 L 787 665 L 502 665 L 435 635 L 435 957 L 444 957 C 470 957 497 944 497 937 L 497 889 L 797 889 L 797 948 L 806 948 C 827 948 858 934 859 928 L 859 705 C 877 701 892 693 898 686 L 822 628 Z M 891 314 L 827 253 C 788 267 734 281 674 295 L 674 252 C 698 249 706 240 708 226 L 612 216 L 612 308 C 544 321 472 332 407 339 L 412 357 C 478 356 546 351 612 345 L 612 428 L 399 428 L 407 456 L 612 456 L 612 542 L 365 542 L 373 571 L 612 571 L 612 636 L 624 636 C 646 636 674 623 674 616 L 674 571 L 936 571 C 950 571 960 566 962 555 C 932 525 879 485 879 485 L 836 542 L 674 542 L 674 456 L 878 456 C 892 456 901 451 904 440 C 872 411 823 371 823 371 L 779 428 L 674 428 L 674 338 C 737 331 796 321 844 312 C 866 321 882 321 891 314 Z" fill="red" fill-opacity="0.5" /><text text-anchor="middle" x="500" y="1064" font-family="Arial" font-size="64">Source Han Serif TW</text><text text-anchor="middle" x="1500" y="1064" font-family="Arial" font-size="64">HKSerif (uni778EHK-regular)</text></svg>