<svg width="1000" height="1000" xmlns="http://www.w3.org/2000/svg"><path d="M 399 570 L 330 509 L 292 547 L 198 547 C 235 500 283 437 312 394 C 337 394 358 389 368 378 L 293 311 L 257 349 L 79 349 L 88 378 L 251 378 C 219 425 174 488 138 531 C 124 535 108 541 99 546 L 154 599 L 184 576 L 297 576 C 283 646 260 711 225 770 C 188 735 157 688 131 624 L 117 633 C 142 704 171 757 206 799 C 165 857 111 907 37 947 L 45 962 C 128 929 191 884 238 830 C 325 907 446 926 622 926 L 916 926 C 919 901 933 881 961 876 L 961 862 C 879 864 703 864 627 864 C 465 864 349 854 264 800 C 311 735 342 662 361 583 C 382 582 392 579 399 570 Z" fill="black" /><path d="M 208 181 L 267 181 C 294 212 321 260 324 299 C 377 343 434 244 305 181 L 495 181 C 508 181 517 176 520 165 C 491 136 445 100 445 100 L 404 151 L 227 151 C 239 131 251 111 261 90 C 282 92 293 83 298 72 L 202 38 C 165 152 104 264 45 332 L 59 343 C 113 303 164 247 208 181 Z" fill="black" /><path d="M 384 399 L 389 418 C 465 416 545 410 621 401 L 621 747 L 503 747 L 503 507 C 528 503 538 494 540 480 L 442 469 L 442 747 L 375 747 L 383 777 L 903 777 C 917 777 927 772 929 761 C 896 728 841 684 841 684 L 794 747 L 683 747 L 683 566 L 865 566 C 879 566 888 561 890 550 C 860 522 810 483 810 483 L 768 536 L 683 536 L 683 393 C 742 385 798 375 843 366 C 866 376 884 376 891 369 L 823 301 C 725 338 537 381 384 399 Z" fill="black" /><path d="M 472 302 L 485 312 C 527 279 566 233 601 181 L 670 181 C 697 209 722 252 726 288 C 780 329 832 234 718 181 L 934 181 C 948 181 958 176 961 165 C 928 134 877 94 877 94 L 830 151 L 620 151 C 632 131 643 111 653 90 C 674 92 685 83 690 72 L 592 39 C 564 139 518 239 472 302 Z" fill="black" /></svg>