<svg width="3000" height="1080" xmlns="http://www.w3.org/2000/svg" style="background:#fff"><path d="M 120 48 L 108 54 C 141 100 179 174 181 231 C 241 287 305 149 120 48 Z M 328 510 L 217 510 L 217 508 L 217 287 L 328 287 L 328 510 Z M 390 540 L 503 540 C 517 540 527 535 529 524 C 499 495 452 456 452 456 L 409 510 L 390 510 L 390 287 L 486 287 C 500 287 510 282 513 271 C 482 243 433 203 433 203 L 390 257 L 316 257 C 359 204 400 140 427 93 C 447 94 459 87 463 75 L 360 41 C 344 105 317 193 291 257 L 53 257 L 61 287 L 156 287 L 156 509 L 156 510 L 42 510 L 49 540 L 156 540 C 154 680 139 828 41 946 L 54 958 C 194 845 215 684 217 540 L 328 540 L 328 957 L 338 957 C 370 957 390 942 390 937 L 390 540 Z M 946 884 L 960 744 L 949 742 C 941 771 931 805 919 837 C 915 849 912 850 905 840 C 862 766 851 521 859 354 C 878 351 893 345 899 339 L 821 272 L 783 314 L 620 314 C 624 256 627 202 630 155 L 933 155 C 946 155 955 150 958 139 C 926 108 873 68 873 68 L 826 126 L 480 126 L 488 155 L 568 155 C 564 337 535 675 509 848 C 476 856 448 862 428 866 L 470 948 C 479 945 487 935 491 923 C 624 869 721 823 791 790 L 788 775 C 712 796 637 816 574 832 C 591 696 607 507 619 342 L 791 342 C 792 562 800 800 865 905 C 887 942 927 970 953 951 C 966 940 962 920 946 884 Z M 645 447 L 630 453 C 662 509 696 597 694 666 C 748 722 810 585 645 447 Z" fill="blue" /><path transform="translate(1000)" d="M 120 48 L 108 54 C 141 100 179 174 181 231 C 241 287 305 149 120 48 Z M 328 510 L 217 510 L 217 508 L 217 287 L 328 287 L 328 510 Z M 390 540 L 503 540 C 517 540 527 535 529 524 C 499 495 452 456 452 456 L 409 510 L 390 510 L 390 287 L 486 287 C 500 287 510 282 513 271 C 482 243 433 203 433 203 L 390 257 L 316 257 C 359 204 400 140 427 93 C 447 94 459 87 463 75 L 360 41 C 344 105 317 193 291 257 L 53 257 L 61 287 L 156 287 L 156 509 L 156 510 L 42 510 L 49 540 L 156 540 C 154 680 139 828 41 946 L 54 958 C 194 845 215 684 217 540 L 328 540 L 328 957 L 338 957 C 370 957 390 942 390 937 L 390 540 Z M 648 445 L 635 450 C 665 506 696 595 693 663 C 747 720 811 583 648 445 Z M 949 872 L 946 774 L 933 774 C 926 812 916 859 910 869 C 907 875 904 876 899 876 C 894 877 886 877 876 877 L 872 877 C 860 877 858 872 858 859 L 858 350 C 880 347 891 341 897 335 L 822 268 L 785 309 L 618 309 C 621 253 624 201 626 155 L 932 155 C 946 155 954 150 957 139 C 925 108 872 68 872 68 L 825 126 L 482 126 L 490 155 L 565 155 C 562 337 536 675 511 848 C 478 855 451 860 431 863 L 471 948 C 481 945 489 936 492 924 C 627 877 727 835 803 805 L 803 784 C 722 803 642 821 575 835 C 591 697 606 505 616 339 L 795 339 L 795 878 C 795 918 803 938 854 938 L 874 938 C 950 938 973 925 973 899 C 973 886 967 879 949 872 Z" fill="red" /><path transform="translate(2000)" d="M 120 48 L 108 54 C 141 100 179 174 181 231 C 241 287 305 149 120 48 Z M 328 510 L 217 510 L 217 508 L 217 287 L 328 287 L 328 510 Z M 390 540 L 503 540 C 517 540 527 535 529 524 C 499 495 452 456 452 456 L 409 510 L 390 510 L 390 287 L 486 287 C 500 287 510 282 513 271 C 482 243 433 203 433 203 L 390 257 L 316 257 C 359 204 400 140 427 93 C 447 94 459 87 463 75 L 360 41 C 344 105 317 193 291 257 L 53 257 L 61 287 L 156 287 L 156 509 L 156 510 L 42 510 L 49 540 L 156 540 C 154 680 139 828 41 946 L 54 958 C 194 845 215 684 217 540 L 328 540 L 328 957 L 338 957 C 370 957 390 942 390 937 L 390 540 Z M 946 884 L 960 744 L 949 742 C 941 771 931 805 919 837 C 915 849 912 850 905 840 C 862 766 851 521 859 354 C 878 351 893 345 899 339 L 821 272 L 783 314 L 620 314 C 624 256 627 202 630 155 L 933 155 C 946 155 955 150 958 139 C 926 108 873 68 873 68 L 826 126 L 480 126 L 488 155 L 568 155 C 564 337 535 675 509 848 C 476 856 448 862 428 866 L 470 948 C 479 945 487 935 491 923 C 624 869 721 823 791 790 L 788 775 C 712 796 637 816 574 832 C 591 696 607 507 619 342 L 791 342 C 792 562 800 800 865 905 C 887 942 927 970 953 951 C 966 940 962 920 946 884 Z M 645 447 L 630 453 C 662 509 696 597 694 666 C 748 722 810 585 645 447 Z" fill="blue" fill-opacity="0.5" /><path transform="translate(2000)" d="M 120 48 L 108 54 C 141 100 179 174 181 231 C 241 287 305 149 120 48 Z M 328 510 L 217 510 L 217 508 L 217 287 L 328 287 L 328 510 Z M 390 540 L 503 540 C 517 540 527 535 529 524 C 499 495 452 456 452 456 L 409 510 L 390 510 L 390 287 L 486 287 C 500 287 510 282 513 271 C 482 243 433 203 433 203 L 390 257 L 316 257 C 359 204 400 140 427 93 C 447 94 459 87 463 75 L 360 41 C 344 105 317 193 291 257 L 53 257 L 61 287 L 156 287 L 156 509 L 156 510 L 42 510 L 49 540 L 156 540 C 154 680 139 828 41 946 L 54 958 C 194 845 215 684 217 540 L 328 540 L 328 957 L 338 957 C 370 957 390 942 390 937 L 390 540 Z M 648 445 L 635 450 C 665 506 696 595 693 663 C 747 720 811 583 648 445 Z M 949 872 L 946 774 L 933 774 C 926 812 916 859 910 869 C 907 875 904 876 899 876 C 894 877 886 877 876 877 L 872 877 C 860 877 858 872 858 859 L 858 350 C 880 347 891 341 897 335 L 822 268 L 785 309 L 618 309 C 621 253 624 201 626 155 L 932 155 C 946 155 954 150 957 139 C 925 108 872 68 872 68 L 825 126 L 482 126 L 490 155 L 565 155 C 562 337 536 675 511 848 C 478 855 451 860 431 863 L 471 948 C 481 945 489 936 492 924 C 627 877 727 835 803 805 L 803 784 C 722 803 642 821 575 835 C 591 697 606 505 616 339 L 795 339 L 795 878 C 795 918 803 938 854 938 L 874 938 C 950 938 973 925 973 899 C 973 886 967 879 949 872 Z" fill="red" fill-opacity="0.5" /><text text-anchor="middle" x="500" y="1064" font-family="Arial" font-size="64">Source Han Serif KR</text><text text-anchor="middle" x="1500" y="1064" font-family="Arial" font-size="64">HKSerif (uni74F6KX-regular)</text></svg>