<svg width="3000" height="1080" xmlns="http://www.w3.org/2000/svg" style="background:#fff"><path d="M 49 224 L 35 229 C 64 294 101 394 104 469 C 161 527 218 386 49 224 Z M 441 261 L 355 217 C 336 261 297 339 260 405 C 263 309 262 202 263 83 C 286 79 295 70 298 55 L 199 44 C 199 497 222 770 35 944 L 49 961 C 157 882 210 781 236 650 C 285 703 338 775 354 833 C 419 882 465 741 240 626 C 250 570 255 508 258 441 C 314 388 373 317 404 275 C 424 279 437 270 441 261 Z M 515 385 L 805 385 L 805 601 L 515 601 L 515 385 Z M 882 834 L 840 886 L 515 886 L 515 632 L 805 632 L 805 683 L 818 683 C 840 683 865 669 867 665 L 867 394 C 883 392 897 384 904 376 L 838 319 L 806 354 L 805 354 L 805 355 L 515 355 L 515 138 L 919 138 C 933 138 943 133 945 122 C 915 93 869 57 869 57 L 828 109 L 367 109 L 375 138 L 452 138 L 452 886 L 363 886 L 371 916 L 934 916 C 948 916 958 911 960 900 C 930 870 882 834 882 834 Z" fill="blue" /><path transform="translate(1000)" d="M 137 259 L 121 259 C 123 358 88 422 66 443 C 13 486 58 532 104 495 C 148 460 163 380 137 259 Z M 454 285 L 367 228 C 349 267 309 339 274 391 C 277 298 276 195 277 81 C 301 77 310 68 312 53 L 213 42 C 213 493 236 765 39 940 L 53 958 C 163 882 219 784 246 659 C 299 711 356 787 371 848 C 440 901 487 749 251 638 C 264 572 270 499 273 417 C 327 378 386 326 417 294 C 436 300 450 293 454 285 Z M 527 385 L 805 385 L 805 601 L 527 601 L 527 385 Z M 882 834 L 840 886 L 527 886 L 527 632 L 805 632 L 805 683 L 818 683 C 840 683 865 669 867 665 L 867 394 C 883 392 897 384 904 376 L 838 319 L 806 354 L 805 354 L 805 355 L 527 355 L 527 138 L 919 138 C 933 138 943 133 945 122 C 915 93 869 57 869 57 L 828 109 L 375 109 L 383 138 L 464 138 L 464 886 L 359 886 L 367 916 L 934 916 C 948 916 958 911 960 900 C 930 870 882 834 882 834 Z" fill="red" /><path transform="translate(2000)" d="M 49 224 L 35 229 C 64 294 101 394 104 469 C 161 527 218 386 49 224 Z M 441 261 L 355 217 C 336 261 297 339 260 405 C 263 309 262 202 263 83 C 286 79 295 70 298 55 L 199 44 C 199 497 222 770 35 944 L 49 961 C 157 882 210 781 236 650 C 285 703 338 775 354 833 C 419 882 465 741 240 626 C 250 570 255 508 258 441 C 314 388 373 317 404 275 C 424 279 437 270 441 261 Z M 515 385 L 805 385 L 805 601 L 515 601 L 515 385 Z M 882 834 L 840 886 L 515 886 L 515 632 L 805 632 L 805 683 L 818 683 C 840 683 865 669 867 665 L 867 394 C 883 392 897 384 904 376 L 838 319 L 806 354 L 805 354 L 805 355 L 515 355 L 515 138 L 919 138 C 933 138 943 133 945 122 C 915 93 869 57 869 57 L 828 109 L 367 109 L 375 138 L 452 138 L 452 886 L 363 886 L 371 916 L 934 916 C 948 916 958 911 960 900 C 930 870 882 834 882 834 Z" fill="blue" fill-opacity="0.5" /><path transform="translate(2000)" d="M 137 259 L 121 259 C 123 358 88 422 66 443 C 13 486 58 532 104 495 C 148 460 163 380 137 259 Z M 454 285 L 367 228 C 349 267 309 339 274 391 C 277 298 276 195 277 81 C 301 77 310 68 312 53 L 213 42 C 213 493 236 765 39 940 L 53 958 C 163 882 219 784 246 659 C 299 711 356 787 371 848 C 440 901 487 749 251 638 C 264 572 270 499 273 417 C 327 378 386 326 417 294 C 436 300 450 293 454 285 Z M 527 385 L 805 385 L 805 601 L 527 601 L 527 385 Z M 882 834 L 840 886 L 527 886 L 527 632 L 805 632 L 805 683 L 818 683 C 840 683 865 669 867 665 L 867 394 C 883 392 897 384 904 376 L 838 319 L 806 354 L 805 354 L 805 355 L 527 355 L 527 138 L 919 138 C 933 138 943 133 945 122 C 915 93 869 57 869 57 L 828 109 L 375 109 L 383 138 L 464 138 L 464 886 L 359 886 L 367 916 L 934 916 C 948 916 958 911 960 900 C 930 870 882 834 882 834 Z" fill="red" fill-opacity="0.5" /><text text-anchor="middle" x="500" y="1064" font-family="Arial" font-size="64">Source Han Serif TW</text><text text-anchor="middle" x="1500" y="1064" font-family="Arial" font-size="64">HKSerif (uni70ACHK-regular)</text></svg>