<svg width="3000" height="1080" xmlns="http://www.w3.org/2000/svg" style="background:#fff"><path d="M 68 225 L 55 230 C 82 278 109 353 105 413 C 161 471 230 338 68 225 Z M 248 446 L 248 177 L 933 177 C 947 177 955 173 958 162 C 926 131 873 90 873 90 L 827 148 L 581 148 L 581 79 C 604 75 613 66 614 53 L 517 43 L 517 148 L 260 148 L 187 111 L 187 447 C 187 468 187 488 186 509 C 118 549 55 584 27 597 L 70 677 C 79 672 85 660 86 648 C 125 606 159 567 185 538 C 179 687 151 829 52 943 L 67 954 C 233 820 248 619 248 446 Z M 558 657 L 475 657 L 475 528 L 558 528 L 558 657 Z M 612 528 L 696 528 L 696 657 L 612 657 L 612 528 Z M 681 748 L 669 753 C 684 772 700 797 714 823 C 680 826 645 828 612 831 L 612 686 L 696 686 L 696 722 L 704 722 C 726 722 748 709 748 705 L 748 530 C 767 527 777 522 783 515 L 719 467 L 693 499 L 612 499 L 612 408 C 652 404 688 399 718 393 C 738 402 755 403 763 396 L 704 335 C 639 359 517 390 416 403 L 420 422 C 465 421 512 418 558 414 L 558 499 L 487 499 L 424 470 L 424 739 L 431 739 C 458 739 475 726 475 721 L 475 686 L 558 686 L 558 835 C 476 841 407 845 366 847 L 403 923 C 413 921 422 916 428 903 C 557 879 653 857 725 842 C 737 868 747 894 751 917 C 808 966 862 843 681 748 Z M 953 877 L 969 734 L 956 733 C 949 763 939 797 928 831 C 923 842 920 843 912 834 C 864 755 852 492 860 310 C 880 308 894 301 901 294 L 826 230 L 789 268 L 392 268 L 323 235 L 323 486 C 323 645 310 810 206 943 L 220 954 C 369 824 380 633 380 485 L 380 298 L 799 298 C 799 531 807 787 877 893 C 900 929 938 956 962 938 C 975 928 970 911 953 877 Z" fill="blue" /><path transform="translate(1000)" d="M 68 225 L 55 230 C 82 278 109 353 105 413 C 161 471 230 338 68 225 Z M 248 446 L 248 177 L 933 177 C 947 177 955 173 958 162 C 926 131 873 90 873 90 L 827 148 L 581 148 L 581 79 C 604 75 613 66 614 53 L 517 43 L 517 148 L 260 148 L 187 111 L 187 447 C 187 468 187 488 186 509 C 118 549 55 584 27 597 L 70 677 C 79 672 85 660 86 648 C 125 606 159 567 185 538 C 179 687 151 829 52 943 L 67 954 C 233 820 248 619 248 446 Z M 558 657 L 475 657 L 475 528 L 558 528 L 558 657 Z M 612 528 L 696 528 L 696 657 L 612 657 L 612 528 Z M 681 748 L 669 753 C 684 772 700 797 714 823 C 680 826 645 828 612 831 L 612 686 L 696 686 L 696 722 L 704 722 C 726 722 748 709 748 705 L 748 530 C 767 527 777 522 783 515 L 719 467 L 694 500 L 612 500 L 612 399 L 757 399 C 771 399 780 394 783 383 C 756 355 713 319 713 319 L 674 369 L 398 369 L 406 399 L 558 399 L 558 500 L 482 500 L 424 470 L 424 739 L 431 739 C 458 739 475 726 475 721 L 475 686 L 558 686 L 558 835 C 476 841 407 845 366 847 L 403 923 C 413 921 422 916 428 903 C 557 879 653 857 725 842 C 737 868 747 894 751 917 C 808 966 862 843 681 748 Z M 953 877 L 969 734 L 956 733 C 949 763 939 797 928 831 C 923 842 920 843 912 834 C 864 755 852 492 860 310 C 880 308 894 301 901 294 L 826 230 L 789 268 L 392 268 L 323 235 L 323 486 C 323 645 310 810 206 943 L 220 954 C 369 824 380 633 380 485 L 380 298 L 799 298 C 799 531 807 787 877 893 C 900 929 938 956 962 938 C 975 928 970 911 953 877 Z" fill="red" /><path transform="translate(2000)" d="M 68 225 L 55 230 C 82 278 109 353 105 413 C 161 471 230 338 68 225 Z M 248 446 L 248 177 L 933 177 C 947 177 955 173 958 162 C 926 131 873 90 873 90 L 827 148 L 581 148 L 581 79 C 604 75 613 66 614 53 L 517 43 L 517 148 L 260 148 L 187 111 L 187 447 C 187 468 187 488 186 509 C 118 549 55 584 27 597 L 70 677 C 79 672 85 660 86 648 C 125 606 159 567 185 538 C 179 687 151 829 52 943 L 67 954 C 233 820 248 619 248 446 Z M 558 657 L 475 657 L 475 528 L 558 528 L 558 657 Z M 612 528 L 696 528 L 696 657 L 612 657 L 612 528 Z M 681 748 L 669 753 C 684 772 700 797 714 823 C 680 826 645 828 612 831 L 612 686 L 696 686 L 696 722 L 704 722 C 726 722 748 709 748 705 L 748 530 C 767 527 777 522 783 515 L 719 467 L 693 499 L 612 499 L 612 408 C 652 404 688 399 718 393 C 738 402 755 403 763 396 L 704 335 C 639 359 517 390 416 403 L 420 422 C 465 421 512 418 558 414 L 558 499 L 487 499 L 424 470 L 424 739 L 431 739 C 458 739 475 726 475 721 L 475 686 L 558 686 L 558 835 C 476 841 407 845 366 847 L 403 923 C 413 921 422 916 428 903 C 557 879 653 857 725 842 C 737 868 747 894 751 917 C 808 966 862 843 681 748 Z M 953 877 L 969 734 L 956 733 C 949 763 939 797 928 831 C 923 842 920 843 912 834 C 864 755 852 492 860 310 C 880 308 894 301 901 294 L 826 230 L 789 268 L 392 268 L 323 235 L 323 486 C 323 645 310 810 206 943 L 220 954 C 369 824 380 633 380 485 L 380 298 L 799 298 C 799 531 807 787 877 893 C 900 929 938 956 962 938 C 975 928 970 911 953 877 Z" fill="blue" fill-opacity="0.5" /><path transform="translate(2000)" d="M 68 225 L 55 230 C 82 278 109 353 105 413 C 161 471 230 338 68 225 Z M 248 446 L 248 177 L 933 177 C 947 177 955 173 958 162 C 926 131 873 90 873 90 L 827 148 L 581 148 L 581 79 C 604 75 613 66 614 53 L 517 43 L 517 148 L 260 148 L 187 111 L 187 447 C 187 468 187 488 186 509 C 118 549 55 584 27 597 L 70 677 C 79 672 85 660 86 648 C 125 606 159 567 185 538 C 179 687 151 829 52 943 L 67 954 C 233 820 248 619 248 446 Z M 558 657 L 475 657 L 475 528 L 558 528 L 558 657 Z M 612 528 L 696 528 L 696 657 L 612 657 L 612 528 Z M 681 748 L 669 753 C 684 772 700 797 714 823 C 680 826 645 828 612 831 L 612 686 L 696 686 L 696 722 L 704 722 C 726 722 748 709 748 705 L 748 530 C 767 527 777 522 783 515 L 719 467 L 694 500 L 612 500 L 612 399 L 757 399 C 771 399 780 394 783 383 C 756 355 713 319 713 319 L 674 369 L 398 369 L 406 399 L 558 399 L 558 500 L 482 500 L 424 470 L 424 739 L 431 739 C 458 739 475 726 475 721 L 475 686 L 558 686 L 558 835 C 476 841 407 845 366 847 L 403 923 C 413 921 422 916 428 903 C 557 879 653 857 725 842 C 737 868 747 894 751 917 C 808 966 862 843 681 748 Z M 953 877 L 969 734 L 956 733 C 949 763 939 797 928 831 C 923 842 920 843 912 834 C 864 755 852 492 860 310 C 880 308 894 301 901 294 L 826 230 L 789 268 L 392 268 L 323 235 L 323 486 C 323 645 310 810 206 943 L 220 954 C 369 824 380 633 380 485 L 380 298 L 799 298 C 799 531 807 787 877 893 C 900 929 938 956 962 938 C 975 928 970 911 953 877 Z" fill="red" fill-opacity="0.5" /><text text-anchor="middle" x="500" y="1064" font-family="Arial" font-size="64">Source Han Serif KR</text><text text-anchor="middle" x="1500" y="1064" font-family="Arial" font-size="64">HKSerif (uni760BKX-regular)</text></svg>