<svg width="3000" height="1080" xmlns="http://www.w3.org/2000/svg" style="background:#fff"><path d="M 33 457 L 45 472 C 123 429 190 374 238 306 L 238 477 L 247 477 C 276 477 297 462 297 457 L 297 300 C 345 329 402 378 422 419 C 486 453 514 323 297 283 L 297 252 L 482 252 C 496 252 506 247 508 236 C 479 208 432 171 432 171 L 391 222 L 297 222 L 297 130 C 341 122 380 114 413 106 C 435 114 451 114 460 106 L 389 41 C 316 77 172 120 53 141 L 57 159 C 116 156 179 149 238 140 L 238 222 L 41 222 L 49 252 L 198 252 C 162 329 105 401 33 457 Z M 219 618 L 362 618 C 350 674 331 722 302 764 C 267 748 223 733 168 723 C 185 691 202 653 219 618 Z M 430 618 L 495 618 C 508 618 517 613 520 602 C 490 573 442 536 442 536 L 400 588 L 233 588 C 246 559 257 534 264 516 C 288 515 299 505 303 492 L 211 474 C 202 501 186 544 166 588 L 38 588 L 46 618 L 152 618 C 125 677 95 736 72 771 C 98 783 125 784 140 777 C 146 766 153 753 160 739 C 195 756 234 780 269 806 C 216 861 140 904 35 938 L 41 955 C 157 928 244 890 307 835 C 333 857 353 879 367 900 C 420 917 438 851 349 791 C 388 744 414 687 430 618 Z M 946 888 L 963 745 L 951 742 C 942 772 933 805 921 839 C 917 851 914 852 908 841 C 872 767 864 520 873 349 C 893 346 908 339 914 332 L 837 267 L 799 307 L 630 307 C 633 252 636 200 638 156 L 913 156 C 927 156 937 151 939 140 C 907 109 853 68 853 68 L 807 126 L 470 126 L 478 156 L 580 156 C 576 341 547 685 524 858 C 494 864 469 869 451 872 L 490 954 C 500 952 508 943 512 931 C 645 880 745 836 816 805 L 812 790 C 733 810 653 828 587 844 C 603 705 618 507 628 337 L 809 337 C 807 557 813 798 868 904 C 889 943 927 972 954 953 C 967 943 963 923 946 888 Z M 663 439 L 649 445 C 679 501 710 590 707 658 C 759 715 820 579 663 439 Z" fill="blue" /><path transform="translate(1000)" d="M 249 418 L 311 418 L 311 324 C 359 355 415 403 434 445 C 500 480 530 349 311 306 L 311 274 L 494 274 C 508 274 517 269 519 258 C 491 230 444 193 444 193 L 403 244 L 311 244 L 311 133 C 354 124 393 115 426 106 C 447 114 464 114 473 106 L 402 42 C 325 80 175 128 49 152 L 55 168 C 119 164 186 156 249 145 L 249 244 L 53 244 L 61 274 L 212 274 C 175 362 116 447 41 511 L 52 527 C 132 476 200 413 249 338 L 249 418 Z M 311 400 L 249 400 L 249 477 L 258 477 C 287 477 311 462 311 457 L 311 400 Z M 219 618 L 362 618 C 350 674 331 722 302 764 C 267 748 223 733 168 723 C 185 691 202 653 219 618 Z M 430 618 L 495 618 C 508 618 517 613 520 602 C 490 573 442 536 442 536 L 400 588 L 233 588 C 246 559 257 534 264 516 C 288 515 299 505 303 492 L 211 474 C 202 501 186 544 166 588 L 38 588 L 46 618 L 152 618 C 125 677 95 736 72 771 C 98 783 125 784 140 777 C 146 766 153 753 160 739 C 195 756 234 780 269 806 C 216 861 140 904 35 938 L 41 955 C 157 928 244 890 307 835 C 333 857 353 879 367 900 C 420 917 438 851 349 791 C 388 744 414 687 430 618 Z M 654 445 L 641 450 C 671 506 702 595 699 663 C 753 720 817 583 654 445 Z M 949 872 L 946 774 L 933 774 C 926 812 916 859 910 869 C 907 875 904 876 899 876 C 894 877 886 877 876 877 L 876 877 C 864 877 862 872 862 859 L 862 350 C 884 347 895 341 901 335 L 826 268 L 789 309 L 626 309 C 629 253 632 201 634 155 L 932 155 C 946 155 954 150 957 139 C 925 108 872 68 872 68 L 825 126 L 478 126 L 486 155 L 573 155 C 570 337 544 675 519 848 C 486 855 459 860 439 863 L 479 948 C 489 945 497 936 500 924 C 635 877 735 835 811 805 L 811 784 C 730 803 650 821 583 835 C 599 697 614 505 624 339 L 799 339 L 799 878 C 799 918 807 938 858 938 L 874 938 C 950 938 973 925 973 899 C 973 886 967 879 949 872 Z" fill="red" /><path transform="translate(2000)" d="M 33 457 L 45 472 C 123 429 190 374 238 306 L 238 477 L 247 477 C 276 477 297 462 297 457 L 297 300 C 345 329 402 378 422 419 C 486 453 514 323 297 283 L 297 252 L 482 252 C 496 252 506 247 508 236 C 479 208 432 171 432 171 L 391 222 L 297 222 L 297 130 C 341 122 380 114 413 106 C 435 114 451 114 460 106 L 389 41 C 316 77 172 120 53 141 L 57 159 C 116 156 179 149 238 140 L 238 222 L 41 222 L 49 252 L 198 252 C 162 329 105 401 33 457 Z M 219 618 L 362 618 C 350 674 331 722 302 764 C 267 748 223 733 168 723 C 185 691 202 653 219 618 Z M 430 618 L 495 618 C 508 618 517 613 520 602 C 490 573 442 536 442 536 L 400 588 L 233 588 C 246 559 257 534 264 516 C 288 515 299 505 303 492 L 211 474 C 202 501 186 544 166 588 L 38 588 L 46 618 L 152 618 C 125 677 95 736 72 771 C 98 783 125 784 140 777 C 146 766 153 753 160 739 C 195 756 234 780 269 806 C 216 861 140 904 35 938 L 41 955 C 157 928 244 890 307 835 C 333 857 353 879 367 900 C 420 917 438 851 349 791 C 388 744 414 687 430 618 Z M 946 888 L 963 745 L 951 742 C 942 772 933 805 921 839 C 917 851 914 852 908 841 C 872 767 864 520 873 349 C 893 346 908 339 914 332 L 837 267 L 799 307 L 630 307 C 633 252 636 200 638 156 L 913 156 C 927 156 937 151 939 140 C 907 109 853 68 853 68 L 807 126 L 470 126 L 478 156 L 580 156 C 576 341 547 685 524 858 C 494 864 469 869 451 872 L 490 954 C 500 952 508 943 512 931 C 645 880 745 836 816 805 L 812 790 C 733 810 653 828 587 844 C 603 705 618 507 628 337 L 809 337 C 807 557 813 798 868 904 C 889 943 927 972 954 953 C 967 943 963 923 946 888 Z M 663 439 L 649 445 C 679 501 710 590 707 658 C 759 715 820 579 663 439 Z" fill="blue" fill-opacity="0.5" /><path transform="translate(2000)" d="M 249 418 L 311 418 L 311 324 C 359 355 415 403 434 445 C 500 480 530 349 311 306 L 311 274 L 494 274 C 508 274 517 269 519 258 C 491 230 444 193 444 193 L 403 244 L 311 244 L 311 133 C 354 124 393 115 426 106 C 447 114 464 114 473 106 L 402 42 C 325 80 175 128 49 152 L 55 168 C 119 164 186 156 249 145 L 249 244 L 53 244 L 61 274 L 212 274 C 175 362 116 447 41 511 L 52 527 C 132 476 200 413 249 338 L 249 418 Z M 311 400 L 249 400 L 249 477 L 258 477 C 287 477 311 462 311 457 L 311 400 Z M 219 618 L 362 618 C 350 674 331 722 302 764 C 267 748 223 733 168 723 C 185 691 202 653 219 618 Z M 430 618 L 495 618 C 508 618 517 613 520 602 C 490 573 442 536 442 536 L 400 588 L 233 588 C 246 559 257 534 264 516 C 288 515 299 505 303 492 L 211 474 C 202 501 186 544 166 588 L 38 588 L 46 618 L 152 618 C 125 677 95 736 72 771 C 98 783 125 784 140 777 C 146 766 153 753 160 739 C 195 756 234 780 269 806 C 216 861 140 904 35 938 L 41 955 C 157 928 244 890 307 835 C 333 857 353 879 367 900 C 420 917 438 851 349 791 C 388 744 414 687 430 618 Z M 654 445 L 641 450 C 671 506 702 595 699 663 C 753 720 817 583 654 445 Z M 949 872 L 946 774 L 933 774 C 926 812 916 859 910 869 C 907 875 904 876 899 876 C 894 877 886 877 876 877 L 876 877 C 864 877 862 872 862 859 L 862 350 C 884 347 895 341 901 335 L 826 268 L 789 309 L 626 309 C 629 253 632 201 634 155 L 932 155 C 946 155 954 150 957 139 C 925 108 872 68 872 68 L 825 126 L 478 126 L 486 155 L 573 155 C 570 337 544 675 519 848 C 486 855 459 860 439 863 L 479 948 C 489 945 497 936 500 924 C 635 877 735 835 811 805 L 811 784 C 730 803 650 821 583 835 C 599 697 614 505 624 339 L 799 339 L 799 878 C 799 918 807 938 858 938 L 874 938 C 950 938 973 925 973 899 C 973 886 967 879 949 872 Z" fill="red" fill-opacity="0.5" /><text text-anchor="middle" x="500" y="1064" font-family="Arial" font-size="64">Source Han Serif KR</text><text text-anchor="middle" x="1500" y="1064" font-family="Arial" font-size="64">HKSerif (uni74FEKX-regular-v2)</text></svg>