<svg width="1000" height="1000" xmlns="http://www.w3.org/2000/svg"><path d="M 503 367 L 518 377 C 553 345 586 305 614 258 C 634 312 659 362 690 406 C 637 467 566 517 475 558 L 482 573 C 579 540 657 498 719 443 C 766 498 828 542 910 576 C 916 546 936 531 959 524 L 961 514 C 875 490 808 454 755 408 C 806 352 843 285 866 205 L 933 205 C 946 205 955 200 958 189 C 926 159 874 119 874 119 L 830 175 L 658 175 C 670 148 681 121 690 92 C 711 93 722 85 726 72 L 629 46 C 605 170 556 289 503 367 Z" fill="black" /><path d="M 644 205 L 794 205 C 778 267 753 322 718 372 C 681 331 652 285 629 233 C 634 224 639 214 644 205 Z" fill="white" /><path d="M 533 703 L 936 703 C 951 703 960 698 963 687 C 929 656 876 614 876 614 L 829 674 L 508 674 C 513 655 517 636 520 615 C 542 613 553 602 555 588 L 453 578 C 450 612 446 644 437 674 L 42 674 L 51 703 L 428 703 C 388 797 291 873 41 939 L 50 958 C 364 895 462 809 500 703 L 508 703 C 583 851 715 918 913 955 C 919 921 939 899 967 893 L 968 882 C 772 865 615 816 533 703 Z" fill="black" /><path d="M 58 616 L 65 631 C 152 588 213 528 249 446 L 414 446 C 406 497 396 528 384 536 C 378 540 372 542 359 542 C 343 542 304 539 281 537 L 281 554 C 302 557 322 562 331 569 C 340 577 343 589 343 603 C 372 604 399 600 419 588 C 448 569 465 530 473 451 C 492 449 505 445 511 438 L 442 382 L 408 416 L 261 416 C 267 398 273 381 277 361 L 517 361 C 531 361 540 356 542 345 C 516 319 474 288 474 288 L 439 331 L 333 331 C 359 315 358 265 263 254 L 253 261 C 271 276 289 303 293 327 C 295 329 297 330 299 331 L 65 331 L 73 361 L 207 361 C 192 465 146 551 58 616 Z" fill="black" /><path d="M 66 127 L 74 157 L 270 157 L 270 224 L 106 224 L 114 253 L 485 253 C 499 253 508 248 511 237 C 483 211 440 178 440 178 L 401 224 L 331 224 L 331 157 L 534 157 C 548 157 557 152 560 141 C 532 115 490 82 490 82 L 452 127 L 331 127 L 331 67 C 349 64 356 56 357 45 L 270 36 L 270 127 L 66 127 Z" fill="black" /><path d="M 620 547 L 612 557 C 653 579 705 621 726 655 C 790 681 812 558 620 547 Z" fill="black" /></svg>