<svg width="3000" height="1080" xmlns="http://www.w3.org/2000/svg" style="background:#fff"><path d="M 50 163 L 316 163 L 316 229 L 326 229 C 354 229 380 220 380 213 L 380 163 L 617 163 L 617 226 L 627 226 C 639 226 649 224 658 222 C 640 250 619 286 599 315 C 575 302 540 290 495 284 L 485 295 C 532 320 590 368 609 410 C 655 431 682 373 619 327 C 652 303 691 273 714 255 C 735 258 744 255 748 246 L 681 208 L 681 163 L 931 163 C 945 163 954 158 956 147 C 925 117 872 78 872 78 L 826 134 L 681 134 L 681 79 C 706 76 714 66 715 52 L 617 42 L 617 134 L 380 134 L 380 79 C 405 76 413 66 415 53 L 316 42 L 316 134 L 45 134 L 50 163 Z M 883 304 L 808 257 C 760 315 677 411 613 476 C 565 477 525 477 499 477 L 535 553 C 543 551 553 545 559 533 C 691 514 785 501 854 490 C 867 508 877 526 881 543 C 943 584 984 453 783 398 L 773 407 C 795 423 819 446 840 471 C 771 473 703 475 644 476 C 716 422 799 353 848 311 C 869 315 879 313 883 304 Z M 335 244 L 255 202 C 240 230 214 277 192 311 C 170 301 140 294 102 290 L 93 300 C 136 323 191 366 210 404 C 257 425 282 363 213 322 C 244 299 280 271 300 254 C 322 257 332 253 335 244 Z M 78 479 L 114 555 C 124 553 132 547 137 534 C 258 517 349 504 414 493 C 425 512 433 531 436 549 C 494 592 542 467 358 405 L 347 413 C 365 428 385 450 401 473 C 341 475 283 477 231 478 C 302 425 386 358 436 316 C 458 321 467 318 472 309 L 396 261 C 348 319 264 413 201 478 C 149 479 106 479 78 479 Z M 391 739 L 387 754 C 462 775 517 816 539 843 C 601 863 613 733 391 739 Z M 331 713 L 652 713 L 652 857 C 524 861 401 865 295 867 C 306 824 319 767 331 713 Z M 930 882 L 927 801 L 915 801 C 907 836 897 870 890 881 C 887 887 883 889 875 889 C 866 890 840 890 811 890 L 743 890 C 717 890 714 888 713 877 L 713 722 C 732 720 743 715 748 708 L 678 647 L 643 684 L 337 684 C 342 661 346 638 350 618 L 910 618 C 924 618 933 613 936 602 C 902 573 850 535 850 535 L 804 588 L 64 588 L 73 618 L 285 618 C 271 693 248 796 230 869 C 153 871 90 871 47 871 L 90 955 C 100 953 110 946 116 934 C 358 912 531 894 652 876 L 652 888 C 652 931 662 946 728 946 L 807 946 C 928 946 954 935 954 909 C 954 896 950 889 930 882 Z" fill="blue" /><path transform="translate(1000)" d="M 381 166 L 55 166 L 64 196 L 925 196 C 939 196 949 191 951 180 C 919 149 864 108 864 108 L 818 166 L 624 166 C 658 141 695 113 719 89 C 740 91 753 84 758 73 L 658 41 C 640 77 613 129 590 166 L 413 166 C 446 146 438 64 296 42 L 286 52 C 323 75 364 123 375 163 L 381 166 Z M 681 208 L 671 202 L 658 222 C 640 250 619 286 599 315 C 575 302 540 290 495 284 L 485 295 C 532 320 590 368 609 410 C 655 431 682 373 619 327 C 652 303 691 273 714 255 C 735 258 744 255 748 246 L 681 208 Z M 883 304 L 808 257 C 760 315 677 411 613 476 C 565 477 525 477 499 477 L 535 553 C 543 551 553 545 559 533 C 691 514 785 501 854 490 C 867 508 877 526 881 543 C 943 584 984 453 783 398 L 773 407 C 795 423 819 446 840 471 C 771 473 703 475 644 476 C 716 422 799 353 848 311 C 869 315 879 313 883 304 Z M 335 244 L 255 202 C 240 230 214 277 192 311 C 170 301 140 294 102 290 L 93 300 C 136 323 191 366 210 404 C 257 425 282 363 213 322 C 244 299 280 271 300 254 C 322 257 332 253 335 244 Z M 78 479 L 114 555 C 124 553 132 547 137 534 C 258 517 349 504 414 493 C 425 512 433 531 436 549 C 494 592 542 467 358 405 L 347 413 C 365 428 385 450 401 473 C 341 475 283 477 231 478 C 302 425 386 358 436 316 C 458 321 467 318 472 309 L 396 261 C 348 319 264 413 201 478 C 149 479 106 479 78 479 Z M 391 739 L 387 754 C 462 775 517 816 539 843 C 601 863 613 733 391 739 Z M 331 713 L 652 713 L 652 857 C 524 861 401 865 295 867 C 306 824 319 767 331 713 Z M 930 882 L 927 801 L 915 801 C 907 836 897 870 890 881 C 887 887 883 889 875 889 C 866 890 840 890 811 890 L 743 890 C 717 890 714 888 713 877 L 713 722 C 732 720 743 715 748 708 L 678 647 L 643 684 L 337 684 C 342 661 346 638 350 618 L 910 618 C 924 618 933 613 936 602 C 902 573 850 535 850 535 L 804 588 L 64 588 L 73 618 L 285 618 C 271 693 248 796 230 869 C 153 871 90 871 47 871 L 90 955 C 100 953 110 946 116 934 C 358 912 531 894 652 876 L 652 888 C 652 931 662 946 728 946 L 807 946 C 928 946 954 935 954 909 C 954 896 950 889 930 882 Z" fill="red" /><path transform="translate(2000)" d="M 50 163 L 316 163 L 316 229 L 326 229 C 354 229 380 220 380 213 L 380 163 L 617 163 L 617 226 L 627 226 C 639 226 649 224 658 222 C 640 250 619 286 599 315 C 575 302 540 290 495 284 L 485 295 C 532 320 590 368 609 410 C 655 431 682 373 619 327 C 652 303 691 273 714 255 C 735 258 744 255 748 246 L 681 208 L 681 163 L 931 163 C 945 163 954 158 956 147 C 925 117 872 78 872 78 L 826 134 L 681 134 L 681 79 C 706 76 714 66 715 52 L 617 42 L 617 134 L 380 134 L 380 79 C 405 76 413 66 415 53 L 316 42 L 316 134 L 45 134 L 50 163 Z M 883 304 L 808 257 C 760 315 677 411 613 476 C 565 477 525 477 499 477 L 535 553 C 543 551 553 545 559 533 C 691 514 785 501 854 490 C 867 508 877 526 881 543 C 943 584 984 453 783 398 L 773 407 C 795 423 819 446 840 471 C 771 473 703 475 644 476 C 716 422 799 353 848 311 C 869 315 879 313 883 304 Z M 335 244 L 255 202 C 240 230 214 277 192 311 C 170 301 140 294 102 290 L 93 300 C 136 323 191 366 210 404 C 257 425 282 363 213 322 C 244 299 280 271 300 254 C 322 257 332 253 335 244 Z M 78 479 L 114 555 C 124 553 132 547 137 534 C 258 517 349 504 414 493 C 425 512 433 531 436 549 C 494 592 542 467 358 405 L 347 413 C 365 428 385 450 401 473 C 341 475 283 477 231 478 C 302 425 386 358 436 316 C 458 321 467 318 472 309 L 396 261 C 348 319 264 413 201 478 C 149 479 106 479 78 479 Z M 391 739 L 387 754 C 462 775 517 816 539 843 C 601 863 613 733 391 739 Z M 331 713 L 652 713 L 652 857 C 524 861 401 865 295 867 C 306 824 319 767 331 713 Z M 930 882 L 927 801 L 915 801 C 907 836 897 870 890 881 C 887 887 883 889 875 889 C 866 890 840 890 811 890 L 743 890 C 717 890 714 888 713 877 L 713 722 C 732 720 743 715 748 708 L 678 647 L 643 684 L 337 684 C 342 661 346 638 350 618 L 910 618 C 924 618 933 613 936 602 C 902 573 850 535 850 535 L 804 588 L 64 588 L 73 618 L 285 618 C 271 693 248 796 230 869 C 153 871 90 871 47 871 L 90 955 C 100 953 110 946 116 934 C 358 912 531 894 652 876 L 652 888 C 652 931 662 946 728 946 L 807 946 C 928 946 954 935 954 909 C 954 896 950 889 930 882 Z" fill="blue" fill-opacity="0.5" /><path transform="translate(2000)" d="M 381 166 L 55 166 L 64 196 L 925 196 C 939 196 949 191 951 180 C 919 149 864 108 864 108 L 818 166 L 624 166 C 658 141 695 113 719 89 C 740 91 753 84 758 73 L 658 41 C 640 77 613 129 590 166 L 413 166 C 446 146 438 64 296 42 L 286 52 C 323 75 364 123 375 163 L 381 166 Z M 681 208 L 671 202 L 658 222 C 640 250 619 286 599 315 C 575 302 540 290 495 284 L 485 295 C 532 320 590 368 609 410 C 655 431 682 373 619 327 C 652 303 691 273 714 255 C 735 258 744 255 748 246 L 681 208 Z M 883 304 L 808 257 C 760 315 677 411 613 476 C 565 477 525 477 499 477 L 535 553 C 543 551 553 545 559 533 C 691 514 785 501 854 490 C 867 508 877 526 881 543 C 943 584 984 453 783 398 L 773 407 C 795 423 819 446 840 471 C 771 473 703 475 644 476 C 716 422 799 353 848 311 C 869 315 879 313 883 304 Z M 335 244 L 255 202 C 240 230 214 277 192 311 C 170 301 140 294 102 290 L 93 300 C 136 323 191 366 210 404 C 257 425 282 363 213 322 C 244 299 280 271 300 254 C 322 257 332 253 335 244 Z M 78 479 L 114 555 C 124 553 132 547 137 534 C 258 517 349 504 414 493 C 425 512 433 531 436 549 C 494 592 542 467 358 405 L 347 413 C 365 428 385 450 401 473 C 341 475 283 477 231 478 C 302 425 386 358 436 316 C 458 321 467 318 472 309 L 396 261 C 348 319 264 413 201 478 C 149 479 106 479 78 479 Z M 391 739 L 387 754 C 462 775 517 816 539 843 C 601 863 613 733 391 739 Z M 331 713 L 652 713 L 652 857 C 524 861 401 865 295 867 C 306 824 319 767 331 713 Z M 930 882 L 927 801 L 915 801 C 907 836 897 870 890 881 C 887 887 883 889 875 889 C 866 890 840 890 811 890 L 743 890 C 717 890 714 888 713 877 L 713 722 C 732 720 743 715 748 708 L 678 647 L 643 684 L 337 684 C 342 661 346 638 350 618 L 910 618 C 924 618 933 613 936 602 C 902 573 850 535 850 535 L 804 588 L 64 588 L 73 618 L 285 618 C 271 693 248 796 230 869 C 153 871 90 871 47 871 L 90 955 C 100 953 110 946 116 934 C 358 912 531 894 652 876 L 652 888 C 652 931 662 946 728 946 L 807 946 C 928 946 954 935 954 909 C 954 896 950 889 930 882 Z" fill="red" fill-opacity="0.5" /><text text-anchor="middle" x="500" y="1064" font-family="Arial" font-size="64">Source Han Serif KR</text><text text-anchor="middle" x="1500" y="1064" font-family="Arial" font-size="64">HKSerif (uni7506KX-regular)</text></svg>