<svg width="3000" height="1080" xmlns="http://www.w3.org/2000/svg" style="background:#fff"><path d="M 51 564 L 82 652 C 90 649 99 642 106 632 C 194 612 277 589 335 573 C 339 590 342 607 343 621 C 395 672 452 551 294 439 L 281 444 C 298 472 316 512 328 550 C 247 557 170 563 115 566 C 209 488 310 374 365 294 C 384 298 398 293 403 284 L 317 226 C 303 256 282 294 256 335 C 201 336 147 336 107 335 C 172 270 243 173 283 105 C 302 107 313 99 318 90 L 225 44 C 201 119 131 262 74 321 C 67 327 50 330 50 330 L 84 417 C 92 414 99 408 106 398 C 152 389 198 377 234 367 C 186 438 127 511 77 554 C 70 560 51 564 51 564 Z M 128 689 L 109 689 C 115 752 89 824 62 854 C 44 869 35 892 47 909 C 61 928 96 917 112 897 C 137 863 155 789 128 689 Z M 219 669 L 204 673 C 216 723 224 799 214 859 C 259 916 330 801 219 669 Z M 315 649 L 302 655 C 327 697 354 768 353 821 C 406 871 465 751 315 649 Z M 877 820 L 833 878 L 674 878 L 674 669 L 879 669 C 892 669 903 664 905 653 C 875 623 826 584 826 584 L 784 639 L 674 639 L 674 456 L 825 456 C 839 456 848 451 851 440 C 824 414 781 379 781 379 L 743 427 L 454 427 L 461 456 L 611 456 L 611 639 L 413 639 L 421 669 L 611 669 L 611 878 L 363 878 L 371 907 L 933 907 C 947 907 957 902 960 891 C 928 861 877 820 877 820 Z M 745 100 L 660 43 L 631 87 L 504 87 L 513 116 L 594 116 C 541 231 455 342 349 421 L 360 437 C 490 362 594 259 660 137 C 708 257 800 366 909 442 C 918 419 940 399 965 396 L 967 384 C 841 323 728 218 682 120 C 712 118 734 112 745 100 Z" fill="blue" /><path transform="translate(1000)" d="M 51 564 L 82 652 C 90 649 99 642 106 632 C 194 612 277 589 335 573 C 339 590 342 607 343 621 C 395 672 452 551 294 439 L 281 444 C 298 472 316 512 328 550 C 247 557 170 563 115 566 C 209 488 310 374 365 294 C 384 298 398 293 403 284 L 317 226 C 303 256 282 294 256 335 C 201 336 147 336 107 335 C 172 270 243 173 283 105 C 302 107 313 99 318 90 L 225 44 C 201 119 131 262 74 321 C 67 327 50 330 50 330 L 84 417 C 92 414 99 408 106 398 C 152 389 198 377 234 367 C 186 438 127 511 77 554 C 70 560 51 564 51 564 Z M 128 689 L 109 689 C 115 752 89 824 62 854 C 44 869 35 892 47 909 C 61 928 96 917 112 897 C 137 863 155 789 128 689 Z M 219 669 L 204 673 C 216 723 224 799 214 859 C 259 916 330 801 219 669 Z M 315 649 L 302 655 C 327 697 354 768 353 821 C 406 871 465 751 315 649 Z M 877 820 L 833 878 L 674 878 L 674 669 L 879 669 C 892 669 903 664 905 653 C 875 623 826 584 826 584 L 784 639 L 674 639 L 674 456 L 825 456 C 839 456 848 451 851 440 C 824 414 781 379 781 379 L 743 427 L 454 427 L 461 456 L 611 456 L 611 639 L 413 639 L 421 669 L 611 669 L 611 878 L 363 878 L 371 907 L 933 907 C 947 907 957 902 960 891 C 928 861 877 820 877 820 Z M 745 100 L 660 43 L 631 87 L 430 87 L 439 116 L 594 116 C 541 231 455 342 349 421 L 360 437 C 490 362 594 259 660 137 C 708 257 800 366 909 442 C 918 419 940 399 965 396 L 967 384 C 841 323 728 218 682 120 C 712 118 734 112 745 100 Z" fill="red" /><path transform="translate(2000)" d="M 51 564 L 82 652 C 90 649 99 642 106 632 C 194 612 277 589 335 573 C 339 590 342 607 343 621 C 395 672 452 551 294 439 L 281 444 C 298 472 316 512 328 550 C 247 557 170 563 115 566 C 209 488 310 374 365 294 C 384 298 398 293 403 284 L 317 226 C 303 256 282 294 256 335 C 201 336 147 336 107 335 C 172 270 243 173 283 105 C 302 107 313 99 318 90 L 225 44 C 201 119 131 262 74 321 C 67 327 50 330 50 330 L 84 417 C 92 414 99 408 106 398 C 152 389 198 377 234 367 C 186 438 127 511 77 554 C 70 560 51 564 51 564 Z M 128 689 L 109 689 C 115 752 89 824 62 854 C 44 869 35 892 47 909 C 61 928 96 917 112 897 C 137 863 155 789 128 689 Z M 219 669 L 204 673 C 216 723 224 799 214 859 C 259 916 330 801 219 669 Z M 315 649 L 302 655 C 327 697 354 768 353 821 C 406 871 465 751 315 649 Z M 877 820 L 833 878 L 674 878 L 674 669 L 879 669 C 892 669 903 664 905 653 C 875 623 826 584 826 584 L 784 639 L 674 639 L 674 456 L 825 456 C 839 456 848 451 851 440 C 824 414 781 379 781 379 L 743 427 L 454 427 L 461 456 L 611 456 L 611 639 L 413 639 L 421 669 L 611 669 L 611 878 L 363 878 L 371 907 L 933 907 C 947 907 957 902 960 891 C 928 861 877 820 877 820 Z M 745 100 L 660 43 L 631 87 L 504 87 L 513 116 L 594 116 C 541 231 455 342 349 421 L 360 437 C 490 362 594 259 660 137 C 708 257 800 366 909 442 C 918 419 940 399 965 396 L 967 384 C 841 323 728 218 682 120 C 712 118 734 112 745 100 Z" fill="blue" fill-opacity="0.5" /><path transform="translate(2000)" d="M 51 564 L 82 652 C 90 649 99 642 106 632 C 194 612 277 589 335 573 C 339 590 342 607 343 621 C 395 672 452 551 294 439 L 281 444 C 298 472 316 512 328 550 C 247 557 170 563 115 566 C 209 488 310 374 365 294 C 384 298 398 293 403 284 L 317 226 C 303 256 282 294 256 335 C 201 336 147 336 107 335 C 172 270 243 173 283 105 C 302 107 313 99 318 90 L 225 44 C 201 119 131 262 74 321 C 67 327 50 330 50 330 L 84 417 C 92 414 99 408 106 398 C 152 389 198 377 234 367 C 186 438 127 511 77 554 C 70 560 51 564 51 564 Z M 128 689 L 109 689 C 115 752 89 824 62 854 C 44 869 35 892 47 909 C 61 928 96 917 112 897 C 137 863 155 789 128 689 Z M 219 669 L 204 673 C 216 723 224 799 214 859 C 259 916 330 801 219 669 Z M 315 649 L 302 655 C 327 697 354 768 353 821 C 406 871 465 751 315 649 Z M 877 820 L 833 878 L 674 878 L 674 669 L 879 669 C 892 669 903 664 905 653 C 875 623 826 584 826 584 L 784 639 L 674 639 L 674 456 L 825 456 C 839 456 848 451 851 440 C 824 414 781 379 781 379 L 743 427 L 454 427 L 461 456 L 611 456 L 611 639 L 413 639 L 421 669 L 611 669 L 611 878 L 363 878 L 371 907 L 933 907 C 947 907 957 902 960 891 C 928 861 877 820 877 820 Z M 745 100 L 660 43 L 631 87 L 430 87 L 439 116 L 594 116 C 541 231 455 342 349 421 L 360 437 C 490 362 594 259 660 137 C 708 257 800 366 909 442 C 918 419 940 399 965 396 L 967 384 C 841 323 728 218 682 120 C 712 118 734 112 745 100 Z" fill="red" fill-opacity="0.5" /><text text-anchor="middle" x="500" y="1064" font-family="Arial" font-size="64">Source Han Serif TW</text><text text-anchor="middle" x="1500" y="1064" font-family="Arial" font-size="64">HKSerif (uni7D5FHK-regular)</text></svg>