<svg width="1000" height="1000" xmlns="http://www.w3.org/2000/svg"><path d="M 392 733 L 387 749 C 457 769 510 807 531 834 C 592 852 608 726 392 733 Z" fill="black" /><path d="M 925 876 L 924 795 L 911 795 C 905 827 896 858 888 874 C 883 883 877 886 845 886 L 714 886 C 688 886 682 883 682 865 C 681 842 692 801 711 712 C 730 710 743 705 751 697 L 672 639 L 644 674 L 346 674 C 353 649 359 627 365 606 L 770 606 C 784 606 794 601 797 590 C 765 561 716 525 716 525 L 675 576 L 179 576 L 187 606 L 299 606 C 284 679 250 801 222 877 C 186 879 155 880 133 880 L 159 963 C 169 962 180 955 186 943 C 350 916 473 893 564 875 L 563 857 C 463 864 364 871 284 875 C 308 806 323 753 337 704 L 649 704 C 634 800 621 838 622 871 C 623 920 642 941 708 941 L 850 941 C 929 941 956 924 956 900 C 956 887 950 883 925 876 Z" fill="black" /><path d="M 163 510 L 850 510 C 840 538 827 569 817 588 L 831 595 C 860 577 901 543 923 520 C 943 519 953 518 961 511 L 888 440 L 849 480 L 162 480 C 160 468 158 453 153 438 L 136 438 C 137 487 105 532 72 547 C 51 559 36 578 45 599 C 55 622 89 623 111 609 C 137 595 161 560 163 510 Z" fill="black" /><path d="M 794 209 L 758 247 L 239 247 L 171 217 L 171 453 L 181 453 C 205 453 233 439 233 434 L 233 420 L 768 420 L 768 446 L 778 446 C 799 446 830 430 831 424 L 831 288 C 850 284 866 276 872 268 L 794 209 Z" fill="black" /><path d="M 233 391 L 233 276 L 369 276 L 369 391 L 233 391 Z" fill="white" /><path d="M 628 276 L 768 276 L 768 391 L 628 391 L 628 276 Z" fill="white" /><path d="M 428 276 L 568 276 L 568 391 L 428 391 L 428 276 Z" fill="white" /><path d="M 571 39 L 571 223 L 581 223 C 614 222 635 211 635 206 L 635 163 L 906 163 C 920 163 929 158 932 147 C 900 116 848 77 848 77 L 803 133 L 635 133 L 635 76 C 659 73 668 63 669 50 L 571 39 Z" fill="black" /><path d="M 92 163 L 364 163 L 364 225 L 374 225 C 402 225 427 218 427 210 L 427 76 C 452 73 461 63 463 50 L 364 39 L 364 133 L 86 133 L 92 163 Z" fill="black" /></svg>