<svg width="1000" height="1000" xmlns="http://www.w3.org/2000/svg"><path d="M 891 314 L 827 253 C 788 267 734 281 674 295 L 674 252 C 698 249 706 240 708 226 L 612 216 L 612 308 C 544 321 472 332 407 339 L 412 357 C 478 356 546 351 612 345 L 612 428 L 399 428 L 407 456 L 612 456 L 612 542 L 365 542 L 373 571 L 612 571 L 612 636 L 624 636 C 646 636 674 623 674 616 L 674 571 L 936 571 C 950 571 960 566 962 555 C 932 525 879 485 879 485 L 836 542 L 674 542 L 674 456 L 878 456 C 892 456 901 451 904 440 C 872 411 823 371 823 371 L 779 428 L 674 428 L 674 338 C 737 331 796 321 844 312 C 866 321 882 321 891 314 Z" fill="black" /><path d="M 822 628 L 787 665 L 502 665 L 435 635 L 435 957 L 444 957 C 470 957 497 944 497 937 L 497 889 L 797 889 L 797 948 L 806 948 C 827 948 858 934 859 928 L 859 705 C 877 701 892 693 898 686 L 822 628 Z" fill="black" /><path d="M 797 859 L 497 859 L 497 695 L 797 695 L 797 859 Z" fill="white" /><path d="M 446 202 L 868 202 C 862 225 853 250 846 268 L 860 276 C 885 260 917 232 934 212 C 953 211 964 209 971 202 L 902 135 L 865 172 L 444 172 C 442 158 438 144 433 129 L 416 129 C 420 160 401 203 383 220 C 363 233 351 255 361 275 C 374 297 406 295 422 279 C 437 264 447 237 446 202 Z" fill="black" /><path d="M 372 145 L 296 84 L 260 124 L 142 124 L 77 92 L 77 905 L 88 905 C 115 905 137 890 137 882 L 137 788 L 270 788 L 270 860 L 279 860 C 300 860 329 843 330 836 L 330 165 C 350 161 366 153 372 145 Z" fill="black" /><path d="M 270 359 L 270 540 L 137 540 L 137 359 L 270 359 Z" fill="white" /><path d="M 137 153 L 270 153 L 270 329 L 137 329 L 137 153 Z" fill="white" /><path d="M 270 758 L 137 758 L 137 570 L 270 570 L 270 758 Z" fill="white" /><path d="M 591 34 L 580 42 C 608 69 639 116 643 156 C 703 202 760 80 591 34 Z" fill="black" /></svg>