<svg width="1000" height="1000" xmlns="http://www.w3.org/2000/svg"><path d="M 650 208 L 797 208 C 783 270 759 325 725 375 C 689 333 661 284 639 230 L 650 208 Z M 521 362 L 536 371 C 568 340 598 300 625 255 C 644 313 667 365 698 412 C 651 468 590 515 511 551 L 517 564 C 602 536 671 499 726 449 C 771 505 831 550 911 584 C 918 553 936 536 961 529 L 963 518 C 879 494 814 459 762 412 C 812 356 848 288 870 208 L 936 208 C 950 208 958 203 961 192 C 930 163 878 123 878 123 L 834 179 L 664 179 C 677 152 688 124 698 95 C 718 95 730 87 733 76 L 636 48 C 613 167 569 285 521 362 Z M 617 531 L 606 540 C 643 565 686 609 699 647 C 760 683 800 565 617 531 Z M 366 209 L 380 220 C 415 196 456 157 489 118 C 509 122 520 115 525 104 L 441 66 C 419 120 389 175 366 209 Z M 111 71 L 100 78 C 133 110 173 164 182 207 C 237 247 282 132 111 71 Z M 150 566 L 150 257 L 277 257 L 277 567 L 285 567 C 310 567 333 554 333 550 L 333 257 L 453 257 L 453 538 L 462 538 C 481 538 508 524 509 518 L 509 265 C 527 262 542 254 546 247 L 477 192 L 444 227 L 333 227 L 333 72 C 358 68 366 60 368 46 L 277 36 L 277 227 L 162 227 L 93 196 L 93 585 L 102 585 C 131 585 150 570 150 566 Z M 360 298 L 346 304 C 366 340 388 402 387 449 C 428 491 479 396 360 298 Z M 160 481 L 177 489 C 206 451 229 391 244 336 C 265 335 274 325 278 313 L 201 298 C 194 363 179 433 160 481 Z M 541 700 L 924 700 C 938 700 948 695 949 684 C 917 653 864 613 864 613 L 816 670 L 500 670 C 507 646 511 621 515 595 C 537 593 547 582 549 568 L 449 557 C 446 597 441 634 430 670 L 52 670 L 61 700 L 419 700 C 378 794 281 870 42 936 L 51 956 C 351 892 451 806 490 700 L 518 700 C 585 851 708 918 904 955 C 910 921 929 900 957 893 L 957 882 C 762 865 616 817 541 700 Z" fill="black" /></svg>