<svg width="3000" height="1080" xmlns="http://www.w3.org/2000/svg" style="background:#fff"><path d="M 49 561 L 81 645 C 89 642 98 635 105 623 C 184 606 262 585 311 571 C 316 590 319 609 319 625 C 370 677 428 557 274 440 L 261 445 C 277 474 294 512 305 551 C 233 556 163 561 113 563 C 201 489 298 377 349 301 C 355 303 360 303 365 303 C 359 313 358 325 363 336 C 375 356 406 353 423 337 C 439 322 450 292 448 252 L 630 252 L 630 506 L 639 506 C 669 506 689 491 689 487 L 689 252 L 878 252 C 873 278 866 309 862 328 L 877 334 C 895 316 921 282 937 260 C 955 259 967 258 974 251 L 906 185 L 872 222 L 689 222 L 689 136 L 903 136 C 917 136 926 131 929 120 C 899 92 852 55 852 55 L 810 106 L 439 106 L 447 136 L 630 136 L 630 222 L 445 222 C 442 210 439 197 435 185 L 417 185 C 423 220 404 266 382 284 L 379 286 L 304 234 C 292 262 272 297 248 335 C 196 336 143 336 105 335 C 170 269 241 175 281 107 C 300 109 312 101 317 92 L 227 47 C 201 122 129 265 70 324 C 64 329 46 333 46 333 L 79 417 C 88 414 97 406 104 394 C 148 386 195 373 230 363 C 183 435 126 510 77 552 C 70 556 49 561 49 561 Z M 439 429 L 439 458 L 596 458 L 596 429 L 439 429 Z M 598 362 L 598 333 L 459 333 L 459 362 L 598 362 Z M 461 577 L 867 577 C 881 577 890 572 893 561 C 865 533 821 498 821 498 L 781 547 L 453 547 L 461 577 Z M 724 429 L 724 458 L 877 458 L 877 429 L 724 429 Z M 853 332 L 724 332 L 724 362 L 853 362 L 853 332 Z M 121 682 L 103 682 C 109 744 86 817 60 845 C 43 862 34 884 46 901 C 60 919 94 908 110 887 C 134 854 149 780 121 682 Z M 201 664 L 186 668 C 201 716 211 792 202 850 C 246 905 315 791 201 664 Z M 288 648 L 275 654 C 299 696 326 763 326 814 C 375 864 433 751 288 648 Z M 897 622 L 857 670 L 381 670 L 389 700 L 591 700 C 554 749 484 825 427 856 C 420 859 403 862 403 862 L 435 941 C 442 939 450 932 456 920 C 606 904 743 883 834 869 C 851 894 865 917 872 939 C 942 986 983 838 740 739 L 729 747 C 757 774 791 810 820 848 C 686 855 561 862 478 864 C 541 828 608 779 650 741 C 672 745 684 737 689 728 L 636 700 L 944 700 C 958 700 967 695 970 684 C 942 657 897 622 897 622 Z" fill="blue" /><path transform="translate(1000)" d="M 49 561 L 81 645 C 89 642 98 635 105 623 C 184 606 262 585 311 571 C 316 590 319 609 319 625 C 370 677 428 557 274 440 L 261 445 C 277 474 294 512 305 551 C 233 556 163 561 113 563 C 201 489 298 377 349 301 C 355 303 360 303 365 303 L 379 286 L 304 234 C 292 262 272 297 248 335 C 196 336 143 336 105 335 C 170 269 241 175 281 107 C 300 109 312 101 317 92 L 227 47 C 201 122 129 265 70 324 C 64 329 46 333 46 333 L 79 417 C 88 414 97 406 104 394 C 148 386 195 373 230 363 C 183 435 126 510 77 552 C 70 556 49 561 49 561 Z M 428 430 L 436 460 L 588 460 C 602 460 611 455 613 444 C 592 421 558 393 558 393 L 528 430 L 428 430 Z M 555 289 L 526 326 L 438 326 L 446 355 L 585 355 C 598 355 607 350 609 340 C 588 317 555 289 555 289 Z M 720 430 L 728 460 L 890 460 C 903 460 912 455 915 444 C 892 421 856 390 856 390 L 825 430 L 720 430 Z M 836 287 L 805 326 L 720 326 L 728 355 L 869 355 C 881 355 890 350 893 340 C 871 316 836 287 836 287 Z M 439 549 L 447 578 L 875 578 C 889 578 898 573 901 562 C 871 533 822 495 822 495 L 780 549 L 439 549 Z M 977 243 L 910 176 L 873 214 L 697 214 L 697 132 L 912 132 C 926 132 936 127 938 116 C 906 87 857 48 857 48 L 812 102 L 416 102 L 424 132 L 634 132 L 634 214 L 457 214 C 457 202 455 189 452 176 L 435 175 C 433 212 406 255 382 270 C 364 283 353 303 362 322 C 373 342 405 339 423 325 C 440 310 454 282 457 244 L 634 244 L 634 501 L 644 501 C 676 501 697 487 697 482 L 697 244 L 878 244 C 873 266 866 292 863 306 L 876 313 C 896 298 925 270 941 253 C 959 252 970 251 977 243 Z M 121 682 L 103 682 C 109 744 86 817 60 845 C 43 862 34 884 46 901 C 60 919 94 908 110 887 C 134 854 149 780 121 682 Z M 201 664 L 186 668 C 201 716 211 792 202 850 C 246 905 315 791 201 664 Z M 288 648 L 275 654 C 299 696 326 763 326 814 C 375 864 433 751 288 648 Z M 897 622 L 857 670 L 381 670 L 389 700 L 591 700 C 554 749 484 825 427 856 C 420 859 403 862 403 862 L 435 941 C 442 939 450 932 456 920 C 606 904 743 883 834 869 C 851 894 865 917 872 939 C 942 986 983 838 740 739 L 729 747 C 757 774 791 810 820 848 C 686 855 561 862 478 864 C 541 828 608 779 650 741 C 672 745 684 737 689 728 L 636 700 L 944 700 C 958 700 967 695 970 684 C 942 657 897 622 897 622 Z" fill="red" /><path transform="translate(2000)" d="M 49 561 L 81 645 C 89 642 98 635 105 623 C 184 606 262 585 311 571 C 316 590 319 609 319 625 C 370 677 428 557 274 440 L 261 445 C 277 474 294 512 305 551 C 233 556 163 561 113 563 C 201 489 298 377 349 301 C 355 303 360 303 365 303 C 359 313 358 325 363 336 C 375 356 406 353 423 337 C 439 322 450 292 448 252 L 630 252 L 630 506 L 639 506 C 669 506 689 491 689 487 L 689 252 L 878 252 C 873 278 866 309 862 328 L 877 334 C 895 316 921 282 937 260 C 955 259 967 258 974 251 L 906 185 L 872 222 L 689 222 L 689 136 L 903 136 C 917 136 926 131 929 120 C 899 92 852 55 852 55 L 810 106 L 439 106 L 447 136 L 630 136 L 630 222 L 445 222 C 442 210 439 197 435 185 L 417 185 C 423 220 404 266 382 284 L 379 286 L 304 234 C 292 262 272 297 248 335 C 196 336 143 336 105 335 C 170 269 241 175 281 107 C 300 109 312 101 317 92 L 227 47 C 201 122 129 265 70 324 C 64 329 46 333 46 333 L 79 417 C 88 414 97 406 104 394 C 148 386 195 373 230 363 C 183 435 126 510 77 552 C 70 556 49 561 49 561 Z M 439 429 L 439 458 L 596 458 L 596 429 L 439 429 Z M 598 362 L 598 333 L 459 333 L 459 362 L 598 362 Z M 461 577 L 867 577 C 881 577 890 572 893 561 C 865 533 821 498 821 498 L 781 547 L 453 547 L 461 577 Z M 724 429 L 724 458 L 877 458 L 877 429 L 724 429 Z M 853 332 L 724 332 L 724 362 L 853 362 L 853 332 Z M 121 682 L 103 682 C 109 744 86 817 60 845 C 43 862 34 884 46 901 C 60 919 94 908 110 887 C 134 854 149 780 121 682 Z M 201 664 L 186 668 C 201 716 211 792 202 850 C 246 905 315 791 201 664 Z M 288 648 L 275 654 C 299 696 326 763 326 814 C 375 864 433 751 288 648 Z M 897 622 L 857 670 L 381 670 L 389 700 L 591 700 C 554 749 484 825 427 856 C 420 859 403 862 403 862 L 435 941 C 442 939 450 932 456 920 C 606 904 743 883 834 869 C 851 894 865 917 872 939 C 942 986 983 838 740 739 L 729 747 C 757 774 791 810 820 848 C 686 855 561 862 478 864 C 541 828 608 779 650 741 C 672 745 684 737 689 728 L 636 700 L 944 700 C 958 700 967 695 970 684 C 942 657 897 622 897 622 Z" fill="blue" fill-opacity="0.5" /><path transform="translate(2000)" d="M 49 561 L 81 645 C 89 642 98 635 105 623 C 184 606 262 585 311 571 C 316 590 319 609 319 625 C 370 677 428 557 274 440 L 261 445 C 277 474 294 512 305 551 C 233 556 163 561 113 563 C 201 489 298 377 349 301 C 355 303 360 303 365 303 L 379 286 L 304 234 C 292 262 272 297 248 335 C 196 336 143 336 105 335 C 170 269 241 175 281 107 C 300 109 312 101 317 92 L 227 47 C 201 122 129 265 70 324 C 64 329 46 333 46 333 L 79 417 C 88 414 97 406 104 394 C 148 386 195 373 230 363 C 183 435 126 510 77 552 C 70 556 49 561 49 561 Z M 428 430 L 436 460 L 588 460 C 602 460 611 455 613 444 C 592 421 558 393 558 393 L 528 430 L 428 430 Z M 555 289 L 526 326 L 438 326 L 446 355 L 585 355 C 598 355 607 350 609 340 C 588 317 555 289 555 289 Z M 720 430 L 728 460 L 890 460 C 903 460 912 455 915 444 C 892 421 856 390 856 390 L 825 430 L 720 430 Z M 836 287 L 805 326 L 720 326 L 728 355 L 869 355 C 881 355 890 350 893 340 C 871 316 836 287 836 287 Z M 439 549 L 447 578 L 875 578 C 889 578 898 573 901 562 C 871 533 822 495 822 495 L 780 549 L 439 549 Z M 977 243 L 910 176 L 873 214 L 697 214 L 697 132 L 912 132 C 926 132 936 127 938 116 C 906 87 857 48 857 48 L 812 102 L 416 102 L 424 132 L 634 132 L 634 214 L 457 214 C 457 202 455 189 452 176 L 435 175 C 433 212 406 255 382 270 C 364 283 353 303 362 322 C 373 342 405 339 423 325 C 440 310 454 282 457 244 L 634 244 L 634 501 L 644 501 C 676 501 697 487 697 482 L 697 244 L 878 244 C 873 266 866 292 863 306 L 876 313 C 896 298 925 270 941 253 C 959 252 970 251 977 243 Z M 121 682 L 103 682 C 109 744 86 817 60 845 C 43 862 34 884 46 901 C 60 919 94 908 110 887 C 134 854 149 780 121 682 Z M 201 664 L 186 668 C 201 716 211 792 202 850 C 246 905 315 791 201 664 Z M 288 648 L 275 654 C 299 696 326 763 326 814 C 375 864 433 751 288 648 Z M 897 622 L 857 670 L 381 670 L 389 700 L 591 700 C 554 749 484 825 427 856 C 420 859 403 862 403 862 L 435 941 C 442 939 450 932 456 920 C 606 904 743 883 834 869 C 851 894 865 917 872 939 C 942 986 983 838 740 739 L 729 747 C 757 774 791 810 820 848 C 686 855 561 862 478 864 C 541 828 608 779 650 741 C 672 745 684 737 689 728 L 636 700 L 944 700 C 958 700 967 695 970 684 C 942 657 897 622 897 622 Z" fill="red" fill-opacity="0.5" /><text text-anchor="middle" x="500" y="1064" font-family="Arial" font-size="64">Source Han Serif TW</text><text text-anchor="middle" x="1500" y="1064" font-family="Arial" font-size="64">HKSerif (uni7E67HK-regular)</text></svg>