<svg width="3000" height="1080" xmlns="http://www.w3.org/2000/svg" style="background:#fff"><path d="M 249 441 L 249 386 L 367 386 C 373 386 378 385 382 383 L 421 432 C 430 427 434 420 436 408 C 478 381 512 353 534 332 L 528 318 C 481 340 429 360 392 372 L 392 370 C 364 341 318 304 318 304 L 278 356 L 249 356 L 249 137 C 278 129 304 121 326 114 C 348 123 366 122 375 113 L 296 47 C 238 82 126 135 36 163 L 42 179 C 89 173 140 163 188 152 L 188 356 L 39 356 L 47 386 L 174 386 C 147 524 100 665 28 773 L 42 786 C 103 719 151 643 188 559 L 188 958 L 198 958 C 227 958 249 943 249 937 L 249 467 C 275 505 301 555 308 595 C 362 642 413 529 249 441 Z M 363 898 L 375 913 C 446 866 519 795 554 737 C 571 740 583 738 588 728 L 502 688 C 476 756 422 841 363 898 Z M 696 655 L 912 655 C 926 655 935 650 938 639 C 907 610 858 571 858 571 L 816 626 L 415 626 L 423 655 L 634 655 L 634 958 L 644 958 C 675 958 696 944 696 941 L 696 655 Z M 756 419 L 718 469 L 513 469 L 521 499 L 805 499 C 818 499 827 494 830 483 C 803 455 756 419 756 419 Z M 753 700 L 742 709 C 796 754 865 830 884 889 C 954 935 995 787 753 700 Z M 506 172 L 616 172 C 607 207 595 242 581 277 C 575 255 548 227 484 212 C 492 199 499 186 506 172 Z M 962 157 L 893 90 L 856 128 L 737 128 L 745 158 L 857 158 C 841 203 816 259 793 299 C 765 256 743 208 731 155 L 713 163 L 713 164 L 650 107 L 613 142 L 520 142 C 529 121 537 102 544 82 C 568 87 576 83 581 74 L 494 41 C 473 138 426 258 367 327 L 381 336 C 416 307 446 269 473 228 C 501 249 530 279 541 303 C 550 309 559 310 566 308 C 524 395 464 474 386 533 L 397 548 C 548 459 632 317 674 177 C 695 176 706 173 713 166 C 742 315 810 437 911 512 C 920 486 938 470 961 467 L 963 458 C 901 426 846 377 804 316 C 848 275 897 214 923 167 C 943 166 955 164 962 157 Z" fill="blue" /><path transform="translate(1000)" d="M 711 165 L 711 165 L 859 165 C 842 211 816 268 790 313 C 758 269 731 219 711 165 Z M 468 41 L 468 41 C 445 127 394 231 336 289 L 350 300 C 358 294 366 288 374 281 C 399 303 425 340 432 370 C 475 403 515 317 385 271 C 403 255 420 237 436 218 C 459 234 483 260 492 282 C 536 309 569 229 446 205 C 455 193 463 181 471 169 L 575 169 C 538 297 462 424 351 512 C 335 485 302 456 244 430 L 244 357 L 362 357 C 375 357 384 352 386 341 C 359 313 312 274 312 274 L 272 329 L 244 329 L 244 144 C 278 135 310 125 335 115 C 359 124 377 123 385 114 L 302 46 C 245 86 130 141 37 172 L 43 186 C 88 180 136 171 182 160 L 182 329 L 42 329 L 49 357 L 167 357 C 139 494 93 633 23 741 L 37 753 C 97 688 145 612 182 529 L 182 959 L 192 959 C 222 959 244 943 244 937 L 244 455 C 272 491 302 539 310 578 C 344 603 375 575 360 531 C 506 444 590 310 635 175 C 658 174 669 171 676 163 L 611 103 L 573 140 L 489 140 C 502 118 513 97 522 76 C 545 78 552 74 556 64 L 468 41 Z M 684 69 L 684 69 L 665 77 C 700 280 786 437 921 531 C 931 504 951 490 975 488 L 977 479 C 912 444 853 395 805 334 C 851 287 899 225 925 175 C 945 174 956 171 963 165 L 895 97 L 857 136 L 701 136 C 695 114 689 92 684 69 Z M 734 404 L 734 404 L 695 454 L 477 454 L 485 484 L 783 484 C 796 484 806 479 808 468 C 781 440 734 404 734 404 Z M 835 541 L 835 541 L 790 596 L 378 596 L 386 626 L 606 626 L 606 860 C 606 872 602 878 585 878 C 566 878 478 871 478 871 L 478 886 C 519 892 541 899 555 910 C 566 919 571 935 572 954 C 657 946 669 912 669 861 L 669 626 L 888 626 C 902 626 912 621 915 610 C 884 581 835 541 835 541 Z M 463 669 L 463 669 C 435 740 375 826 310 883 L 320 898 C 399 852 478 779 517 718 C 534 722 545 720 550 710 L 463 669 Z M 742 682 L 742 682 L 731 691 C 788 739 861 820 880 883 C 953 929 994 777 742 682 Z" fill="red" /><path transform="translate(2000)" d="M 249 441 L 249 386 L 367 386 C 373 386 378 385 382 383 L 421 432 C 430 427 434 420 436 408 C 478 381 512 353 534 332 L 528 318 C 481 340 429 360 392 372 L 392 370 C 364 341 318 304 318 304 L 278 356 L 249 356 L 249 137 C 278 129 304 121 326 114 C 348 123 366 122 375 113 L 296 47 C 238 82 126 135 36 163 L 42 179 C 89 173 140 163 188 152 L 188 356 L 39 356 L 47 386 L 174 386 C 147 524 100 665 28 773 L 42 786 C 103 719 151 643 188 559 L 188 958 L 198 958 C 227 958 249 943 249 937 L 249 467 C 275 505 301 555 308 595 C 362 642 413 529 249 441 Z M 363 898 L 375 913 C 446 866 519 795 554 737 C 571 740 583 738 588 728 L 502 688 C 476 756 422 841 363 898 Z M 696 655 L 912 655 C 926 655 935 650 938 639 C 907 610 858 571 858 571 L 816 626 L 415 626 L 423 655 L 634 655 L 634 958 L 644 958 C 675 958 696 944 696 941 L 696 655 Z M 756 419 L 718 469 L 513 469 L 521 499 L 805 499 C 818 499 827 494 830 483 C 803 455 756 419 756 419 Z M 753 700 L 742 709 C 796 754 865 830 884 889 C 954 935 995 787 753 700 Z M 506 172 L 616 172 C 607 207 595 242 581 277 C 575 255 548 227 484 212 C 492 199 499 186 506 172 Z M 962 157 L 893 90 L 856 128 L 737 128 L 745 158 L 857 158 C 841 203 816 259 793 299 C 765 256 743 208 731 155 L 713 163 L 713 164 L 650 107 L 613 142 L 520 142 C 529 121 537 102 544 82 C 568 87 576 83 581 74 L 494 41 C 473 138 426 258 367 327 L 381 336 C 416 307 446 269 473 228 C 501 249 530 279 541 303 C 550 309 559 310 566 308 C 524 395 464 474 386 533 L 397 548 C 548 459 632 317 674 177 C 695 176 706 173 713 166 C 742 315 810 437 911 512 C 920 486 938 470 961 467 L 963 458 C 901 426 846 377 804 316 C 848 275 897 214 923 167 C 943 166 955 164 962 157 Z" fill="blue" fill-opacity="0.5" /><path transform="translate(2000)" d="M 711 165 L 711 165 L 859 165 C 842 211 816 268 790 313 C 758 269 731 219 711 165 Z M 468 41 L 468 41 C 445 127 394 231 336 289 L 350 300 C 358 294 366 288 374 281 C 399 303 425 340 432 370 C 475 403 515 317 385 271 C 403 255 420 237 436 218 C 459 234 483 260 492 282 C 536 309 569 229 446 205 C 455 193 463 181 471 169 L 575 169 C 538 297 462 424 351 512 C 335 485 302 456 244 430 L 244 357 L 362 357 C 375 357 384 352 386 341 C 359 313 312 274 312 274 L 272 329 L 244 329 L 244 144 C 278 135 310 125 335 115 C 359 124 377 123 385 114 L 302 46 C 245 86 130 141 37 172 L 43 186 C 88 180 136 171 182 160 L 182 329 L 42 329 L 49 357 L 167 357 C 139 494 93 633 23 741 L 37 753 C 97 688 145 612 182 529 L 182 959 L 192 959 C 222 959 244 943 244 937 L 244 455 C 272 491 302 539 310 578 C 344 603 375 575 360 531 C 506 444 590 310 635 175 C 658 174 669 171 676 163 L 611 103 L 573 140 L 489 140 C 502 118 513 97 522 76 C 545 78 552 74 556 64 L 468 41 Z M 684 69 L 684 69 L 665 77 C 700 280 786 437 921 531 C 931 504 951 490 975 488 L 977 479 C 912 444 853 395 805 334 C 851 287 899 225 925 175 C 945 174 956 171 963 165 L 895 97 L 857 136 L 701 136 C 695 114 689 92 684 69 Z M 734 404 L 734 404 L 695 454 L 477 454 L 485 484 L 783 484 C 796 484 806 479 808 468 C 781 440 734 404 734 404 Z M 835 541 L 835 541 L 790 596 L 378 596 L 386 626 L 606 626 L 606 860 C 606 872 602 878 585 878 C 566 878 478 871 478 871 L 478 886 C 519 892 541 899 555 910 C 566 919 571 935 572 954 C 657 946 669 912 669 861 L 669 626 L 888 626 C 902 626 912 621 915 610 C 884 581 835 541 835 541 Z M 463 669 L 463 669 C 435 740 375 826 310 883 L 320 898 C 399 852 478 779 517 718 C 534 722 545 720 550 710 L 463 669 Z M 742 682 L 742 682 L 731 691 C 788 739 861 820 880 883 C 953 929 994 777 742 682 Z" fill="red" fill-opacity="0.5" /><text text-anchor="middle" x="500" y="1064" font-family="Arial" font-size="64">Source Han Serif TW</text><text text-anchor="middle" x="1500" y="1064" font-family="Arial" font-size="64">HKSerif (uni7A44HK-regular)</text></svg>