<svg width="3000" height="1080" xmlns="http://www.w3.org/2000/svg" style="background:#fff"><path d="M 465 446 L 391 383 L 355 424 L 227 424 C 231 373 232 320 234 267 L 470 267 C 484 267 494 262 497 251 C 465 221 414 180 414 180 L 369 238 L 277 238 L 277 78 C 300 74 308 65 310 52 L 214 43 L 214 238 L 43 238 L 51 267 L 166 267 C 170 518 149 750 40 947 L 52 957 C 168 816 209 645 225 454 L 364 454 C 359 719 345 846 320 872 C 312 879 305 881 289 881 C 271 881 227 878 198 876 L 198 893 C 224 898 250 905 261 914 C 271 923 274 938 274 955 C 309 955 343 948 366 922 C 404 882 420 758 426 462 C 447 458 459 454 465 446 Z M 941 888 L 957 745 L 944 743 C 937 773 927 806 915 839 C 911 851 908 852 901 842 C 865 769 855 521 864 354 C 885 352 898 345 905 338 L 827 271 L 788 312 L 619 312 C 623 255 626 201 628 155 L 920 155 C 934 155 943 150 945 139 C 914 108 861 68 861 68 L 815 126 L 451 126 L 459 155 L 567 155 C 563 337 535 677 511 850 C 476 858 449 865 429 869 L 471 951 C 480 948 488 939 492 926 C 623 870 721 822 790 789 L 786 774 C 712 795 638 815 575 832 C 592 697 606 507 617 342 L 798 342 C 797 563 803 804 862 907 C 884 944 922 972 949 952 C 962 942 958 922 941 888 Z M 658 456 L 643 462 C 674 518 707 606 704 674 C 758 731 822 592 658 456 Z" fill="blue" /><path transform="translate(1000)" d="M 465 446 L 391 383 L 355 424 L 227 424 C 231 373 232 320 234 267 L 470 267 C 484 267 494 262 497 251 C 465 221 414 180 414 180 L 369 238 L 277 238 L 277 78 C 300 74 308 65 310 52 L 214 43 L 214 238 L 43 238 L 51 267 L 166 267 C 170 518 149 750 40 947 L 52 957 C 168 816 209 645 225 454 L 364 454 C 359 719 345 846 320 872 C 312 879 305 881 289 881 C 271 881 227 878 198 876 L 198 893 C 224 898 250 905 261 914 C 271 923 274 938 274 955 C 309 955 343 948 366 922 C 404 882 420 758 426 462 C 447 458 459 454 465 446 Z M 628 445 L 615 450 C 645 506 676 595 673 663 C 727 720 791 583 628 445 Z M 949 872 L 946 774 L 933 774 C 926 812 916 859 910 869 C 907 875 904 876 899 876 C 894 877 886 877 876 877 L 856 877 C 844 877 842 872 842 859 L 842 350 C 864 347 875 341 881 335 L 806 268 L 769 309 L 606 309 C 609 253 612 201 614 155 L 932 155 C 946 155 954 150 957 139 C 925 108 872 68 872 68 L 825 126 L 434 126 L 442 155 L 553 155 C 550 337 524 675 499 848 C 466 855 439 860 419 863 L 459 948 C 469 945 477 936 480 924 C 615 877 715 835 791 805 L 791 784 C 710 803 630 821 563 835 C 579 697 594 505 604 339 L 779 339 L 779 878 C 779 918 787 938 838 938 L 874 938 C 950 938 973 925 973 899 C 973 886 967 879 949 872 Z" fill="red" /><path transform="translate(2000)" d="M 465 446 L 391 383 L 355 424 L 227 424 C 231 373 232 320 234 267 L 470 267 C 484 267 494 262 497 251 C 465 221 414 180 414 180 L 369 238 L 277 238 L 277 78 C 300 74 308 65 310 52 L 214 43 L 214 238 L 43 238 L 51 267 L 166 267 C 170 518 149 750 40 947 L 52 957 C 168 816 209 645 225 454 L 364 454 C 359 719 345 846 320 872 C 312 879 305 881 289 881 C 271 881 227 878 198 876 L 198 893 C 224 898 250 905 261 914 C 271 923 274 938 274 955 C 309 955 343 948 366 922 C 404 882 420 758 426 462 C 447 458 459 454 465 446 Z M 941 888 L 957 745 L 944 743 C 937 773 927 806 915 839 C 911 851 908 852 901 842 C 865 769 855 521 864 354 C 885 352 898 345 905 338 L 827 271 L 788 312 L 619 312 C 623 255 626 201 628 155 L 920 155 C 934 155 943 150 945 139 C 914 108 861 68 861 68 L 815 126 L 451 126 L 459 155 L 567 155 C 563 337 535 677 511 850 C 476 858 449 865 429 869 L 471 951 C 480 948 488 939 492 926 C 623 870 721 822 790 789 L 786 774 C 712 795 638 815 575 832 C 592 697 606 507 617 342 L 798 342 C 797 563 803 804 862 907 C 884 944 922 972 949 952 C 962 942 958 922 941 888 Z M 658 456 L 643 462 C 674 518 707 606 704 674 C 758 731 822 592 658 456 Z" fill="blue" fill-opacity="0.5" /><path transform="translate(2000)" d="M 465 446 L 391 383 L 355 424 L 227 424 C 231 373 232 320 234 267 L 470 267 C 484 267 494 262 497 251 C 465 221 414 180 414 180 L 369 238 L 277 238 L 277 78 C 300 74 308 65 310 52 L 214 43 L 214 238 L 43 238 L 51 267 L 166 267 C 170 518 149 750 40 947 L 52 957 C 168 816 209 645 225 454 L 364 454 C 359 719 345 846 320 872 C 312 879 305 881 289 881 C 271 881 227 878 198 876 L 198 893 C 224 898 250 905 261 914 C 271 923 274 938 274 955 C 309 955 343 948 366 922 C 404 882 420 758 426 462 C 447 458 459 454 465 446 Z M 628 445 L 615 450 C 645 506 676 595 673 663 C 727 720 791 583 628 445 Z M 949 872 L 946 774 L 933 774 C 926 812 916 859 910 869 C 907 875 904 876 899 876 C 894 877 886 877 876 877 L 856 877 C 844 877 842 872 842 859 L 842 350 C 864 347 875 341 881 335 L 806 268 L 769 309 L 606 309 C 609 253 612 201 614 155 L 932 155 C 946 155 954 150 957 139 C 925 108 872 68 872 68 L 825 126 L 434 126 L 442 155 L 553 155 C 550 337 524 675 499 848 C 466 855 439 860 419 863 L 459 948 C 469 945 477 936 480 924 C 615 877 715 835 791 805 L 791 784 C 710 803 630 821 563 835 C 579 697 594 505 604 339 L 779 339 L 779 878 C 779 918 787 938 838 938 L 874 938 C 950 938 973 925 973 899 C 973 886 967 879 949 872 Z" fill="red" fill-opacity="0.5" /><text text-anchor="middle" x="500" y="1064" font-family="Arial" font-size="64">Source Han Serif KR</text><text text-anchor="middle" x="1500" y="1064" font-family="Arial" font-size="64">HKSerif (uni74ECKX-regular)</text></svg>