<svg width="3000" height="1080" xmlns="http://www.w3.org/2000/svg" style="background:#fff"><path d="M 316 352 L 331 363 C 353 345 374 323 393 299 C 413 320 432 348 438 371 C 481 404 522 322 405 283 C 419 266 432 246 445 226 C 464 242 483 265 491 283 C 536 312 571 233 455 207 C 462 196 468 183 475 170 L 575 170 C 540 304 463 439 346 528 L 358 542 C 508 454 592 314 636 176 C 657 175 668 172 675 163 L 610 104 L 573 141 L 488 141 C 499 117 508 95 516 72 C 542 72 549 67 552 56 L 460 41 C 437 149 382 279 316 352 Z M 488 462 L 496 492 L 787 492 C 801 492 809 487 812 476 C 784 448 739 412 739 412 L 699 462 L 488 462 Z M 276 755 L 172 755 L 172 459 L 276 459 L 276 755 Z M 334 825 L 334 470 C 353 466 369 459 376 451 L 300 393 L 266 430 L 184 430 L 164 421 C 196 343 218 258 232 170 L 369 170 C 382 170 391 165 394 154 C 363 124 310 84 310 84 L 265 141 L 43 141 L 51 170 L 165 170 C 143 328 104 488 36 613 L 51 625 C 73 595 94 563 113 531 L 113 901 L 123 901 C 152 901 172 885 172 879 L 172 784 L 276 784 L 276 844 L 285 844 C 305 844 333 830 334 825 Z M 559 725 L 473 685 C 443 758 382 850 317 911 L 327 925 C 406 875 486 799 525 734 C 543 738 555 735 559 725 Z M 684 639 L 902 639 C 916 639 926 634 929 623 C 898 594 848 555 848 555 L 806 610 L 391 610 L 399 639 L 622 639 L 622 864 C 622 876 618 881 600 881 C 580 881 493 875 493 875 L 493 890 C 535 895 558 902 571 911 C 581 921 586 935 587 952 C 673 944 684 914 684 864 L 684 639 Z M 758 697 L 747 704 C 802 753 872 834 890 897 C 960 945 1004 794 758 697 Z M 960 170 L 891 102 L 853 141 L 734 141 L 743 170 L 856 170 C 840 215 814 271 791 313 C 743 244 708 160 689 69 L 670 77 C 703 279 783 436 911 532 C 922 505 941 490 966 488 L 969 480 C 905 445 850 394 805 333 C 848 290 895 228 921 180 C 941 178 953 176 960 170 Z" fill="blue" /><path transform="translate(1000)" d="M 316 352 L 331 363 C 353 345 374 323 393 299 C 413 320 432 348 438 371 C 481 404 522 322 405 283 C 419 266 432 246 445 226 C 464 242 483 265 491 283 C 536 312 571 233 455 207 C 462 196 468 183 475 170 L 575 170 C 540 304 463 439 346 528 L 358 542 C 508 454 592 314 636 176 C 657 175 668 172 675 163 L 610 104 L 573 141 L 488 141 C 499 117 508 95 516 72 C 542 72 549 67 552 56 L 460 41 C 437 149 382 279 316 352 Z M 488 462 L 496 492 L 787 492 C 801 492 809 487 812 476 C 784 448 739 412 739 412 L 699 462 L 488 462 Z M 276 755 L 172 755 L 172 459 L 276 459 L 276 755 Z M 334 825 L 334 470 C 353 466 369 459 376 451 L 300 393 L 266 430 L 184 430 L 164 421 C 196 343 218 258 232 170 L 369 170 C 382 170 391 165 394 154 C 363 124 310 84 310 84 L 265 141 L 43 141 L 51 170 L 165 170 C 143 328 104 488 36 613 L 51 625 C 73 595 94 563 113 531 L 113 901 L 123 901 C 152 901 172 885 172 879 L 172 784 L 276 784 L 276 844 L 285 844 C 305 844 333 830 334 825 Z M 559 725 L 473 685 C 443 758 382 850 317 911 L 327 925 C 406 875 486 799 525 734 C 543 738 555 735 559 725 Z M 684 639 L 902 639 C 916 639 926 634 929 623 C 898 594 848 555 848 555 L 806 610 L 391 610 L 399 639 L 622 639 L 622 864 C 622 876 618 881 600 881 C 580 881 493 875 493 875 L 493 890 C 535 895 558 902 571 911 C 581 921 586 935 587 952 C 673 944 684 914 684 864 L 684 639 Z M 758 697 L 747 704 C 802 753 872 834 890 897 C 960 945 1004 794 758 697 Z M 960 170 L 891 102 L 853 141 L 704 141 L 713 170 L 856 170 C 840 215 814 271 791 313 C 743 244 708 160 689 69 L 670 77 C 703 279 783 436 911 532 C 922 505 941 490 966 488 L 969 480 C 905 445 850 394 805 333 C 848 290 895 228 921 180 C 941 178 953 176 960 170 Z" fill="red" /><path transform="translate(2000)" d="M 316 352 L 331 363 C 353 345 374 323 393 299 C 413 320 432 348 438 371 C 481 404 522 322 405 283 C 419 266 432 246 445 226 C 464 242 483 265 491 283 C 536 312 571 233 455 207 C 462 196 468 183 475 170 L 575 170 C 540 304 463 439 346 528 L 358 542 C 508 454 592 314 636 176 C 657 175 668 172 675 163 L 610 104 L 573 141 L 488 141 C 499 117 508 95 516 72 C 542 72 549 67 552 56 L 460 41 C 437 149 382 279 316 352 Z M 488 462 L 496 492 L 787 492 C 801 492 809 487 812 476 C 784 448 739 412 739 412 L 699 462 L 488 462 Z M 276 755 L 172 755 L 172 459 L 276 459 L 276 755 Z M 334 825 L 334 470 C 353 466 369 459 376 451 L 300 393 L 266 430 L 184 430 L 164 421 C 196 343 218 258 232 170 L 369 170 C 382 170 391 165 394 154 C 363 124 310 84 310 84 L 265 141 L 43 141 L 51 170 L 165 170 C 143 328 104 488 36 613 L 51 625 C 73 595 94 563 113 531 L 113 901 L 123 901 C 152 901 172 885 172 879 L 172 784 L 276 784 L 276 844 L 285 844 C 305 844 333 830 334 825 Z M 559 725 L 473 685 C 443 758 382 850 317 911 L 327 925 C 406 875 486 799 525 734 C 543 738 555 735 559 725 Z M 684 639 L 902 639 C 916 639 926 634 929 623 C 898 594 848 555 848 555 L 806 610 L 391 610 L 399 639 L 622 639 L 622 864 C 622 876 618 881 600 881 C 580 881 493 875 493 875 L 493 890 C 535 895 558 902 571 911 C 581 921 586 935 587 952 C 673 944 684 914 684 864 L 684 639 Z M 758 697 L 747 704 C 802 753 872 834 890 897 C 960 945 1004 794 758 697 Z M 960 170 L 891 102 L 853 141 L 734 141 L 743 170 L 856 170 C 840 215 814 271 791 313 C 743 244 708 160 689 69 L 670 77 C 703 279 783 436 911 532 C 922 505 941 490 966 488 L 969 480 C 905 445 850 394 805 333 C 848 290 895 228 921 180 C 941 178 953 176 960 170 Z" fill="blue" fill-opacity="0.5" /><path transform="translate(2000)" d="M 316 352 L 331 363 C 353 345 374 323 393 299 C 413 320 432 348 438 371 C 481 404 522 322 405 283 C 419 266 432 246 445 226 C 464 242 483 265 491 283 C 536 312 571 233 455 207 C 462 196 468 183 475 170 L 575 170 C 540 304 463 439 346 528 L 358 542 C 508 454 592 314 636 176 C 657 175 668 172 675 163 L 610 104 L 573 141 L 488 141 C 499 117 508 95 516 72 C 542 72 549 67 552 56 L 460 41 C 437 149 382 279 316 352 Z M 488 462 L 496 492 L 787 492 C 801 492 809 487 812 476 C 784 448 739 412 739 412 L 699 462 L 488 462 Z M 276 755 L 172 755 L 172 459 L 276 459 L 276 755 Z M 334 825 L 334 470 C 353 466 369 459 376 451 L 300 393 L 266 430 L 184 430 L 164 421 C 196 343 218 258 232 170 L 369 170 C 382 170 391 165 394 154 C 363 124 310 84 310 84 L 265 141 L 43 141 L 51 170 L 165 170 C 143 328 104 488 36 613 L 51 625 C 73 595 94 563 113 531 L 113 901 L 123 901 C 152 901 172 885 172 879 L 172 784 L 276 784 L 276 844 L 285 844 C 305 844 333 830 334 825 Z M 559 725 L 473 685 C 443 758 382 850 317 911 L 327 925 C 406 875 486 799 525 734 C 543 738 555 735 559 725 Z M 684 639 L 902 639 C 916 639 926 634 929 623 C 898 594 848 555 848 555 L 806 610 L 391 610 L 399 639 L 622 639 L 622 864 C 622 876 618 881 600 881 C 580 881 493 875 493 875 L 493 890 C 535 895 558 902 571 911 C 581 921 586 935 587 952 C 673 944 684 914 684 864 L 684 639 Z M 758 697 L 747 704 C 802 753 872 834 890 897 C 960 945 1004 794 758 697 Z M 960 170 L 891 102 L 853 141 L 704 141 L 713 170 L 856 170 C 840 215 814 271 791 313 C 743 244 708 160 689 69 L 670 77 C 703 279 783 436 911 532 C 922 505 941 490 966 488 L 969 480 C 905 445 850 394 805 333 C 848 290 895 228 921 180 C 941 178 953 176 960 170 Z" fill="red" fill-opacity="0.5" /><text text-anchor="middle" x="500" y="1064" font-family="Arial" font-size="64">Source Han Serif TW</text><text text-anchor="middle" x="1500" y="1064" font-family="Arial" font-size="64">HKSerif (uni78DCHK-regular)</text></svg>