<svg width="1000" height="1000" xmlns="http://www.w3.org/2000/svg"><path d="M 427 493 L 417 501 C 453 534 498 592 514 636 C 578 678 630 554 427 493 Z" fill="black" /><path d="M 884 346 L 840 404 L 756 404 L 827 177 C 846 176 855 174 862 166 L 796 107 L 762 141 L 588 141 C 595 121 600 104 605 87 C 632 88 642 76 645 64 L 552 46 C 537 103 500 208 472 275 C 456 280 437 287 427 294 L 495 353 L 528 320 L 716 320 L 690 404 L 392 404 L 400 434 L 634 434 L 634 655 C 524 718 413 778 369 799 L 423 872 C 431 867 437 855 437 844 C 522 775 587 716 634 675 L 634 861 C 634 875 629 880 612 880 C 592 880 493 873 493 873 L 493 888 C 538 894 562 902 577 913 C 589 922 595 939 596 958 C 685 949 697 914 697 862 L 697 507 C 735 701 807 801 914 882 C 924 853 942 832 966 827 L 968 818 C 892 777 821 722 768 631 C 815 597 876 551 911 523 C 931 529 940 526 945 518 L 870 463 C 842 503 796 567 758 613 C 733 565 712 506 699 434 L 940 434 C 954 434 963 429 966 418 C 935 387 884 346 884 346 Z" fill="black" /><path d="M 725 290 L 529 290 C 545 255 561 212 577 171 L 763 171 L 725 290 Z" fill="white" /><path d="M 409 458 L 332 398 L 298 437 L 193 437 L 168 426 C 201 346 224 259 240 169 L 395 169 C 409 169 418 164 420 153 C 389 123 337 83 337 83 L 291 140 L 43 140 L 51 169 L 173 169 C 149 332 103 504 31 635 L 46 647 C 74 611 99 571 121 529 L 121 921 L 131 921 C 160 921 180 905 180 900 L 180 806 L 308 806 L 308 871 L 317 871 C 337 871 367 858 368 852 L 368 478 C 387 474 403 466 409 458 Z" fill="black" /><path d="M 308 776 L 180 776 L 180 466 L 308 466 L 308 776 Z" fill="white" /></svg>