<svg width="3000" height="1080" xmlns="http://www.w3.org/2000/svg" style="background:#fff"><path d="M 288 82 L 288 81 C 312 79 323 72 326 61 L 222 36 C 190 146 110 305 26 398 L 39 408 C 142 328 231 197 282 94 C 369 163 425 251 443 318 C 500 370 588 217 288 82 Z M 309 356 L 136 356 L 144 386 L 406 386 C 419 386 428 381 431 370 C 401 341 353 303 353 303 L 309 356 Z M 457 751 L 457 544 C 475 541 492 533 498 525 L 416 465 L 383 504 L 59 504 L 68 533 L 199 533 L 199 958 L 209 958 C 240 958 261 943 261 938 L 261 533 L 393 533 L 393 744 C 393 755 390 760 377 760 C 363 760 302 756 302 756 L 302 771 C 332 776 348 783 358 793 C 368 803 371 820 373 837 C 448 831 457 801 457 751 Z M 953 887 L 968 748 L 955 745 C 948 774 938 807 927 839 C 922 851 918 852 913 842 C 875 770 867 528 875 363 C 895 360 909 354 916 346 L 838 281 L 799 322 L 632 322 C 637 261 641 204 643 155 L 933 155 C 948 155 956 150 959 139 C 926 108 873 67 873 67 L 827 126 L 473 126 L 481 155 L 581 155 C 576 340 544 686 517 857 C 484 862 457 867 437 869 L 476 954 C 486 951 494 944 499 931 C 641 884 746 845 821 817 L 818 802 C 734 818 651 834 581 846 C 599 711 617 519 630 351 L 809 351 C 808 568 813 805 873 907 C 896 943 934 971 959 951 C 973 941 968 921 953 887 Z M 663 455 L 648 461 C 679 517 711 606 708 673 C 763 731 825 592 663 455 Z" fill="blue" /><path transform="translate(1000)" d="M 288 82 L 288 81 C 312 79 323 72 326 61 L 222 36 C 190 146 110 305 26 398 L 39 408 C 142 328 231 197 282 94 C 369 163 425 251 443 318 C 500 370 588 217 288 82 Z M 309 356 L 136 356 L 144 386 L 406 386 C 419 386 428 381 431 370 C 401 341 353 303 353 303 L 309 356 Z M 457 751 L 457 544 C 475 541 492 533 498 525 L 416 465 L 383 504 L 59 504 L 68 533 L 199 533 L 199 958 L 209 958 C 240 958 261 943 261 938 L 261 533 L 393 533 L 393 744 C 393 755 390 760 377 760 C 363 760 302 756 302 756 L 302 771 C 332 776 348 783 358 793 C 368 803 371 820 373 837 C 448 831 457 801 457 751 Z M 652 445 L 639 450 C 669 506 700 595 697 663 C 751 720 815 583 652 445 Z M 949 872 L 946 774 L 933 774 C 926 812 916 859 910 869 C 907 875 904 876 899 876 C 894 877 886 877 876 877 L 872 877 C 860 877 858 872 858 859 L 858 350 C 880 347 891 341 897 335 L 822 268 L 785 309 L 626 309 C 629 253 632 201 634 155 L 932 155 C 946 155 954 150 957 139 C 925 108 872 68 872 68 L 825 126 L 466 126 L 474 155 L 573 155 C 570 337 544 675 519 848 C 486 855 459 860 439 863 L 479 948 C 489 945 497 936 500 924 C 635 877 735 835 811 805 L 811 784 C 730 803 650 821 583 835 C 599 697 614 505 624 339 L 795 339 L 795 878 C 795 918 803 938 854 938 L 874 938 C 950 938 973 925 973 899 C 973 886 967 879 949 872 Z" fill="red" /><path transform="translate(2000)" d="M 288 82 L 288 81 C 312 79 323 72 326 61 L 222 36 C 190 146 110 305 26 398 L 39 408 C 142 328 231 197 282 94 C 369 163 425 251 443 318 C 500 370 588 217 288 82 Z M 309 356 L 136 356 L 144 386 L 406 386 C 419 386 428 381 431 370 C 401 341 353 303 353 303 L 309 356 Z M 457 751 L 457 544 C 475 541 492 533 498 525 L 416 465 L 383 504 L 59 504 L 68 533 L 199 533 L 199 958 L 209 958 C 240 958 261 943 261 938 L 261 533 L 393 533 L 393 744 C 393 755 390 760 377 760 C 363 760 302 756 302 756 L 302 771 C 332 776 348 783 358 793 C 368 803 371 820 373 837 C 448 831 457 801 457 751 Z M 953 887 L 968 748 L 955 745 C 948 774 938 807 927 839 C 922 851 918 852 913 842 C 875 770 867 528 875 363 C 895 360 909 354 916 346 L 838 281 L 799 322 L 632 322 C 637 261 641 204 643 155 L 933 155 C 948 155 956 150 959 139 C 926 108 873 67 873 67 L 827 126 L 473 126 L 481 155 L 581 155 C 576 340 544 686 517 857 C 484 862 457 867 437 869 L 476 954 C 486 951 494 944 499 931 C 641 884 746 845 821 817 L 818 802 C 734 818 651 834 581 846 C 599 711 617 519 630 351 L 809 351 C 808 568 813 805 873 907 C 896 943 934 971 959 951 C 973 941 968 921 953 887 Z M 663 455 L 648 461 C 679 517 711 606 708 673 C 763 731 825 592 663 455 Z" fill="blue" fill-opacity="0.5" /><path transform="translate(2000)" d="M 288 82 L 288 81 C 312 79 323 72 326 61 L 222 36 C 190 146 110 305 26 398 L 39 408 C 142 328 231 197 282 94 C 369 163 425 251 443 318 C 500 370 588 217 288 82 Z M 309 356 L 136 356 L 144 386 L 406 386 C 419 386 428 381 431 370 C 401 341 353 303 353 303 L 309 356 Z M 457 751 L 457 544 C 475 541 492 533 498 525 L 416 465 L 383 504 L 59 504 L 68 533 L 199 533 L 199 958 L 209 958 C 240 958 261 943 261 938 L 261 533 L 393 533 L 393 744 C 393 755 390 760 377 760 C 363 760 302 756 302 756 L 302 771 C 332 776 348 783 358 793 C 368 803 371 820 373 837 C 448 831 457 801 457 751 Z M 652 445 L 639 450 C 669 506 700 595 697 663 C 751 720 815 583 652 445 Z M 949 872 L 946 774 L 933 774 C 926 812 916 859 910 869 C 907 875 904 876 899 876 C 894 877 886 877 876 877 L 872 877 C 860 877 858 872 858 859 L 858 350 C 880 347 891 341 897 335 L 822 268 L 785 309 L 626 309 C 629 253 632 201 634 155 L 932 155 C 946 155 954 150 957 139 C 925 108 872 68 872 68 L 825 126 L 466 126 L 474 155 L 573 155 C 570 337 544 675 519 848 C 486 855 459 860 439 863 L 479 948 C 489 945 497 936 500 924 C 635 877 735 835 811 805 L 811 784 C 730 803 650 821 583 835 C 599 697 614 505 624 339 L 795 339 L 795 878 C 795 918 803 938 854 938 L 874 938 C 950 938 973 925 973 899 C 973 886 967 879 949 872 Z" fill="red" fill-opacity="0.5" /><text text-anchor="middle" x="500" y="1064" font-family="Arial" font-size="64">Source Han Serif KR</text><text text-anchor="middle" x="1500" y="1064" font-family="Arial" font-size="64">HKSerif (uni74F4KX-regular)</text></svg>