<svg width="3000" height="1080" xmlns="http://www.w3.org/2000/svg" style="background:#fff"><path d="M 682 83 L 671 92 C 742 144 839 236 870 306 C 946 345 972 185 682 83 Z M 358 118 L 271 69 C 218 172 142 271 79 328 L 92 341 C 170 295 255 218 319 130 C 339 134 352 128 358 118 Z M 81 932 L 92 946 C 191 921 302 876 362 833 C 383 840 392 836 399 827 L 317 774 C 268 826 168 893 81 932 Z M 628 633 L 619 645 C 651 659 688 679 724 702 C 614 703 509 705 418 705 C 508 661 600 608 658 569 C 679 577 689 574 696 565 L 619 508 C 562 563 456 645 363 705 C 264 706 183 706 130 705 L 174 786 C 182 784 192 778 199 766 C 298 760 387 754 466 748 L 466 958 L 476 958 C 508 958 530 944 530 940 L 530 744 C 619 738 694 732 758 725 C 791 749 818 773 836 793 C 911 815 911 670 628 633 Z M 592 781 L 585 793 C 671 824 793 891 843 946 C 928 961 910 803 592 781 Z M 638 414 L 362 414 C 392 374 419 331 441 288 L 568 288 C 586 331 610 374 638 414 Z M 725 444 L 929 444 C 943 444 952 439 955 428 C 920 396 866 355 866 355 L 818 414 L 692 414 C 653 376 618 333 593 288 L 776 288 C 790 288 799 283 802 272 C 769 242 719 202 719 202 L 673 258 L 455 258 C 483 202 504 144 521 87 C 542 89 556 81 560 67 L 455 38 C 437 111 414 186 380 258 L 227 258 L 235 288 L 366 288 C 345 331 321 374 293 414 L 49 414 L 58 444 L 272 444 C 209 528 131 603 34 663 L 44 674 C 116 640 179 598 234 552 L 230 558 C 282 580 348 624 374 666 C 423 682 442 623 382 583 C 428 553 480 519 509 494 C 525 497 537 494 541 484 L 455 447 C 431 481 392 528 354 568 C 327 556 290 547 241 546 C 277 515 310 480 340 444 L 658 444 C 724 530 807 604 897 654 C 903 625 928 608 961 600 L 964 590 C 883 557 797 507 725 444 Z" fill="blue" /><path transform="translate(1000)" d="M 660 70 L 649 79 C 710 131 795 220 825 284 C 899 328 936 176 660 70 Z M 368 103 L 276 57 C 230 159 159 250 95 302 L 107 316 C 187 274 269 205 328 116 C 348 121 362 114 368 103 Z M 626 397 L 401 397 C 429 355 452 310 472 264 L 562 264 C 579 311 600 356 626 397 Z M 702 425 L 935 425 C 949 425 958 421 961 410 C 927 379 871 337 871 337 L 823 397 L 675 397 C 640 357 609 313 587 264 L 757 264 C 772 264 781 259 784 249 C 751 219 701 178 701 178 L 655 235 L 483 235 C 501 188 516 140 527 92 C 546 92 560 85 565 69 L 458 44 C 447 108 430 173 408 235 L 226 235 L 234 264 L 397 264 C 378 310 356 354 330 397 L 48 397 L 57 425 L 311 425 C 247 519 161 602 44 665 L 53 675 C 202 614 307 527 381 425 L 643 425 C 712 527 803 606 906 654 C 913 624 938 606 970 598 L 972 587 C 876 554 779 499 702 425 Z M 102 927 L 112 941 C 205 916 303 870 358 828 C 378 834 387 831 394 822 L 315 773 C 272 825 182 890 102 927 Z M 631 606 L 624 618 C 658 634 697 657 732 684 C 636 686 543 689 459 691 C 536 645 611 588 652 554 C 668 558 678 556 682 548 L 609 503 C 569 550 488 633 414 692 C 293 695 193 697 131 696 L 174 775 C 183 772 193 766 199 754 C 299 747 388 740 468 734 L 468 958 L 478 958 C 511 958 533 944 533 940 L 533 728 C 622 721 697 713 760 706 C 785 727 805 749 817 770 C 892 798 898 645 631 606 Z M 530 502 L 450 451 C 433 481 396 533 365 572 C 342 563 311 557 272 556 L 264 567 C 309 587 366 630 386 669 C 436 690 460 622 387 582 C 428 558 469 530 492 510 C 512 516 526 509 530 502 Z M 629 781 L 622 793 C 694 825 792 888 832 941 C 910 964 909 811 629 781 Z" fill="red" /><path transform="translate(2000)" d="M 682 83 L 671 92 C 742 144 839 236 870 306 C 946 345 972 185 682 83 Z M 358 118 L 271 69 C 218 172 142 271 79 328 L 92 341 C 170 295 255 218 319 130 C 339 134 352 128 358 118 Z M 81 932 L 92 946 C 191 921 302 876 362 833 C 383 840 392 836 399 827 L 317 774 C 268 826 168 893 81 932 Z M 628 633 L 619 645 C 651 659 688 679 724 702 C 614 703 509 705 418 705 C 508 661 600 608 658 569 C 679 577 689 574 696 565 L 619 508 C 562 563 456 645 363 705 C 264 706 183 706 130 705 L 174 786 C 182 784 192 778 199 766 C 298 760 387 754 466 748 L 466 958 L 476 958 C 508 958 530 944 530 940 L 530 744 C 619 738 694 732 758 725 C 791 749 818 773 836 793 C 911 815 911 670 628 633 Z M 592 781 L 585 793 C 671 824 793 891 843 946 C 928 961 910 803 592 781 Z M 638 414 L 362 414 C 392 374 419 331 441 288 L 568 288 C 586 331 610 374 638 414 Z M 725 444 L 929 444 C 943 444 952 439 955 428 C 920 396 866 355 866 355 L 818 414 L 692 414 C 653 376 618 333 593 288 L 776 288 C 790 288 799 283 802 272 C 769 242 719 202 719 202 L 673 258 L 455 258 C 483 202 504 144 521 87 C 542 89 556 81 560 67 L 455 38 C 437 111 414 186 380 258 L 227 258 L 235 288 L 366 288 C 345 331 321 374 293 414 L 49 414 L 58 444 L 272 444 C 209 528 131 603 34 663 L 44 674 C 116 640 179 598 234 552 L 230 558 C 282 580 348 624 374 666 C 423 682 442 623 382 583 C 428 553 480 519 509 494 C 525 497 537 494 541 484 L 455 447 C 431 481 392 528 354 568 C 327 556 290 547 241 546 C 277 515 310 480 340 444 L 658 444 C 724 530 807 604 897 654 C 903 625 928 608 961 600 L 964 590 C 883 557 797 507 725 444 Z" fill="blue" fill-opacity="0.5" /><path transform="translate(2000)" d="M 660 70 L 649 79 C 710 131 795 220 825 284 C 899 328 936 176 660 70 Z M 368 103 L 276 57 C 230 159 159 250 95 302 L 107 316 C 187 274 269 205 328 116 C 348 121 362 114 368 103 Z M 626 397 L 401 397 C 429 355 452 310 472 264 L 562 264 C 579 311 600 356 626 397 Z M 702 425 L 935 425 C 949 425 958 421 961 410 C 927 379 871 337 871 337 L 823 397 L 675 397 C 640 357 609 313 587 264 L 757 264 C 772 264 781 259 784 249 C 751 219 701 178 701 178 L 655 235 L 483 235 C 501 188 516 140 527 92 C 546 92 560 85 565 69 L 458 44 C 447 108 430 173 408 235 L 226 235 L 234 264 L 397 264 C 378 310 356 354 330 397 L 48 397 L 57 425 L 311 425 C 247 519 161 602 44 665 L 53 675 C 202 614 307 527 381 425 L 643 425 C 712 527 803 606 906 654 C 913 624 938 606 970 598 L 972 587 C 876 554 779 499 702 425 Z M 102 927 L 112 941 C 205 916 303 870 358 828 C 378 834 387 831 394 822 L 315 773 C 272 825 182 890 102 927 Z M 631 606 L 624 618 C 658 634 697 657 732 684 C 636 686 543 689 459 691 C 536 645 611 588 652 554 C 668 558 678 556 682 548 L 609 503 C 569 550 488 633 414 692 C 293 695 193 697 131 696 L 174 775 C 183 772 193 766 199 754 C 299 747 388 740 468 734 L 468 958 L 478 958 C 511 958 533 944 533 940 L 533 728 C 622 721 697 713 760 706 C 785 727 805 749 817 770 C 892 798 898 645 631 606 Z M 530 502 L 450 451 C 433 481 396 533 365 572 C 342 563 311 557 272 556 L 264 567 C 309 587 366 630 386 669 C 436 690 460 622 387 582 C 428 558 469 530 492 510 C 512 516 526 509 530 502 Z M 629 781 L 622 793 C 694 825 792 888 832 941 C 910 964 909 811 629 781 Z" fill="red" fill-opacity="0.5" /><text text-anchor="middle" x="500" y="1064" font-family="Arial" font-size="64">Source Han Serif KR</text><text text-anchor="middle" x="1500" y="1064" font-family="Arial" font-size="64">HKSerif (uni7D6DKX-regular)</text></svg>