<svg width="3000" height="1080" xmlns="http://www.w3.org/2000/svg" style="background:#fff"><path d="M 377 407 L 666 407 C 657 448 643 476 631 484 C 624 490 615 491 600 491 C 580 491 518 486 483 483 L 483 500 C 516 504 547 511 559 521 C 572 530 575 548 575 564 C 608 564 642 556 664 543 C 698 523 718 478 729 414 C 749 412 762 407 768 400 L 697 342 L 662 377 L 402 377 C 408 369 415 360 421 351 C 442 359 457 352 463 343 L 379 286 C 300 427 174 534 55 586 L 64 602 C 177 569 289 506 377 407 Z M 822 554 L 786 594 L 520 594 L 529 623 L 795 623 L 795 729 L 539 729 L 547 758 L 795 758 L 795 878 L 220 878 L 220 759 L 454 759 C 467 759 476 754 478 744 C 452 716 406 679 406 679 L 367 730 L 220 730 L 220 628 C 309 616 400 593 454 578 C 468 584 479 583 486 577 L 411 511 C 374 534 307 568 242 595 L 155 576 L 155 957 L 164 957 C 200 957 218 940 220 935 L 220 908 L 795 908 L 795 951 L 805 951 C 827 951 860 935 861 929 L 861 636 C 880 632 896 624 903 616 L 822 554 Z M 922 271 L 919 225 L 908 225 C 901 247 891 265 885 273 C 880 276 874 278 865 279 L 776 279 L 678 279 C 643 279 640 277 640 265 L 640 177 L 640 173 L 829 173 C 818 199 802 230 790 250 L 803 257 C 837 240 882 208 907 183 C 927 182 938 180 945 174 L 871 101 L 829 144 L 533 144 L 533 74 C 556 71 566 61 568 48 L 466 37 L 466 144 L 186 144 C 185 131 182 116 177 101 L 160 102 C 162 151 127 191 91 204 C 70 214 54 232 62 255 C 70 278 104 280 130 268 C 157 255 183 223 187 173 L 355 173 C 317 284 221 345 53 385 L 59 401 C 256 373 383 312 433 173 L 577 173 L 577 276 C 577 322 589 335 665 335 L 771 335 C 924 335 951 326 951 298 C 951 285 945 278 922 271 Z" fill="blue" /><path transform="translate(1000)" d="M 340 437 L 657 437 C 621 475 569 526 536 554 L 549 562 C 606 534 699 480 745 447 C 766 446 778 445 786 438 L 721 368 L 678 408 L 360 408 L 340 437 Z M 463 343 L 379 286 C 300 427 174 534 55 586 L 64 602 C 197 566 343 468 421 351 C 442 359 457 352 463 343 Z M 822 554 L 786 594 L 520 594 L 529 623 L 795 623 L 795 729 L 539 729 L 547 758 L 795 758 L 795 878 L 220 878 L 220 759 L 454 759 C 467 759 476 754 478 744 C 452 716 406 679 406 679 L 367 730 L 220 730 L 220 628 C 309 616 400 593 454 578 C 468 584 479 583 486 577 L 411 511 C 374 534 307 568 242 595 L 155 576 L 155 957 L 164 957 C 200 957 218 940 220 935 L 220 908 L 795 908 L 795 951 L 805 951 C 827 951 860 935 861 929 L 861 636 C 880 632 896 624 903 616 L 822 554 Z M 922 271 L 919 225 L 908 225 C 901 247 891 265 885 273 C 880 276 874 278 865 279 L 776 279 L 678 279 C 643 279 640 277 640 265 L 640 177 L 640 173 L 829 173 C 818 199 802 230 790 250 L 803 257 C 837 240 882 208 907 183 C 927 182 938 180 945 174 L 871 101 L 829 144 L 533 144 L 533 74 C 556 71 566 61 568 48 L 466 37 L 466 144 L 186 144 C 185 131 182 116 177 101 L 160 102 C 162 151 127 191 91 204 C 70 214 54 232 62 255 C 70 278 104 280 130 268 C 157 255 183 223 187 173 L 355 173 C 317 284 221 345 53 385 L 59 401 C 256 373 383 312 433 173 L 577 173 L 577 276 C 577 322 589 335 665 335 L 771 335 C 924 335 951 326 951 298 C 951 285 945 278 922 271 Z" fill="red" /><path transform="translate(2000)" d="M 377 407 L 666 407 C 657 448 643 476 631 484 C 624 490 615 491 600 491 C 580 491 518 486 483 483 L 483 500 C 516 504 547 511 559 521 C 572 530 575 548 575 564 C 608 564 642 556 664 543 C 698 523 718 478 729 414 C 749 412 762 407 768 400 L 697 342 L 662 377 L 402 377 C 408 369 415 360 421 351 C 442 359 457 352 463 343 L 379 286 C 300 427 174 534 55 586 L 64 602 C 177 569 289 506 377 407 Z M 822 554 L 786 594 L 520 594 L 529 623 L 795 623 L 795 729 L 539 729 L 547 758 L 795 758 L 795 878 L 220 878 L 220 759 L 454 759 C 467 759 476 754 478 744 C 452 716 406 679 406 679 L 367 730 L 220 730 L 220 628 C 309 616 400 593 454 578 C 468 584 479 583 486 577 L 411 511 C 374 534 307 568 242 595 L 155 576 L 155 957 L 164 957 C 200 957 218 940 220 935 L 220 908 L 795 908 L 795 951 L 805 951 C 827 951 860 935 861 929 L 861 636 C 880 632 896 624 903 616 L 822 554 Z M 922 271 L 919 225 L 908 225 C 901 247 891 265 885 273 C 880 276 874 278 865 279 L 776 279 L 678 279 C 643 279 640 277 640 265 L 640 177 L 640 173 L 829 173 C 818 199 802 230 790 250 L 803 257 C 837 240 882 208 907 183 C 927 182 938 180 945 174 L 871 101 L 829 144 L 533 144 L 533 74 C 556 71 566 61 568 48 L 466 37 L 466 144 L 186 144 C 185 131 182 116 177 101 L 160 102 C 162 151 127 191 91 204 C 70 214 54 232 62 255 C 70 278 104 280 130 268 C 157 255 183 223 187 173 L 355 173 C 317 284 221 345 53 385 L 59 401 C 256 373 383 312 433 173 L 577 173 L 577 276 C 577 322 589 335 665 335 L 771 335 C 924 335 951 326 951 298 C 951 285 945 278 922 271 Z" fill="blue" fill-opacity="0.5" /><path transform="translate(2000)" d="M 340 437 L 657 437 C 621 475 569 526 536 554 L 549 562 C 606 534 699 480 745 447 C 766 446 778 445 786 438 L 721 368 L 678 408 L 360 408 L 340 437 Z M 463 343 L 379 286 C 300 427 174 534 55 586 L 64 602 C 197 566 343 468 421 351 C 442 359 457 352 463 343 Z M 822 554 L 786 594 L 520 594 L 529 623 L 795 623 L 795 729 L 539 729 L 547 758 L 795 758 L 795 878 L 220 878 L 220 759 L 454 759 C 467 759 476 754 478 744 C 452 716 406 679 406 679 L 367 730 L 220 730 L 220 628 C 309 616 400 593 454 578 C 468 584 479 583 486 577 L 411 511 C 374 534 307 568 242 595 L 155 576 L 155 957 L 164 957 C 200 957 218 940 220 935 L 220 908 L 795 908 L 795 951 L 805 951 C 827 951 860 935 861 929 L 861 636 C 880 632 896 624 903 616 L 822 554 Z M 922 271 L 919 225 L 908 225 C 901 247 891 265 885 273 C 880 276 874 278 865 279 L 776 279 L 678 279 C 643 279 640 277 640 265 L 640 177 L 640 173 L 829 173 C 818 199 802 230 790 250 L 803 257 C 837 240 882 208 907 183 C 927 182 938 180 945 174 L 871 101 L 829 144 L 533 144 L 533 74 C 556 71 566 61 568 48 L 466 37 L 466 144 L 186 144 C 185 131 182 116 177 101 L 160 102 C 162 151 127 191 91 204 C 70 214 54 232 62 255 C 70 278 104 280 130 268 C 157 255 183 223 187 173 L 355 173 C 317 284 221 345 53 385 L 59 401 C 256 373 383 312 433 173 L 577 173 L 577 276 C 577 322 589 335 665 335 L 771 335 C 924 335 951 326 951 298 C 951 285 945 278 922 271 Z" fill="red" fill-opacity="0.5" /><text text-anchor="middle" x="500" y="1064" font-family="Arial" font-size="64">Source Han Serif KR</text><text text-anchor="middle" x="1500" y="1064" font-family="Arial" font-size="64">HKSerif (uni7A9EKX-regular)</text></svg>