<svg width="3000" height="1080" xmlns="http://www.w3.org/2000/svg" style="background:#fff"><path d="M 228 173 L 512 173 C 526 173 535 168 537 157 C 509 128 463 92 463 92 L 422 143 L 245 143 C 255 125 265 108 274 90 C 295 92 308 84 312 72 L 216 36 C 173 164 104 286 37 361 L 51 372 C 114 325 176 255 228 173 Z M 276 200 L 266 208 C 299 235 336 283 344 323 C 401 364 450 247 276 200 Z M 265 680 L 727 680 L 727 865 L 265 865 L 265 680 Z M 820 443 L 773 503 L 533 503 L 533 383 C 610 376 681 368 741 360 C 763 371 781 371 791 364 L 725 296 C 600 329 368 366 184 381 L 187 401 C 278 400 375 395 467 388 L 467 503 L 95 503 L 104 532 L 467 532 L 467 650 L 271 650 L 200 618 L 200 957 L 210 957 C 236 957 265 942 265 935 L 265 895 L 727 895 L 727 950 L 737 950 C 758 950 790 936 791 930 L 791 692 C 812 688 828 680 834 672 L 753 610 L 717 650 L 533 650 L 533 532 L 880 532 C 895 532 904 527 907 516 C 874 485 820 443 820 443 Z M 668 201 L 658 211 C 702 233 756 279 774 317 C 840 345 862 216 668 201 Z M 871 87 L 827 143 L 634 143 C 644 126 653 108 662 90 C 684 92 694 84 699 72 L 603 37 C 572 143 521 246 471 311 L 485 321 C 531 283 578 232 615 173 L 927 173 C 941 173 951 168 954 157 C 922 127 871 87 871 87 Z" fill="blue" /><path transform="translate(1000)" d="M 213 184 L 249 184 C 273 215 295 263 294 304 C 345 349 402 253 288 184 L 488 184 C 502 184 512 179 514 169 C 485 141 439 103 439 103 L 398 156 L 231 156 C 243 136 255 115 265 93 C 286 96 298 89 302 77 L 211 41 C 170 163 102 276 36 345 L 49 357 C 108 316 166 256 213 184 Z M 879 99 L 834 156 L 606 156 C 618 135 630 114 640 92 C 661 93 674 85 678 75 L 584 40 C 552 145 501 248 453 313 L 467 324 C 510 288 552 239 588 184 L 655 184 C 685 217 713 265 717 308 C 773 351 825 249 703 184 L 937 184 C 951 184 959 179 962 169 C 931 139 879 99 879 99 Z M 265 680 L 727 680 L 727 865 L 265 865 L 265 680 Z M 820 443 L 773 503 L 533 503 L 533 383 C 610 376 681 368 741 360 C 763 371 781 371 791 364 L 725 296 C 600 329 368 366 184 381 L 187 401 C 278 400 375 395 467 388 L 467 503 L 95 503 L 104 532 L 467 532 L 467 650 L 271 650 L 200 618 L 200 957 L 210 957 C 236 957 265 942 265 935 L 265 895 L 727 895 L 727 950 L 737 950 C 758 950 790 936 791 930 L 791 692 C 812 688 828 680 834 672 L 753 610 L 717 650 L 533 650 L 533 532 L 880 532 C 895 532 904 527 907 516 C 874 485 820 443 820 443 Z" fill="red" /><path transform="translate(2000)" d="M 228 173 L 512 173 C 526 173 535 168 537 157 C 509 128 463 92 463 92 L 422 143 L 245 143 C 255 125 265 108 274 90 C 295 92 308 84 312 72 L 216 36 C 173 164 104 286 37 361 L 51 372 C 114 325 176 255 228 173 Z M 276 200 L 266 208 C 299 235 336 283 344 323 C 401 364 450 247 276 200 Z M 265 680 L 727 680 L 727 865 L 265 865 L 265 680 Z M 820 443 L 773 503 L 533 503 L 533 383 C 610 376 681 368 741 360 C 763 371 781 371 791 364 L 725 296 C 600 329 368 366 184 381 L 187 401 C 278 400 375 395 467 388 L 467 503 L 95 503 L 104 532 L 467 532 L 467 650 L 271 650 L 200 618 L 200 957 L 210 957 C 236 957 265 942 265 935 L 265 895 L 727 895 L 727 950 L 737 950 C 758 950 790 936 791 930 L 791 692 C 812 688 828 680 834 672 L 753 610 L 717 650 L 533 650 L 533 532 L 880 532 C 895 532 904 527 907 516 C 874 485 820 443 820 443 Z M 668 201 L 658 211 C 702 233 756 279 774 317 C 840 345 862 216 668 201 Z M 871 87 L 827 143 L 634 143 C 644 126 653 108 662 90 C 684 92 694 84 699 72 L 603 37 C 572 143 521 246 471 311 L 485 321 C 531 283 578 232 615 173 L 927 173 C 941 173 951 168 954 157 C 922 127 871 87 871 87 Z" fill="blue" fill-opacity="0.5" /><path transform="translate(2000)" d="M 213 184 L 249 184 C 273 215 295 263 294 304 C 345 349 402 253 288 184 L 488 184 C 502 184 512 179 514 169 C 485 141 439 103 439 103 L 398 156 L 231 156 C 243 136 255 115 265 93 C 286 96 298 89 302 77 L 211 41 C 170 163 102 276 36 345 L 49 357 C 108 316 166 256 213 184 Z M 879 99 L 834 156 L 606 156 C 618 135 630 114 640 92 C 661 93 674 85 678 75 L 584 40 C 552 145 501 248 453 313 L 467 324 C 510 288 552 239 588 184 L 655 184 C 685 217 713 265 717 308 C 773 351 825 249 703 184 L 937 184 C 951 184 959 179 962 169 C 931 139 879 99 879 99 Z M 265 680 L 727 680 L 727 865 L 265 865 L 265 680 Z M 820 443 L 773 503 L 533 503 L 533 383 C 610 376 681 368 741 360 C 763 371 781 371 791 364 L 725 296 C 600 329 368 366 184 381 L 187 401 C 278 400 375 395 467 388 L 467 503 L 95 503 L 104 532 L 467 532 L 467 650 L 271 650 L 200 618 L 200 957 L 210 957 C 236 957 265 942 265 935 L 265 895 L 727 895 L 727 950 L 737 950 C 758 950 790 936 791 930 L 791 692 C 812 688 828 680 834 672 L 753 610 L 717 650 L 533 650 L 533 532 L 880 532 C 895 532 904 527 907 516 C 874 485 820 443 820 443 Z" fill="red" fill-opacity="0.5" /><text text-anchor="middle" x="500" y="1064" font-family="Arial" font-size="64">Source Han Serif TW</text><text text-anchor="middle" x="1500" y="1064" font-family="Arial" font-size="64">HKSerif (uni7B48HK-regular)</text></svg>