<svg width="3000" height="1080" xmlns="http://www.w3.org/2000/svg" style="background:#fff"><path d="M 294 339 L 311 348 C 350 298 390 225 422 159 C 443 160 454 151 458 139 L 362 107 C 344 189 317 281 294 339 Z M 72 121 L 59 126 C 78 182 103 265 102 328 C 155 384 219 260 72 121 Z M 272 489 L 272 427 L 420 427 C 434 427 443 422 446 411 C 415 381 365 343 365 343 L 322 398 L 272 398 L 272 81 C 298 78 305 67 308 53 L 209 42 L 209 398 L 42 398 L 50 427 L 186 427 C 154 558 102 695 30 798 L 44 811 C 111 742 167 660 209 569 L 209 959 L 222 959 C 245 959 272 945 272 935 L 272 512 C 310 553 350 611 361 657 C 425 705 476 572 272 489 Z M 636 397 L 833 397 C 815 498 784 597 738 687 C 690 605 655 508 636 397 Z M 939 392 L 873 328 L 834 368 L 569 368 L 569 358 L 569 153 L 933 153 C 946 153 956 148 958 137 C 928 106 876 66 876 66 L 830 124 L 581 124 L 509 92 L 509 359 C 509 556 498 772 395 949 L 410 959 C 548 796 567 572 569 397 L 614 397 C 631 530 662 645 708 739 C 660 817 598 885 519 941 L 530 955 C 614 909 682 852 734 786 C 775 855 826 912 889 958 C 903 929 927 911 954 911 L 957 901 C 883 860 821 805 771 735 C 837 635 875 522 900 406 C 922 404 932 401 939 392 Z" fill="blue" /><path transform="translate(1000)" d="M 294 339 L 311 348 C 350 298 390 225 422 159 C 443 160 454 151 458 139 L 362 107 C 344 189 317 281 294 339 Z M 72 121 L 59 126 C 78 182 103 265 102 328 C 155 384 219 260 72 121 Z M 272 489 L 272 427 L 420 427 C 434 427 443 422 446 411 C 415 381 365 343 365 343 L 322 398 L 272 398 L 272 81 C 298 78 305 67 308 53 L 209 42 L 209 398 L 42 398 L 50 427 L 186 427 C 154 558 102 695 30 798 L 44 811 C 111 742 167 660 209 569 L 209 959 L 222 959 C 245 959 272 945 272 935 L 272 512 C 310 553 350 611 361 657 C 425 705 476 572 272 489 Z M 608 386 L 821 386 C 804 498 771 600 719 690 C 664 611 628 510 608 386 Z M 931 382 L 857 315 L 816 357 L 533 357 L 533 154 L 944 154 C 958 154 967 149 970 138 C 938 106 886 65 886 65 L 840 124 L 545 124 L 470 91 L 470 403 C 470 597 454 795 336 952 L 351 963 C 517 809 533 584 533 402 L 533 386 L 584 386 C 602 529 636 646 687 739 C 626 824 543 894 430 947 L 438 961 C 560 918 649 857 715 784 C 764 857 826 912 904 950 C 909 921 933 899 964 891 L 966 879 C 881 847 811 800 754 736 C 825 638 865 522 892 396 C 913 394 923 391 931 382 Z" fill="red" /><path transform="translate(2000)" d="M 294 339 L 311 348 C 350 298 390 225 422 159 C 443 160 454 151 458 139 L 362 107 C 344 189 317 281 294 339 Z M 72 121 L 59 126 C 78 182 103 265 102 328 C 155 384 219 260 72 121 Z M 272 489 L 272 427 L 420 427 C 434 427 443 422 446 411 C 415 381 365 343 365 343 L 322 398 L 272 398 L 272 81 C 298 78 305 67 308 53 L 209 42 L 209 398 L 42 398 L 50 427 L 186 427 C 154 558 102 695 30 798 L 44 811 C 111 742 167 660 209 569 L 209 959 L 222 959 C 245 959 272 945 272 935 L 272 512 C 310 553 350 611 361 657 C 425 705 476 572 272 489 Z M 636 397 L 833 397 C 815 498 784 597 738 687 C 690 605 655 508 636 397 Z M 939 392 L 873 328 L 834 368 L 569 368 L 569 358 L 569 153 L 933 153 C 946 153 956 148 958 137 C 928 106 876 66 876 66 L 830 124 L 581 124 L 509 92 L 509 359 C 509 556 498 772 395 949 L 410 959 C 548 796 567 572 569 397 L 614 397 C 631 530 662 645 708 739 C 660 817 598 885 519 941 L 530 955 C 614 909 682 852 734 786 C 775 855 826 912 889 958 C 903 929 927 911 954 911 L 957 901 C 883 860 821 805 771 735 C 837 635 875 522 900 406 C 922 404 932 401 939 392 Z" fill="blue" fill-opacity="0.5" /><path transform="translate(2000)" d="M 294 339 L 311 348 C 350 298 390 225 422 159 C 443 160 454 151 458 139 L 362 107 C 344 189 317 281 294 339 Z M 72 121 L 59 126 C 78 182 103 265 102 328 C 155 384 219 260 72 121 Z M 272 489 L 272 427 L 420 427 C 434 427 443 422 446 411 C 415 381 365 343 365 343 L 322 398 L 272 398 L 272 81 C 298 78 305 67 308 53 L 209 42 L 209 398 L 42 398 L 50 427 L 186 427 C 154 558 102 695 30 798 L 44 811 C 111 742 167 660 209 569 L 209 959 L 222 959 C 245 959 272 945 272 935 L 272 512 C 310 553 350 611 361 657 C 425 705 476 572 272 489 Z M 608 386 L 821 386 C 804 498 771 600 719 690 C 664 611 628 510 608 386 Z M 931 382 L 857 315 L 816 357 L 533 357 L 533 154 L 944 154 C 958 154 967 149 970 138 C 938 106 886 65 886 65 L 840 124 L 545 124 L 470 91 L 470 403 C 470 597 454 795 336 952 L 351 963 C 517 809 533 584 533 402 L 533 386 L 584 386 C 602 529 636 646 687 739 C 626 824 543 894 430 947 L 438 961 C 560 918 649 857 715 784 C 764 857 826 912 904 950 C 909 921 933 899 964 891 L 966 879 C 881 847 811 800 754 736 C 825 638 865 522 892 396 C 913 394 923 391 931 382 Z" fill="red" fill-opacity="0.5" /><text text-anchor="middle" x="500" y="1064" font-family="Arial" font-size="64">Source Han Serif KR</text><text text-anchor="middle" x="1500" y="1064" font-family="Arial" font-size="64">HKSerif (uni7C84KX-regular)</text></svg>