<svg width="3000" height="1080" xmlns="http://www.w3.org/2000/svg" style="background:#fff"><path d="M 497 708 L 490 694 C 438 724 384 752 339 776 L 339 450 C 359 447 366 439 368 427 L 285 419 C 291 370 294 322 296 275 L 428 275 C 420 305 408 342 400 365 L 415 372 C 440 350 476 310 496 285 C 514 284 526 282 534 275 L 469 206 L 431 245 L 298 245 C 299 190 300 136 301 86 C 327 82 335 71 338 58 L 237 47 C 237 110 237 177 235 245 L 132 245 C 131 232 129 218 125 204 L 107 203 C 109 252 83 307 58 328 C 40 342 29 362 40 380 C 52 398 83 392 100 376 C 119 357 133 322 134 275 L 234 275 C 226 505 192 749 41 943 L 58 958 C 198 814 256 637 281 461 L 281 807 C 259 817 241 826 228 832 L 277 904 C 285 900 291 889 292 877 C 381 808 451 746 497 708 Z M 946 888 L 962 745 L 949 743 C 941 773 932 806 920 839 C 916 851 913 852 906 842 C 868 769 859 521 868 354 C 889 352 903 345 910 338 L 831 271 L 792 312 L 637 312 C 641 255 644 201 646 155 L 924 155 C 938 155 946 150 949 139 C 917 108 864 68 864 68 L 817 126 L 459 126 L 466 155 L 585 155 C 581 337 553 674 529 847 C 491 857 460 865 439 869 L 481 951 C 491 948 499 939 502 926 C 628 871 723 824 788 792 L 784 778 C 718 797 652 814 595 830 C 610 695 624 506 635 342 L 801 342 C 800 562 806 804 866 907 C 888 944 927 972 953 952 C 967 942 962 922 946 888 Z M 664 456 L 650 462 C 681 518 713 606 711 674 C 765 731 827 592 664 456 Z" fill="blue" /><path transform="translate(1000)" d="M 497 708 L 490 694 C 438 724 384 752 339 776 L 339 450 C 359 447 366 439 368 427 L 285 419 C 291 370 294 322 296 275 L 428 275 C 420 305 408 342 400 365 L 415 372 C 440 350 476 310 496 285 C 514 284 526 282 534 275 L 469 206 L 431 245 L 298 245 C 299 190 300 136 301 86 C 327 82 335 71 338 58 L 237 47 C 237 110 237 177 235 245 L 132 245 C 131 232 129 218 125 204 L 107 203 C 109 252 83 307 58 328 C 40 342 29 362 40 380 C 52 398 83 392 100 376 C 119 357 133 322 134 275 L 234 275 C 226 505 192 749 41 943 L 58 958 C 198 814 256 637 281 461 L 281 807 C 259 817 241 826 228 832 L 277 904 C 285 900 291 889 292 877 C 381 808 451 746 497 708 Z M 638 445 L 625 450 C 655 506 686 595 683 663 C 737 720 801 583 638 445 Z M 949 872 L 946 774 L 933 774 C 926 812 916 859 910 869 C 907 875 904 876 899 876 C 894 877 886 877 876 877 L 856 877 C 844 877 842 872 842 859 L 842 350 C 864 347 875 341 881 335 L 806 268 L 769 309 L 614 309 C 617 253 620 201 622 155 L 932 155 C 946 155 954 150 957 139 C 925 108 872 68 872 68 L 825 126 L 454 126 L 462 155 L 561 155 C 558 337 532 675 507 848 C 474 855 447 860 427 863 L 467 948 C 477 945 485 936 488 924 C 623 877 723 835 799 805 L 799 784 C 718 803 638 821 571 835 C 587 697 602 505 612 339 L 779 339 L 779 878 C 779 918 787 938 838 938 L 874 938 C 950 938 973 925 973 899 C 973 886 967 879 949 872 Z" fill="red" /><path transform="translate(2000)" d="M 497 708 L 490 694 C 438 724 384 752 339 776 L 339 450 C 359 447 366 439 368 427 L 285 419 C 291 370 294 322 296 275 L 428 275 C 420 305 408 342 400 365 L 415 372 C 440 350 476 310 496 285 C 514 284 526 282 534 275 L 469 206 L 431 245 L 298 245 C 299 190 300 136 301 86 C 327 82 335 71 338 58 L 237 47 C 237 110 237 177 235 245 L 132 245 C 131 232 129 218 125 204 L 107 203 C 109 252 83 307 58 328 C 40 342 29 362 40 380 C 52 398 83 392 100 376 C 119 357 133 322 134 275 L 234 275 C 226 505 192 749 41 943 L 58 958 C 198 814 256 637 281 461 L 281 807 C 259 817 241 826 228 832 L 277 904 C 285 900 291 889 292 877 C 381 808 451 746 497 708 Z M 946 888 L 962 745 L 949 743 C 941 773 932 806 920 839 C 916 851 913 852 906 842 C 868 769 859 521 868 354 C 889 352 903 345 910 338 L 831 271 L 792 312 L 637 312 C 641 255 644 201 646 155 L 924 155 C 938 155 946 150 949 139 C 917 108 864 68 864 68 L 817 126 L 459 126 L 466 155 L 585 155 C 581 337 553 674 529 847 C 491 857 460 865 439 869 L 481 951 C 491 948 499 939 502 926 C 628 871 723 824 788 792 L 784 778 C 718 797 652 814 595 830 C 610 695 624 506 635 342 L 801 342 C 800 562 806 804 866 907 C 888 944 927 972 953 952 C 967 942 962 922 946 888 Z M 664 456 L 650 462 C 681 518 713 606 711 674 C 765 731 827 592 664 456 Z" fill="blue" fill-opacity="0.5" /><path transform="translate(2000)" d="M 497 708 L 490 694 C 438 724 384 752 339 776 L 339 450 C 359 447 366 439 368 427 L 285 419 C 291 370 294 322 296 275 L 428 275 C 420 305 408 342 400 365 L 415 372 C 440 350 476 310 496 285 C 514 284 526 282 534 275 L 469 206 L 431 245 L 298 245 C 299 190 300 136 301 86 C 327 82 335 71 338 58 L 237 47 C 237 110 237 177 235 245 L 132 245 C 131 232 129 218 125 204 L 107 203 C 109 252 83 307 58 328 C 40 342 29 362 40 380 C 52 398 83 392 100 376 C 119 357 133 322 134 275 L 234 275 C 226 505 192 749 41 943 L 58 958 C 198 814 256 637 281 461 L 281 807 C 259 817 241 826 228 832 L 277 904 C 285 900 291 889 292 877 C 381 808 451 746 497 708 Z M 638 445 L 625 450 C 655 506 686 595 683 663 C 737 720 801 583 638 445 Z M 949 872 L 946 774 L 933 774 C 926 812 916 859 910 869 C 907 875 904 876 899 876 C 894 877 886 877 876 877 L 856 877 C 844 877 842 872 842 859 L 842 350 C 864 347 875 341 881 335 L 806 268 L 769 309 L 614 309 C 617 253 620 201 622 155 L 932 155 C 946 155 954 150 957 139 C 925 108 872 68 872 68 L 825 126 L 454 126 L 462 155 L 561 155 C 558 337 532 675 507 848 C 474 855 447 860 427 863 L 467 948 C 477 945 485 936 488 924 C 623 877 723 835 799 805 L 799 784 C 718 803 638 821 571 835 C 587 697 602 505 612 339 L 779 339 L 779 878 C 779 918 787 938 838 938 L 874 938 C 950 938 973 925 973 899 C 973 886 967 879 949 872 Z" fill="red" fill-opacity="0.5" /><text text-anchor="middle" x="500" y="1064" font-family="Arial" font-size="64">Source Han Serif KR</text><text text-anchor="middle" x="1500" y="1064" font-family="Arial" font-size="64">HKSerif (uni74EDKX-regular)</text></svg>