<svg width="3000" height="1080" xmlns="http://www.w3.org/2000/svg" style="background:#fff"><path d="M 257 156 L 304 156 L 304 249 L 253 249 C 255 221 256 190 257 156 Z M 356 278 L 423 278 L 423 368 L 420 368 C 416 370 411 371 406 371 L 397 371 L 382 371 L 366 371 C 358 371 356 368 356 358 L 356 278 Z M 423 487 L 129 487 L 129 278 L 200 278 C 194 347 177 398 130 440 L 145 456 C 216 413 241 357 250 278 L 304 278 L 304 373 C 304 405 311 419 351 419 L 379 419 C 397 419 412 418 423 417 L 423 487 Z M 50 156 L 203 156 C 203 190 203 221 202 249 L 141 249 L 75 220 L 75 570 L 83 570 C 110 570 129 556 129 551 L 129 517 L 423 517 L 423 558 L 432 558 C 450 558 477 544 478 538 L 478 290 C 497 286 514 278 519 270 L 447 213 L 414 249 L 356 249 L 356 156 L 490 156 C 504 156 513 151 516 140 C 484 110 434 70 434 70 L 389 127 L 42 127 L 50 156 Z M 466 796 L 464 780 C 407 792 350 804 298 815 L 298 685 L 449 685 C 462 685 472 680 475 669 C 445 641 398 604 398 604 L 356 656 L 298 656 L 298 571 C 320 568 329 559 330 546 L 236 537 L 236 656 L 63 656 L 71 685 L 236 685 L 236 827 C 151 843 81 856 41 862 L 80 945 C 89 942 99 934 102 922 C 263 870 381 828 466 796 Z M 937 875 L 939 771 L 926 770 C 919 811 909 852 901 874 C 897 882 892 884 878 884 L 837 884 C 820 884 816 880 815 863 C 814 813 825 657 846 359 C 865 357 877 351 885 343 L 809 284 L 782 320 L 636 320 C 643 260 648 204 653 156 L 936 156 C 951 156 961 151 964 140 C 930 109 878 69 878 69 L 831 127 L 513 127 L 521 156 L 593 156 C 581 342 539 691 505 859 C 479 863 458 867 442 869 L 482 953 C 491 950 500 943 504 930 C 607 888 684 855 737 830 L 734 816 C 676 828 618 839 567 848 C 584 750 601 622 617 493 C 650 544 682 609 688 660 C 742 709 793 583 621 464 C 624 425 629 387 633 350 L 788 350 C 769 663 758 799 759 866 C 759 918 778 937 832 937 L 884 937 C 943 937 964 920 964 899 C 964 887 960 882 937 875 Z" fill="blue" /><path transform="translate(1000)" d="M 257 156 L 304 156 L 304 249 L 253 249 C 255 221 256 190 257 156 Z M 356 278 L 423 278 L 423 368 L 420 368 C 416 370 411 371 406 371 L 397 371 L 382 371 L 366 371 C 358 371 356 368 356 358 L 356 278 Z M 423 487 L 129 487 L 129 278 L 200 278 C 194 347 177 398 130 440 L 145 456 C 216 413 241 357 250 278 L 304 278 L 304 373 C 304 405 311 419 351 419 L 379 419 C 397 419 412 418 423 417 L 423 487 Z M 50 156 L 203 156 C 203 190 203 221 202 249 L 141 249 L 75 220 L 75 570 L 83 570 C 110 570 129 556 129 551 L 129 517 L 423 517 L 423 558 L 432 558 C 450 558 477 544 478 538 L 478 290 C 497 286 514 278 519 270 L 447 213 L 414 249 L 356 249 L 356 156 L 502 156 C 516 156 525 151 528 140 C 496 110 446 70 446 70 L 401 127 L 42 127 L 50 156 Z M 466 796 L 464 780 C 407 792 350 804 298 815 L 298 685 L 449 685 C 462 685 472 680 475 669 C 445 641 398 604 398 604 L 356 656 L 298 656 L 298 571 C 320 568 329 559 330 546 L 236 537 L 236 656 L 63 656 L 71 685 L 236 685 L 236 827 C 151 843 81 856 41 862 L 80 945 C 89 942 99 934 102 922 C 263 870 381 828 466 796 Z M 951 872 L 947 762 L 935 762 C 927 803 917 858 912 869 C 909 875 905 876 901 877 L 882 877 L 862 877 C 851 877 848 873 848 861 L 848 383 C 870 380 882 375 889 368 L 815 302 L 779 341 L 624 341 C 631 267 638 202 643 156 L 929 156 C 943 156 952 151 955 140 C 923 110 873 70 873 70 L 828 127 L 491 127 L 499 156 L 583 156 C 571 300 527 760 512 829 C 507 862 486 884 474 889 L 510 960 C 516 957 524 950 528 939 C 613 889 697 835 740 808 L 734 793 C 674 818 613 842 566 861 C 581 767 604 550 621 371 L 788 371 L 788 880 C 788 918 796 937 845 937 L 880 937 C 951 937 974 923 974 899 C 974 886 969 880 951 872 Z M 650 477 L 635 482 C 660 534 692 615 696 676 C 747 728 804 608 650 477 Z" fill="red" /><path transform="translate(2000)" d="M 257 156 L 304 156 L 304 249 L 253 249 C 255 221 256 190 257 156 Z M 356 278 L 423 278 L 423 368 L 420 368 C 416 370 411 371 406 371 L 397 371 L 382 371 L 366 371 C 358 371 356 368 356 358 L 356 278 Z M 423 487 L 129 487 L 129 278 L 200 278 C 194 347 177 398 130 440 L 145 456 C 216 413 241 357 250 278 L 304 278 L 304 373 C 304 405 311 419 351 419 L 379 419 C 397 419 412 418 423 417 L 423 487 Z M 50 156 L 203 156 C 203 190 203 221 202 249 L 141 249 L 75 220 L 75 570 L 83 570 C 110 570 129 556 129 551 L 129 517 L 423 517 L 423 558 L 432 558 C 450 558 477 544 478 538 L 478 290 C 497 286 514 278 519 270 L 447 213 L 414 249 L 356 249 L 356 156 L 490 156 C 504 156 513 151 516 140 C 484 110 434 70 434 70 L 389 127 L 42 127 L 50 156 Z M 466 796 L 464 780 C 407 792 350 804 298 815 L 298 685 L 449 685 C 462 685 472 680 475 669 C 445 641 398 604 398 604 L 356 656 L 298 656 L 298 571 C 320 568 329 559 330 546 L 236 537 L 236 656 L 63 656 L 71 685 L 236 685 L 236 827 C 151 843 81 856 41 862 L 80 945 C 89 942 99 934 102 922 C 263 870 381 828 466 796 Z M 937 875 L 939 771 L 926 770 C 919 811 909 852 901 874 C 897 882 892 884 878 884 L 837 884 C 820 884 816 880 815 863 C 814 813 825 657 846 359 C 865 357 877 351 885 343 L 809 284 L 782 320 L 636 320 C 643 260 648 204 653 156 L 936 156 C 951 156 961 151 964 140 C 930 109 878 69 878 69 L 831 127 L 513 127 L 521 156 L 593 156 C 581 342 539 691 505 859 C 479 863 458 867 442 869 L 482 953 C 491 950 500 943 504 930 C 607 888 684 855 737 830 L 734 816 C 676 828 618 839 567 848 C 584 750 601 622 617 493 C 650 544 682 609 688 660 C 742 709 793 583 621 464 C 624 425 629 387 633 350 L 788 350 C 769 663 758 799 759 866 C 759 918 778 937 832 937 L 884 937 C 943 937 964 920 964 899 C 964 887 960 882 937 875 Z" fill="blue" fill-opacity="0.5" /><path transform="translate(2000)" d="M 257 156 L 304 156 L 304 249 L 253 249 C 255 221 256 190 257 156 Z M 356 278 L 423 278 L 423 368 L 420 368 C 416 370 411 371 406 371 L 397 371 L 382 371 L 366 371 C 358 371 356 368 356 358 L 356 278 Z M 423 487 L 129 487 L 129 278 L 200 278 C 194 347 177 398 130 440 L 145 456 C 216 413 241 357 250 278 L 304 278 L 304 373 C 304 405 311 419 351 419 L 379 419 C 397 419 412 418 423 417 L 423 487 Z M 50 156 L 203 156 C 203 190 203 221 202 249 L 141 249 L 75 220 L 75 570 L 83 570 C 110 570 129 556 129 551 L 129 517 L 423 517 L 423 558 L 432 558 C 450 558 477 544 478 538 L 478 290 C 497 286 514 278 519 270 L 447 213 L 414 249 L 356 249 L 356 156 L 502 156 C 516 156 525 151 528 140 C 496 110 446 70 446 70 L 401 127 L 42 127 L 50 156 Z M 466 796 L 464 780 C 407 792 350 804 298 815 L 298 685 L 449 685 C 462 685 472 680 475 669 C 445 641 398 604 398 604 L 356 656 L 298 656 L 298 571 C 320 568 329 559 330 546 L 236 537 L 236 656 L 63 656 L 71 685 L 236 685 L 236 827 C 151 843 81 856 41 862 L 80 945 C 89 942 99 934 102 922 C 263 870 381 828 466 796 Z M 951 872 L 947 762 L 935 762 C 927 803 917 858 912 869 C 909 875 905 876 901 877 L 882 877 L 862 877 C 851 877 848 873 848 861 L 848 383 C 870 380 882 375 889 368 L 815 302 L 779 341 L 624 341 C 631 267 638 202 643 156 L 929 156 C 943 156 952 151 955 140 C 923 110 873 70 873 70 L 828 127 L 491 127 L 499 156 L 583 156 C 571 300 527 760 512 829 C 507 862 486 884 474 889 L 510 960 C 516 957 524 950 528 939 C 613 889 697 835 740 808 L 734 793 C 674 818 613 842 566 861 C 581 767 604 550 621 371 L 788 371 L 788 880 C 788 918 796 937 845 937 L 880 937 C 951 937 974 923 974 899 C 974 886 969 880 951 872 Z M 650 477 L 635 482 C 660 534 692 615 696 676 C 747 728 804 608 650 477 Z" fill="red" fill-opacity="0.5" /><text text-anchor="middle" x="500" y="1064" font-family="Arial" font-size="64">Source Han Serif TW</text><text text-anchor="middle" x="1500" y="1064" font-family="Arial" font-size="64">HKSerif (uni7504HK-completed)</text></svg>