<svg width="3000" height="1080" xmlns="http://www.w3.org/2000/svg" style="background:#fff"><path d="M 727 77 L 717 86 C 767 118 826 179 842 230 C 913 271 951 122 727 77 Z M 603 300 L 603 490 C 603 528 613 541 670 541 L 738 541 C 841 541 865 533 865 509 C 865 499 860 493 842 487 L 839 415 L 827 415 C 819 447 811 477 805 486 C 802 492 798 493 792 493 L 739 493 L 684 493 C 661 493 659 491 659 480 L 659 333 C 675 331 685 322 686 310 L 603 300 Z M 693 259 L 681 266 C 710 298 741 352 746 394 C 801 438 855 322 693 259 Z M 464 34 L 453 43 C 489 70 534 120 547 158 C 606 195 646 76 464 34 Z M 392 260 L 524 260 C 707 261 737 254 737 226 C 737 214 730 208 709 201 L 706 131 L 694 131 C 685 164 675 190 667 200 C 662 206 657 208 644 209 C 630 210 583 210 528 210 L 401 210 C 357 210 353 208 353 195 L 353 96 C 371 93 381 84 382 73 L 292 63 L 292 202 C 292 248 307 260 392 260 Z M 574 337 L 556 336 C 558 373 540 417 519 435 C 503 447 493 464 502 481 C 513 499 541 494 556 480 C 579 457 594 404 574 337 Z M 255 309 L 172 299 L 172 490 C 172 526 181 540 237 540 L 301 540 C 401 540 425 532 425 508 C 425 498 421 492 402 486 L 399 414 L 387 414 C 380 445 371 476 366 485 C 362 491 359 492 352 492 L 303 492 L 251 492 C 231 492 228 490 228 479 L 228 332 C 244 330 254 321 255 309 Z M 399 321 L 387 328 C 412 361 441 415 443 457 C 493 503 552 394 399 321 Z M 266 257 L 254 264 C 280 294 309 346 313 386 C 368 430 424 318 266 257 Z M 237 94 L 219 93 C 213 137 173 176 139 191 C 119 201 106 217 114 237 C 122 258 155 258 177 245 C 212 226 251 174 237 94 Z M 142 334 L 124 334 C 129 378 106 427 80 445 C 61 457 51 475 59 492 C 70 512 99 509 118 494 C 147 471 168 414 142 334 Z M 383 827 L 303 776 C 250 830 143 897 49 935 L 58 949 C 167 926 282 878 347 833 C 367 839 376 836 383 827 Z M 666 644 L 656 653 C 677 667 701 685 725 705 C 541 716 369 726 251 731 C 417 695 592 644 692 606 C 715 617 732 613 739 605 L 676 547 C 643 564 596 584 544 606 C 451 610 365 613 301 615 C 388 595 476 568 533 546 C 558 555 574 548 580 539 L 511 493 C 454 524 329 584 227 602 C 220 604 204 606 204 606 L 240 674 C 245 672 251 667 255 659 C 325 654 391 647 451 641 C 355 674 248 706 155 724 C 144 726 124 727 124 727 L 161 799 C 168 796 175 790 180 780 C 286 771 388 762 479 754 L 479 873 C 479 884 475 889 457 889 C 436 889 341 883 341 883 L 341 898 C 385 903 410 910 424 919 C 436 928 440 941 442 957 C 530 949 543 922 543 873 L 543 747 C 620 739 689 732 748 726 C 779 755 808 785 824 811 C 894 842 918 708 666 644 Z M 598 779 L 590 791 C 673 827 790 896 840 948 C 923 969 919 817 598 779 Z M 846 322 L 834 329 C 862 364 896 423 902 469 C 955 515 1012 402 846 322 Z" fill="blue" /><path transform="translate(1000)" d="M 717 104 L 707 113 C 764 150 833 218 851 276 C 926 321 963 160 717 104 Z M 632 338 L 632 474 C 632 511 640 525 695 525 L 751 525 C 844 525 868 516 868 492 C 868 482 864 474 846 468 L 843 394 L 831 394 C 823 427 815 457 809 467 C 805 473 802 474 796 474 C 790 475 775 475 755 475 L 711 475 C 693 475 691 473 691 463 L 691 372 C 707 369 716 360 718 348 L 632 338 Z M 667 287 L 659 297 C 699 316 747 355 764 389 C 824 415 843 296 667 287 Z M 423 41 L 413 50 C 458 82 516 138 535 183 C 604 220 639 82 423 41 Z M 410 275 L 536 275 C 711 275 742 268 742 240 C 742 227 736 221 714 214 L 711 137 L 698 137 C 689 173 679 201 672 213 C 667 220 662 221 651 222 C 636 224 592 224 539 224 L 419 224 C 378 224 374 220 374 208 L 374 113 C 392 110 402 102 403 90 L 312 80 L 312 216 C 312 262 327 275 410 275 Z M 192 339 L 192 474 C 192 511 201 525 252 525 L 303 525 C 389 525 413 516 413 493 C 413 482 409 476 391 469 L 388 405 L 375 405 C 368 433 360 460 354 469 C 351 474 348 475 342 475 C 338 476 323 476 306 476 L 269 476 C 253 476 251 473 251 464 L 251 372 C 266 369 276 360 277 349 L 192 339 Z M 230 281 L 221 291 C 256 310 297 347 313 377 C 369 405 395 296 230 281 Z M 384 343 L 373 351 C 404 377 441 421 452 455 C 507 490 547 385 384 343 Z M 573 357 L 555 357 C 558 395 536 436 511 451 C 493 462 483 480 492 497 C 501 517 532 514 549 500 C 576 479 594 429 573 357 Z M 244 110 L 226 109 C 220 170 168 217 124 233 C 104 244 91 261 98 281 C 107 304 141 303 168 290 C 209 268 260 210 244 110 Z M 141 361 L 122 361 C 123 400 95 440 67 454 C 48 465 37 483 45 501 C 54 521 85 520 105 506 C 135 486 160 436 141 361 Z M 850 347 L 839 355 C 870 387 907 443 917 485 C 973 525 1019 414 850 347 Z M 379 828 L 305 785 C 249 835 137 898 43 933 L 54 948 C 159 924 280 877 343 834 C 364 841 372 838 379 828 Z M 658 651 L 652 666 C 684 677 713 689 739 702 C 542 711 354 718 226 720 C 416 685 618 634 735 593 C 758 605 777 600 784 592 L 712 532 C 670 552 610 575 542 600 C 449 603 359 605 289 606 C 363 592 437 574 487 556 C 514 566 531 557 535 548 L 457 505 C 370 548 270 584 199 593 C 192 595 177 597 177 597 L 210 665 C 214 663 218 660 222 655 C 298 650 371 642 436 635 C 338 666 230 693 136 709 C 124 712 103 713 103 713 L 133 790 C 140 788 148 782 155 773 C 268 766 376 758 474 750 L 474 873 C 474 885 469 889 452 889 C 432 889 338 883 338 883 L 338 897 C 381 903 405 911 419 920 C 431 928 436 944 437 961 C 525 953 538 923 538 873 L 538 745 C 629 738 710 730 779 723 C 823 748 858 775 876 796 C 945 820 962 677 658 651 Z M 630 791 L 625 807 C 747 846 842 908 881 950 C 950 974 967 826 630 791 Z" fill="red" /><path transform="translate(2000)" d="M 727 77 L 717 86 C 767 118 826 179 842 230 C 913 271 951 122 727 77 Z M 603 300 L 603 490 C 603 528 613 541 670 541 L 738 541 C 841 541 865 533 865 509 C 865 499 860 493 842 487 L 839 415 L 827 415 C 819 447 811 477 805 486 C 802 492 798 493 792 493 L 739 493 L 684 493 C 661 493 659 491 659 480 L 659 333 C 675 331 685 322 686 310 L 603 300 Z M 693 259 L 681 266 C 710 298 741 352 746 394 C 801 438 855 322 693 259 Z M 464 34 L 453 43 C 489 70 534 120 547 158 C 606 195 646 76 464 34 Z M 392 260 L 524 260 C 707 261 737 254 737 226 C 737 214 730 208 709 201 L 706 131 L 694 131 C 685 164 675 190 667 200 C 662 206 657 208 644 209 C 630 210 583 210 528 210 L 401 210 C 357 210 353 208 353 195 L 353 96 C 371 93 381 84 382 73 L 292 63 L 292 202 C 292 248 307 260 392 260 Z M 574 337 L 556 336 C 558 373 540 417 519 435 C 503 447 493 464 502 481 C 513 499 541 494 556 480 C 579 457 594 404 574 337 Z M 255 309 L 172 299 L 172 490 C 172 526 181 540 237 540 L 301 540 C 401 540 425 532 425 508 C 425 498 421 492 402 486 L 399 414 L 387 414 C 380 445 371 476 366 485 C 362 491 359 492 352 492 L 303 492 L 251 492 C 231 492 228 490 228 479 L 228 332 C 244 330 254 321 255 309 Z M 399 321 L 387 328 C 412 361 441 415 443 457 C 493 503 552 394 399 321 Z M 266 257 L 254 264 C 280 294 309 346 313 386 C 368 430 424 318 266 257 Z M 237 94 L 219 93 C 213 137 173 176 139 191 C 119 201 106 217 114 237 C 122 258 155 258 177 245 C 212 226 251 174 237 94 Z M 142 334 L 124 334 C 129 378 106 427 80 445 C 61 457 51 475 59 492 C 70 512 99 509 118 494 C 147 471 168 414 142 334 Z M 383 827 L 303 776 C 250 830 143 897 49 935 L 58 949 C 167 926 282 878 347 833 C 367 839 376 836 383 827 Z M 666 644 L 656 653 C 677 667 701 685 725 705 C 541 716 369 726 251 731 C 417 695 592 644 692 606 C 715 617 732 613 739 605 L 676 547 C 643 564 596 584 544 606 C 451 610 365 613 301 615 C 388 595 476 568 533 546 C 558 555 574 548 580 539 L 511 493 C 454 524 329 584 227 602 C 220 604 204 606 204 606 L 240 674 C 245 672 251 667 255 659 C 325 654 391 647 451 641 C 355 674 248 706 155 724 C 144 726 124 727 124 727 L 161 799 C 168 796 175 790 180 780 C 286 771 388 762 479 754 L 479 873 C 479 884 475 889 457 889 C 436 889 341 883 341 883 L 341 898 C 385 903 410 910 424 919 C 436 928 440 941 442 957 C 530 949 543 922 543 873 L 543 747 C 620 739 689 732 748 726 C 779 755 808 785 824 811 C 894 842 918 708 666 644 Z M 598 779 L 590 791 C 673 827 790 896 840 948 C 923 969 919 817 598 779 Z M 846 322 L 834 329 C 862 364 896 423 902 469 C 955 515 1012 402 846 322 Z" fill="blue" fill-opacity="0.5" /><path transform="translate(2000)" d="M 717 104 L 707 113 C 764 150 833 218 851 276 C 926 321 963 160 717 104 Z M 632 338 L 632 474 C 632 511 640 525 695 525 L 751 525 C 844 525 868 516 868 492 C 868 482 864 474 846 468 L 843 394 L 831 394 C 823 427 815 457 809 467 C 805 473 802 474 796 474 C 790 475 775 475 755 475 L 711 475 C 693 475 691 473 691 463 L 691 372 C 707 369 716 360 718 348 L 632 338 Z M 667 287 L 659 297 C 699 316 747 355 764 389 C 824 415 843 296 667 287 Z M 423 41 L 413 50 C 458 82 516 138 535 183 C 604 220 639 82 423 41 Z M 410 275 L 536 275 C 711 275 742 268 742 240 C 742 227 736 221 714 214 L 711 137 L 698 137 C 689 173 679 201 672 213 C 667 220 662 221 651 222 C 636 224 592 224 539 224 L 419 224 C 378 224 374 220 374 208 L 374 113 C 392 110 402 102 403 90 L 312 80 L 312 216 C 312 262 327 275 410 275 Z M 192 339 L 192 474 C 192 511 201 525 252 525 L 303 525 C 389 525 413 516 413 493 C 413 482 409 476 391 469 L 388 405 L 375 405 C 368 433 360 460 354 469 C 351 474 348 475 342 475 C 338 476 323 476 306 476 L 269 476 C 253 476 251 473 251 464 L 251 372 C 266 369 276 360 277 349 L 192 339 Z M 230 281 L 221 291 C 256 310 297 347 313 377 C 369 405 395 296 230 281 Z M 384 343 L 373 351 C 404 377 441 421 452 455 C 507 490 547 385 384 343 Z M 573 357 L 555 357 C 558 395 536 436 511 451 C 493 462 483 480 492 497 C 501 517 532 514 549 500 C 576 479 594 429 573 357 Z M 244 110 L 226 109 C 220 170 168 217 124 233 C 104 244 91 261 98 281 C 107 304 141 303 168 290 C 209 268 260 210 244 110 Z M 141 361 L 122 361 C 123 400 95 440 67 454 C 48 465 37 483 45 501 C 54 521 85 520 105 506 C 135 486 160 436 141 361 Z M 850 347 L 839 355 C 870 387 907 443 917 485 C 973 525 1019 414 850 347 Z M 379 828 L 305 785 C 249 835 137 898 43 933 L 54 948 C 159 924 280 877 343 834 C 364 841 372 838 379 828 Z M 658 651 L 652 666 C 684 677 713 689 739 702 C 542 711 354 718 226 720 C 416 685 618 634 735 593 C 758 605 777 600 784 592 L 712 532 C 670 552 610 575 542 600 C 449 603 359 605 289 606 C 363 592 437 574 487 556 C 514 566 531 557 535 548 L 457 505 C 370 548 270 584 199 593 C 192 595 177 597 177 597 L 210 665 C 214 663 218 660 222 655 C 298 650 371 642 436 635 C 338 666 230 693 136 709 C 124 712 103 713 103 713 L 133 790 C 140 788 148 782 155 773 C 268 766 376 758 474 750 L 474 873 C 474 885 469 889 452 889 C 432 889 338 883 338 883 L 338 897 C 381 903 405 911 419 920 C 431 928 436 944 437 961 C 525 953 538 923 538 873 L 538 745 C 629 738 710 730 779 723 C 823 748 858 775 876 796 C 945 820 962 677 658 651 Z M 630 791 L 625 807 C 747 846 842 908 881 950 C 950 974 967 826 630 791 Z" fill="red" fill-opacity="0.5" /><text text-anchor="middle" x="500" y="1064" font-family="Arial" font-size="64">Source Han Serif TW</text><text text-anchor="middle" x="1500" y="1064" font-family="Arial" font-size="64">HKSerif (uni7E60HK-regular)</text></svg>