<svg width="3000" height="1080" xmlns="http://www.w3.org/2000/svg" style="background:#fff"><path d="M 112 258 L 96 259 C 100 341 75 420 58 444 C 14 496 64 535 103 489 C 137 447 138 360 112 258 Z M 527 615 L 527 400 L 589 400 L 589 615 L 527 615 Z M 636 400 L 699 400 L 699 615 L 636 615 L 636 400 Z M 693 702 L 680 708 C 695 734 712 765 724 799 L 639 810 L 639 645 L 699 645 L 699 667 L 706 667 C 723 667 748 654 749 648 L 749 408 C 766 404 781 397 787 390 L 721 337 L 690 370 L 639 370 L 639 254 C 672 247 701 240 725 234 C 747 242 763 242 772 234 L 703 172 C 648 202 540 242 454 264 L 458 281 C 499 277 542 272 585 264 L 585 370 L 532 370 L 478 344 L 478 697 L 486 697 C 506 697 527 685 527 681 L 527 645 L 585 645 L 585 816 C 511 825 451 832 415 834 L 456 913 C 465 910 474 904 479 891 C 588 863 670 839 732 820 C 744 853 752 886 753 915 C 812 971 872 833 693 702 Z M 953 883 L 971 715 L 959 712 C 951 747 941 785 928 825 C 923 839 919 840 913 827 C 860 730 855 379 867 153 C 890 150 905 143 911 136 L 831 65 L 791 108 L 443 108 L 372 75 L 372 262 L 293 211 C 281 249 253 316 227 370 C 229 283 228 188 229 83 C 253 79 262 69 265 55 L 166 44 C 166 484 186 762 40 943 L 54 960 C 137 884 180 789 203 671 C 234 711 265 765 271 808 C 328 856 383 733 207 645 C 219 574 224 495 226 407 C 269 362 314 307 339 274 C 355 277 367 272 372 266 L 372 420 C 372 610 360 799 254 948 L 269 959 C 420 812 431 597 431 419 L 431 137 L 801 137 C 798 430 796 767 871 897 C 893 941 928 974 959 956 C 973 948 970 926 953 883 Z" fill="blue" /><path transform="translate(1000)" d="M 640 265 L 761 265 C 773 265 782 260 785 249 C 759 222 716 186 716 186 L 678 236 L 455 236 L 463 265 L 585 265 L 585 820 L 640 820 L 640 265 Z M 112 258 L 96 259 C 100 341 75 420 58 444 C 14 496 64 535 103 489 C 137 447 138 360 112 258 Z M 527 615 L 527 400 L 585 400 L 585 615 L 527 615 Z M 640 400 L 701 400 L 701 615 L 640 615 L 640 400 Z M 693 702 L 680 708 C 695 734 712 765 724 799 L 640 810 L 640 645 L 701 645 L 701 667 L 708 667 C 725 667 750 654 751 648 L 751 408 C 768 404 783 397 789 390 L 723 337 L 692 370 L 640 370 L 585 370 L 532 370 L 478 344 L 478 697 L 486 697 C 506 697 527 685 527 681 L 527 645 L 585 645 L 585 816 C 511 825 451 832 415 834 L 456 913 C 465 910 474 904 479 891 C 588 863 670 839 732 820 C 744 853 752 886 753 915 C 812 971 872 833 693 702 Z M 953 883 L 971 715 L 959 712 C 951 747 941 785 928 825 C 923 839 919 840 913 827 C 860 730 855 379 867 153 C 890 150 905 143 911 136 L 831 65 L 791 108 L 443 108 L 372 75 L 372 262 L 293 211 C 281 249 253 316 227 370 C 229 283 228 188 229 83 C 253 79 262 69 265 55 L 166 44 C 166 484 186 762 40 943 L 54 960 C 137 884 180 789 203 671 C 234 711 265 765 271 808 C 328 856 383 733 207 645 C 219 574 224 495 226 407 C 269 362 314 307 339 274 C 355 277 367 272 372 266 L 372 420 C 372 610 360 799 254 948 L 269 959 C 420 812 431 597 431 419 L 431 137 L 801 137 C 798 430 796 767 871 897 C 893 941 928 974 959 956 C 973 948 970 926 953 883 Z" fill="red" /><path transform="translate(2000)" d="M 112 258 L 96 259 C 100 341 75 420 58 444 C 14 496 64 535 103 489 C 137 447 138 360 112 258 Z M 527 615 L 527 400 L 589 400 L 589 615 L 527 615 Z M 636 400 L 699 400 L 699 615 L 636 615 L 636 400 Z M 693 702 L 680 708 C 695 734 712 765 724 799 L 639 810 L 639 645 L 699 645 L 699 667 L 706 667 C 723 667 748 654 749 648 L 749 408 C 766 404 781 397 787 390 L 721 337 L 690 370 L 639 370 L 639 254 C 672 247 701 240 725 234 C 747 242 763 242 772 234 L 703 172 C 648 202 540 242 454 264 L 458 281 C 499 277 542 272 585 264 L 585 370 L 532 370 L 478 344 L 478 697 L 486 697 C 506 697 527 685 527 681 L 527 645 L 585 645 L 585 816 C 511 825 451 832 415 834 L 456 913 C 465 910 474 904 479 891 C 588 863 670 839 732 820 C 744 853 752 886 753 915 C 812 971 872 833 693 702 Z M 953 883 L 971 715 L 959 712 C 951 747 941 785 928 825 C 923 839 919 840 913 827 C 860 730 855 379 867 153 C 890 150 905 143 911 136 L 831 65 L 791 108 L 443 108 L 372 75 L 372 262 L 293 211 C 281 249 253 316 227 370 C 229 283 228 188 229 83 C 253 79 262 69 265 55 L 166 44 C 166 484 186 762 40 943 L 54 960 C 137 884 180 789 203 671 C 234 711 265 765 271 808 C 328 856 383 733 207 645 C 219 574 224 495 226 407 C 269 362 314 307 339 274 C 355 277 367 272 372 266 L 372 420 C 372 610 360 799 254 948 L 269 959 C 420 812 431 597 431 419 L 431 137 L 801 137 C 798 430 796 767 871 897 C 893 941 928 974 959 956 C 973 948 970 926 953 883 Z" fill="blue" fill-opacity="0.5" /><path transform="translate(2000)" d="M 640 265 L 761 265 C 773 265 782 260 785 249 C 759 222 716 186 716 186 L 678 236 L 455 236 L 463 265 L 585 265 L 585 820 L 640 820 L 640 265 Z M 112 258 L 96 259 C 100 341 75 420 58 444 C 14 496 64 535 103 489 C 137 447 138 360 112 258 Z M 527 615 L 527 400 L 585 400 L 585 615 L 527 615 Z M 640 400 L 701 400 L 701 615 L 640 615 L 640 400 Z M 693 702 L 680 708 C 695 734 712 765 724 799 L 640 810 L 640 645 L 701 645 L 701 667 L 708 667 C 725 667 750 654 751 648 L 751 408 C 768 404 783 397 789 390 L 723 337 L 692 370 L 640 370 L 585 370 L 532 370 L 478 344 L 478 697 L 486 697 C 506 697 527 685 527 681 L 527 645 L 585 645 L 585 816 C 511 825 451 832 415 834 L 456 913 C 465 910 474 904 479 891 C 588 863 670 839 732 820 C 744 853 752 886 753 915 C 812 971 872 833 693 702 Z M 953 883 L 971 715 L 959 712 C 951 747 941 785 928 825 C 923 839 919 840 913 827 C 860 730 855 379 867 153 C 890 150 905 143 911 136 L 831 65 L 791 108 L 443 108 L 372 75 L 372 262 L 293 211 C 281 249 253 316 227 370 C 229 283 228 188 229 83 C 253 79 262 69 265 55 L 166 44 C 166 484 186 762 40 943 L 54 960 C 137 884 180 789 203 671 C 234 711 265 765 271 808 C 328 856 383 733 207 645 C 219 574 224 495 226 407 C 269 362 314 307 339 274 C 355 277 367 272 372 266 L 372 420 C 372 610 360 799 254 948 L 269 959 C 420 812 431 597 431 419 L 431 137 L 801 137 C 798 430 796 767 871 897 C 893 941 928 974 959 956 C 973 948 970 926 953 883 Z" fill="red" fill-opacity="0.5" /><text text-anchor="middle" x="500" y="1064" font-family="Arial" font-size="64">Source Han Serif TW</text><text text-anchor="middle" x="1500" y="1064" font-family="Arial" font-size="64">HKSerif (uni7148HK-regular)</text></svg>