<svg width="3000" height="1080" xmlns="http://www.w3.org/2000/svg" style="background:#fff"><path d="M 491 128 L 639 128 L 639 234 L 491 234 L 491 128 Z M 695 128 L 840 128 L 840 234 L 695 234 L 695 128 Z M 840 371 L 695 371 L 695 263 L 840 263 L 840 371 Z M 491 371 L 491 263 L 639 263 L 639 371 L 491 371 Z M 491 417 L 491 400 L 559 400 C 543 484 496 533 392 570 L 396 586 C 525 560 601 510 626 400 L 717 400 L 717 505 C 717 542 726 557 782 557 L 843 557 C 944 557 967 549 967 525 C 967 514 959 509 940 504 L 936 503 L 928 503 C 923 505 916 506 911 507 L 896 507 C 888 508 870 508 849 508 L 798 508 C 779 508 777 505 777 494 L 777 409 L 777 400 L 840 400 L 840 424 L 850 424 C 869 424 898 410 899 403 L 899 139 C 918 135 935 127 940 120 L 865 61 L 830 98 L 496 98 L 432 69 L 432 437 L 441 437 C 465 437 491 423 491 417 Z M 262 443 L 262 379 L 389 379 C 403 379 412 374 415 363 C 385 334 336 294 336 294 L 293 350 L 262 350 L 262 142 C 299 133 333 123 360 114 C 382 123 400 122 409 113 L 331 48 C 269 84 148 137 50 164 L 55 181 C 101 175 152 166 199 157 L 199 350 L 44 350 L 52 379 L 187 379 C 159 517 108 659 34 766 L 49 779 C 111 713 162 638 199 554 L 199 956 L 209 956 C 239 956 262 940 262 935 L 262 470 C 294 510 327 564 335 606 C 391 651 440 530 262 443 Z M 558 641 L 787 641 C 757 698 717 749 665 791 C 611 758 567 718 531 670 C 541 661 550 651 558 641 Z M 903 637 L 834 573 L 791 611 L 583 611 C 599 590 614 570 626 549 C 650 553 659 549 663 539 L 573 510 C 556 548 532 590 505 628 C 496 612 487 595 480 578 L 463 588 C 471 609 479 630 489 650 C 449 702 403 750 357 783 L 367 796 C 419 769 467 733 510 691 C 541 743 578 785 623 822 C 543 876 442 916 324 943 L 331 960 C 464 939 574 903 662 851 C 730 897 811 930 907 954 C 916 926 934 909 960 905 L 961 893 C 868 877 784 852 712 817 C 774 771 823 715 860 648 C 884 648 895 645 903 637 Z" fill="blue" /><path transform="translate(1000)" d="M 491 128 L 639 128 L 639 234 L 491 234 L 491 128 Z M 695 128 L 840 128 L 840 234 L 695 234 L 695 128 Z M 840 371 L 695 371 L 695 263 L 840 263 L 840 371 Z M 491 371 L 491 263 L 639 263 L 639 371 L 491 371 Z M 491 417 L 491 400 L 559 400 C 543 484 496 533 392 570 L 396 586 C 525 560 601 510 626 400 L 717 400 L 717 505 C 717 542 726 557 782 557 L 843 557 C 944 557 967 549 967 525 C 967 514 959 509 940 504 L 936 503 L 928 503 C 923 505 916 506 911 507 L 896 507 C 888 508 870 508 849 508 L 798 508 C 779 508 777 505 777 494 L 777 409 L 777 400 L 840 400 L 840 424 L 850 424 C 869 424 898 410 899 403 L 899 139 C 918 135 935 127 940 120 L 865 61 L 830 98 L 496 98 L 432 69 L 432 437 L 441 437 C 465 437 491 423 491 417 Z M 262 443 L 262 379 L 389 379 C 403 379 412 374 415 363 C 385 334 336 294 336 294 L 293 350 L 262 350 L 262 142 C 299 133 333 123 360 114 C 382 123 400 122 409 113 L 331 48 C 269 84 148 137 50 164 L 55 181 C 101 175 152 166 199 157 L 199 350 L 44 350 L 52 379 L 187 379 C 159 517 108 659 34 766 L 49 779 C 111 713 162 638 199 554 L 199 956 L 209 956 C 239 956 262 940 262 935 L 262 470 C 294 510 327 564 335 606 C 391 651 440 530 262 443 Z M 565 673 L 576 661 L 785 661 C 759 708 725 749 682 785 C 634 755 594 718 565 673 Z M 904 657 L 833 591 L 789 632 L 601 632 C 621 607 639 581 654 556 C 678 559 686 555 690 544 L 593 517 C 551 622 464 733 368 795 L 377 808 C 441 779 500 736 549 688 C 573 738 605 780 643 816 C 562 871 459 912 338 939 L 344 956 C 481 936 592 901 681 848 C 746 897 825 932 916 957 C 924 924 944 903 972 897 L 974 886 C 886 872 803 848 733 814 C 786 774 829 726 863 669 C 885 668 896 665 904 657 Z" fill="red" /><path transform="translate(2000)" d="M 491 128 L 639 128 L 639 234 L 491 234 L 491 128 Z M 695 128 L 840 128 L 840 234 L 695 234 L 695 128 Z M 840 371 L 695 371 L 695 263 L 840 263 L 840 371 Z M 491 371 L 491 263 L 639 263 L 639 371 L 491 371 Z M 491 417 L 491 400 L 559 400 C 543 484 496 533 392 570 L 396 586 C 525 560 601 510 626 400 L 717 400 L 717 505 C 717 542 726 557 782 557 L 843 557 C 944 557 967 549 967 525 C 967 514 959 509 940 504 L 936 503 L 928 503 C 923 505 916 506 911 507 L 896 507 C 888 508 870 508 849 508 L 798 508 C 779 508 777 505 777 494 L 777 409 L 777 400 L 840 400 L 840 424 L 850 424 C 869 424 898 410 899 403 L 899 139 C 918 135 935 127 940 120 L 865 61 L 830 98 L 496 98 L 432 69 L 432 437 L 441 437 C 465 437 491 423 491 417 Z M 262 443 L 262 379 L 389 379 C 403 379 412 374 415 363 C 385 334 336 294 336 294 L 293 350 L 262 350 L 262 142 C 299 133 333 123 360 114 C 382 123 400 122 409 113 L 331 48 C 269 84 148 137 50 164 L 55 181 C 101 175 152 166 199 157 L 199 350 L 44 350 L 52 379 L 187 379 C 159 517 108 659 34 766 L 49 779 C 111 713 162 638 199 554 L 199 956 L 209 956 C 239 956 262 940 262 935 L 262 470 C 294 510 327 564 335 606 C 391 651 440 530 262 443 Z M 558 641 L 787 641 C 757 698 717 749 665 791 C 611 758 567 718 531 670 C 541 661 550 651 558 641 Z M 903 637 L 834 573 L 791 611 L 583 611 C 599 590 614 570 626 549 C 650 553 659 549 663 539 L 573 510 C 556 548 532 590 505 628 C 496 612 487 595 480 578 L 463 588 C 471 609 479 630 489 650 C 449 702 403 750 357 783 L 367 796 C 419 769 467 733 510 691 C 541 743 578 785 623 822 C 543 876 442 916 324 943 L 331 960 C 464 939 574 903 662 851 C 730 897 811 930 907 954 C 916 926 934 909 960 905 L 961 893 C 868 877 784 852 712 817 C 774 771 823 715 860 648 C 884 648 895 645 903 637 Z" fill="blue" fill-opacity="0.5" /><path transform="translate(2000)" d="M 491 128 L 639 128 L 639 234 L 491 234 L 491 128 Z M 695 128 L 840 128 L 840 234 L 695 234 L 695 128 Z M 840 371 L 695 371 L 695 263 L 840 263 L 840 371 Z M 491 371 L 491 263 L 639 263 L 639 371 L 491 371 Z M 491 417 L 491 400 L 559 400 C 543 484 496 533 392 570 L 396 586 C 525 560 601 510 626 400 L 717 400 L 717 505 C 717 542 726 557 782 557 L 843 557 C 944 557 967 549 967 525 C 967 514 959 509 940 504 L 936 503 L 928 503 C 923 505 916 506 911 507 L 896 507 C 888 508 870 508 849 508 L 798 508 C 779 508 777 505 777 494 L 777 409 L 777 400 L 840 400 L 840 424 L 850 424 C 869 424 898 410 899 403 L 899 139 C 918 135 935 127 940 120 L 865 61 L 830 98 L 496 98 L 432 69 L 432 437 L 441 437 C 465 437 491 423 491 417 Z M 262 443 L 262 379 L 389 379 C 403 379 412 374 415 363 C 385 334 336 294 336 294 L 293 350 L 262 350 L 262 142 C 299 133 333 123 360 114 C 382 123 400 122 409 113 L 331 48 C 269 84 148 137 50 164 L 55 181 C 101 175 152 166 199 157 L 199 350 L 44 350 L 52 379 L 187 379 C 159 517 108 659 34 766 L 49 779 C 111 713 162 638 199 554 L 199 956 L 209 956 C 239 956 262 940 262 935 L 262 470 C 294 510 327 564 335 606 C 391 651 440 530 262 443 Z M 565 673 L 576 661 L 785 661 C 759 708 725 749 682 785 C 634 755 594 718 565 673 Z M 904 657 L 833 591 L 789 632 L 601 632 C 621 607 639 581 654 556 C 678 559 686 555 690 544 L 593 517 C 551 622 464 733 368 795 L 377 808 C 441 779 500 736 549 688 C 573 738 605 780 643 816 C 562 871 459 912 338 939 L 344 956 C 481 936 592 901 681 848 C 746 897 825 932 916 957 C 924 924 944 903 972 897 L 974 886 C 886 872 803 848 733 814 C 786 774 829 726 863 669 C 885 668 896 665 904 657 Z" fill="red" fill-opacity="0.5" /><text text-anchor="middle" x="500" y="1064" font-family="Arial" font-size="64">Source Han Serif TW</text><text text-anchor="middle" x="1500" y="1064" font-family="Arial" font-size="64">HKSerif (uni7A37HK-regular)</text></svg>