<svg width="3000" height="1080" xmlns="http://www.w3.org/2000/svg" style="background:#fff"><path d="M 224 173 L 503 173 C 517 173 526 168 529 157 C 500 128 455 92 455 92 L 414 143 L 243 143 C 254 126 264 110 273 92 C 294 95 307 87 312 75 L 217 38 C 174 157 105 268 40 334 L 53 346 C 114 306 173 245 224 173 Z M 380 403 L 385 422 C 461 420 541 414 617 405 L 617 751 L 499 751 L 499 511 C 524 507 534 498 536 484 L 438 473 L 438 751 L 371 751 L 379 781 L 899 781 C 913 781 923 776 925 765 C 892 732 837 688 837 688 L 790 751 L 679 751 L 679 570 L 861 570 C 875 570 884 565 886 554 C 856 526 806 487 806 487 L 764 540 L 679 540 L 679 397 C 738 389 794 379 839 370 C 862 380 880 380 887 373 L 819 305 C 721 342 533 385 380 403 Z M 671 197 L 661 206 C 691 225 724 261 733 293 C 793 329 836 213 671 197 Z M 255 200 L 246 208 C 277 234 313 279 321 317 C 377 359 425 243 255 200 Z M 399 579 L 330 519 L 292 556 L 202 556 C 236 510 280 447 308 406 C 332 406 354 401 364 391 L 288 323 L 252 361 L 79 361 L 87 391 L 246 391 C 217 438 174 500 142 542 C 128 545 112 551 102 556 L 160 609 L 188 586 L 297 586 C 282 660 257 728 219 788 C 176 753 143 704 115 635 L 99 643 C 127 718 159 775 198 818 C 162 866 114 908 53 943 L 62 959 C 132 929 186 891 229 846 C 316 917 433 935 605 935 L 901 935 C 904 910 917 890 945 885 L 945 871 C 863 873 686 873 610 873 C 454 873 341 863 257 815 C 309 750 340 674 361 592 C 382 591 393 588 399 579 Z M 869 87 L 823 143 L 637 143 C 646 125 655 108 663 90 C 684 91 696 83 701 72 L 603 37 C 570 153 514 267 460 338 L 475 349 C 527 305 577 244 620 173 L 924 173 C 939 173 948 168 951 157 C 919 127 869 87 869 87 Z" fill="blue" /><path transform="translate(1000)" d="M 472 302 L 485 312 C 527 279 566 233 601 181 L 670 181 C 697 209 722 252 726 288 C 780 329 832 234 718 181 L 934 181 C 948 181 958 176 961 165 C 928 134 877 94 877 94 L 830 151 L 620 151 C 632 131 643 111 653 90 C 674 92 685 83 690 72 L 592 39 C 564 139 518 239 472 302 Z M 384 399 L 389 418 C 465 416 545 410 621 401 L 621 747 L 503 747 L 503 507 C 528 503 538 494 540 480 L 442 469 L 442 747 L 375 747 L 383 777 L 903 777 C 917 777 927 772 929 761 C 896 728 841 684 841 684 L 794 747 L 683 747 L 683 566 L 865 566 C 879 566 888 561 890 550 C 860 522 810 483 810 483 L 768 536 L 683 536 L 683 393 C 742 385 798 375 843 366 C 866 376 884 376 891 369 L 823 301 C 725 338 537 381 384 399 Z M 208 181 L 267 181 C 294 212 321 260 324 299 C 377 343 434 244 305 181 L 495 181 C 508 181 517 176 520 165 C 491 136 445 100 445 100 L 404 151 L 227 151 C 239 131 251 111 261 90 C 282 92 293 83 298 72 L 202 38 C 165 152 104 264 45 332 L 59 343 C 113 303 164 247 208 181 Z M 399 570 L 330 509 L 292 547 L 198 547 C 235 500 283 437 312 394 C 337 394 358 389 368 378 L 293 311 L 257 349 L 79 349 L 88 378 L 251 378 C 219 425 174 488 138 531 C 124 535 108 541 99 546 L 154 599 L 184 576 L 297 576 C 283 646 260 711 225 770 C 188 735 157 688 131 624 L 117 633 C 142 704 171 757 206 799 C 165 857 111 907 37 947 L 45 962 C 128 929 191 884 238 830 C 325 907 446 926 622 926 L 916 926 C 919 901 933 881 961 876 L 961 862 C 879 864 703 864 627 864 C 465 864 349 854 264 800 C 311 735 342 662 361 583 C 382 582 392 579 399 570 Z" fill="red" /><path transform="translate(2000)" d="M 224 173 L 503 173 C 517 173 526 168 529 157 C 500 128 455 92 455 92 L 414 143 L 243 143 C 254 126 264 110 273 92 C 294 95 307 87 312 75 L 217 38 C 174 157 105 268 40 334 L 53 346 C 114 306 173 245 224 173 Z M 380 403 L 385 422 C 461 420 541 414 617 405 L 617 751 L 499 751 L 499 511 C 524 507 534 498 536 484 L 438 473 L 438 751 L 371 751 L 379 781 L 899 781 C 913 781 923 776 925 765 C 892 732 837 688 837 688 L 790 751 L 679 751 L 679 570 L 861 570 C 875 570 884 565 886 554 C 856 526 806 487 806 487 L 764 540 L 679 540 L 679 397 C 738 389 794 379 839 370 C 862 380 880 380 887 373 L 819 305 C 721 342 533 385 380 403 Z M 671 197 L 661 206 C 691 225 724 261 733 293 C 793 329 836 213 671 197 Z M 255 200 L 246 208 C 277 234 313 279 321 317 C 377 359 425 243 255 200 Z M 399 579 L 330 519 L 292 556 L 202 556 C 236 510 280 447 308 406 C 332 406 354 401 364 391 L 288 323 L 252 361 L 79 361 L 87 391 L 246 391 C 217 438 174 500 142 542 C 128 545 112 551 102 556 L 160 609 L 188 586 L 297 586 C 282 660 257 728 219 788 C 176 753 143 704 115 635 L 99 643 C 127 718 159 775 198 818 C 162 866 114 908 53 943 L 62 959 C 132 929 186 891 229 846 C 316 917 433 935 605 935 L 901 935 C 904 910 917 890 945 885 L 945 871 C 863 873 686 873 610 873 C 454 873 341 863 257 815 C 309 750 340 674 361 592 C 382 591 393 588 399 579 Z M 869 87 L 823 143 L 637 143 C 646 125 655 108 663 90 C 684 91 696 83 701 72 L 603 37 C 570 153 514 267 460 338 L 475 349 C 527 305 577 244 620 173 L 924 173 C 939 173 948 168 951 157 C 919 127 869 87 869 87 Z" fill="blue" fill-opacity="0.5" /><path transform="translate(2000)" d="M 472 302 L 485 312 C 527 279 566 233 601 181 L 670 181 C 697 209 722 252 726 288 C 780 329 832 234 718 181 L 934 181 C 948 181 958 176 961 165 C 928 134 877 94 877 94 L 830 151 L 620 151 C 632 131 643 111 653 90 C 674 92 685 83 690 72 L 592 39 C 564 139 518 239 472 302 Z M 384 399 L 389 418 C 465 416 545 410 621 401 L 621 747 L 503 747 L 503 507 C 528 503 538 494 540 480 L 442 469 L 442 747 L 375 747 L 383 777 L 903 777 C 917 777 927 772 929 761 C 896 728 841 684 841 684 L 794 747 L 683 747 L 683 566 L 865 566 C 879 566 888 561 890 550 C 860 522 810 483 810 483 L 768 536 L 683 536 L 683 393 C 742 385 798 375 843 366 C 866 376 884 376 891 369 L 823 301 C 725 338 537 381 384 399 Z M 208 181 L 267 181 C 294 212 321 260 324 299 C 377 343 434 244 305 181 L 495 181 C 508 181 517 176 520 165 C 491 136 445 100 445 100 L 404 151 L 227 151 C 239 131 251 111 261 90 C 282 92 293 83 298 72 L 202 38 C 165 152 104 264 45 332 L 59 343 C 113 303 164 247 208 181 Z M 399 570 L 330 509 L 292 547 L 198 547 C 235 500 283 437 312 394 C 337 394 358 389 368 378 L 293 311 L 257 349 L 79 349 L 88 378 L 251 378 C 219 425 174 488 138 531 C 124 535 108 541 99 546 L 154 599 L 184 576 L 297 576 C 283 646 260 711 225 770 C 188 735 157 688 131 624 L 117 633 C 142 704 171 757 206 799 C 165 857 111 907 37 947 L 45 962 C 128 929 191 884 238 830 C 325 907 446 926 622 926 L 916 926 C 919 901 933 881 961 876 L 961 862 C 879 864 703 864 627 864 C 465 864 349 854 264 800 C 311 735 342 662 361 583 C 382 582 392 579 399 570 Z" fill="red" fill-opacity="0.5" /><text text-anchor="middle" x="500" y="1064" font-family="Arial" font-size="64">Source Han Serif TW</text><text text-anchor="middle" x="1500" y="1064" font-family="Arial" font-size="64">HKSerif (uni7B75HK-regular)</text></svg>