<svg width="3000" height="1080" xmlns="http://www.w3.org/2000/svg" style="background:#fff"><path d="M 51 564 L 82 652 C 90 649 99 642 106 632 C 192 612 273 589 329 573 C 336 596 340 618 341 639 C 394 689 450 569 293 456 L 280 461 C 295 486 309 519 321 551 C 243 557 168 563 116 566 C 209 488 310 374 365 294 C 384 298 398 293 403 284 L 317 226 C 303 256 282 294 256 335 C 201 336 147 336 107 335 C 172 270 243 173 283 105 C 301 107 313 99 318 90 L 225 44 C 201 119 131 262 74 321 C 67 327 50 330 50 330 L 84 417 C 92 414 99 408 106 398 C 152 389 198 377 234 367 C 186 438 127 511 77 554 C 70 560 51 564 51 564 Z M 128 689 L 109 689 C 115 752 89 824 62 854 C 44 869 35 892 47 909 C 61 928 96 917 112 897 C 137 863 155 789 128 689 Z M 219 669 L 204 673 C 216 723 224 799 214 859 C 259 916 330 801 219 669 Z M 313 650 L 301 655 C 326 699 353 768 352 821 C 404 872 464 752 313 650 Z M 651 751 L 508 751 C 523 700 542 630 555 580 L 651 580 L 651 751 Z M 883 699 L 841 751 L 714 751 L 714 580 L 898 580 C 911 580 920 575 922 564 C 897 538 853 503 853 503 L 817 551 L 714 551 L 714 467 C 740 464 748 454 751 440 L 651 429 L 651 551 L 562 551 L 562 550 L 499 550 L 499 551 L 426 551 L 434 580 L 493 580 C 482 627 464 695 449 742 C 436 746 421 753 412 759 L 477 810 L 507 781 L 651 781 L 651 963 L 663 963 C 687 963 714 949 714 941 L 714 781 L 933 781 C 947 781 956 776 959 765 C 929 736 883 699 883 699 Z M 553 185 L 555 182 L 775 182 C 751 229 717 273 677 311 C 625 278 583 236 553 185 Z M 897 177 L 824 111 L 779 152 L 575 152 C 588 132 600 111 611 90 C 632 92 645 84 649 73 L 549 33 C 514 147 453 253 393 318 L 406 329 C 452 299 498 257 537 207 C 565 259 601 303 643 340 C 573 396 484 441 382 472 L 389 489 C 506 463 604 424 683 371 C 753 422 836 454 921 470 C 923 444 936 425 964 413 L 965 401 C 881 396 798 375 726 340 C 779 296 823 246 855 189 C 878 188 890 186 897 177 Z" fill="blue" /><path transform="translate(1000)" d="M 51 564 L 82 652 C 90 649 99 642 106 632 C 194 612 277 589 335 573 C 339 590 342 607 343 621 C 395 672 452 551 293 438 L 280 443 C 298 472 316 512 328 550 C 248 557 171 563 115 566 C 209 488 311 374 365 294 C 384 298 398 293 403 284 L 317 226 C 304 256 282 294 256 335 C 201 336 148 336 107 335 C 173 270 244 173 283 105 C 302 107 314 99 318 90 L 226 44 C 201 119 131 262 74 321 C 68 327 50 330 50 330 L 84 417 C 92 414 99 408 106 398 C 153 389 198 377 235 367 C 186 439 127 512 77 554 C 70 560 51 564 51 564 Z M 128 689 L 109 689 C 115 752 89 824 62 854 C 44 869 35 892 47 909 C 61 928 96 917 112 897 C 137 863 155 789 128 689 Z M 219 669 L 204 673 C 216 723 224 799 214 859 C 259 916 330 801 219 669 Z M 315 649 L 302 655 C 327 697 354 768 353 821 C 406 872 465 751 315 649 Z M 882 681 L 840 733 L 717 733 L 717 583 L 895 583 C 908 583 917 578 920 567 C 894 541 851 506 851 506 L 815 554 L 717 554 L 717 467 C 742 464 751 454 754 440 L 653 429 L 653 554 L 431 554 L 439 583 L 653 583 L 653 733 L 500 733 C 509 708 519 680 524 659 C 546 665 558 657 564 646 L 473 607 C 466 636 450 690 438 727 C 428 732 419 737 413 742 L 472 785 L 496 762 L 653 762 L 653 963 L 666 963 C 689 963 717 949 717 941 L 717 762 L 932 762 C 946 762 955 757 958 746 C 929 718 882 681 882 681 Z M 602 174 L 787 174 C 761 219 727 261 686 300 C 643 273 606 241 578 205 C 586 195 594 185 602 174 Z M 906 169 L 836 104 L 792 144 L 623 144 C 634 128 644 112 653 95 C 676 97 689 89 693 78 L 594 42 C 544 169 462 279 383 342 L 396 355 C 454 324 511 280 562 223 C 587 264 618 299 653 331 C 581 392 493 444 396 481 L 403 498 C 515 465 612 419 692 361 C 759 410 840 446 928 471 C 936 441 953 423 979 419 L 980 408 C 893 392 808 365 735 328 C 787 284 830 234 864 180 C 888 179 898 176 906 169 Z" fill="red" /><path transform="translate(2000)" d="M 51 564 L 82 652 C 90 649 99 642 106 632 C 192 612 273 589 329 573 C 336 596 340 618 341 639 C 394 689 450 569 293 456 L 280 461 C 295 486 309 519 321 551 C 243 557 168 563 116 566 C 209 488 310 374 365 294 C 384 298 398 293 403 284 L 317 226 C 303 256 282 294 256 335 C 201 336 147 336 107 335 C 172 270 243 173 283 105 C 301 107 313 99 318 90 L 225 44 C 201 119 131 262 74 321 C 67 327 50 330 50 330 L 84 417 C 92 414 99 408 106 398 C 152 389 198 377 234 367 C 186 438 127 511 77 554 C 70 560 51 564 51 564 Z M 128 689 L 109 689 C 115 752 89 824 62 854 C 44 869 35 892 47 909 C 61 928 96 917 112 897 C 137 863 155 789 128 689 Z M 219 669 L 204 673 C 216 723 224 799 214 859 C 259 916 330 801 219 669 Z M 313 650 L 301 655 C 326 699 353 768 352 821 C 404 872 464 752 313 650 Z M 651 751 L 508 751 C 523 700 542 630 555 580 L 651 580 L 651 751 Z M 883 699 L 841 751 L 714 751 L 714 580 L 898 580 C 911 580 920 575 922 564 C 897 538 853 503 853 503 L 817 551 L 714 551 L 714 467 C 740 464 748 454 751 440 L 651 429 L 651 551 L 562 551 L 562 550 L 499 550 L 499 551 L 426 551 L 434 580 L 493 580 C 482 627 464 695 449 742 C 436 746 421 753 412 759 L 477 810 L 507 781 L 651 781 L 651 963 L 663 963 C 687 963 714 949 714 941 L 714 781 L 933 781 C 947 781 956 776 959 765 C 929 736 883 699 883 699 Z M 553 185 L 555 182 L 775 182 C 751 229 717 273 677 311 C 625 278 583 236 553 185 Z M 897 177 L 824 111 L 779 152 L 575 152 C 588 132 600 111 611 90 C 632 92 645 84 649 73 L 549 33 C 514 147 453 253 393 318 L 406 329 C 452 299 498 257 537 207 C 565 259 601 303 643 340 C 573 396 484 441 382 472 L 389 489 C 506 463 604 424 683 371 C 753 422 836 454 921 470 C 923 444 936 425 964 413 L 965 401 C 881 396 798 375 726 340 C 779 296 823 246 855 189 C 878 188 890 186 897 177 Z" fill="blue" fill-opacity="0.5" /><path transform="translate(2000)" d="M 51 564 L 82 652 C 90 649 99 642 106 632 C 194 612 277 589 335 573 C 339 590 342 607 343 621 C 395 672 452 551 293 438 L 280 443 C 298 472 316 512 328 550 C 248 557 171 563 115 566 C 209 488 311 374 365 294 C 384 298 398 293 403 284 L 317 226 C 304 256 282 294 256 335 C 201 336 148 336 107 335 C 173 270 244 173 283 105 C 302 107 314 99 318 90 L 226 44 C 201 119 131 262 74 321 C 68 327 50 330 50 330 L 84 417 C 92 414 99 408 106 398 C 153 389 198 377 235 367 C 186 439 127 512 77 554 C 70 560 51 564 51 564 Z M 128 689 L 109 689 C 115 752 89 824 62 854 C 44 869 35 892 47 909 C 61 928 96 917 112 897 C 137 863 155 789 128 689 Z M 219 669 L 204 673 C 216 723 224 799 214 859 C 259 916 330 801 219 669 Z M 315 649 L 302 655 C 327 697 354 768 353 821 C 406 872 465 751 315 649 Z M 882 681 L 840 733 L 717 733 L 717 583 L 895 583 C 908 583 917 578 920 567 C 894 541 851 506 851 506 L 815 554 L 717 554 L 717 467 C 742 464 751 454 754 440 L 653 429 L 653 554 L 431 554 L 439 583 L 653 583 L 653 733 L 500 733 C 509 708 519 680 524 659 C 546 665 558 657 564 646 L 473 607 C 466 636 450 690 438 727 C 428 732 419 737 413 742 L 472 785 L 496 762 L 653 762 L 653 963 L 666 963 C 689 963 717 949 717 941 L 717 762 L 932 762 C 946 762 955 757 958 746 C 929 718 882 681 882 681 Z M 602 174 L 787 174 C 761 219 727 261 686 300 C 643 273 606 241 578 205 C 586 195 594 185 602 174 Z M 906 169 L 836 104 L 792 144 L 623 144 C 634 128 644 112 653 95 C 676 97 689 89 693 78 L 594 42 C 544 169 462 279 383 342 L 396 355 C 454 324 511 280 562 223 C 587 264 618 299 653 331 C 581 392 493 444 396 481 L 403 498 C 515 465 612 419 692 361 C 759 410 840 446 928 471 C 936 441 953 423 979 419 L 980 408 C 893 392 808 365 735 328 C 787 284 830 234 864 180 C 888 179 898 176 906 169 Z" fill="red" fill-opacity="0.5" /><text text-anchor="middle" x="500" y="1064" font-family="Arial" font-size="64">Source Han Serif TW</text><text text-anchor="middle" x="1500" y="1064" font-family="Arial" font-size="64">HKSerif (uni7D73HK-regular)</text></svg>