<svg width="1000" height="1000" xmlns="http://www.w3.org/2000/svg"><path d="M 443 30 L 434 36 C 455 60 479 102 482 137 C 542 184 605 65 443 30 Z" fill="black" /><path d="M 963 176 L 890 106 L 850 146 L 524 146 C 563 132 570 54 443 30 L 433 35 C 457 60 481 102 482 137 C 488 141 493 144 499 146 L 169 146 C 167 129 163 111 156 91 L 138 92 C 146 144 121 194 88 213 C 69 224 55 243 64 262 C 74 284 106 283 127 268 C 150 254 170 222 171 175 L 344 175 C 268 250 171 306 92 333 L 99 354 C 187 336 294 299 382 225 C 408 238 426 230 431 222 L 377 175 L 850 175 C 839 199 825 228 815 247 L 828 255 C 860 238 902 208 925 185 C 944 184 956 183 963 176 Z" fill="black" /><path d="M 633 252 L 633 216 C 658 212 668 203 670 189 L 572 178 L 572 262 C 572 304 583 317 654 317 L 749 317 C 891 317 917 310 917 284 C 917 272 909 266 887 261 L 883 260 L 874 260 C 868 262 859 264 853 265 C 849 265 841 265 835 266 C 822 267 789 267 755 267 L 667 267 C 635 267 633 264 633 252 Z" fill="black" /><path d="M 325 410 L 473 410 C 486 410 496 405 498 394 C 468 366 420 329 420 329 L 378 381 L 325 381 L 325 342 C 350 338 360 329 362 315 L 264 304 L 264 381 L 90 381 L 98 410 L 264 410 L 264 471 L 113 471 L 120 500 L 264 500 L 264 568 L 83 568 L 91 597 L 264 597 L 264 700 L 276 700 C 299 700 325 687 325 679 L 325 597 L 497 597 C 511 597 521 592 523 581 C 493 552 446 516 446 516 L 403 568 L 325 568 L 325 500 L 464 500 C 478 500 487 495 490 484 C 461 456 413 419 413 419 L 371 471 L 325 471 L 325 410 Z" fill="black" /><path d="M 566 763 L 921 763 C 935 763 944 758 947 747 C 913 715 858 673 858 673 L 810 733 L 519 733 C 525 715 529 698 532 679 C 554 677 565 666 567 653 L 506 647 C 647 575 679 483 690 386 L 787 386 C 782 503 772 570 755 586 C 748 591 740 593 726 593 C 707 593 649 589 616 586 L 615 603 C 646 608 678 615 690 624 C 703 633 707 648 707 664 C 741 664 773 656 795 639 C 827 612 841 534 847 392 C 866 390 878 385 885 378 L 813 320 L 778 356 L 491 356 L 500 386 L 620 386 C 613 488 583 587 403 669 L 416 685 C 432 679 447 674 461 668 C 458 691 453 712 444 733 L 57 733 L 65 763 L 429 763 C 384 832 286 887 53 936 L 61 955 C 365 909 466 845 507 763 L 536 763 C 611 872 739 927 906 956 C 913 925 930 904 958 897 L 959 885 C 797 874 650 841 566 763 Z" fill="black" /></svg>