<svg width="3000" height="1080" xmlns="http://www.w3.org/2000/svg" style="background:#fff"><path d="M 484 278 L 494 290 C 603 242 701 153 747 81 C 773 80 785 74 789 62 L 688 38 C 658 114 574 219 484 278 Z M 197 170 L 414 170 C 390 210 360 248 323 282 C 316 254 277 211 178 188 C 184 182 191 176 197 170 Z M 525 739 L 428 730 L 428 884 L 328 884 L 328 678 L 512 678 C 525 678 534 673 537 662 C 507 634 460 597 460 597 L 419 649 L 328 649 L 328 525 L 480 525 C 494 525 503 520 505 509 C 475 480 430 445 430 445 L 388 495 L 196 495 C 207 481 215 467 224 455 C 248 458 256 454 260 443 L 184 421 C 320 363 424 280 488 177 C 512 176 523 173 531 165 L 461 103 L 418 141 L 225 141 C 240 124 253 108 264 92 C 287 101 295 98 300 90 L 214 42 C 179 125 106 212 24 261 L 34 276 C 81 257 125 230 162 199 C 208 226 264 274 286 311 L 290 313 C 219 370 133 418 38 453 L 46 467 C 84 458 121 446 155 433 C 132 493 93 567 57 612 L 69 621 C 105 596 140 561 171 525 L 268 525 L 268 649 L 38 649 L 46 678 L 268 678 L 268 884 L 157 884 L 157 759 C 181 755 191 746 194 732 L 97 721 L 97 880 C 86 886 75 894 69 900 L 139 941 L 163 913 L 428 913 L 428 954 L 439 954 C 462 954 488 941 488 935 L 488 767 C 513 763 523 754 525 739 Z M 233 314 L 230 298 C 162 312 86 324 40 325 L 71 392 C 80 389 88 383 92 371 C 152 351 200 332 233 314 Z M 685 689 L 591 661 C 573 746 542 834 513 892 L 527 901 C 575 855 618 783 649 708 C 670 708 681 699 685 689 Z M 779 592 L 886 571 C 895 591 903 610 907 626 C 965 672 1015 552 828 456 L 816 463 C 836 488 858 519 875 552 C 773 558 675 563 608 566 C 712 496 826 398 887 330 C 906 336 921 331 926 322 L 848 264 C 828 294 796 334 760 375 C 699 378 637 381 591 382 C 663 330 741 256 785 202 C 806 206 818 198 823 189 L 739 143 C 703 206 617 326 546 373 C 539 378 524 381 524 381 L 556 456 C 564 453 571 446 577 437 C 634 426 691 413 734 403 C 679 464 612 525 556 562 C 548 566 530 570 530 570 L 564 644 C 571 641 577 635 583 626 C 629 618 676 610 718 602 L 718 868 C 718 880 715 885 699 885 C 682 885 606 879 606 879 L 606 895 C 643 899 664 907 675 916 C 684 927 689 942 690 960 C 768 951 779 918 779 869 L 779 592 Z M 829 660 L 816 666 C 852 721 893 809 893 876 C 950 933 1012 789 829 660 Z" fill="blue" /><path transform="translate(1000)" d="M 134 244 L 134 244 C 159 230 182 216 204 201 C 235 223 270 260 282 289 C 287 292 291 293 295 294 C 274 311 251 327 227 342 C 235 317 216 272 134 244 Z M 245 171 L 407 171 C 385 206 358 239 325 269 C 326 244 300 207 221 189 C 229 183 237 177 245 171 Z M 305 492 L 303 492 L 459 492 C 471 492 480 487 483 476 C 454 447 409 413 409 413 L 370 462 L 205 462 C 214 450 222 439 229 428 C 252 430 264 422 268 412 L 210 390 C 330 340 421 268 480 176 C 503 175 515 173 523 165 L 456 103 L 413 141 L 281 141 C 297 126 312 111 325 97 C 346 99 359 94 365 83 L 283 47 C 231 122 143 215 38 271 L 48 284 C 72 275 95 264 117 253 C 145 276 176 318 184 351 C 189 355 194 357 198 358 C 149 385 94 408 36 426 L 45 442 C 89 432 130 421 168 407 C 144 463 109 526 65 568 L 77 580 C 117 556 152 524 181 492 L 246 492 L 246 594 L 44 594 L 52 624 L 246 624 L 246 832 C 209 838 177 843 149 846 L 149 696 C 169 693 178 684 180 672 L 89 662 L 89 833 C 89 846 85 853 61 871 L 107 929 C 113 925 119 918 122 908 C 227 881 327 851 397 831 L 397 916 L 409 916 C 430 916 456 903 456 897 L 456 700 C 478 696 486 688 488 675 L 397 666 L 397 810 L 305 824 L 305 624 L 483 624 C 497 624 505 619 508 608 C 479 579 431 541 431 541 L 389 594 L 305 594 L 305 492 Z M 665 682 L 573 651 C 550 742 512 834 475 893 L 491 903 C 543 854 592 780 627 701 C 649 701 660 692 665 682 Z M 756 561 L 865 541 C 878 567 888 593 893 616 C 952 664 1003 537 811 425 L 798 432 C 817 457 837 488 854 521 C 749 526 651 532 583 534 C 692 462 811 358 874 286 C 894 293 907 288 913 280 L 835 216 C 815 248 781 291 742 335 C 681 338 622 339 577 340 C 637 299 700 241 738 197 C 759 201 772 193 777 184 L 705 147 C 774 137 837 125 886 112 C 908 121 925 122 934 113 L 861 45 C 784 82 635 127 511 148 L 514 165 C 569 163 627 157 681 150 C 651 205 586 295 532 331 C 525 335 509 338 509 338 L 544 416 C 551 413 558 407 563 399 C 617 389 670 377 715 366 C 659 428 593 488 538 525 C 529 530 509 533 509 533 L 541 613 C 549 611 557 605 564 594 C 609 587 654 579 695 572 L 695 866 C 695 879 691 883 676 883 C 659 883 580 877 580 877 L 580 893 C 618 897 638 905 650 915 C 660 925 664 940 666 958 C 745 950 756 916 756 867 L 756 561 Z M 823 655 L 809 662 C 847 712 887 793 890 856 C 947 910 1006 771 823 655 Z" fill="red" /><path transform="translate(2000)" d="M 484 278 L 494 290 C 603 242 701 153 747 81 C 773 80 785 74 789 62 L 688 38 C 658 114 574 219 484 278 Z M 197 170 L 414 170 C 390 210 360 248 323 282 C 316 254 277 211 178 188 C 184 182 191 176 197 170 Z M 525 739 L 428 730 L 428 884 L 328 884 L 328 678 L 512 678 C 525 678 534 673 537 662 C 507 634 460 597 460 597 L 419 649 L 328 649 L 328 525 L 480 525 C 494 525 503 520 505 509 C 475 480 430 445 430 445 L 388 495 L 196 495 C 207 481 215 467 224 455 C 248 458 256 454 260 443 L 184 421 C 320 363 424 280 488 177 C 512 176 523 173 531 165 L 461 103 L 418 141 L 225 141 C 240 124 253 108 264 92 C 287 101 295 98 300 90 L 214 42 C 179 125 106 212 24 261 L 34 276 C 81 257 125 230 162 199 C 208 226 264 274 286 311 L 290 313 C 219 370 133 418 38 453 L 46 467 C 84 458 121 446 155 433 C 132 493 93 567 57 612 L 69 621 C 105 596 140 561 171 525 L 268 525 L 268 649 L 38 649 L 46 678 L 268 678 L 268 884 L 157 884 L 157 759 C 181 755 191 746 194 732 L 97 721 L 97 880 C 86 886 75 894 69 900 L 139 941 L 163 913 L 428 913 L 428 954 L 439 954 C 462 954 488 941 488 935 L 488 767 C 513 763 523 754 525 739 Z M 233 314 L 230 298 C 162 312 86 324 40 325 L 71 392 C 80 389 88 383 92 371 C 152 351 200 332 233 314 Z M 685 689 L 591 661 C 573 746 542 834 513 892 L 527 901 C 575 855 618 783 649 708 C 670 708 681 699 685 689 Z M 779 592 L 886 571 C 895 591 903 610 907 626 C 965 672 1015 552 828 456 L 816 463 C 836 488 858 519 875 552 C 773 558 675 563 608 566 C 712 496 826 398 887 330 C 906 336 921 331 926 322 L 848 264 C 828 294 796 334 760 375 C 699 378 637 381 591 382 C 663 330 741 256 785 202 C 806 206 818 198 823 189 L 739 143 C 703 206 617 326 546 373 C 539 378 524 381 524 381 L 556 456 C 564 453 571 446 577 437 C 634 426 691 413 734 403 C 679 464 612 525 556 562 C 548 566 530 570 530 570 L 564 644 C 571 641 577 635 583 626 C 629 618 676 610 718 602 L 718 868 C 718 880 715 885 699 885 C 682 885 606 879 606 879 L 606 895 C 643 899 664 907 675 916 C 684 927 689 942 690 960 C 768 951 779 918 779 869 L 779 592 Z M 829 660 L 816 666 C 852 721 893 809 893 876 C 950 933 1012 789 829 660 Z" fill="blue" fill-opacity="0.5" /><path transform="translate(2000)" d="M 134 244 L 134 244 C 159 230 182 216 204 201 C 235 223 270 260 282 289 C 287 292 291 293 295 294 C 274 311 251 327 227 342 C 235 317 216 272 134 244 Z M 245 171 L 407 171 C 385 206 358 239 325 269 C 326 244 300 207 221 189 C 229 183 237 177 245 171 Z M 305 492 L 303 492 L 459 492 C 471 492 480 487 483 476 C 454 447 409 413 409 413 L 370 462 L 205 462 C 214 450 222 439 229 428 C 252 430 264 422 268 412 L 210 390 C 330 340 421 268 480 176 C 503 175 515 173 523 165 L 456 103 L 413 141 L 281 141 C 297 126 312 111 325 97 C 346 99 359 94 365 83 L 283 47 C 231 122 143 215 38 271 L 48 284 C 72 275 95 264 117 253 C 145 276 176 318 184 351 C 189 355 194 357 198 358 C 149 385 94 408 36 426 L 45 442 C 89 432 130 421 168 407 C 144 463 109 526 65 568 L 77 580 C 117 556 152 524 181 492 L 246 492 L 246 594 L 44 594 L 52 624 L 246 624 L 246 832 C 209 838 177 843 149 846 L 149 696 C 169 693 178 684 180 672 L 89 662 L 89 833 C 89 846 85 853 61 871 L 107 929 C 113 925 119 918 122 908 C 227 881 327 851 397 831 L 397 916 L 409 916 C 430 916 456 903 456 897 L 456 700 C 478 696 486 688 488 675 L 397 666 L 397 810 L 305 824 L 305 624 L 483 624 C 497 624 505 619 508 608 C 479 579 431 541 431 541 L 389 594 L 305 594 L 305 492 Z M 665 682 L 573 651 C 550 742 512 834 475 893 L 491 903 C 543 854 592 780 627 701 C 649 701 660 692 665 682 Z M 756 561 L 865 541 C 878 567 888 593 893 616 C 952 664 1003 537 811 425 L 798 432 C 817 457 837 488 854 521 C 749 526 651 532 583 534 C 692 462 811 358 874 286 C 894 293 907 288 913 280 L 835 216 C 815 248 781 291 742 335 C 681 338 622 339 577 340 C 637 299 700 241 738 197 C 759 201 772 193 777 184 L 705 147 C 774 137 837 125 886 112 C 908 121 925 122 934 113 L 861 45 C 784 82 635 127 511 148 L 514 165 C 569 163 627 157 681 150 C 651 205 586 295 532 331 C 525 335 509 338 509 338 L 544 416 C 551 413 558 407 563 399 C 617 389 670 377 715 366 C 659 428 593 488 538 525 C 529 530 509 533 509 533 L 541 613 C 549 611 557 605 564 594 C 609 587 654 579 695 572 L 695 866 C 695 879 691 883 676 883 C 659 883 580 877 580 877 L 580 893 C 618 897 638 905 650 915 C 660 925 664 940 666 958 C 745 950 756 916 756 867 L 756 561 Z M 823 655 L 809 662 C 847 712 887 793 890 856 C 947 910 1006 771 823 655 Z" fill="red" fill-opacity="0.5" /><text text-anchor="middle" x="500" y="1064" font-family="Arial" font-size="64">Source Han Serif TW</text><text text-anchor="middle" x="1500" y="1064" font-family="Arial" font-size="64">HKSerif (uni7E47HK-regular-v2)</text></svg>