<svg width="3000" height="1080" xmlns="http://www.w3.org/2000/svg" style="background:#fff"><path d="M 352 745 L 246 745 L 246 619 L 352 619 L 352 745 Z M 403 797 L 403 628 C 419 625 433 618 440 611 L 380 558 L 353 590 L 326 590 L 326 497 L 426 497 C 439 497 448 492 449 481 C 429 458 393 429 393 429 L 364 468 L 326 468 L 326 408 C 343 405 352 398 353 386 L 274 377 L 274 468 L 160 468 L 168 497 L 274 497 L 274 590 L 258 590 L 194 560 L 194 832 L 202 832 C 228 832 246 818 246 814 L 246 775 L 352 775 L 352 815 L 362 815 C 381 815 401 801 403 797 Z M 186 196 L 385 196 C 377 239 361 295 346 335 L 236 335 C 269 324 283 253 186 196 Z M 570 356 L 491 297 L 460 335 L 371 335 C 400 304 427 269 445 240 C 466 241 478 233 482 223 L 401 196 L 536 196 C 551 196 561 191 563 180 C 531 149 480 110 480 110 L 434 166 L 334 166 L 334 80 C 357 77 368 67 369 53 L 271 42 L 271 166 L 44 166 L 52 196 L 170 196 L 166 198 C 185 230 203 282 201 323 C 206 329 212 333 218 335 L 147 335 L 76 303 L 76 955 L 85 955 C 115 955 135 939 135 934 L 135 364 L 471 364 L 471 860 C 471 873 467 878 452 878 C 436 878 367 872 367 872 L 367 889 C 400 893 418 900 429 910 C 440 919 444 934 446 951 C 521 943 530 915 530 866 L 530 375 C 548 371 564 364 570 356 Z M 699 462 L 685 468 C 714 521 743 606 740 671 C 793 727 858 592 699 462 Z M 682 352 L 821 352 C 820 513 820 686 844 805 C 774 820 705 835 648 846 C 662 710 674 519 682 352 Z M 954 889 L 969 750 L 957 748 C 949 778 939 811 928 843 C 924 855 921 856 915 847 C 881 780 875 530 885 364 C 906 362 920 355 926 348 L 849 281 L 811 322 L 683 322 C 686 261 688 203 690 154 L 933 154 C 947 154 957 149 960 138 C 926 108 874 67 874 67 L 826 125 L 541 125 L 549 154 L 632 154 C 631 339 608 683 587 859 C 565 863 547 866 533 868 L 566 951 C 576 948 585 940 589 928 C 700 885 786 848 848 821 C 856 859 868 891 883 914 C 904 949 940 971 964 950 C 975 940 970 920 954 889 Z" fill="blue" /><path transform="translate(1000)" d="M 352 745 L 246 745 L 246 619 L 352 619 L 352 745 Z M 403 797 L 403 628 C 419 625 433 618 440 611 L 380 558 L 353 590 L 326 590 L 326 497 L 426 497 C 439 497 448 492 449 481 C 429 458 393 429 393 429 L 364 468 L 326 468 L 326 408 C 343 405 352 398 353 386 L 274 377 L 274 468 L 160 468 L 168 497 L 274 497 L 274 590 L 258 590 L 194 560 L 194 832 L 202 832 C 228 832 246 818 246 814 L 246 775 L 352 775 L 352 815 L 362 815 C 381 815 401 801 403 797 Z M 186 196 L 385 196 C 377 239 361 295 346 335 L 236 335 C 269 324 283 253 186 196 Z M 570 356 L 491 297 L 460 335 L 371 335 C 400 304 427 269 445 240 C 466 241 478 233 482 223 L 401 196 L 536 196 C 551 196 561 191 563 180 C 531 149 480 110 480 110 L 434 166 L 334 166 L 334 80 C 357 77 368 67 369 53 L 271 42 L 271 166 L 44 166 L 52 196 L 170 196 L 166 198 C 185 230 203 282 201 323 C 206 329 212 333 218 335 L 147 335 L 76 303 L 76 955 L 85 955 C 115 955 135 939 135 934 L 135 364 L 471 364 L 471 860 C 471 873 467 878 452 878 C 436 878 367 872 367 872 L 367 889 C 400 893 418 900 429 910 C 440 919 444 934 446 951 C 521 943 530 915 530 866 L 530 375 C 548 371 564 364 570 356 Z M 699 462 L 685 468 C 714 521 743 606 740 671 C 793 727 858 592 699 462 Z M 682 352 L 683 322 C 686 261 688 203 690 154 L 933 154 C 947 154 957 149 960 138 C 926 108 874 67 874 67 L 826 125 L 541 125 L 549 154 L 632 154 C 631 339 608 683 587 859 C 565 863 547 866 533 868 L 566 951 C 576 948 585 940 589 928 C 700 885 786 848 848 821 L 844 805 C 774 820 705 835 648 846 C 662 710 674 519 682 352 Z M 949 872 L 946 774 L 933 774 C 926 812 916 859 910 869 C 907 875 904 876 899 877 L 892 877 C 880 877 878 872 878 859 L 878 350 C 900 347 911 341 917 335 L 842 268 L 805 309 L 660 309 L 660 339 L 815 339 L 815 878 C 815 918 823 938 874 938 L 874 938 C 950 938 973 925 973 899 C 973 886 967 879 949 872 Z" fill="red" /><path transform="translate(2000)" d="M 352 745 L 246 745 L 246 619 L 352 619 L 352 745 Z M 403 797 L 403 628 C 419 625 433 618 440 611 L 380 558 L 353 590 L 326 590 L 326 497 L 426 497 C 439 497 448 492 449 481 C 429 458 393 429 393 429 L 364 468 L 326 468 L 326 408 C 343 405 352 398 353 386 L 274 377 L 274 468 L 160 468 L 168 497 L 274 497 L 274 590 L 258 590 L 194 560 L 194 832 L 202 832 C 228 832 246 818 246 814 L 246 775 L 352 775 L 352 815 L 362 815 C 381 815 401 801 403 797 Z M 186 196 L 385 196 C 377 239 361 295 346 335 L 236 335 C 269 324 283 253 186 196 Z M 570 356 L 491 297 L 460 335 L 371 335 C 400 304 427 269 445 240 C 466 241 478 233 482 223 L 401 196 L 536 196 C 551 196 561 191 563 180 C 531 149 480 110 480 110 L 434 166 L 334 166 L 334 80 C 357 77 368 67 369 53 L 271 42 L 271 166 L 44 166 L 52 196 L 170 196 L 166 198 C 185 230 203 282 201 323 C 206 329 212 333 218 335 L 147 335 L 76 303 L 76 955 L 85 955 C 115 955 135 939 135 934 L 135 364 L 471 364 L 471 860 C 471 873 467 878 452 878 C 436 878 367 872 367 872 L 367 889 C 400 893 418 900 429 910 C 440 919 444 934 446 951 C 521 943 530 915 530 866 L 530 375 C 548 371 564 364 570 356 Z M 699 462 L 685 468 C 714 521 743 606 740 671 C 793 727 858 592 699 462 Z M 682 352 L 821 352 C 820 513 820 686 844 805 C 774 820 705 835 648 846 C 662 710 674 519 682 352 Z M 954 889 L 969 750 L 957 748 C 949 778 939 811 928 843 C 924 855 921 856 915 847 C 881 780 875 530 885 364 C 906 362 920 355 926 348 L 849 281 L 811 322 L 683 322 C 686 261 688 203 690 154 L 933 154 C 947 154 957 149 960 138 C 926 108 874 67 874 67 L 826 125 L 541 125 L 549 154 L 632 154 C 631 339 608 683 587 859 C 565 863 547 866 533 868 L 566 951 C 576 948 585 940 589 928 C 700 885 786 848 848 821 C 856 859 868 891 883 914 C 904 949 940 971 964 950 C 975 940 970 920 954 889 Z" fill="blue" fill-opacity="0.5" /><path transform="translate(2000)" d="M 352 745 L 246 745 L 246 619 L 352 619 L 352 745 Z M 403 797 L 403 628 C 419 625 433 618 440 611 L 380 558 L 353 590 L 326 590 L 326 497 L 426 497 C 439 497 448 492 449 481 C 429 458 393 429 393 429 L 364 468 L 326 468 L 326 408 C 343 405 352 398 353 386 L 274 377 L 274 468 L 160 468 L 168 497 L 274 497 L 274 590 L 258 590 L 194 560 L 194 832 L 202 832 C 228 832 246 818 246 814 L 246 775 L 352 775 L 352 815 L 362 815 C 381 815 401 801 403 797 Z M 186 196 L 385 196 C 377 239 361 295 346 335 L 236 335 C 269 324 283 253 186 196 Z M 570 356 L 491 297 L 460 335 L 371 335 C 400 304 427 269 445 240 C 466 241 478 233 482 223 L 401 196 L 536 196 C 551 196 561 191 563 180 C 531 149 480 110 480 110 L 434 166 L 334 166 L 334 80 C 357 77 368 67 369 53 L 271 42 L 271 166 L 44 166 L 52 196 L 170 196 L 166 198 C 185 230 203 282 201 323 C 206 329 212 333 218 335 L 147 335 L 76 303 L 76 955 L 85 955 C 115 955 135 939 135 934 L 135 364 L 471 364 L 471 860 C 471 873 467 878 452 878 C 436 878 367 872 367 872 L 367 889 C 400 893 418 900 429 910 C 440 919 444 934 446 951 C 521 943 530 915 530 866 L 530 375 C 548 371 564 364 570 356 Z M 699 462 L 685 468 C 714 521 743 606 740 671 C 793 727 858 592 699 462 Z M 682 352 L 683 322 C 686 261 688 203 690 154 L 933 154 C 947 154 957 149 960 138 C 926 108 874 67 874 67 L 826 125 L 541 125 L 549 154 L 632 154 C 631 339 608 683 587 859 C 565 863 547 866 533 868 L 566 951 C 576 948 585 940 589 928 C 700 885 786 848 848 821 L 844 805 C 774 820 705 835 648 846 C 662 710 674 519 682 352 Z M 949 872 L 946 774 L 933 774 C 926 812 916 859 910 869 C 907 875 904 876 899 877 L 892 877 C 880 877 878 872 878 859 L 878 350 C 900 347 911 341 917 335 L 842 268 L 805 309 L 660 309 L 660 339 L 815 339 L 815 878 C 815 918 823 938 874 938 L 874 938 C 950 938 973 925 973 899 C 973 886 967 879 949 872 Z" fill="red" fill-opacity="0.5" /><text text-anchor="middle" x="500" y="1064" font-family="Arial" font-size="64">Source Han Serif KR</text><text text-anchor="middle" x="1500" y="1064" font-family="Arial" font-size="64">HKSerif (uni750BKX-regular)</text></svg>