<svg width="3000" height="1080" xmlns="http://www.w3.org/2000/svg" style="background:#fff"><path d="M 51 563 L 82 649 C 91 646 100 640 107 629 C 191 608 270 588 324 573 C 330 594 335 613 336 631 C 389 680 442 557 278 440 L 265 446 C 282 474 302 513 316 551 C 240 557 168 562 116 565 C 207 485 305 370 358 291 C 376 294 390 289 395 281 L 310 223 C 297 254 275 294 250 335 C 197 336 146 336 106 335 C 166 270 233 173 271 104 C 291 106 302 98 306 89 L 215 44 C 192 119 128 261 74 321 C 68 326 51 330 51 330 L 85 416 C 92 413 100 407 106 398 C 151 388 196 375 230 365 C 184 437 127 511 78 554 C 71 559 51 563 51 563 Z M 115 686 L 97 686 C 104 747 85 821 59 851 C 43 866 34 889 46 905 C 61 924 95 914 110 893 C 133 859 144 783 115 686 Z M 199 667 L 184 671 C 196 721 204 797 193 856 C 238 912 307 799 199 667 Z M 286 650 L 274 656 C 297 696 322 765 321 816 C 371 865 429 750 286 650 Z M 595 565 L 725 565 L 725 722 L 595 722 L 595 565 Z M 595 751 L 725 751 L 725 795 L 733 795 C 751 795 778 782 779 776 L 779 573 C 796 570 812 562 818 555 L 747 501 L 716 535 L 599 535 L 540 508 L 540 805 L 549 805 C 571 805 595 792 595 787 L 595 751 Z M 795 383 L 758 430 L 693 430 L 693 314 L 840 314 C 843 314 846 314 848 313 L 848 429 C 823 406 795 383 795 383 Z M 638 284 L 486 284 L 486 143 L 848 143 L 848 280 C 825 258 800 238 800 238 L 765 284 L 693 284 L 693 198 C 717 194 725 184 728 171 L 638 160 L 638 284 Z M 952 136 L 871 73 L 838 114 L 499 114 L 428 83 L 428 457 C 428 634 421 813 332 947 L 349 958 C 479 824 486 626 486 456 L 486 288 L 493 314 L 638 314 L 638 430 L 486 430 L 494 460 L 837 460 C 841 460 845 460 848 459 L 848 857 C 848 872 844 878 826 878 C 807 878 715 871 715 871 L 715 887 C 756 892 779 901 794 911 C 806 920 811 938 812 957 C 900 948 909 916 909 863 L 909 156 C 930 152 946 143 952 136 Z" fill="blue" /><path transform="translate(1000)" d="M 42 539 L 73 626 C 80 624 87 618 93 610 C 179 591 262 569 319 553 C 323 570 326 587 327 601 C 379 649 433 530 275 420 L 261 426 C 279 453 298 493 312 531 C 231 537 155 543 103 545 C 197 469 300 354 354 275 C 375 280 389 274 394 265 L 310 208 C 293 242 266 288 234 335 C 187 336 141 336 106 335 C 166 270 233 173 271 104 C 291 106 302 98 306 89 L 214 44 C 192 119 127 261 74 321 C 68 326 50 330 50 330 L 85 416 C 92 413 100 407 106 398 C 141 390 178 380 209 371 C 163 433 113 493 68 530 C 60 536 42 539 42 539 Z M 113 665 L 95 665 C 100 727 76 800 50 829 C 32 845 23 867 35 884 C 50 903 84 892 100 872 C 124 838 140 763 113 665 Z M 200 646 L 185 650 C 198 699 205 776 195 835 C 239 891 308 777 200 646 Z M 290 630 L 277 635 C 301 677 327 745 326 797 C 376 846 434 730 290 630 Z M 632 422 L 632 517 L 644 517 C 665 517 689 504 689 497 L 689 422 L 813 422 C 826 422 835 418 838 407 C 814 382 775 349 775 349 L 741 394 L 689 394 L 689 293 L 809 293 C 822 293 831 288 834 277 C 810 253 771 220 771 220 L 737 264 L 689 264 L 689 192 C 708 189 714 180 716 171 L 632 161 L 632 264 L 508 264 L 516 293 L 632 293 L 632 394 L 507 394 L 515 422 L 632 422 Z M 596 579 L 730 579 L 730 746 L 596 746 L 596 579 Z M 596 774 L 730 774 L 730 821 L 738 821 C 756 821 784 808 785 801 L 785 581 C 796 579 809 573 813 568 L 752 519 L 723 549 L 600 549 L 542 521 L 542 853 L 549 853 C 572 853 596 840 596 834 L 596 774 Z M 963 126 L 879 63 L 847 104 L 492 104 L 419 72 L 419 457 C 419 639 408 814 301 946 L 317 957 C 466 827 480 630 480 456 L 480 134 L 857 134 L 857 854 C 857 870 851 876 832 876 C 812 876 714 869 714 869 L 714 884 C 758 891 783 899 797 910 C 809 919 815 937 818 957 C 910 948 920 915 920 862 L 920 146 C 940 143 957 134 963 126 Z" fill="red" /><path transform="translate(2000)" d="M 51 563 L 82 649 C 91 646 100 640 107 629 C 191 608 270 588 324 573 C 330 594 335 613 336 631 C 389 680 442 557 278 440 L 265 446 C 282 474 302 513 316 551 C 240 557 168 562 116 565 C 207 485 305 370 358 291 C 376 294 390 289 395 281 L 310 223 C 297 254 275 294 250 335 C 197 336 146 336 106 335 C 166 270 233 173 271 104 C 291 106 302 98 306 89 L 215 44 C 192 119 128 261 74 321 C 68 326 51 330 51 330 L 85 416 C 92 413 100 407 106 398 C 151 388 196 375 230 365 C 184 437 127 511 78 554 C 71 559 51 563 51 563 Z M 115 686 L 97 686 C 104 747 85 821 59 851 C 43 866 34 889 46 905 C 61 924 95 914 110 893 C 133 859 144 783 115 686 Z M 199 667 L 184 671 C 196 721 204 797 193 856 C 238 912 307 799 199 667 Z M 286 650 L 274 656 C 297 696 322 765 321 816 C 371 865 429 750 286 650 Z M 595 565 L 725 565 L 725 722 L 595 722 L 595 565 Z M 595 751 L 725 751 L 725 795 L 733 795 C 751 795 778 782 779 776 L 779 573 C 796 570 812 562 818 555 L 747 501 L 716 535 L 599 535 L 540 508 L 540 805 L 549 805 C 571 805 595 792 595 787 L 595 751 Z M 795 383 L 758 430 L 693 430 L 693 314 L 840 314 C 843 314 846 314 848 313 L 848 429 C 823 406 795 383 795 383 Z M 638 284 L 486 284 L 486 143 L 848 143 L 848 280 C 825 258 800 238 800 238 L 765 284 L 693 284 L 693 198 C 717 194 725 184 728 171 L 638 160 L 638 284 Z M 952 136 L 871 73 L 838 114 L 499 114 L 428 83 L 428 457 C 428 634 421 813 332 947 L 349 958 C 479 824 486 626 486 456 L 486 288 L 493 314 L 638 314 L 638 430 L 486 430 L 494 460 L 837 460 C 841 460 845 460 848 459 L 848 857 C 848 872 844 878 826 878 C 807 878 715 871 715 871 L 715 887 C 756 892 779 901 794 911 C 806 920 811 938 812 957 C 900 948 909 916 909 863 L 909 156 C 930 152 946 143 952 136 Z" fill="blue" fill-opacity="0.5" /><path transform="translate(2000)" d="M 42 539 L 73 626 C 80 624 87 618 93 610 C 179 591 262 569 319 553 C 323 570 326 587 327 601 C 379 649 433 530 275 420 L 261 426 C 279 453 298 493 312 531 C 231 537 155 543 103 545 C 197 469 300 354 354 275 C 375 280 389 274 394 265 L 310 208 C 293 242 266 288 234 335 C 187 336 141 336 106 335 C 166 270 233 173 271 104 C 291 106 302 98 306 89 L 214 44 C 192 119 127 261 74 321 C 68 326 50 330 50 330 L 85 416 C 92 413 100 407 106 398 C 141 390 178 380 209 371 C 163 433 113 493 68 530 C 60 536 42 539 42 539 Z M 113 665 L 95 665 C 100 727 76 800 50 829 C 32 845 23 867 35 884 C 50 903 84 892 100 872 C 124 838 140 763 113 665 Z M 200 646 L 185 650 C 198 699 205 776 195 835 C 239 891 308 777 200 646 Z M 290 630 L 277 635 C 301 677 327 745 326 797 C 376 846 434 730 290 630 Z M 632 422 L 632 517 L 644 517 C 665 517 689 504 689 497 L 689 422 L 813 422 C 826 422 835 418 838 407 C 814 382 775 349 775 349 L 741 394 L 689 394 L 689 293 L 809 293 C 822 293 831 288 834 277 C 810 253 771 220 771 220 L 737 264 L 689 264 L 689 192 C 708 189 714 180 716 171 L 632 161 L 632 264 L 508 264 L 516 293 L 632 293 L 632 394 L 507 394 L 515 422 L 632 422 Z M 596 579 L 730 579 L 730 746 L 596 746 L 596 579 Z M 596 774 L 730 774 L 730 821 L 738 821 C 756 821 784 808 785 801 L 785 581 C 796 579 809 573 813 568 L 752 519 L 723 549 L 600 549 L 542 521 L 542 853 L 549 853 C 572 853 596 840 596 834 L 596 774 Z M 963 126 L 879 63 L 847 104 L 492 104 L 419 72 L 419 457 C 419 639 408 814 301 946 L 317 957 C 466 827 480 630 480 456 L 480 134 L 857 134 L 857 854 C 857 870 851 876 832 876 C 812 876 714 869 714 869 L 714 884 C 758 891 783 899 797 910 C 809 919 815 937 818 957 C 910 948 920 915 920 862 L 920 146 C 940 143 957 134 963 126 Z" fill="red" fill-opacity="0.5" /><text text-anchor="middle" x="500" y="1064" font-family="Arial" font-size="64">Source Han Serif TW</text><text text-anchor="middle" x="1500" y="1064" font-family="Arial" font-size="64">HKSerif (uni7DA2HK-regular)</text></svg>