<svg width="3000" height="1080" xmlns="http://www.w3.org/2000/svg" style="background:#fff"><path d="M 443 30 L 434 36 C 455 60 479 102 482 137 C 542 184 605 65 443 30 Z M 73 355 L 82 370 C 203 343 317 287 386 236 C 413 238 426 234 431 224 L 358 177 L 572 177 L 572 278 C 572 320 583 333 654 333 L 749 333 C 891 333 917 326 917 300 C 917 288 909 282 887 277 L 883 276 L 874 276 C 868 278 859 280 853 281 C 849 281 841 281 835 282 C 822 283 789 283 755 283 L 667 283 C 635 283 633 280 633 268 L 633 189 L 633 177 L 839 177 C 828 202 814 229 804 248 L 817 256 C 849 240 893 211 917 188 C 936 187 947 186 955 178 L 880 106 L 839 148 L 185 148 C 183 131 179 113 172 93 L 154 94 C 161 146 136 196 104 215 C 84 226 71 245 79 264 C 90 286 120 285 143 270 C 166 256 186 224 187 177 L 356 177 C 304 234 183 314 73 355 Z M 633 593 L 632 611 C 663 616 695 623 708 632 C 720 641 723 655 723 671 C 758 671 790 664 810 647 C 842 621 855 550 861 418 C 880 416 892 411 898 404 L 827 347 L 793 382 L 512 382 L 521 412 L 630 412 C 621 499 589 582 415 652 L 428 667 C 638 603 683 512 696 412 L 802 412 C 796 518 787 579 772 593 C 765 599 758 601 742 601 C 724 601 667 596 633 593 Z M 279 716 L 290 716 C 313 716 339 703 339 695 L 339 608 C 401 595 454 582 499 571 L 498 554 C 444 560 390 565 339 569 L 339 508 L 466 508 C 480 508 490 503 492 492 C 463 463 415 427 415 427 L 374 478 L 339 478 L 339 417 L 490 417 C 503 417 513 412 515 401 C 486 373 438 335 438 335 L 395 387 L 339 387 L 339 355 C 364 351 374 342 376 328 L 279 317 L 279 387 L 107 387 L 115 417 L 279 417 L 279 478 L 130 478 L 138 508 L 279 508 L 279 574 C 208 579 149 582 111 583 L 137 662 C 148 661 156 655 162 643 C 204 635 243 628 279 620 L 279 716 Z M 558 816 L 556 832 C 709 857 822 917 869 965 C 950 984 938 809 558 816 Z M 849 690 L 801 750 L 517 750 C 523 734 528 716 531 697 C 552 695 563 684 565 672 L 462 661 C 460 693 454 723 442 750 L 67 750 L 75 780 L 425 780 C 380 845 282 895 60 941 L 68 960 C 361 917 462 857 504 780 L 911 780 C 925 780 935 775 938 764 C 903 733 849 690 849 690 Z" fill="blue" /><path transform="translate(1000)" d="M 443 30 L 434 36 C 455 60 479 102 482 137 C 542 184 605 65 443 30 Z M 963 176 L 890 106 L 850 146 L 524 146 C 563 132 570 54 443 30 L 433 35 C 457 60 481 102 482 137 C 488 141 493 144 499 146 L 169 146 C 167 129 163 111 156 91 L 138 92 C 146 144 121 194 88 213 C 69 224 55 243 64 262 C 74 284 106 283 127 268 C 150 254 170 222 171 175 L 344 175 C 268 250 171 306 92 333 L 99 354 C 187 336 294 299 382 225 C 408 238 426 230 431 222 L 377 175 L 850 175 C 839 199 825 228 815 247 L 828 255 C 860 238 902 208 925 185 C 944 184 956 183 963 176 Z M 633 252 L 633 216 C 658 212 668 203 670 189 L 572 178 L 572 262 C 572 304 583 317 654 317 L 749 317 C 891 317 917 310 917 284 C 917 272 909 266 887 261 L 883 260 L 874 260 C 868 262 859 264 853 265 C 849 265 841 265 835 266 C 822 267 789 267 755 267 L 667 267 C 635 267 633 264 633 252 Z M 325 410 L 473 410 C 486 410 496 405 498 394 C 468 366 420 329 420 329 L 378 381 L 325 381 L 325 342 C 350 338 360 329 362 315 L 264 304 L 264 381 L 90 381 L 98 410 L 264 410 L 264 471 L 113 471 L 120 500 L 264 500 L 264 568 L 83 568 L 91 597 L 264 597 L 264 700 L 276 700 C 299 700 325 687 325 679 L 325 597 L 497 597 C 511 597 521 592 523 581 C 493 552 446 516 446 516 L 403 568 L 325 568 L 325 500 L 464 500 C 478 500 487 495 490 484 C 461 456 413 419 413 419 L 371 471 L 325 471 L 325 410 Z M 566 763 L 921 763 C 935 763 944 758 947 747 C 913 715 858 673 858 673 L 810 733 L 519 733 C 525 715 529 698 532 679 C 554 677 565 666 567 653 L 506 647 C 647 575 679 483 690 386 L 787 386 C 782 503 772 570 755 586 C 748 591 740 593 726 593 C 707 593 649 589 616 586 L 615 603 C 646 608 678 615 690 624 C 703 633 707 648 707 664 C 741 664 773 656 795 639 C 827 612 841 534 847 392 C 866 390 878 385 885 378 L 813 320 L 778 356 L 491 356 L 500 386 L 620 386 C 613 488 583 587 403 669 L 416 685 C 432 679 447 674 461 668 C 458 691 453 712 444 733 L 57 733 L 65 763 L 429 763 C 384 832 286 887 53 936 L 61 955 C 365 909 466 845 507 763 L 536 763 C 611 872 739 927 906 956 C 913 925 930 904 958 897 L 959 885 C 797 874 650 841 566 763 Z" fill="red" /><path transform="translate(2000)" d="M 443 30 L 434 36 C 455 60 479 102 482 137 C 542 184 605 65 443 30 Z M 73 355 L 82 370 C 203 343 317 287 386 236 C 413 238 426 234 431 224 L 358 177 L 572 177 L 572 278 C 572 320 583 333 654 333 L 749 333 C 891 333 917 326 917 300 C 917 288 909 282 887 277 L 883 276 L 874 276 C 868 278 859 280 853 281 C 849 281 841 281 835 282 C 822 283 789 283 755 283 L 667 283 C 635 283 633 280 633 268 L 633 189 L 633 177 L 839 177 C 828 202 814 229 804 248 L 817 256 C 849 240 893 211 917 188 C 936 187 947 186 955 178 L 880 106 L 839 148 L 185 148 C 183 131 179 113 172 93 L 154 94 C 161 146 136 196 104 215 C 84 226 71 245 79 264 C 90 286 120 285 143 270 C 166 256 186 224 187 177 L 356 177 C 304 234 183 314 73 355 Z M 633 593 L 632 611 C 663 616 695 623 708 632 C 720 641 723 655 723 671 C 758 671 790 664 810 647 C 842 621 855 550 861 418 C 880 416 892 411 898 404 L 827 347 L 793 382 L 512 382 L 521 412 L 630 412 C 621 499 589 582 415 652 L 428 667 C 638 603 683 512 696 412 L 802 412 C 796 518 787 579 772 593 C 765 599 758 601 742 601 C 724 601 667 596 633 593 Z M 279 716 L 290 716 C 313 716 339 703 339 695 L 339 608 C 401 595 454 582 499 571 L 498 554 C 444 560 390 565 339 569 L 339 508 L 466 508 C 480 508 490 503 492 492 C 463 463 415 427 415 427 L 374 478 L 339 478 L 339 417 L 490 417 C 503 417 513 412 515 401 C 486 373 438 335 438 335 L 395 387 L 339 387 L 339 355 C 364 351 374 342 376 328 L 279 317 L 279 387 L 107 387 L 115 417 L 279 417 L 279 478 L 130 478 L 138 508 L 279 508 L 279 574 C 208 579 149 582 111 583 L 137 662 C 148 661 156 655 162 643 C 204 635 243 628 279 620 L 279 716 Z M 558 816 L 556 832 C 709 857 822 917 869 965 C 950 984 938 809 558 816 Z M 849 690 L 801 750 L 517 750 C 523 734 528 716 531 697 C 552 695 563 684 565 672 L 462 661 C 460 693 454 723 442 750 L 67 750 L 75 780 L 425 780 C 380 845 282 895 60 941 L 68 960 C 361 917 462 857 504 780 L 911 780 C 925 780 935 775 938 764 C 903 733 849 690 849 690 Z" fill="blue" fill-opacity="0.5" /><path transform="translate(2000)" d="M 443 30 L 434 36 C 455 60 479 102 482 137 C 542 184 605 65 443 30 Z M 963 176 L 890 106 L 850 146 L 524 146 C 563 132 570 54 443 30 L 433 35 C 457 60 481 102 482 137 C 488 141 493 144 499 146 L 169 146 C 167 129 163 111 156 91 L 138 92 C 146 144 121 194 88 213 C 69 224 55 243 64 262 C 74 284 106 283 127 268 C 150 254 170 222 171 175 L 344 175 C 268 250 171 306 92 333 L 99 354 C 187 336 294 299 382 225 C 408 238 426 230 431 222 L 377 175 L 850 175 C 839 199 825 228 815 247 L 828 255 C 860 238 902 208 925 185 C 944 184 956 183 963 176 Z M 633 252 L 633 216 C 658 212 668 203 670 189 L 572 178 L 572 262 C 572 304 583 317 654 317 L 749 317 C 891 317 917 310 917 284 C 917 272 909 266 887 261 L 883 260 L 874 260 C 868 262 859 264 853 265 C 849 265 841 265 835 266 C 822 267 789 267 755 267 L 667 267 C 635 267 633 264 633 252 Z M 325 410 L 473 410 C 486 410 496 405 498 394 C 468 366 420 329 420 329 L 378 381 L 325 381 L 325 342 C 350 338 360 329 362 315 L 264 304 L 264 381 L 90 381 L 98 410 L 264 410 L 264 471 L 113 471 L 120 500 L 264 500 L 264 568 L 83 568 L 91 597 L 264 597 L 264 700 L 276 700 C 299 700 325 687 325 679 L 325 597 L 497 597 C 511 597 521 592 523 581 C 493 552 446 516 446 516 L 403 568 L 325 568 L 325 500 L 464 500 C 478 500 487 495 490 484 C 461 456 413 419 413 419 L 371 471 L 325 471 L 325 410 Z M 566 763 L 921 763 C 935 763 944 758 947 747 C 913 715 858 673 858 673 L 810 733 L 519 733 C 525 715 529 698 532 679 C 554 677 565 666 567 653 L 506 647 C 647 575 679 483 690 386 L 787 386 C 782 503 772 570 755 586 C 748 591 740 593 726 593 C 707 593 649 589 616 586 L 615 603 C 646 608 678 615 690 624 C 703 633 707 648 707 664 C 741 664 773 656 795 639 C 827 612 841 534 847 392 C 866 390 878 385 885 378 L 813 320 L 778 356 L 491 356 L 500 386 L 620 386 C 613 488 583 587 403 669 L 416 685 C 432 679 447 674 461 668 C 458 691 453 712 444 733 L 57 733 L 65 763 L 429 763 C 384 832 286 887 53 936 L 61 955 C 365 909 466 845 507 763 L 536 763 C 611 872 739 927 906 956 C 913 925 930 904 958 897 L 959 885 C 797 874 650 841 566 763 Z" fill="red" fill-opacity="0.5" /><text text-anchor="middle" x="500" y="1064" font-family="Arial" font-size="64">Source Han Serif TW</text><text text-anchor="middle" x="1500" y="1064" font-family="Arial" font-size="64">HKSerif (uni7AABHK-regular)</text></svg>