<svg width="3000" height="1080" xmlns="http://www.w3.org/2000/svg" style="background:#fff"><path d="M 719 603 L 719 81 C 744 78 753 68 756 54 L 656 43 L 656 632 L 666 632 C 690 632 719 613 719 603 Z M 424 582 L 439 591 C 511 510 567 389 604 257 C 624 257 635 247 639 234 L 536 211 C 517 348 473 489 424 582 Z M 170 48 L 158 54 C 191 98 234 169 244 222 C 307 273 365 143 170 48 Z M 50 299 L 464 299 C 478 299 488 294 491 283 C 459 252 408 209 408 209 L 362 269 L 42 269 L 50 299 Z M 101 340 L 86 347 C 140 450 157 603 162 684 C 211 750 281 568 101 340 Z M 499 706 L 495 690 C 429 708 362 725 301 740 C 341 623 381 481 406 384 C 428 384 438 374 442 362 L 342 336 C 326 455 299 621 276 747 C 173 772 85 793 37 801 L 78 886 C 88 883 97 874 101 862 C 275 800 404 746 499 706 Z M 361 949 L 368 967 C 612 898 770 786 890 539 C 916 542 924 538 930 526 L 831 484 C 728 744 580 862 361 949 Z M 776 213 L 763 221 C 818 286 883 393 892 475 C 965 538 1024 360 776 213 Z" fill="blue" /><path transform="translate(1000)" d="M 527 558 L 527 573 C 568 579 593 587 607 598 C 619 608 624 624 626 644 C 715 635 725 603 725 550 L 725 80 C 748 76 758 68 760 53 L 663 42 L 663 545 C 663 560 658 565 641 565 C 622 565 527 558 527 558 Z M 424 582 L 439 591 C 511 510 567 389 604 257 C 624 257 635 247 639 234 L 536 211 C 517 348 473 489 424 582 Z M 170 48 L 158 54 C 191 98 234 169 244 222 C 307 273 365 143 170 48 Z M 50 299 L 464 299 C 478 299 488 294 491 283 C 459 252 408 209 408 209 L 362 269 L 42 269 L 50 299 Z M 101 340 L 86 347 C 140 450 157 603 162 684 C 211 750 281 568 101 340 Z M 499 706 L 495 690 C 429 708 362 725 301 740 C 341 623 381 481 406 384 C 428 384 438 374 442 362 L 342 336 C 326 455 299 621 276 747 C 173 772 85 793 37 801 L 78 886 C 88 883 97 874 101 862 C 275 800 404 746 499 706 Z M 361 949 L 368 967 C 612 898 770 786 890 539 C 916 542 924 538 930 526 L 831 484 C 728 744 580 862 361 949 Z M 776 213 L 763 221 C 818 286 883 393 892 475 C 965 538 1024 360 776 213 Z" fill="red" /><path transform="translate(2000)" d="M 719 603 L 719 81 C 744 78 753 68 756 54 L 656 43 L 656 632 L 666 632 C 690 632 719 613 719 603 Z M 424 582 L 439 591 C 511 510 567 389 604 257 C 624 257 635 247 639 234 L 536 211 C 517 348 473 489 424 582 Z M 170 48 L 158 54 C 191 98 234 169 244 222 C 307 273 365 143 170 48 Z M 50 299 L 464 299 C 478 299 488 294 491 283 C 459 252 408 209 408 209 L 362 269 L 42 269 L 50 299 Z M 101 340 L 86 347 C 140 450 157 603 162 684 C 211 750 281 568 101 340 Z M 499 706 L 495 690 C 429 708 362 725 301 740 C 341 623 381 481 406 384 C 428 384 438 374 442 362 L 342 336 C 326 455 299 621 276 747 C 173 772 85 793 37 801 L 78 886 C 88 883 97 874 101 862 C 275 800 404 746 499 706 Z M 361 949 L 368 967 C 612 898 770 786 890 539 C 916 542 924 538 930 526 L 831 484 C 728 744 580 862 361 949 Z M 776 213 L 763 221 C 818 286 883 393 892 475 C 965 538 1024 360 776 213 Z" fill="blue" fill-opacity="0.5" /><path transform="translate(2000)" d="M 527 558 L 527 573 C 568 579 593 587 607 598 C 619 608 624 624 626 644 C 715 635 725 603 725 550 L 725 80 C 748 76 758 68 760 53 L 663 42 L 663 545 C 663 560 658 565 641 565 C 622 565 527 558 527 558 Z M 424 582 L 439 591 C 511 510 567 389 604 257 C 624 257 635 247 639 234 L 536 211 C 517 348 473 489 424 582 Z M 170 48 L 158 54 C 191 98 234 169 244 222 C 307 273 365 143 170 48 Z M 50 299 L 464 299 C 478 299 488 294 491 283 C 459 252 408 209 408 209 L 362 269 L 42 269 L 50 299 Z M 101 340 L 86 347 C 140 450 157 603 162 684 C 211 750 281 568 101 340 Z M 499 706 L 495 690 C 429 708 362 725 301 740 C 341 623 381 481 406 384 C 428 384 438 374 442 362 L 342 336 C 326 455 299 621 276 747 C 173 772 85 793 37 801 L 78 886 C 88 883 97 874 101 862 C 275 800 404 746 499 706 Z M 361 949 L 368 967 C 612 898 770 786 890 539 C 916 542 924 538 930 526 L 831 484 C 728 744 580 862 361 949 Z M 776 213 L 763 221 C 818 286 883 393 892 475 C 965 538 1024 360 776 213 Z" fill="red" fill-opacity="0.5" /><text text-anchor="middle" x="500" y="1064" font-family="Arial" font-size="64">Source Han Serif TW</text><text text-anchor="middle" x="1500" y="1064" font-family="Arial" font-size="64">HKSerif (uni7AD7HK-regular)</text></svg>