<svg width="3000" height="1080" xmlns="http://www.w3.org/2000/svg" style="background:#fff"><path d="M 712 602 L 712 81 C 737 78 746 68 749 54 L 649 43 L 649 631 L 659 631 C 682 631 712 612 712 602 Z M 622 233 L 519 210 C 503 344 467 483 425 578 L 441 587 C 505 505 554 383 586 256 C 608 255 618 245 622 233 Z M 52 567 L 84 655 C 92 652 100 646 107 635 C 203 613 292 588 354 572 C 359 590 362 606 363 622 C 417 672 474 549 310 437 L 297 442 C 315 470 334 511 347 550 C 259 558 176 565 118 568 C 216 489 326 373 383 292 C 402 295 416 290 421 281 L 334 223 C 319 254 295 294 267 335 C 209 336 152 336 109 335 C 177 270 250 175 292 106 C 312 109 325 100 329 91 L 236 44 C 208 120 134 264 73 323 C 67 328 49 332 49 332 L 83 420 C 92 417 100 410 107 399 C 158 389 206 377 246 366 C 195 440 132 515 79 557 C 71 562 52 567 52 567 Z M 130 691 L 112 691 C 117 755 91 828 63 857 C 45 873 37 895 48 913 C 63 932 97 923 114 901 C 140 867 157 792 130 691 Z M 226 671 L 211 674 C 223 725 232 803 223 863 C 270 920 341 804 226 671 Z M 329 649 L 316 654 C 342 699 370 768 369 822 C 422 875 483 752 329 649 Z M 362 949 L 369 966 C 612 897 771 785 890 538 C 916 541 925 537 931 526 L 831 483 C 728 743 580 862 362 949 Z M 762 212 L 749 221 C 807 286 880 392 893 474 C 968 534 1024 358 762 212 Z" fill="blue" /><path transform="translate(1000)" d="M 515 557 L 515 574 C 556 578 579 586 594 596 C 607 606 611 622 613 641 C 702 633 713 601 713 549 L 713 86 C 737 82 746 74 749 60 L 649 49 L 649 545 C 649 559 644 564 627 564 C 608 564 515 557 515 557 Z M 619 240 L 523 210 C 502 316 465 424 424 494 L 440 503 C 498 446 548 356 582 260 C 603 261 615 251 619 240 Z M 52 567 L 84 655 C 92 652 100 646 107 635 C 203 613 292 588 354 572 C 359 590 362 606 363 622 C 417 672 474 549 310 437 L 297 442 C 315 470 334 511 347 550 C 259 558 176 565 118 568 C 216 489 326 373 383 292 C 402 295 416 290 421 281 L 334 223 C 319 254 295 294 267 335 C 209 336 152 336 109 335 C 177 270 250 175 292 106 C 312 109 325 100 329 91 L 236 44 C 208 120 134 264 73 323 C 67 328 49 332 49 332 L 83 420 C 92 417 100 410 107 399 C 158 389 206 377 246 366 C 195 440 132 515 79 557 C 71 562 52 567 52 567 Z M 130 691 L 112 691 C 117 755 91 828 63 857 C 45 873 37 895 48 913 C 63 932 97 923 114 901 C 140 867 157 792 130 691 Z M 226 671 L 211 674 C 223 725 232 803 223 863 C 270 920 341 804 226 671 Z M 329 649 L 316 654 C 342 699 370 768 369 822 C 422 875 483 752 329 649 Z M 362 949 L 369 966 C 612 897 771 785 890 538 C 916 541 925 537 931 526 L 831 483 C 728 743 580 862 362 949 Z M 762 212 L 749 221 C 807 286 880 392 893 474 C 968 534 1024 358 762 212 Z" fill="red" /><path transform="translate(2000)" d="M 712 602 L 712 81 C 737 78 746 68 749 54 L 649 43 L 649 631 L 659 631 C 682 631 712 612 712 602 Z M 622 233 L 519 210 C 503 344 467 483 425 578 L 441 587 C 505 505 554 383 586 256 C 608 255 618 245 622 233 Z M 52 567 L 84 655 C 92 652 100 646 107 635 C 203 613 292 588 354 572 C 359 590 362 606 363 622 C 417 672 474 549 310 437 L 297 442 C 315 470 334 511 347 550 C 259 558 176 565 118 568 C 216 489 326 373 383 292 C 402 295 416 290 421 281 L 334 223 C 319 254 295 294 267 335 C 209 336 152 336 109 335 C 177 270 250 175 292 106 C 312 109 325 100 329 91 L 236 44 C 208 120 134 264 73 323 C 67 328 49 332 49 332 L 83 420 C 92 417 100 410 107 399 C 158 389 206 377 246 366 C 195 440 132 515 79 557 C 71 562 52 567 52 567 Z M 130 691 L 112 691 C 117 755 91 828 63 857 C 45 873 37 895 48 913 C 63 932 97 923 114 901 C 140 867 157 792 130 691 Z M 226 671 L 211 674 C 223 725 232 803 223 863 C 270 920 341 804 226 671 Z M 329 649 L 316 654 C 342 699 370 768 369 822 C 422 875 483 752 329 649 Z M 362 949 L 369 966 C 612 897 771 785 890 538 C 916 541 925 537 931 526 L 831 483 C 728 743 580 862 362 949 Z M 762 212 L 749 221 C 807 286 880 392 893 474 C 968 534 1024 358 762 212 Z" fill="blue" fill-opacity="0.5" /><path transform="translate(2000)" d="M 515 557 L 515 574 C 556 578 579 586 594 596 C 607 606 611 622 613 641 C 702 633 713 601 713 549 L 713 86 C 737 82 746 74 749 60 L 649 49 L 649 545 C 649 559 644 564 627 564 C 608 564 515 557 515 557 Z M 619 240 L 523 210 C 502 316 465 424 424 494 L 440 503 C 498 446 548 356 582 260 C 603 261 615 251 619 240 Z M 52 567 L 84 655 C 92 652 100 646 107 635 C 203 613 292 588 354 572 C 359 590 362 606 363 622 C 417 672 474 549 310 437 L 297 442 C 315 470 334 511 347 550 C 259 558 176 565 118 568 C 216 489 326 373 383 292 C 402 295 416 290 421 281 L 334 223 C 319 254 295 294 267 335 C 209 336 152 336 109 335 C 177 270 250 175 292 106 C 312 109 325 100 329 91 L 236 44 C 208 120 134 264 73 323 C 67 328 49 332 49 332 L 83 420 C 92 417 100 410 107 399 C 158 389 206 377 246 366 C 195 440 132 515 79 557 C 71 562 52 567 52 567 Z M 130 691 L 112 691 C 117 755 91 828 63 857 C 45 873 37 895 48 913 C 63 932 97 923 114 901 C 140 867 157 792 130 691 Z M 226 671 L 211 674 C 223 725 232 803 223 863 C 270 920 341 804 226 671 Z M 329 649 L 316 654 C 342 699 370 768 369 822 C 422 875 483 752 329 649 Z M 362 949 L 369 966 C 612 897 771 785 890 538 C 916 541 925 537 931 526 L 831 483 C 728 743 580 862 362 949 Z M 762 212 L 749 221 C 807 286 880 392 893 474 C 968 534 1024 358 762 212 Z" fill="red" fill-opacity="0.5" /><text text-anchor="middle" x="500" y="1064" font-family="Arial" font-size="64">Source Han Serif TW</text><text text-anchor="middle" x="1500" y="1064" font-family="Arial" font-size="64">HKSerif (uni7D17HK-regular)</text></svg>