<svg width="3000" height="1080" xmlns="http://www.w3.org/2000/svg" style="background:#fff"><path d="M 694 65 L 683 73 C 724 110 779 173 796 219 C 858 260 902 138 694 65 Z M 51 564 L 82 652 C 90 649 99 642 106 632 C 198 611 285 588 344 572 C 349 591 353 611 354 627 C 406 677 463 557 305 444 L 292 450 C 308 476 325 513 337 550 C 253 557 172 563 115 566 C 209 488 311 374 365 295 C 384 299 398 293 403 284 L 317 226 C 304 256 282 295 256 335 C 201 336 148 336 107 335 C 172 270 243 173 283 105 C 302 107 313 99 318 90 L 226 44 C 201 119 131 262 74 321 C 67 327 50 330 50 330 L 84 417 C 92 414 99 408 106 398 C 152 389 198 377 234 367 C 186 438 127 511 77 554 C 70 560 51 564 51 564 Z M 126 689 L 107 689 C 112 752 87 824 59 854 C 41 869 33 892 45 909 C 59 928 93 917 110 897 C 135 863 153 789 126 689 Z M 215 669 L 200 673 C 213 723 221 800 211 859 C 257 916 327 800 215 669 Z M 312 648 L 300 654 C 324 698 349 767 346 820 C 397 873 461 754 312 648 Z M 611 296 L 944 296 C 958 296 968 291 970 280 C 939 249 889 210 889 210 L 844 266 L 614 266 C 619 204 622 141 623 80 C 645 77 657 68 660 49 L 553 42 C 554 116 553 191 548 266 L 411 266 L 419 296 L 546 296 C 527 546 469 789 338 949 L 352 956 C 474 843 542 682 580 506 C 602 604 635 687 680 756 C 627 832 557 897 463 943 L 471 957 C 572 918 648 863 708 796 C 758 861 822 914 901 953 C 912 923 934 907 961 905 L 963 895 C 876 861 803 814 743 751 C 816 652 856 533 876 414 C 904 410 911 403 913 389 L 809 380 C 796 498 766 612 709 711 C 653 641 613 554 590 452 C 599 401 606 348 611 296 Z" fill="blue" /><path transform="translate(1000)" d="M 694 65 L 683 73 C 724 110 779 173 796 219 C 858 260 902 138 694 65 Z M 51 564 L 82 652 C 90 649 99 642 106 632 C 198 611 285 588 344 572 C 349 591 353 611 354 627 C 406 677 463 557 305 444 L 292 450 C 308 476 325 513 337 550 C 253 557 172 563 115 566 C 209 488 311 374 365 295 C 384 299 398 293 403 284 L 317 226 C 304 256 282 295 256 335 C 201 336 148 336 107 335 C 172 270 243 173 283 105 C 302 107 313 99 318 90 L 226 44 C 201 119 131 262 74 321 C 67 327 50 330 50 330 L 84 417 C 92 414 99 408 106 398 C 152 389 198 377 234 367 C 186 438 127 511 77 554 C 70 560 51 564 51 564 Z M 126 689 L 107 689 C 112 752 87 824 59 854 C 41 869 33 892 45 909 C 59 928 93 917 110 897 C 135 863 153 789 126 689 Z M 215 669 L 200 673 C 213 723 221 800 211 859 C 257 916 327 800 215 669 Z M 312 648 L 300 654 C 324 698 349 767 346 820 C 397 873 461 754 312 648 Z M 909 398 L 803 378 C 791 481 766 585 722 678 C 655 572 626 444 614 296 L 938 296 C 952 296 962 291 964 280 C 932 250 879 208 879 208 L 834 267 L 614 267 C 616 204 617 143 618 85 C 642 81 650 72 653 57 L 549 46 C 549 118 549 192 547 267 L 404 267 L 412 296 L 546 296 C 538 525 501 757 350 942 L 367 958 C 526 804 583 607 604 412 C 618 531 643 640 692 734 C 643 818 575 891 484 945 L 493 958 C 590 913 663 851 719 779 C 764 849 825 908 907 956 C 916 920 938 908 969 905 L 972 893 C 878 847 808 792 756 726 C 816 631 850 523 871 418 C 897 417 906 410 909 398 Z" fill="red" /><path transform="translate(2000)" d="M 694 65 L 683 73 C 724 110 779 173 796 219 C 858 260 902 138 694 65 Z M 51 564 L 82 652 C 90 649 99 642 106 632 C 198 611 285 588 344 572 C 349 591 353 611 354 627 C 406 677 463 557 305 444 L 292 450 C 308 476 325 513 337 550 C 253 557 172 563 115 566 C 209 488 311 374 365 295 C 384 299 398 293 403 284 L 317 226 C 304 256 282 295 256 335 C 201 336 148 336 107 335 C 172 270 243 173 283 105 C 302 107 313 99 318 90 L 226 44 C 201 119 131 262 74 321 C 67 327 50 330 50 330 L 84 417 C 92 414 99 408 106 398 C 152 389 198 377 234 367 C 186 438 127 511 77 554 C 70 560 51 564 51 564 Z M 126 689 L 107 689 C 112 752 87 824 59 854 C 41 869 33 892 45 909 C 59 928 93 917 110 897 C 135 863 153 789 126 689 Z M 215 669 L 200 673 C 213 723 221 800 211 859 C 257 916 327 800 215 669 Z M 312 648 L 300 654 C 324 698 349 767 346 820 C 397 873 461 754 312 648 Z M 611 296 L 944 296 C 958 296 968 291 970 280 C 939 249 889 210 889 210 L 844 266 L 614 266 C 619 204 622 141 623 80 C 645 77 657 68 660 49 L 553 42 C 554 116 553 191 548 266 L 411 266 L 419 296 L 546 296 C 527 546 469 789 338 949 L 352 956 C 474 843 542 682 580 506 C 602 604 635 687 680 756 C 627 832 557 897 463 943 L 471 957 C 572 918 648 863 708 796 C 758 861 822 914 901 953 C 912 923 934 907 961 905 L 963 895 C 876 861 803 814 743 751 C 816 652 856 533 876 414 C 904 410 911 403 913 389 L 809 380 C 796 498 766 612 709 711 C 653 641 613 554 590 452 C 599 401 606 348 611 296 Z" fill="blue" fill-opacity="0.5" /><path transform="translate(2000)" d="M 694 65 L 683 73 C 724 110 779 173 796 219 C 858 260 902 138 694 65 Z M 51 564 L 82 652 C 90 649 99 642 106 632 C 198 611 285 588 344 572 C 349 591 353 611 354 627 C 406 677 463 557 305 444 L 292 450 C 308 476 325 513 337 550 C 253 557 172 563 115 566 C 209 488 311 374 365 295 C 384 299 398 293 403 284 L 317 226 C 304 256 282 295 256 335 C 201 336 148 336 107 335 C 172 270 243 173 283 105 C 302 107 313 99 318 90 L 226 44 C 201 119 131 262 74 321 C 67 327 50 330 50 330 L 84 417 C 92 414 99 408 106 398 C 152 389 198 377 234 367 C 186 438 127 511 77 554 C 70 560 51 564 51 564 Z M 126 689 L 107 689 C 112 752 87 824 59 854 C 41 869 33 892 45 909 C 59 928 93 917 110 897 C 135 863 153 789 126 689 Z M 215 669 L 200 673 C 213 723 221 800 211 859 C 257 916 327 800 215 669 Z M 312 648 L 300 654 C 324 698 349 767 346 820 C 397 873 461 754 312 648 Z M 909 398 L 803 378 C 791 481 766 585 722 678 C 655 572 626 444 614 296 L 938 296 C 952 296 962 291 964 280 C 932 250 879 208 879 208 L 834 267 L 614 267 C 616 204 617 143 618 85 C 642 81 650 72 653 57 L 549 46 C 549 118 549 192 547 267 L 404 267 L 412 296 L 546 296 C 538 525 501 757 350 942 L 367 958 C 526 804 583 607 604 412 C 618 531 643 640 692 734 C 643 818 575 891 484 945 L 493 958 C 590 913 663 851 719 779 C 764 849 825 908 907 956 C 916 920 938 908 969 905 L 972 893 C 878 847 808 792 756 726 C 816 631 850 523 871 418 C 897 417 906 410 909 398 Z" fill="red" fill-opacity="0.5" /><text text-anchor="middle" x="500" y="1064" font-family="Arial" font-size="64">Source Han Serif TW</text><text text-anchor="middle" x="1500" y="1064" font-family="Arial" font-size="64">HKSerif (uni7D31HK-regular)</text></svg>