<svg width="3000" height="1080" xmlns="http://www.w3.org/2000/svg" style="background:#fff"><path d="M 51 564 L 82 652 C 90 649 99 642 106 632 C 194 612 277 589 335 573 C 339 590 342 607 343 621 C 395 672 453 551 294 439 L 281 444 C 298 472 316 512 328 550 C 248 557 171 563 115 566 C 209 488 310 374 365 295 C 384 299 398 293 403 284 L 317 226 C 304 256 282 295 256 335 C 201 336 148 336 107 335 C 173 270 244 173 283 105 C 302 107 313 99 318 90 L 226 43 C 201 119 131 262 74 321 C 68 327 50 330 50 330 L 84 417 C 92 414 99 408 106 398 C 153 389 198 377 235 367 C 186 439 127 512 77 554 C 70 560 51 564 51 564 Z M 128 689 L 109 689 C 115 752 89 824 62 854 C 44 869 35 892 47 909 C 61 928 96 917 112 897 C 137 863 155 788 128 689 Z M 219 669 L 204 673 C 216 723 224 798 214 859 C 259 916 330 800 219 669 Z M 315 649 L 302 655 C 327 697 354 768 353 821 C 406 871 466 751 315 649 Z M 956 281 L 875 220 L 843 259 L 697 259 C 690 215 685 169 681 123 C 714 121 737 113 750 100 L 664 37 L 632 82 L 550 82 L 559 111 L 654 111 C 656 163 659 213 663 259 L 517 259 L 452 227 L 452 955 L 462 955 C 489 955 512 940 512 932 L 512 289 L 666 289 L 666 294 C 642 451 586 599 514 697 L 525 711 C 595 639 652 543 690 451 C 711 549 742 632 794 702 C 802 683 820 668 842 663 L 846 653 C 767 564 726 434 701 289 L 853 289 L 853 854 C 853 868 848 874 830 874 C 811 874 717 866 717 866 L 717 883 C 758 888 782 897 797 908 C 809 917 813 935 816 955 C 904 946 915 914 915 862 L 915 301 C 934 297 951 289 956 281 Z" fill="blue" /><path transform="translate(1000)" d="M 128 689 L 109 689 C 115 752 89 824 62 854 C 44 869 35 892 47 909 C 61 928 96 917 112 897 C 137 863 155 788 128 689 Z M 210 669 L 195 673 C 207 723 215 798 205 859 C 250 916 321 800 210 669 Z M 303 649 L 290 655 C 315 698 342 768 341 821 C 393 872 454 751 303 649 Z M 318 90 L 226 43 C 201 118 131 262 74 321 C 68 327 50 330 50 330 L 84 417 C 92 414 99 408 106 398 C 153 389 198 377 235 367 C 186 439 127 512 77 554 C 70 560 51 564 51 564 L 82 652 C 90 649 99 642 106 632 C 190 612 271 589 326 573 C 330 591 332 608 332 623 C 382 675 443 555 294 439 L 280 443 C 296 472 311 512 321 551 C 243 557 169 563 116 566 C 209 488 310 374 364 295 C 384 298 398 293 403 284 L 317 226 C 303 256 282 295 256 335 C 201 336 148 336 107 335 C 173 270 243 173 283 105 C 301 107 313 99 318 90 Z M 679 286 L 842 286 L 842 643 C 758 564 690 423 679 286 Z M 943 277 L 864 218 L 833 257 L 678 257 L 678 118 C 706 114 725 108 733 96 L 662 45 L 634 86 L 495 86 L 498 115 L 647 115 L 647 257 L 492 257 L 425 224 L 425 955 L 436 955 C 463 955 487 940 487 931 L 487 286 L 627 286 C 613 452 563 605 481 709 L 494 719 C 570 655 640 546 663 419 C 679 540 739 657 793 716 C 802 690 819 668 842 659 L 842 852 C 842 867 838 873 819 873 C 797 873 695 865 695 865 L 695 881 C 740 887 766 895 780 907 C 793 916 799 933 802 953 C 895 944 905 911 905 859 L 905 295 C 923 292 936 285 943 277 Z" fill="red" /><path transform="translate(2000)" d="M 51 564 L 82 652 C 90 649 99 642 106 632 C 194 612 277 589 335 573 C 339 590 342 607 343 621 C 395 672 453 551 294 439 L 281 444 C 298 472 316 512 328 550 C 248 557 171 563 115 566 C 209 488 310 374 365 295 C 384 299 398 293 403 284 L 317 226 C 304 256 282 295 256 335 C 201 336 148 336 107 335 C 173 270 244 173 283 105 C 302 107 313 99 318 90 L 226 43 C 201 119 131 262 74 321 C 68 327 50 330 50 330 L 84 417 C 92 414 99 408 106 398 C 153 389 198 377 235 367 C 186 439 127 512 77 554 C 70 560 51 564 51 564 Z M 128 689 L 109 689 C 115 752 89 824 62 854 C 44 869 35 892 47 909 C 61 928 96 917 112 897 C 137 863 155 788 128 689 Z M 219 669 L 204 673 C 216 723 224 798 214 859 C 259 916 330 800 219 669 Z M 315 649 L 302 655 C 327 697 354 768 353 821 C 406 871 466 751 315 649 Z M 956 281 L 875 220 L 843 259 L 697 259 C 690 215 685 169 681 123 C 714 121 737 113 750 100 L 664 37 L 632 82 L 550 82 L 559 111 L 654 111 C 656 163 659 213 663 259 L 517 259 L 452 227 L 452 955 L 462 955 C 489 955 512 940 512 932 L 512 289 L 666 289 L 666 294 C 642 451 586 599 514 697 L 525 711 C 595 639 652 543 690 451 C 711 549 742 632 794 702 C 802 683 820 668 842 663 L 846 653 C 767 564 726 434 701 289 L 853 289 L 853 854 C 853 868 848 874 830 874 C 811 874 717 866 717 866 L 717 883 C 758 888 782 897 797 908 C 809 917 813 935 816 955 C 904 946 915 914 915 862 L 915 301 C 934 297 951 289 956 281 Z" fill="blue" fill-opacity="0.5" /><path transform="translate(2000)" d="M 128 689 L 109 689 C 115 752 89 824 62 854 C 44 869 35 892 47 909 C 61 928 96 917 112 897 C 137 863 155 788 128 689 Z M 210 669 L 195 673 C 207 723 215 798 205 859 C 250 916 321 800 210 669 Z M 303 649 L 290 655 C 315 698 342 768 341 821 C 393 872 454 751 303 649 Z M 318 90 L 226 43 C 201 118 131 262 74 321 C 68 327 50 330 50 330 L 84 417 C 92 414 99 408 106 398 C 153 389 198 377 235 367 C 186 439 127 512 77 554 C 70 560 51 564 51 564 L 82 652 C 90 649 99 642 106 632 C 190 612 271 589 326 573 C 330 591 332 608 332 623 C 382 675 443 555 294 439 L 280 443 C 296 472 311 512 321 551 C 243 557 169 563 116 566 C 209 488 310 374 364 295 C 384 298 398 293 403 284 L 317 226 C 303 256 282 295 256 335 C 201 336 148 336 107 335 C 173 270 243 173 283 105 C 301 107 313 99 318 90 Z M 679 286 L 842 286 L 842 643 C 758 564 690 423 679 286 Z M 943 277 L 864 218 L 833 257 L 678 257 L 678 118 C 706 114 725 108 733 96 L 662 45 L 634 86 L 495 86 L 498 115 L 647 115 L 647 257 L 492 257 L 425 224 L 425 955 L 436 955 C 463 955 487 940 487 931 L 487 286 L 627 286 C 613 452 563 605 481 709 L 494 719 C 570 655 640 546 663 419 C 679 540 739 657 793 716 C 802 690 819 668 842 659 L 842 852 C 842 867 838 873 819 873 C 797 873 695 865 695 865 L 695 881 C 740 887 766 895 780 907 C 793 916 799 933 802 953 C 895 944 905 911 905 859 L 905 295 C 923 292 936 285 943 277 Z" fill="red" fill-opacity="0.5" /><text text-anchor="middle" x="500" y="1064" font-family="Arial" font-size="64">Source Han Serif TW</text><text text-anchor="middle" x="1500" y="1064" font-family="Arial" font-size="64">HKSerif (uni7D0DHK-regular)</text></svg>