<svg width="3000" height="1080" xmlns="http://www.w3.org/2000/svg" style="background:#fff"><path d="M 524 150 L 532 180 L 673 180 L 658 274 C 684 281 708 277 720 268 L 735 180 L 927 180 C 941 180 950 175 953 164 C 922 134 872 94 872 94 L 828 150 L 740 150 L 752 84 C 776 85 786 75 790 62 L 696 40 L 678 150 L 524 150 Z M 51 150 L 59 180 L 243 180 L 256 278 C 285 278 307 271 315 259 L 305 180 L 473 180 C 486 180 496 175 498 164 C 468 134 417 94 417 94 L 374 150 L 301 150 L 291 77 C 310 72 317 62 319 50 L 225 42 L 239 150 L 51 150 Z M 131 273 L 123 283 C 169 308 226 358 246 401 C 320 434 348 289 131 273 Z M 62 437 L 53 445 C 93 470 141 516 155 556 C 226 593 265 454 62 437 Z M 362 412 L 346 406 C 178 655 178 655 156 682 C 145 699 141 699 128 699 L 82 699 L 82 721 C 102 723 116 726 129 735 C 152 748 157 810 144 906 C 147 934 160 950 177 950 C 210 950 231 927 233 887 C 236 818 209 779 208 741 C 208 720 217 694 228 671 C 242 639 325 486 362 412 Z M 445 520 L 771 520 L 771 690 L 445 690 L 445 520 Z M 863 832 L 813 893 L 445 893 L 445 719 L 771 719 L 771 765 L 781 765 C 803 765 835 750 836 744 L 836 529 C 852 526 866 518 872 512 L 797 455 L 762 491 L 445 491 L 445 343 L 901 343 C 916 343 926 338 928 327 C 894 295 839 253 839 253 L 792 313 L 315 313 L 323 343 L 380 343 L 380 893 L 294 893 L 301 923 L 927 923 C 941 923 951 918 953 907 C 919 874 863 832 863 832 Z" fill="blue" /><path transform="translate(1000)" d="M 873 88 L 826 146 L 684 146 L 684 80 C 709 77 718 67 720 53 L 621 43 L 621 146 L 382 146 L 382 80 C 407 77 416 67 418 53 L 321 43 L 321 146 L 52 146 L 58 176 L 321 176 L 321 274 L 331 274 C 355 274 382 264 382 257 L 382 176 L 621 176 L 621 271 L 632 271 C 663 270 684 259 684 252 L 684 176 L 931 176 C 945 176 955 171 957 160 C 927 130 873 88 873 88 Z M 131 273 L 123 283 C 169 308 226 358 246 401 C 320 434 348 289 131 273 Z M 62 437 L 53 445 C 93 470 141 516 155 556 C 226 593 265 454 62 437 Z M 362 412 L 346 406 C 178 655 178 655 156 682 C 145 699 141 699 128 699 L 82 699 L 82 721 C 102 723 116 726 129 735 C 152 748 157 810 144 906 C 147 934 160 950 177 950 C 210 950 231 927 233 887 C 236 818 209 779 208 741 C 208 720 217 694 228 671 C 242 639 325 486 362 412 Z M 485 520 L 771 520 L 771 690 L 485 690 L 485 520 Z M 863 832 L 813 893 L 485 893 L 485 719 L 771 719 L 771 765 L 781 765 C 803 765 835 750 836 744 L 836 529 C 852 526 866 518 872 512 L 797 455 L 762 491 L 485 491 L 485 343 L 901 343 C 916 343 926 338 928 327 C 894 295 839 253 839 253 L 792 313 L 335 313 L 343 343 L 420 343 L 420 893 L 294 893 L 301 923 L 927 923 C 941 923 951 918 953 907 C 919 874 863 832 863 832 Z" fill="red" /><path transform="translate(2000)" d="M 524 150 L 532 180 L 673 180 L 658 274 C 684 281 708 277 720 268 L 735 180 L 927 180 C 941 180 950 175 953 164 C 922 134 872 94 872 94 L 828 150 L 740 150 L 752 84 C 776 85 786 75 790 62 L 696 40 L 678 150 L 524 150 Z M 51 150 L 59 180 L 243 180 L 256 278 C 285 278 307 271 315 259 L 305 180 L 473 180 C 486 180 496 175 498 164 C 468 134 417 94 417 94 L 374 150 L 301 150 L 291 77 C 310 72 317 62 319 50 L 225 42 L 239 150 L 51 150 Z M 131 273 L 123 283 C 169 308 226 358 246 401 C 320 434 348 289 131 273 Z M 62 437 L 53 445 C 93 470 141 516 155 556 C 226 593 265 454 62 437 Z M 362 412 L 346 406 C 178 655 178 655 156 682 C 145 699 141 699 128 699 L 82 699 L 82 721 C 102 723 116 726 129 735 C 152 748 157 810 144 906 C 147 934 160 950 177 950 C 210 950 231 927 233 887 C 236 818 209 779 208 741 C 208 720 217 694 228 671 C 242 639 325 486 362 412 Z M 445 520 L 771 520 L 771 690 L 445 690 L 445 520 Z M 863 832 L 813 893 L 445 893 L 445 719 L 771 719 L 771 765 L 781 765 C 803 765 835 750 836 744 L 836 529 C 852 526 866 518 872 512 L 797 455 L 762 491 L 445 491 L 445 343 L 901 343 C 916 343 926 338 928 327 C 894 295 839 253 839 253 L 792 313 L 315 313 L 323 343 L 380 343 L 380 893 L 294 893 L 301 923 L 927 923 C 941 923 951 918 953 907 C 919 874 863 832 863 832 Z" fill="blue" fill-opacity="0.5" /><path transform="translate(2000)" d="M 873 88 L 826 146 L 684 146 L 684 80 C 709 77 718 67 720 53 L 621 43 L 621 146 L 382 146 L 382 80 C 407 77 416 67 418 53 L 321 43 L 321 146 L 52 146 L 58 176 L 321 176 L 321 274 L 331 274 C 355 274 382 264 382 257 L 382 176 L 621 176 L 621 271 L 632 271 C 663 270 684 259 684 252 L 684 176 L 931 176 C 945 176 955 171 957 160 C 927 130 873 88 873 88 Z M 131 273 L 123 283 C 169 308 226 358 246 401 C 320 434 348 289 131 273 Z M 62 437 L 53 445 C 93 470 141 516 155 556 C 226 593 265 454 62 437 Z M 362 412 L 346 406 C 178 655 178 655 156 682 C 145 699 141 699 128 699 L 82 699 L 82 721 C 102 723 116 726 129 735 C 152 748 157 810 144 906 C 147 934 160 950 177 950 C 210 950 231 927 233 887 C 236 818 209 779 208 741 C 208 720 217 694 228 671 C 242 639 325 486 362 412 Z M 485 520 L 771 520 L 771 690 L 485 690 L 485 520 Z M 863 832 L 813 893 L 485 893 L 485 719 L 771 719 L 771 765 L 781 765 C 803 765 835 750 836 744 L 836 529 C 852 526 866 518 872 512 L 797 455 L 762 491 L 485 491 L 485 343 L 901 343 C 916 343 926 338 928 327 C 894 295 839 253 839 253 L 792 313 L 335 313 L 343 343 L 420 343 L 420 893 L 294 893 L 301 923 L 927 923 C 941 923 951 918 953 907 C 919 874 863 832 863 832 Z" fill="red" fill-opacity="0.5" /><text text-anchor="middle" x="500" y="1064" font-family="Arial" font-size="64">Source Han Serif TW</text><text text-anchor="middle" x="1500" y="1064" font-family="Arial" font-size="64">HKSerif (uni83C3HK-regular)</text></svg>