<svg width="3000" height="1080" xmlns="http://www.w3.org/2000/svg" style="background:#fff"><path d="M 51 182 L 304 182 L 304 278 L 314 278 C 340 278 368 268 368 261 L 368 182 L 626 182 L 626 275 L 637 275 C 669 274 691 263 691 257 L 691 182 L 930 182 C 945 182 955 177 957 166 C 925 136 872 93 872 93 L 824 152 L 691 152 L 691 77 C 716 74 725 64 727 50 L 626 40 L 626 152 L 368 152 L 368 77 C 393 74 402 64 404 50 L 304 40 L 304 152 L 44 152 L 51 182 Z M 131 260 L 122 268 C 165 297 219 350 236 395 C 310 434 346 286 131 260 Z M 54 450 L 45 460 C 90 485 142 532 159 574 C 231 610 266 465 54 450 Z M 363 393 L 345 387 C 157 703 157 703 138 732 C 126 750 123 750 111 750 L 65 750 L 65 772 C 85 774 97 776 110 784 C 131 795 136 844 126 924 C 129 948 141 962 157 962 C 191 962 209 940 210 906 C 213 849 187 818 187 785 C 187 765 196 737 207 711 C 221 674 320 483 363 393 Z M 673 480 L 924 480 C 938 480 946 475 949 464 C 920 435 872 398 872 398 L 831 450 L 656 450 L 656 322 C 681 319 690 309 693 295 L 593 284 L 593 450 L 348 450 L 356 480 L 545 480 C 481 601 382 724 270 813 L 281 827 C 406 752 516 651 593 536 L 593 959 L 606 959 C 629 959 656 944 656 935 L 656 496 C 714 631 809 745 903 814 C 913 784 935 765 961 762 L 963 752 C 862 699 742 597 673 480 Z" fill="blue" /><path transform="translate(1000)" d="M 51 182 L 304 182 L 304 278 L 314 278 C 340 278 368 268 368 261 L 368 182 L 626 182 L 626 265 L 637 265 C 669 264 691 253 691 247 L 691 182 L 930 182 C 945 182 955 177 957 166 C 925 136 872 93 872 93 L 824 152 L 691 152 L 691 77 C 716 74 725 64 727 50 L 626 40 L 626 152 L 368 152 L 368 77 C 393 74 402 64 404 50 L 304 40 L 304 152 L 44 152 L 51 182 Z M 135 260 L 125 268 C 170 297 223 349 240 395 C 314 433 351 286 135 260 Z M 62 451 L 53 461 C 97 485 148 530 165 570 C 237 607 272 464 62 451 Z M 346 390 L 331 385 C 168 700 168 700 151 730 C 141 748 138 748 126 748 L 83 748 L 83 770 C 102 772 113 774 126 782 C 147 793 151 843 140 922 C 144 946 156 960 172 960 C 205 960 224 938 225 904 C 227 847 202 816 201 782 C 201 761 209 733 218 706 C 230 670 311 482 346 390 Z M 648 471 L 889 471 C 903 471 912 466 915 455 C 886 426 838 388 838 388 L 796 441 L 633 441 L 633 313 C 658 310 666 300 669 287 L 570 275 L 570 441 L 339 441 L 347 471 L 527 471 C 468 612 370 761 258 866 L 271 880 C 393 790 498 672 570 539 L 570 959 L 583 959 C 605 959 633 945 633 936 L 633 493 C 687 651 777 787 866 870 C 878 840 900 822 926 820 L 928 810 C 829 744 713 613 648 471 Z" fill="red" /><path transform="translate(2000)" d="M 51 182 L 304 182 L 304 278 L 314 278 C 340 278 368 268 368 261 L 368 182 L 626 182 L 626 275 L 637 275 C 669 274 691 263 691 257 L 691 182 L 930 182 C 945 182 955 177 957 166 C 925 136 872 93 872 93 L 824 152 L 691 152 L 691 77 C 716 74 725 64 727 50 L 626 40 L 626 152 L 368 152 L 368 77 C 393 74 402 64 404 50 L 304 40 L 304 152 L 44 152 L 51 182 Z M 131 260 L 122 268 C 165 297 219 350 236 395 C 310 434 346 286 131 260 Z M 54 450 L 45 460 C 90 485 142 532 159 574 C 231 610 266 465 54 450 Z M 363 393 L 345 387 C 157 703 157 703 138 732 C 126 750 123 750 111 750 L 65 750 L 65 772 C 85 774 97 776 110 784 C 131 795 136 844 126 924 C 129 948 141 962 157 962 C 191 962 209 940 210 906 C 213 849 187 818 187 785 C 187 765 196 737 207 711 C 221 674 320 483 363 393 Z M 673 480 L 924 480 C 938 480 946 475 949 464 C 920 435 872 398 872 398 L 831 450 L 656 450 L 656 322 C 681 319 690 309 693 295 L 593 284 L 593 450 L 348 450 L 356 480 L 545 480 C 481 601 382 724 270 813 L 281 827 C 406 752 516 651 593 536 L 593 959 L 606 959 C 629 959 656 944 656 935 L 656 496 C 714 631 809 745 903 814 C 913 784 935 765 961 762 L 963 752 C 862 699 742 597 673 480 Z" fill="blue" fill-opacity="0.5" /><path transform="translate(2000)" d="M 51 182 L 304 182 L 304 278 L 314 278 C 340 278 368 268 368 261 L 368 182 L 626 182 L 626 265 L 637 265 C 669 264 691 253 691 247 L 691 182 L 930 182 C 945 182 955 177 957 166 C 925 136 872 93 872 93 L 824 152 L 691 152 L 691 77 C 716 74 725 64 727 50 L 626 40 L 626 152 L 368 152 L 368 77 C 393 74 402 64 404 50 L 304 40 L 304 152 L 44 152 L 51 182 Z M 135 260 L 125 268 C 170 297 223 349 240 395 C 314 433 351 286 135 260 Z M 62 451 L 53 461 C 97 485 148 530 165 570 C 237 607 272 464 62 451 Z M 346 390 L 331 385 C 168 700 168 700 151 730 C 141 748 138 748 126 748 L 83 748 L 83 770 C 102 772 113 774 126 782 C 147 793 151 843 140 922 C 144 946 156 960 172 960 C 205 960 224 938 225 904 C 227 847 202 816 201 782 C 201 761 209 733 218 706 C 230 670 311 482 346 390 Z M 648 471 L 889 471 C 903 471 912 466 915 455 C 886 426 838 388 838 388 L 796 441 L 633 441 L 633 313 C 658 310 666 300 669 287 L 570 275 L 570 441 L 339 441 L 347 471 L 527 471 C 468 612 370 761 258 866 L 271 880 C 393 790 498 672 570 539 L 570 959 L 583 959 C 605 959 633 945 633 936 L 633 493 C 687 651 777 787 866 870 C 878 840 900 822 926 820 L 928 810 C 829 744 713 613 648 471 Z" fill="red" fill-opacity="0.5" /><text text-anchor="middle" x="500" y="1064" font-family="Arial" font-size="64">Source Han Serif KR</text><text text-anchor="middle" x="1500" y="1064" font-family="Arial" font-size="64">HKSerif (uni83AFKX-regular)</text></svg>