<svg width="3000" height="1080" xmlns="http://www.w3.org/2000/svg" style="background:#fff"><path d="M 638 539 L 494 539 L 502 568 L 638 568 L 638 630 L 650 630 C 672 630 699 617 699 610 L 699 568 L 865 568 C 879 568 888 563 890 552 C 862 524 815 489 815 489 L 774 539 L 699 539 L 699 461 L 826 461 C 840 461 849 456 851 445 C 823 418 780 385 780 385 L 743 431 L 699 431 L 699 360 L 843 360 C 856 360 866 355 869 344 C 839 317 792 280 792 280 L 752 330 L 699 330 L 699 298 C 725 294 734 285 736 271 L 638 260 L 638 330 L 495 330 L 503 360 L 638 360 L 638 431 L 516 431 L 523 461 L 638 461 L 638 539 Z M 268 183 L 276 244 C 304 245 327 238 336 225 L 330 183 L 468 183 C 481 183 490 178 493 167 C 465 138 419 101 419 101 L 378 153 L 325 153 L 315 79 C 335 73 342 62 343 51 L 249 43 L 264 153 L 44 153 L 51 183 L 268 183 Z M 252 634 L 264 634 C 286 634 313 621 313 613 L 313 568 L 454 568 C 467 568 477 563 480 552 C 450 524 405 489 405 489 L 364 539 L 313 539 L 313 461 L 433 461 C 445 461 454 456 457 445 C 432 420 390 388 390 388 L 354 431 L 313 431 L 313 360 L 438 360 C 451 360 461 355 464 344 C 435 317 391 282 391 282 L 352 330 L 313 330 L 313 296 C 337 292 347 283 349 270 L 252 259 L 252 330 L 116 330 L 124 360 L 252 360 L 252 431 L 132 431 L 140 461 L 252 461 L 252 539 L 99 539 L 107 568 L 252 568 L 252 634 Z M 843 717 L 804 766 L 776 766 L 776 694 C 795 690 811 682 817 674 L 738 612 L 702 652 L 178 652 L 187 682 L 712 682 L 712 766 L 87 766 L 96 796 L 712 796 L 712 888 L 161 888 L 170 917 L 712 917 L 712 954 L 722 954 C 743 954 775 940 776 933 L 776 796 L 893 796 C 906 796 915 791 917 780 C 890 752 843 717 843 717 Z M 885 101 L 844 153 L 706 153 L 718 82 C 743 82 753 72 755 59 L 663 41 L 645 153 L 523 153 L 531 183 L 640 183 L 630 238 C 657 244 680 240 692 231 L 701 183 L 934 183 C 948 183 957 178 959 167 C 931 138 885 101 885 101 Z" fill="blue" /><path transform="translate(1000)" d="M 843 717 L 804 766 L 776 766 L 776 694 C 795 690 811 682 817 674 L 738 612 L 702 652 L 178 652 L 187 682 L 712 682 L 712 766 L 87 766 L 96 796 L 712 796 L 712 888 L 161 888 L 170 917 L 712 917 L 712 954 L 722 954 C 743 954 775 940 776 933 L 776 796 L 893 796 C 906 796 915 791 917 780 C 890 752 843 717 843 717 Z M 653 241 L 653 313 L 504 313 L 512 343 L 653 343 L 653 413 L 525 413 L 532 442 L 653 442 L 653 519 L 503 519 L 505 528 C 476 500 434 468 434 468 L 392 519 L 327 519 L 327 442 L 470 442 C 484 442 493 437 495 426 C 468 401 427 368 427 368 L 390 413 L 327 413 L 327 343 L 476 343 C 490 343 500 338 503 327 C 473 300 427 264 427 264 L 387 313 L 327 313 L 327 278 C 352 274 360 265 362 251 L 336 248 C 360 248 387 239 387 231 L 387 180 L 616 180 L 616 245 L 627 245 C 636 245 645 243 653 241 Z M 677 227 L 677 180 L 930 180 C 944 180 953 175 956 164 C 925 134 872 93 872 93 L 826 150 L 677 150 L 677 80 C 702 77 711 67 713 54 L 616 44 L 616 150 L 387 150 L 387 80 C 412 77 421 67 422 54 L 326 43 L 326 150 L 52 150 L 58 180 L 326 180 L 326 247 L 265 240 L 265 313 L 79 313 L 87 343 L 265 343 L 265 413 L 96 413 L 104 442 L 265 442 L 265 519 L 65 519 L 73 548 L 265 548 L 265 615 L 277 615 C 300 615 327 602 327 594 L 327 548 L 484 548 C 495 548 504 545 508 537 L 511 548 L 653 548 L 653 610 L 665 610 C 688 610 715 596 715 590 L 715 548 L 923 548 C 936 548 946 543 948 532 C 919 504 871 468 871 468 L 830 519 L 715 519 L 715 442 L 883 442 C 897 442 907 437 909 426 C 880 399 837 366 837 366 L 798 413 L 715 413 L 715 343 L 900 343 C 914 343 923 338 926 327 C 896 299 849 262 849 262 L 807 313 L 715 313 L 715 278 C 740 274 750 265 752 251 L 656 240 C 669 236 677 231 677 227 Z" fill="red" /><path transform="translate(2000)" d="M 638 539 L 494 539 L 502 568 L 638 568 L 638 630 L 650 630 C 672 630 699 617 699 610 L 699 568 L 865 568 C 879 568 888 563 890 552 C 862 524 815 489 815 489 L 774 539 L 699 539 L 699 461 L 826 461 C 840 461 849 456 851 445 C 823 418 780 385 780 385 L 743 431 L 699 431 L 699 360 L 843 360 C 856 360 866 355 869 344 C 839 317 792 280 792 280 L 752 330 L 699 330 L 699 298 C 725 294 734 285 736 271 L 638 260 L 638 330 L 495 330 L 503 360 L 638 360 L 638 431 L 516 431 L 523 461 L 638 461 L 638 539 Z M 268 183 L 276 244 C 304 245 327 238 336 225 L 330 183 L 468 183 C 481 183 490 178 493 167 C 465 138 419 101 419 101 L 378 153 L 325 153 L 315 79 C 335 73 342 62 343 51 L 249 43 L 264 153 L 44 153 L 51 183 L 268 183 Z M 252 634 L 264 634 C 286 634 313 621 313 613 L 313 568 L 454 568 C 467 568 477 563 480 552 C 450 524 405 489 405 489 L 364 539 L 313 539 L 313 461 L 433 461 C 445 461 454 456 457 445 C 432 420 390 388 390 388 L 354 431 L 313 431 L 313 360 L 438 360 C 451 360 461 355 464 344 C 435 317 391 282 391 282 L 352 330 L 313 330 L 313 296 C 337 292 347 283 349 270 L 252 259 L 252 330 L 116 330 L 124 360 L 252 360 L 252 431 L 132 431 L 140 461 L 252 461 L 252 539 L 99 539 L 107 568 L 252 568 L 252 634 Z M 843 717 L 804 766 L 776 766 L 776 694 C 795 690 811 682 817 674 L 738 612 L 702 652 L 178 652 L 187 682 L 712 682 L 712 766 L 87 766 L 96 796 L 712 796 L 712 888 L 161 888 L 170 917 L 712 917 L 712 954 L 722 954 C 743 954 775 940 776 933 L 776 796 L 893 796 C 906 796 915 791 917 780 C 890 752 843 717 843 717 Z M 885 101 L 844 153 L 706 153 L 718 82 C 743 82 753 72 755 59 L 663 41 L 645 153 L 523 153 L 531 183 L 640 183 L 630 238 C 657 244 680 240 692 231 L 701 183 L 934 183 C 948 183 957 178 959 167 C 931 138 885 101 885 101 Z" fill="blue" fill-opacity="0.5" /><path transform="translate(2000)" d="M 843 717 L 804 766 L 776 766 L 776 694 C 795 690 811 682 817 674 L 738 612 L 702 652 L 178 652 L 187 682 L 712 682 L 712 766 L 87 766 L 96 796 L 712 796 L 712 888 L 161 888 L 170 917 L 712 917 L 712 954 L 722 954 C 743 954 775 940 776 933 L 776 796 L 893 796 C 906 796 915 791 917 780 C 890 752 843 717 843 717 Z M 653 241 L 653 313 L 504 313 L 512 343 L 653 343 L 653 413 L 525 413 L 532 442 L 653 442 L 653 519 L 503 519 L 505 528 C 476 500 434 468 434 468 L 392 519 L 327 519 L 327 442 L 470 442 C 484 442 493 437 495 426 C 468 401 427 368 427 368 L 390 413 L 327 413 L 327 343 L 476 343 C 490 343 500 338 503 327 C 473 300 427 264 427 264 L 387 313 L 327 313 L 327 278 C 352 274 360 265 362 251 L 336 248 C 360 248 387 239 387 231 L 387 180 L 616 180 L 616 245 L 627 245 C 636 245 645 243 653 241 Z M 677 227 L 677 180 L 930 180 C 944 180 953 175 956 164 C 925 134 872 93 872 93 L 826 150 L 677 150 L 677 80 C 702 77 711 67 713 54 L 616 44 L 616 150 L 387 150 L 387 80 C 412 77 421 67 422 54 L 326 43 L 326 150 L 52 150 L 58 180 L 326 180 L 326 247 L 265 240 L 265 313 L 79 313 L 87 343 L 265 343 L 265 413 L 96 413 L 104 442 L 265 442 L 265 519 L 65 519 L 73 548 L 265 548 L 265 615 L 277 615 C 300 615 327 602 327 594 L 327 548 L 484 548 C 495 548 504 545 508 537 L 511 548 L 653 548 L 653 610 L 665 610 C 688 610 715 596 715 590 L 715 548 L 923 548 C 936 548 946 543 948 532 C 919 504 871 468 871 468 L 830 519 L 715 519 L 715 442 L 883 442 C 897 442 907 437 909 426 C 880 399 837 366 837 366 L 798 413 L 715 413 L 715 343 L 900 343 C 914 343 923 338 926 327 C 896 299 849 262 849 262 L 807 313 L 715 313 L 715 278 C 740 274 750 265 752 251 L 656 240 C 669 236 677 231 677 227 Z" fill="red" fill-opacity="0.5" /><text text-anchor="middle" x="500" y="1064" font-family="Arial" font-size="64">Source Han Serif TW</text><text text-anchor="middle" x="1500" y="1064" font-family="Arial" font-size="64">HKSerif (uni8527HK-regular)</text></svg>