<svg width="3000" height="1080" xmlns="http://www.w3.org/2000/svg" style="background:#fff"><path d="M 256 177 L 266 255 C 294 255 317 249 326 236 L 317 177 L 472 177 C 485 177 496 172 498 161 C 468 131 420 93 420 93 L 377 147 L 313 147 L 303 77 C 323 71 330 61 332 49 L 238 41 L 252 147 L 52 147 L 59 177 L 256 177 Z M 416 590 L 412 575 C 363 588 314 600 269 611 L 269 437 L 400 437 C 413 437 423 432 425 421 C 396 392 348 353 348 353 L 306 408 L 269 408 L 269 286 C 289 283 298 275 300 263 L 206 252 L 206 408 L 80 408 L 87 437 L 206 437 L 206 625 C 147 640 97 651 68 656 L 107 741 C 116 737 124 729 128 716 C 156 704 181 694 206 684 L 206 863 C 206 876 202 881 188 881 C 172 881 102 875 102 875 L 102 891 C 136 896 154 904 165 914 C 175 924 179 941 181 959 C 260 952 269 922 269 868 L 269 656 C 328 630 376 608 416 590 Z M 462 678 L 773 678 L 773 864 L 462 864 L 462 678 Z M 833 429 L 786 491 L 650 491 L 650 344 C 707 336 759 328 802 319 C 826 330 843 330 853 322 L 780 250 C 694 285 526 326 393 346 L 397 365 C 457 363 522 358 584 352 L 584 491 L 335 491 L 343 520 L 584 520 L 584 648 L 467 648 L 398 618 L 398 957 L 408 957 C 434 957 462 942 462 935 L 462 894 L 773 894 L 773 947 L 783 947 C 805 947 837 932 838 925 L 838 691 C 858 687 874 678 880 670 L 800 609 L 763 648 L 650 648 L 650 520 L 896 520 C 911 520 920 515 923 504 C 889 472 833 429 833 429 Z M 875 93 L 832 147 L 715 147 L 727 83 C 751 83 761 73 765 60 L 671 40 L 653 147 L 523 147 L 531 177 L 648 177 L 633 265 C 660 270 685 268 697 258 L 711 177 L 927 177 C 941 177 950 172 953 161 C 923 131 875 93 875 93 Z" fill="blue" /><path transform="translate(1000)" d="M 52 169 L 322 169 L 322 247 L 332 247 C 358 247 386 239 386 230 L 386 169 L 610 169 L 610 243 L 621 243 C 653 242 674 232 674 225 L 674 169 L 930 169 C 944 169 954 164 957 153 C 925 122 872 82 872 82 L 826 139 L 674 139 L 674 77 C 699 74 708 64 710 50 L 610 40 L 610 139 L 386 139 L 386 77 C 411 74 419 64 421 50 L 322 40 L 322 139 L 45 139 L 52 169 Z M 416 590 L 412 575 C 363 588 314 600 269 611 L 269 437 L 400 437 C 413 437 423 432 425 421 C 396 392 348 353 348 353 L 306 408 L 269 408 L 269 286 C 289 283 298 275 300 263 L 206 252 L 206 408 L 80 408 L 87 437 L 206 437 L 206 625 C 147 640 97 651 68 656 L 107 741 C 116 737 124 729 128 716 C 156 704 181 694 206 684 L 206 863 C 206 876 202 881 188 881 C 172 881 102 875 102 875 L 102 891 C 136 896 154 904 165 914 C 175 924 179 941 181 959 C 260 952 269 922 269 868 L 269 656 C 328 630 376 608 416 590 Z M 462 678 L 773 678 L 773 864 L 462 864 L 462 678 Z M 833 429 L 786 491 L 650 491 L 650 344 C 707 336 759 328 802 319 C 826 330 843 330 853 322 L 780 250 C 694 285 526 326 393 346 L 397 365 C 457 363 522 358 584 352 L 584 491 L 335 491 L 343 520 L 584 520 L 584 648 L 467 648 L 398 618 L 398 957 L 408 957 C 434 957 462 942 462 935 L 462 894 L 773 894 L 773 947 L 783 947 C 805 947 837 932 838 925 L 838 691 C 858 687 874 678 880 670 L 800 609 L 763 648 L 650 648 L 650 520 L 896 520 C 911 520 920 515 923 504 C 889 472 833 429 833 429 Z" fill="red" /><path transform="translate(2000)" d="M 256 177 L 266 255 C 294 255 317 249 326 236 L 317 177 L 472 177 C 485 177 496 172 498 161 C 468 131 420 93 420 93 L 377 147 L 313 147 L 303 77 C 323 71 330 61 332 49 L 238 41 L 252 147 L 52 147 L 59 177 L 256 177 Z M 416 590 L 412 575 C 363 588 314 600 269 611 L 269 437 L 400 437 C 413 437 423 432 425 421 C 396 392 348 353 348 353 L 306 408 L 269 408 L 269 286 C 289 283 298 275 300 263 L 206 252 L 206 408 L 80 408 L 87 437 L 206 437 L 206 625 C 147 640 97 651 68 656 L 107 741 C 116 737 124 729 128 716 C 156 704 181 694 206 684 L 206 863 C 206 876 202 881 188 881 C 172 881 102 875 102 875 L 102 891 C 136 896 154 904 165 914 C 175 924 179 941 181 959 C 260 952 269 922 269 868 L 269 656 C 328 630 376 608 416 590 Z M 462 678 L 773 678 L 773 864 L 462 864 L 462 678 Z M 833 429 L 786 491 L 650 491 L 650 344 C 707 336 759 328 802 319 C 826 330 843 330 853 322 L 780 250 C 694 285 526 326 393 346 L 397 365 C 457 363 522 358 584 352 L 584 491 L 335 491 L 343 520 L 584 520 L 584 648 L 467 648 L 398 618 L 398 957 L 408 957 C 434 957 462 942 462 935 L 462 894 L 773 894 L 773 947 L 783 947 C 805 947 837 932 838 925 L 838 691 C 858 687 874 678 880 670 L 800 609 L 763 648 L 650 648 L 650 520 L 896 520 C 911 520 920 515 923 504 C 889 472 833 429 833 429 Z M 875 93 L 832 147 L 715 147 L 727 83 C 751 83 761 73 765 60 L 671 40 L 653 147 L 523 147 L 531 177 L 648 177 L 633 265 C 660 270 685 268 697 258 L 711 177 L 927 177 C 941 177 950 172 953 161 C 923 131 875 93 875 93 Z" fill="blue" fill-opacity="0.5" /><path transform="translate(2000)" d="M 52 169 L 322 169 L 322 247 L 332 247 C 358 247 386 239 386 230 L 386 169 L 610 169 L 610 243 L 621 243 C 653 242 674 232 674 225 L 674 169 L 930 169 C 944 169 954 164 957 153 C 925 122 872 82 872 82 L 826 139 L 674 139 L 674 77 C 699 74 708 64 710 50 L 610 40 L 610 139 L 386 139 L 386 77 C 411 74 419 64 421 50 L 322 40 L 322 139 L 45 139 L 52 169 Z M 416 590 L 412 575 C 363 588 314 600 269 611 L 269 437 L 400 437 C 413 437 423 432 425 421 C 396 392 348 353 348 353 L 306 408 L 269 408 L 269 286 C 289 283 298 275 300 263 L 206 252 L 206 408 L 80 408 L 87 437 L 206 437 L 206 625 C 147 640 97 651 68 656 L 107 741 C 116 737 124 729 128 716 C 156 704 181 694 206 684 L 206 863 C 206 876 202 881 188 881 C 172 881 102 875 102 875 L 102 891 C 136 896 154 904 165 914 C 175 924 179 941 181 959 C 260 952 269 922 269 868 L 269 656 C 328 630 376 608 416 590 Z M 462 678 L 773 678 L 773 864 L 462 864 L 462 678 Z M 833 429 L 786 491 L 650 491 L 650 344 C 707 336 759 328 802 319 C 826 330 843 330 853 322 L 780 250 C 694 285 526 326 393 346 L 397 365 C 457 363 522 358 584 352 L 584 491 L 335 491 L 343 520 L 584 520 L 584 648 L 467 648 L 398 618 L 398 957 L 408 957 C 434 957 462 942 462 935 L 462 894 L 773 894 L 773 947 L 783 947 C 805 947 837 932 838 925 L 838 691 C 858 687 874 678 880 670 L 800 609 L 763 648 L 650 648 L 650 520 L 896 520 C 911 520 920 515 923 504 C 889 472 833 429 833 429 Z" fill="red" fill-opacity="0.5" /><text text-anchor="middle" x="500" y="1064" font-family="Arial" font-size="64">Source Han Serif TW</text><text text-anchor="middle" x="1500" y="1064" font-family="Arial" font-size="64">HKSerif (uni8440HK-regular)</text></svg>