<svg width="3000" height="1080" xmlns="http://www.w3.org/2000/svg" style="background:#fff"><path d="M 57 153 L 65 182 L 252 182 L 263 267 C 290 268 312 261 322 249 L 312 182 L 477 182 C 491 182 501 177 503 166 C 474 138 428 101 428 101 L 388 153 L 308 153 L 297 79 C 318 74 325 64 327 52 L 233 44 L 248 153 L 57 153 Z M 424 223 L 414 231 C 439 252 468 291 475 324 C 538 368 595 247 424 223 Z M 824 609 L 776 668 L 508 668 C 515 639 520 607 523 573 C 545 571 556 560 558 547 L 457 536 C 455 585 451 629 440 668 L 82 668 L 91 698 L 431 698 C 393 801 298 874 50 937 L 58 957 C 312 907 423 842 475 756 C 601 799 783 886 863 953 C 955 967 919 808 485 737 C 491 725 497 712 501 698 L 884 698 C 898 698 908 693 911 682 C 877 650 824 609 824 609 Z M 463 417 L 385 366 C 338 456 235 544 93 594 L 101 609 C 254 579 354 510 421 431 C 446 433 458 428 463 417 Z M 591 551 L 582 561 C 618 582 665 626 682 659 C 745 687 772 569 591 551 Z M 762 451 L 775 458 C 814 438 868 402 896 375 C 917 374 928 372 934 365 L 859 292 L 817 334 L 194 334 C 192 319 189 305 184 288 L 167 289 C 170 346 131 394 91 410 C 70 421 55 440 62 461 C 72 485 106 487 132 472 C 162 457 192 421 195 363 L 568 363 L 568 476 C 568 520 580 533 652 533 L 749 533 C 894 533 919 525 919 499 C 919 487 912 481 890 476 L 886 475 L 877 475 C 871 477 862 479 856 480 C 851 480 844 481 836 481 C 824 482 791 482 754 482 L 665 482 C 632 482 630 479 630 467 L 630 368 L 630 363 L 814 363 C 799 392 778 428 762 451 Z M 883 101 L 842 153 L 739 153 L 751 83 C 774 83 784 73 787 60 L 694 42 L 675 153 L 529 153 L 536 182 L 671 182 L 658 261 C 684 268 709 264 721 255 L 734 182 L 931 182 C 945 182 955 177 958 166 C 929 138 883 101 883 101 Z" fill="blue" /><path transform="translate(1000)" d="M 58 182 L 321 182 L 321 275 L 331 275 C 356 275 382 265 382 257 L 382 182 L 621 182 L 621 272 L 632 272 C 663 271 684 259 684 253 L 684 182 L 931 182 C 945 182 955 177 957 166 C 927 136 873 94 873 94 L 826 152 L 684 152 L 684 80 C 709 77 718 67 720 53 L 621 43 L 621 152 L 382 152 L 382 80 C 407 77 416 67 418 53 L 321 43 L 321 152 L 52 152 L 58 182 Z M 424 207 L 414 215 C 439 236 468 275 475 308 C 538 352 595 231 424 207 Z M 463 405 L 385 354 C 338 444 235 532 93 582 L 101 597 C 254 567 354 498 421 419 C 446 421 458 416 463 405 Z M 762 443 L 775 450 C 814 430 868 394 896 367 C 917 366 928 364 934 357 L 859 284 L 817 326 L 194 326 C 192 311 189 297 184 280 L 167 281 C 170 338 131 386 91 402 C 70 413 55 432 62 453 C 72 477 106 479 132 464 C 162 449 192 413 195 355 L 568 355 L 568 468 C 568 504 580 517 652 517 L 749 517 C 894 517 919 509 919 483 C 919 471 912 465 890 460 L 886 459 L 877 459 C 871 461 862 463 856 464 C 851 464 844 465 836 465 C 824 466 791 466 754 466 L 665 466 C 632 466 630 463 630 451 L 630 360 L 630 355 L 814 355 C 799 384 778 420 762 443 Z M 596 550 L 588 563 C 636 578 698 615 722 649 C 793 670 801 537 596 550 Z M 550 681 L 938 681 C 953 681 962 676 965 666 C 932 635 876 591 876 591 L 829 653 L 509 653 C 515 625 518 596 521 565 C 543 563 553 552 555 539 L 455 529 C 453 574 450 616 441 653 L 51 653 L 59 681 L 434 681 C 399 793 306 872 44 939 L 51 959 C 374 896 468 807 502 681 L 527 681 C 592 840 713 916 909 957 C 917 925 936 904 963 898 L 964 887 C 769 865 623 807 550 681 Z" fill="red" /><path transform="translate(2000)" d="M 57 153 L 65 182 L 252 182 L 263 267 C 290 268 312 261 322 249 L 312 182 L 477 182 C 491 182 501 177 503 166 C 474 138 428 101 428 101 L 388 153 L 308 153 L 297 79 C 318 74 325 64 327 52 L 233 44 L 248 153 L 57 153 Z M 424 223 L 414 231 C 439 252 468 291 475 324 C 538 368 595 247 424 223 Z M 824 609 L 776 668 L 508 668 C 515 639 520 607 523 573 C 545 571 556 560 558 547 L 457 536 C 455 585 451 629 440 668 L 82 668 L 91 698 L 431 698 C 393 801 298 874 50 937 L 58 957 C 312 907 423 842 475 756 C 601 799 783 886 863 953 C 955 967 919 808 485 737 C 491 725 497 712 501 698 L 884 698 C 898 698 908 693 911 682 C 877 650 824 609 824 609 Z M 463 417 L 385 366 C 338 456 235 544 93 594 L 101 609 C 254 579 354 510 421 431 C 446 433 458 428 463 417 Z M 591 551 L 582 561 C 618 582 665 626 682 659 C 745 687 772 569 591 551 Z M 762 451 L 775 458 C 814 438 868 402 896 375 C 917 374 928 372 934 365 L 859 292 L 817 334 L 194 334 C 192 319 189 305 184 288 L 167 289 C 170 346 131 394 91 410 C 70 421 55 440 62 461 C 72 485 106 487 132 472 C 162 457 192 421 195 363 L 568 363 L 568 476 C 568 520 580 533 652 533 L 749 533 C 894 533 919 525 919 499 C 919 487 912 481 890 476 L 886 475 L 877 475 C 871 477 862 479 856 480 C 851 480 844 481 836 481 C 824 482 791 482 754 482 L 665 482 C 632 482 630 479 630 467 L 630 368 L 630 363 L 814 363 C 799 392 778 428 762 451 Z M 883 101 L 842 153 L 739 153 L 751 83 C 774 83 784 73 787 60 L 694 42 L 675 153 L 529 153 L 536 182 L 671 182 L 658 261 C 684 268 709 264 721 255 L 734 182 L 931 182 C 945 182 955 177 958 166 C 929 138 883 101 883 101 Z" fill="blue" fill-opacity="0.5" /><path transform="translate(2000)" d="M 58 182 L 321 182 L 321 275 L 331 275 C 356 275 382 265 382 257 L 382 182 L 621 182 L 621 272 L 632 272 C 663 271 684 259 684 253 L 684 182 L 931 182 C 945 182 955 177 957 166 C 927 136 873 94 873 94 L 826 152 L 684 152 L 684 80 C 709 77 718 67 720 53 L 621 43 L 621 152 L 382 152 L 382 80 C 407 77 416 67 418 53 L 321 43 L 321 152 L 52 152 L 58 182 Z M 424 207 L 414 215 C 439 236 468 275 475 308 C 538 352 595 231 424 207 Z M 463 405 L 385 354 C 338 444 235 532 93 582 L 101 597 C 254 567 354 498 421 419 C 446 421 458 416 463 405 Z M 762 443 L 775 450 C 814 430 868 394 896 367 C 917 366 928 364 934 357 L 859 284 L 817 326 L 194 326 C 192 311 189 297 184 280 L 167 281 C 170 338 131 386 91 402 C 70 413 55 432 62 453 C 72 477 106 479 132 464 C 162 449 192 413 195 355 L 568 355 L 568 468 C 568 504 580 517 652 517 L 749 517 C 894 517 919 509 919 483 C 919 471 912 465 890 460 L 886 459 L 877 459 C 871 461 862 463 856 464 C 851 464 844 465 836 465 C 824 466 791 466 754 466 L 665 466 C 632 466 630 463 630 451 L 630 360 L 630 355 L 814 355 C 799 384 778 420 762 443 Z M 596 550 L 588 563 C 636 578 698 615 722 649 C 793 670 801 537 596 550 Z M 550 681 L 938 681 C 953 681 962 676 965 666 C 932 635 876 591 876 591 L 829 653 L 509 653 C 515 625 518 596 521 565 C 543 563 553 552 555 539 L 455 529 C 453 574 450 616 441 653 L 51 653 L 59 681 L 434 681 C 399 793 306 872 44 939 L 51 959 C 374 896 468 807 502 681 L 527 681 C 592 840 713 916 909 957 C 917 925 936 904 963 898 L 964 887 C 769 865 623 807 550 681 Z" fill="red" fill-opacity="0.5" /><text text-anchor="middle" x="500" y="1064" font-family="Arial" font-size="64">Source Han Serif TW</text><text text-anchor="middle" x="1500" y="1064" font-family="Arial" font-size="64">HKSerif (uni8456HK-regular)</text></svg>