<svg width="3000" height="1080" xmlns="http://www.w3.org/2000/svg" style="background:#fff"><path d="M 254 164 L 266 250 C 294 251 317 244 325 232 L 315 164 L 472 164 C 486 164 495 159 497 148 C 469 119 423 82 423 82 L 382 134 L 311 134 L 304 80 C 324 74 331 64 332 52 L 238 44 L 250 134 L 52 134 L 59 164 L 254 164 Z M 769 307 L 706 251 L 674 283 L 377 283 L 386 313 L 678 313 L 655 434 L 295 434 L 303 464 L 873 464 C 887 464 897 459 899 448 C 870 419 823 380 823 380 L 781 434 L 717 434 L 738 318 C 754 316 763 314 769 307 Z M 271 469 L 226 452 C 255 407 281 358 305 308 C 327 310 339 301 344 290 L 249 256 C 203 395 130 535 62 622 L 76 632 C 111 602 144 564 177 521 L 177 958 L 188 958 C 212 958 239 942 240 936 L 240 487 C 258 484 268 478 271 469 Z M 628 767 L 619 779 C 697 816 804 888 844 948 C 923 979 931 820 628 767 Z M 831 649 L 786 706 L 607 706 C 616 671 620 631 622 590 L 797 590 C 810 590 820 585 823 574 C 790 544 743 507 743 507 L 700 560 L 439 560 C 447 547 455 534 463 521 C 483 522 495 514 499 503 L 410 471 C 383 551 344 629 306 679 L 320 689 C 354 665 387 629 418 590 L 553 590 C 552 631 549 670 541 706 L 283 706 L 291 735 L 532 735 C 503 818 432 886 257 942 L 269 959 C 481 905 564 831 598 735 L 889 735 C 902 735 912 730 914 719 C 883 689 831 649 831 649 Z M 881 82 L 841 134 L 736 134 L 745 87 C 768 88 778 77 781 64 L 688 45 L 673 134 L 523 134 L 531 164 L 668 164 L 655 248 C 680 254 705 252 717 242 L 731 164 L 930 164 C 944 164 953 159 956 148 C 928 119 881 82 881 82 Z" fill="blue" /><path transform="translate(1000)" d="M 65 173 L 316 173 L 316 254 L 326 254 C 352 254 379 245 379 237 L 379 173 L 613 173 L 613 250 L 624 250 C 656 249 677 239 677 232 L 677 173 L 929 173 C 943 173 953 168 955 157 C 924 126 871 86 871 86 L 824 143 L 677 143 L 677 78 C 702 75 710 65 712 51 L 613 41 L 613 143 L 379 143 L 379 78 C 404 75 413 65 415 52 L 316 41 L 316 143 L 58 143 L 65 173 Z M 769 307 L 706 251 L 674 283 L 377 283 L 386 313 L 678 313 L 655 434 L 295 434 L 303 464 L 873 464 C 887 464 897 459 899 448 C 870 419 823 380 823 380 L 781 434 L 717 434 L 738 318 C 754 316 763 314 769 307 Z M 271 469 L 226 452 C 255 407 281 358 305 308 C 327 310 339 301 344 290 L 249 256 C 203 395 130 535 62 622 L 76 632 C 111 602 144 564 177 521 L 177 958 L 188 958 C 212 958 239 942 240 936 L 240 487 C 258 484 268 478 271 469 Z M 831 649 L 786 706 L 607 706 C 616 671 620 631 622 590 L 797 590 C 810 590 820 585 823 574 C 790 544 743 507 743 507 L 700 560 L 439 560 C 447 547 455 534 463 521 C 483 522 495 514 499 503 L 410 471 C 383 551 344 629 306 679 L 320 689 C 354 665 387 629 418 590 L 553 590 C 552 631 549 670 541 706 L 283 706 L 291 735 L 532 735 C 503 818 432 886 257 942 L 269 959 C 481 905 564 831 598 735 L 889 735 C 902 735 912 730 914 719 C 883 689 831 649 831 649 Z M 637 735 L 613 735 C 642 818 706 910 880 957 C 884 919 905 908 939 901 L 940 889 C 760 857 675 799 637 735 Z" fill="red" /><path transform="translate(2000)" d="M 254 164 L 266 250 C 294 251 317 244 325 232 L 315 164 L 472 164 C 486 164 495 159 497 148 C 469 119 423 82 423 82 L 382 134 L 311 134 L 304 80 C 324 74 331 64 332 52 L 238 44 L 250 134 L 52 134 L 59 164 L 254 164 Z M 769 307 L 706 251 L 674 283 L 377 283 L 386 313 L 678 313 L 655 434 L 295 434 L 303 464 L 873 464 C 887 464 897 459 899 448 C 870 419 823 380 823 380 L 781 434 L 717 434 L 738 318 C 754 316 763 314 769 307 Z M 271 469 L 226 452 C 255 407 281 358 305 308 C 327 310 339 301 344 290 L 249 256 C 203 395 130 535 62 622 L 76 632 C 111 602 144 564 177 521 L 177 958 L 188 958 C 212 958 239 942 240 936 L 240 487 C 258 484 268 478 271 469 Z M 628 767 L 619 779 C 697 816 804 888 844 948 C 923 979 931 820 628 767 Z M 831 649 L 786 706 L 607 706 C 616 671 620 631 622 590 L 797 590 C 810 590 820 585 823 574 C 790 544 743 507 743 507 L 700 560 L 439 560 C 447 547 455 534 463 521 C 483 522 495 514 499 503 L 410 471 C 383 551 344 629 306 679 L 320 689 C 354 665 387 629 418 590 L 553 590 C 552 631 549 670 541 706 L 283 706 L 291 735 L 532 735 C 503 818 432 886 257 942 L 269 959 C 481 905 564 831 598 735 L 889 735 C 902 735 912 730 914 719 C 883 689 831 649 831 649 Z M 881 82 L 841 134 L 736 134 L 745 87 C 768 88 778 77 781 64 L 688 45 L 673 134 L 523 134 L 531 164 L 668 164 L 655 248 C 680 254 705 252 717 242 L 731 164 L 930 164 C 944 164 953 159 956 148 C 928 119 881 82 881 82 Z" fill="blue" fill-opacity="0.5" /><path transform="translate(2000)" d="M 65 173 L 316 173 L 316 254 L 326 254 C 352 254 379 245 379 237 L 379 173 L 613 173 L 613 250 L 624 250 C 656 249 677 239 677 232 L 677 173 L 929 173 C 943 173 953 168 955 157 C 924 126 871 86 871 86 L 824 143 L 677 143 L 677 78 C 702 75 710 65 712 51 L 613 41 L 613 143 L 379 143 L 379 78 C 404 75 413 65 415 52 L 316 41 L 316 143 L 58 143 L 65 173 Z M 769 307 L 706 251 L 674 283 L 377 283 L 386 313 L 678 313 L 655 434 L 295 434 L 303 464 L 873 464 C 887 464 897 459 899 448 C 870 419 823 380 823 380 L 781 434 L 717 434 L 738 318 C 754 316 763 314 769 307 Z M 271 469 L 226 452 C 255 407 281 358 305 308 C 327 310 339 301 344 290 L 249 256 C 203 395 130 535 62 622 L 76 632 C 111 602 144 564 177 521 L 177 958 L 188 958 C 212 958 239 942 240 936 L 240 487 C 258 484 268 478 271 469 Z M 831 649 L 786 706 L 607 706 C 616 671 620 631 622 590 L 797 590 C 810 590 820 585 823 574 C 790 544 743 507 743 507 L 700 560 L 439 560 C 447 547 455 534 463 521 C 483 522 495 514 499 503 L 410 471 C 383 551 344 629 306 679 L 320 689 C 354 665 387 629 418 590 L 553 590 C 552 631 549 670 541 706 L 283 706 L 291 735 L 532 735 C 503 818 432 886 257 942 L 269 959 C 481 905 564 831 598 735 L 889 735 C 902 735 912 730 914 719 C 883 689 831 649 831 649 Z M 637 735 L 613 735 C 642 818 706 910 880 957 C 884 919 905 908 939 901 L 940 889 C 760 857 675 799 637 735 Z" fill="red" fill-opacity="0.5" /><text text-anchor="middle" x="500" y="1064" font-family="Arial" font-size="64">Source Han Serif TW</text><text text-anchor="middle" x="1500" y="1064" font-family="Arial" font-size="64">HKSerif (uni8454HK-regular)</text></svg>