<svg width="3000" height="1080" xmlns="http://www.w3.org/2000/svg" style="background:#fff"><path d="M 260 177 L 274 282 C 302 281 325 275 334 262 L 321 177 L 472 177 C 485 177 496 172 498 161 C 468 131 420 93 420 93 L 377 147 L 317 147 L 307 77 C 327 71 335 62 336 50 L 242 42 L 256 147 L 52 147 L 60 177 L 260 177 Z M 190 297 L 182 307 C 240 336 322 390 356 433 C 430 458 440 320 190 297 Z M 260 619 L 260 593 C 422 611 567 648 636 678 C 704 687 713 560 260 570 L 260 486 L 744 486 L 744 691 C 554 724 355 751 246 760 C 258 712 260 662 260 619 Z M 768 416 L 734 456 L 533 456 L 533 273 C 555 269 564 260 565 247 L 469 237 L 469 456 L 272 456 L 195 423 L 195 620 C 195 734 185 853 96 947 L 107 959 C 184 909 224 844 242 777 L 270 844 C 280 842 290 833 295 821 C 478 789 623 750 744 713 L 744 858 C 744 874 739 881 717 881 C 691 881 563 872 563 872 L 563 888 C 617 893 648 903 666 914 C 683 922 690 939 693 959 C 796 949 809 916 809 865 L 809 498 C 829 495 846 486 851 479 L 768 416 Z M 837 329 L 755 279 C 723 320 659 382 604 421 L 616 433 C 683 408 758 368 800 336 C 821 342 829 338 837 329 Z M 874 93 L 832 147 L 732 147 L 744 83 C 768 83 777 73 781 61 L 688 40 L 670 147 L 524 147 L 532 177 L 665 177 L 649 275 C 676 282 700 279 711 269 L 727 177 L 927 177 C 940 177 949 172 952 161 C 923 131 874 93 874 93 Z" fill="blue" /><path transform="translate(1000)" d="M 209 294 L 200 305 C 249 331 313 383 338 424 C 406 452 428 323 209 294 Z M 731 732 L 267 732 L 267 626 L 731 626 L 731 732 Z M 267 490 L 731 490 L 731 596 L 267 596 L 267 490 Z M 755 420 L 721 460 L 532 460 L 532 278 C 555 274 563 265 565 252 L 468 242 L 468 460 L 273 460 L 203 428 L 203 963 L 213 963 C 241 963 267 948 267 940 L 267 761 L 731 761 L 731 859 C 731 874 726 880 706 880 C 683 880 574 873 574 873 L 574 889 C 622 894 649 903 665 914 C 679 923 686 939 689 959 C 784 949 796 917 796 866 L 796 502 C 816 499 833 490 838 483 L 755 420 Z M 806 326 L 723 277 C 698 317 645 378 600 419 L 613 430 C 670 404 733 364 769 334 C 791 339 799 336 806 326 Z M 873 99 L 826 158 L 684 158 L 684 80 C 709 77 718 67 720 53 L 621 43 L 621 158 L 382 158 L 382 80 C 407 77 416 67 418 53 L 321 43 L 321 158 L 52 158 L 58 187 L 321 187 L 321 288 L 331 288 C 355 288 382 278 382 270 L 382 187 L 621 187 L 621 285 L 632 285 C 663 284 684 272 684 266 L 684 187 L 931 187 C 945 187 955 182 957 171 C 927 142 873 99 873 99 Z" fill="red" /><path transform="translate(2000)" d="M 260 177 L 274 282 C 302 281 325 275 334 262 L 321 177 L 472 177 C 485 177 496 172 498 161 C 468 131 420 93 420 93 L 377 147 L 317 147 L 307 77 C 327 71 335 62 336 50 L 242 42 L 256 147 L 52 147 L 60 177 L 260 177 Z M 190 297 L 182 307 C 240 336 322 390 356 433 C 430 458 440 320 190 297 Z M 260 619 L 260 593 C 422 611 567 648 636 678 C 704 687 713 560 260 570 L 260 486 L 744 486 L 744 691 C 554 724 355 751 246 760 C 258 712 260 662 260 619 Z M 768 416 L 734 456 L 533 456 L 533 273 C 555 269 564 260 565 247 L 469 237 L 469 456 L 272 456 L 195 423 L 195 620 C 195 734 185 853 96 947 L 107 959 C 184 909 224 844 242 777 L 270 844 C 280 842 290 833 295 821 C 478 789 623 750 744 713 L 744 858 C 744 874 739 881 717 881 C 691 881 563 872 563 872 L 563 888 C 617 893 648 903 666 914 C 683 922 690 939 693 959 C 796 949 809 916 809 865 L 809 498 C 829 495 846 486 851 479 L 768 416 Z M 837 329 L 755 279 C 723 320 659 382 604 421 L 616 433 C 683 408 758 368 800 336 C 821 342 829 338 837 329 Z M 874 93 L 832 147 L 732 147 L 744 83 C 768 83 777 73 781 61 L 688 40 L 670 147 L 524 147 L 532 177 L 665 177 L 649 275 C 676 282 700 279 711 269 L 727 177 L 927 177 C 940 177 949 172 952 161 C 923 131 874 93 874 93 Z" fill="blue" fill-opacity="0.5" /><path transform="translate(2000)" d="M 209 294 L 200 305 C 249 331 313 383 338 424 C 406 452 428 323 209 294 Z M 731 732 L 267 732 L 267 626 L 731 626 L 731 732 Z M 267 490 L 731 490 L 731 596 L 267 596 L 267 490 Z M 755 420 L 721 460 L 532 460 L 532 278 C 555 274 563 265 565 252 L 468 242 L 468 460 L 273 460 L 203 428 L 203 963 L 213 963 C 241 963 267 948 267 940 L 267 761 L 731 761 L 731 859 C 731 874 726 880 706 880 C 683 880 574 873 574 873 L 574 889 C 622 894 649 903 665 914 C 679 923 686 939 689 959 C 784 949 796 917 796 866 L 796 502 C 816 499 833 490 838 483 L 755 420 Z M 806 326 L 723 277 C 698 317 645 378 600 419 L 613 430 C 670 404 733 364 769 334 C 791 339 799 336 806 326 Z M 873 99 L 826 158 L 684 158 L 684 80 C 709 77 718 67 720 53 L 621 43 L 621 158 L 382 158 L 382 80 C 407 77 416 67 418 53 L 321 43 L 321 158 L 52 158 L 58 187 L 321 187 L 321 288 L 331 288 C 355 288 382 278 382 270 L 382 187 L 621 187 L 621 285 L 632 285 C 663 284 684 272 684 266 L 684 187 L 931 187 C 945 187 955 182 957 171 C 927 142 873 99 873 99 Z" fill="red" fill-opacity="0.5" /><text text-anchor="middle" x="500" y="1064" font-family="Arial" font-size="64">Source Han Serif TW</text><text text-anchor="middle" x="1500" y="1064" font-family="Arial" font-size="64">HKSerif (uni83A6HK-regular)</text></svg>