<svg width="3000" height="1080" xmlns="http://www.w3.org/2000/svg" style="background:#fff"><path d="M 117 56 L 106 63 C 137 95 177 151 191 192 C 257 236 309 109 117 56 Z M 313 182 L 273 232 L 35 232 L 43 262 L 362 262 C 376 262 385 257 388 246 C 359 218 313 182 313 182 Z M 283 313 L 246 358 L 73 358 L 81 388 L 326 388 C 339 388 348 383 351 372 C 325 346 283 313 283 313 Z M 283 440 L 246 485 L 73 485 L 81 515 L 326 515 C 339 515 348 510 351 499 C 325 473 283 440 283 440 Z M 255 843 L 131 843 L 131 641 L 255 641 L 255 843 Z M 315 892 L 315 652 C 335 648 350 641 356 633 L 280 574 L 246 612 L 135 612 L 71 582 L 71 950 L 80 950 C 105 950 131 936 131 929 L 131 873 L 255 873 L 255 913 L 265 913 C 285 913 314 898 315 892 Z M 550 617 L 550 413 L 615 413 L 615 617 L 550 617 Z M 660 413 L 722 413 L 722 617 L 660 617 L 660 413 Z M 729 706 L 716 711 C 730 737 746 768 757 802 L 665 811 L 665 647 L 722 647 L 722 676 L 730 676 C 747 676 771 664 772 657 L 772 421 C 789 418 806 410 812 403 L 743 351 L 713 383 L 665 383 L 665 265 L 785 265 C 799 265 808 260 811 249 C 784 222 741 187 741 187 L 703 236 L 477 236 L 485 265 L 611 265 L 611 383 L 556 383 L 502 358 L 502 709 L 510 709 C 530 709 550 696 550 692 L 550 647 L 611 647 L 611 816 C 539 822 479 826 444 828 L 483 908 C 493 906 501 900 507 887 C 618 862 702 840 764 823 C 774 853 781 882 781 908 C 830 957 882 836 729 706 Z M 946 880 L 964 711 L 952 709 C 944 743 934 781 921 820 C 917 834 913 835 908 823 C 871 726 871 379 885 160 C 908 157 923 150 929 143 L 849 73 L 810 115 L 475 115 L 405 84 L 405 427 C 405 612 398 801 308 951 L 324 961 C 455 812 463 599 463 426 L 463 144 L 820 144 C 815 429 809 760 867 891 C 886 935 920 967 950 951 C 965 944 961 920 946 880 Z" fill="blue" /><path transform="translate(1000)" d="M 665 265 L 788 265 C 800 265 809 260 812 249 C 786 222 743 186 743 186 L 705 236 L 478 236 L 486 265 L 610 265 L 610 820 L 665 820 L 665 265 Z M 117 56 L 106 63 C 137 95 177 151 191 192 C 257 236 309 109 117 56 Z M 313 182 L 273 232 L 35 232 L 43 262 L 362 262 C 376 262 385 257 388 246 C 359 218 313 182 313 182 Z M 283 313 L 246 358 L 73 358 L 81 388 L 326 388 C 339 388 348 383 351 372 C 325 346 283 313 283 313 Z M 283 440 L 246 485 L 73 485 L 81 515 L 326 515 C 339 515 348 510 351 499 C 325 473 283 440 283 440 Z M 255 843 L 131 843 L 131 641 L 255 641 L 255 843 Z M 315 892 L 315 652 C 335 648 350 641 356 633 L 280 574 L 246 612 L 135 612 L 71 582 L 71 950 L 80 950 C 105 950 131 936 131 929 L 131 873 L 255 873 L 255 913 L 265 913 C 285 913 314 898 315 892 Z M 550 617 L 550 413 L 615 413 L 615 617 L 550 617 Z M 660 413 L 724 413 L 724 617 L 660 617 L 660 413 Z M 729 706 L 716 711 C 730 737 746 768 757 802 L 665 811 L 665 647 L 724 647 L 724 676 L 732 676 C 749 676 773 664 774 657 L 774 421 C 791 418 808 410 814 403 L 745 351 L 715 383 L 665 383 L 611 383 L 556 383 L 502 358 L 502 709 L 510 709 C 530 709 550 696 550 692 L 550 647 L 611 647 L 611 816 C 539 822 479 826 444 828 L 483 908 C 493 906 501 900 507 887 C 618 862 702 840 764 823 C 774 853 781 882 781 908 C 830 957 882 836 729 706 Z M 946 880 L 964 711 L 952 709 C 944 743 934 781 921 820 C 917 834 913 835 908 823 C 871 726 871 379 885 160 C 908 157 923 150 929 143 L 849 73 L 810 115 L 475 115 L 405 84 L 405 427 C 405 612 398 801 308 951 L 324 961 C 455 812 463 599 463 426 L 463 144 L 820 144 C 815 429 809 760 867 891 C 886 935 920 967 950 951 C 965 944 961 920 946 880 Z" fill="red" /><path transform="translate(2000)" d="M 117 56 L 106 63 C 137 95 177 151 191 192 C 257 236 309 109 117 56 Z M 313 182 L 273 232 L 35 232 L 43 262 L 362 262 C 376 262 385 257 388 246 C 359 218 313 182 313 182 Z M 283 313 L 246 358 L 73 358 L 81 388 L 326 388 C 339 388 348 383 351 372 C 325 346 283 313 283 313 Z M 283 440 L 246 485 L 73 485 L 81 515 L 326 515 C 339 515 348 510 351 499 C 325 473 283 440 283 440 Z M 255 843 L 131 843 L 131 641 L 255 641 L 255 843 Z M 315 892 L 315 652 C 335 648 350 641 356 633 L 280 574 L 246 612 L 135 612 L 71 582 L 71 950 L 80 950 C 105 950 131 936 131 929 L 131 873 L 255 873 L 255 913 L 265 913 C 285 913 314 898 315 892 Z M 550 617 L 550 413 L 615 413 L 615 617 L 550 617 Z M 660 413 L 722 413 L 722 617 L 660 617 L 660 413 Z M 729 706 L 716 711 C 730 737 746 768 757 802 L 665 811 L 665 647 L 722 647 L 722 676 L 730 676 C 747 676 771 664 772 657 L 772 421 C 789 418 806 410 812 403 L 743 351 L 713 383 L 665 383 L 665 265 L 785 265 C 799 265 808 260 811 249 C 784 222 741 187 741 187 L 703 236 L 477 236 L 485 265 L 611 265 L 611 383 L 556 383 L 502 358 L 502 709 L 510 709 C 530 709 550 696 550 692 L 550 647 L 611 647 L 611 816 C 539 822 479 826 444 828 L 483 908 C 493 906 501 900 507 887 C 618 862 702 840 764 823 C 774 853 781 882 781 908 C 830 957 882 836 729 706 Z M 946 880 L 964 711 L 952 709 C 944 743 934 781 921 820 C 917 834 913 835 908 823 C 871 726 871 379 885 160 C 908 157 923 150 929 143 L 849 73 L 810 115 L 475 115 L 405 84 L 405 427 C 405 612 398 801 308 951 L 324 961 C 455 812 463 599 463 426 L 463 144 L 820 144 C 815 429 809 760 867 891 C 886 935 920 967 950 951 C 965 944 961 920 946 880 Z" fill="blue" fill-opacity="0.5" /><path transform="translate(2000)" d="M 665 265 L 788 265 C 800 265 809 260 812 249 C 786 222 743 186 743 186 L 705 236 L 478 236 L 486 265 L 610 265 L 610 820 L 665 820 L 665 265 Z M 117 56 L 106 63 C 137 95 177 151 191 192 C 257 236 309 109 117 56 Z M 313 182 L 273 232 L 35 232 L 43 262 L 362 262 C 376 262 385 257 388 246 C 359 218 313 182 313 182 Z M 283 313 L 246 358 L 73 358 L 81 388 L 326 388 C 339 388 348 383 351 372 C 325 346 283 313 283 313 Z M 283 440 L 246 485 L 73 485 L 81 515 L 326 515 C 339 515 348 510 351 499 C 325 473 283 440 283 440 Z M 255 843 L 131 843 L 131 641 L 255 641 L 255 843 Z M 315 892 L 315 652 C 335 648 350 641 356 633 L 280 574 L 246 612 L 135 612 L 71 582 L 71 950 L 80 950 C 105 950 131 936 131 929 L 131 873 L 255 873 L 255 913 L 265 913 C 285 913 314 898 315 892 Z M 550 617 L 550 413 L 615 413 L 615 617 L 550 617 Z M 660 413 L 724 413 L 724 617 L 660 617 L 660 413 Z M 729 706 L 716 711 C 730 737 746 768 757 802 L 665 811 L 665 647 L 724 647 L 724 676 L 732 676 C 749 676 773 664 774 657 L 774 421 C 791 418 808 410 814 403 L 745 351 L 715 383 L 665 383 L 611 383 L 556 383 L 502 358 L 502 709 L 510 709 C 530 709 550 696 550 692 L 550 647 L 611 647 L 611 816 C 539 822 479 826 444 828 L 483 908 C 493 906 501 900 507 887 C 618 862 702 840 764 823 C 774 853 781 882 781 908 C 830 957 882 836 729 706 Z M 946 880 L 964 711 L 952 709 C 944 743 934 781 921 820 C 917 834 913 835 908 823 C 871 726 871 379 885 160 C 908 157 923 150 929 143 L 849 73 L 810 115 L 475 115 L 405 84 L 405 427 C 405 612 398 801 308 951 L 324 961 C 455 812 463 599 463 426 L 463 144 L 820 144 C 815 429 809 760 867 891 C 886 935 920 967 950 951 C 965 944 961 920 946 880 Z" fill="red" fill-opacity="0.5" /><text text-anchor="middle" x="500" y="1064" font-family="Arial" font-size="64">Source Han Serif TW</text><text text-anchor="middle" x="1500" y="1064" font-family="Arial" font-size="64">HKSerif (uni8AF7HK-regular)</text></svg>