<svg width="3000" height="1080" xmlns="http://www.w3.org/2000/svg" style="background:#fff"><path d="M 524 157 L 532 187 L 667 187 L 652 283 C 677 289 702 286 713 276 L 729 187 L 927 187 C 941 187 950 182 953 171 C 923 141 875 103 875 103 L 833 157 L 734 157 L 746 84 C 771 84 781 74 784 61 L 691 40 L 672 157 L 524 157 Z M 52 157 L 60 187 L 261 187 L 275 290 C 304 289 327 283 335 270 L 324 187 L 473 187 C 486 187 497 182 499 171 C 469 141 420 103 420 103 L 378 157 L 319 157 L 308 77 C 328 71 335 62 336 50 L 243 42 L 257 157 L 52 157 Z M 269 778 L 265 794 C 462 835 635 907 711 957 C 800 978 819 803 269 778 Z M 414 647 L 406 659 C 467 682 549 731 583 773 C 660 793 661 649 414 647 Z M 354 372 L 682 372 C 635 426 574 476 502 522 C 432 487 371 446 326 399 C 335 390 344 381 354 372 Z M 814 370 L 743 303 L 694 343 L 382 343 C 395 329 406 315 416 303 C 443 303 455 297 459 287 L 355 260 C 306 351 199 468 78 537 L 87 549 C 171 516 247 467 310 413 C 349 465 400 509 459 548 C 335 619 188 676 37 714 L 45 730 C 218 700 375 648 507 578 C 622 643 760 689 904 717 C 912 686 931 665 960 661 L 961 649 C 824 632 681 598 561 547 C 641 500 710 443 766 381 C 793 381 805 379 814 370 Z" fill="blue" /><path transform="translate(1000)" d="M 269 778 L 265 794 C 461 835 635 907 711 957 C 800 978 818 803 269 778 Z M 414 647 L 406 659 C 466 683 549 731 582 773 C 658 795 661 649 414 647 Z M 48 181 L 318 181 L 318 278 L 328 278 C 354 278 382 268 382 260 L 382 181 L 611 181 L 611 275 L 622 275 C 654 274 676 262 676 257 L 676 181 L 930 181 C 944 181 953 176 955 166 C 924 136 871 92 871 92 L 823 152 L 676 152 L 676 77 C 701 74 709 64 711 50 L 611 40 L 611 152 L 382 152 L 382 77 C 407 74 416 64 418 50 L 318 40 L 318 152 L 43 152 L 48 181 Z M 402 351 L 652 351 C 614 401 566 448 510 492 C 456 457 410 418 375 375 C 384 367 393 359 402 351 Z M 782 349 L 710 281 L 662 322 L 433 322 C 449 306 463 291 476 276 C 503 276 516 270 520 259 L 417 232 C 360 326 241 442 108 511 L 118 524 C 209 491 290 442 357 389 C 389 436 430 479 476 517 C 354 604 202 675 42 722 L 49 739 C 230 699 390 635 520 551 C 629 628 765 683 908 716 C 917 685 938 666 966 662 L 967 651 C 825 629 680 585 562 522 C 629 473 687 419 734 360 C 761 360 773 357 782 349 Z" fill="red" /><path transform="translate(2000)" d="M 524 157 L 532 187 L 667 187 L 652 283 C 677 289 702 286 713 276 L 729 187 L 927 187 C 941 187 950 182 953 171 C 923 141 875 103 875 103 L 833 157 L 734 157 L 746 84 C 771 84 781 74 784 61 L 691 40 L 672 157 L 524 157 Z M 52 157 L 60 187 L 261 187 L 275 290 C 304 289 327 283 335 270 L 324 187 L 473 187 C 486 187 497 182 499 171 C 469 141 420 103 420 103 L 378 157 L 319 157 L 308 77 C 328 71 335 62 336 50 L 243 42 L 257 157 L 52 157 Z M 269 778 L 265 794 C 462 835 635 907 711 957 C 800 978 819 803 269 778 Z M 414 647 L 406 659 C 467 682 549 731 583 773 C 660 793 661 649 414 647 Z M 354 372 L 682 372 C 635 426 574 476 502 522 C 432 487 371 446 326 399 C 335 390 344 381 354 372 Z M 814 370 L 743 303 L 694 343 L 382 343 C 395 329 406 315 416 303 C 443 303 455 297 459 287 L 355 260 C 306 351 199 468 78 537 L 87 549 C 171 516 247 467 310 413 C 349 465 400 509 459 548 C 335 619 188 676 37 714 L 45 730 C 218 700 375 648 507 578 C 622 643 760 689 904 717 C 912 686 931 665 960 661 L 961 649 C 824 632 681 598 561 547 C 641 500 710 443 766 381 C 793 381 805 379 814 370 Z" fill="blue" fill-opacity="0.5" /><path transform="translate(2000)" d="M 269 778 L 265 794 C 461 835 635 907 711 957 C 800 978 818 803 269 778 Z M 414 647 L 406 659 C 466 683 549 731 582 773 C 658 795 661 649 414 647 Z M 48 181 L 318 181 L 318 278 L 328 278 C 354 278 382 268 382 260 L 382 181 L 611 181 L 611 275 L 622 275 C 654 274 676 262 676 257 L 676 181 L 930 181 C 944 181 953 176 955 166 C 924 136 871 92 871 92 L 823 152 L 676 152 L 676 77 C 701 74 709 64 711 50 L 611 40 L 611 152 L 382 152 L 382 77 C 407 74 416 64 418 50 L 318 40 L 318 152 L 43 152 L 48 181 Z M 402 351 L 652 351 C 614 401 566 448 510 492 C 456 457 410 418 375 375 C 384 367 393 359 402 351 Z M 782 349 L 710 281 L 662 322 L 433 322 C 449 306 463 291 476 276 C 503 276 516 270 520 259 L 417 232 C 360 326 241 442 108 511 L 118 524 C 209 491 290 442 357 389 C 389 436 430 479 476 517 C 354 604 202 675 42 722 L 49 739 C 230 699 390 635 520 551 C 629 628 765 683 908 716 C 917 685 938 666 966 662 L 967 651 C 825 629 680 585 562 522 C 629 473 687 419 734 360 C 761 360 773 357 782 349 Z" fill="red" fill-opacity="0.5" /><text text-anchor="middle" x="500" y="1064" font-family="Arial" font-size="64">Source Han Serif TW</text><text text-anchor="middle" x="1500" y="1064" font-family="Arial" font-size="64">HKSerif (uni82F3HK-regular)</text></svg>