<svg width="3000" height="1080" xmlns="http://www.w3.org/2000/svg" style="background:#fff"><path d="M 53 145 L 61 175 L 268 175 L 276 235 C 304 234 327 228 336 215 L 330 175 L 471 175 C 485 175 495 170 497 159 C 468 130 421 92 421 92 L 379 145 L 326 145 L 316 78 C 336 72 343 62 345 51 L 251 43 L 264 145 L 53 145 Z M 356 277 L 254 235 C 217 355 138 522 46 633 L 56 646 C 99 610 138 567 175 522 L 175 958 L 184 958 C 220 958 237 944 239 940 L 239 495 C 262 492 274 486 277 477 L 221 458 C 263 399 298 339 320 287 C 340 290 351 288 356 277 Z M 750 762 L 419 762 C 422 742 424 724 425 706 L 750 706 L 750 762 Z M 425 619 L 750 619 L 750 676 L 425 676 L 425 619 Z M 772 551 L 740 590 L 437 590 L 363 558 L 363 679 C 363 767 358 864 288 948 L 300 961 C 368 914 399 852 414 792 L 750 792 L 750 867 C 750 881 745 887 728 887 C 707 887 614 880 614 880 L 614 895 C 656 900 679 909 694 918 C 706 927 710 942 713 960 C 801 952 812 922 812 873 L 812 632 C 833 629 850 620 855 612 L 772 551 Z M 840 452 L 796 503 L 616 503 L 616 432 L 824 432 C 837 432 846 427 849 416 C 821 390 778 359 778 359 L 738 403 L 616 403 L 616 338 L 842 338 C 855 338 864 333 867 322 C 838 295 790 261 790 261 L 750 309 L 616 309 L 616 270 C 636 267 643 259 645 247 L 552 237 L 552 309 L 336 309 L 344 338 L 552 338 L 552 403 L 365 403 L 373 432 L 552 432 L 552 503 L 290 503 L 298 532 L 894 532 C 908 532 917 527 920 516 C 889 488 840 452 840 452 Z M 876 92 L 835 145 L 738 145 L 749 85 C 773 84 782 75 785 62 L 692 42 L 675 145 L 525 145 L 533 175 L 670 175 L 661 227 C 687 234 711 231 724 221 L 732 175 L 927 175 C 940 175 950 170 952 159 C 924 130 876 92 876 92 Z" fill="blue" /><path transform="translate(1000)" d="M 53 168 L 302 168 L 302 243 L 312 243 C 338 243 365 235 365 227 L 365 168 L 633 168 L 633 239 L 644 239 C 676 238 697 228 697 222 L 697 168 L 932 168 C 946 168 956 163 958 152 C 927 121 874 81 874 81 L 827 138 L 697 138 L 697 77 C 723 74 731 64 733 50 L 633 40 L 633 138 L 365 138 L 365 77 C 390 74 399 64 401 50 L 302 40 L 302 138 L 46 138 L 53 168 Z M 358 277 L 254 235 C 219 357 139 528 46 643 L 57 656 C 107 611 155 558 196 503 L 196 958 L 205 958 C 240 958 258 943 259 938 L 259 478 C 282 475 294 469 297 460 L 239 441 C 274 387 303 335 323 288 C 342 290 353 288 358 277 Z M 752 762 L 473 762 L 473 706 L 752 706 L 752 762 Z M 752 676 L 473 676 L 473 619 L 752 619 L 752 676 Z M 742 589 L 478 589 L 411 560 L 411 959 L 421 959 C 446 959 473 945 473 939 L 473 792 L 752 792 L 752 867 C 752 880 747 886 730 886 C 709 886 616 880 616 880 L 616 895 C 658 900 682 909 696 918 C 709 927 714 942 716 960 C 804 951 815 921 815 873 L 815 632 C 835 628 852 619 857 612 L 775 551 L 742 589 Z M 814 503 L 640 503 L 640 432 L 849 432 C 863 432 873 427 875 416 C 847 390 803 359 803 359 L 764 403 L 640 403 L 640 338 L 865 338 C 879 338 888 333 889 322 C 860 295 814 261 814 261 L 772 309 L 640 309 L 640 270 C 659 267 667 259 669 247 L 576 237 L 576 309 L 354 309 L 362 338 L 576 338 L 576 403 L 380 403 L 388 432 L 576 432 L 576 503 L 303 503 L 311 532 L 911 532 C 925 532 935 527 937 516 C 905 488 856 452 856 452 L 814 503 Z" fill="red" /><path transform="translate(2000)" d="M 53 145 L 61 175 L 268 175 L 276 235 C 304 234 327 228 336 215 L 330 175 L 471 175 C 485 175 495 170 497 159 C 468 130 421 92 421 92 L 379 145 L 326 145 L 316 78 C 336 72 343 62 345 51 L 251 43 L 264 145 L 53 145 Z M 356 277 L 254 235 C 217 355 138 522 46 633 L 56 646 C 99 610 138 567 175 522 L 175 958 L 184 958 C 220 958 237 944 239 940 L 239 495 C 262 492 274 486 277 477 L 221 458 C 263 399 298 339 320 287 C 340 290 351 288 356 277 Z M 750 762 L 419 762 C 422 742 424 724 425 706 L 750 706 L 750 762 Z M 425 619 L 750 619 L 750 676 L 425 676 L 425 619 Z M 772 551 L 740 590 L 437 590 L 363 558 L 363 679 C 363 767 358 864 288 948 L 300 961 C 368 914 399 852 414 792 L 750 792 L 750 867 C 750 881 745 887 728 887 C 707 887 614 880 614 880 L 614 895 C 656 900 679 909 694 918 C 706 927 710 942 713 960 C 801 952 812 922 812 873 L 812 632 C 833 629 850 620 855 612 L 772 551 Z M 840 452 L 796 503 L 616 503 L 616 432 L 824 432 C 837 432 846 427 849 416 C 821 390 778 359 778 359 L 738 403 L 616 403 L 616 338 L 842 338 C 855 338 864 333 867 322 C 838 295 790 261 790 261 L 750 309 L 616 309 L 616 270 C 636 267 643 259 645 247 L 552 237 L 552 309 L 336 309 L 344 338 L 552 338 L 552 403 L 365 403 L 373 432 L 552 432 L 552 503 L 290 503 L 298 532 L 894 532 C 908 532 917 527 920 516 C 889 488 840 452 840 452 Z M 876 92 L 835 145 L 738 145 L 749 85 C 773 84 782 75 785 62 L 692 42 L 675 145 L 525 145 L 533 175 L 670 175 L 661 227 C 687 234 711 231 724 221 L 732 175 L 927 175 C 940 175 950 170 952 159 C 924 130 876 92 876 92 Z" fill="blue" fill-opacity="0.5" /><path transform="translate(2000)" d="M 53 168 L 302 168 L 302 243 L 312 243 C 338 243 365 235 365 227 L 365 168 L 633 168 L 633 239 L 644 239 C 676 238 697 228 697 222 L 697 168 L 932 168 C 946 168 956 163 958 152 C 927 121 874 81 874 81 L 827 138 L 697 138 L 697 77 C 723 74 731 64 733 50 L 633 40 L 633 138 L 365 138 L 365 77 C 390 74 399 64 401 50 L 302 40 L 302 138 L 46 138 L 53 168 Z M 358 277 L 254 235 C 219 357 139 528 46 643 L 57 656 C 107 611 155 558 196 503 L 196 958 L 205 958 C 240 958 258 943 259 938 L 259 478 C 282 475 294 469 297 460 L 239 441 C 274 387 303 335 323 288 C 342 290 353 288 358 277 Z M 752 762 L 473 762 L 473 706 L 752 706 L 752 762 Z M 752 676 L 473 676 L 473 619 L 752 619 L 752 676 Z M 742 589 L 478 589 L 411 560 L 411 959 L 421 959 C 446 959 473 945 473 939 L 473 792 L 752 792 L 752 867 C 752 880 747 886 730 886 C 709 886 616 880 616 880 L 616 895 C 658 900 682 909 696 918 C 709 927 714 942 716 960 C 804 951 815 921 815 873 L 815 632 C 835 628 852 619 857 612 L 775 551 L 742 589 Z M 814 503 L 640 503 L 640 432 L 849 432 C 863 432 873 427 875 416 C 847 390 803 359 803 359 L 764 403 L 640 403 L 640 338 L 865 338 C 879 338 888 333 889 322 C 860 295 814 261 814 261 L 772 309 L 640 309 L 640 270 C 659 267 667 259 669 247 L 576 237 L 576 309 L 354 309 L 362 338 L 576 338 L 576 403 L 380 403 L 388 432 L 576 432 L 576 503 L 303 503 L 311 532 L 911 532 C 925 532 935 527 937 516 C 905 488 856 452 856 452 L 814 503 Z" fill="red" fill-opacity="0.5" /><text text-anchor="middle" x="500" y="1064" font-family="Arial" font-size="64">Source Han Serif TW</text><text text-anchor="middle" x="1500" y="1064" font-family="Arial" font-size="64">HKSerif (uni84A8HK-regular)</text></svg>