<svg width="3000" height="1080" xmlns="http://www.w3.org/2000/svg" style="background:#fff"><path d="M 241 712 L 241 479 L 366 479 C 380 479 390 474 392 463 C 363 434 315 392 315 392 L 273 449 L 241 449 L 241 312 C 267 308 275 299 278 284 L 179 274 L 179 449 L 48 449 L 55 479 L 179 479 L 179 728 C 121 742 71 753 43 758 L 83 843 C 93 840 102 831 105 819 C 234 765 330 721 396 688 L 392 673 C 340 687 288 700 241 712 Z M 697 637 L 654 691 L 453 691 L 461 720 L 750 720 C 764 720 773 715 776 704 C 745 675 697 637 697 637 Z M 693 486 L 650 540 L 471 540 L 479 569 L 746 569 C 759 569 769 564 772 553 C 741 525 693 486 693 486 Z M 874 360 L 836 401 L 536 401 C 549 373 560 346 569 318 C 590 318 602 309 606 297 L 503 269 C 475 403 415 539 342 618 L 356 628 C 422 581 478 509 521 431 L 846 431 C 838 663 823 843 792 872 C 782 882 773 885 753 885 C 730 885 648 877 600 873 L 599 890 C 642 897 691 907 708 918 C 723 927 727 941 727 959 C 773 959 812 950 839 922 C 883 875 902 695 910 439 C 931 437 943 431 950 424 L 874 360 Z M 871 84 L 823 143 L 690 143 L 690 76 C 715 73 724 63 726 49 L 625 39 L 625 143 L 367 143 L 367 76 C 392 73 401 63 403 49 L 303 39 L 303 143 L 43 143 L 50 172 L 303 172 L 303 257 L 313 257 C 339 257 367 247 367 239 L 367 172 L 625 172 L 625 253 L 636 253 C 668 252 690 242 690 234 L 690 172 L 930 172 C 944 172 953 167 955 156 C 924 126 871 84 871 84 Z" fill="blue" /><path transform="translate(1000)" d="M 241 752 L 241 501 L 359 501 C 372 501 382 496 385 485 C 355 455 308 414 308 414 L 266 471 L 241 471 L 241 326 C 267 322 276 313 278 298 L 179 288 L 179 471 L 57 471 L 65 501 L 179 501 L 179 768 C 125 781 79 792 53 797 L 95 881 C 105 878 113 869 116 857 C 238 803 328 760 391 728 L 386 713 C 337 727 286 740 241 752 Z M 789 660 L 785 645 C 629 691 474 734 408 748 L 459 829 C 469 826 477 817 480 805 C 619 744 719 694 789 660 Z M 693 486 L 650 540 L 471 540 L 479 569 L 746 569 C 759 569 769 564 772 553 C 741 525 693 486 693 486 Z M 860 360 L 822 401 L 536 401 C 549 373 559 346 569 318 C 590 318 602 309 606 297 L 503 268 C 475 403 415 540 343 618 L 356 628 C 422 581 478 509 521 431 L 832 431 C 824 664 809 843 778 872 C 767 882 759 885 738 885 C 717 885 634 877 586 873 L 585 890 C 628 897 677 907 694 918 C 708 927 713 941 713 959 C 759 959 798 950 825 922 C 869 875 888 695 895 439 C 917 437 929 431 936 424 L 860 360 Z M 875 104 L 828 163 L 683 163 L 683 84 C 708 81 717 71 718 57 L 620 47 L 620 163 L 377 163 L 377 84 C 402 81 411 71 413 57 L 315 47 L 315 163 L 42 163 L 48 193 L 315 193 L 315 294 L 325 294 C 349 294 377 284 377 276 L 377 193 L 620 193 L 620 291 L 631 291 C 661 290 683 278 683 271 L 683 193 L 934 193 C 947 193 957 188 959 177 C 929 147 875 104 875 104 Z" fill="red" /><path transform="translate(2000)" d="M 241 712 L 241 479 L 366 479 C 380 479 390 474 392 463 C 363 434 315 392 315 392 L 273 449 L 241 449 L 241 312 C 267 308 275 299 278 284 L 179 274 L 179 449 L 48 449 L 55 479 L 179 479 L 179 728 C 121 742 71 753 43 758 L 83 843 C 93 840 102 831 105 819 C 234 765 330 721 396 688 L 392 673 C 340 687 288 700 241 712 Z M 697 637 L 654 691 L 453 691 L 461 720 L 750 720 C 764 720 773 715 776 704 C 745 675 697 637 697 637 Z M 693 486 L 650 540 L 471 540 L 479 569 L 746 569 C 759 569 769 564 772 553 C 741 525 693 486 693 486 Z M 874 360 L 836 401 L 536 401 C 549 373 560 346 569 318 C 590 318 602 309 606 297 L 503 269 C 475 403 415 539 342 618 L 356 628 C 422 581 478 509 521 431 L 846 431 C 838 663 823 843 792 872 C 782 882 773 885 753 885 C 730 885 648 877 600 873 L 599 890 C 642 897 691 907 708 918 C 723 927 727 941 727 959 C 773 959 812 950 839 922 C 883 875 902 695 910 439 C 931 437 943 431 950 424 L 874 360 Z M 871 84 L 823 143 L 690 143 L 690 76 C 715 73 724 63 726 49 L 625 39 L 625 143 L 367 143 L 367 76 C 392 73 401 63 403 49 L 303 39 L 303 143 L 43 143 L 50 172 L 303 172 L 303 257 L 313 257 C 339 257 367 247 367 239 L 367 172 L 625 172 L 625 253 L 636 253 C 668 252 690 242 690 234 L 690 172 L 930 172 C 944 172 953 167 955 156 C 924 126 871 84 871 84 Z" fill="blue" fill-opacity="0.5" /><path transform="translate(2000)" d="M 241 752 L 241 501 L 359 501 C 372 501 382 496 385 485 C 355 455 308 414 308 414 L 266 471 L 241 471 L 241 326 C 267 322 276 313 278 298 L 179 288 L 179 471 L 57 471 L 65 501 L 179 501 L 179 768 C 125 781 79 792 53 797 L 95 881 C 105 878 113 869 116 857 C 238 803 328 760 391 728 L 386 713 C 337 727 286 740 241 752 Z M 789 660 L 785 645 C 629 691 474 734 408 748 L 459 829 C 469 826 477 817 480 805 C 619 744 719 694 789 660 Z M 693 486 L 650 540 L 471 540 L 479 569 L 746 569 C 759 569 769 564 772 553 C 741 525 693 486 693 486 Z M 860 360 L 822 401 L 536 401 C 549 373 559 346 569 318 C 590 318 602 309 606 297 L 503 268 C 475 403 415 540 343 618 L 356 628 C 422 581 478 509 521 431 L 832 431 C 824 664 809 843 778 872 C 767 882 759 885 738 885 C 717 885 634 877 586 873 L 585 890 C 628 897 677 907 694 918 C 708 927 713 941 713 959 C 759 959 798 950 825 922 C 869 875 888 695 895 439 C 917 437 929 431 936 424 L 860 360 Z M 875 104 L 828 163 L 683 163 L 683 84 C 708 81 717 71 718 57 L 620 47 L 620 163 L 377 163 L 377 84 C 402 81 411 71 413 57 L 315 47 L 315 163 L 42 163 L 48 193 L 315 193 L 315 294 L 325 294 C 349 294 377 284 377 276 L 377 193 L 620 193 L 620 291 L 631 291 C 661 290 683 278 683 271 L 683 193 L 934 193 C 947 193 957 188 959 177 C 929 147 875 104 875 104 Z" fill="red" fill-opacity="0.5" /><text text-anchor="middle" x="500" y="1064" font-family="Arial" font-size="64">Source Han Serif KR</text><text text-anchor="middle" x="1500" y="1064" font-family="Arial" font-size="64">HKSerif (uni837AKX-regular)</text></svg>