<svg width="3000" height="1080" xmlns="http://www.w3.org/2000/svg" style="background:#fff"><path d="M 149 763 L 131 763 C 134 812 109 871 84 893 C 65 907 55 928 66 946 C 79 966 112 960 128 942 C 153 913 171 849 149 763 Z M 341 302 L 254 256 C 226 317 156 433 97 479 C 91 483 74 487 74 487 L 106 569 C 115 566 124 559 131 547 C 172 538 213 528 247 520 C 203 575 152 631 107 664 C 99 668 82 671 82 671 L 112 755 C 120 752 129 745 137 732 C 219 709 298 683 352 665 C 358 686 362 707 362 725 C 410 773 468 663 322 556 L 308 561 C 321 584 335 614 345 644 C 272 655 203 664 152 670 C 240 604 335 509 387 444 C 406 448 419 443 424 434 L 344 378 C 328 408 302 446 272 486 C 224 487 177 487 139 487 C 201 437 266 366 304 315 C 324 318 336 310 341 302 Z M 242 743 L 226 747 C 237 789 241 857 230 907 C 270 964 345 863 242 743 Z M 336 723 L 324 729 C 346 771 371 838 368 889 C 417 940 479 827 336 723 Z M 840 357 L 808 395 L 702 395 C 703 370 704 346 705 321 C 727 318 734 308 736 296 L 646 287 C 646 324 645 359 644 395 L 510 395 L 444 364 L 444 955 L 455 955 C 481 955 505 940 505 933 L 505 425 L 643 425 C 635 547 610 660 515 750 L 528 765 C 606 712 649 646 672 575 C 712 624 747 686 752 737 C 806 785 854 657 681 548 C 692 508 697 466 700 425 L 817 425 L 817 865 C 817 879 813 885 796 885 C 776 885 689 878 689 878 L 689 894 C 728 899 750 907 764 916 C 776 925 781 941 784 959 C 868 951 878 920 878 871 L 878 438 C 898 435 915 426 921 418 L 840 357 Z M 874 98 L 826 156 L 690 156 L 690 84 C 715 81 724 71 726 57 L 629 47 L 629 156 L 375 156 L 375 84 C 400 81 409 71 411 57 L 314 47 L 314 156 L 52 156 L 59 186 L 314 186 L 314 279 L 323 279 C 349 279 375 269 375 261 L 375 186 L 629 186 L 629 276 L 639 276 C 670 274 690 264 690 257 L 690 186 L 931 186 C 945 186 955 181 957 170 C 927 140 874 98 874 98 Z" fill="blue" /><path transform="translate(1000)" d="M 137 763 L 119 763 C 122 812 97 871 72 893 C 53 907 43 928 54 946 C 67 966 100 960 116 942 C 141 913 159 849 137 763 Z M 329 302 L 242 256 C 214 317 144 433 85 479 C 79 483 62 487 62 487 L 94 569 C 103 566 112 559 119 547 C 160 538 201 528 235 520 C 191 575 140 631 95 664 C 87 668 70 671 70 671 L 100 755 C 108 752 117 745 125 732 C 207 709 286 683 340 665 C 346 686 350 707 350 725 C 398 773 456 663 310 556 L 296 561 C 309 584 323 614 333 644 C 260 655 191 664 140 670 C 228 604 323 509 375 444 C 394 448 407 443 412 434 L 332 378 C 316 408 290 446 260 486 C 212 487 165 487 127 487 C 189 437 254 366 292 315 C 312 318 324 310 329 302 Z M 230 743 L 214 747 C 225 789 229 857 218 907 C 258 964 333 863 230 743 Z M 324 723 L 312 729 C 334 771 359 838 356 889 C 405 940 467 827 324 723 Z M 49 169 L 304 169 L 304 248 L 314 248 C 340 248 367 240 367 232 L 367 169 L 625 169 L 625 245 L 636 245 C 668 244 689 234 689 227 L 689 169 L 930 169 C 944 169 954 164 956 153 C 924 122 872 82 872 82 L 825 139 L 689 139 L 689 75 C 715 72 723 62 725 48 L 625 38 L 625 139 L 367 139 L 367 75 C 392 72 401 62 403 48 L 304 38 L 304 139 L 42 139 L 49 169 Z M 701 441 L 847 441 L 847 688 C 779 634 719 542 701 441 Z M 504 756 L 504 441 L 643 441 C 624 570 573 679 504 756 Z M 870 370 L 836 411 L 697 411 L 697 410 L 697 321 C 725 317 740 311 749 299 L 680 249 L 654 289 L 524 289 L 527 318 L 665 318 L 665 411 L 510 411 L 442 379 L 442 959 L 452 959 C 479 959 504 943 504 936 L 504 760 L 514 768 C 589 714 657 624 684 513 C 703 619 763 718 819 766 C 825 747 835 730 847 719 L 847 862 C 847 876 842 883 826 883 C 808 883 727 876 727 876 L 727 892 C 764 897 786 904 798 914 C 808 922 813 938 815 956 C 900 947 911 919 911 870 L 911 455 C 931 450 948 442 954 434 L 870 370 Z" fill="red" /><path transform="translate(2000)" d="M 149 763 L 131 763 C 134 812 109 871 84 893 C 65 907 55 928 66 946 C 79 966 112 960 128 942 C 153 913 171 849 149 763 Z M 341 302 L 254 256 C 226 317 156 433 97 479 C 91 483 74 487 74 487 L 106 569 C 115 566 124 559 131 547 C 172 538 213 528 247 520 C 203 575 152 631 107 664 C 99 668 82 671 82 671 L 112 755 C 120 752 129 745 137 732 C 219 709 298 683 352 665 C 358 686 362 707 362 725 C 410 773 468 663 322 556 L 308 561 C 321 584 335 614 345 644 C 272 655 203 664 152 670 C 240 604 335 509 387 444 C 406 448 419 443 424 434 L 344 378 C 328 408 302 446 272 486 C 224 487 177 487 139 487 C 201 437 266 366 304 315 C 324 318 336 310 341 302 Z M 242 743 L 226 747 C 237 789 241 857 230 907 C 270 964 345 863 242 743 Z M 336 723 L 324 729 C 346 771 371 838 368 889 C 417 940 479 827 336 723 Z M 840 357 L 808 395 L 702 395 C 703 370 704 346 705 321 C 727 318 734 308 736 296 L 646 287 C 646 324 645 359 644 395 L 510 395 L 444 364 L 444 955 L 455 955 C 481 955 505 940 505 933 L 505 425 L 643 425 C 635 547 610 660 515 750 L 528 765 C 606 712 649 646 672 575 C 712 624 747 686 752 737 C 806 785 854 657 681 548 C 692 508 697 466 700 425 L 817 425 L 817 865 C 817 879 813 885 796 885 C 776 885 689 878 689 878 L 689 894 C 728 899 750 907 764 916 C 776 925 781 941 784 959 C 868 951 878 920 878 871 L 878 438 C 898 435 915 426 921 418 L 840 357 Z M 874 98 L 826 156 L 690 156 L 690 84 C 715 81 724 71 726 57 L 629 47 L 629 156 L 375 156 L 375 84 C 400 81 409 71 411 57 L 314 47 L 314 156 L 52 156 L 59 186 L 314 186 L 314 279 L 323 279 C 349 279 375 269 375 261 L 375 186 L 629 186 L 629 276 L 639 276 C 670 274 690 264 690 257 L 690 186 L 931 186 C 945 186 955 181 957 170 C 927 140 874 98 874 98 Z" fill="blue" fill-opacity="0.5" /><path transform="translate(2000)" d="M 137 763 L 119 763 C 122 812 97 871 72 893 C 53 907 43 928 54 946 C 67 966 100 960 116 942 C 141 913 159 849 137 763 Z M 329 302 L 242 256 C 214 317 144 433 85 479 C 79 483 62 487 62 487 L 94 569 C 103 566 112 559 119 547 C 160 538 201 528 235 520 C 191 575 140 631 95 664 C 87 668 70 671 70 671 L 100 755 C 108 752 117 745 125 732 C 207 709 286 683 340 665 C 346 686 350 707 350 725 C 398 773 456 663 310 556 L 296 561 C 309 584 323 614 333 644 C 260 655 191 664 140 670 C 228 604 323 509 375 444 C 394 448 407 443 412 434 L 332 378 C 316 408 290 446 260 486 C 212 487 165 487 127 487 C 189 437 254 366 292 315 C 312 318 324 310 329 302 Z M 230 743 L 214 747 C 225 789 229 857 218 907 C 258 964 333 863 230 743 Z M 324 723 L 312 729 C 334 771 359 838 356 889 C 405 940 467 827 324 723 Z M 49 169 L 304 169 L 304 248 L 314 248 C 340 248 367 240 367 232 L 367 169 L 625 169 L 625 245 L 636 245 C 668 244 689 234 689 227 L 689 169 L 930 169 C 944 169 954 164 956 153 C 924 122 872 82 872 82 L 825 139 L 689 139 L 689 75 C 715 72 723 62 725 48 L 625 38 L 625 139 L 367 139 L 367 75 C 392 72 401 62 403 48 L 304 38 L 304 139 L 42 139 L 49 169 Z M 701 441 L 847 441 L 847 688 C 779 634 719 542 701 441 Z M 504 756 L 504 441 L 643 441 C 624 570 573 679 504 756 Z M 870 370 L 836 411 L 697 411 L 697 410 L 697 321 C 725 317 740 311 749 299 L 680 249 L 654 289 L 524 289 L 527 318 L 665 318 L 665 411 L 510 411 L 442 379 L 442 959 L 452 959 C 479 959 504 943 504 936 L 504 760 L 514 768 C 589 714 657 624 684 513 C 703 619 763 718 819 766 C 825 747 835 730 847 719 L 847 862 C 847 876 842 883 826 883 C 808 883 727 876 727 876 L 727 892 C 764 897 786 904 798 914 C 808 922 813 938 815 956 C 900 947 911 919 911 870 L 911 455 C 931 450 948 442 954 434 L 870 370 Z" fill="red" fill-opacity="0.5" /><text text-anchor="middle" x="500" y="1064" font-family="Arial" font-size="64">Source Han Serif TW</text><text text-anchor="middle" x="1500" y="1064" font-family="Arial" font-size="64">HKSerif (uni84B3HK-regular)</text></svg>