<svg width="3000" height="1080" xmlns="http://www.w3.org/2000/svg" style="background:#fff"><path d="M 519 881 L 570 957 C 579 953 586 944 588 931 C 737 854 848 789 927 744 L 920 729 C 752 796 587 860 519 881 Z M 593 510 L 584 520 C 643 557 713 626 731 684 C 805 729 841 568 593 510 Z M 227 249 L 227 383 L 43 383 L 50 412 L 168 412 C 163 588 152 783 38 947 L 52 958 C 172 848 212 707 228 560 L 365 560 C 359 756 344 851 322 872 C 314 879 307 881 293 881 C 276 881 233 878 207 876 L 206 892 C 230 897 255 905 265 914 C 276 922 278 940 278 959 C 310 959 343 949 365 928 C 402 893 420 794 427 568 C 447 565 459 561 465 553 L 391 492 L 356 531 L 231 531 C 234 492 236 452 238 412 L 481 412 C 495 412 505 407 508 396 C 475 365 424 324 424 324 L 378 383 L 294 383 L 294 284 C 315 280 324 271 326 258 L 227 249 Z M 755 267 L 667 249 C 682 245 691 239 691 235 L 691 171 L 930 171 C 945 171 954 166 956 155 C 925 125 871 83 871 83 L 824 142 L 691 142 L 691 74 C 715 71 724 61 726 47 L 625 36 L 625 142 L 369 142 L 369 74 C 393 70 402 61 404 47 L 304 36 L 304 142 L 44 142 L 50 171 L 304 171 L 304 256 L 314 256 C 341 256 369 247 369 239 L 369 171 L 625 171 L 625 254 L 636 254 C 640 254 644 254 648 253 C 617 371 532 518 443 595 L 452 611 C 561 538 657 419 707 296 C 752 420 833 529 925 603 C 932 579 945 557 968 548 L 969 535 C 871 482 777 388 721 285 C 744 284 752 278 755 267 Z" fill="blue" /><path transform="translate(1000)" d="M 549 751 L 542 762 C 631 802 750 881 793 953 C 877 988 879 810 549 751 Z M 599 526 L 589 536 C 644 570 711 635 727 691 C 798 735 836 580 599 526 Z M 227 249 L 227 383 L 43 383 L 50 412 L 168 412 C 163 588 152 783 38 947 L 52 958 C 172 848 212 707 228 560 L 365 560 C 359 756 344 851 322 872 C 314 879 307 881 293 881 C 276 881 233 878 207 876 L 206 892 C 230 897 255 905 265 914 C 276 922 278 940 278 959 C 310 959 343 949 365 928 C 402 893 420 794 427 568 C 447 565 459 561 465 553 L 391 492 L 356 531 L 231 531 C 234 492 236 452 238 412 L 481 412 C 495 412 505 407 508 396 C 475 365 424 324 424 324 L 378 383 L 294 383 L 294 284 C 315 280 324 271 326 258 L 227 249 Z M 755 267 L 667 249 C 682 245 691 239 691 235 L 691 171 L 930 171 C 945 171 954 166 956 155 C 925 125 871 83 871 83 L 824 142 L 691 142 L 691 74 C 715 71 724 61 726 47 L 625 36 L 625 142 L 369 142 L 369 74 C 393 70 402 61 404 47 L 304 36 L 304 142 L 44 142 L 50 171 L 304 171 L 304 256 L 314 256 C 341 256 369 247 369 239 L 369 171 L 625 171 L 625 254 L 636 254 C 640 254 644 254 648 253 C 617 371 532 518 443 595 L 452 611 C 561 538 657 419 707 296 C 752 420 833 529 925 603 C 932 579 945 557 968 548 L 969 535 C 871 482 777 388 721 285 C 744 284 752 278 755 267 Z" fill="red" /><path transform="translate(2000)" d="M 519 881 L 570 957 C 579 953 586 944 588 931 C 737 854 848 789 927 744 L 920 729 C 752 796 587 860 519 881 Z M 593 510 L 584 520 C 643 557 713 626 731 684 C 805 729 841 568 593 510 Z M 227 249 L 227 383 L 43 383 L 50 412 L 168 412 C 163 588 152 783 38 947 L 52 958 C 172 848 212 707 228 560 L 365 560 C 359 756 344 851 322 872 C 314 879 307 881 293 881 C 276 881 233 878 207 876 L 206 892 C 230 897 255 905 265 914 C 276 922 278 940 278 959 C 310 959 343 949 365 928 C 402 893 420 794 427 568 C 447 565 459 561 465 553 L 391 492 L 356 531 L 231 531 C 234 492 236 452 238 412 L 481 412 C 495 412 505 407 508 396 C 475 365 424 324 424 324 L 378 383 L 294 383 L 294 284 C 315 280 324 271 326 258 L 227 249 Z M 755 267 L 667 249 C 682 245 691 239 691 235 L 691 171 L 930 171 C 945 171 954 166 956 155 C 925 125 871 83 871 83 L 824 142 L 691 142 L 691 74 C 715 71 724 61 726 47 L 625 36 L 625 142 L 369 142 L 369 74 C 393 70 402 61 404 47 L 304 36 L 304 142 L 44 142 L 50 171 L 304 171 L 304 256 L 314 256 C 341 256 369 247 369 239 L 369 171 L 625 171 L 625 254 L 636 254 C 640 254 644 254 648 253 C 617 371 532 518 443 595 L 452 611 C 561 538 657 419 707 296 C 752 420 833 529 925 603 C 932 579 945 557 968 548 L 969 535 C 871 482 777 388 721 285 C 744 284 752 278 755 267 Z" fill="blue" fill-opacity="0.5" /><path transform="translate(2000)" d="M 549 751 L 542 762 C 631 802 750 881 793 953 C 877 988 879 810 549 751 Z M 599 526 L 589 536 C 644 570 711 635 727 691 C 798 735 836 580 599 526 Z M 227 249 L 227 383 L 43 383 L 50 412 L 168 412 C 163 588 152 783 38 947 L 52 958 C 172 848 212 707 228 560 L 365 560 C 359 756 344 851 322 872 C 314 879 307 881 293 881 C 276 881 233 878 207 876 L 206 892 C 230 897 255 905 265 914 C 276 922 278 940 278 959 C 310 959 343 949 365 928 C 402 893 420 794 427 568 C 447 565 459 561 465 553 L 391 492 L 356 531 L 231 531 C 234 492 236 452 238 412 L 481 412 C 495 412 505 407 508 396 C 475 365 424 324 424 324 L 378 383 L 294 383 L 294 284 C 315 280 324 271 326 258 L 227 249 Z M 755 267 L 667 249 C 682 245 691 239 691 235 L 691 171 L 930 171 C 945 171 954 166 956 155 C 925 125 871 83 871 83 L 824 142 L 691 142 L 691 74 C 715 71 724 61 726 47 L 625 36 L 625 142 L 369 142 L 369 74 C 393 70 402 61 404 47 L 304 36 L 304 142 L 44 142 L 50 171 L 304 171 L 304 256 L 314 256 C 341 256 369 247 369 239 L 369 171 L 625 171 L 625 254 L 636 254 C 640 254 644 254 648 253 C 617 371 532 518 443 595 L 452 611 C 561 538 657 419 707 296 C 752 420 833 529 925 603 C 932 579 945 557 968 548 L 969 535 C 871 482 777 388 721 285 C 744 284 752 278 755 267 Z" fill="red" fill-opacity="0.5" /><text text-anchor="middle" x="500" y="1064" font-family="Arial" font-size="64">Source Han Serif KR</text><text text-anchor="middle" x="1500" y="1064" font-family="Arial" font-size="64">HKSerif (uni83F8KX-regular)</text></svg>