<svg width="3000" height="1080" xmlns="http://www.w3.org/2000/svg" style="background:#fff"><path d="M 259 183 L 272 281 C 300 281 322 276 331 263 L 320 183 L 474 183 C 488 183 498 178 499 167 C 470 138 420 98 420 98 L 377 154 L 316 154 L 304 76 C 325 71 332 61 334 49 L 240 42 L 255 154 L 51 154 L 59 183 L 259 183 Z M 529 561 L 713 561 C 727 561 736 556 738 545 C 710 518 664 484 664 484 L 626 531 L 529 531 L 529 433 C 569 426 605 419 636 412 C 655 421 672 421 680 413 L 619 356 C 548 385 411 423 298 440 L 303 458 C 357 456 414 450 469 442 L 469 531 L 251 531 L 259 561 L 439 561 C 395 649 324 732 240 793 L 251 809 C 339 761 413 699 469 626 L 469 838 L 478 838 C 508 838 529 824 529 818 L 529 622 C 586 658 653 714 675 760 C 742 795 767 659 529 602 L 529 561 Z M 776 860 L 219 860 L 219 334 L 776 334 L 776 860 Z M 803 264 L 766 305 L 225 305 L 155 272 L 155 956 L 166 956 C 194 956 219 940 219 932 L 219 890 L 776 890 L 776 951 L 786 951 C 809 951 840 933 841 927 L 841 347 C 861 343 878 335 883 327 L 803 264 Z M 876 98 L 833 154 L 720 154 L 733 85 C 756 85 766 76 770 63 L 676 43 L 657 154 L 524 154 L 532 183 L 653 183 L 638 277 C 664 283 688 280 700 271 L 715 183 L 929 183 C 943 183 953 178 955 167 C 925 138 876 98 876 98 Z" fill="blue" /><path transform="translate(1000)" d="M 870 92 L 823 152 L 671 152 L 671 77 C 696 74 705 64 706 50 L 606 40 L 606 152 L 387 152 L 387 77 C 412 74 421 64 423 50 L 323 40 L 323 152 L 43 152 L 48 181 L 323 181 L 323 278 L 333 278 C 359 278 387 267 387 260 L 387 181 L 606 181 L 606 275 L 617 275 C 648 274 671 262 671 256 L 671 181 L 930 181 C 944 181 953 176 955 166 C 924 136 870 92 870 92 Z M 529 561 L 713 561 C 727 561 736 556 738 545 C 710 518 664 484 664 484 L 626 531 L 529 531 L 529 433 C 569 426 605 419 636 412 C 655 421 672 421 680 413 L 619 356 C 548 385 411 423 298 440 L 303 458 C 357 456 414 450 469 442 L 469 531 L 251 531 L 259 561 L 439 561 C 395 649 324 732 240 793 L 251 809 C 339 761 413 699 469 626 L 469 838 L 478 838 C 508 838 529 824 529 818 L 529 622 C 586 658 653 714 675 760 C 742 795 767 659 529 602 L 529 561 Z M 776 860 L 219 860 L 219 334 L 776 334 L 776 860 Z M 803 264 L 766 305 L 225 305 L 155 272 L 155 956 L 166 956 C 194 956 219 940 219 932 L 219 890 L 776 890 L 776 951 L 786 951 C 809 951 840 933 841 927 L 841 347 C 861 343 878 335 883 327 L 803 264 Z" fill="red" /><path transform="translate(2000)" d="M 259 183 L 272 281 C 300 281 322 276 331 263 L 320 183 L 474 183 C 488 183 498 178 499 167 C 470 138 420 98 420 98 L 377 154 L 316 154 L 304 76 C 325 71 332 61 334 49 L 240 42 L 255 154 L 51 154 L 59 183 L 259 183 Z M 529 561 L 713 561 C 727 561 736 556 738 545 C 710 518 664 484 664 484 L 626 531 L 529 531 L 529 433 C 569 426 605 419 636 412 C 655 421 672 421 680 413 L 619 356 C 548 385 411 423 298 440 L 303 458 C 357 456 414 450 469 442 L 469 531 L 251 531 L 259 561 L 439 561 C 395 649 324 732 240 793 L 251 809 C 339 761 413 699 469 626 L 469 838 L 478 838 C 508 838 529 824 529 818 L 529 622 C 586 658 653 714 675 760 C 742 795 767 659 529 602 L 529 561 Z M 776 860 L 219 860 L 219 334 L 776 334 L 776 860 Z M 803 264 L 766 305 L 225 305 L 155 272 L 155 956 L 166 956 C 194 956 219 940 219 932 L 219 890 L 776 890 L 776 951 L 786 951 C 809 951 840 933 841 927 L 841 347 C 861 343 878 335 883 327 L 803 264 Z M 876 98 L 833 154 L 720 154 L 733 85 C 756 85 766 76 770 63 L 676 43 L 657 154 L 524 154 L 532 183 L 653 183 L 638 277 C 664 283 688 280 700 271 L 715 183 L 929 183 C 943 183 953 178 955 167 C 925 138 876 98 876 98 Z" fill="blue" fill-opacity="0.5" /><path transform="translate(2000)" d="M 870 92 L 823 152 L 671 152 L 671 77 C 696 74 705 64 706 50 L 606 40 L 606 152 L 387 152 L 387 77 C 412 74 421 64 423 50 L 323 40 L 323 152 L 43 152 L 48 181 L 323 181 L 323 278 L 333 278 C 359 278 387 267 387 260 L 387 181 L 606 181 L 606 275 L 617 275 C 648 274 671 262 671 256 L 671 181 L 930 181 C 944 181 953 176 955 166 C 924 136 870 92 870 92 Z M 529 561 L 713 561 C 727 561 736 556 738 545 C 710 518 664 484 664 484 L 626 531 L 529 531 L 529 433 C 569 426 605 419 636 412 C 655 421 672 421 680 413 L 619 356 C 548 385 411 423 298 440 L 303 458 C 357 456 414 450 469 442 L 469 531 L 251 531 L 259 561 L 439 561 C 395 649 324 732 240 793 L 251 809 C 339 761 413 699 469 626 L 469 838 L 478 838 C 508 838 529 824 529 818 L 529 622 C 586 658 653 714 675 760 C 742 795 767 659 529 602 L 529 561 Z M 776 860 L 219 860 L 219 334 L 776 334 L 776 860 Z M 803 264 L 766 305 L 225 305 L 155 272 L 155 956 L 166 956 C 194 956 219 940 219 932 L 219 890 L 776 890 L 776 951 L 786 951 C 809 951 840 933 841 927 L 841 347 C 861 343 878 335 883 327 L 803 264 Z" fill="red" fill-opacity="0.5" /><text text-anchor="middle" x="500" y="1064" font-family="Arial" font-size="64">Source Han Serif TW</text><text text-anchor="middle" x="1500" y="1064" font-family="Arial" font-size="64">HKSerif (uni83CCHK-regular)</text></svg>