<svg width="3000" height="1080" xmlns="http://www.w3.org/2000/svg" style="background:#fff"><path d="M 51 143 L 59 173 L 246 173 L 255 241 C 283 242 306 235 315 223 L 308 173 L 469 173 C 483 173 493 168 495 157 C 466 128 419 90 419 90 L 378 143 L 303 143 L 293 78 C 314 72 321 62 323 51 L 229 43 L 242 143 L 51 143 Z M 421 411 L 340 356 C 326 383 304 417 279 451 C 230 453 183 455 145 455 C 203 412 264 348 301 303 C 322 305 334 297 338 288 L 248 242 C 224 296 160 402 107 442 C 101 446 85 450 85 450 L 118 532 C 126 529 134 522 141 510 C 183 501 224 490 258 481 C 211 541 157 604 110 639 C 103 644 84 647 84 647 L 115 730 C 122 727 130 720 138 709 C 220 687 299 662 354 644 C 357 659 358 674 358 687 C 404 737 465 631 332 530 L 318 535 C 330 559 342 591 350 622 C 275 633 204 642 152 648 C 238 582 331 487 383 419 C 402 425 416 419 421 411 Z M 164 738 L 146 738 C 147 797 111 854 75 877 C 57 890 45 910 55 928 C 67 948 103 944 123 927 C 155 900 187 835 164 738 Z M 239 720 L 224 724 C 236 773 242 847 230 904 C 274 961 345 851 239 720 Z M 322 702 L 309 708 C 334 753 361 825 360 880 C 410 933 472 811 322 702 Z M 507 542 L 622 542 L 622 694 L 507 694 L 507 542 Z M 678 542 L 787 542 L 787 694 L 678 694 L 678 542 Z M 887 865 L 884 763 L 873 763 C 862 810 851 849 842 862 C 838 869 833 872 819 873 C 802 875 755 875 694 875 L 561 875 C 513 875 507 870 507 852 L 507 724 L 787 724 L 787 765 L 796 765 C 815 765 845 752 846 746 L 846 551 C 863 547 878 540 883 533 L 810 477 L 778 512 L 518 512 L 462 488 C 560 446 607 382 632 302 L 793 302 C 785 365 772 406 757 418 C 751 423 743 424 726 424 C 707 424 645 419 611 416 L 610 434 C 642 438 675 445 688 454 C 699 462 704 473 704 488 C 737 488 770 483 792 469 C 824 448 842 394 851 309 C 871 306 883 302 890 295 L 820 239 L 786 273 L 404 273 L 412 302 L 561 302 C 540 387 492 459 377 498 L 389 514 C 410 508 428 502 446 495 L 446 862 C 446 915 466 930 554 930 L 694 930 C 884 930 918 921 918 891 C 918 878 912 871 887 865 Z M 874 90 L 832 143 L 731 143 L 741 84 C 765 83 775 74 778 61 L 685 41 L 668 143 L 523 143 L 531 173 L 664 173 L 651 247 C 677 253 701 250 713 240 L 725 173 L 925 173 C 938 173 947 168 950 157 C 922 128 874 90 874 90 Z" fill="blue" /><path transform="translate(1000)" d="M 872 80 L 827 137 L 683 137 L 683 83 C 708 80 717 70 719 56 L 622 45 L 622 137 L 382 137 L 382 83 C 407 79 416 70 418 56 L 321 45 L 321 137 L 52 137 L 58 167 L 321 167 L 321 250 L 331 250 C 355 250 382 241 382 233 L 382 167 L 622 167 L 622 247 L 632 247 C 662 246 683 235 683 229 L 683 167 L 931 167 C 945 167 955 162 957 151 C 926 121 872 80 872 80 Z M 421 411 L 340 356 C 326 383 304 417 279 451 C 230 453 183 455 145 455 C 203 412 264 348 301 303 C 322 305 334 297 338 288 L 248 242 C 224 296 160 402 107 442 C 101 446 85 450 85 450 L 118 532 C 126 529 134 522 141 510 C 183 501 224 490 258 481 C 211 541 157 604 110 639 C 103 644 84 647 84 647 L 115 730 C 122 727 130 720 138 709 C 220 687 299 662 354 644 C 357 659 358 674 358 687 C 404 737 465 631 332 530 L 318 535 C 330 559 342 591 350 622 C 275 633 204 642 152 648 C 238 582 331 487 383 419 C 402 425 416 419 421 411 Z M 164 738 L 146 738 C 147 797 111 854 75 877 C 57 890 45 910 55 928 C 67 948 103 944 123 927 C 155 900 187 835 164 738 Z M 239 720 L 224 724 C 236 773 242 847 230 904 C 274 961 345 851 239 720 Z M 322 702 L 309 708 C 334 753 361 825 360 880 C 410 933 472 811 322 702 Z M 507 542 L 622 542 L 622 694 L 507 694 L 507 542 Z M 678 542 L 787 542 L 787 694 L 678 694 L 678 542 Z M 887 865 L 884 763 L 873 763 C 862 810 851 849 842 862 C 838 869 833 872 819 873 C 802 875 755 875 694 875 L 561 875 C 513 875 507 870 507 852 L 507 724 L 787 724 L 787 765 L 796 765 C 815 765 845 752 846 746 L 846 551 C 863 547 878 540 883 533 L 810 477 L 778 512 L 518 512 L 462 488 C 560 446 607 382 632 302 L 793 302 C 785 365 772 406 757 418 C 751 423 743 424 726 424 C 707 424 645 419 611 416 L 610 434 C 642 438 675 445 688 454 C 699 462 704 473 704 488 C 737 488 770 483 792 469 C 824 448 842 394 851 309 C 871 306 883 302 890 295 L 820 239 L 786 273 L 404 273 L 412 302 L 561 302 C 540 387 492 459 377 498 L 389 514 C 410 508 428 502 446 495 L 446 862 C 446 915 466 930 554 930 L 694 930 C 884 930 918 921 918 891 C 918 878 912 871 887 865 Z" fill="red" /><path transform="translate(2000)" d="M 51 143 L 59 173 L 246 173 L 255 241 C 283 242 306 235 315 223 L 308 173 L 469 173 C 483 173 493 168 495 157 C 466 128 419 90 419 90 L 378 143 L 303 143 L 293 78 C 314 72 321 62 323 51 L 229 43 L 242 143 L 51 143 Z M 421 411 L 340 356 C 326 383 304 417 279 451 C 230 453 183 455 145 455 C 203 412 264 348 301 303 C 322 305 334 297 338 288 L 248 242 C 224 296 160 402 107 442 C 101 446 85 450 85 450 L 118 532 C 126 529 134 522 141 510 C 183 501 224 490 258 481 C 211 541 157 604 110 639 C 103 644 84 647 84 647 L 115 730 C 122 727 130 720 138 709 C 220 687 299 662 354 644 C 357 659 358 674 358 687 C 404 737 465 631 332 530 L 318 535 C 330 559 342 591 350 622 C 275 633 204 642 152 648 C 238 582 331 487 383 419 C 402 425 416 419 421 411 Z M 164 738 L 146 738 C 147 797 111 854 75 877 C 57 890 45 910 55 928 C 67 948 103 944 123 927 C 155 900 187 835 164 738 Z M 239 720 L 224 724 C 236 773 242 847 230 904 C 274 961 345 851 239 720 Z M 322 702 L 309 708 C 334 753 361 825 360 880 C 410 933 472 811 322 702 Z M 507 542 L 622 542 L 622 694 L 507 694 L 507 542 Z M 678 542 L 787 542 L 787 694 L 678 694 L 678 542 Z M 887 865 L 884 763 L 873 763 C 862 810 851 849 842 862 C 838 869 833 872 819 873 C 802 875 755 875 694 875 L 561 875 C 513 875 507 870 507 852 L 507 724 L 787 724 L 787 765 L 796 765 C 815 765 845 752 846 746 L 846 551 C 863 547 878 540 883 533 L 810 477 L 778 512 L 518 512 L 462 488 C 560 446 607 382 632 302 L 793 302 C 785 365 772 406 757 418 C 751 423 743 424 726 424 C 707 424 645 419 611 416 L 610 434 C 642 438 675 445 688 454 C 699 462 704 473 704 488 C 737 488 770 483 792 469 C 824 448 842 394 851 309 C 871 306 883 302 890 295 L 820 239 L 786 273 L 404 273 L 412 302 L 561 302 C 540 387 492 459 377 498 L 389 514 C 410 508 428 502 446 495 L 446 862 C 446 915 466 930 554 930 L 694 930 C 884 930 918 921 918 891 C 918 878 912 871 887 865 Z M 874 90 L 832 143 L 731 143 L 741 84 C 765 83 775 74 778 61 L 685 41 L 668 143 L 523 143 L 531 173 L 664 173 L 651 247 C 677 253 701 250 713 240 L 725 173 L 925 173 C 938 173 947 168 950 157 C 922 128 874 90 874 90 Z" fill="blue" fill-opacity="0.5" /><path transform="translate(2000)" d="M 872 80 L 827 137 L 683 137 L 683 83 C 708 80 717 70 719 56 L 622 45 L 622 137 L 382 137 L 382 83 C 407 79 416 70 418 56 L 321 45 L 321 137 L 52 137 L 58 167 L 321 167 L 321 250 L 331 250 C 355 250 382 241 382 233 L 382 167 L 622 167 L 622 247 L 632 247 C 662 246 683 235 683 229 L 683 167 L 931 167 C 945 167 955 162 957 151 C 926 121 872 80 872 80 Z M 421 411 L 340 356 C 326 383 304 417 279 451 C 230 453 183 455 145 455 C 203 412 264 348 301 303 C 322 305 334 297 338 288 L 248 242 C 224 296 160 402 107 442 C 101 446 85 450 85 450 L 118 532 C 126 529 134 522 141 510 C 183 501 224 490 258 481 C 211 541 157 604 110 639 C 103 644 84 647 84 647 L 115 730 C 122 727 130 720 138 709 C 220 687 299 662 354 644 C 357 659 358 674 358 687 C 404 737 465 631 332 530 L 318 535 C 330 559 342 591 350 622 C 275 633 204 642 152 648 C 238 582 331 487 383 419 C 402 425 416 419 421 411 Z M 164 738 L 146 738 C 147 797 111 854 75 877 C 57 890 45 910 55 928 C 67 948 103 944 123 927 C 155 900 187 835 164 738 Z M 239 720 L 224 724 C 236 773 242 847 230 904 C 274 961 345 851 239 720 Z M 322 702 L 309 708 C 334 753 361 825 360 880 C 410 933 472 811 322 702 Z M 507 542 L 622 542 L 622 694 L 507 694 L 507 542 Z M 678 542 L 787 542 L 787 694 L 678 694 L 678 542 Z M 887 865 L 884 763 L 873 763 C 862 810 851 849 842 862 C 838 869 833 872 819 873 C 802 875 755 875 694 875 L 561 875 C 513 875 507 870 507 852 L 507 724 L 787 724 L 787 765 L 796 765 C 815 765 845 752 846 746 L 846 551 C 863 547 878 540 883 533 L 810 477 L 778 512 L 518 512 L 462 488 C 560 446 607 382 632 302 L 793 302 C 785 365 772 406 757 418 C 751 423 743 424 726 424 C 707 424 645 419 611 416 L 610 434 C 642 438 675 445 688 454 C 699 462 704 473 704 488 C 737 488 770 483 792 469 C 824 448 842 394 851 309 C 871 306 883 302 890 295 L 820 239 L 786 273 L 404 273 L 412 302 L 561 302 C 540 387 492 459 377 498 L 389 514 C 410 508 428 502 446 495 L 446 862 C 446 915 466 930 554 930 L 694 930 C 884 930 918 921 918 891 C 918 878 912 871 887 865 Z" fill="red" fill-opacity="0.5" /><text text-anchor="middle" x="500" y="1064" font-family="Arial" font-size="64">Source Han Serif TW</text><text text-anchor="middle" x="1500" y="1064" font-family="Arial" font-size="64">HKSerif (uni855DHK-regular)</text></svg>