<svg width="3000" height="1080" xmlns="http://www.w3.org/2000/svg" style="background:#fff"><path d="M 524 162 L 532 191 L 652 191 L 640 271 C 665 277 689 275 702 265 L 715 191 L 929 191 C 943 191 953 186 955 175 C 925 145 876 106 876 106 L 833 162 L 719 162 L 731 85 C 756 85 767 76 770 63 L 677 43 L 657 162 L 524 162 Z M 505 751 L 505 510 C 529 506 540 497 542 483 L 443 471 L 443 751 L 371 751 L 379 780 L 913 780 C 927 780 937 775 939 764 C 906 732 851 688 851 688 L 804 751 L 683 751 L 683 561 L 879 561 C 892 561 902 556 904 545 C 874 516 825 478 825 478 L 782 532 L 683 532 L 683 361 C 744 353 802 344 848 334 C 871 344 889 344 897 336 L 829 270 C 734 305 554 346 405 364 L 409 383 C 478 381 552 376 621 368 L 621 751 L 505 751 Z M 52 162 L 60 191 L 243 191 L 257 294 C 286 294 309 288 318 275 L 306 191 L 474 191 C 487 191 497 186 499 175 C 470 145 420 106 420 106 L 377 162 L 302 162 L 289 78 C 310 73 317 63 319 51 L 225 44 L 240 162 L 52 162 Z M 411 579 L 343 518 L 304 556 L 217 556 C 249 506 293 437 319 392 C 345 392 368 387 379 376 L 303 309 L 267 347 L 69 347 L 77 376 L 258 376 C 232 426 190 495 158 541 C 145 545 129 552 120 558 L 177 609 L 205 585 L 308 585 C 291 659 263 727 222 787 C 178 754 144 708 115 644 L 100 653 C 129 722 161 775 201 815 C 160 864 110 906 45 940 L 54 955 C 128 926 186 888 233 843 C 325 917 454 935 642 935 L 915 935 C 917 910 932 890 960 884 L 960 871 C 881 873 718 873 646 873 C 474 873 352 863 261 814 C 316 749 350 674 373 592 C 395 590 404 587 411 579 Z" fill="blue" /><path transform="translate(1000)" d="M 54 188 L 323 188 L 323 291 L 333 291 C 357 291 385 281 385 273 L 385 188 L 611 188 L 611 278 L 622 278 C 653 277 674 265 674 259 L 674 188 L 927 188 C 941 188 951 183 953 172 C 923 143 869 100 869 100 L 822 159 L 674 159 L 674 79 C 699 76 708 66 709 52 L 611 43 L 611 159 L 385 159 L 385 79 C 410 76 419 66 420 52 L 323 43 L 323 159 L 48 159 L 54 188 Z M 505 751 L 505 510 C 529 506 540 497 542 483 L 443 471 L 443 751 L 371 751 L 379 780 L 913 780 C 927 780 937 775 939 764 C 906 732 851 688 851 688 L 804 751 L 683 751 L 683 561 L 879 561 C 892 561 902 556 904 545 C 874 516 825 478 825 478 L 782 532 L 683 532 L 683 361 C 744 353 802 344 848 334 C 871 344 889 344 897 336 L 829 270 C 734 305 554 346 405 364 L 409 383 C 478 381 552 376 621 368 L 621 751 L 505 751 Z M 411 579 L 343 518 L 304 556 L 217 556 C 249 506 293 437 319 392 C 345 392 368 387 379 376 L 303 309 L 267 347 L 69 347 L 77 376 L 258 376 C 232 426 190 495 158 541 C 145 545 129 552 120 558 L 177 609 L 205 585 L 308 585 C 291 659 263 727 222 787 C 178 754 144 708 115 644 L 100 653 C 129 722 161 775 201 815 C 160 864 110 906 45 940 L 54 955 C 128 926 186 888 233 843 C 325 917 454 935 642 935 L 915 935 C 917 910 932 890 960 884 L 960 871 C 881 873 718 873 646 873 C 474 873 352 863 261 814 C 316 749 350 674 373 592 C 395 590 404 587 411 579 Z" fill="red" /><path transform="translate(2000)" d="M 524 162 L 532 191 L 652 191 L 640 271 C 665 277 689 275 702 265 L 715 191 L 929 191 C 943 191 953 186 955 175 C 925 145 876 106 876 106 L 833 162 L 719 162 L 731 85 C 756 85 767 76 770 63 L 677 43 L 657 162 L 524 162 Z M 505 751 L 505 510 C 529 506 540 497 542 483 L 443 471 L 443 751 L 371 751 L 379 780 L 913 780 C 927 780 937 775 939 764 C 906 732 851 688 851 688 L 804 751 L 683 751 L 683 561 L 879 561 C 892 561 902 556 904 545 C 874 516 825 478 825 478 L 782 532 L 683 532 L 683 361 C 744 353 802 344 848 334 C 871 344 889 344 897 336 L 829 270 C 734 305 554 346 405 364 L 409 383 C 478 381 552 376 621 368 L 621 751 L 505 751 Z M 52 162 L 60 191 L 243 191 L 257 294 C 286 294 309 288 318 275 L 306 191 L 474 191 C 487 191 497 186 499 175 C 470 145 420 106 420 106 L 377 162 L 302 162 L 289 78 C 310 73 317 63 319 51 L 225 44 L 240 162 L 52 162 Z M 411 579 L 343 518 L 304 556 L 217 556 C 249 506 293 437 319 392 C 345 392 368 387 379 376 L 303 309 L 267 347 L 69 347 L 77 376 L 258 376 C 232 426 190 495 158 541 C 145 545 129 552 120 558 L 177 609 L 205 585 L 308 585 C 291 659 263 727 222 787 C 178 754 144 708 115 644 L 100 653 C 129 722 161 775 201 815 C 160 864 110 906 45 940 L 54 955 C 128 926 186 888 233 843 C 325 917 454 935 642 935 L 915 935 C 917 910 932 890 960 884 L 960 871 C 881 873 718 873 646 873 C 474 873 352 863 261 814 C 316 749 350 674 373 592 C 395 590 404 587 411 579 Z" fill="blue" fill-opacity="0.5" /><path transform="translate(2000)" d="M 54 188 L 323 188 L 323 291 L 333 291 C 357 291 385 281 385 273 L 385 188 L 611 188 L 611 278 L 622 278 C 653 277 674 265 674 259 L 674 188 L 927 188 C 941 188 951 183 953 172 C 923 143 869 100 869 100 L 822 159 L 674 159 L 674 79 C 699 76 708 66 709 52 L 611 43 L 611 159 L 385 159 L 385 79 C 410 76 419 66 420 52 L 323 43 L 323 159 L 48 159 L 54 188 Z M 505 751 L 505 510 C 529 506 540 497 542 483 L 443 471 L 443 751 L 371 751 L 379 780 L 913 780 C 927 780 937 775 939 764 C 906 732 851 688 851 688 L 804 751 L 683 751 L 683 561 L 879 561 C 892 561 902 556 904 545 C 874 516 825 478 825 478 L 782 532 L 683 532 L 683 361 C 744 353 802 344 848 334 C 871 344 889 344 897 336 L 829 270 C 734 305 554 346 405 364 L 409 383 C 478 381 552 376 621 368 L 621 751 L 505 751 Z M 411 579 L 343 518 L 304 556 L 217 556 C 249 506 293 437 319 392 C 345 392 368 387 379 376 L 303 309 L 267 347 L 69 347 L 77 376 L 258 376 C 232 426 190 495 158 541 C 145 545 129 552 120 558 L 177 609 L 205 585 L 308 585 C 291 659 263 727 222 787 C 178 754 144 708 115 644 L 100 653 C 129 722 161 775 201 815 C 160 864 110 906 45 940 L 54 955 C 128 926 186 888 233 843 C 325 917 454 935 642 935 L 915 935 C 917 910 932 890 960 884 L 960 871 C 881 873 718 873 646 873 C 474 873 352 863 261 814 C 316 749 350 674 373 592 C 395 590 404 587 411 579 Z" fill="red" fill-opacity="0.5" /><text text-anchor="middle" x="500" y="1064" font-family="Arial" font-size="64">Source Han Serif TW</text><text text-anchor="middle" x="1500" y="1064" font-family="Arial" font-size="64">HKSerif (uni839AHK-regular)</text></svg>