<svg width="3000" height="1080" xmlns="http://www.w3.org/2000/svg" style="background:#fff"><path d="M 201 253 L 189 261 C 218 309 228 380 231 420 C 269 470 342 359 201 253 Z M 321 475 L 164 475 L 164 208 L 321 208 L 321 475 Z M 419 199 L 342 139 L 312 178 L 233 178 C 252 148 273 112 288 83 C 310 83 322 74 325 60 L 225 42 C 220 81 209 139 202 178 L 176 178 L 108 146 L 108 475 L 51 475 L 67 504 L 108 504 C 108 661 104 823 37 948 L 54 958 C 158 834 164 654 164 504 L 321 504 L 321 875 C 321 889 317 895 301 895 C 284 895 208 889 208 889 L 208 905 C 243 909 263 916 275 924 C 285 932 290 946 292 961 C 369 954 379 927 379 880 L 379 218 C 398 214 413 206 419 199 Z M 207 551 L 193 558 C 223 616 231 698 233 743 C 268 796 346 682 207 551 Z M 855 530 L 821 566 L 451 566 L 460 596 L 830 596 L 830 715 L 481 715 L 490 744 L 830 744 L 830 863 L 432 863 L 441 892 L 830 892 L 830 954 L 839 954 C 860 954 890 938 891 932 L 891 605 C 908 602 923 594 929 587 L 855 530 Z M 455 457 L 455 487 L 609 487 L 609 457 L 455 457 Z M 608 351 L 477 351 L 477 381 L 608 381 L 608 351 Z M 736 455 L 736 484 L 890 484 L 890 455 L 736 455 Z M 873 352 L 738 352 L 738 381 L 873 381 L 873 352 Z M 973 258 L 906 192 L 870 229 L 701 229 L 701 139 L 897 139 C 911 139 920 134 922 123 C 894 94 846 58 846 58 L 805 109 L 451 109 L 459 139 L 641 139 L 641 229 L 483 229 C 482 218 479 207 475 194 L 457 194 C 461 230 443 275 420 290 C 403 302 394 321 402 337 C 412 356 442 352 458 338 C 474 324 486 296 486 259 L 641 259 L 641 534 L 650 534 C 681 534 701 521 701 517 L 701 259 L 875 259 C 869 286 861 317 856 336 L 871 343 C 891 324 919 289 936 267 C 954 266 966 265 973 258 Z" fill="blue" /><path transform="translate(1000)" d="M 201 253 L 189 261 C 218 309 228 380 231 420 C 269 470 342 359 201 253 Z M 321 475 L 164 475 L 164 208 L 321 208 L 321 475 Z M 419 199 L 342 139 L 312 178 L 233 178 C 252 148 273 112 288 83 C 310 83 322 74 325 60 L 225 42 C 220 81 209 139 202 178 L 176 178 L 108 146 L 108 475 L 51 475 L 67 504 L 108 504 C 108 661 104 823 37 948 L 54 958 C 158 834 164 654 164 504 L 321 504 L 321 875 C 321 889 317 895 301 895 C 284 895 208 889 208 889 L 208 905 C 243 909 263 916 275 924 C 285 932 290 946 292 961 C 369 954 379 927 379 880 L 379 218 C 398 214 413 206 419 199 Z M 207 551 L 193 558 C 223 616 231 698 233 743 C 268 796 346 682 207 551 Z M 496 256 L 647 256 L 647 555 L 655 555 C 684 555 704 540 704 536 L 704 256 L 866 256 C 860 276 852 297 846 310 L 860 318 C 883 305 916 282 935 265 C 953 264 964 262 971 256 L 902 187 L 865 226 L 704 226 L 704 135 L 903 135 C 917 135 927 130 929 119 C 897 90 844 49 844 49 L 798 105 L 455 105 L 462 135 L 647 135 L 647 226 L 495 226 C 493 214 491 201 488 188 L 470 187 C 472 221 450 263 429 279 C 411 292 400 313 410 331 C 422 351 455 346 470 332 C 484 317 494 291 496 256 Z M 733 500 L 905 500 C 918 500 927 495 929 484 C 905 460 870 430 870 430 L 837 471 L 725 471 L 733 500 Z M 843 314 L 811 353 L 724 353 L 732 383 L 877 383 C 891 383 899 378 902 367 C 879 343 843 314 843 314 Z M 578 316 L 547 353 L 456 353 L 463 383 L 612 383 C 624 383 633 378 636 367 C 614 343 578 316 578 316 Z M 578 435 L 547 474 L 453 474 L 459 503 L 612 503 C 624 503 633 498 636 487 C 614 464 578 435 578 435 Z M 906 677 L 870 727 L 867 727 L 867 629 C 881 626 895 619 900 612 L 830 558 L 797 592 L 467 592 L 476 622 L 805 622 L 805 727 L 414 727 L 422 755 L 805 755 L 805 870 L 460 870 L 469 900 L 805 900 L 805 957 L 815 957 C 835 957 866 943 867 936 L 867 755 L 949 755 C 962 755 971 751 974 740 C 949 713 906 677 906 677 Z" fill="red" /><path transform="translate(2000)" d="M 201 253 L 189 261 C 218 309 228 380 231 420 C 269 470 342 359 201 253 Z M 321 475 L 164 475 L 164 208 L 321 208 L 321 475 Z M 419 199 L 342 139 L 312 178 L 233 178 C 252 148 273 112 288 83 C 310 83 322 74 325 60 L 225 42 C 220 81 209 139 202 178 L 176 178 L 108 146 L 108 475 L 51 475 L 67 504 L 108 504 C 108 661 104 823 37 948 L 54 958 C 158 834 164 654 164 504 L 321 504 L 321 875 C 321 889 317 895 301 895 C 284 895 208 889 208 889 L 208 905 C 243 909 263 916 275 924 C 285 932 290 946 292 961 C 369 954 379 927 379 880 L 379 218 C 398 214 413 206 419 199 Z M 207 551 L 193 558 C 223 616 231 698 233 743 C 268 796 346 682 207 551 Z M 855 530 L 821 566 L 451 566 L 460 596 L 830 596 L 830 715 L 481 715 L 490 744 L 830 744 L 830 863 L 432 863 L 441 892 L 830 892 L 830 954 L 839 954 C 860 954 890 938 891 932 L 891 605 C 908 602 923 594 929 587 L 855 530 Z M 455 457 L 455 487 L 609 487 L 609 457 L 455 457 Z M 608 351 L 477 351 L 477 381 L 608 381 L 608 351 Z M 736 455 L 736 484 L 890 484 L 890 455 L 736 455 Z M 873 352 L 738 352 L 738 381 L 873 381 L 873 352 Z M 973 258 L 906 192 L 870 229 L 701 229 L 701 139 L 897 139 C 911 139 920 134 922 123 C 894 94 846 58 846 58 L 805 109 L 451 109 L 459 139 L 641 139 L 641 229 L 483 229 C 482 218 479 207 475 194 L 457 194 C 461 230 443 275 420 290 C 403 302 394 321 402 337 C 412 356 442 352 458 338 C 474 324 486 296 486 259 L 641 259 L 641 534 L 650 534 C 681 534 701 521 701 517 L 701 259 L 875 259 C 869 286 861 317 856 336 L 871 343 C 891 324 919 289 936 267 C 954 266 966 265 973 258 Z" fill="blue" fill-opacity="0.5" /><path transform="translate(2000)" d="M 201 253 L 189 261 C 218 309 228 380 231 420 C 269 470 342 359 201 253 Z M 321 475 L 164 475 L 164 208 L 321 208 L 321 475 Z M 419 199 L 342 139 L 312 178 L 233 178 C 252 148 273 112 288 83 C 310 83 322 74 325 60 L 225 42 C 220 81 209 139 202 178 L 176 178 L 108 146 L 108 475 L 51 475 L 67 504 L 108 504 C 108 661 104 823 37 948 L 54 958 C 158 834 164 654 164 504 L 321 504 L 321 875 C 321 889 317 895 301 895 C 284 895 208 889 208 889 L 208 905 C 243 909 263 916 275 924 C 285 932 290 946 292 961 C 369 954 379 927 379 880 L 379 218 C 398 214 413 206 419 199 Z M 207 551 L 193 558 C 223 616 231 698 233 743 C 268 796 346 682 207 551 Z M 496 256 L 647 256 L 647 555 L 655 555 C 684 555 704 540 704 536 L 704 256 L 866 256 C 860 276 852 297 846 310 L 860 318 C 883 305 916 282 935 265 C 953 264 964 262 971 256 L 902 187 L 865 226 L 704 226 L 704 135 L 903 135 C 917 135 927 130 929 119 C 897 90 844 49 844 49 L 798 105 L 455 105 L 462 135 L 647 135 L 647 226 L 495 226 C 493 214 491 201 488 188 L 470 187 C 472 221 450 263 429 279 C 411 292 400 313 410 331 C 422 351 455 346 470 332 C 484 317 494 291 496 256 Z M 733 500 L 905 500 C 918 500 927 495 929 484 C 905 460 870 430 870 430 L 837 471 L 725 471 L 733 500 Z M 843 314 L 811 353 L 724 353 L 732 383 L 877 383 C 891 383 899 378 902 367 C 879 343 843 314 843 314 Z M 578 316 L 547 353 L 456 353 L 463 383 L 612 383 C 624 383 633 378 636 367 C 614 343 578 316 578 316 Z M 578 435 L 547 474 L 453 474 L 459 503 L 612 503 C 624 503 633 498 636 487 C 614 464 578 435 578 435 Z M 906 677 L 870 727 L 867 727 L 867 629 C 881 626 895 619 900 612 L 830 558 L 797 592 L 467 592 L 476 622 L 805 622 L 805 727 L 414 727 L 422 755 L 805 755 L 805 870 L 460 870 L 469 900 L 805 900 L 805 957 L 815 957 C 835 957 866 943 867 936 L 867 755 L 949 755 C 962 755 971 751 974 740 C 949 713 906 677 906 677 Z" fill="red" fill-opacity="0.5" /><text text-anchor="middle" x="500" y="1064" font-family="Arial" font-size="64">Source Han Serif TW</text><text text-anchor="middle" x="1500" y="1064" font-family="Arial" font-size="64">HKSerif (uni825DHK-regular)</text></svg>