<svg width="3000" height="1080" xmlns="http://www.w3.org/2000/svg" style="background:#fff"><path d="M 59 181 L 321 181 L 321 270 L 331 270 C 355 270 383 261 383 253 L 383 181 L 621 181 L 621 268 L 632 268 C 663 267 684 255 684 249 L 684 181 L 932 181 C 946 181 956 176 958 165 C 927 135 873 93 873 93 L 826 151 L 684 151 L 684 80 C 709 77 718 67 720 53 L 621 43 L 621 151 L 383 151 L 383 80 C 408 77 417 67 419 53 L 321 43 L 321 151 L 53 151 L 59 181 Z M 692 841 L 702 841 C 735 841 757 827 757 823 L 757 518 L 931 518 C 945 518 955 513 957 502 C 923 470 869 429 869 429 L 821 489 L 488 489 L 488 478 L 488 360 C 614 350 750 325 840 304 C 864 314 881 314 890 306 L 814 233 C 743 266 615 308 499 335 L 425 311 L 425 477 C 425 580 418 691 340 783 L 352 797 C 461 720 483 609 487 518 L 692 518 L 692 841 Z M 134 228 L 122 235 C 159 278 207 348 222 399 C 289 446 340 313 134 228 Z M 259 740 L 259 518 C 286 514 300 506 307 499 L 222 428 L 182 478 L 47 478 L 53 508 L 197 508 L 197 756 C 154 787 87 843 42 874 L 101 952 C 108 945 111 936 107 928 C 142 880 200 808 223 778 C 233 764 243 763 256 778 C 349 896 443 931 630 931 L 912 931 C 916 902 933 880 963 874 L 963 861 C 850 865 760 866 649 866 C 469 866 359 847 271 750 C 266 746 263 743 259 740 Z" fill="blue" /><path transform="translate(1000)" d="M 59 173 L 321 173 L 321 262 L 331 262 C 355 262 383 253 383 245 L 383 173 L 621 173 L 621 248 L 632 248 C 663 247 684 235 684 229 L 684 173 L 932 173 C 946 173 956 168 958 157 C 927 135 873 93 873 93 L 826 143 L 684 143 L 684 72 C 709 69 718 59 720 45 L 621 35 L 621 143 L 383 143 L 383 80 C 408 77 417 67 419 53 L 321 43 L 321 143 L 53 143 L 59 173 Z M 692 839 L 702 839 C 735 839 757 825 757 821 L 757 511 L 931 511 C 945 511 955 506 957 495 C 923 463 869 421 869 421 L 821 481 L 488 481 L 488 352 C 614 342 750 318 840 297 C 864 306 881 307 890 298 L 814 226 C 743 258 615 300 499 327 L 425 303 L 425 486 C 425 602 412 726 313 827 L 326 839 C 463 750 485 617 488 511 L 692 511 L 692 839 Z M 118 221 L 108 230 C 151 261 207 317 224 363 C 293 399 328 261 118 221 Z M 62 384 L 54 393 C 99 421 156 474 177 518 C 247 550 275 412 62 384 Z M 240 790 L 240 661 C 267 657 281 649 288 642 L 203 571 L 164 622 L 39 622 L 45 651 L 178 651 L 178 806 C 128 831 73 857 39 871 L 83 953 C 91 948 96 942 95 929 C 131 900 189 848 226 808 C 299 909 378 930 560 930 L 914 930 C 918 900 935 881 965 876 L 965 862 C 842 866 678 866 559 866 C 385 866 310 857 240 790 Z" fill="red" /><path transform="translate(2000)" d="M 59 181 L 321 181 L 321 270 L 331 270 C 355 270 383 261 383 253 L 383 181 L 621 181 L 621 268 L 632 268 C 663 267 684 255 684 249 L 684 181 L 932 181 C 946 181 956 176 958 165 C 927 135 873 93 873 93 L 826 151 L 684 151 L 684 80 C 709 77 718 67 720 53 L 621 43 L 621 151 L 383 151 L 383 80 C 408 77 417 67 419 53 L 321 43 L 321 151 L 53 151 L 59 181 Z M 692 841 L 702 841 C 735 841 757 827 757 823 L 757 518 L 931 518 C 945 518 955 513 957 502 C 923 470 869 429 869 429 L 821 489 L 488 489 L 488 478 L 488 360 C 614 350 750 325 840 304 C 864 314 881 314 890 306 L 814 233 C 743 266 615 308 499 335 L 425 311 L 425 477 C 425 580 418 691 340 783 L 352 797 C 461 720 483 609 487 518 L 692 518 L 692 841 Z M 134 228 L 122 235 C 159 278 207 348 222 399 C 289 446 340 313 134 228 Z M 259 740 L 259 518 C 286 514 300 506 307 499 L 222 428 L 182 478 L 47 478 L 53 508 L 197 508 L 197 756 C 154 787 87 843 42 874 L 101 952 C 108 945 111 936 107 928 C 142 880 200 808 223 778 C 233 764 243 763 256 778 C 349 896 443 931 630 931 L 912 931 C 916 902 933 880 963 874 L 963 861 C 850 865 760 866 649 866 C 469 866 359 847 271 750 C 266 746 263 743 259 740 Z" fill="blue" fill-opacity="0.5" /><path transform="translate(2000)" d="M 59 173 L 321 173 L 321 262 L 331 262 C 355 262 383 253 383 245 L 383 173 L 621 173 L 621 248 L 632 248 C 663 247 684 235 684 229 L 684 173 L 932 173 C 946 173 956 168 958 157 C 927 135 873 93 873 93 L 826 143 L 684 143 L 684 72 C 709 69 718 59 720 45 L 621 35 L 621 143 L 383 143 L 383 80 C 408 77 417 67 419 53 L 321 43 L 321 143 L 53 143 L 59 173 Z M 692 839 L 702 839 C 735 839 757 825 757 821 L 757 511 L 931 511 C 945 511 955 506 957 495 C 923 463 869 421 869 421 L 821 481 L 488 481 L 488 352 C 614 342 750 318 840 297 C 864 306 881 307 890 298 L 814 226 C 743 258 615 300 499 327 L 425 303 L 425 486 C 425 602 412 726 313 827 L 326 839 C 463 750 485 617 488 511 L 692 511 L 692 839 Z M 118 221 L 108 230 C 151 261 207 317 224 363 C 293 399 328 261 118 221 Z M 62 384 L 54 393 C 99 421 156 474 177 518 C 247 550 275 412 62 384 Z M 240 790 L 240 661 C 267 657 281 649 288 642 L 203 571 L 164 622 L 39 622 L 45 651 L 178 651 L 178 806 C 128 831 73 857 39 871 L 83 953 C 91 948 96 942 95 929 C 131 900 189 848 226 808 C 299 909 378 930 560 930 L 914 930 C 918 900 935 881 965 876 L 965 862 C 842 866 678 866 559 866 C 385 866 310 857 240 790 Z" fill="red" fill-opacity="0.5" /><text text-anchor="middle" x="500" y="1064" font-family="Arial" font-size="64">Source Han Serif TW</text><text text-anchor="middle" x="1500" y="1064" font-family="Arial" font-size="64">HKSerif (uni83E6HK-regular)</text></svg>