<svg width="3000" height="1080" xmlns="http://www.w3.org/2000/svg" style="background:#fff"><path d="M 524 164 L 532 194 L 651 194 L 635 294 C 661 301 685 298 697 289 L 713 194 L 927 194 C 941 194 950 189 953 178 C 922 148 872 108 872 108 L 828 164 L 717 164 L 730 86 C 755 86 766 77 769 64 L 676 43 L 656 164 L 524 164 Z M 608 763 L 398 763 L 405 793 L 890 793 C 904 793 914 788 916 777 C 883 744 827 701 827 701 L 779 763 L 672 763 L 672 579 L 838 579 C 852 579 862 574 865 563 C 831 531 776 487 776 487 L 727 549 L 672 549 L 672 384 C 729 375 782 365 824 356 C 847 365 865 365 874 357 L 800 288 C 714 324 550 370 414 392 L 418 408 C 480 405 546 400 608 392 L 608 549 L 437 549 L 445 579 L 608 579 L 608 763 Z M 52 164 L 60 194 L 241 194 L 257 308 C 285 309 309 302 318 290 L 304 194 L 473 194 C 486 194 496 189 498 178 C 468 148 417 108 417 108 L 374 164 L 299 164 L 286 78 C 307 73 315 63 316 52 L 222 44 L 237 164 L 52 164 Z M 414 570 L 346 510 L 308 547 L 205 547 C 244 499 296 431 326 389 C 352 386 375 380 384 370 L 304 304 L 268 344 L 73 344 L 82 373 L 262 373 C 231 421 182 487 146 531 C 131 535 114 541 104 546 L 160 599 L 190 576 L 312 576 C 293 654 263 728 218 792 C 175 761 141 719 112 660 L 97 669 C 126 733 158 782 197 819 C 157 867 108 909 48 944 L 57 960 C 127 929 184 891 229 846 C 320 913 443 929 624 929 L 905 929 C 907 904 921 884 949 879 L 949 866 C 869 867 701 868 628 868 C 465 868 346 859 257 816 C 316 747 352 668 376 583 C 397 581 407 579 414 570 Z" fill="blue" /><path transform="translate(1000)" d="M 48 184 L 310 184 L 310 282 L 321 282 C 347 282 374 273 374 265 L 374 184 L 613 184 L 613 279 L 624 279 C 655 279 678 267 678 260 L 678 184 L 926 184 C 940 184 950 179 952 168 C 920 138 866 95 866 95 L 818 154 L 678 154 L 678 77 C 703 74 712 64 713 50 L 613 40 L 613 154 L 374 154 L 374 77 C 400 74 408 64 410 50 L 310 40 L 310 154 L 41 154 L 48 184 Z M 606 751 L 375 751 L 382 779 L 913 779 C 927 779 936 774 939 763 C 905 731 849 686 849 686 L 799 751 L 671 751 L 671 551 L 878 551 C 892 551 901 546 904 535 C 871 504 816 460 816 460 L 768 522 L 671 522 L 671 360 C 735 352 794 342 842 333 C 865 342 883 343 892 334 L 820 263 C 723 300 539 346 387 365 L 391 383 C 461 381 535 376 606 368 L 606 522 L 410 522 L 418 551 L 606 551 L 606 751 Z M 390 540 L 322 479 L 284 517 L 206 517 C 239 471 278 407 304 365 C 330 362 352 356 362 345 L 282 281 L 247 319 L 68 319 L 77 349 L 243 349 C 216 396 177 460 147 503 C 133 507 117 512 108 518 L 166 570 L 194 546 L 288 546 C 273 625 249 702 210 771 C 174 736 144 691 119 632 L 104 640 C 130 706 159 758 192 799 C 155 856 106 907 44 948 L 54 943 C 124 927 180 882 223 830 C 315 916 443 936 637 936 L 918 936 C 920 911 934 891 961 886 L 961 872 C 882 874 714 874 640 874 C 461 874 337 862 246 801 C 300 726 332 642 352 553 C 373 551 384 549 390 540 Z" fill="red" /><path transform="translate(2000)" d="M 524 164 L 532 194 L 651 194 L 635 294 C 661 301 685 298 697 289 L 713 194 L 927 194 C 941 194 950 189 953 178 C 922 148 872 108 872 108 L 828 164 L 717 164 L 730 86 C 755 86 766 77 769 64 L 676 43 L 656 164 L 524 164 Z M 608 763 L 398 763 L 405 793 L 890 793 C 904 793 914 788 916 777 C 883 744 827 701 827 701 L 779 763 L 672 763 L 672 579 L 838 579 C 852 579 862 574 865 563 C 831 531 776 487 776 487 L 727 549 L 672 549 L 672 384 C 729 375 782 365 824 356 C 847 365 865 365 874 357 L 800 288 C 714 324 550 370 414 392 L 418 408 C 480 405 546 400 608 392 L 608 549 L 437 549 L 445 579 L 608 579 L 608 763 Z M 52 164 L 60 194 L 241 194 L 257 308 C 285 309 309 302 318 290 L 304 194 L 473 194 C 486 194 496 189 498 178 C 468 148 417 108 417 108 L 374 164 L 299 164 L 286 78 C 307 73 315 63 316 52 L 222 44 L 237 164 L 52 164 Z M 414 570 L 346 510 L 308 547 L 205 547 C 244 499 296 431 326 389 C 352 386 375 380 384 370 L 304 304 L 268 344 L 73 344 L 82 373 L 262 373 C 231 421 182 487 146 531 C 131 535 114 541 104 546 L 160 599 L 190 576 L 312 576 C 293 654 263 728 218 792 C 175 761 141 719 112 660 L 97 669 C 126 733 158 782 197 819 C 157 867 108 909 48 944 L 57 960 C 127 929 184 891 229 846 C 320 913 443 929 624 929 L 905 929 C 907 904 921 884 949 879 L 949 866 C 869 867 701 868 628 868 C 465 868 346 859 257 816 C 316 747 352 668 376 583 C 397 581 407 579 414 570 Z" fill="blue" fill-opacity="0.5" /><path transform="translate(2000)" d="M 48 184 L 310 184 L 310 282 L 321 282 C 347 282 374 273 374 265 L 374 184 L 613 184 L 613 279 L 624 279 C 655 279 678 267 678 260 L 678 184 L 926 184 C 940 184 950 179 952 168 C 920 138 866 95 866 95 L 818 154 L 678 154 L 678 77 C 703 74 712 64 713 50 L 613 40 L 613 154 L 374 154 L 374 77 C 400 74 408 64 410 50 L 310 40 L 310 154 L 41 154 L 48 184 Z M 606 751 L 375 751 L 382 779 L 913 779 C 927 779 936 774 939 763 C 905 731 849 686 849 686 L 799 751 L 671 751 L 671 551 L 878 551 C 892 551 901 546 904 535 C 871 504 816 460 816 460 L 768 522 L 671 522 L 671 360 C 735 352 794 342 842 333 C 865 342 883 343 892 334 L 820 263 C 723 300 539 346 387 365 L 391 383 C 461 381 535 376 606 368 L 606 522 L 410 522 L 418 551 L 606 551 L 606 751 Z M 390 540 L 322 479 L 284 517 L 206 517 C 239 471 278 407 304 365 C 330 362 352 356 362 345 L 282 281 L 247 319 L 68 319 L 77 349 L 243 349 C 216 396 177 460 147 503 C 133 507 117 512 108 518 L 166 570 L 194 546 L 288 546 C 273 625 249 702 210 771 C 174 736 144 691 119 632 L 104 640 C 130 706 159 758 192 799 C 155 856 106 907 44 948 L 54 943 C 124 927 180 882 223 830 C 315 916 443 936 637 936 L 918 936 C 920 911 934 891 961 886 L 961 872 C 882 874 714 874 640 874 C 461 874 337 862 246 801 C 300 726 332 642 352 553 C 373 551 384 549 390 540 Z" fill="red" fill-opacity="0.5" /><text text-anchor="middle" x="500" y="1064" font-family="Arial" font-size="64">Source Han Serif TW</text><text text-anchor="middle" x="1500" y="1064" font-family="Arial" font-size="64">HKSerif (uni839BHK-regular)</text></svg>