<svg width="3000" height="1080" xmlns="http://www.w3.org/2000/svg" style="background:#fff"><path d="M 575 47 L 563 53 C 592 89 622 147 625 194 C 680 243 740 123 575 47 Z M 434 388 L 383 388 L 383 331 L 420 331 C 425 331 430 329 434 327 L 434 388 Z M 201 388 L 201 331 L 240 331 C 246 331 250 329 254 327 L 254 388 L 201 388 Z M 201 311 L 201 255 L 234 255 C 245 255 253 249 254 242 C 241 227 223 210 223 210 L 204 236 L 201 236 L 201 181 L 236 181 C 244 181 250 178 254 174 L 254 310 C 242 297 228 285 228 285 L 210 311 L 201 311 Z M 383 311 L 383 255 L 412 255 C 423 255 431 249 433 242 C 419 227 401 209 401 209 L 383 235 L 383 181 L 415 181 C 424 181 431 177 434 171 L 434 310 C 421 296 406 283 406 283 L 386 311 L 383 311 Z M 434 442 L 443 442 C 459 442 479 430 479 423 L 479 117 C 499 114 508 106 509 93 L 434 84 L 434 167 C 421 152 404 135 404 135 L 383 162 L 383 103 C 398 100 405 93 406 83 L 345 75 L 345 162 L 310 162 L 316 181 L 345 181 L 345 236 L 316 236 L 321 255 L 345 255 L 345 311 L 306 311 L 312 331 L 345 331 L 345 388 L 300 388 L 300 74 C 318 71 326 63 328 51 L 254 42 L 254 165 C 241 151 225 136 225 136 L 206 162 L 201 162 L 201 102 C 215 99 222 93 224 82 L 164 75 L 164 162 L 129 162 L 135 181 L 164 181 L 164 236 L 135 236 L 141 255 L 164 255 L 164 311 L 125 311 L 131 331 L 164 331 L 164 388 L 118 388 L 118 116 C 150 111 159 102 161 90 L 72 82 L 72 385 C 61 391 51 398 45 404 L 103 448 L 125 417 L 434 417 L 434 442 L 430 439 L 393 481 L 40 481 L 48 511 L 472 511 C 486 511 495 506 497 495 C 476 474 445 449 434 442 Z M 159 603 L 387 603 L 387 688 L 159 688 L 159 603 Z M 486 834 L 484 818 C 432 825 382 830 333 836 C 355 815 375 791 390 770 C 411 770 423 761 426 749 L 331 728 C 324 761 310 807 297 841 L 240 848 C 255 823 243 772 158 733 C 159 732 159 731 159 730 L 159 717 L 387 717 L 387 738 L 396 738 C 416 738 447 724 448 718 L 448 612 C 465 609 480 601 486 594 L 411 538 L 378 573 L 171 573 L 99 543 L 99 750 L 108 750 C 125 750 138 745 147 741 C 166 770 185 816 187 850 L 191 853 C 131 860 83 865 52 867 L 87 950 C 97 948 106 940 111 927 C 277 890 399 859 486 834 Z M 692 538 L 576 538 C 582 500 589 450 594 411 L 692 411 L 692 538 Z M 751 382 L 751 247 L 855 247 L 855 382 L 751 382 Z M 973 559 L 902 503 L 869 538 L 751 538 L 751 411 L 855 411 L 855 448 L 865 448 C 885 448 914 434 915 428 L 915 255 C 932 252 947 244 951 237 L 879 183 L 846 217 L 762 217 C 797 177 833 126 856 90 C 878 91 889 82 893 70 L 798 42 C 783 94 758 166 736 217 L 512 217 L 521 247 L 692 247 L 692 382 L 616 382 L 541 349 C 538 395 528 476 520 528 C 506 533 491 540 482 547 L 551 599 L 580 567 L 647 567 C 608 690 543 806 445 893 L 457 908 C 564 836 642 744 692 634 L 692 957 L 701 957 C 731 957 751 941 751 937 L 751 567 L 878 567 C 874 692 868 752 856 768 C 853 772 849 773 841 773 C 828 773 790 771 768 769 L 768 786 C 789 790 813 797 822 805 C 832 812 837 828 837 840 C 859 840 880 833 896 819 C 924 794 931 724 937 574 C 955 571 967 566 973 559 Z" fill="blue" /><path transform="translate(1000)" d="M 434 388 L 383 388 L 383 331 L 420 331 C 425 331 430 329 434 327 L 434 388 Z M 201 388 L 201 331 L 240 331 C 246 331 250 329 254 327 L 254 388 L 201 388 Z M 201 311 L 201 255 L 234 255 C 245 255 253 249 254 242 C 241 227 223 210 223 210 L 204 236 L 201 236 L 201 181 L 236 181 C 244 181 250 178 254 174 L 254 310 C 242 297 228 285 228 285 L 210 311 L 201 311 Z M 383 311 L 383 255 L 412 255 C 423 255 431 249 433 242 C 419 227 401 209 401 209 L 383 235 L 383 181 L 415 181 C 424 181 431 177 434 171 L 434 310 C 421 296 406 283 406 283 L 386 311 L 383 311 Z M 434 442 L 443 442 C 459 442 479 430 479 423 L 479 117 C 499 114 508 106 509 93 L 434 84 L 434 167 C 421 152 404 135 404 135 L 383 162 L 383 103 C 398 100 405 93 406 83 L 345 75 L 345 162 L 310 162 L 316 181 L 345 181 L 345 236 L 316 236 L 321 255 L 345 255 L 345 311 L 306 311 L 312 331 L 345 331 L 345 388 L 300 388 L 300 74 C 318 71 326 63 328 51 L 254 42 L 254 165 C 241 151 225 136 225 136 L 206 162 L 201 162 L 201 102 C 215 99 222 93 224 82 L 164 75 L 164 162 L 129 162 L 135 181 L 164 181 L 164 236 L 135 236 L 141 255 L 164 255 L 164 311 L 125 311 L 131 331 L 164 331 L 164 388 L 118 388 L 118 116 C 150 111 159 102 161 90 L 72 82 L 72 417 L 125 417 L 434 417 L 434 442 L 430 439 L 393 481 L 40 481 L 48 511 L 472 511 C 486 511 495 506 497 495 C 476 474 445 449 434 442 Z M 159 603 L 387 603 L 387 688 L 159 688 L 159 603 Z M 486 834 L 484 818 C 432 825 382 830 333 836 C 355 815 375 791 390 770 C 411 770 423 761 426 749 L 331 728 C 324 761 310 807 297 841 L 240 848 C 255 823 243 772 158 733 C 159 732 159 731 159 730 L 159 717 L 387 717 L 387 738 L 396 738 C 416 738 447 724 448 718 L 448 612 C 465 609 480 601 486 594 L 411 538 L 378 573 L 171 573 L 99 543 L 99 750 L 108 750 C 125 750 138 745 147 741 C 166 770 185 816 187 850 L 191 853 C 131 860 83 865 52 867 L 87 950 C 97 948 106 940 111 927 C 277 890 399 859 486 834 Z M 575 47 L 563 53 C 592 89 622 147 624 193 C 680 243 740 122 575 47 Z M 692 537 L 580 537 C 585 492 590 444 593 409 L 692 409 L 692 537 Z M 751 380 L 751 246 L 855 246 L 855 380 L 751 380 Z M 972 558 L 902 502 L 869 537 L 751 537 L 751 409 L 855 409 L 855 447 L 865 447 C 884 447 914 432 915 426 L 915 254 C 932 251 947 243 952 236 L 878 181 L 846 216 L 761 216 C 796 175 833 125 856 89 C 877 90 889 81 893 69 L 797 41 C 783 92 758 164 736 216 L 512 216 L 521 246 L 692 246 L 692 380 L 611 380 L 542 342 C 538 412 522 534 509 618 C 540 624 555 622 570 613 C 572 599 574 583 576 566 L 667 566 C 621 694 543 809 432 894 L 443 910 C 552 846 634 764 692 666 L 692 956 L 701 956 C 731 956 751 940 751 936 L 751 566 L 877 566 C 873 691 868 752 856 767 C 853 771 849 772 841 772 C 827 772 789 770 768 768 L 768 785 C 789 789 812 796 821 804 C 831 812 836 828 836 839 C 859 839 879 833 895 819 C 924 793 931 723 937 573 C 954 570 966 565 972 558 Z M 118 417 L 72 380 L 72 461 L 81 461 C 96 461 118 448 118 441 L 118 417 Z" fill="red" /><path transform="translate(2000)" d="M 575 47 L 563 53 C 592 89 622 147 625 194 C 680 243 740 123 575 47 Z M 434 388 L 383 388 L 383 331 L 420 331 C 425 331 430 329 434 327 L 434 388 Z M 201 388 L 201 331 L 240 331 C 246 331 250 329 254 327 L 254 388 L 201 388 Z M 201 311 L 201 255 L 234 255 C 245 255 253 249 254 242 C 241 227 223 210 223 210 L 204 236 L 201 236 L 201 181 L 236 181 C 244 181 250 178 254 174 L 254 310 C 242 297 228 285 228 285 L 210 311 L 201 311 Z M 383 311 L 383 255 L 412 255 C 423 255 431 249 433 242 C 419 227 401 209 401 209 L 383 235 L 383 181 L 415 181 C 424 181 431 177 434 171 L 434 310 C 421 296 406 283 406 283 L 386 311 L 383 311 Z M 434 442 L 443 442 C 459 442 479 430 479 423 L 479 117 C 499 114 508 106 509 93 L 434 84 L 434 167 C 421 152 404 135 404 135 L 383 162 L 383 103 C 398 100 405 93 406 83 L 345 75 L 345 162 L 310 162 L 316 181 L 345 181 L 345 236 L 316 236 L 321 255 L 345 255 L 345 311 L 306 311 L 312 331 L 345 331 L 345 388 L 300 388 L 300 74 C 318 71 326 63 328 51 L 254 42 L 254 165 C 241 151 225 136 225 136 L 206 162 L 201 162 L 201 102 C 215 99 222 93 224 82 L 164 75 L 164 162 L 129 162 L 135 181 L 164 181 L 164 236 L 135 236 L 141 255 L 164 255 L 164 311 L 125 311 L 131 331 L 164 331 L 164 388 L 118 388 L 118 116 C 150 111 159 102 161 90 L 72 82 L 72 385 C 61 391 51 398 45 404 L 103 448 L 125 417 L 434 417 L 434 442 L 430 439 L 393 481 L 40 481 L 48 511 L 472 511 C 486 511 495 506 497 495 C 476 474 445 449 434 442 Z M 159 603 L 387 603 L 387 688 L 159 688 L 159 603 Z M 486 834 L 484 818 C 432 825 382 830 333 836 C 355 815 375 791 390 770 C 411 770 423 761 426 749 L 331 728 C 324 761 310 807 297 841 L 240 848 C 255 823 243 772 158 733 C 159 732 159 731 159 730 L 159 717 L 387 717 L 387 738 L 396 738 C 416 738 447 724 448 718 L 448 612 C 465 609 480 601 486 594 L 411 538 L 378 573 L 171 573 L 99 543 L 99 750 L 108 750 C 125 750 138 745 147 741 C 166 770 185 816 187 850 L 191 853 C 131 860 83 865 52 867 L 87 950 C 97 948 106 940 111 927 C 277 890 399 859 486 834 Z M 692 538 L 576 538 C 582 500 589 450 594 411 L 692 411 L 692 538 Z M 751 382 L 751 247 L 855 247 L 855 382 L 751 382 Z M 973 559 L 902 503 L 869 538 L 751 538 L 751 411 L 855 411 L 855 448 L 865 448 C 885 448 914 434 915 428 L 915 255 C 932 252 947 244 951 237 L 879 183 L 846 217 L 762 217 C 797 177 833 126 856 90 C 878 91 889 82 893 70 L 798 42 C 783 94 758 166 736 217 L 512 217 L 521 247 L 692 247 L 692 382 L 616 382 L 541 349 C 538 395 528 476 520 528 C 506 533 491 540 482 547 L 551 599 L 580 567 L 647 567 C 608 690 543 806 445 893 L 457 908 C 564 836 642 744 692 634 L 692 957 L 701 957 C 731 957 751 941 751 937 L 751 567 L 878 567 C 874 692 868 752 856 768 C 853 772 849 773 841 773 C 828 773 790 771 768 769 L 768 786 C 789 790 813 797 822 805 C 832 812 837 828 837 840 C 859 840 880 833 896 819 C 924 794 931 724 937 574 C 955 571 967 566 973 559 Z" fill="blue" fill-opacity="0.5" /><path transform="translate(2000)" d="M 434 388 L 383 388 L 383 331 L 420 331 C 425 331 430 329 434 327 L 434 388 Z M 201 388 L 201 331 L 240 331 C 246 331 250 329 254 327 L 254 388 L 201 388 Z M 201 311 L 201 255 L 234 255 C 245 255 253 249 254 242 C 241 227 223 210 223 210 L 204 236 L 201 236 L 201 181 L 236 181 C 244 181 250 178 254 174 L 254 310 C 242 297 228 285 228 285 L 210 311 L 201 311 Z M 383 311 L 383 255 L 412 255 C 423 255 431 249 433 242 C 419 227 401 209 401 209 L 383 235 L 383 181 L 415 181 C 424 181 431 177 434 171 L 434 310 C 421 296 406 283 406 283 L 386 311 L 383 311 Z M 434 442 L 443 442 C 459 442 479 430 479 423 L 479 117 C 499 114 508 106 509 93 L 434 84 L 434 167 C 421 152 404 135 404 135 L 383 162 L 383 103 C 398 100 405 93 406 83 L 345 75 L 345 162 L 310 162 L 316 181 L 345 181 L 345 236 L 316 236 L 321 255 L 345 255 L 345 311 L 306 311 L 312 331 L 345 331 L 345 388 L 300 388 L 300 74 C 318 71 326 63 328 51 L 254 42 L 254 165 C 241 151 225 136 225 136 L 206 162 L 201 162 L 201 102 C 215 99 222 93 224 82 L 164 75 L 164 162 L 129 162 L 135 181 L 164 181 L 164 236 L 135 236 L 141 255 L 164 255 L 164 311 L 125 311 L 131 331 L 164 331 L 164 388 L 118 388 L 118 116 C 150 111 159 102 161 90 L 72 82 L 72 417 L 125 417 L 434 417 L 434 442 L 430 439 L 393 481 L 40 481 L 48 511 L 472 511 C 486 511 495 506 497 495 C 476 474 445 449 434 442 Z M 159 603 L 387 603 L 387 688 L 159 688 L 159 603 Z M 486 834 L 484 818 C 432 825 382 830 333 836 C 355 815 375 791 390 770 C 411 770 423 761 426 749 L 331 728 C 324 761 310 807 297 841 L 240 848 C 255 823 243 772 158 733 C 159 732 159 731 159 730 L 159 717 L 387 717 L 387 738 L 396 738 C 416 738 447 724 448 718 L 448 612 C 465 609 480 601 486 594 L 411 538 L 378 573 L 171 573 L 99 543 L 99 750 L 108 750 C 125 750 138 745 147 741 C 166 770 185 816 187 850 L 191 853 C 131 860 83 865 52 867 L 87 950 C 97 948 106 940 111 927 C 277 890 399 859 486 834 Z M 575 47 L 563 53 C 592 89 622 147 624 193 C 680 243 740 122 575 47 Z M 692 537 L 580 537 C 585 492 590 444 593 409 L 692 409 L 692 537 Z M 751 380 L 751 246 L 855 246 L 855 380 L 751 380 Z M 972 558 L 902 502 L 869 537 L 751 537 L 751 409 L 855 409 L 855 447 L 865 447 C 884 447 914 432 915 426 L 915 254 C 932 251 947 243 952 236 L 878 181 L 846 216 L 761 216 C 796 175 833 125 856 89 C 877 90 889 81 893 69 L 797 41 C 783 92 758 164 736 216 L 512 216 L 521 246 L 692 246 L 692 380 L 611 380 L 542 342 C 538 412 522 534 509 618 C 540 624 555 622 570 613 C 572 599 574 583 576 566 L 667 566 C 621 694 543 809 432 894 L 443 910 C 552 846 634 764 692 666 L 692 956 L 701 956 C 731 956 751 940 751 936 L 751 566 L 877 566 C 873 691 868 752 856 767 C 853 771 849 772 841 772 C 827 772 789 770 768 768 L 768 785 C 789 789 812 796 821 804 C 831 812 836 828 836 839 C 859 839 879 833 895 819 C 924 793 931 723 937 573 C 954 570 966 565 972 558 Z M 118 417 L 72 380 L 72 461 L 81 461 C 96 461 118 448 118 441 L 118 417 Z" fill="red" fill-opacity="0.5" /><text text-anchor="middle" x="500" y="1064" font-family="Arial" font-size="64">Source Han Serif KR</text><text text-anchor="middle" x="1500" y="1064" font-family="Arial" font-size="64">HKSerif (uni8C52KX-regular)</text></svg>