<svg width="3000" height="1080" xmlns="http://www.w3.org/2000/svg" style="background:#fff"><path d="M 51 138 L 60 167 L 235 167 L 244 234 C 272 233 295 227 304 214 L 297 167 L 472 167 C 486 167 495 162 497 151 C 469 123 423 86 423 86 L 382 138 L 293 138 L 284 77 C 304 71 311 61 313 50 L 219 42 L 232 138 L 51 138 Z M 646 278 L 552 238 C 512 283 415 370 339 401 C 332 404 316 407 316 407 L 356 483 C 363 480 369 473 374 464 C 408 460 442 456 473 452 C 452 524 397 564 292 593 L 297 609 C 430 589 514 547 543 444 C 570 440 596 436 622 433 L 622 523 C 622 561 632 574 694 574 L 767 574 C 886 574 908 567 908 544 C 908 531 900 527 881 522 L 877 521 L 868 521 C 863 523 855 524 849 525 C 846 526 839 526 834 526 C 823 527 800 527 773 527 L 707 527 C 683 527 681 524 681 513 L 681 443 L 681 425 C 716 420 747 415 776 411 C 790 430 802 449 808 465 C 875 506 915 376 689 290 L 678 298 C 704 323 734 356 761 391 C 623 399 490 406 402 409 C 478 375 557 329 605 293 C 629 296 642 287 646 278 Z M 282 460 L 246 447 C 277 403 304 355 329 304 C 350 307 363 298 368 287 L 269 248 C 220 394 139 531 60 615 L 73 626 C 113 599 150 563 186 523 L 186 956 L 199 956 C 223 956 250 941 251 935 L 251 478 C 268 476 278 469 282 460 Z M 494 671 L 728 671 C 690 730 645 777 590 813 C 537 787 490 756 453 716 C 468 703 482 687 494 671 Z M 853 667 L 778 604 L 739 642 L 517 642 C 527 629 536 615 545 601 C 565 604 578 597 583 587 L 499 546 C 478 595 451 639 421 679 C 408 662 397 643 388 623 L 371 634 C 381 658 392 680 405 701 C 367 747 326 785 286 813 L 297 828 C 343 806 389 776 430 738 C 462 780 499 814 542 843 C 465 885 373 914 261 938 L 269 955 C 400 939 504 912 589 871 C 669 914 766 942 880 960 C 887 932 905 913 932 908 L 932 897 C 826 886 730 868 650 838 C 713 798 764 746 808 680 C 831 679 845 676 853 667 Z M 878 86 L 838 138 L 749 138 L 759 82 C 783 82 793 72 796 59 L 703 40 L 686 138 L 524 138 L 532 167 L 681 167 L 670 231 C 697 238 721 235 733 225 L 743 167 L 927 167 C 941 167 950 162 953 151 C 925 123 878 86 878 86 Z" fill="blue" /><path transform="translate(1000)" d="M 355 264 L 336 256 C 361 256 387 246 387 239 L 387 171 L 607 171 L 607 253 L 619 253 C 650 252 671 240 671 234 L 671 171 L 931 171 C 945 171 954 166 956 155 C 925 125 872 84 872 84 L 825 142 L 671 142 L 671 74 C 697 71 706 61 706 47 L 607 37 L 607 142 L 387 142 L 387 74 C 413 71 421 61 423 47 L 324 37 L 324 142 L 44 142 L 49 171 L 324 171 L 324 251 L 256 223 C 205 367 119 501 38 580 L 50 591 C 88 565 126 534 162 497 L 162 958 L 174 958 C 200 958 226 942 227 936 L 227 452 C 245 449 254 443 257 434 L 226 422 C 259 379 289 332 315 280 C 337 283 350 275 355 264 Z M 646 278 L 552 238 C 512 283 415 370 339 401 C 332 404 316 407 316 407 L 356 483 C 363 480 369 473 374 464 C 408 460 442 456 473 452 C 452 524 397 564 292 593 L 297 609 C 430 589 514 547 543 444 C 570 440 596 436 622 433 L 622 523 C 622 561 632 574 694 574 L 767 574 C 886 574 908 567 908 544 C 908 531 900 527 881 522 L 877 521 L 868 521 C 863 523 855 524 849 525 C 846 526 839 526 834 526 C 823 527 800 527 773 527 L 707 527 C 683 527 681 524 681 513 L 681 443 L 681 425 C 716 420 747 415 776 411 C 790 430 802 449 808 465 C 875 506 915 376 689 290 L 678 298 C 704 323 734 356 761 391 C 623 399 490 406 402 409 C 478 375 557 329 605 293 C 629 296 642 287 646 278 Z M 516 665 L 735 665 C 707 713 669 754 622 791 C 573 761 533 725 500 682 C 505 677 511 671 516 665 Z M 856 661 L 785 595 L 740 635 L 542 635 C 558 615 572 595 584 574 C 609 577 617 573 621 563 L 521 534 C 482 638 395 741 294 798 L 303 812 C 371 785 433 745 483 698 C 513 744 545 784 584 818 C 500 874 394 914 272 941 L 278 958 C 416 938 532 902 624 849 C 696 900 787 936 912 959 C 917 925 936 907 963 900 L 964 888 C 845 876 750 853 674 818 C 730 778 777 729 813 672 C 838 671 848 669 856 661 Z" fill="red" /><path transform="translate(2000)" d="M 51 138 L 60 167 L 235 167 L 244 234 C 272 233 295 227 304 214 L 297 167 L 472 167 C 486 167 495 162 497 151 C 469 123 423 86 423 86 L 382 138 L 293 138 L 284 77 C 304 71 311 61 313 50 L 219 42 L 232 138 L 51 138 Z M 646 278 L 552 238 C 512 283 415 370 339 401 C 332 404 316 407 316 407 L 356 483 C 363 480 369 473 374 464 C 408 460 442 456 473 452 C 452 524 397 564 292 593 L 297 609 C 430 589 514 547 543 444 C 570 440 596 436 622 433 L 622 523 C 622 561 632 574 694 574 L 767 574 C 886 574 908 567 908 544 C 908 531 900 527 881 522 L 877 521 L 868 521 C 863 523 855 524 849 525 C 846 526 839 526 834 526 C 823 527 800 527 773 527 L 707 527 C 683 527 681 524 681 513 L 681 443 L 681 425 C 716 420 747 415 776 411 C 790 430 802 449 808 465 C 875 506 915 376 689 290 L 678 298 C 704 323 734 356 761 391 C 623 399 490 406 402 409 C 478 375 557 329 605 293 C 629 296 642 287 646 278 Z M 282 460 L 246 447 C 277 403 304 355 329 304 C 350 307 363 298 368 287 L 269 248 C 220 394 139 531 60 615 L 73 626 C 113 599 150 563 186 523 L 186 956 L 199 956 C 223 956 250 941 251 935 L 251 478 C 268 476 278 469 282 460 Z M 494 671 L 728 671 C 690 730 645 777 590 813 C 537 787 490 756 453 716 C 468 703 482 687 494 671 Z M 853 667 L 778 604 L 739 642 L 517 642 C 527 629 536 615 545 601 C 565 604 578 597 583 587 L 499 546 C 478 595 451 639 421 679 C 408 662 397 643 388 623 L 371 634 C 381 658 392 680 405 701 C 367 747 326 785 286 813 L 297 828 C 343 806 389 776 430 738 C 462 780 499 814 542 843 C 465 885 373 914 261 938 L 269 955 C 400 939 504 912 589 871 C 669 914 766 942 880 960 C 887 932 905 913 932 908 L 932 897 C 826 886 730 868 650 838 C 713 798 764 746 808 680 C 831 679 845 676 853 667 Z M 878 86 L 838 138 L 749 138 L 759 82 C 783 82 793 72 796 59 L 703 40 L 686 138 L 524 138 L 532 167 L 681 167 L 670 231 C 697 238 721 235 733 225 L 743 167 L 927 167 C 941 167 950 162 953 151 C 925 123 878 86 878 86 Z" fill="blue" fill-opacity="0.5" /><path transform="translate(2000)" d="M 355 264 L 336 256 C 361 256 387 246 387 239 L 387 171 L 607 171 L 607 253 L 619 253 C 650 252 671 240 671 234 L 671 171 L 931 171 C 945 171 954 166 956 155 C 925 125 872 84 872 84 L 825 142 L 671 142 L 671 74 C 697 71 706 61 706 47 L 607 37 L 607 142 L 387 142 L 387 74 C 413 71 421 61 423 47 L 324 37 L 324 142 L 44 142 L 49 171 L 324 171 L 324 251 L 256 223 C 205 367 119 501 38 580 L 50 591 C 88 565 126 534 162 497 L 162 958 L 174 958 C 200 958 226 942 227 936 L 227 452 C 245 449 254 443 257 434 L 226 422 C 259 379 289 332 315 280 C 337 283 350 275 355 264 Z M 646 278 L 552 238 C 512 283 415 370 339 401 C 332 404 316 407 316 407 L 356 483 C 363 480 369 473 374 464 C 408 460 442 456 473 452 C 452 524 397 564 292 593 L 297 609 C 430 589 514 547 543 444 C 570 440 596 436 622 433 L 622 523 C 622 561 632 574 694 574 L 767 574 C 886 574 908 567 908 544 C 908 531 900 527 881 522 L 877 521 L 868 521 C 863 523 855 524 849 525 C 846 526 839 526 834 526 C 823 527 800 527 773 527 L 707 527 C 683 527 681 524 681 513 L 681 443 L 681 425 C 716 420 747 415 776 411 C 790 430 802 449 808 465 C 875 506 915 376 689 290 L 678 298 C 704 323 734 356 761 391 C 623 399 490 406 402 409 C 478 375 557 329 605 293 C 629 296 642 287 646 278 Z M 516 665 L 735 665 C 707 713 669 754 622 791 C 573 761 533 725 500 682 C 505 677 511 671 516 665 Z M 856 661 L 785 595 L 740 635 L 542 635 C 558 615 572 595 584 574 C 609 577 617 573 621 563 L 521 534 C 482 638 395 741 294 798 L 303 812 C 371 785 433 745 483 698 C 513 744 545 784 584 818 C 500 874 394 914 272 941 L 278 958 C 416 938 532 902 624 849 C 696 900 787 936 912 959 C 917 925 936 907 963 900 L 964 888 C 845 876 750 853 674 818 C 730 778 777 729 813 672 C 838 671 848 669 856 661 Z" fill="red" fill-opacity="0.5" /><text text-anchor="middle" x="500" y="1064" font-family="Arial" font-size="64">Source Han Serif TW</text><text text-anchor="middle" x="1500" y="1064" font-family="Arial" font-size="64">HKSerif (uni8470HK-regular-v2)</text></svg>