<svg width="1000" height="1000" xmlns="http://www.w3.org/2000/svg"><path d="M 906 677 L 870 727 L 867 727 L 867 629 C 881 626 895 619 900 612 L 830 558 L 797 592 L 467 592 L 476 622 L 805 622 L 805 727 L 414 727 L 422 755 L 805 755 L 805 870 L 460 870 L 469 900 L 805 900 L 805 957 L 815 957 C 835 957 866 943 867 936 L 867 755 L 949 755 C 962 755 971 751 974 740 C 949 713 906 677 906 677 Z" fill="black" /><path d="M 578 435 L 547 474 L 453 474 L 459 503 L 612 503 C 624 503 633 498 636 487 C 614 464 578 435 578 435 Z" fill="black" /><path d="M 578 316 L 547 353 L 456 353 L 463 383 L 612 383 C 624 383 633 378 636 367 C 614 343 578 316 578 316 Z" fill="black" /><path d="M 843 314 L 811 353 L 724 353 L 732 383 L 877 383 C 891 383 899 378 902 367 C 879 343 843 314 843 314 Z" fill="black" /><path d="M 733 500 L 905 500 C 918 500 927 495 929 484 C 905 460 870 430 870 430 L 837 471 L 725 471 L 733 500 Z" fill="black" /><path d="M 496 256 L 647 256 L 647 555 L 655 555 C 684 555 704 540 704 536 L 704 256 L 866 256 C 860 276 852 297 846 310 L 860 318 C 883 305 916 282 935 265 C 953 264 964 262 971 256 L 902 187 L 865 226 L 704 226 L 704 135 L 903 135 C 917 135 927 130 929 119 C 897 90 844 49 844 49 L 798 105 L 455 105 L 462 135 L 647 135 L 647 226 L 495 226 C 493 214 491 201 488 188 L 470 187 C 472 221 450 263 429 279 C 411 292 400 313 410 331 C 422 351 455 346 470 332 C 484 317 494 291 496 256 Z" fill="black" /><path d="M 207 551 L 193 558 C 223 616 231 698 233 743 C 268 796 346 682 207 551 Z" fill="black" /><path d="M 419 199 L 342 139 L 312 178 L 233 178 C 252 148 273 112 288 83 C 310 83 322 74 325 60 L 225 42 C 220 81 209 139 202 178 L 176 178 L 108 146 L 108 475 L 51 475 L 67 504 L 108 504 C 108 661 104 823 37 948 L 54 958 C 158 834 164 654 164 504 L 321 504 L 321 875 C 321 889 317 895 301 895 C 284 895 208 889 208 889 L 208 905 C 243 909 263 916 275 924 C 285 932 290 946 292 961 C 369 954 379 927 379 880 L 379 218 C 398 214 413 206 419 199 Z" fill="black" /><path d="M 321 475 L 164 475 L 164 208 L 321 208 L 321 475 Z" fill="white" /><path d="M 201 253 L 189 261 C 218 309 228 380 231 420 C 269 470 342 359 201 253 Z" fill="black" /></svg>