<svg width="1000" height="1000" xmlns="http://www.w3.org/2000/svg"><path d="M 950 499 L 879 432 L 842 470 L 159 470 C 158 455 154 437 149 418 L 132 418 C 135 474 103 528 70 548 C 49 561 37 582 46 601 C 58 624 92 622 115 605 C 138 588 158 552 160 500 L 839 500 C 829 520 817 544 806 561 C 785 544 765 529 765 529 L 724 576 L 160 576 L 169 606 L 269 606 C 223 674 141 746 60 790 L 70 805 C 110 789 151 769 189 745 C 214 763 239 792 247 818 C 299 849 339 756 210 732 C 226 722 243 710 258 698 L 413 698 C 334 818 218 889 53 941 L 63 958 C 269 910 395 833 486 705 C 508 704 520 700 527 693 L 458 634 L 424 668 L 293 668 C 314 648 334 628 350 606 L 550 606 L 550 868 C 550 917 566 932 645 932 L 757 932 C 919 932 950 920 950 892 C 950 879 943 871 921 865 L 918 774 L 905 774 C 896 814 886 851 878 863 C 873 870 869 872 858 873 C 844 874 806 874 760 874 L 655 874 C 616 874 613 870 613 855 L 613 791 C 694 771 780 737 829 707 C 852 713 868 712 876 703 L 798 650 C 760 687 685 736 613 767 L 613 624 L 613 606 L 815 606 C 828 606 838 601 841 590 C 835 585 828 579 822 573 C 851 557 890 530 911 509 C 931 508 942 506 950 499 Z" fill="black" /><path d="M 767 432 L 777 431 C 799 431 830 416 831 409 L 831 281 C 849 277 864 269 869 262 L 793 204 L 758 241 L 243 241 L 174 211 L 174 438 L 183 438 C 208 438 237 424 237 419 L 237 399 L 767 399 L 767 432 Z" fill="black" /><path d="M 430 271 L 569 271 L 569 369 L 430 369 L 430 271 Z" fill="white" /><path d="M 237 369 L 237 271 L 370 271 L 370 369 L 237 369 Z" fill="white" /><path d="M 767 369 L 629 369 L 629 271 L 767 271 L 767 369 Z" fill="white" /><path d="M 571 39 L 571 223 L 581 223 C 614 222 635 211 635 206 L 635 163 L 906 163 C 920 163 929 158 932 147 C 900 116 848 77 848 77 L 803 133 L 635 133 L 635 76 C 659 73 668 63 669 50 L 571 39 Z" fill="black" /><path d="M 92 163 L 364 163 L 364 225 L 374 225 C 402 225 427 218 427 210 L 427 76 C 452 73 461 63 463 50 L 364 39 L 364 133 L 86 133 L 92 163 Z" fill="black" /></svg>