<svg width="3000" height="1080" xmlns="http://www.w3.org/2000/svg" style="background:#fff"><path d="M 692 839 L 702 839 C 735 839 757 825 757 821 L 757 511 L 931 511 C 945 511 955 506 957 495 C 923 463 869 421 869 421 L 821 481 L 488 481 L 488 352 C 614 342 750 318 840 297 C 864 306 881 307 890 298 L 814 226 C 743 258 615 300 499 327 L 425 303 L 425 486 C 425 602 412 726 313 827 L 326 839 C 463 750 485 617 488 511 L 692 511 L 692 839 Z M 50 158 L 304 158 L 304 218 L 314 218 C 340 218 367 210 367 203 L 367 158 L 625 158 L 625 215 L 636 215 C 668 215 689 205 689 200 L 689 158 L 930 158 C 944 158 954 153 956 142 C 924 111 872 72 872 72 L 825 128 L 689 128 L 689 77 C 715 74 723 64 725 50 L 625 40 L 625 128 L 367 128 L 367 77 C 392 74 401 63 403 50 L 304 40 L 304 128 L 43 128 L 50 158 Z M 118 221 L 108 230 C 151 261 207 317 224 363 C 293 399 328 261 118 221 Z M 62 384 L 54 393 C 99 421 156 474 177 518 C 247 550 275 412 62 384 Z M 240 790 L 240 661 C 267 657 281 649 288 642 L 203 571 L 164 622 L 39 622 L 45 651 L 178 651 L 178 806 C 128 831 73 857 39 871 L 83 953 C 91 948 96 942 95 929 C 131 900 189 848 226 808 C 299 909 378 930 560 930 L 914 930 C 918 900 935 881 965 876 L 965 862 C 842 866 678 866 559 866 C 385 866 310 857 240 790 Z" fill="blue" /><path transform="translate(1000)" d="M 59 173 L 321 173 L 321 262 L 331 262 C 355 262 383 253 383 245 L 383 173 L 621 173 L 621 248 L 632 248 C 663 247 684 235 684 229 L 684 173 L 932 173 C 946 173 956 168 958 157 C 927 135 873 93 873 93 L 826 143 L 684 143 L 684 72 C 709 69 718 59 720 45 L 621 35 L 621 143 L 383 143 L 383 80 C 408 77 417 67 419 53 L 321 43 L 321 143 L 53 143 L 59 173 Z M 692 839 L 702 839 C 735 839 757 825 757 821 L 757 511 L 931 511 C 945 511 955 506 957 495 C 923 463 869 421 869 421 L 821 481 L 488 481 L 488 352 C 614 342 750 318 840 297 C 864 306 881 307 890 298 L 814 226 C 743 258 615 300 499 327 L 425 303 L 425 486 C 425 602 412 726 313 827 L 326 839 C 463 750 485 617 488 511 L 692 511 L 692 839 Z M 118 221 L 108 230 C 151 261 207 317 224 363 C 293 399 328 261 118 221 Z M 62 384 L 54 393 C 99 421 156 474 177 518 C 247 550 275 412 62 384 Z M 240 790 L 240 661 C 267 657 281 649 288 642 L 203 571 L 164 622 L 39 622 L 45 651 L 178 651 L 178 806 C 128 831 73 857 39 871 L 83 953 C 91 948 96 942 95 929 C 131 900 189 848 226 808 C 299 909 378 930 560 930 L 914 930 C 918 900 935 881 965 876 L 965 862 C 842 866 678 866 559 866 C 385 866 310 857 240 790 Z" fill="red" /><path transform="translate(2000)" d="M 692 839 L 702 839 C 735 839 757 825 757 821 L 757 511 L 931 511 C 945 511 955 506 957 495 C 923 463 869 421 869 421 L 821 481 L 488 481 L 488 352 C 614 342 750 318 840 297 C 864 306 881 307 890 298 L 814 226 C 743 258 615 300 499 327 L 425 303 L 425 486 C 425 602 412 726 313 827 L 326 839 C 463 750 485 617 488 511 L 692 511 L 692 839 Z M 50 158 L 304 158 L 304 218 L 314 218 C 340 218 367 210 367 203 L 367 158 L 625 158 L 625 215 L 636 215 C 668 215 689 205 689 200 L 689 158 L 930 158 C 944 158 954 153 956 142 C 924 111 872 72 872 72 L 825 128 L 689 128 L 689 77 C 715 74 723 64 725 50 L 625 40 L 625 128 L 367 128 L 367 77 C 392 74 401 63 403 50 L 304 40 L 304 128 L 43 128 L 50 158 Z M 118 221 L 108 230 C 151 261 207 317 224 363 C 293 399 328 261 118 221 Z M 62 384 L 54 393 C 99 421 156 474 177 518 C 247 550 275 412 62 384 Z M 240 790 L 240 661 C 267 657 281 649 288 642 L 203 571 L 164 622 L 39 622 L 45 651 L 178 651 L 178 806 C 128 831 73 857 39 871 L 83 953 C 91 948 96 942 95 929 C 131 900 189 848 226 808 C 299 909 378 930 560 930 L 914 930 C 918 900 935 881 965 876 L 965 862 C 842 866 678 866 559 866 C 385 866 310 857 240 790 Z" fill="blue" fill-opacity="0.5" /><path transform="translate(2000)" d="M 59 173 L 321 173 L 321 262 L 331 262 C 355 262 383 253 383 245 L 383 173 L 621 173 L 621 248 L 632 248 C 663 247 684 235 684 229 L 684 173 L 932 173 C 946 173 956 168 958 157 C 927 135 873 93 873 93 L 826 143 L 684 143 L 684 72 C 709 69 718 59 720 45 L 621 35 L 621 143 L 383 143 L 383 80 C 408 77 417 67 419 53 L 321 43 L 321 143 L 53 143 L 59 173 Z M 692 839 L 702 839 C 735 839 757 825 757 821 L 757 511 L 931 511 C 945 511 955 506 957 495 C 923 463 869 421 869 421 L 821 481 L 488 481 L 488 352 C 614 342 750 318 840 297 C 864 306 881 307 890 298 L 814 226 C 743 258 615 300 499 327 L 425 303 L 425 486 C 425 602 412 726 313 827 L 326 839 C 463 750 485 617 488 511 L 692 511 L 692 839 Z M 118 221 L 108 230 C 151 261 207 317 224 363 C 293 399 328 261 118 221 Z M 62 384 L 54 393 C 99 421 156 474 177 518 C 247 550 275 412 62 384 Z M 240 790 L 240 661 C 267 657 281 649 288 642 L 203 571 L 164 622 L 39 622 L 45 651 L 178 651 L 178 806 C 128 831 73 857 39 871 L 83 953 C 91 948 96 942 95 929 C 131 900 189 848 226 808 C 299 909 378 930 560 930 L 914 930 C 918 900 935 881 965 876 L 965 862 C 842 866 678 866 559 866 C 385 866 310 857 240 790 Z" fill="red" fill-opacity="0.5" /><text text-anchor="middle" x="500" y="1064" font-family="Arial" font-size="64">Source Han Serif KR</text><text text-anchor="middle" x="1500" y="1064" font-family="Arial" font-size="64">HKSerif (uni83E6KX-regular)</text></svg>