<svg width="3000" height="1080" xmlns="http://www.w3.org/2000/svg" style="background:#fff"><path d="M 655 212 L 655 159 L 932 159 C 945 159 954 154 957 143 C 926 112 872 71 872 71 L 827 130 L 655 130 L 655 75 C 678 71 686 63 688 51 L 596 41 L 596 232 L 608 232 C 629 232 655 219 655 212 Z M 440 280 L 574 280 L 574 380 L 440 380 L 440 280 Z M 634 280 L 768 280 L 768 380 L 634 380 L 634 280 Z M 251 380 L 251 280 L 380 280 L 380 380 L 251 380 Z M 793 213 L 759 250 L 257 250 L 188 220 L 188 446 L 197 446 C 222 446 251 432 251 427 L 251 409 L 768 409 L 768 439 L 778 439 C 799 439 830 423 831 417 L 831 290 C 849 286 865 278 869 271 L 793 213 Z M 51 130 L 60 159 L 349 159 L 349 236 L 361 236 C 382 236 408 224 408 217 L 408 78 C 431 74 439 66 441 54 L 349 44 L 349 130 L 51 130 Z M 267 700 L 418 700 C 388 745 355 784 314 817 C 321 792 300 751 219 730 C 235 721 251 711 267 700 Z M 925 861 L 921 770 L 910 770 C 900 810 890 847 882 859 C 877 866 872 868 862 869 C 847 870 809 870 763 870 L 657 870 C 617 870 613 866 613 851 L 613 750 L 845 750 C 859 750 869 745 871 734 C 839 704 786 662 786 662 L 740 721 L 613 721 L 613 604 L 613 592 L 777 592 C 791 592 800 587 802 576 C 773 550 727 516 727 516 L 687 563 L 157 563 L 165 592 L 299 592 C 245 665 150 741 57 787 L 66 802 C 109 786 153 767 195 743 C 226 767 258 802 267 831 C 275 836 282 837 289 837 C 226 883 151 919 61 948 L 71 965 C 277 916 401 838 491 708 C 513 706 526 703 533 696 L 463 635 L 428 671 L 305 671 C 335 647 362 621 385 592 L 551 592 L 551 864 C 551 913 566 928 646 928 L 760 928 C 923 928 953 917 953 889 C 953 875 947 868 925 861 Z M 883 421 L 846 460 L 153 460 C 152 445 149 427 144 408 L 126 408 C 129 461 97 510 64 530 C 44 540 31 560 40 581 C 51 603 85 601 107 586 C 129 570 149 536 153 489 L 845 489 C 835 513 820 541 810 558 L 824 566 C 853 550 894 520 916 498 C 935 497 945 496 953 489 L 883 421 Z" fill="blue" /><path transform="translate(1000)" d="M 92 163 L 364 163 L 364 225 L 374 225 C 402 225 427 218 427 210 L 427 76 C 452 73 461 63 463 50 L 364 39 L 364 133 L 86 133 L 92 163 Z M 571 39 L 571 223 L 581 223 C 614 222 635 211 635 206 L 635 163 L 906 163 C 920 163 929 158 932 147 C 900 116 848 77 848 77 L 803 133 L 635 133 L 635 76 C 659 73 668 63 669 50 L 571 39 Z M 767 369 L 629 369 L 629 271 L 767 271 L 767 369 Z M 237 369 L 237 271 L 370 271 L 370 369 L 237 369 Z M 430 271 L 569 271 L 569 369 L 430 369 L 430 271 Z M 767 432 L 777 431 C 799 431 830 416 831 409 L 831 281 C 849 277 864 269 869 262 L 793 204 L 758 241 L 243 241 L 174 211 L 174 438 L 183 438 C 208 438 237 424 237 419 L 237 399 L 767 399 L 767 432 Z M 950 499 L 879 432 L 842 470 L 159 470 C 158 455 154 437 149 418 L 132 418 C 135 474 103 528 70 548 C 49 561 37 582 46 601 C 58 624 92 622 115 605 C 138 588 158 552 160 500 L 839 500 C 829 520 817 544 806 561 C 785 544 765 529 765 529 L 724 576 L 160 576 L 169 606 L 269 606 C 223 674 141 746 60 790 L 70 805 C 110 789 151 769 189 745 C 214 763 239 792 247 818 C 299 849 339 756 210 732 C 226 722 243 710 258 698 L 413 698 C 334 818 218 889 53 941 L 63 958 C 269 910 395 833 486 705 C 508 704 520 700 527 693 L 458 634 L 424 668 L 293 668 C 314 648 334 628 350 606 L 550 606 L 550 868 C 550 917 566 932 645 932 L 757 932 C 919 932 950 920 950 892 C 950 879 943 871 921 865 L 918 774 L 905 774 C 896 814 886 851 878 863 C 873 870 869 872 858 873 C 844 874 806 874 760 874 L 655 874 C 616 874 613 870 613 855 L 613 791 C 694 771 780 737 829 707 C 852 713 868 712 876 703 L 798 650 C 760 687 685 736 613 767 L 613 624 L 613 606 L 815 606 C 828 606 838 601 841 590 C 835 585 828 579 822 573 C 851 557 890 530 911 509 C 931 508 942 506 950 499 Z" fill="red" /><path transform="translate(2000)" d="M 655 212 L 655 159 L 932 159 C 945 159 954 154 957 143 C 926 112 872 71 872 71 L 827 130 L 655 130 L 655 75 C 678 71 686 63 688 51 L 596 41 L 596 232 L 608 232 C 629 232 655 219 655 212 Z M 440 280 L 574 280 L 574 380 L 440 380 L 440 280 Z M 634 280 L 768 280 L 768 380 L 634 380 L 634 280 Z M 251 380 L 251 280 L 380 280 L 380 380 L 251 380 Z M 793 213 L 759 250 L 257 250 L 188 220 L 188 446 L 197 446 C 222 446 251 432 251 427 L 251 409 L 768 409 L 768 439 L 778 439 C 799 439 830 423 831 417 L 831 290 C 849 286 865 278 869 271 L 793 213 Z M 51 130 L 60 159 L 349 159 L 349 236 L 361 236 C 382 236 408 224 408 217 L 408 78 C 431 74 439 66 441 54 L 349 44 L 349 130 L 51 130 Z M 267 700 L 418 700 C 388 745 355 784 314 817 C 321 792 300 751 219 730 C 235 721 251 711 267 700 Z M 925 861 L 921 770 L 910 770 C 900 810 890 847 882 859 C 877 866 872 868 862 869 C 847 870 809 870 763 870 L 657 870 C 617 870 613 866 613 851 L 613 750 L 845 750 C 859 750 869 745 871 734 C 839 704 786 662 786 662 L 740 721 L 613 721 L 613 604 L 613 592 L 777 592 C 791 592 800 587 802 576 C 773 550 727 516 727 516 L 687 563 L 157 563 L 165 592 L 299 592 C 245 665 150 741 57 787 L 66 802 C 109 786 153 767 195 743 C 226 767 258 802 267 831 C 275 836 282 837 289 837 C 226 883 151 919 61 948 L 71 965 C 277 916 401 838 491 708 C 513 706 526 703 533 696 L 463 635 L 428 671 L 305 671 C 335 647 362 621 385 592 L 551 592 L 551 864 C 551 913 566 928 646 928 L 760 928 C 923 928 953 917 953 889 C 953 875 947 868 925 861 Z M 883 421 L 846 460 L 153 460 C 152 445 149 427 144 408 L 126 408 C 129 461 97 510 64 530 C 44 540 31 560 40 581 C 51 603 85 601 107 586 C 129 570 149 536 153 489 L 845 489 C 835 513 820 541 810 558 L 824 566 C 853 550 894 520 916 498 C 935 497 945 496 953 489 L 883 421 Z" fill="blue" fill-opacity="0.5" /><path transform="translate(2000)" d="M 92 163 L 364 163 L 364 225 L 374 225 C 402 225 427 218 427 210 L 427 76 C 452 73 461 63 463 50 L 364 39 L 364 133 L 86 133 L 92 163 Z M 571 39 L 571 223 L 581 223 C 614 222 635 211 635 206 L 635 163 L 906 163 C 920 163 929 158 932 147 C 900 116 848 77 848 77 L 803 133 L 635 133 L 635 76 C 659 73 668 63 669 50 L 571 39 Z M 767 369 L 629 369 L 629 271 L 767 271 L 767 369 Z M 237 369 L 237 271 L 370 271 L 370 369 L 237 369 Z M 430 271 L 569 271 L 569 369 L 430 369 L 430 271 Z M 767 432 L 777 431 C 799 431 830 416 831 409 L 831 281 C 849 277 864 269 869 262 L 793 204 L 758 241 L 243 241 L 174 211 L 174 438 L 183 438 C 208 438 237 424 237 419 L 237 399 L 767 399 L 767 432 Z M 950 499 L 879 432 L 842 470 L 159 470 C 158 455 154 437 149 418 L 132 418 C 135 474 103 528 70 548 C 49 561 37 582 46 601 C 58 624 92 622 115 605 C 138 588 158 552 160 500 L 839 500 C 829 520 817 544 806 561 C 785 544 765 529 765 529 L 724 576 L 160 576 L 169 606 L 269 606 C 223 674 141 746 60 790 L 70 805 C 110 789 151 769 189 745 C 214 763 239 792 247 818 C 299 849 339 756 210 732 C 226 722 243 710 258 698 L 413 698 C 334 818 218 889 53 941 L 63 958 C 269 910 395 833 486 705 C 508 704 520 700 527 693 L 458 634 L 424 668 L 293 668 C 314 648 334 628 350 606 L 550 606 L 550 868 C 550 917 566 932 645 932 L 757 932 C 919 932 950 920 950 892 C 950 879 943 871 921 865 L 918 774 L 905 774 C 896 814 886 851 878 863 C 873 870 869 872 858 873 C 844 874 806 874 760 874 L 655 874 C 616 874 613 870 613 855 L 613 791 C 694 771 780 737 829 707 C 852 713 868 712 876 703 L 798 650 C 760 687 685 736 613 767 L 613 624 L 613 606 L 815 606 C 828 606 838 601 841 590 C 835 585 828 579 822 573 C 851 557 890 530 911 509 C 931 508 942 506 950 499 Z" fill="red" fill-opacity="0.5" /><text text-anchor="middle" x="500" y="1064" font-family="Arial" font-size="64">Source Han Serif TW</text><text text-anchor="middle" x="1500" y="1064" font-family="Arial" font-size="64">HKSerif (uni85A8HK-regular)</text></svg>