<svg width="3000" height="1080" xmlns="http://www.w3.org/2000/svg" style="background:#fff"><path d="M 246 182 L 259 280 C 287 281 309 274 318 262 L 306 182 L 474 182 C 488 182 498 177 500 166 C 470 136 421 97 421 97 L 377 153 L 302 153 L 291 78 C 312 73 319 63 321 51 L 227 43 L 242 153 L 52 153 L 60 182 L 246 182 Z M 656 379 L 616 428 L 271 428 L 279 458 L 705 458 C 719 458 728 453 731 442 C 702 415 656 379 656 379 Z M 595 741 L 384 741 L 384 583 L 595 583 L 595 741 Z M 656 790 L 656 592 C 673 589 687 581 693 574 L 619 518 L 586 553 L 389 553 L 324 524 L 324 834 L 333 834 C 358 834 384 820 384 814 L 384 771 L 595 771 L 595 809 L 604 809 C 625 809 655 795 656 790 Z M 810 266 L 776 306 L 212 306 L 141 274 L 141 956 L 152 956 C 180 956 205 940 205 932 L 205 336 L 786 336 L 786 859 C 786 875 781 880 763 880 C 743 880 651 873 651 873 L 651 889 C 692 894 715 903 730 914 C 743 923 748 940 750 960 C 839 951 850 920 850 867 L 850 348 C 870 345 886 336 893 329 L 810 266 Z M 876 97 L 833 153 L 733 153 L 744 85 C 768 85 778 76 782 63 L 688 42 L 670 153 L 524 153 L 532 182 L 666 182 L 651 271 C 676 278 701 274 713 265 L 728 182 L 929 182 C 943 182 953 177 955 166 C 925 136 876 97 876 97 Z" fill="blue" /><path transform="translate(1000)" d="M 871 92 L 823 152 L 680 152 L 680 76 C 705 73 713 63 715 50 L 615 39 L 615 152 L 377 152 L 377 76 C 402 73 411 63 413 50 L 313 39 L 313 152 L 43 152 L 49 180 L 313 180 L 313 276 L 323 276 C 350 276 377 267 377 258 L 377 180 L 615 180 L 615 273 L 625 273 C 658 272 680 261 680 255 L 680 180 L 930 180 C 944 180 953 175 955 165 C 924 135 871 92 871 92 Z M 656 379 L 616 428 L 271 428 L 279 458 L 705 458 C 719 458 728 453 731 442 C 702 415 656 379 656 379 Z M 595 741 L 384 741 L 384 583 L 595 583 L 595 741 Z M 656 790 L 656 592 C 673 589 687 581 693 574 L 619 518 L 586 553 L 389 553 L 324 524 L 324 834 L 333 834 C 358 834 384 820 384 814 L 384 771 L 595 771 L 595 809 L 604 809 C 625 809 655 795 656 790 Z M 810 266 L 776 306 L 212 306 L 141 274 L 141 956 L 152 956 C 180 956 205 940 205 932 L 205 336 L 786 336 L 786 859 C 786 875 781 880 763 880 C 743 880 651 873 651 873 L 651 889 C 692 894 715 903 730 914 C 743 923 748 940 750 960 C 839 951 850 920 850 867 L 850 348 C 870 345 886 336 893 329 L 810 266 Z" fill="red" /><path transform="translate(2000)" d="M 246 182 L 259 280 C 287 281 309 274 318 262 L 306 182 L 474 182 C 488 182 498 177 500 166 C 470 136 421 97 421 97 L 377 153 L 302 153 L 291 78 C 312 73 319 63 321 51 L 227 43 L 242 153 L 52 153 L 60 182 L 246 182 Z M 656 379 L 616 428 L 271 428 L 279 458 L 705 458 C 719 458 728 453 731 442 C 702 415 656 379 656 379 Z M 595 741 L 384 741 L 384 583 L 595 583 L 595 741 Z M 656 790 L 656 592 C 673 589 687 581 693 574 L 619 518 L 586 553 L 389 553 L 324 524 L 324 834 L 333 834 C 358 834 384 820 384 814 L 384 771 L 595 771 L 595 809 L 604 809 C 625 809 655 795 656 790 Z M 810 266 L 776 306 L 212 306 L 141 274 L 141 956 L 152 956 C 180 956 205 940 205 932 L 205 336 L 786 336 L 786 859 C 786 875 781 880 763 880 C 743 880 651 873 651 873 L 651 889 C 692 894 715 903 730 914 C 743 923 748 940 750 960 C 839 951 850 920 850 867 L 850 348 C 870 345 886 336 893 329 L 810 266 Z M 876 97 L 833 153 L 733 153 L 744 85 C 768 85 778 76 782 63 L 688 42 L 670 153 L 524 153 L 532 182 L 666 182 L 651 271 C 676 278 701 274 713 265 L 728 182 L 929 182 C 943 182 953 177 955 166 C 925 136 876 97 876 97 Z" fill="blue" fill-opacity="0.5" /><path transform="translate(2000)" d="M 871 92 L 823 152 L 680 152 L 680 76 C 705 73 713 63 715 50 L 615 39 L 615 152 L 377 152 L 377 76 C 402 73 411 63 413 50 L 313 39 L 313 152 L 43 152 L 49 180 L 313 180 L 313 276 L 323 276 C 350 276 377 267 377 258 L 377 180 L 615 180 L 615 273 L 625 273 C 658 272 680 261 680 255 L 680 180 L 930 180 C 944 180 953 175 955 165 C 924 135 871 92 871 92 Z M 656 379 L 616 428 L 271 428 L 279 458 L 705 458 C 719 458 728 453 731 442 C 702 415 656 379 656 379 Z M 595 741 L 384 741 L 384 583 L 595 583 L 595 741 Z M 656 790 L 656 592 C 673 589 687 581 693 574 L 619 518 L 586 553 L 389 553 L 324 524 L 324 834 L 333 834 C 358 834 384 820 384 814 L 384 771 L 595 771 L 595 809 L 604 809 C 625 809 655 795 656 790 Z M 810 266 L 776 306 L 212 306 L 141 274 L 141 956 L 152 956 C 180 956 205 940 205 932 L 205 336 L 786 336 L 786 859 C 786 875 781 880 763 880 C 743 880 651 873 651 873 L 651 889 C 692 894 715 903 730 914 C 743 923 748 940 750 960 C 839 951 850 920 850 867 L 850 348 C 870 345 886 336 893 329 L 810 266 Z" fill="red" fill-opacity="0.5" /><text text-anchor="middle" x="500" y="1064" font-family="Arial" font-size="64">Source Han Serif TW</text><text text-anchor="middle" x="1500" y="1064" font-family="Arial" font-size="64">HKSerif (uni833CHK-regular)</text></svg>