<svg width="3000" height="1080" xmlns="http://www.w3.org/2000/svg" style="background:#fff"><path d="M 271 182 L 283 272 C 310 272 333 265 342 253 L 331 182 L 473 182 C 487 182 496 177 499 166 C 470 138 424 101 424 101 L 382 153 L 327 153 L 316 76 C 337 71 344 61 345 49 L 251 41 L 267 153 L 52 153 L 60 182 L 271 182 Z M 785 331 L 708 260 L 661 303 L 188 303 L 197 332 L 643 332 C 612 361 570 395 530 423 L 472 416 L 472 603 C 376 648 285 692 243 708 L 299 776 C 305 770 311 762 312 749 C 379 701 432 659 472 626 L 472 752 C 472 765 468 770 451 770 C 434 770 347 764 347 764 L 347 779 C 385 785 408 792 420 801 C 433 810 437 825 439 844 C 523 835 533 807 533 754 L 533 608 C 595 651 670 719 698 770 C 766 805 791 672 544 590 C 603 557 680 508 722 480 C 743 485 753 481 758 473 L 678 419 C 642 461 580 529 533 575 L 533 452 C 556 449 566 441 568 427 L 564 427 C 628 401 696 367 744 341 C 765 340 777 338 785 331 Z M 274 426 L 264 435 C 309 470 370 530 387 578 C 451 617 488 487 274 426 Z M 776 423 L 776 868 L 200 868 L 200 460 C 226 456 235 447 237 433 L 138 423 L 138 861 C 124 867 110 876 101 883 L 180 934 L 209 897 L 776 897 L 776 955 L 788 955 C 811 955 838 941 838 934 L 838 461 C 863 457 871 448 874 434 L 776 423 Z M 876 97 L 833 153 L 721 153 L 732 85 C 757 85 767 76 771 63 L 677 42 L 659 153 L 523 153 L 531 182 L 654 182 L 641 261 C 667 267 691 264 704 255 L 716 182 L 929 182 C 943 182 953 177 955 166 C 925 136 876 97 876 97 Z" fill="blue" /><path transform="translate(1000)" d="M 836 864 L 165 864 L 165 450 C 190 447 200 438 202 423 L 103 413 L 103 858 C 89 864 74 873 66 880 L 145 930 L 173 894 L 836 894 L 836 955 L 848 955 C 871 955 899 941 899 932 L 899 452 C 923 449 932 439 935 425 L 836 414 L 836 864 Z M 800 454 L 717 399 C 684 439 624 508 582 548 L 592 559 C 644 531 724 488 766 460 C 787 465 795 462 800 454 Z M 579 598 L 569 609 C 629 648 710 718 738 773 C 809 810 837 669 579 598 Z M 813 313 L 735 242 L 690 286 L 205 286 L 213 315 L 667 315 C 632 343 585 376 541 401 L 476 394 L 476 756 C 476 768 473 772 460 772 C 446 772 382 767 382 767 L 382 783 C 412 787 429 794 439 804 C 449 814 453 829 455 846 C 529 838 538 810 538 759 L 538 429 C 559 426 569 420 573 407 C 644 383 718 349 771 323 C 792 322 805 320 813 313 Z M 253 418 L 243 426 C 289 460 347 521 365 569 C 431 609 472 475 253 418 Z M 202 715 L 258 787 C 267 782 273 771 274 759 C 349 700 406 652 444 620 L 438 607 C 341 654 244 699 202 715 Z M 871 86 L 823 144 L 690 144 L 690 76 C 714 73 723 63 725 49 L 624 39 L 624 144 L 368 144 L 368 76 C 392 73 401 63 403 49 L 303 39 L 303 144 L 43 144 L 49 174 L 303 174 L 303 259 L 313 259 C 340 259 368 251 368 242 L 368 174 L 624 174 L 624 257 L 635 257 C 668 256 690 245 690 238 L 690 174 L 930 174 C 944 174 953 169 955 158 C 924 127 871 86 871 86 Z" fill="red" /><path transform="translate(2000)" d="M 271 182 L 283 272 C 310 272 333 265 342 253 L 331 182 L 473 182 C 487 182 496 177 499 166 C 470 138 424 101 424 101 L 382 153 L 327 153 L 316 76 C 337 71 344 61 345 49 L 251 41 L 267 153 L 52 153 L 60 182 L 271 182 Z M 785 331 L 708 260 L 661 303 L 188 303 L 197 332 L 643 332 C 612 361 570 395 530 423 L 472 416 L 472 603 C 376 648 285 692 243 708 L 299 776 C 305 770 311 762 312 749 C 379 701 432 659 472 626 L 472 752 C 472 765 468 770 451 770 C 434 770 347 764 347 764 L 347 779 C 385 785 408 792 420 801 C 433 810 437 825 439 844 C 523 835 533 807 533 754 L 533 608 C 595 651 670 719 698 770 C 766 805 791 672 544 590 C 603 557 680 508 722 480 C 743 485 753 481 758 473 L 678 419 C 642 461 580 529 533 575 L 533 452 C 556 449 566 441 568 427 L 564 427 C 628 401 696 367 744 341 C 765 340 777 338 785 331 Z M 274 426 L 264 435 C 309 470 370 530 387 578 C 451 617 488 487 274 426 Z M 776 423 L 776 868 L 200 868 L 200 460 C 226 456 235 447 237 433 L 138 423 L 138 861 C 124 867 110 876 101 883 L 180 934 L 209 897 L 776 897 L 776 955 L 788 955 C 811 955 838 941 838 934 L 838 461 C 863 457 871 448 874 434 L 776 423 Z M 876 97 L 833 153 L 721 153 L 732 85 C 757 85 767 76 771 63 L 677 42 L 659 153 L 523 153 L 531 182 L 654 182 L 641 261 C 667 267 691 264 704 255 L 716 182 L 929 182 C 943 182 953 177 955 166 C 925 136 876 97 876 97 Z" fill="blue" fill-opacity="0.5" /><path transform="translate(2000)" d="M 836 864 L 165 864 L 165 450 C 190 447 200 438 202 423 L 103 413 L 103 858 C 89 864 74 873 66 880 L 145 930 L 173 894 L 836 894 L 836 955 L 848 955 C 871 955 899 941 899 932 L 899 452 C 923 449 932 439 935 425 L 836 414 L 836 864 Z M 800 454 L 717 399 C 684 439 624 508 582 548 L 592 559 C 644 531 724 488 766 460 C 787 465 795 462 800 454 Z M 579 598 L 569 609 C 629 648 710 718 738 773 C 809 810 837 669 579 598 Z M 813 313 L 735 242 L 690 286 L 205 286 L 213 315 L 667 315 C 632 343 585 376 541 401 L 476 394 L 476 756 C 476 768 473 772 460 772 C 446 772 382 767 382 767 L 382 783 C 412 787 429 794 439 804 C 449 814 453 829 455 846 C 529 838 538 810 538 759 L 538 429 C 559 426 569 420 573 407 C 644 383 718 349 771 323 C 792 322 805 320 813 313 Z M 253 418 L 243 426 C 289 460 347 521 365 569 C 431 609 472 475 253 418 Z M 202 715 L 258 787 C 267 782 273 771 274 759 C 349 700 406 652 444 620 L 438 607 C 341 654 244 699 202 715 Z M 871 86 L 823 144 L 690 144 L 690 76 C 714 73 723 63 725 49 L 624 39 L 624 144 L 368 144 L 368 76 C 392 73 401 63 403 49 L 303 39 L 303 144 L 43 144 L 49 174 L 303 174 L 303 259 L 313 259 C 340 259 368 251 368 242 L 368 174 L 624 174 L 624 257 L 635 257 C 668 256 690 245 690 238 L 690 174 L 930 174 C 944 174 953 169 955 158 C 924 127 871 86 871 86 Z" fill="red" fill-opacity="0.5" /><text text-anchor="middle" x="500" y="1064" font-family="Arial" font-size="64">Source Han Serif TW</text><text text-anchor="middle" x="1500" y="1064" font-family="Arial" font-size="64">HKSerif (uni83E1HK-regular)</text></svg>