<svg width="3000" height="1080" xmlns="http://www.w3.org/2000/svg" style="background:#fff"><path d="M 418 768 L 414 754 C 279 793 143 828 82 839 L 131 921 C 141 917 148 909 152 897 C 270 844 357 801 418 768 Z M 153 604 L 145 617 C 206 638 285 685 321 722 C 394 738 392 602 153 604 Z M 589 775 L 583 790 C 665 815 782 873 834 919 C 915 931 899 784 589 775 Z M 591 735 L 603 748 C 686 726 784 690 840 660 C 862 667 871 664 878 655 L 795 596 C 750 637 662 699 591 735 Z M 639 416 L 295 416 C 310 390 327 357 343 327 L 673 327 L 639 416 Z M 835 472 L 787 533 L 666 533 L 741 334 C 760 333 770 330 776 323 L 709 263 L 674 297 L 358 297 C 364 285 369 273 374 264 C 399 265 410 254 414 242 L 320 220 L 316 230 L 308 174 L 470 174 C 484 174 494 169 496 158 C 467 130 419 92 419 92 L 378 145 L 303 145 L 294 78 C 314 72 321 61 323 50 L 229 42 L 243 145 L 51 145 L 59 174 L 247 174 L 257 250 C 283 250 305 244 315 232 C 296 277 262 348 234 398 C 217 402 198 409 186 416 L 255 477 L 289 445 L 628 445 L 594 533 L 80 533 L 89 562 L 465 562 L 465 868 C 465 881 461 886 444 886 C 426 886 342 880 342 880 L 342 895 C 383 899 403 907 416 918 C 427 928 432 944 433 962 C 518 954 530 920 530 869 L 530 562 L 899 562 C 912 562 923 557 925 546 C 891 514 835 472 835 472 Z M 875 92 L 833 145 L 745 145 L 761 83 C 785 83 796 74 799 61 L 707 40 L 683 145 L 524 145 L 532 174 L 676 174 L 659 246 C 685 253 709 250 722 241 L 738 174 L 925 174 C 939 174 948 169 951 158 C 922 130 875 92 875 92 Z" fill="blue" /><path transform="translate(1000)" d="M 634 394 L 299 394 C 314 362 330 327 343 297 L 666 297 L 634 394 Z M 523 523 L 937 523 C 951 523 961 518 964 507 C 929 476 873 432 873 432 L 825 494 L 672 494 L 734 303 C 752 302 761 300 768 292 L 700 232 L 665 267 L 355 267 L 362 250 C 387 249 397 240 401 226 L 368 220 L 368 165 L 624 165 L 624 236 L 635 236 C 668 235 689 224 689 218 L 689 165 L 930 165 C 944 165 953 160 955 149 C 924 119 871 78 871 78 L 825 136 L 689 136 L 689 76 C 714 73 722 63 724 49 L 624 39 L 624 136 L 368 136 L 368 76 C 392 73 401 63 403 49 L 304 39 L 304 136 L 43 136 L 49 165 L 304 165 L 304 216 C 287 273 268 326 240 376 C 223 380 204 387 192 394 L 261 455 L 295 423 L 625 423 L 601 494 L 43 494 L 50 523 L 458 523 L 458 702 C 294 754 135 803 66 820 L 121 901 C 130 897 136 888 140 876 C 280 813 382 760 458 722 L 458 865 C 458 879 454 883 437 883 C 418 883 332 877 332 877 L 332 892 C 373 897 394 905 407 916 C 418 925 424 943 425 962 C 511 953 523 917 523 867 L 523 593 C 600 762 733 849 889 907 C 897 877 916 855 943 850 L 944 839 C 844 815 736 776 649 709 C 719 680 791 640 836 609 C 858 615 867 611 872 601 L 787 545 C 754 587 689 650 631 694 C 588 657 550 612 523 557 L 523 523 Z M 166 541 L 156 550 C 207 586 270 648 290 698 C 365 741 404 589 166 541 Z" fill="red" /><path transform="translate(2000)" d="M 418 768 L 414 754 C 279 793 143 828 82 839 L 131 921 C 141 917 148 909 152 897 C 270 844 357 801 418 768 Z M 153 604 L 145 617 C 206 638 285 685 321 722 C 394 738 392 602 153 604 Z M 589 775 L 583 790 C 665 815 782 873 834 919 C 915 931 899 784 589 775 Z M 591 735 L 603 748 C 686 726 784 690 840 660 C 862 667 871 664 878 655 L 795 596 C 750 637 662 699 591 735 Z M 639 416 L 295 416 C 310 390 327 357 343 327 L 673 327 L 639 416 Z M 835 472 L 787 533 L 666 533 L 741 334 C 760 333 770 330 776 323 L 709 263 L 674 297 L 358 297 C 364 285 369 273 374 264 C 399 265 410 254 414 242 L 320 220 L 316 230 L 308 174 L 470 174 C 484 174 494 169 496 158 C 467 130 419 92 419 92 L 378 145 L 303 145 L 294 78 C 314 72 321 61 323 50 L 229 42 L 243 145 L 51 145 L 59 174 L 247 174 L 257 250 C 283 250 305 244 315 232 C 296 277 262 348 234 398 C 217 402 198 409 186 416 L 255 477 L 289 445 L 628 445 L 594 533 L 80 533 L 89 562 L 465 562 L 465 868 C 465 881 461 886 444 886 C 426 886 342 880 342 880 L 342 895 C 383 899 403 907 416 918 C 427 928 432 944 433 962 C 518 954 530 920 530 869 L 530 562 L 899 562 C 912 562 923 557 925 546 C 891 514 835 472 835 472 Z M 875 92 L 833 145 L 745 145 L 761 83 C 785 83 796 74 799 61 L 707 40 L 683 145 L 524 145 L 532 174 L 676 174 L 659 246 C 685 253 709 250 722 241 L 738 174 L 925 174 C 939 174 948 169 951 158 C 922 130 875 92 875 92 Z" fill="blue" fill-opacity="0.5" /><path transform="translate(2000)" d="M 634 394 L 299 394 C 314 362 330 327 343 297 L 666 297 L 634 394 Z M 523 523 L 937 523 C 951 523 961 518 964 507 C 929 476 873 432 873 432 L 825 494 L 672 494 L 734 303 C 752 302 761 300 768 292 L 700 232 L 665 267 L 355 267 L 362 250 C 387 249 397 240 401 226 L 368 220 L 368 165 L 624 165 L 624 236 L 635 236 C 668 235 689 224 689 218 L 689 165 L 930 165 C 944 165 953 160 955 149 C 924 119 871 78 871 78 L 825 136 L 689 136 L 689 76 C 714 73 722 63 724 49 L 624 39 L 624 136 L 368 136 L 368 76 C 392 73 401 63 403 49 L 304 39 L 304 136 L 43 136 L 49 165 L 304 165 L 304 216 C 287 273 268 326 240 376 C 223 380 204 387 192 394 L 261 455 L 295 423 L 625 423 L 601 494 L 43 494 L 50 523 L 458 523 L 458 702 C 294 754 135 803 66 820 L 121 901 C 130 897 136 888 140 876 C 280 813 382 760 458 722 L 458 865 C 458 879 454 883 437 883 C 418 883 332 877 332 877 L 332 892 C 373 897 394 905 407 916 C 418 925 424 943 425 962 C 511 953 523 917 523 867 L 523 593 C 600 762 733 849 889 907 C 897 877 916 855 943 850 L 944 839 C 844 815 736 776 649 709 C 719 680 791 640 836 609 C 858 615 867 611 872 601 L 787 545 C 754 587 689 650 631 694 C 588 657 550 612 523 557 L 523 523 Z M 166 541 L 156 550 C 207 586 270 648 290 698 C 365 741 404 589 166 541 Z" fill="red" fill-opacity="0.5" /><text text-anchor="middle" x="500" y="1064" font-family="Arial" font-size="64">Source Han Serif TW</text><text text-anchor="middle" x="1500" y="1064" font-family="Arial" font-size="64">HKSerif (uni83C9HK-regular)</text></svg>