<svg width="3000" height="1080" xmlns="http://www.w3.org/2000/svg" style="background:#fff"><path d="M 131 54 L 120 61 C 152 94 192 150 204 193 C 270 237 323 108 131 54 Z M 324 179 L 283 231 L 37 231 L 45 260 L 375 260 C 389 260 397 255 400 244 C 371 216 324 179 324 179 Z M 541 352 L 464 344 L 464 483 L 373 483 L 381 513 L 464 513 L 464 659 L 475 659 C 494 659 518 646 518 638 L 518 513 L 592 513 C 605 513 614 508 617 497 C 595 473 559 445 559 445 L 529 483 L 518 483 L 518 372 C 534 369 540 362 541 352 Z M 256 357 L 76 357 L 84 387 L 338 387 C 352 387 361 382 364 371 C 336 345 294 311 294 311 L 256 357 Z M 294 438 L 256 485 L 76 485 L 84 514 L 338 514 C 352 514 361 509 364 498 C 336 472 294 438 294 438 Z M 275 841 L 145 841 L 145 640 L 275 640 L 275 841 Z M 376 632 L 300 574 L 265 611 L 150 611 L 85 582 L 85 948 L 95 948 C 120 948 145 933 145 927 L 145 870 L 275 870 L 275 914 L 284 914 C 305 914 334 899 335 893 L 335 651 C 355 647 370 639 376 632 Z M 883 821 L 838 877 L 684 877 L 684 745 L 894 745 C 908 745 917 740 920 729 C 891 701 845 664 845 664 L 805 715 L 684 715 L 684 306 L 940 306 C 954 306 963 301 966 290 C 936 261 887 223 887 223 L 846 277 L 684 277 L 684 149 C 744 140 800 129 845 119 C 868 129 885 129 894 120 L 823 54 C 734 91 559 138 416 158 L 420 175 C 487 172 557 167 624 158 L 624 277 L 374 277 L 382 306 L 624 306 L 624 715 L 423 715 L 431 745 L 624 745 L 624 877 L 374 877 L 382 907 L 939 907 C 953 907 962 902 964 891 C 934 861 883 821 883 821 Z M 783 657 L 793 657 C 813 657 837 643 837 635 L 837 513 L 932 513 C 945 513 954 508 956 497 C 934 473 899 444 899 444 L 869 483 L 837 483 L 837 372 C 852 369 858 362 860 352 L 783 344 L 783 483 L 706 483 L 714 513 L 783 513 L 783 657 Z" fill="blue" /><path transform="translate(1000)" d="M 131 54 L 120 61 C 152 94 192 150 204 193 C 270 237 323 108 131 54 Z M 324 179 L 283 231 L 37 231 L 45 260 L 375 260 C 389 260 397 255 400 244 C 371 216 324 179 324 179 Z M 256 357 L 76 357 L 84 387 L 338 387 C 352 387 361 382 364 371 C 336 345 294 311 294 311 L 256 357 Z M 294 438 L 256 485 L 76 485 L 84 514 L 338 514 C 352 514 361 509 364 498 C 336 472 294 438 294 438 Z M 275 841 L 145 841 L 145 640 L 275 640 L 275 841 Z M 376 632 L 300 574 L 265 611 L 150 611 L 85 582 L 85 948 L 95 948 C 120 948 145 933 145 927 L 145 870 L 275 870 L 275 914 L 284 914 C 305 914 334 899 335 893 L 335 651 C 355 647 370 639 376 632 Z M 782 510 L 782 691 L 683 691 L 683 510 L 782 510 Z M 620 691 L 522 691 L 522 510 L 620 510 L 620 691 Z M 522 482 L 522 307 L 620 307 L 620 482 L 522 482 Z M 683 307 L 782 307 L 782 482 L 683 482 L 683 307 Z M 841 510 L 950 510 C 963 510 973 505 975 495 C 948 466 899 426 899 426 L 859 482 L 841 482 L 841 307 L 914 307 C 928 307 937 302 940 291 C 909 262 859 223 859 223 L 815 277 L 683 277 L 683 146 C 752 136 816 124 868 112 C 892 122 910 122 919 113 L 844 42 C 744 83 553 133 397 155 L 401 172 C 473 170 548 163 620 154 L 620 277 L 393 277 L 401 307 L 464 307 L 464 482 L 369 482 L 377 510 L 464 510 L 464 691 L 390 691 L 398 720 L 620 720 L 620 891 L 363 891 L 370 920 L 932 920 C 945 920 954 916 957 905 C 925 874 873 833 873 833 L 827 891 L 683 891 L 683 720 L 926 720 C 939 720 948 715 951 704 C 923 676 876 637 876 637 L 841 685 L 841 510 Z" fill="red" /><path transform="translate(2000)" d="M 131 54 L 120 61 C 152 94 192 150 204 193 C 270 237 323 108 131 54 Z M 324 179 L 283 231 L 37 231 L 45 260 L 375 260 C 389 260 397 255 400 244 C 371 216 324 179 324 179 Z M 541 352 L 464 344 L 464 483 L 373 483 L 381 513 L 464 513 L 464 659 L 475 659 C 494 659 518 646 518 638 L 518 513 L 592 513 C 605 513 614 508 617 497 C 595 473 559 445 559 445 L 529 483 L 518 483 L 518 372 C 534 369 540 362 541 352 Z M 256 357 L 76 357 L 84 387 L 338 387 C 352 387 361 382 364 371 C 336 345 294 311 294 311 L 256 357 Z M 294 438 L 256 485 L 76 485 L 84 514 L 338 514 C 352 514 361 509 364 498 C 336 472 294 438 294 438 Z M 275 841 L 145 841 L 145 640 L 275 640 L 275 841 Z M 376 632 L 300 574 L 265 611 L 150 611 L 85 582 L 85 948 L 95 948 C 120 948 145 933 145 927 L 145 870 L 275 870 L 275 914 L 284 914 C 305 914 334 899 335 893 L 335 651 C 355 647 370 639 376 632 Z M 883 821 L 838 877 L 684 877 L 684 745 L 894 745 C 908 745 917 740 920 729 C 891 701 845 664 845 664 L 805 715 L 684 715 L 684 306 L 940 306 C 954 306 963 301 966 290 C 936 261 887 223 887 223 L 846 277 L 684 277 L 684 149 C 744 140 800 129 845 119 C 868 129 885 129 894 120 L 823 54 C 734 91 559 138 416 158 L 420 175 C 487 172 557 167 624 158 L 624 277 L 374 277 L 382 306 L 624 306 L 624 715 L 423 715 L 431 745 L 624 745 L 624 877 L 374 877 L 382 907 L 939 907 C 953 907 962 902 964 891 C 934 861 883 821 883 821 Z M 783 657 L 793 657 C 813 657 837 643 837 635 L 837 513 L 932 513 C 945 513 954 508 956 497 C 934 473 899 444 899 444 L 869 483 L 837 483 L 837 372 C 852 369 858 362 860 352 L 783 344 L 783 483 L 706 483 L 714 513 L 783 513 L 783 657 Z" fill="blue" fill-opacity="0.5" /><path transform="translate(2000)" d="M 131 54 L 120 61 C 152 94 192 150 204 193 C 270 237 323 108 131 54 Z M 324 179 L 283 231 L 37 231 L 45 260 L 375 260 C 389 260 397 255 400 244 C 371 216 324 179 324 179 Z M 256 357 L 76 357 L 84 387 L 338 387 C 352 387 361 382 364 371 C 336 345 294 311 294 311 L 256 357 Z M 294 438 L 256 485 L 76 485 L 84 514 L 338 514 C 352 514 361 509 364 498 C 336 472 294 438 294 438 Z M 275 841 L 145 841 L 145 640 L 275 640 L 275 841 Z M 376 632 L 300 574 L 265 611 L 150 611 L 85 582 L 85 948 L 95 948 C 120 948 145 933 145 927 L 145 870 L 275 870 L 275 914 L 284 914 C 305 914 334 899 335 893 L 335 651 C 355 647 370 639 376 632 Z M 782 510 L 782 691 L 683 691 L 683 510 L 782 510 Z M 620 691 L 522 691 L 522 510 L 620 510 L 620 691 Z M 522 482 L 522 307 L 620 307 L 620 482 L 522 482 Z M 683 307 L 782 307 L 782 482 L 683 482 L 683 307 Z M 841 510 L 950 510 C 963 510 973 505 975 495 C 948 466 899 426 899 426 L 859 482 L 841 482 L 841 307 L 914 307 C 928 307 937 302 940 291 C 909 262 859 223 859 223 L 815 277 L 683 277 L 683 146 C 752 136 816 124 868 112 C 892 122 910 122 919 113 L 844 42 C 744 83 553 133 397 155 L 401 172 C 473 170 548 163 620 154 L 620 277 L 393 277 L 401 307 L 464 307 L 464 482 L 369 482 L 377 510 L 464 510 L 464 691 L 390 691 L 398 720 L 620 720 L 620 891 L 363 891 L 370 920 L 932 920 C 945 920 954 916 957 905 C 925 874 873 833 873 833 L 827 891 L 683 891 L 683 720 L 926 720 C 939 720 948 715 951 704 C 923 676 876 637 876 637 L 841 685 L 841 510 Z" fill="red" fill-opacity="0.5" /><text text-anchor="middle" x="500" y="1064" font-family="Arial" font-size="64">Source Han Serif TW</text><text text-anchor="middle" x="1500" y="1064" font-family="Arial" font-size="64">HKSerif (uni8AC8HK-regular)</text></svg>