<svg width="3000" height="1080" xmlns="http://www.w3.org/2000/svg" style="background:#fff"><path d="M 52 169 L 298 169 L 298 247 L 308 247 C 334 247 362 239 362 230 L 362 169 L 634 169 L 634 243 L 645 243 C 677 242 698 232 698 225 L 698 169 L 930 169 C 944 169 954 164 957 153 C 925 122 872 82 872 82 L 826 139 L 698 139 L 698 77 C 723 74 732 64 734 50 L 634 40 L 634 139 L 362 139 L 362 77 C 387 74 395 64 397 50 L 298 40 L 298 139 L 45 139 L 52 169 Z M 394 590 L 390 575 C 340 587 292 599 246 610 L 246 437 L 377 437 C 390 437 400 432 403 421 C 374 391 326 352 326 352 L 284 407 L 246 407 L 246 285 C 266 282 275 274 277 262 L 183 252 L 183 407 L 56 407 L 63 437 L 183 437 L 183 624 C 124 639 74 650 45 655 L 83 740 C 92 737 101 728 105 716 C 133 705 158 694 183 684 L 183 863 C 183 876 179 880 164 880 C 149 880 79 875 79 875 L 79 891 C 112 896 130 903 141 913 C 152 924 155 940 157 959 C 237 951 246 921 246 867 L 246 656 C 306 630 354 608 394 590 Z M 446 678 L 804 678 L 804 864 L 446 864 L 446 678 Z M 864 444 L 816 507 L 657 507 L 657 357 C 728 346 794 333 846 320 C 870 330 889 330 898 321 L 821 249 C 726 292 542 344 391 368 L 395 385 C 459 382 526 375 591 367 L 591 507 L 347 507 L 355 536 L 591 536 L 591 648 L 452 648 L 382 618 L 382 957 L 392 957 C 418 957 446 942 446 935 L 446 894 L 804 894 L 804 947 L 814 947 C 836 947 868 933 869 926 L 869 691 C 889 687 905 678 911 670 L 831 609 L 794 648 L 657 648 L 657 536 L 927 536 C 941 536 951 531 954 520 C 920 488 864 444 864 444 Z" fill="blue" /><path transform="translate(1000)" d="M 52 169 L 322 169 L 322 247 L 332 247 C 358 247 386 239 386 230 L 386 169 L 610 169 L 610 243 L 621 243 C 653 242 674 232 674 225 L 674 169 L 930 169 C 944 169 954 164 957 153 C 925 122 872 82 872 82 L 826 139 L 674 139 L 674 77 C 699 74 708 64 710 50 L 610 40 L 610 139 L 386 139 L 386 77 C 411 74 419 64 421 50 L 322 40 L 322 139 L 45 139 L 52 169 Z M 416 590 L 412 575 C 363 588 314 600 269 611 L 269 437 L 400 437 C 413 437 423 432 425 421 C 396 392 348 353 348 353 L 306 408 L 269 408 L 269 286 C 289 283 298 275 300 263 L 206 252 L 206 408 L 80 408 L 87 437 L 206 437 L 206 625 C 147 640 97 651 68 656 L 107 741 C 116 737 124 729 128 716 C 156 704 181 694 206 684 L 206 863 C 206 876 202 881 188 881 C 172 881 102 875 102 875 L 102 891 C 136 896 154 904 165 914 C 175 924 179 941 181 959 C 260 952 269 922 269 868 L 269 656 C 328 630 376 608 416 590 Z M 462 678 L 773 678 L 773 864 L 462 864 L 462 678 Z M 833 429 L 786 491 L 650 491 L 650 344 C 707 336 759 328 802 319 C 826 330 843 330 853 322 L 780 250 C 694 285 526 326 393 346 L 397 365 C 457 363 522 358 584 352 L 584 491 L 335 491 L 343 520 L 584 520 L 584 648 L 467 648 L 398 618 L 398 957 L 408 957 C 434 957 462 942 462 935 L 462 894 L 773 894 L 773 947 L 783 947 C 805 947 837 932 838 925 L 838 691 C 858 687 874 678 880 670 L 800 609 L 763 648 L 650 648 L 650 520 L 896 520 C 911 520 920 515 923 504 C 889 472 833 429 833 429 Z" fill="red" /><path transform="translate(2000)" d="M 52 169 L 298 169 L 298 247 L 308 247 C 334 247 362 239 362 230 L 362 169 L 634 169 L 634 243 L 645 243 C 677 242 698 232 698 225 L 698 169 L 930 169 C 944 169 954 164 957 153 C 925 122 872 82 872 82 L 826 139 L 698 139 L 698 77 C 723 74 732 64 734 50 L 634 40 L 634 139 L 362 139 L 362 77 C 387 74 395 64 397 50 L 298 40 L 298 139 L 45 139 L 52 169 Z M 394 590 L 390 575 C 340 587 292 599 246 610 L 246 437 L 377 437 C 390 437 400 432 403 421 C 374 391 326 352 326 352 L 284 407 L 246 407 L 246 285 C 266 282 275 274 277 262 L 183 252 L 183 407 L 56 407 L 63 437 L 183 437 L 183 624 C 124 639 74 650 45 655 L 83 740 C 92 737 101 728 105 716 C 133 705 158 694 183 684 L 183 863 C 183 876 179 880 164 880 C 149 880 79 875 79 875 L 79 891 C 112 896 130 903 141 913 C 152 924 155 940 157 959 C 237 951 246 921 246 867 L 246 656 C 306 630 354 608 394 590 Z M 446 678 L 804 678 L 804 864 L 446 864 L 446 678 Z M 864 444 L 816 507 L 657 507 L 657 357 C 728 346 794 333 846 320 C 870 330 889 330 898 321 L 821 249 C 726 292 542 344 391 368 L 395 385 C 459 382 526 375 591 367 L 591 507 L 347 507 L 355 536 L 591 536 L 591 648 L 452 648 L 382 618 L 382 957 L 392 957 C 418 957 446 942 446 935 L 446 894 L 804 894 L 804 947 L 814 947 C 836 947 868 933 869 926 L 869 691 C 889 687 905 678 911 670 L 831 609 L 794 648 L 657 648 L 657 536 L 927 536 C 941 536 951 531 954 520 C 920 488 864 444 864 444 Z" fill="blue" fill-opacity="0.5" /><path transform="translate(2000)" d="M 52 169 L 322 169 L 322 247 L 332 247 C 358 247 386 239 386 230 L 386 169 L 610 169 L 610 243 L 621 243 C 653 242 674 232 674 225 L 674 169 L 930 169 C 944 169 954 164 957 153 C 925 122 872 82 872 82 L 826 139 L 674 139 L 674 77 C 699 74 708 64 710 50 L 610 40 L 610 139 L 386 139 L 386 77 C 411 74 419 64 421 50 L 322 40 L 322 139 L 45 139 L 52 169 Z M 416 590 L 412 575 C 363 588 314 600 269 611 L 269 437 L 400 437 C 413 437 423 432 425 421 C 396 392 348 353 348 353 L 306 408 L 269 408 L 269 286 C 289 283 298 275 300 263 L 206 252 L 206 408 L 80 408 L 87 437 L 206 437 L 206 625 C 147 640 97 651 68 656 L 107 741 C 116 737 124 729 128 716 C 156 704 181 694 206 684 L 206 863 C 206 876 202 881 188 881 C 172 881 102 875 102 875 L 102 891 C 136 896 154 904 165 914 C 175 924 179 941 181 959 C 260 952 269 922 269 868 L 269 656 C 328 630 376 608 416 590 Z M 462 678 L 773 678 L 773 864 L 462 864 L 462 678 Z M 833 429 L 786 491 L 650 491 L 650 344 C 707 336 759 328 802 319 C 826 330 843 330 853 322 L 780 250 C 694 285 526 326 393 346 L 397 365 C 457 363 522 358 584 352 L 584 491 L 335 491 L 343 520 L 584 520 L 584 648 L 467 648 L 398 618 L 398 957 L 408 957 C 434 957 462 942 462 935 L 462 894 L 773 894 L 773 947 L 783 947 C 805 947 837 932 838 925 L 838 691 C 858 687 874 678 880 670 L 800 609 L 763 648 L 650 648 L 650 520 L 896 520 C 911 520 920 515 923 504 C 889 472 833 429 833 429 Z" fill="red" fill-opacity="0.5" /><text text-anchor="middle" x="500" y="1064" font-family="Arial" font-size="64">Source Han Serif KR</text><text text-anchor="middle" x="1500" y="1064" font-family="Arial" font-size="64">HKSerif (uni8440KX-regular)</text></svg>