<svg width="3000" height="1080" xmlns="http://www.w3.org/2000/svg" style="background:#fff"><path d="M 246 183 L 257 275 C 286 276 309 270 318 258 L 307 183 L 471 183 C 485 183 494 178 497 167 C 466 137 419 99 419 99 L 376 153 L 303 153 L 291 78 C 312 73 320 63 321 51 L 227 43 L 242 153 L 41 153 L 49 183 L 246 183 Z M 223 499 L 223 610 L 234 610 C 253 610 278 597 278 590 L 278 499 L 415 499 C 427 499 437 494 439 483 C 412 455 366 420 366 420 L 327 470 L 278 470 L 278 392 C 299 389 308 380 310 367 L 223 359 L 223 470 L 62 470 L 70 499 L 223 499 Z M 852 587 L 809 639 L 530 639 L 530 324 L 881 324 C 895 324 904 319 907 308 C 876 280 828 245 828 245 L 784 295 L 97 295 L 105 324 L 466 324 L 466 639 L 75 639 L 84 668 L 466 668 L 466 778 L 109 778 L 118 808 L 466 808 L 466 955 L 476 955 C 509 955 530 939 530 934 L 530 808 L 878 808 C 892 808 902 803 905 792 C 871 761 819 722 819 722 L 772 778 L 530 778 L 530 668 L 906 668 C 920 668 930 663 933 652 C 901 624 852 587 852 587 Z M 866 420 L 827 470 L 741 470 L 741 392 C 763 389 771 380 773 367 L 686 359 L 686 470 L 567 470 L 574 499 L 686 499 L 686 607 L 698 607 C 717 607 741 595 741 588 L 741 499 L 914 499 C 927 499 937 494 940 483 C 912 455 866 420 866 420 Z M 882 99 L 840 153 L 719 153 L 730 85 C 755 85 765 75 769 62 L 675 42 L 657 153 L 523 153 L 531 183 L 652 183 L 639 271 C 664 277 688 273 700 265 L 714 183 L 934 183 C 947 183 957 178 960 167 C 930 137 882 99 882 99 Z" fill="blue" /><path transform="translate(1000)" d="M 49 180 L 324 180 L 324 277 L 334 277 C 360 277 388 267 388 259 L 388 180 L 607 180 L 607 274 L 618 274 C 649 273 672 261 672 256 L 672 180 L 931 180 C 945 180 954 175 956 165 C 925 135 871 92 871 92 L 824 152 L 672 152 L 672 76 C 697 73 706 63 707 49 L 607 39 L 607 152 L 388 152 L 388 76 C 413 73 422 63 423 49 L 324 39 L 324 152 L 44 152 L 49 180 Z M 682 482 L 682 617 L 530 617 L 530 482 L 682 482 Z M 465 617 L 317 617 L 317 482 L 465 482 L 465 617 Z M 317 453 L 317 325 L 465 325 L 465 453 L 317 453 Z M 530 325 L 682 325 L 682 453 L 530 453 L 530 325 Z M 880 398 L 836 453 L 746 453 L 746 325 L 890 325 C 904 325 914 320 916 309 C 885 281 836 245 836 245 L 793 296 L 98 296 L 107 325 L 254 325 L 254 453 L 43 453 L 51 482 L 254 482 L 254 617 L 59 617 L 68 646 L 465 646 L 465 763 L 112 763 L 121 793 L 465 793 L 465 957 L 475 957 C 509 957 530 941 530 937 L 530 793 L 875 793 C 889 793 899 788 902 777 C 868 747 815 707 815 707 L 768 763 L 530 763 L 530 646 L 928 646 C 942 646 952 641 954 630 C 923 602 874 565 874 565 L 831 617 L 746 617 L 746 482 L 938 482 C 951 482 960 477 963 466 C 932 437 880 398 880 398 Z" fill="red" /><path transform="translate(2000)" d="M 246 183 L 257 275 C 286 276 309 270 318 258 L 307 183 L 471 183 C 485 183 494 178 497 167 C 466 137 419 99 419 99 L 376 153 L 303 153 L 291 78 C 312 73 320 63 321 51 L 227 43 L 242 153 L 41 153 L 49 183 L 246 183 Z M 223 499 L 223 610 L 234 610 C 253 610 278 597 278 590 L 278 499 L 415 499 C 427 499 437 494 439 483 C 412 455 366 420 366 420 L 327 470 L 278 470 L 278 392 C 299 389 308 380 310 367 L 223 359 L 223 470 L 62 470 L 70 499 L 223 499 Z M 852 587 L 809 639 L 530 639 L 530 324 L 881 324 C 895 324 904 319 907 308 C 876 280 828 245 828 245 L 784 295 L 97 295 L 105 324 L 466 324 L 466 639 L 75 639 L 84 668 L 466 668 L 466 778 L 109 778 L 118 808 L 466 808 L 466 955 L 476 955 C 509 955 530 939 530 934 L 530 808 L 878 808 C 892 808 902 803 905 792 C 871 761 819 722 819 722 L 772 778 L 530 778 L 530 668 L 906 668 C 920 668 930 663 933 652 C 901 624 852 587 852 587 Z M 866 420 L 827 470 L 741 470 L 741 392 C 763 389 771 380 773 367 L 686 359 L 686 470 L 567 470 L 574 499 L 686 499 L 686 607 L 698 607 C 717 607 741 595 741 588 L 741 499 L 914 499 C 927 499 937 494 940 483 C 912 455 866 420 866 420 Z M 882 99 L 840 153 L 719 153 L 730 85 C 755 85 765 75 769 62 L 675 42 L 657 153 L 523 153 L 531 183 L 652 183 L 639 271 C 664 277 688 273 700 265 L 714 183 L 934 183 C 947 183 957 178 960 167 C 930 137 882 99 882 99 Z" fill="blue" fill-opacity="0.5" /><path transform="translate(2000)" d="M 49 180 L 324 180 L 324 277 L 334 277 C 360 277 388 267 388 259 L 388 180 L 607 180 L 607 274 L 618 274 C 649 273 672 261 672 256 L 672 180 L 931 180 C 945 180 954 175 956 165 C 925 135 871 92 871 92 L 824 152 L 672 152 L 672 76 C 697 73 706 63 707 49 L 607 39 L 607 152 L 388 152 L 388 76 C 413 73 422 63 423 49 L 324 39 L 324 152 L 44 152 L 49 180 Z M 682 482 L 682 617 L 530 617 L 530 482 L 682 482 Z M 465 617 L 317 617 L 317 482 L 465 482 L 465 617 Z M 317 453 L 317 325 L 465 325 L 465 453 L 317 453 Z M 530 325 L 682 325 L 682 453 L 530 453 L 530 325 Z M 880 398 L 836 453 L 746 453 L 746 325 L 890 325 C 904 325 914 320 916 309 C 885 281 836 245 836 245 L 793 296 L 98 296 L 107 325 L 254 325 L 254 453 L 43 453 L 51 482 L 254 482 L 254 617 L 59 617 L 68 646 L 465 646 L 465 763 L 112 763 L 121 793 L 465 793 L 465 957 L 475 957 C 509 957 530 941 530 937 L 530 793 L 875 793 C 889 793 899 788 902 777 C 868 747 815 707 815 707 L 768 763 L 530 763 L 530 646 L 928 646 C 942 646 952 641 954 630 C 923 602 874 565 874 565 L 831 617 L 746 617 L 746 482 L 938 482 C 951 482 960 477 963 466 C 932 437 880 398 880 398 Z" fill="red" fill-opacity="0.5" /><text text-anchor="middle" x="500" y="1064" font-family="Arial" font-size="64">Source Han Serif TW</text><text text-anchor="middle" x="1500" y="1064" font-family="Arial" font-size="64">HKSerif (uni83EFHK-regular)</text></svg>