<svg width="3000" height="1080" xmlns="http://www.w3.org/2000/svg" style="background:#fff"><path d="M 245 181 L 256 262 C 284 263 306 256 315 244 L 306 181 L 469 181 C 482 181 492 176 494 165 C 465 137 419 99 419 99 L 377 152 L 302 152 L 291 78 C 312 73 319 63 320 51 L 226 43 L 241 152 L 42 152 L 50 181 L 245 181 Z M 395 511 L 192 511 L 192 424 L 395 424 L 395 511 Z M 192 314 L 395 314 L 395 394 L 192 394 L 192 314 Z M 420 248 L 386 285 L 196 285 L 128 253 L 128 959 L 139 959 C 167 959 192 943 192 935 L 192 540 L 395 540 L 395 595 L 405 595 C 425 595 456 579 457 573 L 457 324 C 474 320 489 312 495 305 L 420 248 Z M 799 511 L 600 511 L 600 424 L 799 424 L 799 511 Z M 600 314 L 799 314 L 799 394 L 600 394 L 600 314 Z M 822 244 L 789 285 L 605 285 L 538 255 L 538 592 L 548 592 C 573 592 600 578 600 571 L 600 540 L 799 540 L 799 870 C 799 885 794 891 779 891 C 761 891 682 884 682 884 L 682 900 C 720 905 739 912 752 920 C 763 929 766 943 769 960 C 852 953 862 925 862 877 L 862 327 C 883 323 898 315 905 307 L 822 244 Z M 882 99 L 840 152 L 753 152 L 768 84 C 793 85 803 75 806 62 L 714 42 L 689 152 L 524 152 L 532 181 L 683 181 L 666 259 C 692 265 716 264 728 255 L 746 181 L 932 181 C 945 181 955 176 957 165 C 928 137 882 99 882 99 Z" fill="blue" /><path transform="translate(1000)" d="M 872 94 L 825 151 L 689 151 L 689 79 C 715 76 723 66 725 52 L 625 42 L 625 151 L 367 151 L 367 79 C 392 76 401 66 403 52 L 304 42 L 304 151 L 42 151 L 49 180 L 304 180 L 304 264 L 314 264 C 340 264 367 255 367 248 L 367 180 L 625 180 L 625 261 L 636 261 C 668 260 689 250 689 243 L 689 180 L 930 180 C 944 180 954 175 956 164 C 924 134 872 94 872 94 Z M 395 511 L 192 511 L 192 424 L 395 424 L 395 511 Z M 192 314 L 395 314 L 395 394 L 192 394 L 192 314 Z M 420 248 L 386 285 L 196 285 L 128 253 L 128 959 L 139 959 C 167 959 192 943 192 935 L 192 540 L 395 540 L 395 595 L 405 595 C 425 595 456 579 457 573 L 457 324 C 474 320 489 312 495 305 L 420 248 Z M 799 511 L 600 511 L 600 424 L 799 424 L 799 511 Z M 600 314 L 799 314 L 799 394 L 600 394 L 600 314 Z M 822 244 L 789 285 L 605 285 L 538 255 L 538 592 L 548 592 C 573 592 600 578 600 571 L 600 540 L 799 540 L 799 870 C 799 885 794 891 779 891 C 761 891 682 884 682 884 L 682 900 C 720 905 739 912 752 920 C 763 929 766 943 769 960 C 852 953 862 925 862 877 L 862 327 C 883 323 898 315 905 307 L 822 244 Z" fill="red" /><path transform="translate(2000)" d="M 245 181 L 256 262 C 284 263 306 256 315 244 L 306 181 L 469 181 C 482 181 492 176 494 165 C 465 137 419 99 419 99 L 377 152 L 302 152 L 291 78 C 312 73 319 63 320 51 L 226 43 L 241 152 L 42 152 L 50 181 L 245 181 Z M 395 511 L 192 511 L 192 424 L 395 424 L 395 511 Z M 192 314 L 395 314 L 395 394 L 192 394 L 192 314 Z M 420 248 L 386 285 L 196 285 L 128 253 L 128 959 L 139 959 C 167 959 192 943 192 935 L 192 540 L 395 540 L 395 595 L 405 595 C 425 595 456 579 457 573 L 457 324 C 474 320 489 312 495 305 L 420 248 Z M 799 511 L 600 511 L 600 424 L 799 424 L 799 511 Z M 600 314 L 799 314 L 799 394 L 600 394 L 600 314 Z M 822 244 L 789 285 L 605 285 L 538 255 L 538 592 L 548 592 C 573 592 600 578 600 571 L 600 540 L 799 540 L 799 870 C 799 885 794 891 779 891 C 761 891 682 884 682 884 L 682 900 C 720 905 739 912 752 920 C 763 929 766 943 769 960 C 852 953 862 925 862 877 L 862 327 C 883 323 898 315 905 307 L 822 244 Z M 882 99 L 840 152 L 753 152 L 768 84 C 793 85 803 75 806 62 L 714 42 L 689 152 L 524 152 L 532 181 L 683 181 L 666 259 C 692 265 716 264 728 255 L 746 181 L 932 181 C 945 181 955 176 957 165 C 928 137 882 99 882 99 Z" fill="blue" fill-opacity="0.5" /><path transform="translate(2000)" d="M 872 94 L 825 151 L 689 151 L 689 79 C 715 76 723 66 725 52 L 625 42 L 625 151 L 367 151 L 367 79 C 392 76 401 66 403 52 L 304 42 L 304 151 L 42 151 L 49 180 L 304 180 L 304 264 L 314 264 C 340 264 367 255 367 248 L 367 180 L 625 180 L 625 261 L 636 261 C 668 260 689 250 689 243 L 689 180 L 930 180 C 944 180 954 175 956 164 C 924 134 872 94 872 94 Z M 395 511 L 192 511 L 192 424 L 395 424 L 395 511 Z M 192 314 L 395 314 L 395 394 L 192 394 L 192 314 Z M 420 248 L 386 285 L 196 285 L 128 253 L 128 959 L 139 959 C 167 959 192 943 192 935 L 192 540 L 395 540 L 395 595 L 405 595 C 425 595 456 579 457 573 L 457 324 C 474 320 489 312 495 305 L 420 248 Z M 799 511 L 600 511 L 600 424 L 799 424 L 799 511 Z M 600 314 L 799 314 L 799 394 L 600 394 L 600 314 Z M 822 244 L 789 285 L 605 285 L 538 255 L 538 592 L 548 592 C 573 592 600 578 600 571 L 600 540 L 799 540 L 799 870 C 799 885 794 891 779 891 C 761 891 682 884 682 884 L 682 900 C 720 905 739 912 752 920 C 763 929 766 943 769 960 C 852 953 862 925 862 877 L 862 327 C 883 323 898 315 905 307 L 822 244 Z" fill="red" fill-opacity="0.5" /><text text-anchor="middle" x="500" y="1064" font-family="Arial" font-size="64">Source Han Serif TW</text><text text-anchor="middle" x="1500" y="1064" font-family="Arial" font-size="64">HKSerif (uni83DBHK-regular)</text></svg>