<svg width="3000" height="1080" xmlns="http://www.w3.org/2000/svg" style="background:#fff"><path d="M 523 133 L 531 163 L 636 163 L 626 220 C 653 226 675 223 688 213 L 697 163 L 927 163 C 941 163 950 158 953 147 C 925 118 878 81 878 81 L 838 133 L 703 133 L 712 84 C 736 84 746 74 749 61 L 656 42 L 641 133 L 523 133 Z M 785 612 L 551 612 L 551 536 L 785 536 L 785 612 Z M 785 671 L 795 671 C 815 671 845 658 846 651 L 846 545 C 864 542 879 534 885 527 L 810 471 L 776 506 L 556 506 L 491 478 L 491 680 L 501 680 C 524 680 551 667 551 662 L 551 641 L 785 641 L 785 671 Z M 866 281 L 827 329 L 776 329 L 776 280 C 793 277 807 269 813 262 L 738 206 L 704 242 L 181 242 L 190 271 L 713 271 L 713 329 L 87 329 L 95 359 L 713 359 L 713 418 L 175 418 L 183 448 L 713 448 L 713 476 L 723 476 C 744 476 775 461 776 454 L 776 359 L 911 359 C 925 359 934 354 937 343 C 910 315 866 281 866 281 Z M 65 637 L 98 708 C 108 706 117 700 123 688 C 271 666 381 647 460 632 L 457 614 C 398 618 339 622 285 625 L 285 540 L 426 540 C 440 540 449 535 452 524 C 422 498 379 465 379 465 L 340 510 L 83 510 L 91 540 L 226 540 L 226 629 C 158 633 101 636 65 637 Z M 269 163 L 277 224 C 306 224 327 217 336 205 L 330 163 L 472 163 C 486 163 494 158 496 147 C 469 118 422 81 422 81 L 382 133 L 326 133 L 319 79 C 337 73 345 62 347 51 L 254 43 L 265 133 L 51 133 L 59 163 L 269 163 Z M 264 776 L 255 787 C 303 813 365 862 388 903 C 462 934 486 791 264 776 Z M 870 675 L 826 726 L 702 726 L 702 686 C 725 682 734 675 737 661 L 639 650 L 639 726 L 60 726 L 68 755 L 639 755 L 639 861 C 639 875 634 880 616 880 C 595 880 487 873 487 873 L 487 889 C 533 895 560 902 576 912 C 589 921 595 937 598 956 C 691 947 702 917 702 864 L 702 755 L 926 755 C 940 755 950 750 952 739 C 919 711 870 675 870 675 Z" fill="blue" /><path transform="translate(1000)" d="M 59 160 L 323 160 L 323 220 L 332 220 C 356 220 380 212 380 205 L 380 160 L 622 160 L 622 217 L 632 217 C 661 216 680 207 680 201 L 680 160 L 928 160 C 942 160 952 155 954 144 C 922 116 873 77 873 77 L 828 131 L 680 131 L 680 81 C 705 78 713 68 715 54 L 622 44 L 622 131 L 380 131 L 380 81 C 406 78 414 68 416 54 L 323 44 L 323 131 L 53 131 L 59 160 Z M 785 612 L 551 612 L 551 536 L 785 536 L 785 612 Z M 785 671 L 795 671 C 815 671 845 658 846 651 L 846 545 C 864 542 879 534 885 527 L 810 471 L 776 506 L 556 506 L 491 478 L 491 680 L 501 680 C 524 680 551 667 551 662 L 551 641 L 785 641 L 785 671 Z M 866 281 L 827 329 L 776 329 L 776 280 C 793 277 807 269 813 262 L 738 206 L 704 242 L 181 242 L 190 271 L 713 271 L 713 329 L 87 329 L 95 359 L 713 359 L 713 418 L 175 418 L 183 448 L 713 448 L 713 476 L 723 476 C 744 476 775 461 776 454 L 776 359 L 911 359 C 925 359 934 354 937 343 C 910 315 866 281 866 281 Z M 65 637 L 98 708 C 108 706 117 700 123 688 C 271 666 381 647 460 632 L 457 614 C 398 618 339 622 285 625 L 285 540 L 426 540 C 440 540 449 535 452 524 C 422 498 379 465 379 465 L 340 510 L 83 510 L 91 540 L 226 540 L 226 629 C 158 633 101 636 65 637 Z M 264 776 L 255 787 C 303 813 365 862 388 903 C 462 934 486 791 264 776 Z M 870 675 L 826 726 L 702 726 L 702 686 C 725 682 734 675 737 661 L 639 650 L 639 726 L 60 726 L 68 755 L 639 755 L 639 861 C 639 875 634 880 616 880 C 595 880 487 873 487 873 L 487 889 C 533 895 560 902 576 912 C 589 921 595 937 598 956 C 691 947 702 917 702 864 L 702 755 L 926 755 C 940 755 950 750 952 739 C 919 711 870 675 870 675 Z" fill="red" /><path transform="translate(2000)" d="M 523 133 L 531 163 L 636 163 L 626 220 C 653 226 675 223 688 213 L 697 163 L 927 163 C 941 163 950 158 953 147 C 925 118 878 81 878 81 L 838 133 L 703 133 L 712 84 C 736 84 746 74 749 61 L 656 42 L 641 133 L 523 133 Z M 785 612 L 551 612 L 551 536 L 785 536 L 785 612 Z M 785 671 L 795 671 C 815 671 845 658 846 651 L 846 545 C 864 542 879 534 885 527 L 810 471 L 776 506 L 556 506 L 491 478 L 491 680 L 501 680 C 524 680 551 667 551 662 L 551 641 L 785 641 L 785 671 Z M 866 281 L 827 329 L 776 329 L 776 280 C 793 277 807 269 813 262 L 738 206 L 704 242 L 181 242 L 190 271 L 713 271 L 713 329 L 87 329 L 95 359 L 713 359 L 713 418 L 175 418 L 183 448 L 713 448 L 713 476 L 723 476 C 744 476 775 461 776 454 L 776 359 L 911 359 C 925 359 934 354 937 343 C 910 315 866 281 866 281 Z M 65 637 L 98 708 C 108 706 117 700 123 688 C 271 666 381 647 460 632 L 457 614 C 398 618 339 622 285 625 L 285 540 L 426 540 C 440 540 449 535 452 524 C 422 498 379 465 379 465 L 340 510 L 83 510 L 91 540 L 226 540 L 226 629 C 158 633 101 636 65 637 Z M 269 163 L 277 224 C 306 224 327 217 336 205 L 330 163 L 472 163 C 486 163 494 158 496 147 C 469 118 422 81 422 81 L 382 133 L 326 133 L 319 79 C 337 73 345 62 347 51 L 254 43 L 265 133 L 51 133 L 59 163 L 269 163 Z M 264 776 L 255 787 C 303 813 365 862 388 903 C 462 934 486 791 264 776 Z M 870 675 L 826 726 L 702 726 L 702 686 C 725 682 734 675 737 661 L 639 650 L 639 726 L 60 726 L 68 755 L 639 755 L 639 861 C 639 875 634 880 616 880 C 595 880 487 873 487 873 L 487 889 C 533 895 560 902 576 912 C 589 921 595 937 598 956 C 691 947 702 917 702 864 L 702 755 L 926 755 C 940 755 950 750 952 739 C 919 711 870 675 870 675 Z" fill="blue" fill-opacity="0.5" /><path transform="translate(2000)" d="M 59 160 L 323 160 L 323 220 L 332 220 C 356 220 380 212 380 205 L 380 160 L 622 160 L 622 217 L 632 217 C 661 216 680 207 680 201 L 680 160 L 928 160 C 942 160 952 155 954 144 C 922 116 873 77 873 77 L 828 131 L 680 131 L 680 81 C 705 78 713 68 715 54 L 622 44 L 622 131 L 380 131 L 380 81 C 406 78 414 68 416 54 L 323 44 L 323 131 L 53 131 L 59 160 Z M 785 612 L 551 612 L 551 536 L 785 536 L 785 612 Z M 785 671 L 795 671 C 815 671 845 658 846 651 L 846 545 C 864 542 879 534 885 527 L 810 471 L 776 506 L 556 506 L 491 478 L 491 680 L 501 680 C 524 680 551 667 551 662 L 551 641 L 785 641 L 785 671 Z M 866 281 L 827 329 L 776 329 L 776 280 C 793 277 807 269 813 262 L 738 206 L 704 242 L 181 242 L 190 271 L 713 271 L 713 329 L 87 329 L 95 359 L 713 359 L 713 418 L 175 418 L 183 448 L 713 448 L 713 476 L 723 476 C 744 476 775 461 776 454 L 776 359 L 911 359 C 925 359 934 354 937 343 C 910 315 866 281 866 281 Z M 65 637 L 98 708 C 108 706 117 700 123 688 C 271 666 381 647 460 632 L 457 614 C 398 618 339 622 285 625 L 285 540 L 426 540 C 440 540 449 535 452 524 C 422 498 379 465 379 465 L 340 510 L 83 510 L 91 540 L 226 540 L 226 629 C 158 633 101 636 65 637 Z M 264 776 L 255 787 C 303 813 365 862 388 903 C 462 934 486 791 264 776 Z M 870 675 L 826 726 L 702 726 L 702 686 C 725 682 734 675 737 661 L 639 650 L 639 726 L 60 726 L 68 755 L 639 755 L 639 861 C 639 875 634 880 616 880 C 595 880 487 873 487 873 L 487 889 C 533 895 560 902 576 912 C 589 921 595 937 598 956 C 691 947 702 917 702 864 L 702 755 L 926 755 C 940 755 950 750 952 739 C 919 711 870 675 870 675 Z" fill="red" fill-opacity="0.5" /><text text-anchor="middle" x="500" y="1064" font-family="Arial" font-size="64">Source Han Serif TW</text><text text-anchor="middle" x="1500" y="1064" font-family="Arial" font-size="64">HKSerif (uni8541HK-regular)</text></svg>