<svg width="3000" height="1080" xmlns="http://www.w3.org/2000/svg" style="background:#fff"><path d="M 760 322 L 841 322 L 841 422 L 760 422 L 760 322 Z M 841 553 L 760 553 L 760 451 L 841 451 L 841 553 Z M 703 553 L 624 553 L 624 451 L 703 451 L 703 553 Z M 624 322 L 703 322 L 703 422 L 624 422 L 624 322 Z M 537 171 L 544 200 L 703 200 L 703 293 L 629 293 L 569 266 L 569 629 L 578 629 C 600 629 624 616 624 610 L 624 583 L 703 583 L 703 686 L 532 686 L 539 715 L 703 715 L 703 854 L 714 854 C 735 854 760 840 760 832 L 760 715 L 930 715 C 943 715 953 710 956 699 C 926 670 878 632 878 632 L 837 686 L 760 686 L 760 583 L 841 583 L 841 615 L 850 615 C 869 615 898 602 899 595 L 899 331 C 916 328 931 320 937 313 L 865 258 L 832 293 L 760 293 L 760 200 L 927 200 C 940 200 950 195 953 184 C 923 156 874 118 874 118 L 832 171 L 760 171 L 760 82 C 785 78 793 67 796 53 L 703 43 L 703 171 L 537 171 Z M 393 70 L 382 77 C 418 110 459 165 468 210 C 529 253 578 125 393 70 Z M 375 273 L 364 281 C 398 313 440 368 453 410 C 514 449 559 328 375 273 Z M 389 415 L 321 371 C 301 415 277 455 256 484 C 248 480 239 477 230 473 L 230 453 C 272 391 307 326 331 265 C 353 263 364 261 372 253 L 309 191 L 268 229 L 226 229 L 226 80 C 250 76 261 66 263 52 L 166 42 L 166 229 L 43 229 L 52 259 L 263 259 C 219 389 128 541 30 638 L 42 652 C 90 617 133 576 171 531 L 171 957 L 181 957 C 209 957 230 942 230 937 L 230 495 C 264 531 302 582 313 622 C 363 659 405 568 277 495 C 303 476 330 449 352 424 C 369 429 383 423 389 415 Z M 504 790 L 504 576 C 531 572 545 564 552 557 L 472 488 L 435 536 L 362 536 L 368 566 L 449 566 L 449 811 C 405 840 359 869 328 885 L 373 958 C 381 953 385 947 382 935 C 413 905 461 850 493 810 C 536 915 592 938 709 938 L 919 938 C 922 910 935 891 957 888 L 957 874 C 881 876 786 876 709 876 C 603 876 551 864 504 790 Z" fill="blue" /><path transform="translate(1000)" d="M 389 415 L 321 371 C 301 415 277 455 256 484 C 248 480 239 477 230 473 L 230 453 C 272 391 307 326 331 265 C 353 263 364 261 372 253 L 309 191 L 268 229 L 226 229 L 226 80 C 250 76 261 66 263 52 L 166 42 L 166 229 L 43 229 L 52 259 L 263 259 C 219 389 128 541 30 638 L 42 652 C 90 617 133 576 171 531 L 171 957 L 181 957 C 209 957 230 942 230 937 L 230 495 C 264 531 302 582 313 622 C 363 659 405 568 277 495 C 303 476 330 449 352 424 C 369 429 383 423 389 415 Z M 751 306 L 850 306 L 850 405 L 751 405 L 751 306 Z M 850 537 L 751 537 L 751 434 L 850 434 L 850 537 Z M 599 537 L 599 434 L 695 434 L 695 537 L 599 537 Z M 599 306 L 695 306 L 695 405 L 599 405 L 599 306 Z M 505 159 L 513 188 L 693 188 L 693 277 L 604 277 L 540 248 L 540 617 L 548 617 C 574 617 599 603 599 597 L 599 566 L 693 566 L 693 677 L 502 677 L 510 706 L 693 706 L 693 854 L 702 854 C 733 854 753 838 753 834 L 753 706 L 941 706 C 954 706 963 701 966 690 C 936 662 886 622 886 622 L 843 677 L 753 677 L 753 566 L 850 566 L 850 606 L 860 606 C 879 606 909 591 910 585 L 910 315 C 927 312 942 304 948 297 L 874 241 L 841 277 L 753 277 L 753 188 L 939 188 C 953 188 961 183 964 173 C 935 144 886 104 886 104 L 843 159 L 753 159 L 753 78 C 776 74 784 65 786 52 L 693 43 L 693 159 L 505 159 Z M 374 68 L 362 76 C 394 109 432 167 439 212 C 497 257 547 135 374 68 Z M 349 291 L 337 299 C 373 332 415 387 425 432 C 483 474 530 352 349 291 Z M 474 780 L 474 583 C 501 579 516 571 522 564 L 441 496 L 404 544 L 319 544 L 325 573 L 419 573 L 419 806 C 382 835 344 862 318 878 L 365 952 C 372 948 376 941 373 929 C 398 898 438 842 463 801 C 510 910 571 933 699 933 L 931 933 C 933 905 948 884 971 880 L 971 866 C 889 868 782 868 699 868 C 581 868 526 856 474 780 Z" fill="red" /><path transform="translate(2000)" d="M 760 322 L 841 322 L 841 422 L 760 422 L 760 322 Z M 841 553 L 760 553 L 760 451 L 841 451 L 841 553 Z M 703 553 L 624 553 L 624 451 L 703 451 L 703 553 Z M 624 322 L 703 322 L 703 422 L 624 422 L 624 322 Z M 537 171 L 544 200 L 703 200 L 703 293 L 629 293 L 569 266 L 569 629 L 578 629 C 600 629 624 616 624 610 L 624 583 L 703 583 L 703 686 L 532 686 L 539 715 L 703 715 L 703 854 L 714 854 C 735 854 760 840 760 832 L 760 715 L 930 715 C 943 715 953 710 956 699 C 926 670 878 632 878 632 L 837 686 L 760 686 L 760 583 L 841 583 L 841 615 L 850 615 C 869 615 898 602 899 595 L 899 331 C 916 328 931 320 937 313 L 865 258 L 832 293 L 760 293 L 760 200 L 927 200 C 940 200 950 195 953 184 C 923 156 874 118 874 118 L 832 171 L 760 171 L 760 82 C 785 78 793 67 796 53 L 703 43 L 703 171 L 537 171 Z M 393 70 L 382 77 C 418 110 459 165 468 210 C 529 253 578 125 393 70 Z M 375 273 L 364 281 C 398 313 440 368 453 410 C 514 449 559 328 375 273 Z M 389 415 L 321 371 C 301 415 277 455 256 484 C 248 480 239 477 230 473 L 230 453 C 272 391 307 326 331 265 C 353 263 364 261 372 253 L 309 191 L 268 229 L 226 229 L 226 80 C 250 76 261 66 263 52 L 166 42 L 166 229 L 43 229 L 52 259 L 263 259 C 219 389 128 541 30 638 L 42 652 C 90 617 133 576 171 531 L 171 957 L 181 957 C 209 957 230 942 230 937 L 230 495 C 264 531 302 582 313 622 C 363 659 405 568 277 495 C 303 476 330 449 352 424 C 369 429 383 423 389 415 Z M 504 790 L 504 576 C 531 572 545 564 552 557 L 472 488 L 435 536 L 362 536 L 368 566 L 449 566 L 449 811 C 405 840 359 869 328 885 L 373 958 C 381 953 385 947 382 935 C 413 905 461 850 493 810 C 536 915 592 938 709 938 L 919 938 C 922 910 935 891 957 888 L 957 874 C 881 876 786 876 709 876 C 603 876 551 864 504 790 Z" fill="blue" fill-opacity="0.5" /><path transform="translate(2000)" d="M 389 415 L 321 371 C 301 415 277 455 256 484 C 248 480 239 477 230 473 L 230 453 C 272 391 307 326 331 265 C 353 263 364 261 372 253 L 309 191 L 268 229 L 226 229 L 226 80 C 250 76 261 66 263 52 L 166 42 L 166 229 L 43 229 L 52 259 L 263 259 C 219 389 128 541 30 638 L 42 652 C 90 617 133 576 171 531 L 171 957 L 181 957 C 209 957 230 942 230 937 L 230 495 C 264 531 302 582 313 622 C 363 659 405 568 277 495 C 303 476 330 449 352 424 C 369 429 383 423 389 415 Z M 751 306 L 850 306 L 850 405 L 751 405 L 751 306 Z M 850 537 L 751 537 L 751 434 L 850 434 L 850 537 Z M 599 537 L 599 434 L 695 434 L 695 537 L 599 537 Z M 599 306 L 695 306 L 695 405 L 599 405 L 599 306 Z M 505 159 L 513 188 L 693 188 L 693 277 L 604 277 L 540 248 L 540 617 L 548 617 C 574 617 599 603 599 597 L 599 566 L 693 566 L 693 677 L 502 677 L 510 706 L 693 706 L 693 854 L 702 854 C 733 854 753 838 753 834 L 753 706 L 941 706 C 954 706 963 701 966 690 C 936 662 886 622 886 622 L 843 677 L 753 677 L 753 566 L 850 566 L 850 606 L 860 606 C 879 606 909 591 910 585 L 910 315 C 927 312 942 304 948 297 L 874 241 L 841 277 L 753 277 L 753 188 L 939 188 C 953 188 961 183 964 173 C 935 144 886 104 886 104 L 843 159 L 753 159 L 753 78 C 776 74 784 65 786 52 L 693 43 L 693 159 L 505 159 Z M 374 68 L 362 76 C 394 109 432 167 439 212 C 497 257 547 135 374 68 Z M 349 291 L 337 299 C 373 332 415 387 425 432 C 483 474 530 352 349 291 Z M 474 780 L 474 583 C 501 579 516 571 522 564 L 441 496 L 404 544 L 319 544 L 325 573 L 419 573 L 419 806 C 382 835 344 862 318 878 L 365 952 C 372 948 376 941 373 929 C 398 898 438 842 463 801 C 510 910 571 933 699 933 L 931 933 C 933 905 948 884 971 880 L 971 866 C 889 868 782 868 699 868 C 581 868 526 856 474 780 Z" fill="red" fill-opacity="0.5" /><text text-anchor="middle" x="500" y="1064" font-family="Arial" font-size="64">Source Han Serif KR</text><text text-anchor="middle" x="1500" y="1064" font-family="Arial" font-size="64">HKSerif (uni8933KX-regular)</text></svg>