<svg width="3000" height="1080" xmlns="http://www.w3.org/2000/svg" style="background:#fff"><path d="M 51 168 L 59 197 L 248 197 L 262 301 C 290 301 314 295 323 283 L 311 197 L 472 197 C 486 197 496 192 498 181 C 467 152 417 111 417 111 L 373 168 L 307 168 L 294 77 C 314 71 321 61 323 49 L 228 42 L 245 168 L 51 168 Z M 382 339 L 370 346 C 422 406 486 505 503 578 C 577 637 632 471 382 339 Z M 514 712 L 509 697 C 412 729 316 762 235 788 L 235 358 C 260 354 271 345 273 330 L 169 318 L 169 809 C 122 823 83 835 57 841 L 109 927 C 118 923 126 913 128 900 C 300 822 425 758 514 712 Z M 845 322 L 738 310 C 730 590 698 782 346 939 L 357 958 C 565 885 675 796 734 690 C 796 757 863 856 877 935 C 956 996 1010 813 744 672 C 790 578 801 472 808 350 C 832 347 843 336 845 322 Z M 871 111 L 828 168 L 737 168 L 752 84 C 776 85 787 75 790 62 L 695 41 L 674 168 L 524 168 L 531 197 L 669 197 L 653 297 C 680 303 704 301 716 291 L 732 197 L 927 197 C 940 197 949 192 952 181 C 922 152 871 111 871 111 Z" fill="blue" /><path transform="translate(1000)" d="M 520 712 L 515 697 C 418 729 322 762 241 788 L 175 809 C 128 823 89 835 63 841 L 115 927 C 124 923 132 913 134 900 C 306 822 431 758 520 712 Z M 314 194 L 314 305 L 324 305 C 350 305 378 295 378 286 L 378 194 L 617 194 L 617 302 L 628 302 C 659 302 681 289 681 282 L 681 194 L 929 194 C 943 194 954 189 956 178 C 925 148 869 104 869 104 L 821 165 L 681 165 L 681 80 C 707 76 715 66 717 53 L 617 42 L 617 165 L 378 165 L 378 80 C 403 76 413 66 414 53 L 314 42 L 314 165 L 46 165 L 52 194 L 314 194 Z M 372 358 L 361 366 C 421 419 488 509 499 584 C 574 643 632 464 372 358 Z M 174 840 L 240 798 L 240 343 C 264 339 276 330 277 315 L 174 304 L 174 840 Z M 832 295 L 726 284 C 720 622 700 801 311 945 L 321 962 C 552 896 667 813 727 702 C 796 768 871 864 891 941 C 971 999 1018 820 737 681 C 782 585 790 467 796 322 C 819 320 830 309 832 295 Z" fill="red" /><path transform="translate(2000)" d="M 51 168 L 59 197 L 248 197 L 262 301 C 290 301 314 295 323 283 L 311 197 L 472 197 C 486 197 496 192 498 181 C 467 152 417 111 417 111 L 373 168 L 307 168 L 294 77 C 314 71 321 61 323 49 L 228 42 L 245 168 L 51 168 Z M 382 339 L 370 346 C 422 406 486 505 503 578 C 577 637 632 471 382 339 Z M 514 712 L 509 697 C 412 729 316 762 235 788 L 235 358 C 260 354 271 345 273 330 L 169 318 L 169 809 C 122 823 83 835 57 841 L 109 927 C 118 923 126 913 128 900 C 300 822 425 758 514 712 Z M 845 322 L 738 310 C 730 590 698 782 346 939 L 357 958 C 565 885 675 796 734 690 C 796 757 863 856 877 935 C 956 996 1010 813 744 672 C 790 578 801 472 808 350 C 832 347 843 336 845 322 Z M 871 111 L 828 168 L 737 168 L 752 84 C 776 85 787 75 790 62 L 695 41 L 674 168 L 524 168 L 531 197 L 669 197 L 653 297 C 680 303 704 301 716 291 L 732 197 L 927 197 C 940 197 949 192 952 181 C 922 152 871 111 871 111 Z" fill="blue" fill-opacity="0.5" /><path transform="translate(2000)" d="M 520 712 L 515 697 C 418 729 322 762 241 788 L 175 809 C 128 823 89 835 63 841 L 115 927 C 124 923 132 913 134 900 C 306 822 431 758 520 712 Z M 314 194 L 314 305 L 324 305 C 350 305 378 295 378 286 L 378 194 L 617 194 L 617 302 L 628 302 C 659 302 681 289 681 282 L 681 194 L 929 194 C 943 194 954 189 956 178 C 925 148 869 104 869 104 L 821 165 L 681 165 L 681 80 C 707 76 715 66 717 53 L 617 42 L 617 165 L 378 165 L 378 80 C 403 76 413 66 414 53 L 314 42 L 314 165 L 46 165 L 52 194 L 314 194 Z M 372 358 L 361 366 C 421 419 488 509 499 584 C 574 643 632 464 372 358 Z M 174 840 L 240 798 L 240 343 C 264 339 276 330 277 315 L 174 304 L 174 840 Z M 832 295 L 726 284 C 720 622 700 801 311 945 L 321 962 C 552 896 667 813 727 702 C 796 768 871 864 891 941 C 971 999 1018 820 737 681 C 782 585 790 467 796 322 C 819 320 830 309 832 295 Z" fill="red" fill-opacity="0.5" /><text text-anchor="middle" x="500" y="1064" font-family="Arial" font-size="64">Source Han Serif TW</text><text text-anchor="middle" x="1500" y="1064" font-family="Arial" font-size="64">HKSerif (uni82E1HK-regular-v2)</text></svg>