<svg width="3000" height="1080" xmlns="http://www.w3.org/2000/svg" style="background:#fff"><path d="M 416 387 L 216 387 L 216 297 L 416 297 L 416 387 Z M 416 444 L 425 444 C 446 444 476 430 477 424 L 477 308 C 496 304 512 296 519 289 L 441 231 L 406 268 L 221 268 L 154 239 L 154 456 L 163 456 C 188 456 216 443 216 438 L 216 417 L 416 417 L 416 444 Z M 263 169 L 273 247 C 301 248 324 242 333 229 L 324 169 L 466 169 C 479 169 489 164 492 153 C 463 124 417 87 417 87 L 377 139 L 320 139 L 311 77 C 331 71 339 61 340 49 L 246 42 L 259 139 L 41 139 L 49 169 L 263 169 Z M 416 511 L 416 588 L 216 588 L 216 511 L 416 511 Z M 216 812 L 216 721 L 416 721 L 416 790 C 345 798 275 806 216 812 Z M 416 617 L 416 692 L 216 692 L 216 617 L 416 617 Z M 478 511 L 558 511 C 572 511 581 506 584 495 C 551 465 500 426 500 426 L 455 481 L 76 481 L 84 511 L 154 511 L 154 818 C 121 821 94 823 74 824 L 105 906 C 114 904 123 898 128 885 C 248 857 343 833 416 814 L 416 958 L 426 958 C 457 958 478 944 478 939 L 478 511 Z M 901 889 L 917 764 L 904 761 C 895 791 881 834 871 854 C 864 865 859 865 845 856 C 810 835 783 802 760 761 C 812 699 853 634 880 573 C 904 575 912 570 918 559 L 831 528 C 810 588 779 653 737 713 C 714 656 699 591 688 523 L 888 481 C 899 479 908 471 908 461 C 878 437 827 400 827 400 L 790 474 L 684 496 C 674 425 669 353 667 289 C 690 285 699 274 700 262 L 601 252 C 605 336 612 423 625 508 L 512 531 L 524 556 L 629 535 C 643 621 665 702 697 770 C 647 831 589 886 523 928 L 533 941 C 603 907 664 860 716 808 C 743 856 777 896 818 921 C 855 948 901 967 920 945 C 932 935 921 913 901 889 Z M 716 247 L 706 255 C 739 287 779 340 788 380 C 844 423 894 309 716 247 Z M 888 87 L 848 139 L 731 139 L 741 82 C 766 82 776 72 779 59 L 686 40 L 669 139 L 523 139 L 531 169 L 664 169 L 653 237 C 679 243 703 240 714 231 L 725 169 L 938 169 C 952 169 961 164 963 153 C 935 124 888 87 888 87 Z" fill="blue" /><path transform="translate(1000)" d="M 500 787 L 437 797 C 355 808 277 818 208 826 L 144 833 C 107 837 78 839 55 841 L 87 921 C 97 919 106 911 110 899 C 241 873 347 851 437 830 L 500 815 L 590 793 L 588 776 L 500 787 Z M 437 511 L 437 590 L 208 590 L 208 511 L 437 511 Z M 208 826 L 208 730 L 437 730 L 437 806 C 355 814 276 821 208 826 Z M 208 701 L 208 620 L 437 620 L 437 701 L 208 701 Z M 501 511 L 560 511 C 574 511 584 506 587 496 C 554 466 503 426 503 426 L 458 482 L 49 482 L 57 511 L 143 511 L 143 841 L 437 824 L 437 957 L 448 957 C 480 957 501 943 501 938 L 501 511 Z M 437 388 L 208 388 L 208 297 L 437 297 L 437 388 Z M 437 444 L 447 444 C 467 444 500 430 501 424 L 501 308 C 520 305 536 297 541 289 L 463 230 L 428 268 L 212 268 L 144 238 L 144 457 L 153 457 C 179 457 208 443 208 437 L 208 418 L 437 418 L 437 444 Z M 940 894 L 955 767 L 944 763 C 934 795 919 838 908 858 C 902 869 897 870 884 860 C 847 836 818 796 795 745 C 848 690 889 631 917 575 C 941 578 950 573 955 562 L 868 527 C 846 582 815 638 775 692 C 757 638 744 576 735 513 L 940 473 C 952 471 960 463 959 453 C 929 427 877 391 877 391 L 841 464 L 731 486 C 722 414 717 341 715 275 C 739 271 748 261 749 249 L 672 241 C 683 238 689 233 689 229 L 689 170 L 930 170 C 944 170 953 165 955 154 C 924 123 871 82 871 82 L 824 140 L 689 140 L 689 75 C 714 72 722 62 724 48 L 624 38 L 624 140 L 368 140 L 368 75 C 392 72 401 62 403 48 L 304 38 L 304 140 L 43 140 L 49 170 L 304 170 L 304 251 L 314 251 C 341 251 368 241 368 234 L 368 170 L 624 170 L 624 247 L 635 247 C 640 247 645 246 649 246 C 652 328 659 414 670 497 L 529 525 L 541 550 L 674 524 C 686 605 704 682 730 748 C 673 813 604 871 526 914 L 535 927 C 616 893 688 845 748 791 C 776 849 811 896 856 926 C 892 954 939 974 958 952 C 970 941 960 918 940 894 Z M 777 249 L 766 257 C 802 284 847 336 859 377 C 920 418 966 293 777 249 Z" fill="red" /><path transform="translate(2000)" d="M 416 387 L 216 387 L 216 297 L 416 297 L 416 387 Z M 416 444 L 425 444 C 446 444 476 430 477 424 L 477 308 C 496 304 512 296 519 289 L 441 231 L 406 268 L 221 268 L 154 239 L 154 456 L 163 456 C 188 456 216 443 216 438 L 216 417 L 416 417 L 416 444 Z M 263 169 L 273 247 C 301 248 324 242 333 229 L 324 169 L 466 169 C 479 169 489 164 492 153 C 463 124 417 87 417 87 L 377 139 L 320 139 L 311 77 C 331 71 339 61 340 49 L 246 42 L 259 139 L 41 139 L 49 169 L 263 169 Z M 416 511 L 416 588 L 216 588 L 216 511 L 416 511 Z M 216 812 L 216 721 L 416 721 L 416 790 C 345 798 275 806 216 812 Z M 416 617 L 416 692 L 216 692 L 216 617 L 416 617 Z M 478 511 L 558 511 C 572 511 581 506 584 495 C 551 465 500 426 500 426 L 455 481 L 76 481 L 84 511 L 154 511 L 154 818 C 121 821 94 823 74 824 L 105 906 C 114 904 123 898 128 885 C 248 857 343 833 416 814 L 416 958 L 426 958 C 457 958 478 944 478 939 L 478 511 Z M 901 889 L 917 764 L 904 761 C 895 791 881 834 871 854 C 864 865 859 865 845 856 C 810 835 783 802 760 761 C 812 699 853 634 880 573 C 904 575 912 570 918 559 L 831 528 C 810 588 779 653 737 713 C 714 656 699 591 688 523 L 888 481 C 899 479 908 471 908 461 C 878 437 827 400 827 400 L 790 474 L 684 496 C 674 425 669 353 667 289 C 690 285 699 274 700 262 L 601 252 C 605 336 612 423 625 508 L 512 531 L 524 556 L 629 535 C 643 621 665 702 697 770 C 647 831 589 886 523 928 L 533 941 C 603 907 664 860 716 808 C 743 856 777 896 818 921 C 855 948 901 967 920 945 C 932 935 921 913 901 889 Z M 716 247 L 706 255 C 739 287 779 340 788 380 C 844 423 894 309 716 247 Z M 888 87 L 848 139 L 731 139 L 741 82 C 766 82 776 72 779 59 L 686 40 L 669 139 L 523 139 L 531 169 L 664 169 L 653 237 C 679 243 703 240 714 231 L 725 169 L 938 169 C 952 169 961 164 963 153 C 935 124 888 87 888 87 Z" fill="blue" fill-opacity="0.5" /><path transform="translate(2000)" d="M 500 787 L 437 797 C 355 808 277 818 208 826 L 144 833 C 107 837 78 839 55 841 L 87 921 C 97 919 106 911 110 899 C 241 873 347 851 437 830 L 500 815 L 590 793 L 588 776 L 500 787 Z M 437 511 L 437 590 L 208 590 L 208 511 L 437 511 Z M 208 826 L 208 730 L 437 730 L 437 806 C 355 814 276 821 208 826 Z M 208 701 L 208 620 L 437 620 L 437 701 L 208 701 Z M 501 511 L 560 511 C 574 511 584 506 587 496 C 554 466 503 426 503 426 L 458 482 L 49 482 L 57 511 L 143 511 L 143 841 L 437 824 L 437 957 L 448 957 C 480 957 501 943 501 938 L 501 511 Z M 437 388 L 208 388 L 208 297 L 437 297 L 437 388 Z M 437 444 L 447 444 C 467 444 500 430 501 424 L 501 308 C 520 305 536 297 541 289 L 463 230 L 428 268 L 212 268 L 144 238 L 144 457 L 153 457 C 179 457 208 443 208 437 L 208 418 L 437 418 L 437 444 Z M 940 894 L 955 767 L 944 763 C 934 795 919 838 908 858 C 902 869 897 870 884 860 C 847 836 818 796 795 745 C 848 690 889 631 917 575 C 941 578 950 573 955 562 L 868 527 C 846 582 815 638 775 692 C 757 638 744 576 735 513 L 940 473 C 952 471 960 463 959 453 C 929 427 877 391 877 391 L 841 464 L 731 486 C 722 414 717 341 715 275 C 739 271 748 261 749 249 L 672 241 C 683 238 689 233 689 229 L 689 170 L 930 170 C 944 170 953 165 955 154 C 924 123 871 82 871 82 L 824 140 L 689 140 L 689 75 C 714 72 722 62 724 48 L 624 38 L 624 140 L 368 140 L 368 75 C 392 72 401 62 403 48 L 304 38 L 304 140 L 43 140 L 49 170 L 304 170 L 304 251 L 314 251 C 341 251 368 241 368 234 L 368 170 L 624 170 L 624 247 L 635 247 C 640 247 645 246 649 246 C 652 328 659 414 670 497 L 529 525 L 541 550 L 674 524 C 686 605 704 682 730 748 C 673 813 604 871 526 914 L 535 927 C 616 893 688 845 748 791 C 776 849 811 896 856 926 C 892 954 939 974 958 952 C 970 941 960 918 940 894 Z M 777 249 L 766 257 C 802 284 847 336 859 377 C 920 418 966 293 777 249 Z" fill="red" fill-opacity="0.5" /><text text-anchor="middle" x="500" y="1064" font-family="Arial" font-size="64">Source Han Serif TW</text><text text-anchor="middle" x="1500" y="1064" font-family="Arial" font-size="64">HKSerif (uni857AHK-regular)</text></svg>