<svg width="3000" height="1080" xmlns="http://www.w3.org/2000/svg" style="background:#fff"><path d="M 524 142 L 532 171 L 667 171 L 655 243 C 681 249 705 246 717 237 L 729 171 L 924 171 C 938 171 947 166 950 155 C 921 127 874 89 874 89 L 832 142 L 734 142 L 745 84 C 768 84 779 74 782 61 L 689 42 L 672 142 L 524 142 Z M 624 436 L 912 436 C 926 436 935 431 938 420 C 907 390 853 350 853 350 L 808 407 L 524 407 L 524 312 L 804 312 C 818 312 828 307 830 296 C 796 267 743 231 743 231 L 696 282 L 524 282 L 524 238 C 545 234 553 226 555 213 L 459 203 L 459 282 L 173 282 L 181 312 L 459 312 L 459 407 L 77 407 L 86 436 L 340 436 C 297 536 199 604 57 647 L 63 663 C 232 628 357 562 415 436 L 562 436 L 562 529 C 562 573 575 586 649 586 L 753 586 C 907 586 933 578 933 553 C 933 541 925 535 903 529 L 891 529 C 884 531 875 532 868 533 C 864 534 856 535 848 535 C 834 536 798 536 758 536 L 661 536 C 626 536 624 533 624 521 L 624 436 Z M 52 142 L 60 171 L 247 171 L 257 248 C 285 248 307 242 317 229 L 308 171 L 470 171 C 484 171 493 166 495 155 C 467 127 419 89 419 89 L 378 142 L 304 142 L 294 78 C 315 72 322 62 324 51 L 230 43 L 244 142 L 52 142 Z M 377 677 L 667 677 C 627 725 575 767 513 801 C 449 775 393 740 347 698 C 357 691 367 684 377 677 Z M 796 675 L 727 608 L 678 647 L 417 647 C 442 626 466 606 486 585 C 513 585 526 580 529 570 L 430 545 C 403 583 363 624 315 663 C 299 644 284 623 271 602 L 255 614 C 267 637 280 659 294 680 C 239 722 173 762 105 791 L 115 805 C 189 783 258 751 320 714 C 358 761 404 799 456 831 C 341 884 203 920 52 942 L 59 960 C 231 945 382 914 507 859 C 612 911 742 940 892 958 C 899 925 918 904 948 898 L 949 886 C 811 878 684 859 577 825 C 644 787 702 742 749 687 C 775 686 787 684 796 675 Z" fill="blue" /><path transform="translate(1000)" d="M 51 169 L 310 169 L 310 247 L 320 247 C 347 247 374 238 374 230 L 374 169 L 623 169 L 623 244 L 633 244 C 665 243 687 232 687 226 L 687 169 L 931 169 C 945 169 954 164 957 153 C 926 122 872 82 872 82 L 826 139 L 687 139 L 687 77 C 711 74 720 64 722 50 L 623 40 L 623 139 L 374 139 L 374 77 C 399 74 407 63 409 50 L 310 40 L 310 139 L 45 139 L 51 169 Z M 624 436 L 912 436 C 926 436 935 431 938 420 C 907 390 853 350 853 350 L 808 407 L 524 407 L 524 312 L 804 312 C 818 312 828 307 830 296 C 796 267 743 231 743 231 L 696 282 L 524 282 L 524 238 C 545 234 553 226 555 213 L 459 203 L 459 282 L 173 282 L 181 312 L 459 312 L 459 407 L 77 407 L 86 436 L 340 436 C 297 536 199 604 57 647 L 63 663 C 232 628 357 562 415 436 L 562 436 L 562 529 C 562 573 575 586 649 586 L 753 586 C 907 586 933 578 933 553 C 933 541 925 535 903 529 L 891 529 C 884 531 875 532 868 533 C 864 534 856 535 848 535 C 834 536 798 536 758 536 L 661 536 C 626 536 624 533 624 521 L 624 436 Z M 377 676 L 637 676 C 599 722 551 762 494 796 C 436 769 388 736 351 694 C 360 688 369 682 377 676 Z M 764 674 L 695 607 L 646 647 L 416 647 C 442 626 465 605 485 585 C 513 585 526 580 529 570 L 430 544 C 369 630 244 731 105 791 L 115 805 C 195 781 269 746 333 706 C 365 751 404 789 450 820 C 336 878 195 916 41 941 L 47 958 C 222 942 374 908 498 849 C 608 909 749 940 914 957 C 920 925 940 905 967 898 L 967 886 C 813 880 669 861 553 820 C 618 783 673 738 718 685 C 744 685 755 683 764 674 Z" fill="red" /><path transform="translate(2000)" d="M 524 142 L 532 171 L 667 171 L 655 243 C 681 249 705 246 717 237 L 729 171 L 924 171 C 938 171 947 166 950 155 C 921 127 874 89 874 89 L 832 142 L 734 142 L 745 84 C 768 84 779 74 782 61 L 689 42 L 672 142 L 524 142 Z M 624 436 L 912 436 C 926 436 935 431 938 420 C 907 390 853 350 853 350 L 808 407 L 524 407 L 524 312 L 804 312 C 818 312 828 307 830 296 C 796 267 743 231 743 231 L 696 282 L 524 282 L 524 238 C 545 234 553 226 555 213 L 459 203 L 459 282 L 173 282 L 181 312 L 459 312 L 459 407 L 77 407 L 86 436 L 340 436 C 297 536 199 604 57 647 L 63 663 C 232 628 357 562 415 436 L 562 436 L 562 529 C 562 573 575 586 649 586 L 753 586 C 907 586 933 578 933 553 C 933 541 925 535 903 529 L 891 529 C 884 531 875 532 868 533 C 864 534 856 535 848 535 C 834 536 798 536 758 536 L 661 536 C 626 536 624 533 624 521 L 624 436 Z M 52 142 L 60 171 L 247 171 L 257 248 C 285 248 307 242 317 229 L 308 171 L 470 171 C 484 171 493 166 495 155 C 467 127 419 89 419 89 L 378 142 L 304 142 L 294 78 C 315 72 322 62 324 51 L 230 43 L 244 142 L 52 142 Z M 377 677 L 667 677 C 627 725 575 767 513 801 C 449 775 393 740 347 698 C 357 691 367 684 377 677 Z M 796 675 L 727 608 L 678 647 L 417 647 C 442 626 466 606 486 585 C 513 585 526 580 529 570 L 430 545 C 403 583 363 624 315 663 C 299 644 284 623 271 602 L 255 614 C 267 637 280 659 294 680 C 239 722 173 762 105 791 L 115 805 C 189 783 258 751 320 714 C 358 761 404 799 456 831 C 341 884 203 920 52 942 L 59 960 C 231 945 382 914 507 859 C 612 911 742 940 892 958 C 899 925 918 904 948 898 L 949 886 C 811 878 684 859 577 825 C 644 787 702 742 749 687 C 775 686 787 684 796 675 Z" fill="blue" fill-opacity="0.5" /><path transform="translate(2000)" d="M 51 169 L 310 169 L 310 247 L 320 247 C 347 247 374 238 374 230 L 374 169 L 623 169 L 623 244 L 633 244 C 665 243 687 232 687 226 L 687 169 L 931 169 C 945 169 954 164 957 153 C 926 122 872 82 872 82 L 826 139 L 687 139 L 687 77 C 711 74 720 64 722 50 L 623 40 L 623 139 L 374 139 L 374 77 C 399 74 407 63 409 50 L 310 40 L 310 139 L 45 139 L 51 169 Z M 624 436 L 912 436 C 926 436 935 431 938 420 C 907 390 853 350 853 350 L 808 407 L 524 407 L 524 312 L 804 312 C 818 312 828 307 830 296 C 796 267 743 231 743 231 L 696 282 L 524 282 L 524 238 C 545 234 553 226 555 213 L 459 203 L 459 282 L 173 282 L 181 312 L 459 312 L 459 407 L 77 407 L 86 436 L 340 436 C 297 536 199 604 57 647 L 63 663 C 232 628 357 562 415 436 L 562 436 L 562 529 C 562 573 575 586 649 586 L 753 586 C 907 586 933 578 933 553 C 933 541 925 535 903 529 L 891 529 C 884 531 875 532 868 533 C 864 534 856 535 848 535 C 834 536 798 536 758 536 L 661 536 C 626 536 624 533 624 521 L 624 436 Z M 377 676 L 637 676 C 599 722 551 762 494 796 C 436 769 388 736 351 694 C 360 688 369 682 377 676 Z M 764 674 L 695 607 L 646 647 L 416 647 C 442 626 465 605 485 585 C 513 585 526 580 529 570 L 430 544 C 369 630 244 731 105 791 L 115 805 C 195 781 269 746 333 706 C 365 751 404 789 450 820 C 336 878 195 916 41 941 L 47 958 C 222 942 374 908 498 849 C 608 909 749 940 914 957 C 920 925 940 905 967 898 L 967 886 C 813 880 669 861 553 820 C 618 783 673 738 718 685 C 744 685 755 683 764 674 Z" fill="red" fill-opacity="0.5" /><text text-anchor="middle" x="500" y="1064" font-family="Arial" font-size="64">Source Han Serif TW</text><text text-anchor="middle" x="1500" y="1064" font-family="Arial" font-size="64">HKSerif (uni83F1HK-regular)</text></svg>