<svg width="3000" height="1080" xmlns="http://www.w3.org/2000/svg" style="background:#fff"><path d="M 51 168 L 59 197 L 248 197 L 262 301 C 290 301 314 295 323 283 L 311 197 L 472 197 C 486 197 496 192 498 181 C 467 152 417 111 417 111 L 373 168 L 307 168 L 294 77 C 314 71 321 61 323 49 L 228 42 L 245 168 L 51 168 Z M 382 339 L 370 346 C 422 406 486 505 503 578 C 577 637 632 471 382 339 Z M 514 712 L 509 697 C 412 729 316 762 235 788 L 235 358 C 260 354 271 345 273 330 L 169 318 L 169 809 C 122 823 83 835 57 841 L 109 927 C 118 923 126 913 128 900 C 300 822 425 758 514 712 Z M 845 322 L 738 310 C 730 590 698 782 346 939 L 357 958 C 565 885 675 796 734 690 C 796 757 863 856 877 935 C 956 996 1010 813 744 672 C 790 578 801 472 808 350 C 832 347 843 336 845 322 Z M 871 111 L 828 168 L 737 168 L 752 84 C 776 85 787 75 790 62 L 695 41 L 674 168 L 524 168 L 531 197 L 669 197 L 653 297 C 680 303 704 301 716 291 L 732 197 L 927 197 C 940 197 949 192 952 181 C 922 152 871 111 871 111 Z" fill="blue" /><path transform="translate(1000)" d="M 50 192 L 304 192 L 304 301 L 314 301 C 341 301 369 292 369 283 L 369 192 L 625 192 L 625 298 L 636 298 C 669 297 691 286 691 278 L 691 192 L 931 192 C 945 192 954 187 956 176 C 926 146 871 102 871 102 L 823 163 L 691 163 L 691 79 C 715 76 724 66 725 52 L 625 42 L 625 163 L 369 163 L 369 79 C 393 76 402 66 404 52 L 304 42 L 304 163 L 44 163 L 50 192 Z M 382 339 L 370 346 C 422 406 486 505 503 578 C 577 637 632 471 382 339 Z M 514 712 L 509 697 C 412 729 316 762 235 788 L 235 358 C 260 354 271 345 273 330 L 169 318 L 169 809 C 122 823 83 835 57 841 L 109 927 C 118 923 126 913 128 900 C 300 822 425 758 514 712 Z M 845 322 L 738 310 C 730 590 698 782 346 939 L 357 958 C 565 885 675 796 734 690 C 796 757 863 856 877 935 C 956 996 1010 813 744 672 C 790 578 801 472 808 350 C 832 347 843 336 845 322 Z" fill="red" /><path transform="translate(2000)" d="M 51 168 L 59 197 L 248 197 L 262 301 C 290 301 314 295 323 283 L 311 197 L 472 197 C 486 197 496 192 498 181 C 467 152 417 111 417 111 L 373 168 L 307 168 L 294 77 C 314 71 321 61 323 49 L 228 42 L 245 168 L 51 168 Z M 382 339 L 370 346 C 422 406 486 505 503 578 C 577 637 632 471 382 339 Z M 514 712 L 509 697 C 412 729 316 762 235 788 L 235 358 C 260 354 271 345 273 330 L 169 318 L 169 809 C 122 823 83 835 57 841 L 109 927 C 118 923 126 913 128 900 C 300 822 425 758 514 712 Z M 845 322 L 738 310 C 730 590 698 782 346 939 L 357 958 C 565 885 675 796 734 690 C 796 757 863 856 877 935 C 956 996 1010 813 744 672 C 790 578 801 472 808 350 C 832 347 843 336 845 322 Z M 871 111 L 828 168 L 737 168 L 752 84 C 776 85 787 75 790 62 L 695 41 L 674 168 L 524 168 L 531 197 L 669 197 L 653 297 C 680 303 704 301 716 291 L 732 197 L 927 197 C 940 197 949 192 952 181 C 922 152 871 111 871 111 Z" fill="blue" fill-opacity="0.5" /><path transform="translate(2000)" d="M 50 192 L 304 192 L 304 301 L 314 301 C 341 301 369 292 369 283 L 369 192 L 625 192 L 625 298 L 636 298 C 669 297 691 286 691 278 L 691 192 L 931 192 C 945 192 954 187 956 176 C 926 146 871 102 871 102 L 823 163 L 691 163 L 691 79 C 715 76 724 66 725 52 L 625 42 L 625 163 L 369 163 L 369 79 C 393 76 402 66 404 52 L 304 42 L 304 163 L 44 163 L 50 192 Z M 382 339 L 370 346 C 422 406 486 505 503 578 C 577 637 632 471 382 339 Z M 514 712 L 509 697 C 412 729 316 762 235 788 L 235 358 C 260 354 271 345 273 330 L 169 318 L 169 809 C 122 823 83 835 57 841 L 109 927 C 118 923 126 913 128 900 C 300 822 425 758 514 712 Z M 845 322 L 738 310 C 730 590 698 782 346 939 L 357 958 C 565 885 675 796 734 690 C 796 757 863 856 877 935 C 956 996 1010 813 744 672 C 790 578 801 472 808 350 C 832 347 843 336 845 322 Z" fill="red" fill-opacity="0.5" /><text text-anchor="middle" x="500" y="1064" font-family="Arial" font-size="64">Source Han Serif TW</text><text text-anchor="middle" x="1500" y="1064" font-family="Arial" font-size="64">HKSerif (uni82E1HK-regular)</text></svg>