<svg width="3000" height="1080" xmlns="http://www.w3.org/2000/svg" style="background:#fff"><path d="M 52 190 L 310 190 L 310 296 L 321 296 C 347 296 376 287 376 278 L 376 190 L 624 190 L 624 293 L 634 293 C 666 293 688 281 688 274 L 688 190 L 932 190 C 946 190 956 185 958 175 C 927 145 872 100 872 100 L 824 161 L 688 161 L 688 79 C 713 76 721 66 723 52 L 624 42 L 624 161 L 376 161 L 376 79 C 400 76 408 66 410 52 L 310 42 L 310 161 L 46 161 L 52 190 Z M 277 340 L 234 394 L 52 394 L 60 423 L 328 423 C 342 423 352 419 355 408 C 325 379 277 340 277 340 Z M 377 635 L 372 622 C 231 673 92 722 35 738 L 83 820 C 93 816 100 806 102 794 C 223 729 314 673 377 635 Z M 636 422 L 840 422 C 819 476 785 548 757 593 L 770 602 C 821 558 884 487 917 433 C 938 432 949 430 956 422 L 881 350 L 838 393 L 483 393 C 501 358 517 320 530 280 C 551 281 562 271 566 260 L 465 231 C 435 376 375 510 306 597 L 320 607 C 377 561 427 498 468 422 L 566 422 C 560 629 535 806 182 939 L 194 957 C 528 851 604 703 626 522 C 651 724 716 873 904 957 C 912 920 934 907 967 902 L 969 890 C 729 806 658 656 636 422 Z" fill="blue" /><path transform="translate(1000)" d="M 52 190 L 310 190 L 310 296 L 321 296 C 347 296 376 287 376 278 L 376 190 L 624 190 L 624 293 L 634 293 C 666 293 688 281 688 274 L 688 190 L 932 190 C 946 190 956 185 958 175 C 927 145 872 100 872 100 L 824 161 L 688 161 L 688 79 C 713 76 721 66 723 52 L 624 42 L 624 161 L 376 161 L 376 79 C 400 76 408 66 410 52 L 310 42 L 310 161 L 46 161 L 52 190 Z M 277 340 L 234 394 L 52 394 L 60 423 L 328 423 C 342 423 352 419 355 408 C 325 379 277 340 277 340 Z M 377 635 L 372 622 C 231 673 92 722 35 738 L 83 820 C 93 816 100 806 102 794 C 223 729 314 673 377 635 Z M 468 422 L 840 422 C 819 476 785 548 757 593 L 770 602 C 821 558 884 487 917 433 C 938 432 949 430 956 422 L 881 350 L 838 393 L 483 393 C 501 358 517 320 530 280 C 551 281 562 271 566 260 L 465 231 C 435 376 375 510 306 597 L 320 607 C 377 561 427 498 468 422 Z M 671 468 L 572 458 C 562 643 524 804 234 939 L 243 958 C 519 855 595 727 622 586 C 654 726 724 869 906 957 C 914 919 934 908 968 905 L 970 892 C 746 804 663 670 631 530 C 633 518 634 507 635 495 C 658 493 669 482 671 468 Z" fill="red" /><path transform="translate(2000)" d="M 52 190 L 310 190 L 310 296 L 321 296 C 347 296 376 287 376 278 L 376 190 L 624 190 L 624 293 L 634 293 C 666 293 688 281 688 274 L 688 190 L 932 190 C 946 190 956 185 958 175 C 927 145 872 100 872 100 L 824 161 L 688 161 L 688 79 C 713 76 721 66 723 52 L 624 42 L 624 161 L 376 161 L 376 79 C 400 76 408 66 410 52 L 310 42 L 310 161 L 46 161 L 52 190 Z M 277 340 L 234 394 L 52 394 L 60 423 L 328 423 C 342 423 352 419 355 408 C 325 379 277 340 277 340 Z M 377 635 L 372 622 C 231 673 92 722 35 738 L 83 820 C 93 816 100 806 102 794 C 223 729 314 673 377 635 Z M 636 422 L 840 422 C 819 476 785 548 757 593 L 770 602 C 821 558 884 487 917 433 C 938 432 949 430 956 422 L 881 350 L 838 393 L 483 393 C 501 358 517 320 530 280 C 551 281 562 271 566 260 L 465 231 C 435 376 375 510 306 597 L 320 607 C 377 561 427 498 468 422 L 566 422 C 560 629 535 806 182 939 L 194 957 C 528 851 604 703 626 522 C 651 724 716 873 904 957 C 912 920 934 907 967 902 L 969 890 C 729 806 658 656 636 422 Z" fill="blue" fill-opacity="0.5" /><path transform="translate(2000)" d="M 52 190 L 310 190 L 310 296 L 321 296 C 347 296 376 287 376 278 L 376 190 L 624 190 L 624 293 L 634 293 C 666 293 688 281 688 274 L 688 190 L 932 190 C 946 190 956 185 958 175 C 927 145 872 100 872 100 L 824 161 L 688 161 L 688 79 C 713 76 721 66 723 52 L 624 42 L 624 161 L 376 161 L 376 79 C 400 76 408 66 410 52 L 310 42 L 310 161 L 46 161 L 52 190 Z M 277 340 L 234 394 L 52 394 L 60 423 L 328 423 C 342 423 352 419 355 408 C 325 379 277 340 277 340 Z M 377 635 L 372 622 C 231 673 92 722 35 738 L 83 820 C 93 816 100 806 102 794 C 223 729 314 673 377 635 Z M 468 422 L 840 422 C 819 476 785 548 757 593 L 770 602 C 821 558 884 487 917 433 C 938 432 949 430 956 422 L 881 350 L 838 393 L 483 393 C 501 358 517 320 530 280 C 551 281 562 271 566 260 L 465 231 C 435 376 375 510 306 597 L 320 607 C 377 561 427 498 468 422 Z M 671 468 L 572 458 C 562 643 524 804 234 939 L 243 958 C 519 855 595 727 622 586 C 654 726 724 869 906 957 C 914 919 934 908 968 905 L 970 892 C 746 804 663 670 631 530 C 633 518 634 507 635 495 C 658 493 669 482 671 468 Z" fill="red" fill-opacity="0.5" /><text text-anchor="middle" x="500" y="1064" font-family="Arial" font-size="64">Source Han Serif KR</text><text text-anchor="middle" x="1500" y="1064" font-family="Arial" font-size="64">HKSerif (uni8328KX-regular)</text></svg>