<svg width="3000" height="1080" xmlns="http://www.w3.org/2000/svg" style="background:#fff"><path d="M 48 145 L 56 174 L 271 174 L 281 251 C 309 250 331 244 340 231 L 332 174 L 466 174 C 480 174 490 169 492 158 C 463 129 415 92 415 92 L 374 145 L 327 145 L 318 77 C 338 71 345 61 347 50 L 253 42 L 267 145 L 48 145 Z M 253 360 L 426 360 C 402 427 366 486 315 536 C 325 506 300 452 195 421 C 216 402 236 381 253 360 Z M 70 679 L 78 696 C 304 641 428 527 495 367 C 517 366 527 363 535 354 L 467 292 L 426 330 L 276 330 C 288 314 299 298 307 283 C 332 285 339 281 343 271 L 246 245 C 211 339 134 443 52 503 L 63 515 C 103 494 143 468 178 437 C 215 468 255 512 267 548 C 278 555 288 556 296 554 C 238 606 162 649 70 679 Z M 454 635 L 443 643 C 482 679 529 743 541 791 C 600 835 647 711 454 635 Z M 207 690 L 189 690 C 185 763 138 828 95 851 C 76 864 65 883 73 901 C 84 920 118 915 142 899 C 181 872 228 801 207 690 Z M 733 869 L 731 761 L 718 761 C 706 810 695 851 687 865 C 683 874 679 877 664 878 C 647 879 600 880 540 880 L 404 880 C 357 880 352 876 352 862 L 352 693 C 371 690 381 680 382 669 L 287 658 L 287 872 C 287 922 305 936 395 936 L 536 936 C 730 936 764 927 764 896 C 764 883 758 876 733 869 Z M 762 690 L 750 699 C 803 743 865 821 878 882 C 948 932 996 775 762 690 Z M 912 598 L 909 512 L 897 512 C 887 550 877 586 871 596 C 866 603 861 605 850 606 C 836 607 799 607 753 607 L 650 607 C 610 607 606 603 606 587 L 606 329 L 789 329 L 789 453 C 789 465 785 471 769 471 C 748 471 667 466 667 466 L 667 481 C 705 486 727 492 739 500 C 750 507 754 520 756 534 C 838 527 849 502 849 458 L 849 341 C 869 338 885 329 891 322 L 810 262 L 779 300 L 619 300 L 545 267 L 545 596 C 545 644 561 659 640 659 L 750 659 C 909 659 941 651 941 622 C 941 611 934 604 912 598 Z M 874 92 L 833 145 L 728 145 L 739 86 C 762 86 772 76 775 63 L 682 43 L 665 145 L 524 145 L 532 174 L 660 174 L 648 251 C 673 257 698 254 710 245 L 723 174 L 925 174 C 939 174 948 169 951 158 C 922 129 874 92 874 92 Z" fill="blue" /><path transform="translate(1000)" d="M 207 702 L 190 702 C 187 782 127 837 73 857 C 52 868 37 887 44 908 C 54 932 90 932 121 917 C 169 895 233 827 207 702 Z M 709 869 L 706 760 L 693 760 C 682 810 671 850 663 865 C 659 874 655 876 642 877 C 627 879 584 879 530 879 L 412 879 C 370 879 366 876 366 862 L 366 717 C 384 714 394 705 396 693 L 302 683 L 302 873 C 302 921 317 935 402 935 L 528 935 C 705 935 736 926 736 896 C 736 883 731 876 709 869 Z M 373 621 L 364 632 C 423 660 498 716 522 767 C 600 798 616 640 373 621 Z M 730 695 L 720 705 C 790 753 865 839 876 918 C 957 974 1006 775 730 695 Z M 687 465 L 687 481 C 727 485 748 494 762 503 C 773 512 778 529 780 546 C 864 538 875 508 875 459 L 875 337 C 896 334 912 325 918 317 L 835 256 L 803 295 L 631 295 L 556 262 L 556 613 C 556 660 571 675 647 675 L 751 675 C 902 675 933 666 933 639 C 933 627 927 620 905 612 L 901 519 L 889 519 C 879 560 869 598 862 610 C 857 617 852 619 843 620 C 830 621 796 621 754 621 L 660 621 C 623 621 619 617 619 602 L 619 324 L 813 324 L 813 452 C 813 466 809 472 792 472 C 772 472 687 465 687 465 Z M 873 96 L 826 154 L 684 154 L 684 82 C 709 79 718 69 720 55 L 621 45 L 621 154 L 382 154 L 382 82 C 407 79 416 69 418 55 L 321 45 L 321 154 L 52 154 L 58 184 L 321 184 L 321 261 L 235 236 C 197 331 119 435 34 494 L 44 507 C 87 486 127 460 164 428 C 200 457 239 500 251 537 C 309 572 348 460 181 413 C 201 394 221 374 239 353 L 425 353 C 366 516 240 633 34 701 L 42 716 C 287 657 422 535 493 360 C 516 359 526 357 534 348 L 466 286 L 425 323 L 263 323 C 276 307 285 292 295 276 C 308 277 316 276 321 274 L 321 277 L 331 277 C 356 277 382 267 382 259 L 382 184 L 621 184 L 621 274 L 632 274 C 663 273 684 261 684 255 L 684 184 L 931 184 C 945 184 955 179 957 168 C 927 138 873 96 873 96 Z" fill="red" /><path transform="translate(2000)" d="M 48 145 L 56 174 L 271 174 L 281 251 C 309 250 331 244 340 231 L 332 174 L 466 174 C 480 174 490 169 492 158 C 463 129 415 92 415 92 L 374 145 L 327 145 L 318 77 C 338 71 345 61 347 50 L 253 42 L 267 145 L 48 145 Z M 253 360 L 426 360 C 402 427 366 486 315 536 C 325 506 300 452 195 421 C 216 402 236 381 253 360 Z M 70 679 L 78 696 C 304 641 428 527 495 367 C 517 366 527 363 535 354 L 467 292 L 426 330 L 276 330 C 288 314 299 298 307 283 C 332 285 339 281 343 271 L 246 245 C 211 339 134 443 52 503 L 63 515 C 103 494 143 468 178 437 C 215 468 255 512 267 548 C 278 555 288 556 296 554 C 238 606 162 649 70 679 Z M 454 635 L 443 643 C 482 679 529 743 541 791 C 600 835 647 711 454 635 Z M 207 690 L 189 690 C 185 763 138 828 95 851 C 76 864 65 883 73 901 C 84 920 118 915 142 899 C 181 872 228 801 207 690 Z M 733 869 L 731 761 L 718 761 C 706 810 695 851 687 865 C 683 874 679 877 664 878 C 647 879 600 880 540 880 L 404 880 C 357 880 352 876 352 862 L 352 693 C 371 690 381 680 382 669 L 287 658 L 287 872 C 287 922 305 936 395 936 L 536 936 C 730 936 764 927 764 896 C 764 883 758 876 733 869 Z M 762 690 L 750 699 C 803 743 865 821 878 882 C 948 932 996 775 762 690 Z M 912 598 L 909 512 L 897 512 C 887 550 877 586 871 596 C 866 603 861 605 850 606 C 836 607 799 607 753 607 L 650 607 C 610 607 606 603 606 587 L 606 329 L 789 329 L 789 453 C 789 465 785 471 769 471 C 748 471 667 466 667 466 L 667 481 C 705 486 727 492 739 500 C 750 507 754 520 756 534 C 838 527 849 502 849 458 L 849 341 C 869 338 885 329 891 322 L 810 262 L 779 300 L 619 300 L 545 267 L 545 596 C 545 644 561 659 640 659 L 750 659 C 909 659 941 651 941 622 C 941 611 934 604 912 598 Z M 874 92 L 833 145 L 728 145 L 739 86 C 762 86 772 76 775 63 L 682 43 L 665 145 L 524 145 L 532 174 L 660 174 L 648 251 C 673 257 698 254 710 245 L 723 174 L 925 174 C 939 174 948 169 951 158 C 922 129 874 92 874 92 Z" fill="blue" fill-opacity="0.5" /><path transform="translate(2000)" d="M 207 702 L 190 702 C 187 782 127 837 73 857 C 52 868 37 887 44 908 C 54 932 90 932 121 917 C 169 895 233 827 207 702 Z M 709 869 L 706 760 L 693 760 C 682 810 671 850 663 865 C 659 874 655 876 642 877 C 627 879 584 879 530 879 L 412 879 C 370 879 366 876 366 862 L 366 717 C 384 714 394 705 396 693 L 302 683 L 302 873 C 302 921 317 935 402 935 L 528 935 C 705 935 736 926 736 896 C 736 883 731 876 709 869 Z M 373 621 L 364 632 C 423 660 498 716 522 767 C 600 798 616 640 373 621 Z M 730 695 L 720 705 C 790 753 865 839 876 918 C 957 974 1006 775 730 695 Z M 687 465 L 687 481 C 727 485 748 494 762 503 C 773 512 778 529 780 546 C 864 538 875 508 875 459 L 875 337 C 896 334 912 325 918 317 L 835 256 L 803 295 L 631 295 L 556 262 L 556 613 C 556 660 571 675 647 675 L 751 675 C 902 675 933 666 933 639 C 933 627 927 620 905 612 L 901 519 L 889 519 C 879 560 869 598 862 610 C 857 617 852 619 843 620 C 830 621 796 621 754 621 L 660 621 C 623 621 619 617 619 602 L 619 324 L 813 324 L 813 452 C 813 466 809 472 792 472 C 772 472 687 465 687 465 Z M 873 96 L 826 154 L 684 154 L 684 82 C 709 79 718 69 720 55 L 621 45 L 621 154 L 382 154 L 382 82 C 407 79 416 69 418 55 L 321 45 L 321 154 L 52 154 L 58 184 L 321 184 L 321 261 L 235 236 C 197 331 119 435 34 494 L 44 507 C 87 486 127 460 164 428 C 200 457 239 500 251 537 C 309 572 348 460 181 413 C 201 394 221 374 239 353 L 425 353 C 366 516 240 633 34 701 L 42 716 C 287 657 422 535 493 360 C 516 359 526 357 534 348 L 466 286 L 425 323 L 263 323 C 276 307 285 292 295 276 C 308 277 316 276 321 274 L 321 277 L 331 277 C 356 277 382 267 382 259 L 382 184 L 621 184 L 621 274 L 632 274 C 663 273 684 261 684 255 L 684 184 L 931 184 C 945 184 955 179 957 168 C 927 138 873 96 873 96 Z" fill="red" fill-opacity="0.5" /><text text-anchor="middle" x="500" y="1064" font-family="Arial" font-size="64">Source Han Serif TW</text><text text-anchor="middle" x="1500" y="1064" font-family="Arial" font-size="64">HKSerif (uni847EHK-regular)</text></svg>