<svg width="1000" height="1000" xmlns="http://www.w3.org/2000/svg"><path d="M 895 424 L 857 463 L 145 463 C 143 453 140 441 136 429 L 119 430 C 123 466 101 505 74 519 C 54 529 40 547 48 569 C 57 592 88 593 109 580 C 131 567 149 536 148 492 L 852 492 C 844 516 833 544 825 561 L 839 569 C 865 552 902 522 923 502 C 940 501 952 499 959 491 L 895 424 Z" fill="black" /><path d="M 622 516 L 612 526 C 646 545 689 584 706 614 C 765 643 795 530 622 516 Z" fill="black" /><path d="M 905 893 L 912 793 L 902 791 C 891 822 877 858 868 874 C 861 887 853 888 834 881 C 787 867 745 849 710 827 C 756 798 796 767 826 733 C 847 739 857 735 863 726 L 778 677 C 749 717 709 756 661 790 C 623 758 595 720 576 681 L 863 655 C 877 654 888 647 889 635 C 857 610 805 575 805 575 L 766 630 L 562 649 C 549 616 542 583 539 549 C 559 546 566 535 567 525 L 470 516 C 473 565 481 611 496 655 L 294 674 L 306 705 L 508 686 C 530 738 563 784 606 825 C 516 877 407 918 293 940 L 297 957 C 428 943 550 908 649 859 C 694 892 749 920 816 941 C 866 959 919 969 932 936 C 937 923 934 916 905 893 Z" fill="black" /><path d="M 348 546 L 260 501 C 207 616 126 721 53 779 L 65 793 C 109 770 152 738 193 700 L 193 956 L 205 956 C 228 956 255 941 256 936 L 256 663 C 273 661 284 654 287 646 L 255 634 C 275 610 292 586 309 559 C 329 563 343 555 348 546 Z" fill="black" /><path d="M 806 202 L 771 240 L 226 240 L 156 210 L 156 438 L 166 438 C 190 438 219 424 219 419 L 219 404 L 780 404 L 780 432 L 790 432 C 811 432 843 418 843 411 L 843 280 C 862 276 877 268 882 261 L 806 202 Z" fill="black" /><path d="M 219 374 L 219 270 L 364 270 L 364 374 L 219 374 Z" fill="white" /><path d="M 632 270 L 780 270 L 780 374 L 632 374 L 632 270 Z" fill="white" /><path d="M 424 270 L 572 270 L 572 374 L 424 374 L 424 270 Z" fill="white" /><path d="M 669 50 L 571 39 L 571 219 L 581 219 C 614 218 635 207 635 202 L 635 159 L 906 159 C 920 159 929 154 932 143 C 900 112 848 73 848 73 L 803 129 L 635 129 L 635 76 C 659 73 668 63 669 50 Z" fill="black" /><path d="M 463 50 L 364 39 L 364 129 L 86 129 L 92 159 L 364 159 L 364 221 L 374 221 C 402 221 427 214 427 206 L 427 76 C 452 73 461 63 463 50 Z" fill="black" /></svg>