<svg width="3000" height="1080" xmlns="http://www.w3.org/2000/svg" style="background:#fff"><path d="M 252 176 L 270 280 C 299 279 321 272 329 259 L 313 176 L 469 176 C 483 176 492 171 495 160 C 466 131 418 94 418 94 L 378 147 L 308 147 L 294 75 C 313 68 320 58 321 46 L 228 42 L 246 147 L 36 147 L 44 176 L 252 176 Z M 135 260 L 125 268 C 170 297 223 349 240 395 C 314 433 351 286 135 260 Z M 62 451 L 53 461 C 97 485 148 530 165 570 C 237 607 272 464 62 451 Z M 346 390 L 331 385 C 168 700 168 700 151 730 C 141 748 138 748 126 748 L 83 748 L 83 770 C 102 772 113 774 126 782 C 147 793 151 843 140 922 C 144 946 156 960 172 960 C 205 960 224 938 225 904 C 227 847 202 816 201 782 C 201 761 209 733 218 706 C 230 670 311 482 346 390 Z M 648 471 L 889 471 C 903 471 912 466 915 455 C 886 426 838 388 838 388 L 796 441 L 633 441 L 633 313 C 658 310 666 300 669 287 L 570 275 L 570 441 L 339 441 L 347 471 L 527 471 C 468 612 370 761 258 866 L 271 880 C 393 790 498 672 570 539 L 570 959 L 583 959 C 605 959 633 945 633 936 L 633 493 C 687 651 777 787 866 870 C 878 840 900 822 926 820 L 928 810 C 829 744 713 613 648 471 Z M 889 94 L 847 147 L 746 147 L 757 83 C 780 83 790 73 794 60 L 700 40 L 682 147 L 524 147 L 531 176 L 677 176 L 662 274 C 688 280 712 278 725 268 L 741 176 L 939 176 C 953 176 963 171 966 160 C 936 131 889 94 889 94 Z" fill="blue" /><path transform="translate(1000)" d="M 51 182 L 304 182 L 304 278 L 314 278 C 340 278 368 268 368 261 L 368 182 L 626 182 L 626 265 L 637 265 C 669 264 691 253 691 247 L 691 182 L 930 182 C 945 182 955 177 957 166 C 925 136 872 93 872 93 L 824 152 L 691 152 L 691 77 C 716 74 725 64 727 50 L 626 40 L 626 152 L 368 152 L 368 77 C 393 74 402 64 404 50 L 304 40 L 304 152 L 44 152 L 51 182 Z M 135 260 L 125 268 C 170 297 223 349 240 395 C 314 433 351 286 135 260 Z M 62 451 L 53 461 C 97 485 148 530 165 570 C 237 607 272 464 62 451 Z M 346 390 L 331 385 C 168 700 168 700 151 730 C 141 748 138 748 126 748 L 83 748 L 83 770 C 102 772 113 774 126 782 C 147 793 151 843 140 922 C 144 946 156 960 172 960 C 205 960 224 938 225 904 C 227 847 202 816 201 782 C 201 761 209 733 218 706 C 230 670 311 482 346 390 Z M 648 471 L 889 471 C 903 471 912 466 915 455 C 886 426 838 388 838 388 L 796 441 L 633 441 L 633 313 C 658 310 666 300 669 287 L 570 275 L 570 441 L 339 441 L 347 471 L 527 471 C 468 612 370 761 258 866 L 271 880 C 393 790 498 672 570 539 L 570 959 L 583 959 C 605 959 633 945 633 936 L 633 493 C 687 651 777 787 866 870 C 878 840 900 822 926 820 L 928 810 C 829 744 713 613 648 471 Z" fill="red" /><path transform="translate(2000)" d="M 252 176 L 270 280 C 299 279 321 272 329 259 L 313 176 L 469 176 C 483 176 492 171 495 160 C 466 131 418 94 418 94 L 378 147 L 308 147 L 294 75 C 313 68 320 58 321 46 L 228 42 L 246 147 L 36 147 L 44 176 L 252 176 Z M 135 260 L 125 268 C 170 297 223 349 240 395 C 314 433 351 286 135 260 Z M 62 451 L 53 461 C 97 485 148 530 165 570 C 237 607 272 464 62 451 Z M 346 390 L 331 385 C 168 700 168 700 151 730 C 141 748 138 748 126 748 L 83 748 L 83 770 C 102 772 113 774 126 782 C 147 793 151 843 140 922 C 144 946 156 960 172 960 C 205 960 224 938 225 904 C 227 847 202 816 201 782 C 201 761 209 733 218 706 C 230 670 311 482 346 390 Z M 648 471 L 889 471 C 903 471 912 466 915 455 C 886 426 838 388 838 388 L 796 441 L 633 441 L 633 313 C 658 310 666 300 669 287 L 570 275 L 570 441 L 339 441 L 347 471 L 527 471 C 468 612 370 761 258 866 L 271 880 C 393 790 498 672 570 539 L 570 959 L 583 959 C 605 959 633 945 633 936 L 633 493 C 687 651 777 787 866 870 C 878 840 900 822 926 820 L 928 810 C 829 744 713 613 648 471 Z M 889 94 L 847 147 L 746 147 L 757 83 C 780 83 790 73 794 60 L 700 40 L 682 147 L 524 147 L 531 176 L 677 176 L 662 274 C 688 280 712 278 725 268 L 741 176 L 939 176 C 953 176 963 171 966 160 C 936 131 889 94 889 94 Z" fill="blue" fill-opacity="0.5" /><path transform="translate(2000)" d="M 51 182 L 304 182 L 304 278 L 314 278 C 340 278 368 268 368 261 L 368 182 L 626 182 L 626 265 L 637 265 C 669 264 691 253 691 247 L 691 182 L 930 182 C 945 182 955 177 957 166 C 925 136 872 93 872 93 L 824 152 L 691 152 L 691 77 C 716 74 725 64 727 50 L 626 40 L 626 152 L 368 152 L 368 77 C 393 74 402 64 404 50 L 304 40 L 304 152 L 44 152 L 51 182 Z M 135 260 L 125 268 C 170 297 223 349 240 395 C 314 433 351 286 135 260 Z M 62 451 L 53 461 C 97 485 148 530 165 570 C 237 607 272 464 62 451 Z M 346 390 L 331 385 C 168 700 168 700 151 730 C 141 748 138 748 126 748 L 83 748 L 83 770 C 102 772 113 774 126 782 C 147 793 151 843 140 922 C 144 946 156 960 172 960 C 205 960 224 938 225 904 C 227 847 202 816 201 782 C 201 761 209 733 218 706 C 230 670 311 482 346 390 Z M 648 471 L 889 471 C 903 471 912 466 915 455 C 886 426 838 388 838 388 L 796 441 L 633 441 L 633 313 C 658 310 666 300 669 287 L 570 275 L 570 441 L 339 441 L 347 471 L 527 471 C 468 612 370 761 258 866 L 271 880 C 393 790 498 672 570 539 L 570 959 L 583 959 C 605 959 633 945 633 936 L 633 493 C 687 651 777 787 866 870 C 878 840 900 822 926 820 L 928 810 C 829 744 713 613 648 471 Z" fill="red" fill-opacity="0.5" /><text text-anchor="middle" x="500" y="1064" font-family="Arial" font-size="64">Source Han Serif TW</text><text text-anchor="middle" x="1500" y="1064" font-family="Arial" font-size="64">HKSerif (uni83AFHK-regular)</text></svg>