<svg width="3000" height="1080" xmlns="http://www.w3.org/2000/svg" style="background:#fff"><path d="M 664 308 L 799 308 L 799 410 L 664 410 L 664 308 Z M 799 546 L 664 546 L 664 439 L 799 439 L 799 546 Z M 601 546 L 460 546 L 460 439 L 601 439 L 601 546 Z M 460 308 L 601 308 L 601 410 L 460 410 L 460 308 Z M 331 158 L 339 187 L 601 187 L 601 279 L 465 279 L 398 248 L 398 625 L 408 625 C 433 625 460 611 460 604 L 460 576 L 601 576 L 601 679 L 323 679 L 331 709 L 601 709 L 601 840 L 613 840 C 636 840 664 826 664 816 L 664 709 L 927 709 C 941 709 952 704 954 693 C 920 661 865 620 865 620 L 818 679 L 664 679 L 664 576 L 799 576 L 799 614 L 809 614 C 830 614 861 598 862 593 L 862 321 C 882 317 899 309 904 301 L 826 239 L 789 279 L 664 279 L 664 187 L 912 187 C 926 187 936 182 939 171 C 905 140 851 99 851 99 L 804 158 L 664 158 L 664 81 C 689 77 697 67 699 53 L 601 41 L 601 158 L 331 158 Z M 103 51 L 92 59 C 131 96 178 159 189 209 C 255 256 307 117 103 51 Z M 373 533 L 306 474 L 267 512 L 173 512 C 209 460 257 386 285 340 C 308 338 329 333 338 323 L 264 259 L 230 295 L 62 295 L 71 325 L 225 325 C 195 377 150 449 115 497 C 101 501 86 507 76 512 L 131 564 L 160 541 L 271 541 C 259 613 228 696 186 756 C 165 760 86 841 37 878 L 95 945 C 101 939 102 932 99 924 C 122 884 160 827 180 797 C 187 785 197 783 210 797 C 300 903 397 929 601 929 L 913 929 C 917 903 933 883 963 878 L 963 864 C 840 870 741 870 621 870 C 425 870 311 857 223 769 C 219 765 216 763 212 761 C 274 699 315 617 334 545 C 357 544 366 541 373 533 Z" fill="blue" /><path transform="translate(1000)" d="M 664 308 L 799 308 L 799 410 L 664 410 L 664 308 Z M 799 546 L 664 546 L 664 439 L 799 439 L 799 546 Z M 601 546 L 460 546 L 460 439 L 601 439 L 601 546 Z M 460 308 L 601 308 L 601 410 L 460 410 L 460 308 Z M 331 158 L 339 187 L 601 187 L 601 279 L 465 279 L 398 248 L 398 625 L 408 625 C 433 625 460 611 460 604 L 460 576 L 601 576 L 601 679 L 323 679 L 331 709 L 601 709 L 601 840 L 613 840 C 636 840 664 826 664 816 L 664 709 L 927 709 C 941 709 952 704 954 693 C 920 661 865 620 865 620 L 818 679 L 664 679 L 664 576 L 799 576 L 799 614 L 809 614 C 830 614 861 598 862 593 L 862 321 C 882 317 899 309 904 301 L 826 239 L 789 279 L 664 279 L 664 187 L 912 187 C 926 187 936 182 939 171 C 905 140 851 99 851 99 L 804 158 L 664 158 L 664 81 C 689 77 697 67 699 53 L 601 41 L 601 158 L 331 158 Z M 115 63 L 104 71 C 143 108 190 171 201 221 C 267 268 319 129 115 63 Z M 361 533 L 294 474 L 255 512 L 173 512 C 209 460 257 386 285 340 C 308 338 329 333 338 323 L 264 259 L 230 295 L 52 295 L 61 325 L 225 325 C 195 377 150 449 115 497 C 101 501 86 507 76 512 L 131 564 L 160 541 L 259 541 C 230 696 176 832 30 942 L 36 957 C 210 860 284 696 322 545 C 345 544 354 541 361 533 Z M 212 761 L 197 783 L 210 797 C 300 903 397 929 601 929 L 913 929 C 917 903 933 883 963 878 L 963 864 C 840 870 741 870 621 870 C 425 870 311 857 223 769 C 219 765 216 763 212 761 Z" fill="red" /><path transform="translate(2000)" d="M 664 308 L 799 308 L 799 410 L 664 410 L 664 308 Z M 799 546 L 664 546 L 664 439 L 799 439 L 799 546 Z M 601 546 L 460 546 L 460 439 L 601 439 L 601 546 Z M 460 308 L 601 308 L 601 410 L 460 410 L 460 308 Z M 331 158 L 339 187 L 601 187 L 601 279 L 465 279 L 398 248 L 398 625 L 408 625 C 433 625 460 611 460 604 L 460 576 L 601 576 L 601 679 L 323 679 L 331 709 L 601 709 L 601 840 L 613 840 C 636 840 664 826 664 816 L 664 709 L 927 709 C 941 709 952 704 954 693 C 920 661 865 620 865 620 L 818 679 L 664 679 L 664 576 L 799 576 L 799 614 L 809 614 C 830 614 861 598 862 593 L 862 321 C 882 317 899 309 904 301 L 826 239 L 789 279 L 664 279 L 664 187 L 912 187 C 926 187 936 182 939 171 C 905 140 851 99 851 99 L 804 158 L 664 158 L 664 81 C 689 77 697 67 699 53 L 601 41 L 601 158 L 331 158 Z M 103 51 L 92 59 C 131 96 178 159 189 209 C 255 256 307 117 103 51 Z M 373 533 L 306 474 L 267 512 L 173 512 C 209 460 257 386 285 340 C 308 338 329 333 338 323 L 264 259 L 230 295 L 62 295 L 71 325 L 225 325 C 195 377 150 449 115 497 C 101 501 86 507 76 512 L 131 564 L 160 541 L 271 541 C 259 613 228 696 186 756 C 165 760 86 841 37 878 L 95 945 C 101 939 102 932 99 924 C 122 884 160 827 180 797 C 187 785 197 783 210 797 C 300 903 397 929 601 929 L 913 929 C 917 903 933 883 963 878 L 963 864 C 840 870 741 870 621 870 C 425 870 311 857 223 769 C 219 765 216 763 212 761 C 274 699 315 617 334 545 C 357 544 366 541 373 533 Z" fill="blue" fill-opacity="0.5" /><path transform="translate(2000)" d="M 664 308 L 799 308 L 799 410 L 664 410 L 664 308 Z M 799 546 L 664 546 L 664 439 L 799 439 L 799 546 Z M 601 546 L 460 546 L 460 439 L 601 439 L 601 546 Z M 460 308 L 601 308 L 601 410 L 460 410 L 460 308 Z M 331 158 L 339 187 L 601 187 L 601 279 L 465 279 L 398 248 L 398 625 L 408 625 C 433 625 460 611 460 604 L 460 576 L 601 576 L 601 679 L 323 679 L 331 709 L 601 709 L 601 840 L 613 840 C 636 840 664 826 664 816 L 664 709 L 927 709 C 941 709 952 704 954 693 C 920 661 865 620 865 620 L 818 679 L 664 679 L 664 576 L 799 576 L 799 614 L 809 614 C 830 614 861 598 862 593 L 862 321 C 882 317 899 309 904 301 L 826 239 L 789 279 L 664 279 L 664 187 L 912 187 C 926 187 936 182 939 171 C 905 140 851 99 851 99 L 804 158 L 664 158 L 664 81 C 689 77 697 67 699 53 L 601 41 L 601 158 L 331 158 Z M 115 63 L 104 71 C 143 108 190 171 201 221 C 267 268 319 129 115 63 Z M 361 533 L 294 474 L 255 512 L 173 512 C 209 460 257 386 285 340 C 308 338 329 333 338 323 L 264 259 L 230 295 L 52 295 L 61 325 L 225 325 C 195 377 150 449 115 497 C 101 501 86 507 76 512 L 131 564 L 160 541 L 259 541 C 230 696 176 832 30 942 L 36 957 C 210 860 284 696 322 545 C 345 544 354 541 361 533 Z M 212 761 L 197 783 L 210 797 C 300 903 397 929 601 929 L 913 929 C 917 903 933 883 963 878 L 963 864 C 840 870 741 870 621 870 C 425 870 311 857 223 769 C 219 765 216 763 212 761 Z" fill="red" fill-opacity="0.5" /><text text-anchor="middle" x="500" y="1064" font-family="Arial" font-size="64">Source Han Serif TW</text><text text-anchor="middle" x="1500" y="1064" font-family="Arial" font-size="64">HKSerif (uni9023HK-regular)</text></svg>