<svg width="3000" height="1080" xmlns="http://www.w3.org/2000/svg" style="background:#fff"><path d="M 146 51 L 134 57 C 159 98 188 163 189 214 C 245 270 313 144 146 51 Z M 47 282 L 366 282 C 379 282 389 277 391 266 C 362 236 311 196 311 196 L 268 253 L 39 253 L 47 282 Z M 98 323 L 82 329 C 123 431 131 582 130 657 C 170 722 247 555 98 323 Z M 367 689 L 364 676 C 322 687 281 698 242 708 C 273 596 309 454 329 356 C 352 355 362 344 365 330 L 267 317 C 255 432 236 595 218 713 C 141 732 73 747 32 753 L 74 842 C 84 839 92 830 96 818 C 214 768 303 723 367 689 Z M 559 617 L 559 413 L 619 413 L 619 617 L 559 617 Z M 664 413 L 722 413 L 722 617 L 664 617 L 664 413 Z M 729 706 L 716 711 C 730 736 746 767 757 801 L 669 809 L 669 647 L 722 647 L 722 676 L 730 676 C 747 676 771 664 772 657 L 772 421 C 789 418 806 410 812 403 L 743 351 L 713 383 L 669 383 L 669 265 L 790 265 C 804 265 813 260 814 249 C 788 222 745 187 745 187 L 708 236 L 489 236 L 497 265 L 615 265 L 615 383 L 565 383 L 511 358 L 511 709 L 519 709 C 539 709 559 696 559 692 L 559 647 L 615 647 L 615 814 C 545 821 487 826 453 828 L 492 908 C 502 905 511 899 515 887 C 624 861 705 838 764 821 C 774 852 781 881 781 908 C 830 957 882 836 729 706 Z M 954 880 L 973 712 L 960 709 C 951 742 941 780 929 820 C 924 834 921 835 916 823 C 873 724 872 373 885 149 C 908 145 922 138 929 131 L 849 61 L 810 103 L 474 103 L 404 72 L 404 420 C 404 609 396 800 299 951 L 316 961 C 454 811 462 596 462 419 L 462 132 L 821 132 C 816 422 811 759 875 891 C 895 935 928 968 960 951 C 973 944 970 921 954 880 Z" fill="blue" /><path transform="translate(1000)" d="M 658 265 L 779 265 C 791 265 800 260 803 249 C 777 222 734 186 734 186 L 696 236 L 473 236 L 481 265 L 603 265 L 603 820 L 658 820 L 658 265 Z M 146 51 L 134 57 C 160 98 191 163 193 214 C 252 269 317 139 146 51 Z M 47 282 L 372 282 C 385 282 395 277 398 266 C 368 236 316 196 316 196 L 273 253 L 39 253 L 47 282 Z M 98 323 L 83 329 C 122 429 129 577 126 650 C 166 718 251 553 98 323 Z M 372 686 L 370 672 C 327 684 284 696 241 706 C 276 595 313 455 333 358 C 357 355 367 345 369 331 L 268 317 C 256 432 236 593 219 712 C 142 731 74 746 34 753 L 76 842 C 86 838 94 830 98 817 C 219 767 308 721 372 686 Z M 546 617 L 546 405 L 607 405 L 607 617 L 546 617 Z M 654 405 L 715 405 L 715 617 L 654 617 L 654 405 Z M 719 706 L 707 711 C 721 736 736 766 747 799 L 658 809 L 658 647 L 715 647 L 715 675 L 722 675 C 739 675 763 662 764 656 L 764 413 C 782 410 797 402 804 395 L 736 343 L 706 375 L 658 375 L 603 375 L 551 375 L 497 349 L 497 701 L 505 701 C 525 701 546 689 546 685 L 546 647 L 603 647 L 603 814 C 531 821 471 826 436 828 L 474 908 C 485 905 493 899 498 887 C 609 860 692 837 754 819 C 765 851 772 881 773 908 C 823 957 874 835 719 706 Z M 950 883 L 968 714 L 956 712 C 948 747 938 785 925 825 C 921 839 916 840 910 827 C 864 729 860 379 874 153 C 897 150 912 143 918 136 L 837 65 L 797 108 L 471 108 L 401 76 L 401 420 C 401 608 391 798 294 948 L 311 959 C 450 810 459 596 459 419 L 459 137 L 808 137 C 804 429 800 765 868 896 C 889 941 924 974 956 957 C 970 949 967 926 950 883 Z" fill="red" /><path transform="translate(2000)" d="M 146 51 L 134 57 C 159 98 188 163 189 214 C 245 270 313 144 146 51 Z M 47 282 L 366 282 C 379 282 389 277 391 266 C 362 236 311 196 311 196 L 268 253 L 39 253 L 47 282 Z M 98 323 L 82 329 C 123 431 131 582 130 657 C 170 722 247 555 98 323 Z M 367 689 L 364 676 C 322 687 281 698 242 708 C 273 596 309 454 329 356 C 352 355 362 344 365 330 L 267 317 C 255 432 236 595 218 713 C 141 732 73 747 32 753 L 74 842 C 84 839 92 830 96 818 C 214 768 303 723 367 689 Z M 559 617 L 559 413 L 619 413 L 619 617 L 559 617 Z M 664 413 L 722 413 L 722 617 L 664 617 L 664 413 Z M 729 706 L 716 711 C 730 736 746 767 757 801 L 669 809 L 669 647 L 722 647 L 722 676 L 730 676 C 747 676 771 664 772 657 L 772 421 C 789 418 806 410 812 403 L 743 351 L 713 383 L 669 383 L 669 265 L 790 265 C 804 265 813 260 814 249 C 788 222 745 187 745 187 L 708 236 L 489 236 L 497 265 L 615 265 L 615 383 L 565 383 L 511 358 L 511 709 L 519 709 C 539 709 559 696 559 692 L 559 647 L 615 647 L 615 814 C 545 821 487 826 453 828 L 492 908 C 502 905 511 899 515 887 C 624 861 705 838 764 821 C 774 852 781 881 781 908 C 830 957 882 836 729 706 Z M 954 880 L 973 712 L 960 709 C 951 742 941 780 929 820 C 924 834 921 835 916 823 C 873 724 872 373 885 149 C 908 145 922 138 929 131 L 849 61 L 810 103 L 474 103 L 404 72 L 404 420 C 404 609 396 800 299 951 L 316 961 C 454 811 462 596 462 419 L 462 132 L 821 132 C 816 422 811 759 875 891 C 895 935 928 968 960 951 C 973 944 970 921 954 880 Z" fill="blue" fill-opacity="0.5" /><path transform="translate(2000)" d="M 658 265 L 779 265 C 791 265 800 260 803 249 C 777 222 734 186 734 186 L 696 236 L 473 236 L 481 265 L 603 265 L 603 820 L 658 820 L 658 265 Z M 146 51 L 134 57 C 160 98 191 163 193 214 C 252 269 317 139 146 51 Z M 47 282 L 372 282 C 385 282 395 277 398 266 C 368 236 316 196 316 196 L 273 253 L 39 253 L 47 282 Z M 98 323 L 83 329 C 122 429 129 577 126 650 C 166 718 251 553 98 323 Z M 372 686 L 370 672 C 327 684 284 696 241 706 C 276 595 313 455 333 358 C 357 355 367 345 369 331 L 268 317 C 256 432 236 593 219 712 C 142 731 74 746 34 753 L 76 842 C 86 838 94 830 98 817 C 219 767 308 721 372 686 Z M 546 617 L 546 405 L 607 405 L 607 617 L 546 617 Z M 654 405 L 715 405 L 715 617 L 654 617 L 654 405 Z M 719 706 L 707 711 C 721 736 736 766 747 799 L 658 809 L 658 647 L 715 647 L 715 675 L 722 675 C 739 675 763 662 764 656 L 764 413 C 782 410 797 402 804 395 L 736 343 L 706 375 L 658 375 L 603 375 L 551 375 L 497 349 L 497 701 L 505 701 C 525 701 546 689 546 685 L 546 647 L 603 647 L 603 814 C 531 821 471 826 436 828 L 474 908 C 485 905 493 899 498 887 C 609 860 692 837 754 819 C 765 851 772 881 773 908 C 823 957 874 835 719 706 Z M 950 883 L 968 714 L 956 712 C 948 747 938 785 925 825 C 921 839 916 840 910 827 C 864 729 860 379 874 153 C 897 150 912 143 918 136 L 837 65 L 797 108 L 471 108 L 401 76 L 401 420 C 401 608 391 798 294 948 L 311 959 C 450 810 459 596 459 419 L 459 137 L 808 137 C 804 429 800 765 868 896 C 889 941 924 974 956 957 C 970 949 967 926 950 883 Z" fill="red" fill-opacity="0.5" /><text text-anchor="middle" x="500" y="1064" font-family="Arial" font-size="64">Source Han Serif TW</text><text text-anchor="middle" x="1500" y="1064" font-family="Arial" font-size="64">HKSerif (uni98AFHK-regular)</text></svg>