<svg width="3000" height="1080" xmlns="http://www.w3.org/2000/svg" style="background:#fff"><path d="M 470 467 L 481 480 C 615 399 628 276 628 190 L 628 137 L 768 137 L 768 375 C 768 413 776 429 825 429 L 864 429 C 942 429 962 416 962 392 C 962 378 954 373 936 367 L 932 366 L 923 366 C 919 368 912 369 907 369 C 904 370 899 370 895 370 C 890 371 879 371 869 371 L 843 371 C 831 371 829 367 829 356 L 829 147 C 846 145 859 140 865 133 L 795 72 L 760 107 L 640 107 L 567 76 L 567 191 C 567 281 557 382 470 467 Z M 188 373 L 188 137 L 365 137 L 365 223 L 313 223 L 253 196 L 253 373 L 188 373 Z M 365 373 L 299 373 L 299 253 L 365 253 L 365 373 Z M 118 403 L 425 403 C 419 427 412 455 408 471 L 424 477 C 440 461 465 431 480 410 C 498 409 510 408 517 401 L 454 339 L 420 373 L 419 373 L 419 144 C 444 142 456 136 464 126 L 386 67 L 354 107 L 199 107 L 135 78 L 135 373 L 116 373 C 114 363 112 353 109 343 L 90 342 C 94 375 76 419 57 434 C 41 447 33 467 42 483 C 54 500 82 495 95 480 C 109 465 118 438 118 403 Z M 187 653 L 187 595 C 228 610 275 634 301 650 C 354 664 367 571 187 574 L 187 516 L 362 516 L 362 668 C 290 694 221 717 184 726 C 186 702 187 677 187 653 Z M 418 877 L 418 524 C 435 520 450 513 455 506 L 381 452 L 353 486 L 199 486 L 130 455 L 130 654 C 130 759 122 863 45 947 L 58 960 C 147 900 175 817 184 737 L 216 797 C 224 793 231 785 233 773 C 285 741 329 713 362 692 L 362 873 C 362 885 358 891 343 891 C 326 891 257 886 257 886 L 257 901 C 291 906 309 911 319 919 C 329 926 333 938 335 952 C 409 945 418 921 418 877 Z M 569 529 L 808 529 C 783 604 745 674 694 735 C 638 680 596 611 569 529 Z M 919 525 L 849 460 L 807 500 L 481 500 L 490 529 L 547 529 C 572 627 609 707 660 772 C 594 840 511 896 409 937 L 419 953 C 531 918 620 867 690 807 C 748 869 822 917 912 951 C 923 923 944 904 970 901 L 972 891 C 878 864 796 825 730 770 C 796 703 844 624 877 537 C 900 536 911 534 919 525 Z" fill="blue" /><path transform="translate(1000)" d="M 186 373 L 186 135 L 368 135 L 368 223 L 313 223 L 252 196 L 252 373 L 186 373 Z M 300 373 L 300 253 L 368 253 L 368 373 L 300 373 Z M 117 403 L 434 403 C 426 427 416 453 409 469 L 425 476 C 446 460 480 431 499 412 C 504 412 509 411 513 411 C 505 427 494 442 482 457 L 493 470 C 607 390 617 270 617 188 L 617 137 L 752 137 L 752 364 C 752 403 760 418 811 418 L 854 418 C 936 418 958 407 958 382 C 958 368 950 363 932 357 L 928 356 L 919 356 C 914 358 908 359 903 359 C 900 359 894 359 890 360 L 860 360 L 829 360 C 814 360 813 356 813 345 L 813 147 C 830 145 843 140 849 133 L 779 71 L 744 107 L 629 107 L 557 75 L 557 189 C 557 253 553 323 524 389 L 470 336 L 433 373 L 425 373 L 425 142 C 450 140 463 134 471 124 L 389 64 L 356 106 L 198 106 L 130 76 L 130 373 L 115 373 C 114 363 112 353 109 343 L 90 342 C 93 376 73 421 53 436 C 37 449 29 468 38 484 C 49 502 78 496 92 482 C 107 467 117 439 117 403 Z M 363 724 L 190 724 L 190 637 L 363 637 L 363 724 Z M 190 520 L 363 520 L 363 607 L 190 607 L 190 520 Z M 424 874 L 424 530 C 443 526 458 518 464 511 L 385 453 L 354 490 L 195 490 L 129 460 L 129 958 L 139 958 C 165 958 190 943 190 936 L 190 753 L 363 753 L 363 867 C 363 880 359 885 345 885 C 329 885 265 880 265 880 L 265 895 C 295 900 313 908 324 917 C 333 927 337 942 339 960 C 415 953 424 924 424 874 Z M 580 504 L 803 504 C 780 581 745 652 699 716 C 646 657 606 587 580 504 Z M 915 500 L 843 434 L 801 475 L 487 475 L 496 504 L 558 504 C 582 603 618 687 667 757 C 603 833 519 896 415 943 L 424 958 C 539 919 628 863 698 796 C 755 864 827 918 913 957 C 924 927 946 909 975 905 L 977 895 C 884 864 802 817 736 756 C 798 684 843 602 874 512 C 897 511 907 509 915 500 Z" fill="red" /><path transform="translate(2000)" d="M 470 467 L 481 480 C 615 399 628 276 628 190 L 628 137 L 768 137 L 768 375 C 768 413 776 429 825 429 L 864 429 C 942 429 962 416 962 392 C 962 378 954 373 936 367 L 932 366 L 923 366 C 919 368 912 369 907 369 C 904 370 899 370 895 370 C 890 371 879 371 869 371 L 843 371 C 831 371 829 367 829 356 L 829 147 C 846 145 859 140 865 133 L 795 72 L 760 107 L 640 107 L 567 76 L 567 191 C 567 281 557 382 470 467 Z M 188 373 L 188 137 L 365 137 L 365 223 L 313 223 L 253 196 L 253 373 L 188 373 Z M 365 373 L 299 373 L 299 253 L 365 253 L 365 373 Z M 118 403 L 425 403 C 419 427 412 455 408 471 L 424 477 C 440 461 465 431 480 410 C 498 409 510 408 517 401 L 454 339 L 420 373 L 419 373 L 419 144 C 444 142 456 136 464 126 L 386 67 L 354 107 L 199 107 L 135 78 L 135 373 L 116 373 C 114 363 112 353 109 343 L 90 342 C 94 375 76 419 57 434 C 41 447 33 467 42 483 C 54 500 82 495 95 480 C 109 465 118 438 118 403 Z M 187 653 L 187 595 C 228 610 275 634 301 650 C 354 664 367 571 187 574 L 187 516 L 362 516 L 362 668 C 290 694 221 717 184 726 C 186 702 187 677 187 653 Z M 418 877 L 418 524 C 435 520 450 513 455 506 L 381 452 L 353 486 L 199 486 L 130 455 L 130 654 C 130 759 122 863 45 947 L 58 960 C 147 900 175 817 184 737 L 216 797 C 224 793 231 785 233 773 C 285 741 329 713 362 692 L 362 873 C 362 885 358 891 343 891 C 326 891 257 886 257 886 L 257 901 C 291 906 309 911 319 919 C 329 926 333 938 335 952 C 409 945 418 921 418 877 Z M 569 529 L 808 529 C 783 604 745 674 694 735 C 638 680 596 611 569 529 Z M 919 525 L 849 460 L 807 500 L 481 500 L 490 529 L 547 529 C 572 627 609 707 660 772 C 594 840 511 896 409 937 L 419 953 C 531 918 620 867 690 807 C 748 869 822 917 912 951 C 923 923 944 904 970 901 L 972 891 C 878 864 796 825 730 770 C 796 703 844 624 877 537 C 900 536 911 534 919 525 Z" fill="blue" fill-opacity="0.5" /><path transform="translate(2000)" d="M 186 373 L 186 135 L 368 135 L 368 223 L 313 223 L 252 196 L 252 373 L 186 373 Z M 300 373 L 300 253 L 368 253 L 368 373 L 300 373 Z M 117 403 L 434 403 C 426 427 416 453 409 469 L 425 476 C 446 460 480 431 499 412 C 504 412 509 411 513 411 C 505 427 494 442 482 457 L 493 470 C 607 390 617 270 617 188 L 617 137 L 752 137 L 752 364 C 752 403 760 418 811 418 L 854 418 C 936 418 958 407 958 382 C 958 368 950 363 932 357 L 928 356 L 919 356 C 914 358 908 359 903 359 C 900 359 894 359 890 360 L 860 360 L 829 360 C 814 360 813 356 813 345 L 813 147 C 830 145 843 140 849 133 L 779 71 L 744 107 L 629 107 L 557 75 L 557 189 C 557 253 553 323 524 389 L 470 336 L 433 373 L 425 373 L 425 142 C 450 140 463 134 471 124 L 389 64 L 356 106 L 198 106 L 130 76 L 130 373 L 115 373 C 114 363 112 353 109 343 L 90 342 C 93 376 73 421 53 436 C 37 449 29 468 38 484 C 49 502 78 496 92 482 C 107 467 117 439 117 403 Z M 363 724 L 190 724 L 190 637 L 363 637 L 363 724 Z M 190 520 L 363 520 L 363 607 L 190 607 L 190 520 Z M 424 874 L 424 530 C 443 526 458 518 464 511 L 385 453 L 354 490 L 195 490 L 129 460 L 129 958 L 139 958 C 165 958 190 943 190 936 L 190 753 L 363 753 L 363 867 C 363 880 359 885 345 885 C 329 885 265 880 265 880 L 265 895 C 295 900 313 908 324 917 C 333 927 337 942 339 960 C 415 953 424 924 424 874 Z M 580 504 L 803 504 C 780 581 745 652 699 716 C 646 657 606 587 580 504 Z M 915 500 L 843 434 L 801 475 L 487 475 L 496 504 L 558 504 C 582 603 618 687 667 757 C 603 833 519 896 415 943 L 424 958 C 539 919 628 863 698 796 C 755 864 827 918 913 957 C 924 927 946 909 975 905 L 977 895 C 884 864 802 817 736 756 C 798 684 843 602 874 512 C 897 511 907 509 915 500 Z" fill="red" fill-opacity="0.5" /><text text-anchor="middle" x="500" y="1064" font-family="Arial" font-size="64">Source Han Serif TW</text><text text-anchor="middle" x="1500" y="1064" font-family="Arial" font-size="64">HKSerif (uni9AB0HK-regular)</text></svg>