<svg width="3000" height="1080" xmlns="http://www.w3.org/2000/svg" style="background:#fff"><path d="M 152 223 L 460 223 L 460 449 L 470 449 C 503 449 525 434 525 430 L 525 223 L 854 223 C 845 255 832 295 821 320 L 834 328 C 865 305 905 263 928 235 C 947 233 958 231 965 224 L 891 153 L 851 194 L 525 194 L 525 127 L 818 127 C 832 127 841 122 844 111 C 812 82 762 44 762 44 L 717 98 L 164 98 L 172 127 L 460 127 L 460 194 L 149 194 C 146 181 142 166 137 152 L 120 153 C 127 206 101 256 68 275 C 48 286 35 304 43 324 C 53 346 85 345 107 331 C 133 314 155 278 152 223 Z M 605 780 L 388 780 L 396 810 L 881 810 C 895 810 905 805 908 794 C 877 766 829 731 829 731 L 787 780 L 666 780 L 666 651 L 822 651 C 836 651 844 646 847 635 C 819 609 775 577 775 577 L 736 622 L 666 622 L 666 510 C 720 503 770 495 812 487 C 833 497 848 497 857 489 L 797 430 C 821 408 777 340 565 355 L 561 374 C 630 386 725 416 773 436 L 775 436 C 686 465 536 496 411 509 L 416 528 C 477 527 543 523 605 517 L 605 622 L 449 622 L 457 651 L 605 651 L 605 780 Z M 167 382 L 199 452 C 208 450 217 443 221 430 C 310 405 378 382 424 366 L 421 350 C 318 364 213 378 167 382 Z M 195 255 L 189 272 C 249 284 330 313 371 337 C 427 343 415 241 195 255 Z M 795 296 L 754 230 C 716 252 623 296 562 318 L 566 332 C 636 322 731 301 770 290 C 780 298 789 299 795 296 Z M 433 654 L 366 595 L 327 631 L 220 631 C 252 593 293 541 317 507 C 343 505 368 499 379 488 L 305 428 L 272 464 L 86 464 L 95 494 L 258 494 C 232 532 194 581 164 615 C 151 619 134 625 124 630 L 175 681 L 204 660 L 328 660 C 311 715 284 766 247 810 C 199 783 160 743 129 687 L 115 696 C 146 757 181 803 223 837 C 178 882 123 919 55 948 L 64 964 C 143 939 206 904 257 862 C 347 918 468 932 640 932 L 923 932 C 925 908 939 887 966 883 L 967 869 C 887 871 718 871 644 871 C 492 871 378 864 291 830 C 336 783 370 728 394 666 C 415 665 425 662 433 654 Z" fill="blue" /><path transform="translate(1000)" d="M 605 780 L 388 780 L 396 810 L 881 810 C 895 810 905 805 908 794 C 877 766 829 731 829 731 L 787 780 L 666 780 L 666 651 L 822 651 C 836 651 844 646 847 635 C 819 609 775 577 775 577 L 736 622 L 666 622 L 666 510 L 605 517 L 605 622 L 449 622 L 457 651 L 605 651 L 605 780 Z M 433 654 L 366 595 L 327 631 L 220 631 C 252 593 293 541 317 507 C 343 505 368 499 379 488 L 305 428 L 272 464 L 86 464 L 95 494 L 258 494 C 232 532 194 581 164 615 C 151 619 134 625 124 630 L 175 681 L 204 660 L 328 660 C 311 715 284 766 247 810 C 199 783 160 743 129 687 L 115 696 C 146 757 181 803 223 837 C 178 882 123 919 55 948 L 64 964 C 143 939 206 904 257 862 C 347 918 468 932 640 932 L 923 932 C 925 908 939 887 966 883 L 967 869 C 887 871 718 871 644 871 C 492 871 378 864 291 830 C 336 783 370 728 394 666 C 415 665 425 662 433 654 Z M 167 227 L 465 227 L 465 445 L 475 445 C 508 445 529 430 530 425 L 530 227 L 847 227 C 840 254 829 285 820 306 L 835 313 C 863 294 897 260 916 237 C 936 235 947 234 953 227 L 882 158 L 844 197 L 530 197 L 530 131 L 847 131 C 861 131 871 126 872 115 C 840 87 788 48 788 48 L 742 102 L 134 102 L 143 131 L 465 131 L 465 197 L 165 197 C 163 186 161 174 157 162 L 139 163 C 142 213 111 256 75 270 C 54 280 40 298 47 320 C 56 341 88 343 113 331 C 140 316 167 282 167 227 Z M 576 369 L 584 399 L 812 399 C 825 399 834 394 837 383 C 810 359 771 331 771 331 L 736 369 L 576 369 Z M 751 250 L 717 286 L 579 286 L 587 316 L 789 316 C 802 316 811 311 814 300 C 789 277 751 250 751 250 Z M 178 369 L 186 399 L 401 399 C 414 399 424 394 426 383 C 401 359 365 333 365 333 L 332 369 L 178 369 Z M 356 251 L 323 286 L 192 286 L 200 316 L 392 316 C 406 316 414 311 417 300 C 393 277 356 251 356 251 Z M 605 611 L 666 611 L 666 507 C 721 499 771 489 812 480 C 834 489 850 489 859 481 L 796 422 C 714 455 553 495 423 511 L 428 530 C 486 528 547 522 605 515 L 605 611 Z" fill="red" /><path transform="translate(2000)" d="M 152 223 L 460 223 L 460 449 L 470 449 C 503 449 525 434 525 430 L 525 223 L 854 223 C 845 255 832 295 821 320 L 834 328 C 865 305 905 263 928 235 C 947 233 958 231 965 224 L 891 153 L 851 194 L 525 194 L 525 127 L 818 127 C 832 127 841 122 844 111 C 812 82 762 44 762 44 L 717 98 L 164 98 L 172 127 L 460 127 L 460 194 L 149 194 C 146 181 142 166 137 152 L 120 153 C 127 206 101 256 68 275 C 48 286 35 304 43 324 C 53 346 85 345 107 331 C 133 314 155 278 152 223 Z M 605 780 L 388 780 L 396 810 L 881 810 C 895 810 905 805 908 794 C 877 766 829 731 829 731 L 787 780 L 666 780 L 666 651 L 822 651 C 836 651 844 646 847 635 C 819 609 775 577 775 577 L 736 622 L 666 622 L 666 510 C 720 503 770 495 812 487 C 833 497 848 497 857 489 L 797 430 C 821 408 777 340 565 355 L 561 374 C 630 386 725 416 773 436 L 775 436 C 686 465 536 496 411 509 L 416 528 C 477 527 543 523 605 517 L 605 622 L 449 622 L 457 651 L 605 651 L 605 780 Z M 167 382 L 199 452 C 208 450 217 443 221 430 C 310 405 378 382 424 366 L 421 350 C 318 364 213 378 167 382 Z M 195 255 L 189 272 C 249 284 330 313 371 337 C 427 343 415 241 195 255 Z M 795 296 L 754 230 C 716 252 623 296 562 318 L 566 332 C 636 322 731 301 770 290 C 780 298 789 299 795 296 Z M 433 654 L 366 595 L 327 631 L 220 631 C 252 593 293 541 317 507 C 343 505 368 499 379 488 L 305 428 L 272 464 L 86 464 L 95 494 L 258 494 C 232 532 194 581 164 615 C 151 619 134 625 124 630 L 175 681 L 204 660 L 328 660 C 311 715 284 766 247 810 C 199 783 160 743 129 687 L 115 696 C 146 757 181 803 223 837 C 178 882 123 919 55 948 L 64 964 C 143 939 206 904 257 862 C 347 918 468 932 640 932 L 923 932 C 925 908 939 887 966 883 L 967 869 C 887 871 718 871 644 871 C 492 871 378 864 291 830 C 336 783 370 728 394 666 C 415 665 425 662 433 654 Z" fill="blue" fill-opacity="0.5" /><path transform="translate(2000)" d="M 605 780 L 388 780 L 396 810 L 881 810 C 895 810 905 805 908 794 C 877 766 829 731 829 731 L 787 780 L 666 780 L 666 651 L 822 651 C 836 651 844 646 847 635 C 819 609 775 577 775 577 L 736 622 L 666 622 L 666 510 L 605 517 L 605 622 L 449 622 L 457 651 L 605 651 L 605 780 Z M 433 654 L 366 595 L 327 631 L 220 631 C 252 593 293 541 317 507 C 343 505 368 499 379 488 L 305 428 L 272 464 L 86 464 L 95 494 L 258 494 C 232 532 194 581 164 615 C 151 619 134 625 124 630 L 175 681 L 204 660 L 328 660 C 311 715 284 766 247 810 C 199 783 160 743 129 687 L 115 696 C 146 757 181 803 223 837 C 178 882 123 919 55 948 L 64 964 C 143 939 206 904 257 862 C 347 918 468 932 640 932 L 923 932 C 925 908 939 887 966 883 L 967 869 C 887 871 718 871 644 871 C 492 871 378 864 291 830 C 336 783 370 728 394 666 C 415 665 425 662 433 654 Z M 167 227 L 465 227 L 465 445 L 475 445 C 508 445 529 430 530 425 L 530 227 L 847 227 C 840 254 829 285 820 306 L 835 313 C 863 294 897 260 916 237 C 936 235 947 234 953 227 L 882 158 L 844 197 L 530 197 L 530 131 L 847 131 C 861 131 871 126 872 115 C 840 87 788 48 788 48 L 742 102 L 134 102 L 143 131 L 465 131 L 465 197 L 165 197 C 163 186 161 174 157 162 L 139 163 C 142 213 111 256 75 270 C 54 280 40 298 47 320 C 56 341 88 343 113 331 C 140 316 167 282 167 227 Z M 576 369 L 584 399 L 812 399 C 825 399 834 394 837 383 C 810 359 771 331 771 331 L 736 369 L 576 369 Z M 751 250 L 717 286 L 579 286 L 587 316 L 789 316 C 802 316 811 311 814 300 C 789 277 751 250 751 250 Z M 178 369 L 186 399 L 401 399 C 414 399 424 394 426 383 C 401 359 365 333 365 333 L 332 369 L 178 369 Z M 356 251 L 323 286 L 192 286 L 200 316 L 392 316 C 406 316 414 311 417 300 C 393 277 356 251 356 251 Z M 605 611 L 666 611 L 666 507 C 721 499 771 489 812 480 C 834 489 850 489 859 481 L 796 422 C 714 455 553 495 423 511 L 428 530 C 486 528 547 522 605 515 L 605 611 Z" fill="red" fill-opacity="0.5" /><text text-anchor="middle" x="500" y="1064" font-family="Arial" font-size="64">Source Han Serif TW</text><text text-anchor="middle" x="1500" y="1064" font-family="Arial" font-size="64">HKSerif (uni9706HK-regular)</text></svg>