<svg width="3000" height="1080" xmlns="http://www.w3.org/2000/svg" style="background:#fff"><path d="M 782 140 L 782 366 L 634 366 C 648 298 668 202 678 140 L 782 140 Z M 569 140 L 620 140 C 612 198 593 295 577 358 C 564 363 550 370 542 376 L 606 426 L 635 396 L 741 396 C 704 508 643 622 569 708 L 582 723 C 665 652 734 564 782 465 L 782 723 C 782 738 777 743 758 743 C 737 743 639 736 639 736 L 639 752 C 683 756 708 764 723 773 C 736 782 741 796 742 812 C 829 804 841 772 841 724 L 841 396 L 942 396 C 956 396 965 391 967 380 C 941 353 897 320 897 320 L 861 366 L 841 366 L 841 140 L 922 140 C 936 140 945 135 948 124 C 919 96 874 61 874 61 L 834 110 L 561 110 L 569 140 Z M 272 603 L 225 603 L 225 399 L 272 399 L 272 603 Z M 315 399 L 362 399 L 362 603 L 315 603 L 315 399 Z M 371 685 L 357 691 C 372 717 387 749 398 783 L 319 792 L 319 633 L 362 633 L 362 663 L 369 663 C 384 663 406 651 407 645 L 407 400 C 419 398 432 392 436 386 L 381 344 L 355 369 L 318 369 L 318 249 L 410 249 C 424 249 433 244 436 233 C 412 208 375 178 375 178 L 343 219 L 164 219 L 172 249 L 269 249 L 269 369 L 230 369 L 180 345 L 180 675 L 188 675 C 206 675 225 664 225 660 L 225 633 L 269 633 L 269 798 C 208 804 155 809 126 811 L 153 884 C 163 882 172 876 177 863 C 272 839 348 820 405 804 C 412 828 416 852 416 874 C 468 926 525 804 371 685 Z M 930 882 L 935 748 L 921 749 C 912 793 899 840 888 866 C 880 886 875 889 841 890 C 480 899 493 656 502 133 C 523 131 536 125 543 117 L 468 56 L 437 98 L 158 98 L 90 67 L 90 321 C 90 520 91 753 29 947 L 48 957 C 146 762 146 496 146 321 L 146 127 L 447 127 C 444 701 439 948 839 945 C 911 946 964 941 967 911 C 968 897 963 891 930 882 Z" fill="blue" /><path transform="translate(1000)" d="M 263 605 L 224 605 L 224 398 L 263 398 L 263 605 Z M 314 398 L 354 398 L 354 605 L 314 605 L 314 398 Z M 263 393 L 314 393 L 314 241 L 398 241 C 412 241 421 236 424 225 C 400 200 363 170 363 170 L 331 211 L 158 211 L 166 241 L 263 241 L 263 393 Z M 367 708 L 353 714 C 369 738 386 771 400 803 L 314 811 L 314 634 L 354 634 L 354 666 L 361 666 C 377 666 400 654 401 648 L 401 400 C 414 398 427 391 430 386 L 374 341 L 348 368 L 229 368 L 178 343 L 178 678 L 186 678 C 205 678 224 666 224 663 L 224 634 L 263 634 L 263 816 C 204 821 156 825 126 827 L 163 901 C 172 898 181 893 186 880 C 280 858 353 839 408 824 C 417 851 424 876 425 899 C 479 950 534 825 367 708 Z M 927 891 L 933 756 L 920 755 C 911 800 896 847 884 873 C 876 892 870 895 838 893 C 492 882 484 628 492 133 C 512 131 526 124 533 116 L 457 56 L 425 97 L 156 97 L 89 66 L 89 319 C 89 519 89 752 25 947 L 43 957 C 143 762 144 495 144 319 L 144 127 L 435 127 C 434 673 449 930 832 949 C 903 955 957 955 961 922 C 963 911 958 902 927 891 Z M 897 320 L 861 366 L 838 366 L 838 140 L 929 140 C 943 140 952 135 955 124 C 927 96 880 61 880 61 L 841 110 L 549 110 L 557 140 L 778 140 L 778 366 L 624 366 C 638 323 656 266 667 227 C 691 229 702 221 706 210 L 618 181 C 609 224 585 300 567 353 C 551 357 534 364 522 371 L 588 430 L 623 396 L 742 396 C 703 506 641 618 565 701 L 578 715 C 659 650 729 566 778 472 L 778 715 C 778 730 774 736 755 736 C 735 736 635 729 635 729 L 635 744 C 680 749 705 756 720 765 C 733 774 738 789 739 805 C 826 797 838 765 838 717 L 838 396 L 942 396 C 956 396 964 391 967 380 C 941 353 897 320 897 320 Z" fill="red" /><path transform="translate(2000)" d="M 782 140 L 782 366 L 634 366 C 648 298 668 202 678 140 L 782 140 Z M 569 140 L 620 140 C 612 198 593 295 577 358 C 564 363 550 370 542 376 L 606 426 L 635 396 L 741 396 C 704 508 643 622 569 708 L 582 723 C 665 652 734 564 782 465 L 782 723 C 782 738 777 743 758 743 C 737 743 639 736 639 736 L 639 752 C 683 756 708 764 723 773 C 736 782 741 796 742 812 C 829 804 841 772 841 724 L 841 396 L 942 396 C 956 396 965 391 967 380 C 941 353 897 320 897 320 L 861 366 L 841 366 L 841 140 L 922 140 C 936 140 945 135 948 124 C 919 96 874 61 874 61 L 834 110 L 561 110 L 569 140 Z M 272 603 L 225 603 L 225 399 L 272 399 L 272 603 Z M 315 399 L 362 399 L 362 603 L 315 603 L 315 399 Z M 371 685 L 357 691 C 372 717 387 749 398 783 L 319 792 L 319 633 L 362 633 L 362 663 L 369 663 C 384 663 406 651 407 645 L 407 400 C 419 398 432 392 436 386 L 381 344 L 355 369 L 318 369 L 318 249 L 410 249 C 424 249 433 244 436 233 C 412 208 375 178 375 178 L 343 219 L 164 219 L 172 249 L 269 249 L 269 369 L 230 369 L 180 345 L 180 675 L 188 675 C 206 675 225 664 225 660 L 225 633 L 269 633 L 269 798 C 208 804 155 809 126 811 L 153 884 C 163 882 172 876 177 863 C 272 839 348 820 405 804 C 412 828 416 852 416 874 C 468 926 525 804 371 685 Z M 930 882 L 935 748 L 921 749 C 912 793 899 840 888 866 C 880 886 875 889 841 890 C 480 899 493 656 502 133 C 523 131 536 125 543 117 L 468 56 L 437 98 L 158 98 L 90 67 L 90 321 C 90 520 91 753 29 947 L 48 957 C 146 762 146 496 146 321 L 146 127 L 447 127 C 444 701 439 948 839 945 C 911 946 964 941 967 911 C 968 897 963 891 930 882 Z" fill="blue" fill-opacity="0.5" /><path transform="translate(2000)" d="M 263 605 L 224 605 L 224 398 L 263 398 L 263 605 Z M 314 398 L 354 398 L 354 605 L 314 605 L 314 398 Z M 263 393 L 314 393 L 314 241 L 398 241 C 412 241 421 236 424 225 C 400 200 363 170 363 170 L 331 211 L 158 211 L 166 241 L 263 241 L 263 393 Z M 367 708 L 353 714 C 369 738 386 771 400 803 L 314 811 L 314 634 L 354 634 L 354 666 L 361 666 C 377 666 400 654 401 648 L 401 400 C 414 398 427 391 430 386 L 374 341 L 348 368 L 229 368 L 178 343 L 178 678 L 186 678 C 205 678 224 666 224 663 L 224 634 L 263 634 L 263 816 C 204 821 156 825 126 827 L 163 901 C 172 898 181 893 186 880 C 280 858 353 839 408 824 C 417 851 424 876 425 899 C 479 950 534 825 367 708 Z M 927 891 L 933 756 L 920 755 C 911 800 896 847 884 873 C 876 892 870 895 838 893 C 492 882 484 628 492 133 C 512 131 526 124 533 116 L 457 56 L 425 97 L 156 97 L 89 66 L 89 319 C 89 519 89 752 25 947 L 43 957 C 143 762 144 495 144 319 L 144 127 L 435 127 C 434 673 449 930 832 949 C 903 955 957 955 961 922 C 963 911 958 902 927 891 Z M 897 320 L 861 366 L 838 366 L 838 140 L 929 140 C 943 140 952 135 955 124 C 927 96 880 61 880 61 L 841 110 L 549 110 L 557 140 L 778 140 L 778 366 L 624 366 C 638 323 656 266 667 227 C 691 229 702 221 706 210 L 618 181 C 609 224 585 300 567 353 C 551 357 534 364 522 371 L 588 430 L 623 396 L 742 396 C 703 506 641 618 565 701 L 578 715 C 659 650 729 566 778 472 L 778 715 C 778 730 774 736 755 736 C 735 736 635 729 635 729 L 635 744 C 680 749 705 756 720 765 C 733 774 738 789 739 805 C 826 797 838 765 838 717 L 838 396 L 942 396 C 956 396 964 391 967 380 C 941 353 897 320 897 320 Z" fill="red" fill-opacity="0.5" /><text text-anchor="middle" x="500" y="1064" font-family="Arial" font-size="64">Source Han Serif TW</text><text text-anchor="middle" x="1500" y="1064" font-family="Arial" font-size="64">HKSerif (uni98ACHK-regular)</text></svg>