<svg width="3000" height="1080" xmlns="http://www.w3.org/2000/svg" style="background:#fff"><path d="M 372 212 L 372 166 L 486 166 C 499 166 508 161 511 150 C 486 125 446 92 446 92 L 411 137 L 372 137 L 372 80 C 396 76 406 66 408 52 L 313 42 L 313 231 L 324 231 C 346 231 372 219 372 212 Z M 350 294 L 423 294 L 423 383 L 350 383 L 350 294 Z M 350 424 L 350 413 L 423 413 L 423 439 L 431 439 C 448 439 474 426 475 421 L 475 301 C 491 298 506 290 511 283 L 444 233 L 415 264 L 362 264 L 297 236 L 297 443 L 305 443 C 332 443 350 429 350 424 Z M 202 383 L 131 383 L 131 294 L 202 294 L 202 383 Z M 202 443 L 209 443 C 226 443 252 430 253 424 L 253 300 C 269 297 283 290 288 283 L 222 234 L 193 264 L 143 264 L 80 236 L 80 455 L 87 455 C 114 455 131 441 131 437 L 131 413 L 202 413 L 202 443 Z M 41 137 L 49 166 L 181 166 L 181 232 L 192 232 C 213 232 238 220 238 213 L 238 80 C 264 76 274 66 276 52 L 181 42 L 181 137 L 41 137 Z M 643 640 L 643 391 L 677 391 L 677 640 L 643 640 Z M 723 391 L 759 391 L 759 640 L 723 640 L 723 391 Z M 771 741 L 756 746 C 768 769 781 798 790 829 L 726 839 L 726 669 L 759 669 L 759 699 L 765 699 C 780 699 802 687 803 681 L 803 394 C 816 391 830 385 834 379 L 778 335 L 752 361 L 726 361 L 726 231 C 751 225 774 219 792 214 C 812 222 829 222 837 214 L 772 156 C 730 182 647 219 578 238 L 585 255 C 613 253 643 248 673 242 L 673 361 L 655 361 L 600 336 L 600 724 L 606 724 C 627 724 643 711 643 707 L 643 669 L 674 669 L 674 846 C 621 853 575 859 548 862 L 584 937 C 593 934 602 927 607 916 C 687 888 750 864 795 847 C 803 873 807 900 807 923 C 853 970 904 859 771 741 Z M 173 858 L 173 783 L 269 783 L 269 858 L 173 858 Z M 173 579 L 269 579 L 269 651 L 173 651 L 173 579 Z M 269 679 L 269 753 L 173 753 L 173 679 L 269 679 Z M 957 888 L 977 719 L 964 716 C 956 749 947 785 934 830 C 929 843 926 844 921 832 C 886 729 883 385 897 152 C 920 149 935 142 942 135 L 867 68 L 831 107 L 578 107 L 514 77 L 514 455 C 514 591 514 732 483 855 C 457 832 428 810 428 810 L 389 858 L 327 858 L 327 783 L 453 783 C 466 783 475 778 477 767 C 454 743 414 712 414 712 L 380 753 L 327 753 L 327 679 L 448 679 C 460 679 469 674 472 664 C 449 640 409 609 409 609 L 377 651 L 327 651 L 327 579 L 463 579 C 477 579 487 574 489 563 C 462 537 420 504 420 504 L 384 549 L 304 549 C 322 529 340 507 354 489 C 376 489 386 479 389 468 L 297 447 C 293 477 285 519 278 549 L 185 549 L 178 546 C 188 528 198 509 206 489 C 226 490 237 481 241 470 L 154 440 C 127 545 79 645 30 708 L 45 719 C 69 699 93 673 115 645 L 115 957 L 124 957 C 153 957 173 941 173 936 L 173 888 L 473 888 C 466 910 458 931 449 951 L 467 961 C 567 821 567 617 567 454 L 567 136 L 841 136 C 836 424 830 753 883 887 C 901 933 933 968 962 954 C 975 947 971 928 957 888 Z" fill="blue" /><path transform="translate(1000)" d="M 372 212 L 372 166 L 486 166 C 499 166 508 161 511 150 C 486 125 446 92 446 92 L 411 137 L 372 137 L 372 80 C 396 76 406 66 408 52 L 313 42 L 313 231 L 324 231 C 346 231 372 219 372 212 Z M 350 294 L 423 294 L 423 383 L 350 383 L 350 294 Z M 350 424 L 350 413 L 423 413 L 423 439 L 431 439 C 448 439 474 426 475 421 L 475 301 C 491 298 506 290 511 283 L 444 233 L 415 264 L 362 264 L 297 236 L 297 443 L 305 443 C 332 443 350 429 350 424 Z M 202 383 L 131 383 L 131 294 L 202 294 L 202 383 Z M 202 443 L 209 443 C 226 443 252 430 253 424 L 253 300 C 269 297 283 290 288 283 L 222 234 L 193 264 L 143 264 L 80 236 L 80 455 L 87 455 C 114 455 131 441 131 437 L 131 413 L 202 413 L 202 443 Z M 41 137 L 49 166 L 181 166 L 181 232 L 192 232 C 213 232 238 220 238 213 L 238 80 C 264 76 274 66 276 52 L 181 42 L 181 137 L 41 137 Z M 173 858 L 173 783 L 269 783 L 269 858 L 173 858 Z M 173 579 L 269 579 L 269 651 L 173 651 L 173 579 Z M 269 679 L 269 753 L 173 753 L 173 679 L 269 679 Z M 480 888 L 483 855 C 457 832 428 810 428 810 L 389 858 L 327 858 L 327 783 L 453 783 C 466 783 475 778 477 767 C 454 743 414 712 414 712 L 380 753 L 327 753 L 327 679 L 448 679 C 460 679 469 674 472 664 C 449 640 409 609 409 609 L 377 651 L 327 651 L 327 579 L 463 579 C 477 579 487 574 489 563 C 462 537 420 504 420 504 L 384 549 L 304 549 C 322 529 340 507 354 489 C 376 489 386 479 389 468 L 297 447 C 293 477 285 519 278 549 L 185 549 L 178 546 C 188 528 198 509 206 489 C 226 490 237 481 241 470 L 154 440 C 127 545 79 645 30 708 L 45 719 C 69 699 93 673 115 645 L 115 957 L 124 957 C 153 957 173 941 173 936 L 173 888 L 480 888 Z M 957 889 L 977 718 L 964 715 C 956 748 946 785 933 830 C 929 844 926 845 921 832 C 886 728 883 385 897 153 C 920 150 934 143 941 136 L 866 69 L 831 108 L 578 108 L 514 78 L 514 455 C 514 596 514 743 478 869 L 473 885 C 467 908 459 930 449 951 L 468 961 C 567 820 567 616 567 454 L 567 137 L 841 137 C 836 424 830 753 883 888 C 901 934 932 969 962 955 C 975 948 971 929 957 889 Z M 641 601 L 641 392 L 676 392 L 676 601 L 641 601 Z M 724 392 L 759 392 L 759 601 L 724 601 L 724 392 Z M 759 684 L 744 689 C 758 715 772 750 781 785 L 724 794 L 724 630 L 759 630 L 759 670 L 765 670 C 780 670 801 658 802 652 L 802 395 C 816 392 829 386 834 380 L 778 336 L 752 362 L 724 362 L 724 253 L 800 253 C 813 253 822 248 825 237 C 801 212 764 182 764 182 L 730 224 L 588 224 L 596 253 L 676 253 L 676 362 L 653 362 L 599 337 L 599 687 L 605 687 C 626 687 641 674 641 670 L 641 630 L 676 630 L 676 801 C 620 810 574 816 548 818 L 582 891 C 591 889 600 882 604 870 C 681 844 742 823 787 806 C 792 828 795 849 795 869 C 837 915 885 807 759 684 Z" fill="red" /><path transform="translate(2000)" d="M 372 212 L 372 166 L 486 166 C 499 166 508 161 511 150 C 486 125 446 92 446 92 L 411 137 L 372 137 L 372 80 C 396 76 406 66 408 52 L 313 42 L 313 231 L 324 231 C 346 231 372 219 372 212 Z M 350 294 L 423 294 L 423 383 L 350 383 L 350 294 Z M 350 424 L 350 413 L 423 413 L 423 439 L 431 439 C 448 439 474 426 475 421 L 475 301 C 491 298 506 290 511 283 L 444 233 L 415 264 L 362 264 L 297 236 L 297 443 L 305 443 C 332 443 350 429 350 424 Z M 202 383 L 131 383 L 131 294 L 202 294 L 202 383 Z M 202 443 L 209 443 C 226 443 252 430 253 424 L 253 300 C 269 297 283 290 288 283 L 222 234 L 193 264 L 143 264 L 80 236 L 80 455 L 87 455 C 114 455 131 441 131 437 L 131 413 L 202 413 L 202 443 Z M 41 137 L 49 166 L 181 166 L 181 232 L 192 232 C 213 232 238 220 238 213 L 238 80 C 264 76 274 66 276 52 L 181 42 L 181 137 L 41 137 Z M 643 640 L 643 391 L 677 391 L 677 640 L 643 640 Z M 723 391 L 759 391 L 759 640 L 723 640 L 723 391 Z M 771 741 L 756 746 C 768 769 781 798 790 829 L 726 839 L 726 669 L 759 669 L 759 699 L 765 699 C 780 699 802 687 803 681 L 803 394 C 816 391 830 385 834 379 L 778 335 L 752 361 L 726 361 L 726 231 C 751 225 774 219 792 214 C 812 222 829 222 837 214 L 772 156 C 730 182 647 219 578 238 L 585 255 C 613 253 643 248 673 242 L 673 361 L 655 361 L 600 336 L 600 724 L 606 724 C 627 724 643 711 643 707 L 643 669 L 674 669 L 674 846 C 621 853 575 859 548 862 L 584 937 C 593 934 602 927 607 916 C 687 888 750 864 795 847 C 803 873 807 900 807 923 C 853 970 904 859 771 741 Z M 173 858 L 173 783 L 269 783 L 269 858 L 173 858 Z M 173 579 L 269 579 L 269 651 L 173 651 L 173 579 Z M 269 679 L 269 753 L 173 753 L 173 679 L 269 679 Z M 957 888 L 977 719 L 964 716 C 956 749 947 785 934 830 C 929 843 926 844 921 832 C 886 729 883 385 897 152 C 920 149 935 142 942 135 L 867 68 L 831 107 L 578 107 L 514 77 L 514 455 C 514 591 514 732 483 855 C 457 832 428 810 428 810 L 389 858 L 327 858 L 327 783 L 453 783 C 466 783 475 778 477 767 C 454 743 414 712 414 712 L 380 753 L 327 753 L 327 679 L 448 679 C 460 679 469 674 472 664 C 449 640 409 609 409 609 L 377 651 L 327 651 L 327 579 L 463 579 C 477 579 487 574 489 563 C 462 537 420 504 420 504 L 384 549 L 304 549 C 322 529 340 507 354 489 C 376 489 386 479 389 468 L 297 447 C 293 477 285 519 278 549 L 185 549 L 178 546 C 188 528 198 509 206 489 C 226 490 237 481 241 470 L 154 440 C 127 545 79 645 30 708 L 45 719 C 69 699 93 673 115 645 L 115 957 L 124 957 C 153 957 173 941 173 936 L 173 888 L 473 888 C 466 910 458 931 449 951 L 467 961 C 567 821 567 617 567 454 L 567 136 L 841 136 C 836 424 830 753 883 887 C 901 933 933 968 962 954 C 975 947 971 928 957 888 Z" fill="blue" fill-opacity="0.5" /><path transform="translate(2000)" d="M 372 212 L 372 166 L 486 166 C 499 166 508 161 511 150 C 486 125 446 92 446 92 L 411 137 L 372 137 L 372 80 C 396 76 406 66 408 52 L 313 42 L 313 231 L 324 231 C 346 231 372 219 372 212 Z M 350 294 L 423 294 L 423 383 L 350 383 L 350 294 Z M 350 424 L 350 413 L 423 413 L 423 439 L 431 439 C 448 439 474 426 475 421 L 475 301 C 491 298 506 290 511 283 L 444 233 L 415 264 L 362 264 L 297 236 L 297 443 L 305 443 C 332 443 350 429 350 424 Z M 202 383 L 131 383 L 131 294 L 202 294 L 202 383 Z M 202 443 L 209 443 C 226 443 252 430 253 424 L 253 300 C 269 297 283 290 288 283 L 222 234 L 193 264 L 143 264 L 80 236 L 80 455 L 87 455 C 114 455 131 441 131 437 L 131 413 L 202 413 L 202 443 Z M 41 137 L 49 166 L 181 166 L 181 232 L 192 232 C 213 232 238 220 238 213 L 238 80 C 264 76 274 66 276 52 L 181 42 L 181 137 L 41 137 Z M 173 858 L 173 783 L 269 783 L 269 858 L 173 858 Z M 173 579 L 269 579 L 269 651 L 173 651 L 173 579 Z M 269 679 L 269 753 L 173 753 L 173 679 L 269 679 Z M 480 888 L 483 855 C 457 832 428 810 428 810 L 389 858 L 327 858 L 327 783 L 453 783 C 466 783 475 778 477 767 C 454 743 414 712 414 712 L 380 753 L 327 753 L 327 679 L 448 679 C 460 679 469 674 472 664 C 449 640 409 609 409 609 L 377 651 L 327 651 L 327 579 L 463 579 C 477 579 487 574 489 563 C 462 537 420 504 420 504 L 384 549 L 304 549 C 322 529 340 507 354 489 C 376 489 386 479 389 468 L 297 447 C 293 477 285 519 278 549 L 185 549 L 178 546 C 188 528 198 509 206 489 C 226 490 237 481 241 470 L 154 440 C 127 545 79 645 30 708 L 45 719 C 69 699 93 673 115 645 L 115 957 L 124 957 C 153 957 173 941 173 936 L 173 888 L 480 888 Z M 957 889 L 977 718 L 964 715 C 956 748 946 785 933 830 C 929 844 926 845 921 832 C 886 728 883 385 897 153 C 920 150 934 143 941 136 L 866 69 L 831 108 L 578 108 L 514 78 L 514 455 C 514 596 514 743 478 869 L 473 885 C 467 908 459 930 449 951 L 468 961 C 567 820 567 616 567 454 L 567 137 L 841 137 C 836 424 830 753 883 888 C 901 934 932 969 962 955 C 975 948 971 929 957 889 Z M 641 601 L 641 392 L 676 392 L 676 601 L 641 601 Z M 724 392 L 759 392 L 759 601 L 724 601 L 724 392 Z M 759 684 L 744 689 C 758 715 772 750 781 785 L 724 794 L 724 630 L 759 630 L 759 670 L 765 670 C 780 670 801 658 802 652 L 802 395 C 816 392 829 386 834 380 L 778 336 L 752 362 L 724 362 L 724 253 L 800 253 C 813 253 822 248 825 237 C 801 212 764 182 764 182 L 730 224 L 588 224 L 596 253 L 676 253 L 676 362 L 653 362 L 599 337 L 599 687 L 605 687 C 626 687 641 674 641 670 L 641 630 L 676 630 L 676 801 C 620 810 574 816 548 818 L 582 891 C 591 889 600 882 604 870 C 681 844 742 823 787 806 C 792 828 795 849 795 869 C 837 915 885 807 759 684 Z" fill="red" fill-opacity="0.5" /><text text-anchor="middle" x="500" y="1064" font-family="Arial" font-size="64">Source Han Serif KR</text><text text-anchor="middle" x="1500" y="1064" font-family="Arial" font-size="64">HKSerif (uni98CCKX-regular)</text></svg>