<svg width="3000" height="1080" xmlns="http://www.w3.org/2000/svg" style="background:#fff"><path d="M 275 162 L 275 86 C 296 83 303 76 307 66 C 327 87 348 121 353 149 C 365 159 379 159 388 152 L 356 192 L 274 192 C 274 182 275 172 275 162 Z M 39 451 L 51 465 C 181 417 238 342 260 265 C 311 305 368 365 384 417 C 446 454 476 322 265 246 C 267 238 269 230 270 222 L 435 222 C 449 222 458 217 461 206 C 436 182 398 152 393 148 C 409 128 399 81 316 56 L 308 61 L 217 51 L 217 160 C 217 171 217 181 216 192 L 55 192 L 63 222 L 213 222 C 201 305 159 391 39 451 Z M 395 470 L 383 477 C 401 497 417 530 419 558 C 458 594 505 514 395 470 Z M 353 628 L 440 628 C 453 628 462 623 464 612 C 444 589 411 560 411 560 L 384 598 L 353 598 L 353 488 C 377 484 385 475 387 462 L 299 452 L 299 598 L 243 598 L 244 602 C 224 582 201 561 201 561 L 174 598 L 165 598 L 165 488 C 177 486 185 483 191 478 C 206 499 219 532 219 559 C 256 594 303 520 202 470 L 195 473 C 197 470 198 466 199 462 L 110 452 L 110 598 L 43 598 L 51 628 L 110 628 C 108 733 95 857 31 946 L 46 958 C 120 890 148 794 159 704 C 185 744 207 797 206 839 C 252 884 303 773 162 674 C 163 659 164 643 165 628 L 230 628 C 239 628 245 626 249 621 L 251 628 L 299 628 C 298 733 285 857 217 946 L 231 958 C 309 890 338 794 348 704 C 371 739 392 784 396 820 C 439 859 484 762 351 675 C 352 659 353 643 353 628 Z M 619 619 L 619 398 L 661 398 L 661 619 L 619 619 Z M 707 398 L 751 398 L 751 619 L 707 619 L 707 398 Z M 751 719 L 736 724 C 749 749 763 779 773 812 L 711 821 L 711 649 L 751 649 L 751 688 L 757 688 C 772 688 793 676 794 670 L 794 401 C 808 399 822 392 826 386 L 770 343 L 744 369 L 711 369 L 711 258 L 804 258 C 818 258 827 253 829 242 C 804 217 763 186 763 186 L 729 228 L 549 228 L 557 258 L 658 258 L 658 369 L 631 369 L 576 343 L 576 712 L 581 712 C 603 712 619 699 619 695 L 619 649 L 659 649 L 659 828 C 601 836 551 842 522 844 L 555 917 C 565 914 573 908 579 896 C 664 870 729 848 778 831 C 784 855 788 877 788 898 C 831 943 880 837 751 719 Z M 957 889 L 977 719 L 965 716 C 957 748 946 786 933 829 C 929 843 926 844 921 831 C 885 729 882 386 896 153 C 919 150 933 143 940 136 L 864 69 L 829 108 L 551 108 L 484 78 L 484 413 C 484 599 478 795 392 949 L 409 959 C 533 805 539 585 539 412 L 539 137 L 839 137 C 835 425 829 753 883 888 C 902 934 933 969 962 955 C 976 948 972 928 957 889 Z" fill="blue" /><path transform="translate(1000)" d="M 46 454 L 57 468 C 196 408 239 312 250 222 C 276 324 325 398 407 445 C 415 420 431 404 454 399 L 455 389 C 371 358 305 300 273 220 L 430 220 C 443 220 452 215 455 204 C 434 184 404 160 391 151 C 415 134 406 74 298 56 L 289 64 C 316 84 348 120 357 150 C 365 155 372 156 379 156 L 350 190 L 253 190 L 254 172 L 254 76 C 278 73 285 63 288 51 L 197 41 L 197 170 L 197 190 L 49 190 L 57 220 L 195 220 C 186 304 152 392 46 454 Z M 386 476 L 375 483 C 394 501 413 532 417 557 C 459 590 504 507 386 476 Z M 201 477 L 190 485 C 207 501 223 531 225 556 C 266 589 311 511 201 477 Z M 353 627 L 447 627 C 460 627 468 622 471 611 C 452 588 418 560 418 560 L 390 597 L 353 597 L 353 488 C 377 484 384 475 386 462 L 298 452 L 298 597 L 248 597 C 230 579 210 561 210 561 L 183 597 L 165 597 L 165 488 C 189 484 197 475 199 462 L 110 452 L 110 597 L 33 597 L 40 627 L 110 627 C 108 732 95 856 31 945 L 46 957 C 109 899 139 820 153 743 C 179 774 202 814 205 848 C 254 889 299 785 157 717 C 162 686 164 656 165 627 L 237 627 L 240 627 L 298 627 C 297 732 285 856 216 945 L 231 957 C 297 899 328 821 342 743 C 366 773 386 810 389 843 C 438 884 485 782 346 717 C 350 686 352 656 353 627 Z M 619 619 L 619 398 L 659 398 L 659 619 L 619 619 Z M 711 398 L 751 398 L 751 619 L 711 619 L 711 398 Z M 755 750 L 740 754 C 752 776 764 804 774 833 L 710 842 L 711 649 L 751 649 L 751 688 L 757 688 C 772 688 793 676 794 670 L 794 401 C 808 399 822 392 826 386 L 770 343 L 744 369 L 711 369 L 711 258 L 804 258 C 818 258 827 253 829 242 C 804 217 763 186 763 186 L 729 228 L 549 228 L 557 258 L 659 258 L 659 369 L 631 369 L 576 343 L 576 712 L 581 712 C 603 712 619 699 619 695 L 619 649 L 659 649 L 658 849 C 600 856 550 862 521 864 L 555 940 C 565 937 573 931 579 919 C 665 892 731 869 779 851 C 786 877 791 903 791 925 C 836 971 886 864 755 750 Z M 957 888 L 977 718 L 965 715 C 957 748 947 785 934 829 C 929 842 926 843 921 831 C 885 729 882 385 896 152 C 919 149 934 142 941 135 L 865 68 L 829 107 L 550 107 L 483 77 L 483 413 C 483 598 477 794 391 948 L 408 958 C 533 805 539 585 539 412 L 539 136 L 839 136 C 835 425 829 753 883 887 C 902 933 934 968 962 954 C 976 947 972 927 957 888 Z" fill="red" /><path transform="translate(2000)" d="M 275 162 L 275 86 C 296 83 303 76 307 66 C 327 87 348 121 353 149 C 365 159 379 159 388 152 L 356 192 L 274 192 C 274 182 275 172 275 162 Z M 39 451 L 51 465 C 181 417 238 342 260 265 C 311 305 368 365 384 417 C 446 454 476 322 265 246 C 267 238 269 230 270 222 L 435 222 C 449 222 458 217 461 206 C 436 182 398 152 393 148 C 409 128 399 81 316 56 L 308 61 L 217 51 L 217 160 C 217 171 217 181 216 192 L 55 192 L 63 222 L 213 222 C 201 305 159 391 39 451 Z M 395 470 L 383 477 C 401 497 417 530 419 558 C 458 594 505 514 395 470 Z M 353 628 L 440 628 C 453 628 462 623 464 612 C 444 589 411 560 411 560 L 384 598 L 353 598 L 353 488 C 377 484 385 475 387 462 L 299 452 L 299 598 L 243 598 L 244 602 C 224 582 201 561 201 561 L 174 598 L 165 598 L 165 488 C 177 486 185 483 191 478 C 206 499 219 532 219 559 C 256 594 303 520 202 470 L 195 473 C 197 470 198 466 199 462 L 110 452 L 110 598 L 43 598 L 51 628 L 110 628 C 108 733 95 857 31 946 L 46 958 C 120 890 148 794 159 704 C 185 744 207 797 206 839 C 252 884 303 773 162 674 C 163 659 164 643 165 628 L 230 628 C 239 628 245 626 249 621 L 251 628 L 299 628 C 298 733 285 857 217 946 L 231 958 C 309 890 338 794 348 704 C 371 739 392 784 396 820 C 439 859 484 762 351 675 C 352 659 353 643 353 628 Z M 619 619 L 619 398 L 661 398 L 661 619 L 619 619 Z M 707 398 L 751 398 L 751 619 L 707 619 L 707 398 Z M 751 719 L 736 724 C 749 749 763 779 773 812 L 711 821 L 711 649 L 751 649 L 751 688 L 757 688 C 772 688 793 676 794 670 L 794 401 C 808 399 822 392 826 386 L 770 343 L 744 369 L 711 369 L 711 258 L 804 258 C 818 258 827 253 829 242 C 804 217 763 186 763 186 L 729 228 L 549 228 L 557 258 L 658 258 L 658 369 L 631 369 L 576 343 L 576 712 L 581 712 C 603 712 619 699 619 695 L 619 649 L 659 649 L 659 828 C 601 836 551 842 522 844 L 555 917 C 565 914 573 908 579 896 C 664 870 729 848 778 831 C 784 855 788 877 788 898 C 831 943 880 837 751 719 Z M 957 889 L 977 719 L 965 716 C 957 748 946 786 933 829 C 929 843 926 844 921 831 C 885 729 882 386 896 153 C 919 150 933 143 940 136 L 864 69 L 829 108 L 551 108 L 484 78 L 484 413 C 484 599 478 795 392 949 L 409 959 C 533 805 539 585 539 412 L 539 137 L 839 137 C 835 425 829 753 883 888 C 902 934 933 969 962 955 C 976 948 972 928 957 889 Z" fill="blue" fill-opacity="0.5" /><path transform="translate(2000)" d="M 46 454 L 57 468 C 196 408 239 312 250 222 C 276 324 325 398 407 445 C 415 420 431 404 454 399 L 455 389 C 371 358 305 300 273 220 L 430 220 C 443 220 452 215 455 204 C 434 184 404 160 391 151 C 415 134 406 74 298 56 L 289 64 C 316 84 348 120 357 150 C 365 155 372 156 379 156 L 350 190 L 253 190 L 254 172 L 254 76 C 278 73 285 63 288 51 L 197 41 L 197 170 L 197 190 L 49 190 L 57 220 L 195 220 C 186 304 152 392 46 454 Z M 386 476 L 375 483 C 394 501 413 532 417 557 C 459 590 504 507 386 476 Z M 201 477 L 190 485 C 207 501 223 531 225 556 C 266 589 311 511 201 477 Z M 353 627 L 447 627 C 460 627 468 622 471 611 C 452 588 418 560 418 560 L 390 597 L 353 597 L 353 488 C 377 484 384 475 386 462 L 298 452 L 298 597 L 248 597 C 230 579 210 561 210 561 L 183 597 L 165 597 L 165 488 C 189 484 197 475 199 462 L 110 452 L 110 597 L 33 597 L 40 627 L 110 627 C 108 732 95 856 31 945 L 46 957 C 109 899 139 820 153 743 C 179 774 202 814 205 848 C 254 889 299 785 157 717 C 162 686 164 656 165 627 L 237 627 L 240 627 L 298 627 C 297 732 285 856 216 945 L 231 957 C 297 899 328 821 342 743 C 366 773 386 810 389 843 C 438 884 485 782 346 717 C 350 686 352 656 353 627 Z M 619 619 L 619 398 L 659 398 L 659 619 L 619 619 Z M 711 398 L 751 398 L 751 619 L 711 619 L 711 398 Z M 755 750 L 740 754 C 752 776 764 804 774 833 L 710 842 L 711 649 L 751 649 L 751 688 L 757 688 C 772 688 793 676 794 670 L 794 401 C 808 399 822 392 826 386 L 770 343 L 744 369 L 711 369 L 711 258 L 804 258 C 818 258 827 253 829 242 C 804 217 763 186 763 186 L 729 228 L 549 228 L 557 258 L 659 258 L 659 369 L 631 369 L 576 343 L 576 712 L 581 712 C 603 712 619 699 619 695 L 619 649 L 659 649 L 658 849 C 600 856 550 862 521 864 L 555 940 C 565 937 573 931 579 919 C 665 892 731 869 779 851 C 786 877 791 903 791 925 C 836 971 886 864 755 750 Z M 957 888 L 977 718 L 965 715 C 957 748 947 785 934 829 C 929 842 926 843 921 831 C 885 729 882 385 896 152 C 919 149 934 142 941 135 L 865 68 L 829 107 L 550 107 L 483 77 L 483 413 C 483 598 477 794 391 948 L 408 958 C 533 805 539 585 539 412 L 539 136 L 839 136 C 835 425 829 753 883 887 C 902 933 934 968 962 954 C 976 947 972 927 957 888 Z" fill="red" fill-opacity="0.5" /><text text-anchor="middle" x="500" y="1064" font-family="Arial" font-size="64">Source Han Serif TW</text><text text-anchor="middle" x="1500" y="1064" font-family="Arial" font-size="64">HKSerif (uni98C6HK-regular)</text></svg>