<svg width="3000" height="1080" xmlns="http://www.w3.org/2000/svg" style="background:#fff"><path d="M 363 212 L 363 163 L 485 163 C 497 163 506 158 508 147 C 486 122 448 92 448 92 L 415 134 L 363 134 L 363 73 C 385 70 393 61 395 49 L 308 39 L 308 231 L 319 231 C 339 231 363 219 363 212 Z M 336 293 L 409 293 L 409 381 L 336 381 L 336 293 Z M 336 425 L 336 411 L 409 411 L 409 438 L 415 438 C 432 438 456 426 456 420 L 456 300 C 473 296 488 289 492 283 L 429 234 L 400 263 L 348 263 L 288 236 L 288 441 L 296 441 C 319 441 336 429 336 425 Z M 253 429 L 242 435 C 258 457 278 496 283 525 C 329 563 382 477 253 429 Z M 195 381 L 121 381 L 121 293 L 195 293 L 195 381 Z M 215 235 L 186 263 L 133 263 L 74 237 L 74 453 L 81 453 C 105 453 121 440 121 436 L 121 411 L 195 411 L 195 441 L 201 441 C 217 441 241 431 241 424 L 241 299 C 257 296 272 288 277 283 L 215 235 Z M 48 134 L 57 163 L 171 163 L 171 233 L 182 233 C 202 233 226 221 226 214 L 226 74 C 248 71 257 62 259 50 L 171 40 L 171 134 L 48 134 Z M 641 601 L 641 392 L 677 392 L 677 601 L 641 601 Z M 720 392 L 759 392 L 759 601 L 720 601 L 720 392 Z M 759 684 L 744 689 C 758 715 772 750 781 785 L 724 794 L 724 630 L 759 630 L 759 670 L 765 670 C 780 670 801 658 802 652 L 802 395 C 816 392 829 386 834 380 L 778 336 L 752 362 L 723 362 L 723 253 L 800 253 C 813 253 822 248 825 237 C 801 212 764 182 764 182 L 730 224 L 588 224 L 596 253 L 673 253 L 673 362 L 653 362 L 599 337 L 599 687 L 605 687 C 626 687 641 674 641 670 L 641 630 L 674 630 L 674 802 C 620 810 574 816 548 818 L 582 891 C 591 889 600 882 604 870 C 681 844 742 823 787 806 C 792 828 795 849 795 869 C 837 915 885 807 759 684 Z M 160 860 L 160 780 L 264 780 L 264 860 L 160 860 Z M 160 569 L 264 569 L 264 642 L 160 642 L 160 569 Z M 264 672 L 264 750 L 160 750 L 160 672 L 264 672 Z M 957 889 L 977 718 L 964 715 C 956 748 946 785 933 830 C 929 844 926 845 921 832 C 886 728 883 385 897 153 C 920 150 934 143 941 136 L 866 69 L 831 108 L 578 108 L 514 78 L 514 455 C 514 596 514 743 478 869 C 454 846 417 817 417 817 L 382 860 L 318 860 L 318 780 L 444 780 C 457 780 466 775 469 764 C 447 741 413 714 413 714 L 384 750 L 318 750 L 318 672 L 444 672 C 457 672 466 667 468 656 C 446 633 413 607 413 607 L 384 642 L 318 642 L 318 569 L 464 569 C 476 569 485 564 488 553 C 466 529 428 499 428 499 L 395 539 L 172 539 L 167 537 C 176 519 184 502 192 484 C 212 485 224 477 228 465 L 142 437 C 117 537 73 635 28 699 L 43 709 C 64 689 85 666 105 639 L 105 950 L 113 950 C 141 950 160 935 160 930 L 160 889 L 458 889 C 465 889 470 888 473 885 C 467 908 459 930 449 951 L 468 961 C 567 820 567 616 567 454 L 567 137 L 841 137 C 836 424 830 753 883 888 C 901 934 932 969 962 955 C 975 948 971 929 957 889 Z" fill="blue" /><path transform="translate(1000)" d="M 372 212 L 372 166 L 486 166 C 499 166 508 161 511 150 C 486 125 446 92 446 92 L 411 137 L 372 137 L 372 80 C 396 76 406 66 408 52 L 313 42 L 313 231 L 324 231 C 346 231 372 219 372 212 Z M 350 294 L 423 294 L 423 383 L 350 383 L 350 294 Z M 350 424 L 350 413 L 423 413 L 423 439 L 431 439 C 448 439 474 426 475 421 L 475 301 C 491 298 506 290 511 283 L 444 233 L 415 264 L 362 264 L 297 236 L 297 443 L 305 443 C 332 443 350 429 350 424 Z M 202 383 L 131 383 L 131 294 L 202 294 L 202 383 Z M 202 443 L 209 443 C 226 443 252 430 253 424 L 253 300 C 269 297 283 290 288 283 L 222 234 L 193 264 L 143 264 L 80 236 L 80 455 L 87 455 C 114 455 131 441 131 437 L 131 413 L 202 413 L 202 443 Z M 41 137 L 49 166 L 181 166 L 181 232 L 192 232 C 213 232 238 220 238 213 L 238 80 C 264 76 274 66 276 52 L 181 42 L 181 137 L 41 137 Z M 173 858 L 173 783 L 269 783 L 269 858 L 173 858 Z M 173 579 L 269 579 L 269 651 L 173 651 L 173 579 Z M 269 679 L 269 753 L 173 753 L 173 679 L 269 679 Z M 480 888 L 483 855 C 457 832 428 810 428 810 L 389 858 L 327 858 L 327 783 L 453 783 C 466 783 475 778 477 767 C 454 743 414 712 414 712 L 380 753 L 327 753 L 327 679 L 448 679 C 460 679 469 674 472 664 C 449 640 409 609 409 609 L 377 651 L 327 651 L 327 579 L 463 579 C 477 579 487 574 489 563 C 462 537 420 504 420 504 L 384 549 L 185 549 L 178 546 C 188 528 198 509 206 489 C 226 490 237 481 241 470 L 154 440 C 127 545 79 645 30 708 L 45 719 C 69 699 93 673 115 645 L 115 957 L 124 957 C 153 957 173 941 173 936 L 173 888 L 480 888 Z M 267 433 L 256 439 C 272 461 292 500 297 529 C 343 567 396 481 267 433 Z M 957 889 L 977 718 L 964 715 C 956 748 946 785 933 830 C 929 844 926 845 921 832 C 886 728 883 385 897 153 C 920 150 934 143 941 136 L 866 69 L 831 108 L 578 108 L 514 78 L 514 455 C 514 596 514 743 478 869 L 473 885 C 467 908 459 930 449 951 L 468 961 C 567 820 567 616 567 454 L 567 137 L 841 137 C 836 424 830 753 883 888 C 901 934 932 969 962 955 C 975 948 971 929 957 889 Z M 641 601 L 641 392 L 676 392 L 676 601 L 641 601 Z M 724 392 L 759 392 L 759 601 L 724 601 L 724 392 Z M 759 684 L 744 689 C 758 715 772 750 781 785 L 724 794 L 724 630 L 759 630 L 759 670 L 765 670 C 780 670 801 658 802 652 L 802 395 C 816 392 829 386 834 380 L 778 336 L 752 362 L 724 362 L 724 253 L 800 253 C 813 253 822 248 825 237 C 801 212 764 182 764 182 L 730 224 L 588 224 L 596 253 L 676 253 L 676 362 L 653 362 L 599 337 L 599 687 L 605 687 C 626 687 641 674 641 670 L 641 630 L 676 630 L 676 801 C 620 810 574 816 548 818 L 582 891 C 591 889 600 882 604 870 C 681 844 742 823 787 806 C 792 828 795 849 795 869 C 837 915 885 807 759 684 Z" fill="red" /><path transform="translate(2000)" d="M 363 212 L 363 163 L 485 163 C 497 163 506 158 508 147 C 486 122 448 92 448 92 L 415 134 L 363 134 L 363 73 C 385 70 393 61 395 49 L 308 39 L 308 231 L 319 231 C 339 231 363 219 363 212 Z M 336 293 L 409 293 L 409 381 L 336 381 L 336 293 Z M 336 425 L 336 411 L 409 411 L 409 438 L 415 438 C 432 438 456 426 456 420 L 456 300 C 473 296 488 289 492 283 L 429 234 L 400 263 L 348 263 L 288 236 L 288 441 L 296 441 C 319 441 336 429 336 425 Z M 253 429 L 242 435 C 258 457 278 496 283 525 C 329 563 382 477 253 429 Z M 195 381 L 121 381 L 121 293 L 195 293 L 195 381 Z M 215 235 L 186 263 L 133 263 L 74 237 L 74 453 L 81 453 C 105 453 121 440 121 436 L 121 411 L 195 411 L 195 441 L 201 441 C 217 441 241 431 241 424 L 241 299 C 257 296 272 288 277 283 L 215 235 Z M 48 134 L 57 163 L 171 163 L 171 233 L 182 233 C 202 233 226 221 226 214 L 226 74 C 248 71 257 62 259 50 L 171 40 L 171 134 L 48 134 Z M 641 601 L 641 392 L 677 392 L 677 601 L 641 601 Z M 720 392 L 759 392 L 759 601 L 720 601 L 720 392 Z M 759 684 L 744 689 C 758 715 772 750 781 785 L 724 794 L 724 630 L 759 630 L 759 670 L 765 670 C 780 670 801 658 802 652 L 802 395 C 816 392 829 386 834 380 L 778 336 L 752 362 L 723 362 L 723 253 L 800 253 C 813 253 822 248 825 237 C 801 212 764 182 764 182 L 730 224 L 588 224 L 596 253 L 673 253 L 673 362 L 653 362 L 599 337 L 599 687 L 605 687 C 626 687 641 674 641 670 L 641 630 L 674 630 L 674 802 C 620 810 574 816 548 818 L 582 891 C 591 889 600 882 604 870 C 681 844 742 823 787 806 C 792 828 795 849 795 869 C 837 915 885 807 759 684 Z M 160 860 L 160 780 L 264 780 L 264 860 L 160 860 Z M 160 569 L 264 569 L 264 642 L 160 642 L 160 569 Z M 264 672 L 264 750 L 160 750 L 160 672 L 264 672 Z M 957 889 L 977 718 L 964 715 C 956 748 946 785 933 830 C 929 844 926 845 921 832 C 886 728 883 385 897 153 C 920 150 934 143 941 136 L 866 69 L 831 108 L 578 108 L 514 78 L 514 455 C 514 596 514 743 478 869 C 454 846 417 817 417 817 L 382 860 L 318 860 L 318 780 L 444 780 C 457 780 466 775 469 764 C 447 741 413 714 413 714 L 384 750 L 318 750 L 318 672 L 444 672 C 457 672 466 667 468 656 C 446 633 413 607 413 607 L 384 642 L 318 642 L 318 569 L 464 569 C 476 569 485 564 488 553 C 466 529 428 499 428 499 L 395 539 L 172 539 L 167 537 C 176 519 184 502 192 484 C 212 485 224 477 228 465 L 142 437 C 117 537 73 635 28 699 L 43 709 C 64 689 85 666 105 639 L 105 950 L 113 950 C 141 950 160 935 160 930 L 160 889 L 458 889 C 465 889 470 888 473 885 C 467 908 459 930 449 951 L 468 961 C 567 820 567 616 567 454 L 567 137 L 841 137 C 836 424 830 753 883 888 C 901 934 932 969 962 955 C 975 948 971 929 957 889 Z" fill="blue" fill-opacity="0.5" /><path transform="translate(2000)" d="M 372 212 L 372 166 L 486 166 C 499 166 508 161 511 150 C 486 125 446 92 446 92 L 411 137 L 372 137 L 372 80 C 396 76 406 66 408 52 L 313 42 L 313 231 L 324 231 C 346 231 372 219 372 212 Z M 350 294 L 423 294 L 423 383 L 350 383 L 350 294 Z M 350 424 L 350 413 L 423 413 L 423 439 L 431 439 C 448 439 474 426 475 421 L 475 301 C 491 298 506 290 511 283 L 444 233 L 415 264 L 362 264 L 297 236 L 297 443 L 305 443 C 332 443 350 429 350 424 Z M 202 383 L 131 383 L 131 294 L 202 294 L 202 383 Z M 202 443 L 209 443 C 226 443 252 430 253 424 L 253 300 C 269 297 283 290 288 283 L 222 234 L 193 264 L 143 264 L 80 236 L 80 455 L 87 455 C 114 455 131 441 131 437 L 131 413 L 202 413 L 202 443 Z M 41 137 L 49 166 L 181 166 L 181 232 L 192 232 C 213 232 238 220 238 213 L 238 80 C 264 76 274 66 276 52 L 181 42 L 181 137 L 41 137 Z M 173 858 L 173 783 L 269 783 L 269 858 L 173 858 Z M 173 579 L 269 579 L 269 651 L 173 651 L 173 579 Z M 269 679 L 269 753 L 173 753 L 173 679 L 269 679 Z M 480 888 L 483 855 C 457 832 428 810 428 810 L 389 858 L 327 858 L 327 783 L 453 783 C 466 783 475 778 477 767 C 454 743 414 712 414 712 L 380 753 L 327 753 L 327 679 L 448 679 C 460 679 469 674 472 664 C 449 640 409 609 409 609 L 377 651 L 327 651 L 327 579 L 463 579 C 477 579 487 574 489 563 C 462 537 420 504 420 504 L 384 549 L 185 549 L 178 546 C 188 528 198 509 206 489 C 226 490 237 481 241 470 L 154 440 C 127 545 79 645 30 708 L 45 719 C 69 699 93 673 115 645 L 115 957 L 124 957 C 153 957 173 941 173 936 L 173 888 L 480 888 Z M 267 433 L 256 439 C 272 461 292 500 297 529 C 343 567 396 481 267 433 Z M 957 889 L 977 718 L 964 715 C 956 748 946 785 933 830 C 929 844 926 845 921 832 C 886 728 883 385 897 153 C 920 150 934 143 941 136 L 866 69 L 831 108 L 578 108 L 514 78 L 514 455 C 514 596 514 743 478 869 L 473 885 C 467 908 459 930 449 951 L 468 961 C 567 820 567 616 567 454 L 567 137 L 841 137 C 836 424 830 753 883 888 C 901 934 932 969 962 955 C 975 948 971 929 957 889 Z M 641 601 L 641 392 L 676 392 L 676 601 L 641 601 Z M 724 392 L 759 392 L 759 601 L 724 601 L 724 392 Z M 759 684 L 744 689 C 758 715 772 750 781 785 L 724 794 L 724 630 L 759 630 L 759 670 L 765 670 C 780 670 801 658 802 652 L 802 395 C 816 392 829 386 834 380 L 778 336 L 752 362 L 724 362 L 724 253 L 800 253 C 813 253 822 248 825 237 C 801 212 764 182 764 182 L 730 224 L 588 224 L 596 253 L 676 253 L 676 362 L 653 362 L 599 337 L 599 687 L 605 687 C 626 687 641 674 641 670 L 641 630 L 676 630 L 676 801 C 620 810 574 816 548 818 L 582 891 C 591 889 600 882 604 870 C 681 844 742 823 787 806 C 792 828 795 849 795 869 C 837 915 885 807 759 684 Z" fill="red" fill-opacity="0.5" /><text text-anchor="middle" x="500" y="1064" font-family="Arial" font-size="64">Source Han Serif TW</text><text text-anchor="middle" x="1500" y="1064" font-family="Arial" font-size="64">HKSerif (uni98CCHK-regular)</text></svg>