<svg width="3000" height="1080" xmlns="http://www.w3.org/2000/svg" style="background:#fff"><path d="M 191 355 L 191 114 L 371 114 L 371 201 L 315 201 L 256 173 L 256 355 L 191 355 Z M 371 355 L 302 355 L 302 231 L 371 231 L 371 355 Z M 117 385 L 441 385 C 436 410 430 438 425 455 L 440 461 C 458 444 486 413 502 394 C 520 393 531 391 539 384 L 471 318 L 436 355 L 426 355 L 426 121 C 451 119 463 113 471 103 L 391 43 L 359 84 L 203 84 L 137 55 L 137 355 L 115 355 C 114 345 112 335 109 325 L 91 324 C 93 358 74 403 55 418 C 38 431 29 450 39 466 C 50 483 79 478 92 464 C 107 449 117 421 117 385 Z M 185 661 L 185 583 C 232 599 287 626 317 643 C 372 656 382 560 185 561 L 185 507 L 365 507 L 365 666 C 292 690 221 710 183 718 C 185 699 185 680 185 661 Z M 423 881 L 423 515 C 440 512 454 504 460 498 L 385 442 L 356 477 L 197 477 L 126 446 L 126 662 C 126 768 119 869 41 950 L 54 963 C 148 903 175 817 182 732 L 213 792 C 222 788 228 780 231 768 C 286 737 330 710 365 690 L 365 877 C 365 889 361 895 345 895 C 329 895 260 890 260 890 L 260 905 C 294 910 312 915 322 923 C 332 930 336 941 338 953 C 412 947 423 924 423 881 Z M 949 862 L 945 744 L 933 744 C 925 788 915 848 909 860 C 906 866 903 867 898 868 C 894 869 886 869 876 869 L 855 869 C 843 869 841 864 841 850 L 841 308 C 863 305 875 300 882 292 L 808 227 L 772 266 L 648 266 C 649 211 649 153 649 94 C 673 90 683 80 686 66 L 584 55 C 584 129 585 199 584 266 L 477 266 L 486 295 L 584 295 C 582 573 562 791 418 950 L 432 967 C 561 858 613 716 633 545 C 668 596 700 657 709 704 C 765 750 808 631 638 500 C 644 435 646 367 648 295 L 782 295 L 782 869 C 782 907 790 926 840 926 L 876 926 C 949 926 972 913 972 889 C 972 876 968 870 949 862 Z" fill="blue" /><path transform="translate(1000)" d="M 188 374 L 188 137 L 354 137 L 354 224 L 304 224 L 246 198 L 246 374 L 188 374 Z M 291 374 L 291 254 L 354 254 L 354 374 L 291 374 Z M 120 404 L 424 404 C 418 429 411 457 406 474 L 421 480 C 440 463 468 432 485 413 C 503 412 515 410 522 402 L 454 337 L 419 374 L 410 374 L 410 144 C 435 142 447 136 455 126 L 375 66 L 343 107 L 199 107 L 133 78 L 133 374 L 118 374 C 117 364 115 354 112 344 L 94 343 C 96 377 76 422 57 436 C 40 450 32 469 41 485 C 52 502 81 497 95 482 C 110 467 120 439 120 404 Z M 349 727 L 193 727 L 193 638 L 349 638 L 349 727 Z M 193 521 L 349 521 L 349 609 L 193 609 L 193 521 Z M 411 871 L 411 529 C 428 526 442 518 447 512 L 371 455 L 341 491 L 197 491 L 132 462 L 132 956 L 142 956 C 167 956 193 941 193 934 L 193 757 L 349 757 L 349 867 C 349 880 346 885 331 885 C 315 885 254 881 254 881 L 254 896 C 285 899 302 905 312 912 C 321 919 324 930 325 942 C 401 935 411 914 411 871 Z M 953 881 L 964 750 L 950 748 C 942 785 934 817 924 846 C 920 858 916 860 906 853 C 827 792 822 513 832 325 C 853 322 867 315 873 308 L 800 245 L 764 283 L 660 283 C 661 219 661 152 662 84 C 686 80 694 70 697 56 L 595 44 C 595 127 596 207 595 283 L 472 283 L 480 313 L 594 313 C 593 384 590 452 582 518 C 555 502 524 487 488 473 L 477 484 C 509 505 544 533 576 563 C 554 711 508 838 410 943 L 425 960 C 538 866 596 749 627 616 C 662 656 690 699 702 738 C 763 777 793 664 639 553 C 651 477 656 397 659 313 L 773 313 C 770 574 772 843 887 922 C 921 944 955 952 969 930 C 976 919 971 903 953 881 Z" fill="red" /><path transform="translate(2000)" d="M 191 355 L 191 114 L 371 114 L 371 201 L 315 201 L 256 173 L 256 355 L 191 355 Z M 371 355 L 302 355 L 302 231 L 371 231 L 371 355 Z M 117 385 L 441 385 C 436 410 430 438 425 455 L 440 461 C 458 444 486 413 502 394 C 520 393 531 391 539 384 L 471 318 L 436 355 L 426 355 L 426 121 C 451 119 463 113 471 103 L 391 43 L 359 84 L 203 84 L 137 55 L 137 355 L 115 355 C 114 345 112 335 109 325 L 91 324 C 93 358 74 403 55 418 C 38 431 29 450 39 466 C 50 483 79 478 92 464 C 107 449 117 421 117 385 Z M 185 661 L 185 583 C 232 599 287 626 317 643 C 372 656 382 560 185 561 L 185 507 L 365 507 L 365 666 C 292 690 221 710 183 718 C 185 699 185 680 185 661 Z M 423 881 L 423 515 C 440 512 454 504 460 498 L 385 442 L 356 477 L 197 477 L 126 446 L 126 662 C 126 768 119 869 41 950 L 54 963 C 148 903 175 817 182 732 L 213 792 C 222 788 228 780 231 768 C 286 737 330 710 365 690 L 365 877 C 365 889 361 895 345 895 C 329 895 260 890 260 890 L 260 905 C 294 910 312 915 322 923 C 332 930 336 941 338 953 C 412 947 423 924 423 881 Z M 949 862 L 945 744 L 933 744 C 925 788 915 848 909 860 C 906 866 903 867 898 868 C 894 869 886 869 876 869 L 855 869 C 843 869 841 864 841 850 L 841 308 C 863 305 875 300 882 292 L 808 227 L 772 266 L 648 266 C 649 211 649 153 649 94 C 673 90 683 80 686 66 L 584 55 C 584 129 585 199 584 266 L 477 266 L 486 295 L 584 295 C 582 573 562 791 418 950 L 432 967 C 561 858 613 716 633 545 C 668 596 700 657 709 704 C 765 750 808 631 638 500 C 644 435 646 367 648 295 L 782 295 L 782 869 C 782 907 790 926 840 926 L 876 926 C 949 926 972 913 972 889 C 972 876 968 870 949 862 Z" fill="blue" fill-opacity="0.5" /><path transform="translate(2000)" d="M 188 374 L 188 137 L 354 137 L 354 224 L 304 224 L 246 198 L 246 374 L 188 374 Z M 291 374 L 291 254 L 354 254 L 354 374 L 291 374 Z M 120 404 L 424 404 C 418 429 411 457 406 474 L 421 480 C 440 463 468 432 485 413 C 503 412 515 410 522 402 L 454 337 L 419 374 L 410 374 L 410 144 C 435 142 447 136 455 126 L 375 66 L 343 107 L 199 107 L 133 78 L 133 374 L 118 374 C 117 364 115 354 112 344 L 94 343 C 96 377 76 422 57 436 C 40 450 32 469 41 485 C 52 502 81 497 95 482 C 110 467 120 439 120 404 Z M 349 727 L 193 727 L 193 638 L 349 638 L 349 727 Z M 193 521 L 349 521 L 349 609 L 193 609 L 193 521 Z M 411 871 L 411 529 C 428 526 442 518 447 512 L 371 455 L 341 491 L 197 491 L 132 462 L 132 956 L 142 956 C 167 956 193 941 193 934 L 193 757 L 349 757 L 349 867 C 349 880 346 885 331 885 C 315 885 254 881 254 881 L 254 896 C 285 899 302 905 312 912 C 321 919 324 930 325 942 C 401 935 411 914 411 871 Z M 953 881 L 964 750 L 950 748 C 942 785 934 817 924 846 C 920 858 916 860 906 853 C 827 792 822 513 832 325 C 853 322 867 315 873 308 L 800 245 L 764 283 L 660 283 C 661 219 661 152 662 84 C 686 80 694 70 697 56 L 595 44 C 595 127 596 207 595 283 L 472 283 L 480 313 L 594 313 C 593 384 590 452 582 518 C 555 502 524 487 488 473 L 477 484 C 509 505 544 533 576 563 C 554 711 508 838 410 943 L 425 960 C 538 866 596 749 627 616 C 662 656 690 699 702 738 C 763 777 793 664 639 553 C 651 477 656 397 659 313 L 773 313 C 770 574 772 843 887 922 C 921 944 955 952 969 930 C 976 919 971 903 953 881 Z" fill="red" fill-opacity="0.5" /><text text-anchor="middle" x="500" y="1064" font-family="Arial" font-size="64">Source Han Serif TW</text><text text-anchor="middle" x="1500" y="1064" font-family="Arial" font-size="64">HKSerif (uni9AABHK-regular)</text></svg>