<svg width="3000" height="1080" xmlns="http://www.w3.org/2000/svg" style="background:#fff"><path d="M 400 136 L 323 61 L 279 102 L 155 102 L 81 69 L 81 958 L 92 958 C 122 958 143 940 143 935 L 143 131 L 284 131 C 264 210 231 326 210 389 C 271 463 293 538 293 612 C 293 650 284 672 269 681 C 263 686 257 687 246 687 L 181 687 L 181 702 C 202 706 219 711 227 718 C 234 726 238 747 238 768 C 329 764 360 723 359 626 C 359 546 326 463 234 386 C 273 325 327 208 357 147 C 379 147 393 145 400 136 Z M 633 754 L 459 754 C 476 701 499 629 514 577 L 633 577 L 633 754 Z M 880 702 L 838 754 L 697 754 L 697 577 L 894 577 C 906 577 915 572 918 561 C 891 533 845 496 845 496 L 806 547 L 697 547 L 697 464 C 719 461 726 452 728 440 L 633 430 L 633 547 L 374 547 L 382 577 L 451 577 C 439 625 418 695 400 744 C 387 749 372 756 362 762 L 427 814 L 457 784 L 633 784 L 633 958 L 646 958 C 669 958 697 944 697 935 L 697 784 L 930 784 C 944 784 953 779 956 768 C 926 739 880 702 880 702 Z M 535 175 L 765 175 C 738 224 701 269 656 308 C 602 278 556 238 522 192 C 527 187 531 181 535 175 Z M 887 171 L 815 105 L 769 146 L 556 146 C 567 129 578 110 588 92 C 609 96 621 88 626 77 L 527 35 C 488 151 421 251 353 310 L 366 322 C 415 295 463 259 506 212 C 537 260 576 301 620 337 C 545 394 452 439 345 469 L 353 486 C 475 461 578 421 662 367 C 740 420 832 454 927 471 C 930 443 943 423 971 411 L 972 399 C 880 394 788 372 707 335 C 763 291 809 241 844 183 C 868 182 879 180 887 171 Z" fill="blue" /><path transform="translate(1000)" d="M 396 137 L 318 61 L 275 102 L 157 102 L 83 69 L 83 958 L 94 958 C 124 958 145 940 145 935 L 145 131 L 279 131 C 258 209 222 327 201 389 C 266 464 291 539 291 613 C 291 651 283 672 267 682 C 260 687 253 688 242 688 L 172 688 L 172 703 C 194 707 213 712 220 720 C 228 727 232 750 232 771 C 326 767 359 722 359 628 C 359 548 322 464 225 386 C 265 326 323 209 352 148 C 375 148 389 145 396 137 Z M 875 684 L 835 736 L 695 736 L 695 576 L 892 576 C 906 576 915 571 918 560 C 889 532 844 496 844 496 L 805 546 L 695 546 L 695 475 C 718 472 725 463 728 449 L 631 439 L 631 546 L 396 546 L 404 576 L 631 576 L 631 736 L 474 736 C 483 711 494 681 501 659 C 524 663 536 655 542 645 L 451 608 C 444 637 427 689 413 726 C 401 730 388 737 380 743 L 443 792 L 469 766 L 631 766 L 631 960 L 644 960 C 667 960 695 945 695 936 L 695 766 L 925 766 C 939 766 948 761 951 750 C 921 721 875 684 875 684 Z M 561 170 L 754 170 C 728 216 694 260 654 299 C 609 268 572 232 544 191 C 550 184 555 177 561 170 Z M 873 166 L 802 100 L 758 140 L 584 140 C 596 122 608 104 618 87 C 642 90 650 85 654 75 L 555 46 C 515 152 431 272 339 340 L 350 351 C 416 316 478 265 529 208 C 554 253 585 292 623 327 C 544 394 444 449 330 486 L 338 502 C 467 471 575 423 661 360 C 735 418 826 460 926 489 C 934 460 953 441 977 437 L 979 426 C 879 408 782 375 701 329 C 753 284 796 233 830 177 C 854 176 865 174 873 166 Z" fill="red" /><path transform="translate(2000)" d="M 400 136 L 323 61 L 279 102 L 155 102 L 81 69 L 81 958 L 92 958 C 122 958 143 940 143 935 L 143 131 L 284 131 C 264 210 231 326 210 389 C 271 463 293 538 293 612 C 293 650 284 672 269 681 C 263 686 257 687 246 687 L 181 687 L 181 702 C 202 706 219 711 227 718 C 234 726 238 747 238 768 C 329 764 360 723 359 626 C 359 546 326 463 234 386 C 273 325 327 208 357 147 C 379 147 393 145 400 136 Z M 633 754 L 459 754 C 476 701 499 629 514 577 L 633 577 L 633 754 Z M 880 702 L 838 754 L 697 754 L 697 577 L 894 577 C 906 577 915 572 918 561 C 891 533 845 496 845 496 L 806 547 L 697 547 L 697 464 C 719 461 726 452 728 440 L 633 430 L 633 547 L 374 547 L 382 577 L 451 577 C 439 625 418 695 400 744 C 387 749 372 756 362 762 L 427 814 L 457 784 L 633 784 L 633 958 L 646 958 C 669 958 697 944 697 935 L 697 784 L 930 784 C 944 784 953 779 956 768 C 926 739 880 702 880 702 Z M 535 175 L 765 175 C 738 224 701 269 656 308 C 602 278 556 238 522 192 C 527 187 531 181 535 175 Z M 887 171 L 815 105 L 769 146 L 556 146 C 567 129 578 110 588 92 C 609 96 621 88 626 77 L 527 35 C 488 151 421 251 353 310 L 366 322 C 415 295 463 259 506 212 C 537 260 576 301 620 337 C 545 394 452 439 345 469 L 353 486 C 475 461 578 421 662 367 C 740 420 832 454 927 471 C 930 443 943 423 971 411 L 972 399 C 880 394 788 372 707 335 C 763 291 809 241 844 183 C 868 182 879 180 887 171 Z" fill="blue" fill-opacity="0.5" /><path transform="translate(2000)" d="M 396 137 L 318 61 L 275 102 L 157 102 L 83 69 L 83 958 L 94 958 C 124 958 145 940 145 935 L 145 131 L 279 131 C 258 209 222 327 201 389 C 266 464 291 539 291 613 C 291 651 283 672 267 682 C 260 687 253 688 242 688 L 172 688 L 172 703 C 194 707 213 712 220 720 C 228 727 232 750 232 771 C 326 767 359 722 359 628 C 359 548 322 464 225 386 C 265 326 323 209 352 148 C 375 148 389 145 396 137 Z M 875 684 L 835 736 L 695 736 L 695 576 L 892 576 C 906 576 915 571 918 560 C 889 532 844 496 844 496 L 805 546 L 695 546 L 695 475 C 718 472 725 463 728 449 L 631 439 L 631 546 L 396 546 L 404 576 L 631 576 L 631 736 L 474 736 C 483 711 494 681 501 659 C 524 663 536 655 542 645 L 451 608 C 444 637 427 689 413 726 C 401 730 388 737 380 743 L 443 792 L 469 766 L 631 766 L 631 960 L 644 960 C 667 960 695 945 695 936 L 695 766 L 925 766 C 939 766 948 761 951 750 C 921 721 875 684 875 684 Z M 561 170 L 754 170 C 728 216 694 260 654 299 C 609 268 572 232 544 191 C 550 184 555 177 561 170 Z M 873 166 L 802 100 L 758 140 L 584 140 C 596 122 608 104 618 87 C 642 90 650 85 654 75 L 555 46 C 515 152 431 272 339 340 L 350 351 C 416 316 478 265 529 208 C 554 253 585 292 623 327 C 544 394 444 449 330 486 L 338 502 C 467 471 575 423 661 360 C 735 418 826 460 926 489 C 934 460 953 441 977 437 L 979 426 C 879 408 782 375 701 329 C 753 284 796 233 830 177 C 854 176 865 174 873 166 Z" fill="red" fill-opacity="0.5" /><text text-anchor="middle" x="500" y="1064" font-family="Arial" font-size="64">Source Han Serif TW</text><text text-anchor="middle" x="1500" y="1064" font-family="Arial" font-size="64">HKSerif (uni964DHK-regular)</text></svg>