<svg width="3000" height="1080" xmlns="http://www.w3.org/2000/svg" style="background:#fff"><path d="M 609 41 L 597 48 C 636 88 677 158 681 213 C 744 266 804 125 609 41 Z M 459 268 L 932 268 C 946 268 955 263 958 252 C 925 220 871 178 871 178 L 824 238 L 451 238 L 459 268 Z M 185 373 L 185 137 L 350 137 L 350 223 L 300 223 L 241 197 L 241 373 L 185 373 Z M 350 373 L 286 373 L 286 253 L 350 253 L 350 373 Z M 118 403 L 422 403 C 417 427 410 455 406 471 L 421 477 C 438 461 463 431 478 410 C 496 409 507 408 515 401 L 451 339 L 418 373 L 404 373 L 404 144 C 429 142 442 136 449 126 L 370 67 L 339 107 L 197 107 L 133 78 L 133 373 L 116 373 C 114 363 112 353 109 343 L 90 342 C 94 375 76 419 57 434 C 41 447 33 467 42 483 C 54 500 82 495 95 480 C 109 465 118 438 118 403 Z M 185 653 L 185 594 C 224 608 269 630 294 645 C 346 659 359 565 185 573 L 185 516 L 348 516 L 348 673 C 282 697 217 718 182 727 C 185 702 185 677 185 653 Z M 441 506 L 368 452 L 339 486 L 198 486 L 129 456 L 129 654 C 129 759 121 863 44 947 L 57 960 C 146 899 173 815 181 735 L 215 797 C 223 793 230 784 232 773 C 279 743 318 716 348 696 L 348 875 C 348 888 344 894 329 894 C 312 894 244 888 244 888 L 244 904 C 277 908 295 914 306 921 C 315 929 319 940 321 954 C 394 947 404 923 404 880 L 404 524 C 421 520 436 513 441 506 Z M 945 864 L 942 715 L 929 715 C 920 772 909 845 903 860 C 900 869 897 871 892 871 C 886 872 877 872 866 872 L 838 872 C 824 872 822 868 822 855 L 822 419 C 843 416 853 411 860 404 L 788 339 L 753 378 L 616 378 L 544 345 L 544 569 C 544 706 527 841 413 950 L 426 963 C 588 857 604 698 604 568 L 604 407 L 762 407 L 762 871 C 762 910 771 928 822 928 L 865 928 C 944 928 968 916 968 891 C 968 880 965 872 945 864 Z" fill="blue" /><path transform="translate(1000)" d="M 612 38 L 600 45 C 638 88 679 159 682 216 C 743 269 805 127 612 38 Z M 466 268 L 935 268 C 948 268 958 263 960 252 C 928 221 875 178 875 178 L 829 238 L 458 238 L 466 268 Z M 188 374 L 188 137 L 354 137 L 354 224 L 304 224 L 246 198 L 246 374 L 188 374 Z M 291 374 L 291 254 L 354 254 L 354 374 L 291 374 Z M 120 404 L 424 404 C 418 429 411 457 406 474 L 421 480 C 440 463 468 432 485 413 C 503 412 515 410 522 402 L 454 337 L 419 374 L 410 374 L 410 144 C 435 142 447 136 455 126 L 375 66 L 343 107 L 199 107 L 133 78 L 133 374 L 118 374 C 117 364 115 354 112 344 L 94 343 C 96 377 76 422 57 436 C 40 450 32 469 41 485 C 52 502 81 497 95 482 C 110 467 120 439 120 404 Z M 348 727 L 192 727 L 192 638 L 348 638 L 348 727 Z M 192 521 L 348 521 L 348 609 L 192 609 L 192 521 Z M 447 512 L 370 455 L 340 491 L 196 491 L 131 462 L 131 956 L 141 956 C 166 956 192 942 192 935 L 192 757 L 348 757 L 348 878 C 348 890 345 896 330 896 C 314 896 253 891 253 891 L 253 906 C 284 910 301 915 312 922 C 320 929 323 940 324 952 C 400 945 410 924 410 881 L 410 529 C 427 526 441 518 447 512 Z M 949 867 L 946 717 L 932 717 C 923 775 911 848 906 862 C 903 871 900 872 894 873 C 888 874 876 874 862 874 L 828 874 C 812 874 809 870 809 856 L 809 419 C 830 417 842 412 848 405 L 776 340 L 741 379 L 628 379 L 557 346 L 557 568 C 557 703 543 838 439 947 L 451 960 C 603 853 617 695 617 568 L 617 408 L 750 408 L 750 872 C 750 912 760 930 813 930 L 861 930 C 947 930 972 918 972 894 C 972 881 968 875 949 867 Z" fill="red" /><path transform="translate(2000)" d="M 609 41 L 597 48 C 636 88 677 158 681 213 C 744 266 804 125 609 41 Z M 459 268 L 932 268 C 946 268 955 263 958 252 C 925 220 871 178 871 178 L 824 238 L 451 238 L 459 268 Z M 185 373 L 185 137 L 350 137 L 350 223 L 300 223 L 241 197 L 241 373 L 185 373 Z M 350 373 L 286 373 L 286 253 L 350 253 L 350 373 Z M 118 403 L 422 403 C 417 427 410 455 406 471 L 421 477 C 438 461 463 431 478 410 C 496 409 507 408 515 401 L 451 339 L 418 373 L 404 373 L 404 144 C 429 142 442 136 449 126 L 370 67 L 339 107 L 197 107 L 133 78 L 133 373 L 116 373 C 114 363 112 353 109 343 L 90 342 C 94 375 76 419 57 434 C 41 447 33 467 42 483 C 54 500 82 495 95 480 C 109 465 118 438 118 403 Z M 185 653 L 185 594 C 224 608 269 630 294 645 C 346 659 359 565 185 573 L 185 516 L 348 516 L 348 673 C 282 697 217 718 182 727 C 185 702 185 677 185 653 Z M 441 506 L 368 452 L 339 486 L 198 486 L 129 456 L 129 654 C 129 759 121 863 44 947 L 57 960 C 146 899 173 815 181 735 L 215 797 C 223 793 230 784 232 773 C 279 743 318 716 348 696 L 348 875 C 348 888 344 894 329 894 C 312 894 244 888 244 888 L 244 904 C 277 908 295 914 306 921 C 315 929 319 940 321 954 C 394 947 404 923 404 880 L 404 524 C 421 520 436 513 441 506 Z M 945 864 L 942 715 L 929 715 C 920 772 909 845 903 860 C 900 869 897 871 892 871 C 886 872 877 872 866 872 L 838 872 C 824 872 822 868 822 855 L 822 419 C 843 416 853 411 860 404 L 788 339 L 753 378 L 616 378 L 544 345 L 544 569 C 544 706 527 841 413 950 L 426 963 C 588 857 604 698 604 568 L 604 407 L 762 407 L 762 871 C 762 910 771 928 822 928 L 865 928 C 944 928 968 916 968 891 C 968 880 965 872 945 864 Z" fill="blue" fill-opacity="0.5" /><path transform="translate(2000)" d="M 612 38 L 600 45 C 638 88 679 159 682 216 C 743 269 805 127 612 38 Z M 466 268 L 935 268 C 948 268 958 263 960 252 C 928 221 875 178 875 178 L 829 238 L 458 238 L 466 268 Z M 188 374 L 188 137 L 354 137 L 354 224 L 304 224 L 246 198 L 246 374 L 188 374 Z M 291 374 L 291 254 L 354 254 L 354 374 L 291 374 Z M 120 404 L 424 404 C 418 429 411 457 406 474 L 421 480 C 440 463 468 432 485 413 C 503 412 515 410 522 402 L 454 337 L 419 374 L 410 374 L 410 144 C 435 142 447 136 455 126 L 375 66 L 343 107 L 199 107 L 133 78 L 133 374 L 118 374 C 117 364 115 354 112 344 L 94 343 C 96 377 76 422 57 436 C 40 450 32 469 41 485 C 52 502 81 497 95 482 C 110 467 120 439 120 404 Z M 348 727 L 192 727 L 192 638 L 348 638 L 348 727 Z M 192 521 L 348 521 L 348 609 L 192 609 L 192 521 Z M 447 512 L 370 455 L 340 491 L 196 491 L 131 462 L 131 956 L 141 956 C 166 956 192 942 192 935 L 192 757 L 348 757 L 348 878 C 348 890 345 896 330 896 C 314 896 253 891 253 891 L 253 906 C 284 910 301 915 312 922 C 320 929 323 940 324 952 C 400 945 410 924 410 881 L 410 529 C 427 526 441 518 447 512 Z M 949 867 L 946 717 L 932 717 C 923 775 911 848 906 862 C 903 871 900 872 894 873 C 888 874 876 874 862 874 L 828 874 C 812 874 809 870 809 856 L 809 419 C 830 417 842 412 848 405 L 776 340 L 741 379 L 628 379 L 557 346 L 557 568 C 557 703 543 838 439 947 L 451 960 C 603 853 617 695 617 568 L 617 408 L 750 408 L 750 872 C 750 912 760 930 813 930 L 861 930 C 947 930 972 918 972 894 C 972 881 968 875 949 867 Z" fill="red" fill-opacity="0.5" /><text text-anchor="middle" x="500" y="1064" font-family="Arial" font-size="64">Source Han Serif TW</text><text text-anchor="middle" x="1500" y="1064" font-family="Arial" font-size="64">HKSerif (uni9AAFHK-regular)</text></svg>